G04 Layer: TopPasteMaskLayer*
G04 EasyEDA Pro v2.2.47.7, 2026-05-03 20:12:45*
G04 Gerber Generator version 0.3*
G04 Scale: 100 percent, Rotated: No, Reflected: No*
G04 Dimensions in millimeters*
G04 Leading zeros omitted, absolute positions, 4 integers and 5 decimals*
G04 Generated by one-click*
G04 Object Configs: Pad,Via,Track,Text,Image,Dimension,BoardOutline,BoardCutout,CopperFilled,SolidRegion,FPCStiffener,Line,PlaneZone,ComponentProperty,ComponentSilkscreen,TearDrop*
G04 Layer Configs: 1,15,16,2,3,4,5,6,7,8,9,10,11,13,14,56*
G04 Copper Areas: 0*
%FSLAX45Y45*%
%MOMM*%
%AMPolygonMacro1*4,1,4,-3.2385,-3.302,-3.2385,3.302,3.2385,3.302,3.2385,-3.302,-3.2385,-3.302,0*%
%AMPolygonMacro2*4,1,4,3.2385,3.302,3.2385,-3.302,-3.2385,-3.302,-3.2385,3.302,3.2385,3.302,0*%
%ADD10PolygonMacro1*%
%ADD11PolygonMacro2*%
%ADD12R,0.9X0.8*%
%ADD13R,0.54X0.54*%
%ADD14R,5.99999X6.50001*%
%ADD15R,1.2X2.49999*%
%ADD16R,0.67501X0.28001*%
%ADD17R,0.2842X0.67501*%
%ADD18R,0.28001X0.67501*%
%ADD19R,0.4X0.6*%
%ADD20R,0.5X0.54*%
%ADD21R,2.47X0.98001*%
%ADD22R,2.47X3.59999*%
%ADD23R,0.8X0.9*%
%ADD24R,0.532X1.07*%
%ADD25R,2.95001X2.49999*%
%ADD26R,2.95001X1.0*%
%ADD27O,1.6X0.3*%
%ADD28O,0.3X1.6*%
%ADD29R,1.5X1.1*%
%ADD30R,1.1X1.5*%
%ADD31R,3.49999X1.2*%
%ADD32R,0.28001X0.5*%
%ADD33R,0.5X0.28001*%
%ADD34R,0.54X0.5*%
%ADD35O,0.58801X2.045*%
G75*


G04 PolygonModel Start*
G36*
G01X-3603539Y576702D02*
G01X-3603539Y496702D01*
G01X-3598537Y491701D01*
G01X-3575741Y491701D01*
G01X-3575741Y528701D01*
G01X-3542741Y528701D01*
G01X-3542741Y491701D01*
G01X-3518538Y491701D01*
G01X-3513539Y496702D01*
G01X-3513539Y576702D01*
G01X-3518538Y581701D01*
G01X-3598537Y581701D01*
G01X-3603539Y576702D01*
G37*
G36*
G01X-3513541Y337698D02*
G01X-3513541Y417698D01*
G01X-3518543Y422699D01*
G01X-3541339Y422699D01*
G01X-3541339Y385699D01*
G01X-3574339Y385699D01*
G01X-3574339Y422699D01*
G01X-3598542Y422699D01*
G01X-3603541Y417698D01*
G01X-3603541Y337698D01*
G01X-3598542Y332699D01*
G01X-3518543Y332699D01*
G01X-3513541Y337698D01*
G37*
G36*
G01X3608619Y-576702D02*
G01X3608619Y-496702D01*
G01X3603617Y-491701D01*
G01X3580821Y-491701D01*
G01X3580821Y-528701D01*
G01X3547821Y-528701D01*
G01X3547821Y-491701D01*
G01X3523618Y-491701D01*
G01X3518619Y-496702D01*
G01X3518619Y-576702D01*
G01X3523618Y-581701D01*
G01X3603617Y-581701D01*
G01X3608619Y-576702D01*
G37*
G36*
G01X3518621Y-337698D02*
G01X3518621Y-417698D01*
G01X3523623Y-422699D01*
G01X3546419Y-422699D01*
G01X3546419Y-385699D01*
G01X3579419Y-385699D01*
G01X3579419Y-422699D01*
G01X3603622Y-422699D01*
G01X3608621Y-417698D01*
G01X3608621Y-337698D01*
G01X3603622Y-332699D01*
G01X3523623Y-332699D01*
G01X3518621Y-337698D01*
G37*
G36*
G01X3160481Y576702D02*
G01X3160481Y496702D01*
G01X3165483Y491701D01*
G01X3188279Y491701D01*
G01X3188279Y528701D01*
G01X3221279Y528701D01*
G01X3221279Y491701D01*
G01X3245482Y491701D01*
G01X3250481Y496702D01*
G01X3250481Y576702D01*
G01X3245482Y581701D01*
G01X3165483Y581701D01*
G01X3160481Y576702D01*
G37*
G36*
G01X3250479Y337698D02*
G01X3250479Y417698D01*
G01X3245477Y422699D01*
G01X3222681Y422699D01*
G01X3222681Y385699D01*
G01X3189681Y385699D01*
G01X3189681Y422699D01*
G01X3165478Y422699D01*
G01X3160479Y417698D01*
G01X3160479Y337698D01*
G01X3165478Y332699D01*
G01X3245477Y332699D01*
G01X3250479Y337698D01*
G37*
G36*
G01X-3160573Y-576194D02*
G01X-3160573Y-496194D01*
G01X-3165575Y-491193D01*
G01X-3188371Y-491193D01*
G01X-3188371Y-528193D01*
G01X-3221371Y-528193D01*
G01X-3221371Y-491193D01*
G01X-3245574Y-491193D01*
G01X-3250573Y-496194D01*
G01X-3250573Y-576194D01*
G01X-3245574Y-581193D01*
G01X-3165575Y-581193D01*
G01X-3160573Y-576194D01*
G37*
G36*
G01X-3250571Y-337190D02*
G01X-3250571Y-417190D01*
G01X-3245569Y-422191D01*
G01X-3222773Y-422191D01*
G01X-3222773Y-385191D01*
G01X-3189773Y-385191D01*
G01X-3189773Y-422191D01*
G01X-3165569Y-422191D01*
G01X-3160571Y-417190D01*
G01X-3160571Y-337190D01*
G01X-3165569Y-332192D01*
G01X-3245569Y-332192D01*
G01X-3250571Y-337190D01*
G37*
G36*
G01X1427602Y-2126701D02*
G01X1347602Y-2126701D01*
G01X1342601Y-2131703D01*
G01X1342601Y-2154499D01*
G01X1379601Y-2154499D01*
G01X1379601Y-2187499D01*
G01X1342601Y-2187499D01*
G01X1342601Y-2211702D01*
G01X1347602Y-2216701D01*
G01X1427602Y-2216701D01*
G01X1432601Y-2211702D01*
G01X1432601Y-2131703D01*
G01X1427602Y-2126701D01*
G37*
G36*
G01X1188598Y-2216699D02*
G01X1268598Y-2216699D01*
G01X1273599Y-2211697D01*
G01X1273599Y-2188901D01*
G01X1236599Y-2188901D01*
G01X1236599Y-2155901D01*
G01X1273599Y-2155901D01*
G01X1273599Y-2131698D01*
G01X1268598Y-2126699D01*
G01X1188598Y-2126699D01*
G01X1183599Y-2131698D01*
G01X1183599Y-2211697D01*
G01X1188598Y-2216699D01*
G37*
G36*
G01X1921347Y-2676804D02*
G01X1841348Y-2676804D01*
G01X1836346Y-2681806D01*
G01X1836346Y-2704602D01*
G01X1873347Y-2704602D01*
G01X1873347Y-2737602D01*
G01X1836346Y-2737602D01*
G01X1836346Y-2761805D01*
G01X1841348Y-2766804D01*
G01X1921347Y-2766804D01*
G01X1926346Y-2761805D01*
G01X1926346Y-2681806D01*
G01X1921347Y-2676804D01*
G37*
G36*
G01X1682344Y-2766802D02*
G01X1762343Y-2766802D01*
G01X1767345Y-2761800D01*
G01X1767345Y-2739004D01*
G01X1730345Y-2739004D01*
G01X1730345Y-2706004D01*
G01X1767345Y-2706004D01*
G01X1767345Y-2681801D01*
G01X1762343Y-2676802D01*
G01X1682344Y-2676802D01*
G01X1677345Y-2681801D01*
G01X1677345Y-2761800D01*
G01X1682344Y-2766802D01*
G37*
G36*
G01X1414902Y-2677881D02*
G01X1334902Y-2677881D01*
G01X1329901Y-2682883D01*
G01X1329901Y-2705679D01*
G01X1366901Y-2705679D01*
G01X1366901Y-2738679D01*
G01X1329901Y-2738679D01*
G01X1329901Y-2762882D01*
G01X1334902Y-2767881D01*
G01X1414902Y-2767881D01*
G01X1419901Y-2762882D01*
G01X1419901Y-2682883D01*
G01X1414902Y-2677881D01*
G37*
G36*
G01X1175898Y-2767879D02*
G01X1255898Y-2767879D01*
G01X1260899Y-2762877D01*
G01X1260899Y-2740081D01*
G01X1223899Y-2740081D01*
G01X1223899Y-2707081D01*
G01X1260899Y-2707081D01*
G01X1260899Y-2682878D01*
G01X1255898Y-2677879D01*
G01X1175898Y-2677879D01*
G01X1170899Y-2682878D01*
G01X1170899Y-2762877D01*
G01X1175898Y-2767879D01*
G37*
G36*
G01X-3769482Y18501D02*
G01X-3689482Y18501D01*
G01X-3684481Y23503D01*
G01X-3684481Y46299D01*
G01X-3721481Y46299D01*
G01X-3721481Y79299D01*
G01X-3684481Y79299D01*
G01X-3684481Y103502D01*
G01X-3689482Y108501D01*
G01X-3769482Y108501D01*
G01X-3774481Y103502D01*
G01X-3774481Y23503D01*
G01X-3769482Y18501D01*
G37*
G36*
G01X-3530478Y108499D02*
G01X-3610478Y108499D01*
G01X-3615479Y103497D01*
G01X-3615479Y80701D01*
G01X-3578479Y80701D01*
G01X-3578479Y47701D01*
G01X-3615479Y47701D01*
G01X-3615479Y23498D01*
G01X-3610478Y18499D01*
G01X-3530478Y18499D01*
G01X-3525479Y23498D01*
G01X-3525479Y103497D01*
G01X-3530478Y108499D01*
G37*
G36*
G01X3764402Y-18501D02*
G01X3684402Y-18501D01*
G01X3679401Y-23503D01*
G01X3679401Y-46299D01*
G01X3716401Y-46299D01*
G01X3716401Y-79299D01*
G01X3679401Y-79299D01*
G01X3679401Y-103502D01*
G01X3684402Y-108501D01*
G01X3764402Y-108501D01*
G01X3769401Y-103502D01*
G01X3769401Y-23503D01*
G01X3764402Y-18501D01*
G37*
G36*
G01X3525398Y-108499D02*
G01X3605398Y-108499D01*
G01X3610399Y-103497D01*
G01X3610399Y-80701D01*
G01X3573399Y-80701D01*
G01X3573399Y-47701D01*
G01X3610399Y-47701D01*
G01X3610399Y-23498D01*
G01X3605398Y-18499D01*
G01X3525398Y-18499D01*
G01X3520399Y-23498D01*
G01X3520399Y-103497D01*
G01X3525398Y-108499D01*
G37*
G36*
G01X-3002250Y-23074D02*
G01X-3082250Y-23074D01*
G01X-3087251Y-28075D01*
G01X-3087251Y-50871D01*
G01X-3050251Y-50871D01*
G01X-3050251Y-83871D01*
G01X-3087251Y-83871D01*
G01X-3087251Y-108075D01*
G01X-3082250Y-113073D01*
G01X-3002250Y-113073D01*
G01X-2997251Y-108075D01*
G01X-2997251Y-28075D01*
G01X-3002250Y-23074D01*
G37*
G36*
G01X-3241254Y-113071D02*
G01X-3161254Y-113071D01*
G01X-3156253Y-108070D01*
G01X-3156253Y-85273D01*
G01X-3193253Y-85273D01*
G01X-3193253Y-52273D01*
G01X-3156253Y-52273D01*
G01X-3156253Y-28070D01*
G01X-3161254Y-23071D01*
G01X-3241254Y-23071D01*
G01X-3246253Y-28070D01*
G01X-3246253Y-108070D01*
G01X-3241254Y-113071D01*
G37*
G36*
G01X-278679Y-1122558D02*
G01X-278679Y-1202558D01*
G01X-273677Y-1207559D01*
G01X-250881Y-1207559D01*
G01X-250881Y-1170559D01*
G01X-217881Y-1170559D01*
G01X-217881Y-1207559D01*
G01X-193678Y-1207559D01*
G01X-188679Y-1202558D01*
G01X-188679Y-1122558D01*
G01X-193678Y-1117559D01*
G01X-273677Y-1117559D01*
G01X-278679Y-1122558D01*
G37*
G36*
G01X-188681Y-1361562D02*
G01X-188681Y-1281562D01*
G01X-193683Y-1276561D01*
G01X-216479Y-1276561D01*
G01X-216479Y-1313561D01*
G01X-249479Y-1313561D01*
G01X-249479Y-1276561D01*
G01X-273682Y-1276561D01*
G01X-278681Y-1281562D01*
G01X-278681Y-1361562D01*
G01X-273682Y-1366561D01*
G01X-193683Y-1366561D01*
G01X-188681Y-1361562D01*
G37*
G36*
G01X3002158Y21041D02*
G01X3082158Y21041D01*
G01X3087159Y26043D01*
G01X3087159Y48839D01*
G01X3050159Y48839D01*
G01X3050159Y81839D01*
G01X3087159Y81839D01*
G01X3087159Y106042D01*
G01X3082158Y111041D01*
G01X3002158Y111041D01*
G01X2997159Y106042D01*
G01X2997159Y26043D01*
G01X3002158Y21041D01*
G37*
G36*
G01X3241162Y111039D02*
G01X3161162Y111039D01*
G01X3156161Y106037D01*
G01X3156161Y83241D01*
G01X3193161Y83241D01*
G01X3193161Y50241D01*
G01X3156161Y50241D01*
G01X3156161Y26038D01*
G01X3161162Y21039D01*
G01X3241162Y21039D01*
G01X3246161Y26038D01*
G01X3246161Y106037D01*
G01X3241162Y111039D01*
G37*
G36*
G01X-3303740Y891400D02*
G01X-3303740Y937400D01*
G01X-3299739Y941400D01*
G01X-3249676Y941400D01*
G01X-3245675Y937400D01*
G01X-3245675Y891400D01*
G01X-3249676Y887400D01*
G01X-3299739Y887400D01*
G01X-3303740Y891400D01*
G37*
G36*
G01X-3330740Y891400D02*
G01X-3330740Y937400D01*
G01X-3334741Y941400D01*
G01X-3384804Y941400D01*
G01X-3388804Y937400D01*
G01X-3388804Y891400D01*
G01X-3384804Y887400D01*
G01X-3334741Y887400D01*
G01X-3330740Y891400D01*
G37*
G36*
G01X-2875140Y935520D02*
G01X-2921140Y935520D01*
G01X-2925140Y939521D01*
G01X-2925140Y989584D01*
G01X-2921140Y993585D01*
G01X-2875140Y993585D01*
G01X-2871140Y989584D01*
G01X-2871140Y939521D01*
G01X-2875140Y935520D01*
G37*
G36*
G01X-2875140Y908520D02*
G01X-2921140Y908520D01*
G01X-2925140Y904519D01*
G01X-2925140Y854456D01*
G01X-2921140Y850456D01*
G01X-2875140Y850456D01*
G01X-2871140Y854456D01*
G01X-2871140Y904519D01*
G01X-2875140Y908520D01*
G37*
G36*
G01X-3858120Y882180D02*
G01X-3904120Y882180D01*
G01X-3908120Y886181D01*
G01X-3908120Y936244D01*
G01X-3904120Y940245D01*
G01X-3858120Y940245D01*
G01X-3854120Y936244D01*
G01X-3854120Y886181D01*
G01X-3858120Y882180D01*
G37*
G36*
G01X-3858120Y855180D02*
G01X-3904120Y855180D01*
G01X-3908120Y851179D01*
G01X-3908120Y801116D01*
G01X-3904120Y797116D01*
G01X-3858120Y797116D01*
G01X-3854120Y801116D01*
G01X-3854120Y851179D01*
G01X-3858120Y855180D01*
G37*
G36*
G01X1194318Y-2807531D02*
G01X1194318Y-2937533D01*
G01X1224316Y-2937533D01*
G01X1224318Y-2937533D01*
G01X1254316Y-2937533D01*
G01X1254316Y-2807531D01*
G01X1224318Y-2807531D01*
G01X1224316Y-2807531D01*
G01X1194318Y-2807531D01*
G37*
G36*
G01X1584312Y-2937533D02*
G01X1584312Y-2807531D01*
G01X1554312Y-2807531D01*
G01X1554312Y-2937533D01*
G01X1584312Y-2937533D01*
G37*
G36*
G01X1484313Y-2937533D02*
G01X1484313Y-2807531D01*
G01X1454313Y-2807531D01*
G01X1454313Y-2937533D01*
G01X1484313Y-2937533D01*
G37*
G36*
G01X1334326Y-2937533D02*
G01X1334326Y-2807531D01*
G01X1304328Y-2807531D01*
G01X1304326Y-2807531D01*
G01X1274328Y-2807531D01*
G01X1274328Y-2937533D01*
G01X1304326Y-2937533D01*
G01X1304328Y-2937533D01*
G01X1334326Y-2937533D01*
G37*
G36*
G01X1404325Y-2807533D02*
G01X1404325Y-2937535D01*
G01X1434325Y-2937535D01*
G01X1434325Y-2807533D01*
G01X1404325Y-2807533D01*
G37*
G36*
G01X1894319Y-2937535D02*
G01X1894319Y-2807533D01*
G01X1864322Y-2807533D01*
G01X1864319Y-2807533D01*
G01X1834322Y-2807533D01*
G01X1834322Y-2937535D01*
G01X1864319Y-2937535D01*
G01X1864322Y-2937535D01*
G01X1894319Y-2937535D01*
G37*
G36*
G01X1504325Y-2807533D02*
G01X1504325Y-2937535D01*
G01X1534325Y-2937535D01*
G01X1534325Y-2807533D01*
G01X1504325Y-2807533D01*
G37*
G36*
G01X1734325Y-2937535D02*
G01X1734325Y-2807533D01*
G01X1704325Y-2807533D01*
G01X1704325Y-2937535D01*
G01X1734325Y-2937535D01*
G37*
G36*
G01X1604325Y-2807533D02*
G01X1604325Y-2937535D01*
G01X1634325Y-2937535D01*
G01X1634325Y-2807533D01*
G01X1604325Y-2807533D01*
G37*
G36*
G01X1684287Y-2937538D02*
G01X1684287Y-2807536D01*
G01X1654287Y-2807536D01*
G01X1654287Y-2937538D01*
G01X1684287Y-2937538D01*
G37*
G36*
G01X1384313Y-2937538D02*
G01X1384313Y-2807536D01*
G01X1354313Y-2807536D01*
G01X1354313Y-2937538D01*
G01X1384313Y-2937538D01*
G37*
G36*
G01X1814340Y-2937561D02*
G01X1814340Y-2807559D01*
G01X1784342Y-2807559D01*
G01X1784340Y-2807559D01*
G01X1754342Y-2807559D01*
G01X1754342Y-2937561D01*
G01X1784340Y-2937561D01*
G01X1784342Y-2937561D01*
G01X1814340Y-2937561D01*
G37*
G36*
G01X1116053Y-2837678D02*
G01X1113564Y-2837553D01*
G01X1111070Y-2837553D01*
G01X1108580Y-2837678D01*
G01X1106099Y-2837927D01*
G01X1103635Y-2838298D01*
G01X1101192Y-2838793D01*
G01X1098776Y-2839408D01*
G01X1096394Y-2840142D01*
G01X1094049Y-2840995D01*
G01X1091753Y-2841963D01*
G01X1089505Y-2843045D01*
G01X1087318Y-2844236D01*
G01X1085190Y-2845537D01*
G01X1083130Y-2846941D01*
G01X1081143Y-2848447D01*
G01X1079233Y-2850050D01*
G01X1077405Y-2851744D01*
G01X1075665Y-2853530D01*
G01X1074014Y-2855399D01*
G01X1072459Y-2857348D01*
G01X1071004Y-2859372D01*
G01X1069652Y-2861467D01*
G01X1068405Y-2863626D01*
G01X1067267Y-2865844D01*
G01X1066244Y-2868117D01*
G01X1065332Y-2870436D01*
G01X1064539Y-2872801D01*
G01X1063864Y-2875201D01*
G01X1063308Y-2877629D01*
G01X1062876Y-2880086D01*
G01X1062566Y-2882560D01*
G01X1062378Y-2885046D01*
G01X1062317Y-2887538D01*
G01X1062317Y-2987538D01*
G01X1062378Y-2990030D01*
G01X1062566Y-2992516D01*
G01X1062876Y-2994990D01*
G01X1063308Y-2997446D01*
G01X1063864Y-2999875D01*
G01X1064539Y-3002275D01*
G01X1065332Y-3004640D01*
G01X1066244Y-3006959D01*
G01X1067267Y-3009232D01*
G01X1068405Y-3011449D01*
G01X1069652Y-3013608D01*
G01X1071004Y-3015704D01*
G01X1072459Y-3017728D01*
G01X1074014Y-3019676D01*
G01X1075665Y-3021546D01*
G01X1077405Y-3023332D01*
G01X1079233Y-3025026D01*
G01X1081143Y-3026628D01*
G01X1083130Y-3028135D01*
G01X1085190Y-3029539D01*
G01X1087318Y-3030840D01*
G01X1089505Y-3032031D01*
G01X1091753Y-3033113D01*
G01X1094049Y-3034081D01*
G01X1096394Y-3034934D01*
G01X1098776Y-3035668D01*
G01X1101192Y-3036283D01*
G01X1103635Y-3036778D01*
G01X1106099Y-3037149D01*
G01X1108580Y-3037398D01*
G01X1111070Y-3037522D01*
G01X1113564Y-3037522D01*
G01X1116053Y-3037398D01*
G01X1118535Y-3037149D01*
G01X1120999Y-3036778D01*
G01X1123442Y-3036283D01*
G01X1125858Y-3035668D01*
G01X1128240Y-3034934D01*
G01X1130584Y-3034081D01*
G01X1132881Y-3033113D01*
G01X1135129Y-3032031D01*
G01X1137318Y-3030840D01*
G01X1139444Y-3029539D01*
G01X1141504Y-3028135D01*
G01X1143490Y-3026628D01*
G01X1145400Y-3025026D01*
G01X1147229Y-3023332D01*
G01X1148969Y-3021546D01*
G01X1150620Y-3019676D01*
G01X1152174Y-3017728D01*
G01X1153630Y-3015704D01*
G01X1154981Y-3013608D01*
G01X1156228Y-3011449D01*
G01X1157366Y-3009232D01*
G01X1158390Y-3006959D01*
G01X1159302Y-3004640D01*
G01X1160094Y-3002275D01*
G01X1160770Y-2999875D01*
G01X1161326Y-2997446D01*
G01X1161758Y-2994990D01*
G01X1162068Y-2992516D01*
G01X1162256Y-2990030D01*
G01X1162317Y-2987538D01*
G01X1162317Y-2887538D01*
G01X1162256Y-2885046D01*
G01X1162068Y-2882560D01*
G01X1161758Y-2880086D01*
G01X1161326Y-2877629D01*
G01X1160770Y-2875201D01*
G01X1160094Y-2872801D01*
G01X1159302Y-2870436D01*
G01X1158390Y-2868117D01*
G01X1157366Y-2865844D01*
G01X1156228Y-2863626D01*
G01X1154981Y-2861467D01*
G01X1153630Y-2859372D01*
G01X1152174Y-2857348D01*
G01X1150620Y-2855399D01*
G01X1148969Y-2853530D01*
G01X1147229Y-2851744D01*
G01X1145400Y-2850050D01*
G01X1143490Y-2848447D01*
G01X1141504Y-2846941D01*
G01X1139444Y-2845537D01*
G01X1137318Y-2844236D01*
G01X1135129Y-2843045D01*
G01X1132881Y-2841963D01*
G01X1130584Y-2840995D01*
G01X1128240Y-2840142D01*
G01X1125858Y-2839408D01*
G01X1123442Y-2838793D01*
G01X1120999Y-2838298D01*
G01X1118535Y-2837927D01*
G01X1116053Y-2837678D01*
G37*
G36*
G01X1980060Y-2837678D02*
G01X1977570Y-2837553D01*
G01X1975076Y-2837553D01*
G01X1972587Y-2837678D01*
G01X1970105Y-2837927D01*
G01X1967641Y-2838298D01*
G01X1965198Y-2838793D01*
G01X1962782Y-2839408D01*
G01X1960400Y-2840142D01*
G01X1958056Y-2840995D01*
G01X1955759Y-2841963D01*
G01X1953511Y-2843045D01*
G01X1951325Y-2844236D01*
G01X1949196Y-2845537D01*
G01X1947136Y-2846941D01*
G01X1945150Y-2848447D01*
G01X1943240Y-2850050D01*
G01X1941411Y-2851744D01*
G01X1939671Y-2853530D01*
G01X1938020Y-2855399D01*
G01X1936466Y-2857348D01*
G01X1935010Y-2859372D01*
G01X1933659Y-2861467D01*
G01X1932412Y-2863626D01*
G01X1931274Y-2865844D01*
G01X1930250Y-2868117D01*
G01X1929338Y-2870436D01*
G01X1928546Y-2872801D01*
G01X1927870Y-2875201D01*
G01X1927314Y-2877629D01*
G01X1926882Y-2880086D01*
G01X1926572Y-2882560D01*
G01X1926384Y-2885046D01*
G01X1926323Y-2887538D01*
G01X1926323Y-2987538D01*
G01X1926384Y-2990030D01*
G01X1926572Y-2992516D01*
G01X1926882Y-2994990D01*
G01X1927314Y-2997446D01*
G01X1927870Y-2999875D01*
G01X1928546Y-3002275D01*
G01X1929338Y-3004640D01*
G01X1930250Y-3006959D01*
G01X1931274Y-3009232D01*
G01X1932412Y-3011449D01*
G01X1933659Y-3013608D01*
G01X1935010Y-3015704D01*
G01X1936466Y-3017728D01*
G01X1938020Y-3019676D01*
G01X1939671Y-3021546D01*
G01X1941411Y-3023332D01*
G01X1943240Y-3025026D01*
G01X1945150Y-3026628D01*
G01X1947136Y-3028135D01*
G01X1949196Y-3029539D01*
G01X1951325Y-3030840D01*
G01X1953511Y-3032031D01*
G01X1955759Y-3033113D01*
G01X1958056Y-3034081D01*
G01X1960400Y-3034934D01*
G01X1962782Y-3035668D01*
G01X1965198Y-3036283D01*
G01X1967641Y-3036778D01*
G01X1970105Y-3037149D01*
G01X1972587Y-3037398D01*
G01X1975076Y-3037522D01*
G01X1977570Y-3037522D01*
G01X1980060Y-3037398D01*
G01X1982541Y-3037149D01*
G01X1985005Y-3036778D01*
G01X1987448Y-3036283D01*
G01X1989864Y-3035668D01*
G01X1992246Y-3034934D01*
G01X1994591Y-3034081D01*
G01X1996887Y-3033113D01*
G01X1999135Y-3032031D01*
G01X2001324Y-3030840D01*
G01X2003450Y-3029539D01*
G01X2005510Y-3028135D01*
G01X2007497Y-3026628D01*
G01X2009407Y-3025026D01*
G01X2011236Y-3023332D01*
G01X2012975Y-3021546D01*
G01X2014626Y-3019676D01*
G01X2016181Y-3017728D01*
G01X2017636Y-3015704D01*
G01X2018988Y-3013608D01*
G01X2020235Y-3011449D01*
G01X2021373Y-3009232D01*
G01X2022396Y-3006959D01*
G01X2023308Y-3004640D01*
G01X2024101Y-3002275D01*
G01X2024776Y-2999875D01*
G01X2025333Y-2997446D01*
G01X2025764Y-2994990D01*
G01X2026074Y-2992516D01*
G01X2026262Y-2990030D01*
G01X2026323Y-2987538D01*
G01X2026323Y-2887538D01*
G01X2026262Y-2885046D01*
G01X2026074Y-2882560D01*
G01X2025764Y-2880086D01*
G01X2025333Y-2877629D01*
G01X2024776Y-2875201D01*
G01X2024101Y-2872801D01*
G01X2023308Y-2870436D01*
G01X2022396Y-2868117D01*
G01X2021373Y-2865844D01*
G01X2020235Y-2863626D01*
G01X2018988Y-2861467D01*
G01X2017636Y-2859372D01*
G01X2016181Y-2857348D01*
G01X2014626Y-2855399D01*
G01X2012975Y-2853530D01*
G01X2011236Y-2851744D01*
G01X2009407Y-2850050D01*
G01X2007497Y-2848447D01*
G01X2005510Y-2846941D01*
G01X2003450Y-2845537D01*
G01X2001324Y-2844236D01*
G01X1999135Y-2843045D01*
G01X1996887Y-2841963D01*
G01X1994591Y-2840995D01*
G01X1992246Y-2840142D01*
G01X1989864Y-2839408D01*
G01X1987448Y-2838793D01*
G01X1985005Y-2838298D01*
G01X1982541Y-2837927D01*
G01X1980060Y-2837678D01*
G37*
G36*
G01X1116053Y-3265686D02*
G01X1113564Y-3265561D01*
G01X1111070Y-3265561D01*
G01X1108580Y-3265686D01*
G01X1106099Y-3265935D01*
G01X1103635Y-3266305D01*
G01X1101192Y-3266801D01*
G01X1098776Y-3267415D01*
G01X1096394Y-3268149D01*
G01X1094049Y-3269003D01*
G01X1091753Y-3269971D01*
G01X1089505Y-3271053D01*
G01X1087318Y-3272244D01*
G01X1085190Y-3273544D01*
G01X1083130Y-3274949D01*
G01X1081143Y-3276455D01*
G01X1079233Y-3278058D01*
G01X1077405Y-3279752D01*
G01X1075665Y-3281538D01*
G01X1074014Y-3283407D01*
G01X1072459Y-3285355D01*
G01X1071004Y-3287380D01*
G01X1069652Y-3289475D01*
G01X1068405Y-3291634D01*
G01X1067267Y-3293852D01*
G01X1066244Y-3296125D01*
G01X1065332Y-3298444D01*
G01X1064539Y-3300809D01*
G01X1063864Y-3303209D01*
G01X1063308Y-3305637D01*
G01X1062876Y-3308093D01*
G01X1062566Y-3310567D01*
G01X1062378Y-3313054D01*
G01X1062317Y-3315546D01*
G01X1062317Y-3395546D01*
G01X1062378Y-3398037D01*
G01X1062566Y-3400524D01*
G01X1062876Y-3402998D01*
G01X1063308Y-3405454D01*
G01X1063864Y-3407882D01*
G01X1064539Y-3410283D01*
G01X1065332Y-3412647D01*
G01X1066244Y-3414966D01*
G01X1067267Y-3417240D01*
G01X1068405Y-3419457D01*
G01X1069652Y-3421616D01*
G01X1071004Y-3423712D01*
G01X1072459Y-3425736D01*
G01X1074014Y-3427684D01*
G01X1075665Y-3429554D01*
G01X1077405Y-3431339D01*
G01X1079233Y-3433034D01*
G01X1081143Y-3434636D01*
G01X1083130Y-3436142D01*
G01X1085190Y-3437547D01*
G01X1087318Y-3438848D01*
G01X1089505Y-3440039D01*
G01X1091753Y-3441121D01*
G01X1094049Y-3442089D01*
G01X1096394Y-3442942D01*
G01X1098776Y-3443676D01*
G01X1101192Y-3444291D01*
G01X1103635Y-3444786D01*
G01X1106099Y-3445157D01*
G01X1108580Y-3445406D01*
G01X1111070Y-3445530D01*
G01X1113564Y-3445530D01*
G01X1116053Y-3445406D01*
G01X1118535Y-3445157D01*
G01X1120999Y-3444786D01*
G01X1123442Y-3444291D01*
G01X1125858Y-3443676D01*
G01X1128240Y-3442942D01*
G01X1130584Y-3442089D01*
G01X1132881Y-3441121D01*
G01X1135129Y-3440039D01*
G01X1137318Y-3438848D01*
G01X1139444Y-3437547D01*
G01X1141504Y-3436142D01*
G01X1143490Y-3434636D01*
G01X1145400Y-3433034D01*
G01X1147229Y-3431339D01*
G01X1148969Y-3429554D01*
G01X1150620Y-3427684D01*
G01X1152174Y-3425736D01*
G01X1153630Y-3423712D01*
G01X1154981Y-3421616D01*
G01X1156228Y-3419457D01*
G01X1157366Y-3417240D01*
G01X1158390Y-3414966D01*
G01X1159302Y-3412647D01*
G01X1160094Y-3410283D01*
G01X1160770Y-3407882D01*
G01X1161326Y-3405454D01*
G01X1161758Y-3402998D01*
G01X1162068Y-3400524D01*
G01X1162256Y-3398037D01*
G01X1162317Y-3395546D01*
G01X1162317Y-3315546D01*
G01X1162256Y-3313054D01*
G01X1162068Y-3310567D01*
G01X1161758Y-3308093D01*
G01X1161326Y-3305637D01*
G01X1160770Y-3303209D01*
G01X1160094Y-3300809D01*
G01X1159302Y-3298444D01*
G01X1158390Y-3296125D01*
G01X1157366Y-3293852D01*
G01X1156228Y-3291634D01*
G01X1154981Y-3289475D01*
G01X1153630Y-3287380D01*
G01X1152174Y-3285355D01*
G01X1150620Y-3283407D01*
G01X1148969Y-3281538D01*
G01X1147229Y-3279752D01*
G01X1145400Y-3278058D01*
G01X1143490Y-3276455D01*
G01X1141504Y-3274949D01*
G01X1139444Y-3273544D01*
G01X1137318Y-3272244D01*
G01X1135129Y-3271053D01*
G01X1132881Y-3269971D01*
G01X1130584Y-3269003D01*
G01X1128240Y-3268149D01*
G01X1125858Y-3267415D01*
G01X1123442Y-3266801D01*
G01X1120999Y-3266305D01*
G01X1118535Y-3265935D01*
G01X1116053Y-3265686D01*
G37*
G36*
G01X1980060Y-3265686D02*
G01X1977570Y-3265561D01*
G01X1975076Y-3265561D01*
G01X1972587Y-3265686D01*
G01X1970105Y-3265935D01*
G01X1967641Y-3266305D01*
G01X1965198Y-3266801D01*
G01X1962782Y-3267415D01*
G01X1960400Y-3268149D01*
G01X1958056Y-3269003D01*
G01X1955759Y-3269971D01*
G01X1953511Y-3271053D01*
G01X1951325Y-3272244D01*
G01X1949196Y-3273544D01*
G01X1947136Y-3274949D01*
G01X1945150Y-3276455D01*
G01X1943240Y-3278058D01*
G01X1941411Y-3279752D01*
G01X1939671Y-3281538D01*
G01X1938020Y-3283407D01*
G01X1936466Y-3285355D01*
G01X1935010Y-3287380D01*
G01X1933659Y-3289475D01*
G01X1932412Y-3291634D01*
G01X1931274Y-3293852D01*
G01X1930250Y-3296125D01*
G01X1929338Y-3298444D01*
G01X1928546Y-3300809D01*
G01X1927870Y-3303209D01*
G01X1927314Y-3305637D01*
G01X1926882Y-3308093D01*
G01X1926572Y-3310567D01*
G01X1926384Y-3313054D01*
G01X1926323Y-3315546D01*
G01X1926323Y-3395546D01*
G01X1926384Y-3398037D01*
G01X1926572Y-3400524D01*
G01X1926882Y-3402998D01*
G01X1927314Y-3405454D01*
G01X1927870Y-3407882D01*
G01X1928546Y-3410283D01*
G01X1929338Y-3412647D01*
G01X1930250Y-3414966D01*
G01X1931274Y-3417240D01*
G01X1932412Y-3419457D01*
G01X1933659Y-3421616D01*
G01X1935010Y-3423712D01*
G01X1936466Y-3425736D01*
G01X1938020Y-3427684D01*
G01X1939671Y-3429554D01*
G01X1941411Y-3431339D01*
G01X1943240Y-3433034D01*
G01X1945150Y-3434636D01*
G01X1947136Y-3436142D01*
G01X1949196Y-3437547D01*
G01X1951325Y-3438848D01*
G01X1953511Y-3440039D01*
G01X1955759Y-3441121D01*
G01X1958056Y-3442089D01*
G01X1960400Y-3442942D01*
G01X1962782Y-3443676D01*
G01X1965198Y-3444291D01*
G01X1967641Y-3444786D01*
G01X1970105Y-3445157D01*
G01X1972587Y-3445406D01*
G01X1975076Y-3445530D01*
G01X1977570Y-3445530D01*
G01X1980060Y-3445406D01*
G01X1982541Y-3445157D01*
G01X1985005Y-3444786D01*
G01X1987448Y-3444291D01*
G01X1989864Y-3443676D01*
G01X1992246Y-3442942D01*
G01X1994591Y-3442089D01*
G01X1996887Y-3441121D01*
G01X1999135Y-3440039D01*
G01X2001324Y-3438848D01*
G01X2003450Y-3437547D01*
G01X2005510Y-3436142D01*
G01X2007497Y-3434636D01*
G01X2009407Y-3433034D01*
G01X2011236Y-3431339D01*
G01X2012975Y-3429554D01*
G01X2014626Y-3427684D01*
G01X2016181Y-3425736D01*
G01X2017636Y-3423712D01*
G01X2018988Y-3421616D01*
G01X2020235Y-3419457D01*
G01X2021373Y-3417240D01*
G01X2022396Y-3414966D01*
G01X2023308Y-3412647D01*
G01X2024101Y-3410283D01*
G01X2024776Y-3407882D01*
G01X2025333Y-3405454D01*
G01X2025764Y-3402998D01*
G01X2026074Y-3400524D01*
G01X2026262Y-3398037D01*
G01X2026323Y-3395546D01*
G01X2026323Y-3315546D01*
G01X2026262Y-3313054D01*
G01X2026074Y-3310567D01*
G01X2025764Y-3308093D01*
G01X2025333Y-3305637D01*
G01X2024776Y-3303209D01*
G01X2024101Y-3300809D01*
G01X2023308Y-3298444D01*
G01X2022396Y-3296125D01*
G01X2021373Y-3293852D01*
G01X2020235Y-3291634D01*
G01X2018988Y-3289475D01*
G01X2017636Y-3287380D01*
G01X2016181Y-3285355D01*
G01X2014626Y-3283407D01*
G01X2012975Y-3281538D01*
G01X2011236Y-3279752D01*
G01X2009407Y-3278058D01*
G01X2007497Y-3276455D01*
G01X2005510Y-3274949D01*
G01X2003450Y-3273544D01*
G01X2001324Y-3272244D01*
G01X1999135Y-3271053D01*
G01X1996887Y-3269971D01*
G01X1994591Y-3269003D01*
G01X1992246Y-3268149D01*
G01X1989864Y-3267415D01*
G01X1987448Y-3266801D01*
G01X1985005Y-3266305D01*
G01X1982541Y-3265935D01*
G01X1980060Y-3265686D01*
G37*
G36*
G01X2959240Y882180D02*
G01X2913240Y882180D01*
G01X2909240Y886181D01*
G01X2909240Y936244D01*
G01X2913240Y940245D01*
G01X2959240Y940245D01*
G01X2963240Y936244D01*
G01X2963240Y886181D01*
G01X2959240Y882180D01*
G37*
G36*
G01X2959240Y855180D02*
G01X2913240Y855180D01*
G01X2909240Y851179D01*
G01X2909240Y801116D01*
G01X2913240Y797116D01*
G01X2959240Y797116D01*
G01X2963240Y801116D01*
G01X2963240Y851179D01*
G01X2959240Y855180D01*
G37*
G36*
G01X3467900Y886320D02*
G01X3467900Y932320D01*
G01X3471901Y936320D01*
G01X3521964Y936320D01*
G01X3525965Y932320D01*
G01X3525965Y886320D01*
G01X3521964Y882320D01*
G01X3471901Y882320D01*
G01X3467900Y886320D01*
G37*
G36*
G01X3440900Y886320D02*
G01X3440900Y932320D01*
G01X3436899Y936320D01*
G01X3386836Y936320D01*
G01X3382836Y932320D01*
G01X3382836Y886320D01*
G01X3386836Y882320D01*
G01X3436899Y882320D01*
G01X3440900Y886320D01*
G37*
G36*
G01X3881260Y953300D02*
G01X3835260Y953300D01*
G01X3831260Y957301D01*
G01X3831260Y1007364D01*
G01X3835260Y1011365D01*
G01X3881260Y1011365D01*
G01X3885260Y1007364D01*
G01X3885260Y957301D01*
G01X3881260Y953300D01*
G37*
G36*
G01X3881260Y926300D02*
G01X3835260Y926300D01*
G01X3831260Y922299D01*
G01X3831260Y872236D01*
G01X3835260Y868236D01*
G01X3881260Y868236D01*
G01X3885260Y872236D01*
G01X3885260Y922299D01*
G01X3881260Y926300D01*
G37*
G36*
G01X3304531Y-886320D02*
G01X3304531Y-932320D01*
G01X3300531Y-936320D01*
G01X3250467Y-936320D01*
G01X3246467Y-932320D01*
G01X3246467Y-886320D01*
G01X3250467Y-882320D01*
G01X3300531Y-882320D01*
G01X3304531Y-886320D01*
G37*
G36*
G01X3331531Y-886320D02*
G01X3331531Y-932320D01*
G01X3335532Y-936320D01*
G01X3385595Y-936320D01*
G01X3389596Y-932320D01*
G01X3389596Y-886320D01*
G01X3385595Y-882320D01*
G01X3335532Y-882320D01*
G01X3331531Y-886320D01*
G37*
G36*
G01X2877680Y-932980D02*
G01X2923680Y-932980D01*
G01X2927680Y-936981D01*
G01X2927680Y-987044D01*
G01X2923680Y-991044D01*
G01X2877680Y-991044D01*
G01X2873680Y-987044D01*
G01X2873680Y-936981D01*
G01X2877680Y-932980D01*
G37*
G36*
G01X2877680Y-905980D02*
G01X2923680Y-905980D01*
G01X2927680Y-901979D01*
G01X2927680Y-851916D01*
G01X2923680Y-847915D01*
G01X2877680Y-847915D01*
G01X2873680Y-851916D01*
G01X2873680Y-901979D01*
G01X2877680Y-905980D01*
G37*
G36*
G01X3840340Y-861860D02*
G01X3886340Y-861860D01*
G01X3890340Y-865861D01*
G01X3890340Y-915924D01*
G01X3886340Y-919924D01*
G01X3840340Y-919924D01*
G01X3836340Y-915924D01*
G01X3836340Y-865861D01*
G01X3840340Y-861860D01*
G37*
G36*
G01X3840340Y-834860D02*
G01X3886340Y-834860D01*
G01X3890340Y-830859D01*
G01X3890340Y-780796D01*
G01X3886340Y-776795D01*
G01X3840340Y-776795D01*
G01X3836340Y-780796D01*
G01X3836340Y-830859D01*
G01X3840340Y-834860D01*
G37*
G36*
G01X-3467992Y-885813D02*
G01X-3467992Y-931812D01*
G01X-3471993Y-935812D01*
G01X-3522056Y-935812D01*
G01X-3526056Y-931812D01*
G01X-3526056Y-885813D01*
G01X-3522056Y-881812D01*
G01X-3471993Y-881812D01*
G01X-3467992Y-885813D01*
G37*
G36*
G01X-3440992Y-885813D02*
G01X-3440992Y-931812D01*
G01X-3436991Y-935812D01*
G01X-3386928Y-935812D01*
G01X-3382927Y-931812D01*
G01X-3382927Y-885813D01*
G01X-3386928Y-881812D01*
G01X-3436991Y-881812D01*
G01X-3440992Y-885813D01*
G37*
G36*
G01X-3881352Y-952792D02*
G01X-3835352Y-952792D01*
G01X-3831352Y-956793D01*
G01X-3831352Y-1006856D01*
G01X-3835352Y-1010857D01*
G01X-3881352Y-1010857D01*
G01X-3885352Y-1006856D01*
G01X-3885352Y-956793D01*
G01X-3881352Y-952792D01*
G37*
G36*
G01X-3881352Y-925792D02*
G01X-3835352Y-925792D01*
G01X-3831352Y-921792D01*
G01X-3831352Y-871728D01*
G01X-3835352Y-867728D01*
G01X-3881352Y-867728D01*
G01X-3885352Y-871728D01*
G01X-3885352Y-921792D01*
G01X-3881352Y-925792D01*
G37*
G36*
G01X-2959332Y-881672D02*
G01X-2913332Y-881672D01*
G01X-2909332Y-885673D01*
G01X-2909332Y-935736D01*
G01X-2913332Y-939737D01*
G01X-2959332Y-939737D01*
G01X-2963332Y-935736D01*
G01X-2963332Y-885673D01*
G01X-2959332Y-881672D01*
G37*
G36*
G01X-2959332Y-854672D02*
G01X-2913332Y-854672D01*
G01X-2909332Y-850672D01*
G01X-2909332Y-800608D01*
G01X-2913332Y-796608D01*
G01X-2959332Y-796608D01*
G01X-2963332Y-800608D01*
G01X-2963332Y-850672D01*
G01X-2959332Y-854672D01*
G37*
G36*
G01X416700Y267500D02*
G01X370700Y267500D01*
G01X366700Y271501D01*
G01X366700Y321564D01*
G01X370700Y325565D01*
G01X416700Y325565D01*
G01X420700Y321564D01*
G01X420700Y271501D01*
G01X416700Y267500D01*
G37*
G36*
G01X416700Y240500D02*
G01X370700Y240500D01*
G01X366700Y236499D01*
G01X366700Y186436D01*
G01X370700Y182436D01*
G01X416700Y182436D01*
G01X420700Y186436D01*
G01X420700Y236499D01*
G01X416700Y240500D01*
G37*
G36*
G01X289700Y267500D02*
G01X243700Y267500D01*
G01X239700Y271501D01*
G01X239700Y321564D01*
G01X243700Y325565D01*
G01X289700Y325565D01*
G01X293700Y321564D01*
G01X293700Y271501D01*
G01X289700Y267500D01*
G37*
G36*
G01X289700Y240500D02*
G01X243700Y240500D01*
G01X239700Y236499D01*
G01X239700Y186436D01*
G01X243700Y182436D01*
G01X289700Y182436D01*
G01X293700Y186436D01*
G01X293700Y236499D01*
G01X289700Y240500D01*
G37*

G04 Pad Start*
G54D10*
G01X3385029Y3238500D03*
G01X2610329Y3238500D03*
G01X4159729Y3238500D03*
G01X-2604291Y3238500D03*
G01X-4153691Y3238500D03*
G01X-3378991Y3238500D03*
G54D11*
G01X-4159821Y-3237992D03*
G01X-2610421Y-3237992D03*
G01X-3385121Y-3237992D03*
G01X2609371Y-3238500D03*
G01X4158771Y-3238500D03*
G01X3384071Y-3238500D03*
G54D12*
G01X497840Y-2676042D03*
G01X497840Y-2536038D03*
G01X393692Y-70002D03*
G01X393692Y70002D03*
G54D13*
G01X-4005550Y226036D03*
G01X-4005550Y310034D03*
G01X4010630Y-226036D03*
G01X4010630Y-310034D03*
G01X2758470Y226036D03*
G01X2758470Y310034D03*
G01X1743799Y-2273300D03*
G01X1659801Y-2273300D03*
G01X-2758562Y-225528D03*
G01X-2758562Y-309526D03*
G54D14*
G01X2611680Y2551508D03*
G54D15*
G01X2840280Y1856514D03*
G01X2383080Y1856514D03*
G54D14*
G01X3386380Y2551508D03*
G54D15*
G01X3614980Y1856514D03*
G01X3157780Y1856514D03*
G54D14*
G01X4161080Y2551508D03*
G54D15*
G01X4389680Y1856514D03*
G01X3932480Y1856514D03*
G54D14*
G01X-3377640Y2551508D03*
G54D15*
G01X-3149040Y1856514D03*
G01X-3606240Y1856514D03*
G54D14*
G01X-4152340Y2551508D03*
G54D15*
G01X-3923740Y1856514D03*
G01X-4380940Y1856514D03*
G54D14*
G01X-2602940Y2551508D03*
G54D15*
G01X-2374340Y1856514D03*
G01X-2831540Y1856514D03*
G54D14*
G01X3382720Y-2551508D03*
G54D15*
G01X3154120Y-1856514D03*
G01X3611320Y-1856514D03*
G54D14*
G01X4157420Y-2551508D03*
G54D15*
G01X3928820Y-1856514D03*
G01X4386020Y-1856514D03*
G54D14*
G01X2608020Y-2551508D03*
G54D15*
G01X2379420Y-1856514D03*
G01X2836620Y-1856514D03*
G54D14*
G01X-3386472Y-2551001D03*
G54D15*
G01X-3615072Y-1856006D03*
G01X-3157872Y-1856006D03*
G54D14*
G01X-2611772Y-2551001D03*
G54D15*
G01X-2840372Y-1856006D03*
G01X-2383172Y-1856006D03*
G54D14*
G01X-4161172Y-2551001D03*
G54D15*
G01X-4389772Y-1856006D03*
G01X-3932572Y-1856006D03*
G54D16*
G01X-126200Y75006D03*
G01X-126200Y24994D03*
G01X-126200Y-24994D03*
G01X-126200Y-75006D03*
G54D18*
G01X-50000Y-101244D03*
G01X-13Y-101244D03*
G01X50000Y-101244D03*
G54D16*
G01X126200Y-75006D03*
G01X126200Y-24994D03*
G01X126200Y24994D03*
G01X126200Y75006D03*
G54D18*
G01X50000Y101244D03*
G01X-13Y101244D03*
G01X-50000Y101244D03*
G54D19*
G01X1807489Y135992D03*
G01X1872513Y135992D03*
G01X1937487Y135992D03*
G01X2002511Y135992D03*
G01X1807489Y-8992D03*
G01X1872513Y-8992D03*
G01X1937487Y-8992D03*
G01X2002511Y-8992D03*
G54D20*
G01X1743812Y-2146300D03*
G01X1659788Y-2146300D03*
G54D12*
G01X604520Y-1985162D03*
G01X604520Y-1845158D03*
G54D21*
G01X273329Y-2729357D03*
G01X273329Y-2499360D03*
G01X273329Y-2269363D03*
G54D22*
G01X-293649Y-2499360D03*
G54D20*
G01X2752192Y571500D03*
G01X2668168Y571500D03*
G01X-4011828Y571500D03*
G01X-4095852Y571500D03*
G01X4016908Y-571500D03*
G01X4100932Y-571500D03*
G01X-2752284Y-570992D03*
G01X-2668260Y-570992D03*
G54D23*
G01X920598Y-111760D03*
G01X1060602Y-111760D03*
G54D24*
G01X-52948Y1082973D03*
G01X-147944Y1309972D03*
G01X42048Y1309972D03*
G54D25*
G01X-1845201Y43104D03*
G01X-1844705Y-1236904D03*
G54D26*
G01X-593202Y-148895D03*
G01X-593202Y-275895D03*
G01X-593202Y-402895D03*
G01X-593202Y-529895D03*
G01X-593202Y-656895D03*
G01X-593202Y-783895D03*
G01X-593202Y-910895D03*
G01X-593202Y-1037895D03*
G54D27*
G01X565810Y-1692199D03*
G01X565810Y-1642212D03*
G01X565810Y-1592199D03*
G01X565810Y-1542212D03*
G01X565810Y-1492199D03*
G01X565810Y-1442212D03*
G01X565810Y-1392199D03*
G01X565810Y-1342212D03*
G01X565810Y-1292200D03*
G01X565810Y-1242212D03*
G01X565810Y-1192200D03*
G01X565810Y-1142187D03*
G01X565810Y-1092200D03*
G01X565810Y-1042187D03*
G01X565810Y-992200D03*
G01X565810Y-942188D03*
G01X565810Y-892200D03*
G01X565810Y-842188D03*
G01X565810Y-792201D03*
G01X565810Y-742188D03*
G01X565810Y-692201D03*
G01X565810Y-642188D03*
G01X565810Y-592201D03*
G01X565810Y-542188D03*
G01X565810Y-492201D03*
G54D28*
G01X720801Y-337210D03*
G01X770788Y-337210D03*
G01X820801Y-337210D03*
G01X870788Y-337210D03*
G01X920801Y-337210D03*
G01X970788Y-337210D03*
G01X1020801Y-337210D03*
G01X1070788Y-337210D03*
G01X1120800Y-337210D03*
G01X1170788Y-337210D03*
G01X1220800Y-337210D03*
G01X1270813Y-337210D03*
G01X1320800Y-337210D03*
G01X1370813Y-337210D03*
G01X1420800Y-337210D03*
G01X1470812Y-337210D03*
G01X1520800Y-337210D03*
G01X1570812Y-337210D03*
G01X1620799Y-337210D03*
G01X1670812Y-337210D03*
G01X1720799Y-337210D03*
G01X1770812Y-337210D03*
G01X1820799Y-337210D03*
G01X1870812Y-337210D03*
G01X1920799Y-337210D03*
G54D27*
G01X2075790Y-492201D03*
G01X2075790Y-542188D03*
G01X2075790Y-592201D03*
G01X2075790Y-642188D03*
G01X2075790Y-692201D03*
G01X2075790Y-742188D03*
G01X2075790Y-792201D03*
G01X2075790Y-842188D03*
G01X2075790Y-892200D03*
G01X2075790Y-942188D03*
G01X2075790Y-992200D03*
G01X2075790Y-1042187D03*
G01X2075790Y-1092200D03*
G01X2075790Y-1142187D03*
G01X2075790Y-1192200D03*
G01X2075790Y-1242212D03*
G01X2075790Y-1292200D03*
G01X2075790Y-1342212D03*
G01X2075790Y-1392199D03*
G01X2075790Y-1442212D03*
G01X2075790Y-1492199D03*
G01X2075790Y-1542212D03*
G01X2075790Y-1592199D03*
G01X2075790Y-1642212D03*
G01X2075790Y-1692199D03*
G54D28*
G01X1920799Y-1847190D03*
G01X1870812Y-1847190D03*
G01X1820799Y-1847190D03*
G01X1770812Y-1847190D03*
G01X1720799Y-1847190D03*
G01X1670812Y-1847190D03*
G01X1620799Y-1847190D03*
G01X1570812Y-1847190D03*
G01X1520800Y-1847190D03*
G01X1470812Y-1847190D03*
G01X1420800Y-1847190D03*
G01X1370813Y-1847190D03*
G01X1320800Y-1847190D03*
G01X1270813Y-1847190D03*
G01X1220800Y-1847190D03*
G01X1170788Y-1847190D03*
G01X1120800Y-1847190D03*
G01X1070788Y-1847190D03*
G01X1020801Y-1847190D03*
G01X970788Y-1847190D03*
G01X920801Y-1847190D03*
G01X870788Y-1847190D03*
G01X820801Y-1847190D03*
G01X770788Y-1847190D03*
G01X720801Y-1847190D03*
G54D29*
G01X-2714841Y203200D03*
G01X-3614839Y203200D03*
G01X2719921Y-203200D03*
G01X3619919Y-203200D03*
G01X-4049271Y-202692D03*
G01X-3149273Y-202692D03*
G54D30*
G01X223520Y-2103539D03*
G01X223520Y-1203541D03*
G54D29*
G01X4049179Y203200D03*
G01X3149181Y203200D03*
G54D31*
G01X-2004347Y1871993D03*
G01X-1470363Y1871993D03*
G54D23*
G01X-79601Y-246797D03*
G01X60404Y-246797D03*
G54D32*
G01X-406Y-913003D03*
G01X-50394Y-913003D03*
G54D33*
G01X-112903Y-900506D03*
G01X-112903Y-850494D03*
G01X-112903Y-800506D03*
G01X-112903Y-750494D03*
G54D32*
G01X-50394Y-737997D03*
G01X-406Y-737997D03*
G54D33*
G01X62103Y-750494D03*
G01X62103Y-800506D03*
G01X62103Y-850494D03*
G01X62103Y-900506D03*
G54D34*
G01X-3855720Y207112D03*
G01X-3855720Y123088D03*
G01X1816100Y321412D03*
G01X1816100Y237388D03*
G54D20*
G01X1929028Y226060D03*
G01X2013052Y226060D03*
G54D34*
G01X3855720Y-207112D03*
G01X3855720Y-123088D03*
G54D20*
G01X-171552Y-650240D03*
G01X-87528Y-650240D03*
G54D34*
G01X157480Y-735228D03*
G01X157480Y-819252D03*
G01X-2913472Y-206604D03*
G01X-2913472Y-122581D03*
G01X2913380Y207112D03*
G01X2913380Y123088D03*
G54D20*
G01X-4100932Y444500D03*
G01X-4016908Y444500D03*
G01X4100932Y-444500D03*
G01X4016908Y-444500D03*
G01X-2668260Y-443992D03*
G01X-2752284Y-443992D03*
G01X702004Y-171591D03*
G01X786027Y-171591D03*
G01X1210412Y-2006600D03*
G01X1126388Y-2006600D03*
G54D34*
G01X421640Y-1786992D03*
G01X421640Y-1702968D03*
G54D20*
G01X2668168Y444500D03*
G01X2752192Y444500D03*
G01X1743812Y-2019300D03*
G01X1659788Y-2019300D03*
G54D34*
G01X241300Y3912D03*
G01X241300Y-80112D03*
G01X-60960Y1439012D03*
G01X-60960Y1354988D03*
G54D20*
G01X227029Y1341080D03*
G01X143005Y1341080D03*
G01X-54712Y960120D03*
G01X29312Y960120D03*
G54D35*
G01X-2707732Y1079551D03*
G01X-2580732Y1079551D03*
G01X-2453732Y1079551D03*
G01X-2326732Y1079551D03*
G01X-2707732Y1593545D03*
G01X-2580732Y1593545D03*
G01X-2453732Y1593545D03*
G01X-2326732Y1593545D03*
G01X-4257132Y1079551D03*
G01X-4130132Y1079551D03*
G01X-4003132Y1079551D03*
G01X-3876132Y1079551D03*
G01X-4257132Y1593545D03*
G01X-4130132Y1593545D03*
G01X-4003132Y1593545D03*
G01X-3876132Y1593545D03*
G01X-3482432Y1079551D03*
G01X-3355432Y1079551D03*
G01X-3228432Y1079551D03*
G01X-3101432Y1079551D03*
G01X-3482432Y1593545D03*
G01X-3355432Y1593545D03*
G01X-3228432Y1593545D03*
G01X-3101432Y1593545D03*
G01X2712812Y-1079551D03*
G01X2585812Y-1079551D03*
G01X2458812Y-1079551D03*
G01X2331812Y-1079551D03*
G01X2712812Y-1593545D03*
G01X2585812Y-1593545D03*
G01X2458812Y-1593545D03*
G01X2331812Y-1593545D03*
G01X4262212Y-1079551D03*
G01X4135212Y-1079551D03*
G01X4008212Y-1079551D03*
G01X3881212Y-1079551D03*
G01X4262212Y-1593545D03*
G01X4135212Y-1593545D03*
G01X4008212Y-1593545D03*
G01X3881212Y-1593545D03*
G01X3487512Y-1079551D03*
G01X3360512Y-1079551D03*
G01X3233512Y-1079551D03*
G01X3106512Y-1079551D03*
G01X3487512Y-1593545D03*
G01X3360512Y-1593545D03*
G01X3233512Y-1593545D03*
G01X3106512Y-1593545D03*
G01X-4056380Y-1079043D03*
G01X-4183380Y-1079043D03*
G01X-4310380Y-1079043D03*
G01X-4437380Y-1079043D03*
G01X-4056380Y-1593037D03*
G01X-4183380Y-1593037D03*
G01X-4310380Y-1593037D03*
G01X-4437380Y-1593037D03*
G01X-2506980Y-1079043D03*
G01X-2633980Y-1079043D03*
G01X-2760980Y-1079043D03*
G01X-2887980Y-1079043D03*
G01X-2506980Y-1593037D03*
G01X-2633980Y-1593037D03*
G01X-2760980Y-1593037D03*
G01X-2887980Y-1593037D03*
G01X2506888Y1079551D03*
G01X2633888Y1079551D03*
G01X2760888Y1079551D03*
G01X2887888Y1079551D03*
G01X2506888Y1593545D03*
G01X2633888Y1593545D03*
G01X2760888Y1593545D03*
G01X2887888Y1593545D03*
G01X3281588Y1079551D03*
G01X3408588Y1079551D03*
G01X3535588Y1079551D03*
G01X3662588Y1079551D03*
G01X3281588Y1593545D03*
G01X3408588Y1593545D03*
G01X3535588Y1593545D03*
G01X3662588Y1593545D03*
G01X4056288Y1079551D03*
G01X4183288Y1079551D03*
G01X4310288Y1079551D03*
G01X4437288Y1079551D03*
G01X4056288Y1593545D03*
G01X4183288Y1593545D03*
G01X4310288Y1593545D03*
G01X4437288Y1593545D03*
G01X-3281680Y-1079043D03*
G01X-3408680Y-1079043D03*
G01X-3535680Y-1079043D03*
G01X-3662680Y-1079043D03*
G01X-3281680Y-1593037D03*
G01X-3408680Y-1593037D03*
G01X-3535680Y-1593037D03*
G01X-3662680Y-1593037D03*
G04 Pad End*

M02*

