G04 Layer: BottomSolderMaskLayer*
G04 EasyEDA Pro v2.2.47.7, 2026-05-03 20:12:45*
G04 Gerber Generator version 0.3*
G04 Scale: 100 percent, Rotated: No, Reflected: No*
G04 Dimensions in millimeters*
G04 Leading zeros omitted, absolute positions, 4 integers and 5 decimals*
G04 Generated by one-click*
G04 Object Configs: Pad,Via,Track,Text,Image,Dimension,BoardOutline,BoardCutout,CopperFilled,SolidRegion,FPCStiffener,Line,PlaneZone,ComponentProperty,ComponentSilkscreen,TearDrop*
G04 Layer Configs: 1,15,16,2,3,4,5,6,7,8,9,10,11,13,14,56*
G04 Copper Areas: 0*
%FSLAX45Y45*%
%MOMM*%
%AMRoundRect*1,1,$1,$2,$3*1,1,$1,$4,$5*1,1,$1,0-$2,0-$3*1,1,$1,0-$4,0-$5*20,1,$1,$2,$3,$4,$5,0*20,1,$1,$4,$5,0-$2,0-$3,0*20,1,$1,0-$2,0-$3,0-$4,0-$5,0*20,1,$1,0-$4,0-$5,$2,$3,0*4,1,4,$2,$3,$4,$5,0-$2,0-$3,0-$4,0-$5,$2,$3,0*%
%ADD10C,1.72159*%
%ADD11RoundRect,0.09594X-0.81282X-0.81282X-0.81282X0.81282*%
%ADD12RoundRect,0.09594X-0.81282X0.81282X0.81282X0.81282*%
%ADD13RoundRect,0.09841X-3.0008X-3.25081X-3.0008X3.25081*%
%ADD14RoundRect,0.09288X-0.60357X-1.25357X-0.60357X1.25357*%
%ADD15RoundRect,0.0948X-0.43711X-0.40835X-0.43711X0.40835*%
%ADD16RoundRect,0.09138X-0.43711X-0.40835X-0.43711X0.40835*%
%ADD17O,1.78559X0.54961*%
%ADD18O,0.54961X1.78559*%
%ADD19RoundRect,0.0879X-0.60685X-0.28186X-0.60685X0.28186*%
%ADD20RoundRect,0.09495X-0.70833X0.67833X0.70833X0.67833*%
%ADD21RoundRect,0.09131X-0.40514X0.45514X0.40514X0.45514*%
%ADD22RoundRect,0.09471X-0.76844X0.65145X0.76844X0.65145*%
%ADD23RoundRect,0.09302X-0.50429X1.35429X0.50429X1.35429*%
%ADD24RoundRect,0.08002X-0.16X0.63501X0.16X0.63501*%
%ADD25RoundRect,0.09548X-1.00227X1.25227X1.00227X1.25227*%
%ADD26RoundRect,0.08875X-0.30643X0.54643X0.30643X0.54643*%
%ADD27C,1.9*%
%ADD28RoundRect,0.08771X-0.27695X-0.28977X-0.27695X0.28977*%
%ADD29O,0.8016X1.8746*%
%ADD30RoundRect,0.08875X-0.54143X0.30643X0.54143X0.30643*%
%ADD31O,1.30002X2.30002*%
%ADD32C,3.90002*%
%ADD33RoundRect,0.09131X-0.45514X-0.40514X-0.45514X0.40514*%
%ADD34RoundRect,0.09131X-0.45514X0.40514X0.45514X0.40514*%
%ADD35O,1.80002X3.00002*%
%ADD36RoundRect,0.09424X-0.60368X-1.75367X-0.60368X1.75367*%
%ADD37RoundRect,0.09424X-1.75367X0.60368X1.75367X0.60368*%
%ADD38RoundRect,0.08692X-0.25734X0.27734X0.25734X0.27734*%
%ADD39RoundRect,0.08692X-0.27734X-0.25734X-0.27734X0.25734*%
%ADD40RoundRect,0.09495X-0.67833X-0.70833X-0.67833X0.70833*%
%ADD41RoundRect,0.08771X-0.28977X0.27695X0.28977X0.27695*%
%ADD42O,1.1016X1.9016*%
%ADD43O,1.1016X2.1016*%
G75*


G04 Pad Start*
G54D10*
G01X4310380Y76200D03*
G01X4310380Y330200D03*
G01X4310380Y584200D03*
G54D11*
G01X4310380Y838200D03*
G54D10*
G01X-114300Y-1536700D03*
G01X-368300Y-1536700D03*
G01X-622300Y-1536700D03*
G54D12*
G01X-876300Y-1536700D03*
G54D10*
G01X-2453640Y76200D03*
G01X-2453640Y330200D03*
G01X-2453640Y584200D03*
G54D11*
G01X-2453640Y838200D03*
G54D10*
G01X2458720Y-76200D03*
G01X2458720Y-330200D03*
G01X2458720Y-584200D03*
G54D11*
G01X2458720Y-838200D03*
G54D10*
G01X-4310472Y-75692D03*
G01X-4310472Y-329692D03*
G01X-4310472Y-583692D03*
G54D11*
G01X-4310472Y-837692D03*
G54D13*
G01X2610329Y2919808D03*
G54D14*
G01X2381729Y2224814D03*
G01X2838929Y2224814D03*
G54D13*
G01X3385029Y2919808D03*
G54D14*
G01X3156429Y2224814D03*
G01X3613629Y2224814D03*
G54D13*
G01X4159729Y2919808D03*
G54D14*
G01X3931129Y2224814D03*
G01X4388329Y2224814D03*
G54D13*
G01X-2604291Y2919808D03*
G54D14*
G01X-2832891Y2224814D03*
G01X-2375691Y2224814D03*
G54D13*
G01X-3378991Y2919808D03*
G54D14*
G01X-3607591Y2224814D03*
G01X-3150391Y2224814D03*
G54D13*
G01X-4153691Y2919808D03*
G54D14*
G01X-4382291Y2224814D03*
G01X-3925091Y2224814D03*
G54D13*
G01X2609371Y-2919808D03*
G54D14*
G01X2837971Y-2224814D03*
G01X2380771Y-2224814D03*
G54D13*
G01X3384071Y-2919808D03*
G54D14*
G01X3612671Y-2224814D03*
G01X3155471Y-2224814D03*
G54D13*
G01X4158771Y-2919808D03*
G54D14*
G01X4387371Y-2224814D03*
G01X3930171Y-2224814D03*
G54D13*
G01X-4159821Y-2919301D03*
G54D14*
G01X-3931221Y-2224306D03*
G01X-4388421Y-2224306D03*
G54D13*
G01X-3385121Y-2919301D03*
G54D14*
G01X-3156521Y-2224306D03*
G01X-3613721Y-2224306D03*
G54D13*
G01X-2610421Y-2919301D03*
G54D14*
G01X-2381821Y-2224306D03*
G01X-2839021Y-2224306D03*
G54D16*
G01X-2680491Y1929536D03*
G01X-2680491Y1778864D03*
G01X-2832891Y1929536D03*
G01X-2832891Y1778864D03*
G01X-2680491Y2221636D03*
G01X-2680491Y2070964D03*
G01X-3455191Y2221636D03*
G01X-3455191Y2070964D03*
G01X-4229891Y2221636D03*
G01X-4229891Y2070964D03*
G01X-3455191Y1929536D03*
G01X-3455191Y1778864D03*
G01X-4229891Y1929536D03*
G01X-4229891Y1778864D03*
G01X-3607591Y1929536D03*
G01X-3607591Y1778864D03*
G01X-4382291Y1929536D03*
G01X-4382291Y1778864D03*
G01X2534129Y2221636D03*
G01X2534129Y2070964D03*
G01X2381729Y1929536D03*
G01X2381729Y1778864D03*
G01X2534129Y1929536D03*
G01X2534129Y1778864D03*
G01X3308829Y2221636D03*
G01X3308829Y2070964D03*
G01X3156429Y1929536D03*
G01X3156429Y1778864D03*
G01X3308829Y1929536D03*
G01X3308829Y1778864D03*
G01X4083529Y2221636D03*
G01X4083529Y2070964D03*
G01X3931129Y1929536D03*
G01X3931129Y1778864D03*
G01X4083529Y1929536D03*
G01X4083529Y1778864D03*
G01X2685571Y-1929536D03*
G01X2685571Y-1778864D03*
G01X2837971Y-1929536D03*
G01X2837971Y-1778864D03*
G01X2685571Y-2221636D03*
G01X2685571Y-2070964D03*
G01X3460271Y-2221636D03*
G01X3460271Y-2070964D03*
G01X4234971Y-2221636D03*
G01X4234971Y-2070964D03*
G01X3460271Y-1929536D03*
G01X3460271Y-1778864D03*
G01X4234971Y-1929536D03*
G01X4234971Y-1778864D03*
G01X3612671Y-1929536D03*
G01X3612671Y-1778864D03*
G01X4387371Y-1929536D03*
G01X4387371Y-1778864D03*
G01X-4083621Y-1929029D03*
G01X-4083621Y-1778356D03*
G01X-3931221Y-1929029D03*
G01X-3931221Y-1778356D03*
G01X-4083621Y-2221129D03*
G01X-4083621Y-2070456D03*
G01X-3308921Y-2221129D03*
G01X-3308921Y-2070456D03*
G01X-2534221Y-2221129D03*
G01X-2534221Y-2070456D03*
G01X-3308921Y-1929029D03*
G01X-3308921Y-1778356D03*
G01X-2534221Y-1929029D03*
G01X-2534221Y-1778356D03*
G01X-3156521Y-1929029D03*
G01X-3156521Y-1778356D03*
G01X-2381821Y-1929029D03*
G01X-2381821Y-1778356D03*
G54D17*
G01X-3830345Y253390D03*
G01X-3830345Y333400D03*
G01X-3830345Y413410D03*
G01X-3830345Y493395D03*
G01X-3830345Y573405D03*
G01X-3830345Y653390D03*
G01X-3830345Y733400D03*
G01X-3830345Y813410D03*
G54D18*
G01X-3686150Y957605D03*
G01X-3606140Y957605D03*
G01X-3526130Y957605D03*
G01X-3446145Y957605D03*
G01X-3366135Y957605D03*
G01X-3286150Y957605D03*
G01X-3206140Y957605D03*
G01X-3126130Y957605D03*
G54D17*
G01X-2981935Y813410D03*
G01X-2981935Y733400D03*
G01X-2981935Y653390D03*
G01X-2981935Y573405D03*
G01X-2981935Y493395D03*
G01X-2981935Y413410D03*
G01X-2981935Y333400D03*
G01X-2981935Y253390D03*
G54D18*
G01X-3126130Y109195D03*
G01X-3206140Y109195D03*
G01X-3286150Y109195D03*
G01X-3366135Y109195D03*
G01X-3446145Y109195D03*
G01X-3526130Y109195D03*
G01X-3606140Y109195D03*
G01X-3686150Y109195D03*
G54D19*
G01X-1027236Y-2597741D03*
G01X-1027236Y-2407749D03*
G01X-1267235Y-2407749D03*
G01X-1267235Y-2502745D03*
G01X-1267235Y-2597741D03*
G01X-1027236Y-2502745D03*
G54D17*
G01X3835425Y-253390D03*
G01X3835425Y-333400D03*
G01X3835425Y-413410D03*
G01X3835425Y-493395D03*
G01X3835425Y-573405D03*
G01X3835425Y-653390D03*
G01X3835425Y-733400D03*
G01X3835425Y-813410D03*
G54D18*
G01X3691230Y-957605D03*
G01X3611220Y-957605D03*
G01X3531210Y-957605D03*
G01X3451225Y-957605D03*
G01X3371215Y-957605D03*
G01X3291230Y-957605D03*
G01X3211220Y-957605D03*
G01X3131210Y-957605D03*
G54D17*
G01X2987015Y-813410D03*
G01X2987015Y-733400D03*
G01X2987015Y-653390D03*
G01X2987015Y-573405D03*
G01X2987015Y-493395D03*
G01X2987015Y-413410D03*
G01X2987015Y-333400D03*
G01X2987015Y-253390D03*
G54D18*
G01X3131210Y-109195D03*
G01X3211220Y-109195D03*
G01X3291230Y-109195D03*
G01X3371215Y-109195D03*
G01X3451225Y-109195D03*
G01X3531210Y-109195D03*
G01X3611220Y-109195D03*
G01X3691230Y-109195D03*
G54D17*
G01X2933675Y253390D03*
G01X2933675Y333400D03*
G01X2933675Y413410D03*
G01X2933675Y493395D03*
G01X2933675Y573405D03*
G01X2933675Y653390D03*
G01X2933675Y733400D03*
G01X2933675Y813410D03*
G54D18*
G01X3077870Y957605D03*
G01X3157880Y957605D03*
G01X3237890Y957605D03*
G01X3317875Y957605D03*
G01X3397885Y957605D03*
G01X3477870Y957605D03*
G01X3557880Y957605D03*
G01X3637890Y957605D03*
G54D17*
G01X3782085Y813410D03*
G01X3782085Y733400D03*
G01X3782085Y653390D03*
G01X3782085Y573405D03*
G01X3782085Y493395D03*
G01X3782085Y413410D03*
G01X3782085Y333400D03*
G01X3782085Y253390D03*
G54D18*
G01X3637890Y109195D03*
G01X3557880Y109195D03*
G01X3477870Y109195D03*
G01X3397885Y109195D03*
G01X3317875Y109195D03*
G01X3237890Y109195D03*
G01X3157880Y109195D03*
G01X3077870Y109195D03*
G54D17*
G01X-2933767Y-252883D03*
G01X-2933767Y-332893D03*
G01X-2933767Y-412903D03*
G01X-2933767Y-492887D03*
G01X-2933767Y-572897D03*
G01X-2933767Y-652882D03*
G01X-2933767Y-732892D03*
G01X-2933767Y-812902D03*
G54D18*
G01X-3077962Y-957098D03*
G01X-3157972Y-957098D03*
G01X-3237982Y-957098D03*
G01X-3317967Y-957098D03*
G01X-3397977Y-957098D03*
G01X-3477962Y-957098D03*
G01X-3557972Y-957098D03*
G01X-3637982Y-957098D03*
G54D17*
G01X-3782177Y-812902D03*
G01X-3782177Y-732892D03*
G01X-3782177Y-652882D03*
G01X-3782177Y-572897D03*
G01X-3782177Y-492887D03*
G01X-3782177Y-412903D03*
G01X-3782177Y-332893D03*
G01X-3782177Y-252883D03*
G54D18*
G01X-3637982Y-108687D03*
G01X-3557972Y-108687D03*
G01X-3477962Y-108687D03*
G01X-3397977Y-108687D03*
G01X-3317967Y-108687D03*
G01X-3237982Y-108687D03*
G01X-3157972Y-108687D03*
G01X-3077962Y-108687D03*
G54D20*
G01X-1278560Y-2227580D03*
G01X-1078560Y-2227580D03*
G54D21*
G01X-1287108Y-2961425D03*
G01X-1427113Y-2961425D03*
G01X-1287569Y-2759287D03*
G01X-1427574Y-2759287D03*
G54D22*
G01X176601Y-1875047D03*
G01X482620Y-1875047D03*
G54D23*
G01X-886965Y-2873592D03*
G01X-1116962Y-2873592D03*
G54D21*
G01X1035202Y-939800D03*
G01X895198Y-939800D03*
G01X-354960Y1121046D03*
G01X-214955Y1121046D03*
G54D24*
G01X-704558Y1313142D03*
G01X-654545Y1313142D03*
G01X-604558Y1313142D03*
G01X-554545Y1313142D03*
G01X-504558Y1313142D03*
G01X-454546Y1313142D03*
G01X-404558Y1313142D03*
G01X-354546Y1313142D03*
G01X-304559Y1313142D03*
G01X-254546Y1313142D03*
G01X-204559Y1313142D03*
G01X-154546Y1313142D03*
G01X-104559Y1313142D03*
G01X-54546Y1313142D03*
G01X-4534Y1313142D03*
G01X45453Y1313142D03*
G01X95466Y1313142D03*
G01X145453Y1313142D03*
G01X195466Y1313142D03*
G01X245453Y1313142D03*
G01X295466Y1313142D03*
G01X345453Y1313142D03*
G01X395465Y1313142D03*
G01X445453Y1313142D03*
G54D25*
G01X-873544Y1570647D03*
G01X614464Y1570647D03*
G54D26*
G01X1362710Y431800D03*
G01X1202690Y431800D03*
G54D27*
G01X1318260Y1178560D03*
G54D28*
G01X86360Y1142276D03*
G01X86360Y1055713D03*
G54D29*
G01X1811609Y-747847D03*
G01X1701602Y-747847D03*
G01X1591594Y-747847D03*
G01X1481612Y-747847D03*
G01X1371605Y-747847D03*
G01X1261598Y-747847D03*
G01X1151616Y-747847D03*
G01X1041608Y-747847D03*
G01X931601Y-747847D03*
G01X931601Y214457D03*
G01X1041608Y214457D03*
G01X1151616Y214457D03*
G01X1261598Y214457D03*
G01X1371605Y214457D03*
G01X1481612Y214457D03*
G01X1591594Y214457D03*
G01X1701602Y214457D03*
G01X1811609Y214457D03*
G54D30*
G01X557213Y1093724D03*
G01X557213Y1283716D03*
G01X804228Y1188720D03*
G54D28*
G01X200660Y1142276D03*
G01X200660Y1055713D03*
G54D31*
G01X-561130Y-2569064D03*
G01X-1911140Y-2569064D03*
G54D32*
G01X-876141Y-1969065D03*
G01X-1596130Y-1969065D03*
G54D21*
G01X1337355Y-1596464D03*
G01X1477360Y-1596464D03*
G54D33*
G01X1167450Y-1492166D03*
G01X1167450Y-1352161D03*
G54D34*
G01X1338747Y-1403244D03*
G01X1338747Y-1293262D03*
G01X1478752Y-1293262D03*
G01X1478752Y-1403244D03*
G54D33*
G01X2057400Y-768502D03*
G01X2057400Y-628498D03*
G54D35*
G01X-251386Y-2959100D03*
G01X228623Y-2959100D03*
G01X708607Y-2959100D03*
G54D36*
G01X1722133Y1254473D03*
G01X1722133Y1788457D03*
G54D37*
G01X-2573307Y-480073D03*
G01X-2039323Y-480073D03*
G54D36*
G01X1775447Y-1876773D03*
G01X1775447Y-2410757D03*
G54D38*
G01X-4104060Y1562100D03*
G01X-4188083Y1562100D03*
G01X-3329360Y1562100D03*
G01X-3413383Y1562100D03*
G54D39*
G01X-2814320Y969112D03*
G01X-2814320Y885088D03*
G54D38*
G01X-2554660Y1562100D03*
G01X-2638683Y1562100D03*
G01X4104060Y-1562100D03*
G01X4188083Y-1562100D03*
G01X3329360Y-1562100D03*
G01X3413383Y-1562100D03*
G54D39*
G01X2814320Y-969112D03*
G01X2814320Y-885088D03*
G54D38*
G01X2554660Y-1562100D03*
G01X2638683Y-1562100D03*
G01X-2665132Y-1561592D03*
G01X-2581109Y-1561592D03*
G01X-3439832Y-1561592D03*
G01X-3355809Y-1561592D03*
G54D39*
G01X3954780Y969112D03*
G01X3954780Y885088D03*
G54D38*
G01X2665040Y1562100D03*
G01X2581017Y1562100D03*
G01X3439740Y1562100D03*
G01X3355717Y1562100D03*
G01X4214440Y1562100D03*
G01X4130417Y1562100D03*
G54D39*
G01X-3954872Y-968604D03*
G01X-3954872Y-884581D03*
G54D38*
G01X-4214532Y-1561592D03*
G01X-4130509Y-1561592D03*
G54D39*
G01X2146300Y-427888D03*
G01X2146300Y-511912D03*
G01X2082800Y-1621688D03*
G01X2082800Y-1705712D03*
G01X-855135Y-2582856D03*
G01X-855135Y-2498833D03*
G01X-53340Y1141006D03*
G01X-53340Y1056983D03*
G54D38*
G01X-664312Y-1041400D03*
G01X-580288Y-1041400D03*
G54D39*
G01X843280Y1088492D03*
G01X843280Y1004468D03*
G54D16*
G01X2057400Y-1016864D03*
G01X2057400Y-1167536D03*
G54D40*
G01X-2355371Y1446200D03*
G01X-2355371Y1246200D03*
G01X-3904771Y1446200D03*
G01X-3904771Y1246200D03*
G01X-3130071Y1446200D03*
G01X-3130071Y1246200D03*
G01X2355371Y-1446200D03*
G01X2355371Y-1246200D03*
G01X3904771Y-1446200D03*
G01X3904771Y-1246200D03*
G01X3130071Y-1446200D03*
G01X3130071Y-1246200D03*
G54D38*
G01X-181712Y-657860D03*
G01X-97688Y-657860D03*
G54D40*
G01X2864329Y1446200D03*
G01X2864329Y1246200D03*
G01X-4413821Y-1445692D03*
G01X-4413821Y-1245692D03*
G01X-2864421Y-1445692D03*
G01X-2864421Y-1245692D03*
G01X-3639121Y-1445692D03*
G01X-3639121Y-1245692D03*
G01X3639029Y1446200D03*
G01X3639029Y1246200D03*
G01X4413729Y1446200D03*
G01X4413729Y1246200D03*
G54D41*
G01X-2563550Y1310640D03*
G01X-2650113Y1310640D03*
G01X-3319678Y1333500D03*
G01X-3406242Y1333500D03*
G01X-4107078Y1313180D03*
G01X-4193642Y1313180D03*
G54D42*
G01X1112317Y-3355546D03*
G01X1976323Y-3355546D03*
G54D43*
G01X1976323Y-2937538D03*
G01X1112317Y-2937538D03*
G54D41*
G01X2667102Y1318260D03*
G01X2580538Y1318260D03*
G01X3431642Y1318260D03*
G01X3345078Y1318260D03*
G01X4188562Y1320800D03*
G01X4101998Y1320800D03*
G01X2557678Y-1330960D03*
G01X2644242Y-1330960D03*
G01X3319678Y-1336040D03*
G01X3406242Y-1336040D03*
G01X4094378Y-1348740D03*
G01X4180942Y-1348740D03*
G01X-4188654Y-1320292D03*
G01X-4102090Y-1320292D03*
G01X-3431734Y-1317752D03*
G01X-3345170Y-1317752D03*
G01X-2667194Y-1317752D03*
G01X-2580630Y-1317752D03*
G54D28*
G01X193040Y-1234338D03*
G01X193040Y-1320902D03*
G54D41*
G01X248818Y-1079500D03*
G01X335382Y-1079500D03*
G04 Pad End*

M02*

