G04 Layer: TopSilkscreenLayer*
G04 EasyEDA Pro v2.2.47.7, 2026-04-29 20:25:51*
G04 Gerber Generator version 0.3*
G04 Scale: 100 percent, Rotated: No, Reflected: No*
G04 Dimensions in millimeters*
G04 Leading zeros omitted, absolute positions, 4 integers and 5 decimals*
G04 Generated by one-click*
G04 Object Configs: Pad,Via,Track,Text,Image,Dimension,BoardOutline,BoardCutout,CopperFilled,SolidRegion,FPCStiffener,Line,PlaneZone,ComponentProperty,ComponentSilkscreen,TearDrop*
G04 Layer Configs: 1,15,16,2,3,4,5,6,7,8,9,10,11,13,14,56*
G04 Copper Areas: 0*
%FSLAX45Y45*%
%MOMM*%
%ADD10C,0.1524*%
%ADD11C,0.2032*%
%ADD12C,0.1*%
%ADD13C,0.254*%
%ADD14C,0.15199*%
%ADD15C,0.2525*%
%ADD16C,0.25*%
%ADD17C,0.2*%
%ADD18C,0.6*%
%ADD19C,0.3*%
%ADD20C,0.4*%
%ADD21C,0.15001*%
G75*


G04 Text Start*
G54D10*
G01X3654444Y2196444D02*
G01X3648348Y2193396D01*
G01X3641998Y2187300D01*
G01X3638950Y2180950D01*
G01X3635902Y2171806D01*
G01X3635902Y2156312D01*
G01X3638950Y2146914D01*
G01X3641998Y2140818D01*
G01X3648348Y2134468D01*
G01X3654444Y2131420D01*
G01X3666890Y2131420D01*
G01X3672986Y2134468D01*
G01X3679336Y2140818D01*
G01X3682384Y2146914D01*
G01X3685432Y2156312D01*
G01X3685432Y2171806D01*
G01X3682384Y2180950D01*
G01X3679336Y2187300D01*
G01X3672986Y2193396D01*
G01X3666890Y2196444D01*
G01X3654444Y2196444D01*
G01X3663842Y2143866D02*
G01X3682384Y2125324D01*
G01X3758838Y2196444D02*
G01X3727850Y2131420D01*
G01X3715658Y2196444D02*
G01X3758838Y2196444D01*
G01X2879744Y2196444D02*
G01X2873648Y2193396D01*
G01X2867298Y2187300D01*
G01X2864250Y2180950D01*
G01X2861202Y2171806D01*
G01X2861202Y2156312D01*
G01X2864250Y2146914D01*
G01X2867298Y2140818D01*
G01X2873648Y2134468D01*
G01X2879744Y2131420D01*
G01X2892190Y2131420D01*
G01X2898286Y2134468D01*
G01X2904636Y2140818D01*
G01X2907684Y2146914D01*
G01X2910732Y2156312D01*
G01X2910732Y2171806D01*
G01X2907684Y2180950D01*
G01X2904636Y2187300D01*
G01X2898286Y2193396D01*
G01X2892190Y2196444D01*
G01X2879744Y2196444D01*
G01X2889142Y2143866D02*
G01X2907684Y2125324D01*
G01X2984138Y2196444D02*
G01X2953150Y2131420D01*
G01X2940958Y2196444D02*
G01X2984138Y2196444D01*
G01X4429144Y2196444D02*
G01X4423048Y2193396D01*
G01X4416698Y2187300D01*
G01X4413650Y2180950D01*
G01X4410602Y2171806D01*
G01X4410602Y2156312D01*
G01X4413650Y2146914D01*
G01X4416698Y2140818D01*
G01X4423048Y2134468D01*
G01X4429144Y2131420D01*
G01X4441590Y2131420D01*
G01X4447686Y2134468D01*
G01X4454036Y2140818D01*
G01X4457084Y2146914D01*
G01X4460132Y2156312D01*
G01X4460132Y2171806D01*
G01X4457084Y2180950D01*
G01X4454036Y2187300D01*
G01X4447686Y2193396D01*
G01X4441590Y2196444D01*
G01X4429144Y2196444D01*
G01X4438542Y2143866D02*
G01X4457084Y2125324D01*
G01X4533538Y2196444D02*
G01X4502550Y2131420D01*
G01X4490358Y2196444D02*
G01X4533538Y2196444D01*
G01X-2339956Y2196444D02*
G01X-2346052Y2193396D01*
G01X-2352402Y2187300D01*
G01X-2355450Y2180950D01*
G01X-2358498Y2171806D01*
G01X-2358498Y2156312D01*
G01X-2355450Y2146914D01*
G01X-2352402Y2140818D01*
G01X-2346052Y2134468D01*
G01X-2339956Y2131420D01*
G01X-2327510Y2131420D01*
G01X-2321414Y2134468D01*
G01X-2315064Y2140818D01*
G01X-2312016Y2146914D01*
G01X-2308968Y2156312D01*
G01X-2308968Y2171806D01*
G01X-2312016Y2180950D01*
G01X-2315064Y2187300D01*
G01X-2321414Y2193396D01*
G01X-2327510Y2196444D01*
G01X-2339956Y2196444D01*
G01X-2330558Y2143866D02*
G01X-2312016Y2125324D01*
G01X-2235562Y2196444D02*
G01X-2266550Y2131420D01*
G01X-2278742Y2196444D02*
G01X-2235562Y2196444D01*
G01X-3889356Y2196444D02*
G01X-3895452Y2193396D01*
G01X-3901802Y2187300D01*
G01X-3904850Y2180950D01*
G01X-3907898Y2171806D01*
G01X-3907898Y2156312D01*
G01X-3904850Y2146914D01*
G01X-3901802Y2140818D01*
G01X-3895452Y2134468D01*
G01X-3889356Y2131420D01*
G01X-3876910Y2131420D01*
G01X-3870814Y2134468D01*
G01X-3864464Y2140818D01*
G01X-3861416Y2146914D01*
G01X-3858368Y2156312D01*
G01X-3858368Y2171806D01*
G01X-3861416Y2180950D01*
G01X-3864464Y2187300D01*
G01X-3870814Y2193396D01*
G01X-3876910Y2196444D01*
G01X-3889356Y2196444D01*
G01X-3879958Y2143866D02*
G01X-3861416Y2125324D01*
G01X-3784962Y2196444D02*
G01X-3815950Y2131420D01*
G01X-3828142Y2196444D02*
G01X-3784962Y2196444D01*
G01X-3114656Y2196444D02*
G01X-3120752Y2193396D01*
G01X-3127102Y2187300D01*
G01X-3130150Y2180950D01*
G01X-3133198Y2171806D01*
G01X-3133198Y2156312D01*
G01X-3130150Y2146914D01*
G01X-3127102Y2140818D01*
G01X-3120752Y2134468D01*
G01X-3114656Y2131420D01*
G01X-3102210Y2131420D01*
G01X-3096114Y2134468D01*
G01X-3089764Y2140818D01*
G01X-3086716Y2146914D01*
G01X-3083668Y2156312D01*
G01X-3083668Y2171806D01*
G01X-3086716Y2180950D01*
G01X-3089764Y2187300D01*
G01X-3096114Y2193396D01*
G01X-3102210Y2196444D01*
G01X-3114656Y2196444D01*
G01X-3105258Y2143866D02*
G01X-3086716Y2125324D01*
G01X-3010262Y2196444D02*
G01X-3041250Y2131420D01*
G01X-3053442Y2196444D02*
G01X-3010262Y2196444D01*
G01X-4429236Y-2195937D02*
G01X-4423140Y-2192889D01*
G01X-4416790Y-2186793D01*
G01X-4413742Y-2180443D01*
G01X-4410694Y-2171299D01*
G01X-4410694Y-2155805D01*
G01X-4413742Y-2146407D01*
G01X-4416790Y-2140311D01*
G01X-4423140Y-2133961D01*
G01X-4429236Y-2130913D01*
G01X-4441682Y-2130913D01*
G01X-4447778Y-2133961D01*
G01X-4454128Y-2140311D01*
G01X-4457176Y-2146407D01*
G01X-4460224Y-2155805D01*
G01X-4460224Y-2171299D01*
G01X-4457176Y-2180443D01*
G01X-4454128Y-2186793D01*
G01X-4447778Y-2192889D01*
G01X-4441682Y-2195937D01*
G01X-4429236Y-2195937D01*
G01X-4438634Y-2143359D02*
G01X-4457176Y-2124817D01*
G01X-4533630Y-2195937D02*
G01X-4502642Y-2130913D01*
G01X-4490450Y-2195937D02*
G01X-4533630Y-2195937D01*
G01X-2879836Y-2195937D02*
G01X-2873740Y-2192889D01*
G01X-2867390Y-2186793D01*
G01X-2864342Y-2180443D01*
G01X-2861294Y-2171299D01*
G01X-2861294Y-2155805D01*
G01X-2864342Y-2146407D01*
G01X-2867390Y-2140311D01*
G01X-2873740Y-2133961D01*
G01X-2879836Y-2130913D01*
G01X-2892282Y-2130913D01*
G01X-2898378Y-2133961D01*
G01X-2904728Y-2140311D01*
G01X-2907776Y-2146407D01*
G01X-2910824Y-2155805D01*
G01X-2910824Y-2171299D01*
G01X-2907776Y-2180443D01*
G01X-2904728Y-2186793D01*
G01X-2898378Y-2192889D01*
G01X-2892282Y-2195937D01*
G01X-2879836Y-2195937D01*
G01X-2889234Y-2143359D02*
G01X-2907776Y-2124817D01*
G01X-2984230Y-2195937D02*
G01X-2953242Y-2130913D01*
G01X-2941050Y-2195937D02*
G01X-2984230Y-2195937D01*
G01X-3654536Y-2195937D02*
G01X-3648440Y-2192889D01*
G01X-3642090Y-2186793D01*
G01X-3639042Y-2180443D01*
G01X-3635994Y-2171299D01*
G01X-3635994Y-2155805D01*
G01X-3639042Y-2146407D01*
G01X-3642090Y-2140311D01*
G01X-3648440Y-2133961D01*
G01X-3654536Y-2130913D01*
G01X-3666982Y-2130913D01*
G01X-3673078Y-2133961D01*
G01X-3679428Y-2140311D01*
G01X-3682476Y-2146407D01*
G01X-3685524Y-2155805D01*
G01X-3685524Y-2171299D01*
G01X-3682476Y-2180443D01*
G01X-3679428Y-2186793D01*
G01X-3673078Y-2192889D01*
G01X-3666982Y-2195937D01*
G01X-3654536Y-2195937D01*
G01X-3663934Y-2143359D02*
G01X-3682476Y-2124817D01*
G01X-3758930Y-2195937D02*
G01X-3727942Y-2130913D01*
G01X-3715750Y-2195937D02*
G01X-3758930Y-2195937D01*
G01X2339956Y-2196444D02*
G01X2346052Y-2193396D01*
G01X2352402Y-2187300D01*
G01X2355450Y-2180950D01*
G01X2358498Y-2171806D01*
G01X2358498Y-2156312D01*
G01X2355450Y-2146914D01*
G01X2352402Y-2140818D01*
G01X2346052Y-2134468D01*
G01X2339956Y-2131420D01*
G01X2327510Y-2131420D01*
G01X2321414Y-2134468D01*
G01X2315064Y-2140818D01*
G01X2312016Y-2146914D01*
G01X2308968Y-2156312D01*
G01X2308968Y-2171806D01*
G01X2312016Y-2180950D01*
G01X2315064Y-2187300D01*
G01X2321414Y-2193396D01*
G01X2327510Y-2196444D01*
G01X2339956Y-2196444D01*
G01X2330558Y-2143866D02*
G01X2312016Y-2125324D01*
G01X2235562Y-2196444D02*
G01X2266550Y-2131420D01*
G01X2278742Y-2196444D02*
G01X2235562Y-2196444D01*
G01X3889356Y-2196444D02*
G01X3895452Y-2193396D01*
G01X3901802Y-2187300D01*
G01X3904850Y-2180950D01*
G01X3907898Y-2171806D01*
G01X3907898Y-2156312D01*
G01X3904850Y-2146914D01*
G01X3901802Y-2140818D01*
G01X3895452Y-2134468D01*
G01X3889356Y-2131420D01*
G01X3876910Y-2131420D01*
G01X3870814Y-2134468D01*
G01X3864464Y-2140818D01*
G01X3861416Y-2146914D01*
G01X3858368Y-2156312D01*
G01X3858368Y-2171806D01*
G01X3861416Y-2180950D01*
G01X3864464Y-2187300D01*
G01X3870814Y-2193396D01*
G01X3876910Y-2196444D01*
G01X3889356Y-2196444D01*
G01X3879958Y-2143866D02*
G01X3861416Y-2125324D01*
G01X3784962Y-2196444D02*
G01X3815950Y-2131420D01*
G01X3828142Y-2196444D02*
G01X3784962Y-2196444D01*
G01X3114656Y-2196444D02*
G01X3120752Y-2193396D01*
G01X3127102Y-2187300D01*
G01X3130150Y-2180950D01*
G01X3133198Y-2171806D01*
G01X3133198Y-2156312D01*
G01X3130150Y-2146914D01*
G01X3127102Y-2140818D01*
G01X3120752Y-2134468D01*
G01X3114656Y-2131420D01*
G01X3102210Y-2131420D01*
G01X3096114Y-2134468D01*
G01X3089764Y-2140818D01*
G01X3086716Y-2146914D01*
G01X3083668Y-2156312D01*
G01X3083668Y-2171806D01*
G01X3086716Y-2180950D01*
G01X3089764Y-2187300D01*
G01X3096114Y-2193396D01*
G01X3102210Y-2196444D01*
G01X3114656Y-2196444D01*
G01X3105258Y-2143866D02*
G01X3086716Y-2125324D01*
G01X3010262Y-2196444D02*
G01X3041250Y-2131420D01*
G01X3053442Y-2196444D02*
G01X3010262Y-2196444D01*
G01X-3794760Y104902D02*
G01X-3801110Y101854D01*
G01X-3807206Y95504D01*
G01X-3810254Y89408D01*
G01X-3810254Y76962D01*
G01X-3807206Y70866D01*
G01X-3801110Y64516D01*
G01X-3794760Y61468D01*
G01X-3785616Y58420D01*
G01X-3770122Y58420D01*
G01X-3760724Y61468D01*
G01X-3754628Y64516D01*
G01X-3748278Y70866D01*
G01X-3745230Y76962D01*
G01X-3745230Y89408D01*
G01X-3748278Y95504D01*
G01X-3754628Y101854D01*
G01X-3760724Y104902D01*
G01X-3794760Y138176D02*
G01X-3797808Y138176D01*
G01X-3804158Y141224D01*
G01X-3807206Y144272D01*
G01X-3810254Y150368D01*
G01X-3810254Y162814D01*
G01X-3807206Y169164D01*
G01X-3804158Y172212D01*
G01X-3797808Y175260D01*
G01X-3791712Y175260D01*
G01X-3785616Y172212D01*
G01X-3776218Y165862D01*
G01X-3745230Y135128D01*
G01X-3745230Y178308D01*
G01X-3794760Y211582D02*
G01X-3797808Y211582D01*
G01X-3804158Y214630D01*
G01X-3807206Y217678D01*
G01X-3810254Y223774D01*
G01X-3810254Y236220D01*
G01X-3807206Y242570D01*
G01X-3804158Y245618D01*
G01X-3797808Y248666D01*
G01X-3791712Y248666D01*
G01X-3785616Y245618D01*
G01X-3776218Y239268D01*
G01X-3745230Y208534D01*
G01X-3745230Y251714D01*
G01X328160Y218440D02*
G01X325112Y224790D01*
G01X318762Y230886D01*
G01X312666Y233934D01*
G01X300220Y233934D01*
G01X294124Y230886D01*
G01X287774Y224790D01*
G01X284726Y218440D01*
G01X281678Y209296D01*
G01X281678Y193802D01*
G01X284726Y184404D01*
G01X287774Y178308D01*
G01X294124Y171958D01*
G01X300220Y168910D01*
G01X312666Y168910D01*
G01X318762Y171958D01*
G01X325112Y178308D01*
G01X328160Y184404D01*
G01X361434Y218440D02*
G01X361434Y221488D01*
G01X364482Y227838D01*
G01X367530Y230886D01*
G01X373626Y233934D01*
G01X386072Y233934D01*
G01X392422Y230886D01*
G01X395470Y227838D01*
G01X398518Y221488D01*
G01X398518Y215392D01*
G01X395470Y209296D01*
G01X389120Y199898D01*
G01X358386Y168910D01*
G01X401566Y168910D01*
G01X468876Y233934D02*
G01X437888Y233934D01*
G01X434840Y206248D01*
G01X437888Y209296D01*
G01X447032Y212344D01*
G01X456430Y212344D01*
G01X465828Y209296D01*
G01X471924Y202946D01*
G01X474972Y193802D01*
G01X474972Y187452D01*
G01X471924Y178308D01*
G01X465828Y171958D01*
G01X456430Y168910D01*
G01X447032Y168910D01*
G01X437888Y171958D01*
G01X434840Y175260D01*
G01X431792Y181356D01*
G01X87991Y-421947D02*
G01X91039Y-428297D01*
G01X97389Y-434393D01*
G01X103485Y-437441D01*
G01X115931Y-437441D01*
G01X122027Y-434393D01*
G01X128377Y-428297D01*
G01X131425Y-421947D01*
G01X134473Y-412803D01*
G01X134473Y-397309D01*
G01X131425Y-387911D01*
G01X128377Y-381815D01*
G01X122027Y-375465D01*
G01X115931Y-372417D01*
G01X103485Y-372417D01*
G01X97389Y-375465D01*
G01X91039Y-381815D01*
G01X87991Y-387911D01*
G01X54717Y-421947D02*
G01X54717Y-424995D01*
G01X51669Y-431345D01*
G01X48621Y-434393D01*
G01X42525Y-437441D01*
G01X30079Y-437441D01*
G01X23729Y-434393D01*
G01X20681Y-431345D01*
G01X17633Y-424995D01*
G01X17633Y-418899D01*
G01X20681Y-412803D01*
G01X27031Y-403405D01*
G01X57765Y-372417D01*
G01X14585Y-372417D01*
G01X-58821Y-437441D02*
G01X-27833Y-372417D01*
G01X-15641Y-437441D02*
G01X-58821Y-437441D01*
G01X1716006Y447934D02*
G01X1712958Y454284D01*
G01X1706608Y460380D01*
G01X1700512Y463428D01*
G01X1688066Y463428D01*
G01X1681970Y460380D01*
G01X1675620Y454284D01*
G01X1672572Y447934D01*
G01X1669524Y438790D01*
G01X1669524Y423296D01*
G01X1672572Y413898D01*
G01X1675620Y407802D01*
G01X1681970Y401452D01*
G01X1688066Y398404D01*
G01X1700512Y398404D01*
G01X1706608Y401452D01*
G01X1712958Y407802D01*
G01X1716006Y413898D01*
G01X1749280Y447934D02*
G01X1749280Y450982D01*
G01X1752328Y457332D01*
G01X1755376Y460380D01*
G01X1761472Y463428D01*
G01X1773918Y463428D01*
G01X1780268Y460380D01*
G01X1783316Y457332D01*
G01X1786364Y450982D01*
G01X1786364Y444886D01*
G01X1783316Y438790D01*
G01X1776966Y429392D01*
G01X1746232Y398404D01*
G01X1789412Y398404D01*
G01X1834878Y463428D02*
G01X1825734Y460380D01*
G01X1822686Y454284D01*
G01X1822686Y447934D01*
G01X1825734Y441838D01*
G01X1831830Y438790D01*
G01X1844276Y435742D01*
G01X1853674Y432440D01*
G01X1859770Y426344D01*
G01X1862818Y420248D01*
G01X1862818Y410850D01*
G01X1859770Y404754D01*
G01X1856722Y401452D01*
G01X1847324Y398404D01*
G01X1834878Y398404D01*
G01X1825734Y401452D01*
G01X1822686Y404754D01*
G01X1819638Y410850D01*
G01X1819638Y420248D01*
G01X1822686Y426344D01*
G01X1828782Y432440D01*
G01X1838180Y435742D01*
G01X1850372Y438790D01*
G01X1856722Y441838D01*
G01X1859770Y447934D01*
G01X1859770Y454284D01*
G01X1856722Y460380D01*
G01X1847324Y463428D01*
G01X1834878Y463428D01*
G01X2035302Y434340D02*
G01X2032254Y440690D01*
G01X2025904Y446786D01*
G01X2019808Y449834D01*
G01X2007362Y449834D01*
G01X2001266Y446786D01*
G01X1994916Y440690D01*
G01X1991868Y434340D01*
G01X1988820Y425196D01*
G01X1988820Y409702D01*
G01X1991868Y400304D01*
G01X1994916Y394208D01*
G01X2001266Y387858D01*
G01X2007362Y384810D01*
G01X2019808Y384810D01*
G01X2025904Y387858D01*
G01X2032254Y394208D01*
G01X2035302Y400304D01*
G01X2068576Y434340D02*
G01X2068576Y437388D01*
G01X2071624Y443738D01*
G01X2074672Y446786D01*
G01X2080768Y449834D01*
G01X2093214Y449834D01*
G01X2099564Y446786D01*
G01X2102612Y443738D01*
G01X2105660Y437388D01*
G01X2105660Y431292D01*
G01X2102612Y425196D01*
G01X2096262Y415798D01*
G01X2065528Y384810D01*
G01X2108708Y384810D01*
G01X2179066Y428244D02*
G01X2176018Y418846D01*
G01X2169668Y412750D01*
G01X2160524Y409702D01*
G01X2157476Y409702D01*
G01X2148078Y412750D01*
G01X2141982Y418846D01*
G01X2138934Y428244D01*
G01X2138934Y431292D01*
G01X2141982Y440690D01*
G01X2148078Y446786D01*
G01X2157476Y449834D01*
G01X2160524Y449834D01*
G01X2169668Y446786D01*
G01X2176018Y440690D01*
G01X2179066Y428244D01*
G01X2179066Y412750D01*
G01X2176018Y397256D01*
G01X2169668Y387858D01*
G01X2160524Y384810D01*
G01X2154174Y384810D01*
G01X2145030Y387858D01*
G01X2141982Y394208D01*
G01X3794760Y-104902D02*
G01X3801110Y-101854D01*
G01X3807206Y-95504D01*
G01X3810254Y-89408D01*
G01X3810254Y-76962D01*
G01X3807206Y-70866D01*
G01X3801110Y-64516D01*
G01X3794760Y-61468D01*
G01X3785616Y-58420D01*
G01X3770122Y-58420D01*
G01X3760724Y-61468D01*
G01X3754628Y-64516D01*
G01X3748278Y-70866D01*
G01X3745230Y-76962D01*
G01X3745230Y-89408D01*
G01X3748278Y-95504D01*
G01X3754628Y-101854D01*
G01X3760724Y-104902D01*
G01X3810254Y-165862D02*
G01X3767074Y-135128D01*
G01X3767074Y-181356D01*
G01X3810254Y-165862D02*
G01X3745230Y-165862D01*
G01X3810254Y-230124D02*
G01X3807206Y-220726D01*
G01X3797808Y-214630D01*
G01X3782568Y-211582D01*
G01X3773170Y-211582D01*
G01X3757676Y-214630D01*
G01X3748278Y-220726D01*
G01X3745230Y-230124D01*
G01X3745230Y-236220D01*
G01X3748278Y-245618D01*
G01X3757676Y-251714D01*
G01X3773170Y-254762D01*
G01X3782568Y-254762D01*
G01X3797808Y-251714D01*
G01X3807206Y-245618D01*
G01X3810254Y-236220D01*
G01X3810254Y-230124D01*
G01X-256540Y-834898D02*
G01X-262890Y-837946D01*
G01X-268986Y-844296D01*
G01X-272034Y-850392D01*
G01X-272034Y-862838D01*
G01X-268986Y-868934D01*
G01X-262890Y-875284D01*
G01X-256540Y-878332D01*
G01X-247396Y-881380D01*
G01X-231902Y-881380D01*
G01X-222504Y-878332D01*
G01X-216408Y-875284D01*
G01X-210058Y-868934D01*
G01X-207010Y-862838D01*
G01X-207010Y-850392D01*
G01X-210058Y-844296D01*
G01X-216408Y-837946D01*
G01X-222504Y-834898D01*
G01X-272034Y-767588D02*
G01X-272034Y-798576D01*
G01X-244348Y-801624D01*
G01X-247396Y-798576D01*
G01X-250444Y-789432D01*
G01X-250444Y-780034D01*
G01X-247396Y-770636D01*
G01X-241046Y-764540D01*
G01X-231902Y-761492D01*
G01X-225552Y-761492D01*
G01X-216408Y-764540D01*
G01X-210058Y-770636D01*
G01X-207010Y-780034D01*
G01X-207010Y-789432D01*
G01X-210058Y-798576D01*
G01X-213360Y-801624D01*
G01X-219456Y-804672D01*
G01X-259588Y-731266D02*
G01X-262890Y-725170D01*
G01X-272034Y-716026D01*
G01X-207010Y-716026D01*
G01X336677Y-882015D02*
G01X330327Y-885063D01*
G01X324231Y-891413D01*
G01X321183Y-897509D01*
G01X321183Y-909955D01*
G01X324231Y-916051D01*
G01X330327Y-922401D01*
G01X336677Y-925449D01*
G01X345821Y-928497D01*
G01X361315Y-928497D01*
G01X370713Y-925449D01*
G01X376809Y-922401D01*
G01X383159Y-916051D01*
G01X386207Y-909955D01*
G01X386207Y-897509D01*
G01X383159Y-891413D01*
G01X376809Y-885063D01*
G01X370713Y-882015D01*
G01X321183Y-814705D02*
G01X321183Y-845693D01*
G01X348869Y-848741D01*
G01X345821Y-845693D01*
G01X342773Y-836549D01*
G01X342773Y-827151D01*
G01X345821Y-817753D01*
G01X352171Y-811657D01*
G01X361315Y-808609D01*
G01X367665Y-808609D01*
G01X376809Y-811657D01*
G01X383159Y-817753D01*
G01X386207Y-827151D01*
G01X386207Y-836549D01*
G01X383159Y-845693D01*
G01X379857Y-848741D01*
G01X373761Y-851789D01*
G01X336677Y-775335D02*
G01X333629Y-775335D01*
G01X327279Y-772287D01*
G01X324231Y-769239D01*
G01X321183Y-763143D01*
G01X321183Y-750697D01*
G01X324231Y-744347D01*
G01X327279Y-741299D01*
G01X333629Y-738251D01*
G01X339725Y-738251D01*
G01X345821Y-741299D01*
G01X355219Y-747649D01*
G01X386207Y-778383D01*
G01X386207Y-735203D01*
G01X-314198Y-1203960D02*
G01X-317246Y-1197610D01*
G01X-323596Y-1191514D01*
G01X-329692Y-1188466D01*
G01X-342138Y-1188466D01*
G01X-348234Y-1191514D01*
G01X-354584Y-1197610D01*
G01X-357632Y-1203960D01*
G01X-360680Y-1213104D01*
G01X-360680Y-1228598D01*
G01X-357632Y-1237996D01*
G01X-354584Y-1244092D01*
G01X-348234Y-1250442D01*
G01X-342138Y-1253490D01*
G01X-329692Y-1253490D01*
G01X-323596Y-1250442D01*
G01X-317246Y-1244092D01*
G01X-314198Y-1237996D01*
G01X-246888Y-1188466D02*
G01X-277876Y-1188466D01*
G01X-280924Y-1216152D01*
G01X-277876Y-1213104D01*
G01X-268732Y-1210056D01*
G01X-259334Y-1210056D01*
G01X-249936Y-1213104D01*
G01X-243840Y-1219454D01*
G01X-240792Y-1228598D01*
G01X-240792Y-1234948D01*
G01X-243840Y-1244092D01*
G01X-249936Y-1250442D01*
G01X-259334Y-1253490D01*
G01X-268732Y-1253490D01*
G01X-277876Y-1250442D01*
G01X-280924Y-1247140D01*
G01X-283972Y-1241044D01*
G01X-204470Y-1188466D02*
G01X-170434Y-1188466D01*
G01X-188976Y-1213104D01*
G01X-179832Y-1213104D01*
G01X-173482Y-1216152D01*
G01X-170434Y-1219454D01*
G01X-167386Y-1228598D01*
G01X-167386Y-1234948D01*
G01X-170434Y-1244092D01*
G01X-176530Y-1250442D01*
G01X-185928Y-1253490D01*
G01X-195326Y-1253490D01*
G01X-204470Y-1250442D01*
G01X-207518Y-1247140D01*
G01X-210566Y-1241044D01*
G01X-2974432Y-104394D02*
G01X-2968082Y-101346D01*
G01X-2961986Y-94996D01*
G01X-2958938Y-88900D01*
G01X-2958938Y-76454D01*
G01X-2961986Y-70358D01*
G01X-2968082Y-64008D01*
G01X-2974432Y-60960D01*
G01X-2983576Y-57912D01*
G01X-2999070Y-57912D01*
G01X-3008468Y-60960D01*
G01X-3014564Y-64008D01*
G01X-3020914Y-70358D01*
G01X-3023962Y-76454D01*
G01X-3023962Y-88900D01*
G01X-3020914Y-94996D01*
G01X-3014564Y-101346D01*
G01X-3008468Y-104394D01*
G01X-2968082Y-171704D02*
G01X-2961986Y-168656D01*
G01X-2958938Y-159258D01*
G01X-2958938Y-153162D01*
G01X-2961986Y-143764D01*
G01X-2971384Y-137668D01*
G01X-2986624Y-134620D01*
G01X-3002118Y-134620D01*
G01X-3014564Y-137668D01*
G01X-3020914Y-143764D01*
G01X-3023962Y-153162D01*
G01X-3023962Y-156210D01*
G01X-3020914Y-165354D01*
G01X-3014564Y-171704D01*
G01X-3005420Y-174752D01*
G01X-3002118Y-174752D01*
G01X-2992974Y-171704D01*
G01X-2986624Y-165354D01*
G01X-2983576Y-156210D01*
G01X-2983576Y-153162D01*
G01X-2986624Y-143764D01*
G01X-2992974Y-137668D01*
G01X-3002118Y-134620D01*
G01X-2971384Y-204978D02*
G01X-2968082Y-211074D01*
G01X-2958938Y-220218D01*
G01X-3023962Y-220218D01*
G01X2974340Y104902D02*
G01X2967990Y101854D01*
G01X2961894Y95504D01*
G01X2958846Y89408D01*
G01X2958846Y76962D01*
G01X2961894Y70866D01*
G01X2967990Y64516D01*
G01X2974340Y61468D01*
G01X2983484Y58420D01*
G01X2998978Y58420D01*
G01X3008376Y61468D01*
G01X3014472Y64516D01*
G01X3020822Y70866D01*
G01X3023870Y76962D01*
G01X3023870Y89408D01*
G01X3020822Y95504D01*
G01X3014472Y101854D01*
G01X3008376Y104902D01*
G01X2967990Y172212D02*
G01X2961894Y169164D01*
G01X2958846Y159766D01*
G01X2958846Y153670D01*
G01X2961894Y144272D01*
G01X2971292Y138176D01*
G01X2986532Y135128D01*
G01X3002026Y135128D01*
G01X3014472Y138176D01*
G01X3020822Y144272D01*
G01X3023870Y153670D01*
G01X3023870Y156718D01*
G01X3020822Y165862D01*
G01X3014472Y172212D01*
G01X3005328Y175260D01*
G01X3002026Y175260D01*
G01X2992882Y172212D01*
G01X2986532Y165862D01*
G01X2983484Y156718D01*
G01X2983484Y153670D01*
G01X2986532Y144272D01*
G01X2992882Y138176D01*
G01X3002026Y135128D01*
G01X2967990Y242570D02*
G01X2961894Y239522D01*
G01X2958846Y230124D01*
G01X2958846Y224028D01*
G01X2961894Y214630D01*
G01X2971292Y208534D01*
G01X2986532Y205486D01*
G01X3002026Y205486D01*
G01X3014472Y208534D01*
G01X3020822Y214630D01*
G01X3023870Y224028D01*
G01X3023870Y227076D01*
G01X3020822Y236220D01*
G01X3014472Y242570D01*
G01X3005328Y245618D01*
G01X3002026Y245618D01*
G01X2992882Y242570D01*
G01X2986532Y236220D01*
G01X2983484Y227076D01*
G01X2983484Y224028D01*
G01X2986532Y214630D01*
G01X2992882Y208534D01*
G01X3002026Y205486D01*
G01X-891540Y-1364234D02*
G01X-891540Y-1299210D01*
G01X-934974Y-1364234D02*
G01X-934974Y-1299210D01*
G01X-891540Y-1333246D02*
G01X-934974Y-1333246D01*
G01X-968248Y-1348740D02*
G01X-968248Y-1351788D01*
G01X-971296Y-1358138D01*
G01X-974344Y-1361186D01*
G01X-980440Y-1364234D01*
G01X-992886Y-1364234D01*
G01X-999236Y-1361186D01*
G01X-1002284Y-1358138D01*
G01X-1005332Y-1351788D01*
G01X-1005332Y-1345692D01*
G01X-1002284Y-1339596D01*
G01X-995934Y-1330198D01*
G01X-965200Y-1299210D01*
G01X-1008380Y-1299210D01*
G01X-3865596Y260415D02*
G01X-3930620Y260415D01*
G01X-3930620Y260415D02*
G01X-3930620Y223331D01*
G01X-3878042Y193105D02*
G01X-3874740Y187009D01*
G01X-3865596Y177865D01*
G01X-3930620Y177865D01*
G01X3865596Y-260415D02*
G01X3930620Y-260415D01*
G01X3930620Y-260415D02*
G01X3930620Y-223331D01*
G01X3881090Y-190057D02*
G01X3878042Y-190057D01*
G01X3871692Y-187009D01*
G01X3868644Y-183961D01*
G01X3865596Y-177865D01*
G01X3865596Y-165419D01*
G01X3868644Y-159069D01*
G01X3871692Y-156021D01*
G01X3878042Y-152973D01*
G01X3884138Y-152973D01*
G01X3890234Y-156021D01*
G01X3899632Y-162371D01*
G01X3930620Y-193105D01*
G01X3930620Y-149925D01*
G01X2903504Y260415D02*
G01X2838480Y260415D01*
G01X2838480Y260415D02*
G01X2838480Y223331D01*
G01X2903504Y187009D02*
G01X2903504Y152973D01*
G01X2878866Y171515D01*
G01X2878866Y162371D01*
G01X2875818Y156021D01*
G01X2872516Y152973D01*
G01X2863372Y149925D01*
G01X2857022Y149925D01*
G01X2847878Y152973D01*
G01X2841528Y159069D01*
G01X2838480Y168467D01*
G01X2838480Y177865D01*
G01X2841528Y187009D01*
G01X2844830Y190057D01*
G01X2850926Y193105D01*
G01X1606042Y-2331466D02*
G01X1606042Y-2396490D01*
G01X1606042Y-2396490D02*
G01X1643126Y-2396490D01*
G01X1704086Y-2331466D02*
G01X1673352Y-2374646D01*
G01X1719580Y-2374646D01*
G01X1704086Y-2331466D02*
G01X1704086Y-2396490D01*
G01X-2903596Y-259907D02*
G01X-2838572Y-259907D01*
G01X-2838572Y-259907D02*
G01X-2838572Y-222823D01*
G01X-2903596Y-155513D02*
G01X-2903596Y-186501D01*
G01X-2875910Y-189549D01*
G01X-2878958Y-186501D01*
G01X-2882006Y-177357D01*
G01X-2882006Y-167959D01*
G01X-2878958Y-158561D01*
G01X-2872608Y-152465D01*
G01X-2863464Y-149417D01*
G01X-2857114Y-149417D01*
G01X-2847970Y-152465D01*
G01X-2841620Y-158561D01*
G01X-2838572Y-167959D01*
G01X-2838572Y-177357D01*
G01X-2841620Y-186501D01*
G01X-2844922Y-189549D01*
G01X-2851018Y-192597D01*
G01X3047463Y2590038D02*
G01X3044415Y2596134D01*
G01X3038319Y2602484D01*
G01X3031969Y2605532D01*
G01X3022825Y2608580D01*
G01X3007331Y2608580D01*
G01X2997933Y2605532D01*
G01X2991837Y2602484D01*
G01X2985487Y2596134D01*
G01X2982439Y2590038D01*
G01X2982439Y2577592D01*
G01X2985487Y2571496D01*
G01X2991837Y2565146D01*
G01X2997933Y2562098D01*
G01X3007331Y2559050D01*
G01X3022825Y2559050D01*
G01X3031969Y2562098D01*
G01X3038319Y2565146D01*
G01X3044415Y2571496D01*
G01X3047463Y2577592D01*
G01X3047463Y2590038D01*
G01X2994885Y2580640D02*
G01X2976343Y2562098D01*
G01X3031969Y2525776D02*
G01X3035017Y2525776D01*
G01X3041367Y2522728D01*
G01X3044415Y2519680D01*
G01X3047463Y2513584D01*
G01X3047463Y2501138D01*
G01X3044415Y2494788D01*
G01X3041367Y2491740D01*
G01X3035017Y2488692D01*
G01X3028921Y2488692D01*
G01X3022825Y2491740D01*
G01X3013427Y2498090D01*
G01X2982439Y2528824D01*
G01X2982439Y2485644D01*
G01X3822163Y2590038D02*
G01X3819115Y2596134D01*
G01X3813019Y2602484D01*
G01X3806669Y2605532D01*
G01X3797525Y2608580D01*
G01X3782031Y2608580D01*
G01X3772633Y2605532D01*
G01X3766537Y2602484D01*
G01X3760187Y2596134D01*
G01X3757139Y2590038D01*
G01X3757139Y2577592D01*
G01X3760187Y2571496D01*
G01X3766537Y2565146D01*
G01X3772633Y2562098D01*
G01X3782031Y2559050D01*
G01X3797525Y2559050D01*
G01X3806669Y2562098D01*
G01X3813019Y2565146D01*
G01X3819115Y2571496D01*
G01X3822163Y2577592D01*
G01X3822163Y2590038D01*
G01X3769585Y2580640D02*
G01X3751043Y2562098D01*
G01X3822163Y2498090D02*
G01X3778983Y2528824D01*
G01X3778983Y2482596D01*
G01X3822163Y2498090D02*
G01X3757139Y2498090D01*
G01X4596863Y2590038D02*
G01X4593815Y2596134D01*
G01X4587719Y2602484D01*
G01X4581369Y2605532D01*
G01X4572225Y2608580D01*
G01X4556731Y2608580D01*
G01X4547333Y2605532D01*
G01X4541237Y2602484D01*
G01X4534887Y2596134D01*
G01X4531839Y2590038D01*
G01X4531839Y2577592D01*
G01X4534887Y2571496D01*
G01X4541237Y2565146D01*
G01X4547333Y2562098D01*
G01X4556731Y2559050D01*
G01X4572225Y2559050D01*
G01X4581369Y2562098D01*
G01X4587719Y2565146D01*
G01X4593815Y2571496D01*
G01X4596863Y2577592D01*
G01X4596863Y2590038D01*
G01X4544285Y2580640D02*
G01X4525743Y2562098D01*
G01X4587719Y2491740D02*
G01X4593815Y2494788D01*
G01X4596863Y2504186D01*
G01X4596863Y2510282D01*
G01X4593815Y2519680D01*
G01X4584417Y2525776D01*
G01X4569177Y2528824D01*
G01X4553683Y2528824D01*
G01X4541237Y2525776D01*
G01X4534887Y2519680D01*
G01X4531839Y2510282D01*
G01X4531839Y2507234D01*
G01X4534887Y2498090D01*
G01X4541237Y2491740D01*
G01X4550381Y2488692D01*
G01X4553683Y2488692D01*
G01X4562827Y2491740D01*
G01X4569177Y2498090D01*
G01X4572225Y2507234D01*
G01X4572225Y2510282D01*
G01X4569177Y2519680D01*
G01X4562827Y2525776D01*
G01X4553683Y2528824D01*
G01X-2946937Y2590038D02*
G01X-2949985Y2596134D01*
G01X-2956081Y2602484D01*
G01X-2962431Y2605532D01*
G01X-2971575Y2608580D01*
G01X-2987069Y2608580D01*
G01X-2996467Y2605532D01*
G01X-3002563Y2602484D01*
G01X-3008913Y2596134D01*
G01X-3011961Y2590038D01*
G01X-3011961Y2577592D01*
G01X-3008913Y2571496D01*
G01X-3002563Y2565146D01*
G01X-2996467Y2562098D01*
G01X-2987069Y2559050D01*
G01X-2971575Y2559050D01*
G01X-2962431Y2562098D01*
G01X-2956081Y2565146D01*
G01X-2949985Y2571496D01*
G01X-2946937Y2577592D01*
G01X-2946937Y2590038D01*
G01X-2999515Y2580640D02*
G01X-3018057Y2562098D01*
G01X-2946937Y2485644D02*
G01X-3011961Y2516632D01*
G01X-2946937Y2528824D02*
G01X-2946937Y2485644D01*
G01X-3721637Y2590038D02*
G01X-3724685Y2596134D01*
G01X-3730781Y2602484D01*
G01X-3737131Y2605532D01*
G01X-3746275Y2608580D01*
G01X-3761769Y2608580D01*
G01X-3771167Y2605532D01*
G01X-3777263Y2602484D01*
G01X-3783613Y2596134D01*
G01X-3786661Y2590038D01*
G01X-3786661Y2577592D01*
G01X-3783613Y2571496D01*
G01X-3777263Y2565146D01*
G01X-3771167Y2562098D01*
G01X-3761769Y2559050D01*
G01X-3746275Y2559050D01*
G01X-3737131Y2562098D01*
G01X-3730781Y2565146D01*
G01X-3724685Y2571496D01*
G01X-3721637Y2577592D01*
G01X-3721637Y2590038D01*
G01X-3774215Y2580640D02*
G01X-3792757Y2562098D01*
G01X-3734083Y2528824D02*
G01X-3730781Y2522728D01*
G01X-3721637Y2513584D01*
G01X-3786661Y2513584D01*
G01X-3721637Y2464816D02*
G01X-3724685Y2474214D01*
G01X-3734083Y2480310D01*
G01X-3749323Y2483358D01*
G01X-3758721Y2483358D01*
G01X-3774215Y2480310D01*
G01X-3783613Y2474214D01*
G01X-3786661Y2464816D01*
G01X-3786661Y2458720D01*
G01X-3783613Y2449322D01*
G01X-3774215Y2443226D01*
G01X-3758721Y2440178D01*
G01X-3749323Y2440178D01*
G01X-3734083Y2443226D01*
G01X-3724685Y2449322D01*
G01X-3721637Y2458720D01*
G01X-3721637Y2464816D01*
G01X-2172237Y2590038D02*
G01X-2175285Y2596134D01*
G01X-2181381Y2602484D01*
G01X-2187731Y2605532D01*
G01X-2196875Y2608580D01*
G01X-2212369Y2608580D01*
G01X-2221767Y2605532D01*
G01X-2227863Y2602484D01*
G01X-2234213Y2596134D01*
G01X-2237261Y2590038D01*
G01X-2237261Y2577592D01*
G01X-2234213Y2571496D01*
G01X-2227863Y2565146D01*
G01X-2221767Y2562098D01*
G01X-2212369Y2559050D01*
G01X-2196875Y2559050D01*
G01X-2187731Y2562098D01*
G01X-2181381Y2565146D01*
G01X-2175285Y2571496D01*
G01X-2172237Y2577592D01*
G01X-2172237Y2590038D01*
G01X-2224815Y2580640D02*
G01X-2243357Y2562098D01*
G01X-2184683Y2528824D02*
G01X-2181381Y2522728D01*
G01X-2172237Y2513584D01*
G01X-2237261Y2513584D01*
G01X-2187731Y2480310D02*
G01X-2184683Y2480310D01*
G01X-2178333Y2477262D01*
G01X-2175285Y2474214D01*
G01X-2172237Y2468118D01*
G01X-2172237Y2455672D01*
G01X-2175285Y2449322D01*
G01X-2178333Y2446274D01*
G01X-2184683Y2443226D01*
G01X-2190779Y2443226D01*
G01X-2196875Y2446274D01*
G01X-2206273Y2452624D01*
G01X-2237261Y2483358D01*
G01X-2237261Y2440178D01*
G01X2946937Y-2590038D02*
G01X2949985Y-2596134D01*
G01X2956081Y-2602484D01*
G01X2962431Y-2605532D01*
G01X2971575Y-2608580D01*
G01X2987069Y-2608580D01*
G01X2996467Y-2605532D01*
G01X3002563Y-2602484D01*
G01X3008913Y-2596134D01*
G01X3011961Y-2590038D01*
G01X3011961Y-2577592D01*
G01X3008913Y-2571496D01*
G01X3002563Y-2565146D01*
G01X2996467Y-2562098D01*
G01X2987069Y-2559050D01*
G01X2971575Y-2559050D01*
G01X2962431Y-2562098D01*
G01X2956081Y-2565146D01*
G01X2949985Y-2571496D01*
G01X2946937Y-2577592D01*
G01X2946937Y-2590038D01*
G01X2999515Y-2580640D02*
G01X3018057Y-2562098D01*
G01X2959383Y-2528824D02*
G01X2956081Y-2522728D01*
G01X2946937Y-2513584D01*
G01X3011961Y-2513584D01*
G01X2946937Y-2477262D02*
G01X2946937Y-2443226D01*
G01X2971575Y-2461768D01*
G01X2971575Y-2452624D01*
G01X2974623Y-2446274D01*
G01X2977925Y-2443226D01*
G01X2987069Y-2440178D01*
G01X2993419Y-2440178D01*
G01X3002563Y-2443226D01*
G01X3008913Y-2449322D01*
G01X3011961Y-2458720D01*
G01X3011961Y-2468118D01*
G01X3008913Y-2477262D01*
G01X3005611Y-2480310D01*
G01X2999515Y-2483358D01*
G01X3721637Y-2590038D02*
G01X3724685Y-2596134D01*
G01X3730781Y-2602484D01*
G01X3737131Y-2605532D01*
G01X3746275Y-2608580D01*
G01X3761769Y-2608580D01*
G01X3771167Y-2605532D01*
G01X3777263Y-2602484D01*
G01X3783613Y-2596134D01*
G01X3786661Y-2590038D01*
G01X3786661Y-2577592D01*
G01X3783613Y-2571496D01*
G01X3777263Y-2565146D01*
G01X3771167Y-2562098D01*
G01X3761769Y-2559050D01*
G01X3746275Y-2559050D01*
G01X3737131Y-2562098D01*
G01X3730781Y-2565146D01*
G01X3724685Y-2571496D01*
G01X3721637Y-2577592D01*
G01X3721637Y-2590038D01*
G01X3774215Y-2580640D02*
G01X3792757Y-2562098D01*
G01X3734083Y-2528824D02*
G01X3730781Y-2522728D01*
G01X3721637Y-2513584D01*
G01X3786661Y-2513584D01*
G01X3730781Y-2446274D02*
G01X3724685Y-2449322D01*
G01X3721637Y-2458720D01*
G01X3721637Y-2464816D01*
G01X3724685Y-2474214D01*
G01X3734083Y-2480310D01*
G01X3749323Y-2483358D01*
G01X3764817Y-2483358D01*
G01X3777263Y-2480310D01*
G01X3783613Y-2474214D01*
G01X3786661Y-2464816D01*
G01X3786661Y-2461768D01*
G01X3783613Y-2452624D01*
G01X3777263Y-2446274D01*
G01X3768119Y-2443226D01*
G01X3764817Y-2443226D01*
G01X3755673Y-2446274D01*
G01X3749323Y-2452624D01*
G01X3746275Y-2461768D01*
G01X3746275Y-2464816D01*
G01X3749323Y-2474214D01*
G01X3755673Y-2480310D01*
G01X3764817Y-2483358D01*
G01X2172237Y-2590038D02*
G01X2175285Y-2596134D01*
G01X2181381Y-2602484D01*
G01X2187731Y-2605532D01*
G01X2196875Y-2608580D01*
G01X2212369Y-2608580D01*
G01X2221767Y-2605532D01*
G01X2227863Y-2602484D01*
G01X2234213Y-2596134D01*
G01X2237261Y-2590038D01*
G01X2237261Y-2577592D01*
G01X2234213Y-2571496D01*
G01X2227863Y-2565146D01*
G01X2221767Y-2562098D01*
G01X2212369Y-2559050D01*
G01X2196875Y-2559050D01*
G01X2187731Y-2562098D01*
G01X2181381Y-2565146D01*
G01X2175285Y-2571496D01*
G01X2172237Y-2577592D01*
G01X2172237Y-2590038D01*
G01X2224815Y-2580640D02*
G01X2243357Y-2562098D01*
G01X2184683Y-2528824D02*
G01X2181381Y-2522728D01*
G01X2172237Y-2513584D01*
G01X2237261Y-2513584D01*
G01X2172237Y-2468118D02*
G01X2175285Y-2477262D01*
G01X2181381Y-2480310D01*
G01X2187731Y-2480310D01*
G01X2193827Y-2477262D01*
G01X2196875Y-2471166D01*
G01X2199923Y-2458720D01*
G01X2203225Y-2449322D01*
G01X2209321Y-2443226D01*
G01X2215417Y-2440178D01*
G01X2224815Y-2440178D01*
G01X2230911Y-2443226D01*
G01X2234213Y-2446274D01*
G01X2237261Y-2455672D01*
G01X2237261Y-2468118D01*
G01X2234213Y-2477262D01*
G01X2230911Y-2480310D01*
G01X2224815Y-2483358D01*
G01X2215417Y-2483358D01*
G01X2209321Y-2480310D01*
G01X2203225Y-2474214D01*
G01X2199923Y-2464816D01*
G01X2196875Y-2452624D01*
G01X2193827Y-2446274D01*
G01X2187731Y-2443226D01*
G01X2181381Y-2443226D01*
G01X2175285Y-2446274D01*
G01X2172237Y-2455672D01*
G01X2172237Y-2468118D01*
G01X-3822255Y-2589530D02*
G01X-3819207Y-2595626D01*
G01X-3813111Y-2601976D01*
G01X-3806761Y-2605024D01*
G01X-3797617Y-2608072D01*
G01X-3782123Y-2608072D01*
G01X-3772725Y-2605024D01*
G01X-3766629Y-2601976D01*
G01X-3760279Y-2595626D01*
G01X-3757231Y-2589530D01*
G01X-3757231Y-2577084D01*
G01X-3760279Y-2570988D01*
G01X-3766629Y-2564638D01*
G01X-3772725Y-2561590D01*
G01X-3782123Y-2558542D01*
G01X-3797617Y-2558542D01*
G01X-3806761Y-2561590D01*
G01X-3813111Y-2564638D01*
G01X-3819207Y-2570988D01*
G01X-3822255Y-2577084D01*
G01X-3822255Y-2589530D01*
G01X-3769677Y-2580132D02*
G01X-3751135Y-2561590D01*
G01X-3809809Y-2528316D02*
G01X-3813111Y-2522220D01*
G01X-3822255Y-2513076D01*
G01X-3757231Y-2513076D01*
G01X-3800665Y-2442718D02*
G01X-3791267Y-2445766D01*
G01X-3785171Y-2452116D01*
G01X-3782123Y-2461260D01*
G01X-3782123Y-2464308D01*
G01X-3785171Y-2473706D01*
G01X-3791267Y-2479802D01*
G01X-3800665Y-2482850D01*
G01X-3803713Y-2482850D01*
G01X-3813111Y-2479802D01*
G01X-3819207Y-2473706D01*
G01X-3822255Y-2464308D01*
G01X-3822255Y-2461260D01*
G01X-3819207Y-2452116D01*
G01X-3813111Y-2445766D01*
G01X-3800665Y-2442718D01*
G01X-3785171Y-2442718D01*
G01X-3769677Y-2445766D01*
G01X-3760279Y-2452116D01*
G01X-3757231Y-2461260D01*
G01X-3757231Y-2467610D01*
G01X-3760279Y-2476754D01*
G01X-3766629Y-2479802D01*
G01X-3047555Y-2589530D02*
G01X-3044507Y-2595626D01*
G01X-3038411Y-2601976D01*
G01X-3032061Y-2605024D01*
G01X-3022917Y-2608072D01*
G01X-3007423Y-2608072D01*
G01X-2998025Y-2605024D01*
G01X-2991929Y-2601976D01*
G01X-2985579Y-2595626D01*
G01X-2982531Y-2589530D01*
G01X-2982531Y-2577084D01*
G01X-2985579Y-2570988D01*
G01X-2991929Y-2564638D01*
G01X-2998025Y-2561590D01*
G01X-3007423Y-2558542D01*
G01X-3022917Y-2558542D01*
G01X-3032061Y-2561590D01*
G01X-3038411Y-2564638D01*
G01X-3044507Y-2570988D01*
G01X-3047555Y-2577084D01*
G01X-3047555Y-2589530D01*
G01X-2994977Y-2580132D02*
G01X-2976435Y-2561590D01*
G01X-3032061Y-2525268D02*
G01X-3035109Y-2525268D01*
G01X-3041459Y-2522220D01*
G01X-3044507Y-2519172D01*
G01X-3047555Y-2513076D01*
G01X-3047555Y-2500630D01*
G01X-3044507Y-2494280D01*
G01X-3041459Y-2491232D01*
G01X-3035109Y-2488184D01*
G01X-3029013Y-2488184D01*
G01X-3022917Y-2491232D01*
G01X-3013519Y-2497582D01*
G01X-2982531Y-2528316D01*
G01X-2982531Y-2485136D01*
G01X-3032061Y-2451862D02*
G01X-3035109Y-2451862D01*
G01X-3041459Y-2448814D01*
G01X-3044507Y-2445766D01*
G01X-3047555Y-2439670D01*
G01X-3047555Y-2427224D01*
G01X-3044507Y-2420874D01*
G01X-3041459Y-2417826D01*
G01X-3035109Y-2414778D01*
G01X-3029013Y-2414778D01*
G01X-3022917Y-2417826D01*
G01X-3013519Y-2424176D01*
G01X-2982531Y-2454910D01*
G01X-2982531Y-2411730D01*
G01X-4596955Y-2589530D02*
G01X-4593907Y-2595626D01*
G01X-4587811Y-2601976D01*
G01X-4581461Y-2605024D01*
G01X-4572317Y-2608072D01*
G01X-4556823Y-2608072D01*
G01X-4547425Y-2605024D01*
G01X-4541329Y-2601976D01*
G01X-4534979Y-2595626D01*
G01X-4531931Y-2589530D01*
G01X-4531931Y-2577084D01*
G01X-4534979Y-2570988D01*
G01X-4541329Y-2564638D01*
G01X-4547425Y-2561590D01*
G01X-4556823Y-2558542D01*
G01X-4572317Y-2558542D01*
G01X-4581461Y-2561590D01*
G01X-4587811Y-2564638D01*
G01X-4593907Y-2570988D01*
G01X-4596955Y-2577084D01*
G01X-4596955Y-2589530D01*
G01X-4544377Y-2580132D02*
G01X-4525835Y-2561590D01*
G01X-4581461Y-2525268D02*
G01X-4584509Y-2525268D01*
G01X-4590859Y-2522220D01*
G01X-4593907Y-2519172D01*
G01X-4596955Y-2513076D01*
G01X-4596955Y-2500630D01*
G01X-4593907Y-2494280D01*
G01X-4590859Y-2491232D01*
G01X-4584509Y-2488184D01*
G01X-4578413Y-2488184D01*
G01X-4572317Y-2491232D01*
G01X-4562919Y-2497582D01*
G01X-4531931Y-2528316D01*
G01X-4531931Y-2485136D01*
G01X-4596955Y-2424176D02*
G01X-4553775Y-2454910D01*
G01X-4553775Y-2408682D01*
G01X-4596955Y-2424176D02*
G01X-4531931Y-2424176D01*
G01X-3644900Y500634D02*
G01X-3644900Y435610D01*
G01X-3644900Y500634D02*
G01X-3616960Y500634D01*
G01X-3607816Y497586D01*
G01X-3604768Y494538D01*
G01X-3601466Y488188D01*
G01X-3601466Y482092D01*
G01X-3604768Y475996D01*
G01X-3607816Y472948D01*
G01X-3616960Y469646D01*
G01X-3644900Y469646D01*
G01X-3623310Y469646D02*
G01X-3601466Y435610D01*
G01X-3568192Y485140D02*
G01X-3568192Y488188D01*
G01X-3565144Y494538D01*
G01X-3562096Y497586D01*
G01X-3556000Y500634D01*
G01X-3543554Y500634D01*
G01X-3537204Y497586D01*
G01X-3534156Y494538D01*
G01X-3531108Y488188D01*
G01X-3531108Y482092D01*
G01X-3534156Y475996D01*
G01X-3540506Y466598D01*
G01X-3571240Y435610D01*
G01X-3528060Y435610D01*
G01X2412209Y1251966D02*
G01X2412209Y1316990D01*
G01X2412209Y1251966D02*
G01X2384269Y1251966D01*
G01X2375125Y1255014D01*
G01X2372077Y1258062D01*
G01X2368775Y1264412D01*
G01X2368775Y1270508D01*
G01X2372077Y1276604D01*
G01X2375125Y1279652D01*
G01X2384269Y1282954D01*
G01X2412209Y1282954D01*
G01X2390619Y1282954D02*
G01X2368775Y1316990D01*
G01X2338549Y1264412D02*
G01X2332453Y1261110D01*
G01X2323309Y1251966D01*
G01X2323309Y1316990D01*
G01X2286987Y1251966D02*
G01X2252951Y1251966D01*
G01X2271493Y1276604D01*
G01X2262349Y1276604D01*
G01X2255999Y1279652D01*
G01X2252951Y1282954D01*
G01X2249903Y1292098D01*
G01X2249903Y1298448D01*
G01X2252951Y1307592D01*
G01X2259047Y1313942D01*
G01X2268445Y1316990D01*
G01X2277843Y1316990D01*
G01X2286987Y1313942D01*
G01X2290035Y1310640D01*
G01X2293083Y1304544D01*
G01X-3582191Y1251966D02*
G01X-3582191Y1316990D01*
G01X-3582191Y1251966D02*
G01X-3610131Y1251966D01*
G01X-3619275Y1255014D01*
G01X-3622323Y1258062D01*
G01X-3625625Y1264412D01*
G01X-3625625Y1270508D01*
G01X-3622323Y1276604D01*
G01X-3619275Y1279652D01*
G01X-3610131Y1282954D01*
G01X-3582191Y1282954D01*
G01X-3603781Y1282954D02*
G01X-3625625Y1316990D01*
G01X-3658899Y1267460D02*
G01X-3658899Y1264412D01*
G01X-3661947Y1258062D01*
G01X-3664995Y1255014D01*
G01X-3671091Y1251966D01*
G01X-3683537Y1251966D01*
G01X-3689887Y1255014D01*
G01X-3692935Y1258062D01*
G01X-3695983Y1264412D01*
G01X-3695983Y1270508D01*
G01X-3692935Y1276604D01*
G01X-3686585Y1286002D01*
G01X-3655851Y1316990D01*
G01X-3699031Y1316990D01*
G01X-3766341Y1251966D02*
G01X-3735353Y1251966D01*
G01X-3732305Y1279652D01*
G01X-3735353Y1276604D01*
G01X-3744497Y1273556D01*
G01X-3753895Y1273556D01*
G01X-3763293Y1276604D01*
G01X-3769389Y1282954D01*
G01X-3772437Y1292098D01*
G01X-3772437Y1298448D01*
G01X-3769389Y1307592D01*
G01X-3763293Y1313942D01*
G01X-3753895Y1316990D01*
G01X-3744497Y1316990D01*
G01X-3735353Y1313942D01*
G01X-3732305Y1310640D01*
G01X-3729257Y1304544D01*
G01X-2807491Y1251966D02*
G01X-2807491Y1316990D01*
G01X-2807491Y1251966D02*
G01X-2835431Y1251966D01*
G01X-2844575Y1255014D01*
G01X-2847623Y1258062D01*
G01X-2850925Y1264412D01*
G01X-2850925Y1270508D01*
G01X-2847623Y1276604D01*
G01X-2844575Y1279652D01*
G01X-2835431Y1282954D01*
G01X-2807491Y1282954D01*
G01X-2829081Y1282954D02*
G01X-2850925Y1316990D01*
G01X-2884199Y1267460D02*
G01X-2884199Y1264412D01*
G01X-2887247Y1258062D01*
G01X-2890295Y1255014D01*
G01X-2896391Y1251966D01*
G01X-2908837Y1251966D01*
G01X-2915187Y1255014D01*
G01X-2918235Y1258062D01*
G01X-2921283Y1264412D01*
G01X-2921283Y1270508D01*
G01X-2918235Y1276604D01*
G01X-2911885Y1286002D01*
G01X-2881151Y1316990D01*
G01X-2924331Y1316990D01*
G01X-2991641Y1261110D02*
G01X-2988593Y1255014D01*
G01X-2979195Y1251966D01*
G01X-2973099Y1251966D01*
G01X-2963701Y1255014D01*
G01X-2957605Y1264412D01*
G01X-2954557Y1279652D01*
G01X-2954557Y1295146D01*
G01X-2957605Y1307592D01*
G01X-2963701Y1313942D01*
G01X-2973099Y1316990D01*
G01X-2976147Y1316990D01*
G01X-2985291Y1313942D01*
G01X-2991641Y1307592D01*
G01X-2994689Y1298448D01*
G01X-2994689Y1295146D01*
G01X-2991641Y1286002D01*
G01X-2985291Y1279652D01*
G01X-2976147Y1276604D01*
G01X-2973099Y1276604D01*
G01X-2963701Y1279652D01*
G01X-2957605Y1286002D01*
G01X-2954557Y1295146D01*
G01X-4356891Y1251966D02*
G01X-4356891Y1316990D01*
G01X-4356891Y1251966D02*
G01X-4384831Y1251966D01*
G01X-4393975Y1255014D01*
G01X-4397023Y1258062D01*
G01X-4400325Y1264412D01*
G01X-4400325Y1270508D01*
G01X-4397023Y1276604D01*
G01X-4393975Y1279652D01*
G01X-4384831Y1282954D01*
G01X-4356891Y1282954D01*
G01X-4378481Y1282954D02*
G01X-4400325Y1316990D01*
G01X-4433599Y1267460D02*
G01X-4433599Y1264412D01*
G01X-4436647Y1258062D01*
G01X-4439695Y1255014D01*
G01X-4445791Y1251966D01*
G01X-4458237Y1251966D01*
G01X-4464587Y1255014D01*
G01X-4467635Y1258062D01*
G01X-4470683Y1264412D01*
G01X-4470683Y1270508D01*
G01X-4467635Y1276604D01*
G01X-4461285Y1286002D01*
G01X-4430551Y1316990D01*
G01X-4473731Y1316990D01*
G01X-4547137Y1251966D02*
G01X-4516149Y1316990D01*
G01X-4503957Y1251966D02*
G01X-4547137Y1251966D01*
G01X3644900Y-500634D02*
G01X3644900Y-435610D01*
G01X3644900Y-500634D02*
G01X3616960Y-500634D01*
G01X3607816Y-497586D01*
G01X3604768Y-494538D01*
G01X3601466Y-488188D01*
G01X3601466Y-482092D01*
G01X3604768Y-475996D01*
G01X3607816Y-472948D01*
G01X3616960Y-469646D01*
G01X3644900Y-469646D01*
G01X3623310Y-469646D02*
G01X3601466Y-435610D01*
G01X3565144Y-500634D02*
G01X3531108Y-500634D01*
G01X3549650Y-475996D01*
G01X3540506Y-475996D01*
G01X3534156Y-472948D01*
G01X3531108Y-469646D01*
G01X3528060Y-460502D01*
G01X3528060Y-454152D01*
G01X3531108Y-445008D01*
G01X3537204Y-438658D01*
G01X3546602Y-435610D01*
G01X3556000Y-435610D01*
G01X3565144Y-438658D01*
G01X3568192Y-441960D01*
G01X3571240Y-448056D01*
G01X3467100Y-500634D02*
G01X3497834Y-457454D01*
G01X3451606Y-457454D01*
G01X3467100Y-500634D02*
G01X3467100Y-435610D01*
G01X3124200Y500634D02*
G01X3124200Y435610D01*
G01X3124200Y500634D02*
G01X3152140Y500634D01*
G01X3161284Y497586D01*
G01X3164332Y494538D01*
G01X3167634Y488188D01*
G01X3167634Y482092D01*
G01X3164332Y475996D01*
G01X3161284Y472948D01*
G01X3152140Y469646D01*
G01X3124200Y469646D01*
G01X3145790Y469646D02*
G01X3167634Y435610D01*
G01X3203956Y500634D02*
G01X3237992Y500634D01*
G01X3219450Y475996D01*
G01X3228594Y475996D01*
G01X3234944Y472948D01*
G01X3237992Y469646D01*
G01X3241040Y460502D01*
G01X3241040Y454152D01*
G01X3237992Y445008D01*
G01X3231896Y438658D01*
G01X3222498Y435610D01*
G01X3213100Y435610D01*
G01X3203956Y438658D01*
G01X3200908Y441960D01*
G01X3197860Y448056D01*
G01X3308350Y491490D02*
G01X3305302Y497586D01*
G01X3295904Y500634D01*
G01X3289808Y500634D01*
G01X3280410Y497586D01*
G01X3274314Y488188D01*
G01X3271266Y472948D01*
G01X3271266Y457454D01*
G01X3274314Y445008D01*
G01X3280410Y438658D01*
G01X3289808Y435610D01*
G01X3292856Y435610D01*
G01X3302000Y438658D01*
G01X3308350Y445008D01*
G01X3311398Y454152D01*
G01X3311398Y457454D01*
G01X3308350Y466598D01*
G01X3302000Y472948D01*
G01X3292856Y475996D01*
G01X3289808Y475996D01*
G01X3280410Y472948D01*
G01X3274314Y466598D01*
G01X3271266Y457454D01*
G01X3186909Y1251966D02*
G01X3186909Y1316990D01*
G01X3186909Y1251966D02*
G01X3158969Y1251966D01*
G01X3149825Y1255014D01*
G01X3146777Y1258062D01*
G01X3143475Y1264412D01*
G01X3143475Y1270508D01*
G01X3146777Y1276604D01*
G01X3149825Y1279652D01*
G01X3158969Y1282954D01*
G01X3186909Y1282954D01*
G01X3165319Y1282954D02*
G01X3143475Y1316990D01*
G01X3107153Y1251966D02*
G01X3073117Y1251966D01*
G01X3091659Y1276604D01*
G01X3082515Y1276604D01*
G01X3076165Y1279652D01*
G01X3073117Y1282954D01*
G01X3070069Y1292098D01*
G01X3070069Y1298448D01*
G01X3073117Y1307592D01*
G01X3079213Y1313942D01*
G01X3088611Y1316990D01*
G01X3098009Y1316990D01*
G01X3107153Y1313942D01*
G01X3110201Y1310640D01*
G01X3113249Y1304544D01*
G01X2996663Y1251966D02*
G01X3027651Y1316990D01*
G01X3039843Y1251966D02*
G01X2996663Y1251966D01*
G01X3961609Y1251966D02*
G01X3961609Y1316990D01*
G01X3961609Y1251966D02*
G01X3933669Y1251966D01*
G01X3924525Y1255014D01*
G01X3921477Y1258062D01*
G01X3918175Y1264412D01*
G01X3918175Y1270508D01*
G01X3921477Y1276604D01*
G01X3924525Y1279652D01*
G01X3933669Y1282954D01*
G01X3961609Y1282954D01*
G01X3940019Y1282954D02*
G01X3918175Y1316990D01*
G01X3881853Y1251966D02*
G01X3847817Y1251966D01*
G01X3866359Y1276604D01*
G01X3857215Y1276604D01*
G01X3850865Y1279652D01*
G01X3847817Y1282954D01*
G01X3844769Y1292098D01*
G01X3844769Y1298448D01*
G01X3847817Y1307592D01*
G01X3853913Y1313942D01*
G01X3863311Y1316990D01*
G01X3872709Y1316990D01*
G01X3881853Y1313942D01*
G01X3884901Y1310640D01*
G01X3887949Y1304544D01*
G01X3774411Y1273556D02*
G01X3777459Y1282954D01*
G01X3783809Y1289050D01*
G01X3792953Y1292098D01*
G01X3796001Y1292098D01*
G01X3805399Y1289050D01*
G01X3811495Y1282954D01*
G01X3814543Y1273556D01*
G01X3814543Y1270508D01*
G01X3811495Y1261110D01*
G01X3805399Y1255014D01*
G01X3796001Y1251966D01*
G01X3792953Y1251966D01*
G01X3783809Y1255014D01*
G01X3777459Y1261110D01*
G01X3774411Y1273556D01*
G01X3774411Y1289050D01*
G01X3777459Y1304544D01*
G01X3783809Y1313942D01*
G01X3792953Y1316990D01*
G01X3799303Y1316990D01*
G01X3808447Y1313942D01*
G01X3811495Y1307592D01*
G01X3582191Y-1251966D02*
G01X3582191Y-1316990D01*
G01X3582191Y-1251966D02*
G01X3610131Y-1251966D01*
G01X3619275Y-1255014D01*
G01X3622323Y-1258062D01*
G01X3625625Y-1264412D01*
G01X3625625Y-1270508D01*
G01X3622323Y-1276604D01*
G01X3619275Y-1279652D01*
G01X3610131Y-1282954D01*
G01X3582191Y-1282954D01*
G01X3603781Y-1282954D02*
G01X3625625Y-1316990D01*
G01X3692935Y-1251966D02*
G01X3661947Y-1251966D01*
G01X3658899Y-1279652D01*
G01X3661947Y-1276604D01*
G01X3671091Y-1273556D01*
G01X3680489Y-1273556D01*
G01X3689887Y-1276604D01*
G01X3695983Y-1282954D01*
G01X3699031Y-1292098D01*
G01X3699031Y-1298448D01*
G01X3695983Y-1307592D01*
G01X3689887Y-1313942D01*
G01X3680489Y-1316990D01*
G01X3671091Y-1316990D01*
G01X3661947Y-1313942D01*
G01X3658899Y-1310640D01*
G01X3655851Y-1304544D01*
G01X3729257Y-1264412D02*
G01X3735353Y-1261110D01*
G01X3744497Y-1251966D01*
G01X3744497Y-1316990D01*
G01X2783932Y-1229614D02*
G01X2783932Y-1294638D01*
G01X2783932Y-1229614D02*
G01X2811872Y-1229614D01*
G01X2821016Y-1232662D01*
G01X2824064Y-1235710D01*
G01X2827366Y-1242060D01*
G01X2827366Y-1248156D01*
G01X2824064Y-1254252D01*
G01X2821016Y-1257300D01*
G01X2811872Y-1260602D01*
G01X2783932Y-1260602D01*
G01X2805522Y-1260602D02*
G01X2827366Y-1294638D01*
G01X2894676Y-1229614D02*
G01X2863688Y-1229614D01*
G01X2860640Y-1257300D01*
G01X2863688Y-1254252D01*
G01X2872832Y-1251204D01*
G01X2882230Y-1251204D01*
G01X2891628Y-1254252D01*
G01X2897724Y-1260602D01*
G01X2900772Y-1269746D01*
G01X2900772Y-1276096D01*
G01X2897724Y-1285240D01*
G01X2891628Y-1291590D01*
G01X2882230Y-1294638D01*
G01X2872832Y-1294638D01*
G01X2863688Y-1291590D01*
G01X2860640Y-1288288D01*
G01X2857592Y-1282192D01*
G01X2934046Y-1245108D02*
G01X2934046Y-1242060D01*
G01X2937094Y-1235710D01*
G01X2940142Y-1232662D01*
G01X2946238Y-1229614D01*
G01X2958684Y-1229614D01*
G01X2965034Y-1232662D01*
G01X2968082Y-1235710D01*
G01X2971130Y-1242060D01*
G01X2971130Y-1248156D01*
G01X2968082Y-1254252D01*
G01X2961732Y-1263650D01*
G01X2930998Y-1294638D01*
G01X2974178Y-1294638D01*
G01X4356891Y-1251966D02*
G01X4356891Y-1316990D01*
G01X4356891Y-1251966D02*
G01X4384831Y-1251966D01*
G01X4393975Y-1255014D01*
G01X4397023Y-1258062D01*
G01X4400325Y-1264412D01*
G01X4400325Y-1270508D01*
G01X4397023Y-1276604D01*
G01X4393975Y-1279652D01*
G01X4384831Y-1282954D01*
G01X4356891Y-1282954D01*
G01X4378481Y-1282954D02*
G01X4400325Y-1316990D01*
G01X4467635Y-1251966D02*
G01X4436647Y-1251966D01*
G01X4433599Y-1279652D01*
G01X4436647Y-1276604D01*
G01X4445791Y-1273556D01*
G01X4455189Y-1273556D01*
G01X4464587Y-1276604D01*
G01X4470683Y-1282954D01*
G01X4473731Y-1292098D01*
G01X4473731Y-1298448D01*
G01X4470683Y-1307592D01*
G01X4464587Y-1313942D01*
G01X4455189Y-1316990D01*
G01X4445791Y-1316990D01*
G01X4436647Y-1313942D01*
G01X4433599Y-1310640D01*
G01X4430551Y-1304544D01*
G01X4510053Y-1251966D02*
G01X4544089Y-1251966D01*
G01X4525547Y-1276604D01*
G01X4534691Y-1276604D01*
G01X4541041Y-1279652D01*
G01X4544089Y-1282954D01*
G01X4547137Y-1292098D01*
G01X4547137Y-1298448D01*
G01X4544089Y-1307592D01*
G01X4537993Y-1313942D01*
G01X4528595Y-1316990D01*
G01X4519197Y-1316990D01*
G01X4510053Y-1313942D01*
G01X4507005Y-1310640D01*
G01X4503957Y-1304544D01*
G01X-3124292Y-500126D02*
G01X-3124292Y-435102D01*
G01X-3124292Y-500126D02*
G01X-3152232Y-500126D01*
G01X-3161376Y-497078D01*
G01X-3164424Y-494030D01*
G01X-3167726Y-487680D01*
G01X-3167726Y-481584D01*
G01X-3164424Y-475488D01*
G01X-3161376Y-472440D01*
G01X-3152232Y-469138D01*
G01X-3124292Y-469138D01*
G01X-3145882Y-469138D02*
G01X-3167726Y-435102D01*
G01X-3235036Y-500126D02*
G01X-3204048Y-500126D01*
G01X-3201000Y-472440D01*
G01X-3204048Y-475488D01*
G01X-3213192Y-478536D01*
G01X-3222590Y-478536D01*
G01X-3231988Y-475488D01*
G01X-3238084Y-469138D01*
G01X-3241132Y-459994D01*
G01X-3241132Y-453644D01*
G01X-3238084Y-444500D01*
G01X-3231988Y-438150D01*
G01X-3222590Y-435102D01*
G01X-3213192Y-435102D01*
G01X-3204048Y-438150D01*
G01X-3201000Y-441452D01*
G01X-3197952Y-447548D01*
G01X-3314538Y-500126D02*
G01X-3283550Y-435102D01*
G01X-3271358Y-500126D02*
G01X-3314538Y-500126D01*
G01X-3187001Y-1251458D02*
G01X-3187001Y-1316482D01*
G01X-3187001Y-1251458D02*
G01X-3159061Y-1251458D01*
G01X-3149917Y-1254506D01*
G01X-3146869Y-1257554D01*
G01X-3143567Y-1263904D01*
G01X-3143567Y-1270000D01*
G01X-3146869Y-1276096D01*
G01X-3149917Y-1279144D01*
G01X-3159061Y-1282446D01*
G01X-3187001Y-1282446D01*
G01X-3165411Y-1282446D02*
G01X-3143567Y-1316482D01*
G01X-3076257Y-1260602D02*
G01X-3079305Y-1254506D01*
G01X-3088703Y-1251458D01*
G01X-3094799Y-1251458D01*
G01X-3104197Y-1254506D01*
G01X-3110293Y-1263904D01*
G01X-3113341Y-1279144D01*
G01X-3113341Y-1294638D01*
G01X-3110293Y-1307084D01*
G01X-3104197Y-1313434D01*
G01X-3094799Y-1316482D01*
G01X-3091751Y-1316482D01*
G01X-3082607Y-1313434D01*
G01X-3076257Y-1307084D01*
G01X-3073209Y-1297940D01*
G01X-3073209Y-1294638D01*
G01X-3076257Y-1285494D01*
G01X-3082607Y-1279144D01*
G01X-3091751Y-1276096D01*
G01X-3094799Y-1276096D01*
G01X-3104197Y-1279144D01*
G01X-3110293Y-1285494D01*
G01X-3113341Y-1294638D01*
G01X-3027743Y-1251458D02*
G01X-3036887Y-1254506D01*
G01X-3039935Y-1260602D01*
G01X-3039935Y-1266952D01*
G01X-3036887Y-1273048D01*
G01X-3030791Y-1276096D01*
G01X-3018345Y-1279144D01*
G01X-3008947Y-1282446D01*
G01X-3002851Y-1288542D01*
G01X-2999803Y-1294638D01*
G01X-2999803Y-1304036D01*
G01X-3002851Y-1310132D01*
G01X-3005899Y-1313434D01*
G01X-3015297Y-1316482D01*
G01X-3027743Y-1316482D01*
G01X-3036887Y-1313434D01*
G01X-3039935Y-1310132D01*
G01X-3042983Y-1304036D01*
G01X-3042983Y-1294638D01*
G01X-3039935Y-1288542D01*
G01X-3033839Y-1282446D01*
G01X-3024441Y-1279144D01*
G01X-3012249Y-1276096D01*
G01X-3005899Y-1273048D01*
G01X-3002851Y-1266952D01*
G01X-3002851Y-1260602D01*
G01X-3005899Y-1254506D01*
G01X-3015297Y-1251458D01*
G01X-3027743Y-1251458D01*
G01X-3961701Y-1251458D02*
G01X-3961701Y-1316482D01*
G01X-3961701Y-1251458D02*
G01X-3933761Y-1251458D01*
G01X-3924617Y-1254506D01*
G01X-3921569Y-1257554D01*
G01X-3918267Y-1263904D01*
G01X-3918267Y-1270000D01*
G01X-3921569Y-1276096D01*
G01X-3924617Y-1279144D01*
G01X-3933761Y-1282446D01*
G01X-3961701Y-1282446D01*
G01X-3940111Y-1282446D02*
G01X-3918267Y-1316482D01*
G01X-3850957Y-1260602D02*
G01X-3854005Y-1254506D01*
G01X-3863403Y-1251458D01*
G01X-3869499Y-1251458D01*
G01X-3878897Y-1254506D01*
G01X-3884993Y-1263904D01*
G01X-3888041Y-1279144D01*
G01X-3888041Y-1294638D01*
G01X-3884993Y-1307084D01*
G01X-3878897Y-1313434D01*
G01X-3869499Y-1316482D01*
G01X-3866451Y-1316482D01*
G01X-3857307Y-1313434D01*
G01X-3850957Y-1307084D01*
G01X-3847909Y-1297940D01*
G01X-3847909Y-1294638D01*
G01X-3850957Y-1285494D01*
G01X-3857307Y-1279144D01*
G01X-3866451Y-1276096D01*
G01X-3869499Y-1276096D01*
G01X-3878897Y-1279144D01*
G01X-3884993Y-1285494D01*
G01X-3888041Y-1294638D01*
G01X-3777551Y-1273048D02*
G01X-3780599Y-1282446D01*
G01X-3786949Y-1288542D01*
G01X-3796093Y-1291590D01*
G01X-3799141Y-1291590D01*
G01X-3808539Y-1288542D01*
G01X-3814635Y-1282446D01*
G01X-3817683Y-1273048D01*
G01X-3817683Y-1270000D01*
G01X-3814635Y-1260602D01*
G01X-3808539Y-1254506D01*
G01X-3799141Y-1251458D01*
G01X-3796093Y-1251458D01*
G01X-3786949Y-1254506D01*
G01X-3780599Y-1260602D01*
G01X-3777551Y-1273048D01*
G01X-3777551Y-1288542D01*
G01X-3780599Y-1304036D01*
G01X-3786949Y-1313434D01*
G01X-3796093Y-1316482D01*
G01X-3802443Y-1316482D01*
G01X-3811587Y-1313434D01*
G01X-3814635Y-1307084D01*
G01X-2412301Y-1251458D02*
G01X-2412301Y-1316482D01*
G01X-2412301Y-1251458D02*
G01X-2384361Y-1251458D01*
G01X-2375217Y-1254506D01*
G01X-2372169Y-1257554D01*
G01X-2368867Y-1263904D01*
G01X-2368867Y-1270000D01*
G01X-2372169Y-1276096D01*
G01X-2375217Y-1279144D01*
G01X-2384361Y-1282446D01*
G01X-2412301Y-1282446D01*
G01X-2390711Y-1282446D02*
G01X-2368867Y-1316482D01*
G01X-2295461Y-1251458D02*
G01X-2326449Y-1316482D01*
G01X-2338641Y-1251458D02*
G01X-2295461Y-1251458D01*
G01X-2246693Y-1251458D02*
G01X-2256091Y-1254506D01*
G01X-2262187Y-1263904D01*
G01X-2265235Y-1279144D01*
G01X-2265235Y-1288542D01*
G01X-2262187Y-1304036D01*
G01X-2256091Y-1313434D01*
G01X-2246693Y-1316482D01*
G01X-2240597Y-1316482D01*
G01X-2231199Y-1313434D01*
G01X-2225103Y-1304036D01*
G01X-2222055Y-1288542D01*
G01X-2222055Y-1279144D01*
G01X-2225103Y-1263904D01*
G01X-2231199Y-1254506D01*
G01X-2240597Y-1251458D01*
G01X-2246693Y-1251458D01*
G01X-2578891Y1213866D02*
G01X-2578891Y1260348D01*
G01X-2581939Y1269492D01*
G01X-2588289Y1275842D01*
G01X-2597433Y1278890D01*
G01X-2603783Y1278890D01*
G01X-2612927Y1275842D01*
G01X-2619023Y1269492D01*
G01X-2622325Y1260348D01*
G01X-2622325Y1213866D01*
G01X-2652551Y1226312D02*
G01X-2658647Y1223010D01*
G01X-2667791Y1213866D01*
G01X-2667791Y1278890D01*
G01X-197886Y247175D02*
G01X-197886Y200693D01*
G01X-194838Y191549D01*
G01X-188488Y185199D01*
G01X-179344Y182151D01*
G01X-172994Y182151D01*
G01X-163850Y185199D01*
G01X-157754Y191549D01*
G01X-154452Y200693D01*
G01X-154452Y247175D01*
G01X-121178Y231681D02*
G01X-121178Y234729D01*
G01X-118130Y241079D01*
G01X-115082Y244127D01*
G01X-108986Y247175D01*
G01X-96540Y247175D01*
G01X-90190Y244127D01*
G01X-87142Y241079D01*
G01X-84094Y234729D01*
G01X-84094Y228633D01*
G01X-87142Y222537D01*
G01X-93492Y213139D01*
G01X-124226Y182151D01*
G01X-81046Y182151D01*
G01X1596269Y171583D02*
G01X1596269Y125101D01*
G01X1599317Y115957D01*
G01X1605667Y109607D01*
G01X1614811Y106559D01*
G01X1621161Y106559D01*
G01X1630305Y109607D01*
G01X1636401Y115957D01*
G01X1639703Y125101D01*
G01X1639703Y171583D01*
G01X1676025Y171583D02*
G01X1710061Y171583D01*
G01X1691519Y146945D01*
G01X1700663Y146945D01*
G01X1707013Y143897D01*
G01X1710061Y140595D01*
G01X1713109Y131451D01*
G01X1713109Y125101D01*
G01X1710061Y115957D01*
G01X1703965Y109607D01*
G01X1694567Y106559D01*
G01X1685169Y106559D01*
G01X1676025Y109607D01*
G01X1672977Y112909D01*
G01X1669929Y119005D01*
G01X-299933Y-986112D02*
G01X-253451Y-986112D01*
G01X-244307Y-983064D01*
G01X-237957Y-976714D01*
G01X-234909Y-967570D01*
G01X-234909Y-961220D01*
G01X-237957Y-952076D01*
G01X-244307Y-945980D01*
G01X-253451Y-942678D01*
G01X-299933Y-942678D01*
G01X-299933Y-881718D02*
G01X-256753Y-912452D01*
G01X-256753Y-866224D01*
G01X-299933Y-881718D02*
G01X-234909Y-881718D01*
G01X-4128291Y1213866D02*
G01X-4128291Y1260348D01*
G01X-4131339Y1269492D01*
G01X-4137689Y1275842D01*
G01X-4146833Y1278890D01*
G01X-4153183Y1278890D01*
G01X-4162327Y1275842D01*
G01X-4168423Y1269492D01*
G01X-4171725Y1260348D01*
G01X-4171725Y1213866D01*
G01X-4245131Y1213866D02*
G01X-4214143Y1278890D01*
G01X-4201951Y1213866D02*
G01X-4245131Y1213866D01*
G01X-3353591Y1213866D02*
G01X-3353591Y1260348D01*
G01X-3356639Y1269492D01*
G01X-3362989Y1275842D01*
G01X-3372133Y1278890D01*
G01X-3378483Y1278890D01*
G01X-3387627Y1275842D01*
G01X-3393723Y1269492D01*
G01X-3397025Y1260348D01*
G01X-3397025Y1213866D01*
G01X-3427251Y1226312D02*
G01X-3433347Y1223010D01*
G01X-3442491Y1213866D01*
G01X-3442491Y1278890D01*
G01X-3491259Y1213866D02*
G01X-3481861Y1216914D01*
G01X-3475765Y1226312D01*
G01X-3472717Y1241552D01*
G01X-3472717Y1250950D01*
G01X-3475765Y1266444D01*
G01X-3481861Y1275842D01*
G01X-3491259Y1278890D01*
G01X-3497355Y1278890D01*
G01X-3506753Y1275842D01*
G01X-3512849Y1266444D01*
G01X-3515897Y1250950D01*
G01X-3515897Y1241552D01*
G01X-3512849Y1226312D01*
G01X-3506753Y1216914D01*
G01X-3497355Y1213866D01*
G01X-3491259Y1213866D01*
G01X2578891Y-1213866D02*
G01X2578891Y-1260348D01*
G01X2581939Y-1269492D01*
G01X2588289Y-1275842D01*
G01X2597433Y-1278890D01*
G01X2603783Y-1278890D01*
G01X2612927Y-1275842D01*
G01X2619023Y-1269492D01*
G01X2622325Y-1260348D01*
G01X2622325Y-1213866D01*
G01X2652551Y-1226312D02*
G01X2658647Y-1223010D01*
G01X2667791Y-1213866D01*
G01X2667791Y-1278890D01*
G01X2704113Y-1213866D02*
G01X2738149Y-1213866D01*
G01X2719607Y-1238504D01*
G01X2728751Y-1238504D01*
G01X2735101Y-1241552D01*
G01X2738149Y-1244854D01*
G01X2741197Y-1253998D01*
G01X2741197Y-1260348D01*
G01X2738149Y-1269492D01*
G01X2732053Y-1275842D01*
G01X2722655Y-1278890D01*
G01X2713257Y-1278890D01*
G01X2704113Y-1275842D01*
G01X2701065Y-1272540D01*
G01X2698017Y-1266444D01*
G01X4128291Y-1213866D02*
G01X4128291Y-1260348D01*
G01X4131339Y-1269492D01*
G01X4137689Y-1275842D01*
G01X4146833Y-1278890D01*
G01X4153183Y-1278890D01*
G01X4162327Y-1275842D01*
G01X4168423Y-1269492D01*
G01X4171725Y-1260348D01*
G01X4171725Y-1213866D01*
G01X4201951Y-1226312D02*
G01X4208047Y-1223010D01*
G01X4217191Y-1213866D01*
G01X4217191Y-1278890D01*
G01X4278151Y-1213866D02*
G01X4247417Y-1257046D01*
G01X4293645Y-1257046D01*
G01X4278151Y-1213866D02*
G01X4278151Y-1278890D01*
G01X3353591Y-1213866D02*
G01X3353591Y-1260348D01*
G01X3356639Y-1269492D01*
G01X3362989Y-1275842D01*
G01X3372133Y-1278890D01*
G01X3378483Y-1278890D01*
G01X3387627Y-1275842D01*
G01X3393723Y-1269492D01*
G01X3397025Y-1260348D01*
G01X3397025Y-1213866D01*
G01X3427251Y-1226312D02*
G01X3433347Y-1223010D01*
G01X3442491Y-1213866D01*
G01X3442491Y-1278890D01*
G01X3509801Y-1223010D02*
G01X3506753Y-1216914D01*
G01X3497355Y-1213866D01*
G01X3491259Y-1213866D01*
G01X3481861Y-1216914D01*
G01X3475765Y-1226312D01*
G01X3472717Y-1241552D01*
G01X3472717Y-1257046D01*
G01X3475765Y-1269492D01*
G01X3481861Y-1275842D01*
G01X3491259Y-1278890D01*
G01X3494307Y-1278890D01*
G01X3503451Y-1275842D01*
G01X3509801Y-1269492D01*
G01X3512849Y-1260348D01*
G01X3512849Y-1257046D01*
G01X3509801Y-1247902D01*
G01X3503451Y-1241552D01*
G01X3494307Y-1238504D01*
G01X3491259Y-1238504D01*
G01X3481861Y-1241552D01*
G01X3475765Y-1247902D01*
G01X3472717Y-1257046D01*
G01X-4190301Y-1213358D02*
G01X-4190301Y-1259840D01*
G01X-4187253Y-1268984D01*
G01X-4180903Y-1275334D01*
G01X-4171759Y-1278382D01*
G01X-4165409Y-1278382D01*
G01X-4156265Y-1275334D01*
G01X-4150169Y-1268984D01*
G01X-4146867Y-1259840D01*
G01X-4146867Y-1213358D01*
G01X-4116641Y-1225804D02*
G01X-4110545Y-1222502D01*
G01X-4101401Y-1213358D01*
G01X-4101401Y-1278382D01*
G01X-4027995Y-1213358D02*
G01X-4058983Y-1278382D01*
G01X-4071175Y-1213358D02*
G01X-4027995Y-1213358D01*
G01X-2640901Y-1213358D02*
G01X-2640901Y-1259840D01*
G01X-2637853Y-1268984D01*
G01X-2631503Y-1275334D01*
G01X-2622359Y-1278382D01*
G01X-2616009Y-1278382D01*
G01X-2606865Y-1275334D01*
G01X-2600769Y-1268984D01*
G01X-2597467Y-1259840D01*
G01X-2597467Y-1213358D01*
G01X-2567241Y-1225804D02*
G01X-2561145Y-1222502D01*
G01X-2552001Y-1213358D01*
G01X-2552001Y-1278382D01*
G01X-2481643Y-1234948D02*
G01X-2484691Y-1244346D01*
G01X-2491041Y-1250442D01*
G01X-2500185Y-1253490D01*
G01X-2503233Y-1253490D01*
G01X-2512631Y-1250442D01*
G01X-2518727Y-1244346D01*
G01X-2521775Y-1234948D01*
G01X-2521775Y-1231900D01*
G01X-2518727Y-1222502D01*
G01X-2512631Y-1216406D01*
G01X-2503233Y-1213358D01*
G01X-2500185Y-1213358D01*
G01X-2491041Y-1216406D01*
G01X-2484691Y-1222502D01*
G01X-2481643Y-1234948D01*
G01X-2481643Y-1250442D01*
G01X-2484691Y-1265936D01*
G01X-2491041Y-1275334D01*
G01X-2500185Y-1278382D01*
G01X-2506535Y-1278382D01*
G01X-2515679Y-1275334D01*
G01X-2518727Y-1268984D01*
G01X2640809Y1213866D02*
G01X2640809Y1260348D01*
G01X2637761Y1269492D01*
G01X2631411Y1275842D01*
G01X2622267Y1278890D01*
G01X2615917Y1278890D01*
G01X2606773Y1275842D01*
G01X2600677Y1269492D01*
G01X2597375Y1260348D01*
G01X2597375Y1213866D01*
G01X2564101Y1229360D02*
G01X2564101Y1226312D01*
G01X2561053Y1219962D01*
G01X2558005Y1216914D01*
G01X2551909Y1213866D01*
G01X2539463Y1213866D01*
G01X2533113Y1216914D01*
G01X2530065Y1219962D01*
G01X2527017Y1226312D01*
G01X2527017Y1232408D01*
G01X2530065Y1238504D01*
G01X2536415Y1247902D01*
G01X2567149Y1278890D01*
G01X2523969Y1278890D01*
G01X2475201Y1213866D02*
G01X2484599Y1216914D01*
G01X2490695Y1226312D01*
G01X2493743Y1241552D01*
G01X2493743Y1250950D01*
G01X2490695Y1266444D01*
G01X2484599Y1275842D01*
G01X2475201Y1278890D01*
G01X2469105Y1278890D01*
G01X2459707Y1275842D01*
G01X2453611Y1266444D01*
G01X2450563Y1250950D01*
G01X2450563Y1241552D01*
G01X2453611Y1226312D01*
G01X2459707Y1216914D01*
G01X2469105Y1213866D01*
G01X2475201Y1213866D01*
G01X3415509Y1213866D02*
G01X3415509Y1260348D01*
G01X3412461Y1269492D01*
G01X3406111Y1275842D01*
G01X3396967Y1278890D01*
G01X3390617Y1278890D01*
G01X3381473Y1275842D01*
G01X3375377Y1269492D01*
G01X3372075Y1260348D01*
G01X3372075Y1213866D01*
G01X3338801Y1229360D02*
G01X3338801Y1226312D01*
G01X3335753Y1219962D01*
G01X3332705Y1216914D01*
G01X3326609Y1213866D01*
G01X3314163Y1213866D01*
G01X3307813Y1216914D01*
G01X3304765Y1219962D01*
G01X3301717Y1226312D01*
G01X3301717Y1232408D01*
G01X3304765Y1238504D01*
G01X3311115Y1247902D01*
G01X3341849Y1278890D01*
G01X3298669Y1278890D01*
G01X3268443Y1226312D02*
G01X3262347Y1223010D01*
G01X3253203Y1213866D01*
G01X3253203Y1278890D01*
G01X4190209Y1213866D02*
G01X4190209Y1260348D01*
G01X4187161Y1269492D01*
G01X4180811Y1275842D01*
G01X4171667Y1278890D01*
G01X4165317Y1278890D01*
G01X4156173Y1275842D01*
G01X4150077Y1269492D01*
G01X4146775Y1260348D01*
G01X4146775Y1213866D01*
G01X4113501Y1229360D02*
G01X4113501Y1226312D01*
G01X4110453Y1219962D01*
G01X4107405Y1216914D01*
G01X4101309Y1213866D01*
G01X4088863Y1213866D01*
G01X4082513Y1216914D01*
G01X4079465Y1219962D01*
G01X4076417Y1226312D01*
G01X4076417Y1232408D01*
G01X4079465Y1238504D01*
G01X4085815Y1247902D01*
G01X4116549Y1278890D01*
G01X4073369Y1278890D01*
G01X4040095Y1229360D02*
G01X4040095Y1226312D01*
G01X4037047Y1219962D01*
G01X4033999Y1216914D01*
G01X4027903Y1213866D01*
G01X4015457Y1213866D01*
G01X4009107Y1216914D01*
G01X4006059Y1219962D01*
G01X4003011Y1226312D01*
G01X4003011Y1232408D01*
G01X4006059Y1238504D01*
G01X4012409Y1247902D01*
G01X4043143Y1278890D01*
G01X3999963Y1278890D01*
G01X-3415601Y-1213358D02*
G01X-3415601Y-1259840D01*
G01X-3412553Y-1268984D01*
G01X-3406203Y-1275334D01*
G01X-3397059Y-1278382D01*
G01X-3390709Y-1278382D01*
G01X-3381565Y-1275334D01*
G01X-3375469Y-1268984D01*
G01X-3372167Y-1259840D01*
G01X-3372167Y-1213358D01*
G01X-3338893Y-1228852D02*
G01X-3338893Y-1225804D01*
G01X-3335845Y-1219454D01*
G01X-3332797Y-1216406D01*
G01X-3326701Y-1213358D01*
G01X-3314255Y-1213358D01*
G01X-3307905Y-1216406D01*
G01X-3304857Y-1219454D01*
G01X-3301809Y-1225804D01*
G01X-3301809Y-1231900D01*
G01X-3304857Y-1237996D01*
G01X-3311207Y-1247394D01*
G01X-3341941Y-1278382D01*
G01X-3298761Y-1278382D01*
G01X-3237801Y-1213358D02*
G01X-3268535Y-1256538D01*
G01X-3222307Y-1256538D01*
G01X-3237801Y-1213358D02*
G01X-3237801Y-1278382D01*
G01X809494Y-70323D02*
G01X812542Y-76673D01*
G01X818892Y-82769D01*
G01X824988Y-85817D01*
G01X837434Y-85817D01*
G01X843530Y-82769D01*
G01X849880Y-76673D01*
G01X852928Y-70323D01*
G01X855976Y-61179D01*
G01X855976Y-45685D01*
G01X852928Y-36287D01*
G01X849880Y-30191D01*
G01X843530Y-23841D01*
G01X837434Y-20793D01*
G01X824988Y-20793D01*
G01X818892Y-23841D01*
G01X812542Y-30191D01*
G01X809494Y-36287D01*
G01X736088Y-85817D02*
G01X767076Y-20793D01*
G01X779268Y-85817D02*
G01X736088Y-85817D01*
G01X662682Y-85817D02*
G01X693670Y-20793D01*
G01X705862Y-85817D02*
G01X662682Y-85817D01*
G01X1108202Y-2054860D02*
G01X1105154Y-2048510D01*
G01X1098804Y-2042414D01*
G01X1092708Y-2039366D01*
G01X1080262Y-2039366D01*
G01X1074166Y-2042414D01*
G01X1067816Y-2048510D01*
G01X1064768Y-2054860D01*
G01X1061720Y-2064004D01*
G01X1061720Y-2079498D01*
G01X1064768Y-2088896D01*
G01X1067816Y-2094992D01*
G01X1074166Y-2101342D01*
G01X1080262Y-2104390D01*
G01X1092708Y-2104390D01*
G01X1098804Y-2101342D01*
G01X1105154Y-2094992D01*
G01X1108202Y-2088896D01*
G01X1153668Y-2039366D02*
G01X1144524Y-2042414D01*
G01X1141476Y-2048510D01*
G01X1141476Y-2054860D01*
G01X1144524Y-2060956D01*
G01X1150620Y-2064004D01*
G01X1163066Y-2067052D01*
G01X1172464Y-2070354D01*
G01X1178560Y-2076450D01*
G01X1181608Y-2082546D01*
G01X1181608Y-2091944D01*
G01X1178560Y-2098040D01*
G01X1175512Y-2101342D01*
G01X1166114Y-2104390D01*
G01X1153668Y-2104390D01*
G01X1144524Y-2101342D01*
G01X1141476Y-2098040D01*
G01X1138428Y-2091944D01*
G01X1138428Y-2082546D01*
G01X1141476Y-2076450D01*
G01X1147572Y-2070354D01*
G01X1156970Y-2067052D01*
G01X1169162Y-2064004D01*
G01X1175512Y-2060956D01*
G01X1178560Y-2054860D01*
G01X1178560Y-2048510D01*
G01X1175512Y-2042414D01*
G01X1166114Y-2039366D01*
G01X1153668Y-2039366D01*
G01X1230376Y-2039366D02*
G01X1220978Y-2042414D01*
G01X1214882Y-2051812D01*
G01X1211834Y-2067052D01*
G01X1211834Y-2076450D01*
G01X1214882Y-2091944D01*
G01X1220978Y-2101342D01*
G01X1230376Y-2104390D01*
G01X1236472Y-2104390D01*
G01X1245870Y-2101342D01*
G01X1251966Y-2091944D01*
G01X1255014Y-2076450D01*
G01X1255014Y-2067052D01*
G01X1251966Y-2051812D01*
G01X1245870Y-2042414D01*
G01X1236472Y-2039366D01*
G01X1230376Y-2039366D01*
G01X154940Y-1616202D02*
G01X161290Y-1613154D01*
G01X167386Y-1606804D01*
G01X170434Y-1600708D01*
G01X170434Y-1588262D01*
G01X167386Y-1582166D01*
G01X161290Y-1575816D01*
G01X154940Y-1572768D01*
G01X145796Y-1569720D01*
G01X130302Y-1569720D01*
G01X120904Y-1572768D01*
G01X114808Y-1575816D01*
G01X108458Y-1582166D01*
G01X105410Y-1588262D01*
G01X105410Y-1600708D01*
G01X108458Y-1606804D01*
G01X114808Y-1613154D01*
G01X120904Y-1616202D01*
G01X170434Y-1661668D02*
G01X167386Y-1652524D01*
G01X161290Y-1649476D01*
G01X154940Y-1649476D01*
G01X148844Y-1652524D01*
G01X145796Y-1658620D01*
G01X142748Y-1671066D01*
G01X139446Y-1680464D01*
G01X133350Y-1686560D01*
G01X127254Y-1689608D01*
G01X117856Y-1689608D01*
G01X111760Y-1686560D01*
G01X108458Y-1683512D01*
G01X105410Y-1674114D01*
G01X105410Y-1661668D01*
G01X108458Y-1652524D01*
G01X111760Y-1649476D01*
G01X117856Y-1646428D01*
G01X127254Y-1646428D01*
G01X133350Y-1649476D01*
G01X139446Y-1655572D01*
G01X142748Y-1664970D01*
G01X145796Y-1677162D01*
G01X148844Y-1683512D01*
G01X154940Y-1686560D01*
G01X161290Y-1686560D01*
G01X167386Y-1683512D01*
G01X170434Y-1674114D01*
G01X170434Y-1661668D01*
G01X157988Y-1719834D02*
G01X161290Y-1725930D01*
G01X170434Y-1735074D01*
G01X105410Y-1735074D01*
G01X2662682Y510540D02*
G01X2659634Y516890D01*
G01X2653284Y522986D01*
G01X2647188Y526034D01*
G01X2634742Y526034D01*
G01X2628646Y522986D01*
G01X2622296Y516890D01*
G01X2619248Y510540D01*
G01X2616200Y501396D01*
G01X2616200Y485902D01*
G01X2619248Y476504D01*
G01X2622296Y470408D01*
G01X2628646Y464058D01*
G01X2634742Y461010D01*
G01X2647188Y461010D01*
G01X2653284Y464058D01*
G01X2659634Y470408D01*
G01X2662682Y476504D01*
G01X2708148Y526034D02*
G01X2699004Y522986D01*
G01X2695956Y516890D01*
G01X2695956Y510540D01*
G01X2699004Y504444D01*
G01X2705100Y501396D01*
G01X2717546Y498348D01*
G01X2726944Y495046D01*
G01X2733040Y488950D01*
G01X2736088Y482854D01*
G01X2736088Y473456D01*
G01X2733040Y467360D01*
G01X2729992Y464058D01*
G01X2720594Y461010D01*
G01X2708148Y461010D01*
G01X2699004Y464058D01*
G01X2695956Y467360D01*
G01X2692908Y473456D01*
G01X2692908Y482854D01*
G01X2695956Y488950D01*
G01X2702052Y495046D01*
G01X2711450Y498348D01*
G01X2723642Y501396D01*
G01X2729992Y504444D01*
G01X2733040Y510540D01*
G01X2733040Y516890D01*
G01X2729992Y522986D01*
G01X2720594Y526034D01*
G01X2708148Y526034D01*
G01X2806446Y504444D02*
G01X2803398Y495046D01*
G01X2797048Y488950D01*
G01X2787904Y485902D01*
G01X2784856Y485902D01*
G01X2775458Y488950D01*
G01X2769362Y495046D01*
G01X2766314Y504444D01*
G01X2766314Y507492D01*
G01X2769362Y516890D01*
G01X2775458Y522986D01*
G01X2784856Y526034D01*
G01X2787904Y526034D01*
G01X2797048Y522986D01*
G01X2803398Y516890D01*
G01X2806446Y504444D01*
G01X2806446Y488950D01*
G01X2803398Y473456D01*
G01X2797048Y464058D01*
G01X2787904Y461010D01*
G01X2781554Y461010D01*
G01X2772410Y464058D01*
G01X2769362Y470408D01*
G01X1844802Y-2004060D02*
G01X1841754Y-1997710D01*
G01X1835404Y-1991614D01*
G01X1829308Y-1988566D01*
G01X1816862Y-1988566D01*
G01X1810766Y-1991614D01*
G01X1804416Y-1997710D01*
G01X1801368Y-2004060D01*
G01X1798320Y-2013204D01*
G01X1798320Y-2028698D01*
G01X1801368Y-2038096D01*
G01X1804416Y-2044192D01*
G01X1810766Y-2050542D01*
G01X1816862Y-2053590D01*
G01X1829308Y-2053590D01*
G01X1835404Y-2050542D01*
G01X1841754Y-2044192D01*
G01X1844802Y-2038096D01*
G01X1915160Y-2010156D02*
G01X1912112Y-2019554D01*
G01X1905762Y-2025650D01*
G01X1896618Y-2028698D01*
G01X1893570Y-2028698D01*
G01X1884172Y-2025650D01*
G01X1878076Y-2019554D01*
G01X1875028Y-2010156D01*
G01X1875028Y-2007108D01*
G01X1878076Y-1997710D01*
G01X1884172Y-1991614D01*
G01X1893570Y-1988566D01*
G01X1896618Y-1988566D01*
G01X1905762Y-1991614D01*
G01X1912112Y-1997710D01*
G01X1915160Y-2010156D01*
G01X1915160Y-2025650D01*
G01X1912112Y-2041144D01*
G01X1905762Y-2050542D01*
G01X1896618Y-2053590D01*
G01X1890268Y-2053590D01*
G01X1881124Y-2050542D01*
G01X1878076Y-2044192D01*
G01X1948434Y-2004060D02*
G01X1948434Y-2001012D01*
G01X1951482Y-1994662D01*
G01X1954530Y-1991614D01*
G01X1960626Y-1988566D01*
G01X1973072Y-1988566D01*
G01X1979422Y-1991614D01*
G01X1982470Y-1994662D01*
G01X1985518Y-2001012D01*
G01X1985518Y-2007108D01*
G01X1982470Y-2013204D01*
G01X1976120Y-2022602D01*
G01X1945386Y-2053590D01*
G01X1988566Y-2053590D01*
G01X1832102Y-2118360D02*
G01X1829054Y-2112010D01*
G01X1822704Y-2105914D01*
G01X1816608Y-2102866D01*
G01X1804162Y-2102866D01*
G01X1798066Y-2105914D01*
G01X1791716Y-2112010D01*
G01X1788668Y-2118360D01*
G01X1785620Y-2127504D01*
G01X1785620Y-2142998D01*
G01X1788668Y-2152396D01*
G01X1791716Y-2158492D01*
G01X1798066Y-2164842D01*
G01X1804162Y-2167890D01*
G01X1816608Y-2167890D01*
G01X1822704Y-2164842D01*
G01X1829054Y-2158492D01*
G01X1832102Y-2152396D01*
G01X1902460Y-2124456D02*
G01X1899412Y-2133854D01*
G01X1893062Y-2139950D01*
G01X1883918Y-2142998D01*
G01X1880870Y-2142998D01*
G01X1871472Y-2139950D01*
G01X1865376Y-2133854D01*
G01X1862328Y-2124456D01*
G01X1862328Y-2121408D01*
G01X1865376Y-2112010D01*
G01X1871472Y-2105914D01*
G01X1880870Y-2102866D01*
G01X1883918Y-2102866D01*
G01X1893062Y-2105914D01*
G01X1899412Y-2112010D01*
G01X1902460Y-2124456D01*
G01X1902460Y-2139950D01*
G01X1899412Y-2155444D01*
G01X1893062Y-2164842D01*
G01X1883918Y-2167890D01*
G01X1877568Y-2167890D01*
G01X1868424Y-2164842D01*
G01X1865376Y-2158492D01*
G01X1938782Y-2102866D02*
G01X1972818Y-2102866D01*
G01X1954276Y-2127504D01*
G01X1963420Y-2127504D01*
G01X1969770Y-2130552D01*
G01X1972818Y-2133854D01*
G01X1975866Y-2142998D01*
G01X1975866Y-2149348D01*
G01X1972818Y-2158492D01*
G01X1966722Y-2164842D01*
G01X1957324Y-2167890D01*
G01X1947926Y-2167890D01*
G01X1938782Y-2164842D01*
G01X1935734Y-2161540D01*
G01X1932686Y-2155444D01*
G01X447802Y-1889760D02*
G01X444754Y-1883410D01*
G01X438404Y-1877314D01*
G01X432308Y-1874266D01*
G01X419862Y-1874266D01*
G01X413766Y-1877314D01*
G01X407416Y-1883410D01*
G01X404368Y-1889760D01*
G01X401320Y-1898904D01*
G01X401320Y-1914398D01*
G01X404368Y-1923796D01*
G01X407416Y-1929892D01*
G01X413766Y-1936242D01*
G01X419862Y-1939290D01*
G01X432308Y-1939290D01*
G01X438404Y-1936242D01*
G01X444754Y-1929892D01*
G01X447802Y-1923796D01*
G01X518160Y-1895856D02*
G01X515112Y-1905254D01*
G01X508762Y-1911350D01*
G01X499618Y-1914398D01*
G01X496570Y-1914398D01*
G01X487172Y-1911350D01*
G01X481076Y-1905254D01*
G01X478028Y-1895856D01*
G01X478028Y-1892808D01*
G01X481076Y-1883410D01*
G01X487172Y-1877314D01*
G01X496570Y-1874266D01*
G01X499618Y-1874266D01*
G01X508762Y-1877314D01*
G01X515112Y-1883410D01*
G01X518160Y-1895856D01*
G01X518160Y-1911350D01*
G01X515112Y-1926844D01*
G01X508762Y-1936242D01*
G01X499618Y-1939290D01*
G01X493268Y-1939290D01*
G01X484124Y-1936242D01*
G01X481076Y-1929892D01*
G01X579120Y-1874266D02*
G01X548386Y-1917446D01*
G01X594614Y-1917446D01*
G01X579120Y-1874266D02*
G01X579120Y-1939290D01*
G01X2921000Y50508D02*
G01X2921000Y-14516D01*
G01X2921000Y50508D02*
G01X2948940Y50508D01*
G01X2958084Y47460D01*
G01X2961132Y44412D01*
G01X2964434Y38062D01*
G01X2964434Y31966D01*
G01X2961132Y25870D01*
G01X2958084Y22822D01*
G01X2948940Y19520D01*
G01X2921000Y19520D01*
G01X2942590Y19520D02*
G01X2964434Y-14516D01*
G01X3037840Y50508D02*
G01X3006852Y-14516D01*
G01X2994660Y50508D02*
G01X3037840Y50508D01*
G01X3105150Y50508D02*
G01X3074162Y50508D01*
G01X3071114Y22822D01*
G01X3074162Y25870D01*
G01X3083306Y28918D01*
G01X3092704Y28918D01*
G01X3102102Y25870D01*
G01X3108198Y19520D01*
G01X3111246Y10376D01*
G01X3111246Y4026D01*
G01X3108198Y-5118D01*
G01X3102102Y-11468D01*
G01X3092704Y-14516D01*
G01X3083306Y-14516D01*
G01X3074162Y-11468D01*
G01X3071114Y-8166D01*
G01X3068066Y-2070D01*
G01X2733040Y663702D02*
G01X2726690Y660654D01*
G01X2720594Y654304D01*
G01X2717546Y648208D01*
G01X2717546Y635762D01*
G01X2720594Y629666D01*
G01X2726690Y623316D01*
G01X2733040Y620268D01*
G01X2742184Y617220D01*
G01X2757678Y617220D01*
G01X2767076Y620268D01*
G01X2773172Y623316D01*
G01X2779522Y629666D01*
G01X2782570Y635762D01*
G01X2782570Y648208D01*
G01X2779522Y654304D01*
G01X2773172Y660654D01*
G01X2767076Y663702D01*
G01X2733040Y696976D02*
G01X2729992Y696976D01*
G01X2723642Y700024D01*
G01X2720594Y703072D01*
G01X2717546Y709168D01*
G01X2717546Y721614D01*
G01X2720594Y727964D01*
G01X2723642Y731012D01*
G01X2729992Y734060D01*
G01X2736088Y734060D01*
G01X2742184Y731012D01*
G01X2751582Y724662D01*
G01X2782570Y693928D01*
G01X2782570Y737108D01*
G01X-4216400Y524002D02*
G01X-4222750Y520954D01*
G01X-4228846Y514604D01*
G01X-4231894Y508508D01*
G01X-4231894Y496062D01*
G01X-4228846Y489966D01*
G01X-4222750Y483616D01*
G01X-4216400Y480568D01*
G01X-4207256Y477520D01*
G01X-4191762Y477520D01*
G01X-4182364Y480568D01*
G01X-4176268Y483616D01*
G01X-4169918Y489966D01*
G01X-4166870Y496062D01*
G01X-4166870Y508508D01*
G01X-4169918Y514604D01*
G01X-4176268Y520954D01*
G01X-4182364Y524002D01*
G01X-4231894Y569468D02*
G01X-4228846Y560324D01*
G01X-4222750Y557276D01*
G01X-4216400Y557276D01*
G01X-4210304Y560324D01*
G01X-4207256Y566420D01*
G01X-4204208Y578866D01*
G01X-4200906Y588264D01*
G01X-4194810Y594360D01*
G01X-4188714Y597408D01*
G01X-4179316Y597408D01*
G01X-4173220Y594360D01*
G01X-4169918Y591312D01*
G01X-4166870Y581914D01*
G01X-4166870Y569468D01*
G01X-4169918Y560324D01*
G01X-4173220Y557276D01*
G01X-4179316Y554228D01*
G01X-4188714Y554228D01*
G01X-4194810Y557276D01*
G01X-4200906Y563372D01*
G01X-4204208Y572770D01*
G01X-4207256Y584962D01*
G01X-4210304Y591312D01*
G01X-4216400Y594360D01*
G01X-4222750Y594360D01*
G01X-4228846Y591312D01*
G01X-4231894Y581914D01*
G01X-4231894Y569468D01*
G01X4036060Y-663702D02*
G01X4042410Y-660654D01*
G01X4048506Y-654304D01*
G01X4051554Y-648208D01*
G01X4051554Y-635762D01*
G01X4048506Y-629666D01*
G01X4042410Y-623316D01*
G01X4036060Y-620268D01*
G01X4026916Y-617220D01*
G01X4011422Y-617220D01*
G01X4002024Y-620268D01*
G01X3995928Y-623316D01*
G01X3989578Y-629666D01*
G01X3986530Y-635762D01*
G01X3986530Y-648208D01*
G01X3989578Y-654304D01*
G01X3995928Y-660654D01*
G01X4002024Y-663702D01*
G01X4029964Y-734060D02*
G01X4020566Y-731012D01*
G01X4014470Y-724662D01*
G01X4011422Y-715518D01*
G01X4011422Y-712470D01*
G01X4014470Y-703072D01*
G01X4020566Y-696976D01*
G01X4029964Y-693928D01*
G01X4033012Y-693928D01*
G01X4042410Y-696976D01*
G01X4048506Y-703072D01*
G01X4051554Y-712470D01*
G01X4051554Y-715518D01*
G01X4048506Y-724662D01*
G01X4042410Y-731012D01*
G01X4029964Y-734060D01*
G01X4014470Y-734060D01*
G01X3998976Y-731012D01*
G01X3989578Y-724662D01*
G01X3986530Y-715518D01*
G01X3986530Y-709168D01*
G01X3989578Y-700024D01*
G01X3995928Y-696976D01*
G01X-2733132Y-663194D02*
G01X-2726782Y-660146D01*
G01X-2720686Y-653796D01*
G01X-2717638Y-647700D01*
G01X-2717638Y-635254D01*
G01X-2720686Y-629158D01*
G01X-2726782Y-622808D01*
G01X-2733132Y-619760D01*
G01X-2742276Y-616712D01*
G01X-2757770Y-616712D01*
G01X-2767168Y-619760D01*
G01X-2773264Y-622808D01*
G01X-2779614Y-629158D01*
G01X-2782662Y-635254D01*
G01X-2782662Y-647700D01*
G01X-2779614Y-653796D01*
G01X-2773264Y-660146D01*
G01X-2767168Y-663194D01*
G01X-2730084Y-693420D02*
G01X-2726782Y-699516D01*
G01X-2717638Y-708660D01*
G01X-2782662Y-708660D01*
G01X-2717638Y-757428D02*
G01X-2720686Y-748030D01*
G01X-2730084Y-741934D01*
G01X-2745324Y-738886D01*
G01X-2754722Y-738886D01*
G01X-2770216Y-741934D01*
G01X-2779614Y-748030D01*
G01X-2782662Y-757428D01*
G01X-2782662Y-763524D01*
G01X-2779614Y-772922D01*
G01X-2770216Y-779018D01*
G01X-2754722Y-782066D01*
G01X-2745324Y-782066D01*
G01X-2730084Y-779018D01*
G01X-2720686Y-772922D01*
G01X-2717638Y-763524D01*
G01X-2717638Y-757428D01*
G01X-4106418Y510540D02*
G01X-4109466Y516890D01*
G01X-4115816Y522986D01*
G01X-4121912Y526034D01*
G01X-4134358Y526034D01*
G01X-4140454Y522986D01*
G01X-4146804Y516890D01*
G01X-4149852Y510540D01*
G01X-4152900Y501396D01*
G01X-4152900Y485902D01*
G01X-4149852Y476504D01*
G01X-4146804Y470408D01*
G01X-4140454Y464058D01*
G01X-4134358Y461010D01*
G01X-4121912Y461010D01*
G01X-4115816Y464058D01*
G01X-4109466Y470408D01*
G01X-4106418Y476504D01*
G01X-4070096Y526034D02*
G01X-4036060Y526034D01*
G01X-4054602Y501396D01*
G01X-4045458Y501396D01*
G01X-4039108Y498348D01*
G01X-4036060Y495046D01*
G01X-4033012Y485902D01*
G01X-4033012Y479552D01*
G01X-4036060Y470408D01*
G01X-4042156Y464058D01*
G01X-4051554Y461010D01*
G01X-4060952Y461010D01*
G01X-4070096Y464058D01*
G01X-4073144Y467360D01*
G01X-4076192Y473456D01*
G01X4106418Y-510540D02*
G01X4109466Y-516890D01*
G01X4115816Y-522986D01*
G01X4121912Y-526034D01*
G01X4134358Y-526034D01*
G01X4140454Y-522986D01*
G01X4146804Y-516890D01*
G01X4149852Y-510540D01*
G01X4152900Y-501396D01*
G01X4152900Y-485902D01*
G01X4149852Y-476504D01*
G01X4146804Y-470408D01*
G01X4140454Y-464058D01*
G01X4134358Y-461010D01*
G01X4121912Y-461010D01*
G01X4115816Y-464058D01*
G01X4109466Y-470408D01*
G01X4106418Y-476504D01*
G01X4076192Y-513588D02*
G01X4070096Y-516890D01*
G01X4060952Y-526034D01*
G01X4060952Y-461010D01*
G01X4030726Y-513588D02*
G01X4024630Y-516890D01*
G01X4015486Y-526034D01*
G01X4015486Y-461010D01*
G01X-2662774Y-510032D02*
G01X-2659726Y-516382D01*
G01X-2653376Y-522478D01*
G01X-2647280Y-525526D01*
G01X-2634834Y-525526D01*
G01X-2628738Y-522478D01*
G01X-2622388Y-516382D01*
G01X-2619340Y-510032D01*
G01X-2616292Y-500888D01*
G01X-2616292Y-485394D01*
G01X-2619340Y-475996D01*
G01X-2622388Y-469900D01*
G01X-2628738Y-463550D01*
G01X-2634834Y-460502D01*
G01X-2647280Y-460502D01*
G01X-2653376Y-463550D01*
G01X-2659726Y-469900D01*
G01X-2662774Y-475996D01*
G01X-2693000Y-513080D02*
G01X-2699096Y-516382D01*
G01X-2708240Y-525526D01*
G01X-2708240Y-460502D01*
G01X-2741514Y-510032D02*
G01X-2741514Y-513080D01*
G01X-2744562Y-519430D01*
G01X-2747610Y-522478D01*
G01X-2753706Y-525526D01*
G01X-2766152Y-525526D01*
G01X-2772502Y-522478D01*
G01X-2775550Y-519430D01*
G01X-2778598Y-513080D01*
G01X-2778598Y-506984D01*
G01X-2775550Y-500888D01*
G01X-2769200Y-491490D01*
G01X-2738466Y-460502D01*
G01X-2781646Y-460502D01*
G01X1100889Y-302151D02*
G01X1103937Y-308501D01*
G01X1110287Y-314597D01*
G01X1116383Y-317645D01*
G01X1128829Y-317645D01*
G01X1134925Y-314597D01*
G01X1141275Y-308501D01*
G01X1144323Y-302151D01*
G01X1147371Y-293007D01*
G01X1147371Y-277513D01*
G01X1144323Y-268115D01*
G01X1141275Y-262019D01*
G01X1134925Y-255669D01*
G01X1128829Y-252621D01*
G01X1116383Y-252621D01*
G01X1110287Y-255669D01*
G01X1103937Y-262019D01*
G01X1100889Y-268115D01*
G01X1070663Y-305199D02*
G01X1064567Y-308501D01*
G01X1055423Y-317645D01*
G01X1055423Y-252621D01*
G01X1025197Y-305199D02*
G01X1019101Y-308501D01*
G01X1009957Y-317645D01*
G01X1009957Y-252621D01*
G01X942647Y-317645D02*
G01X973635Y-317645D01*
G01X976683Y-289959D01*
G01X973635Y-293007D01*
G01X964491Y-296055D01*
G01X955093Y-296055D01*
G01X945695Y-293007D01*
G01X939599Y-286657D01*
G01X936551Y-277513D01*
G01X936551Y-271163D01*
G01X939599Y-262019D01*
G01X945695Y-255669D01*
G01X955093Y-252621D01*
G01X964491Y-252621D01*
G01X973635Y-255669D01*
G01X976683Y-258971D01*
G01X979731Y-265067D01*
G01X597729Y2509636D02*
G01X532705Y2509636D01*
G01X532705Y2509636D02*
G01X532705Y2472552D01*
G01X597729Y2427086D02*
G01X594681Y2436230D01*
G01X588585Y2439278D01*
G01X582235Y2439278D01*
G01X576139Y2436230D01*
G01X573091Y2430134D01*
G01X570043Y2417688D01*
G01X566741Y2408290D01*
G01X560645Y2402194D01*
G01X554549Y2399146D01*
G01X545151Y2399146D01*
G01X539055Y2402194D01*
G01X535753Y2405242D01*
G01X532705Y2414640D01*
G01X532705Y2427086D01*
G01X535753Y2436230D01*
G01X539055Y2439278D01*
G01X545151Y2442326D01*
G01X554549Y2442326D01*
G01X560645Y2439278D01*
G01X566741Y2433182D01*
G01X570043Y2423784D01*
G01X573091Y2411592D01*
G01X576139Y2405242D01*
G01X582235Y2402194D01*
G01X588585Y2402194D01*
G01X594681Y2405242D01*
G01X597729Y2414640D01*
G01X597729Y2427086D01*
G01X1201420Y-2204466D02*
G01X1201420Y-2269490D01*
G01X1201420Y-2204466D02*
G01X1229360Y-2204466D01*
G01X1238504Y-2207514D01*
G01X1241552Y-2210562D01*
G01X1244854Y-2216912D01*
G01X1244854Y-2223008D01*
G01X1241552Y-2229104D01*
G01X1238504Y-2232152D01*
G01X1229360Y-2235454D01*
G01X1201420Y-2235454D01*
G01X1223010Y-2235454D02*
G01X1244854Y-2269490D01*
G01X1318260Y-2204466D02*
G01X1287272Y-2269490D01*
G01X1275080Y-2204466D02*
G01X1318260Y-2204466D01*
G01X1385570Y-2213610D02*
G01X1382522Y-2207514D01*
G01X1373124Y-2204466D01*
G01X1367028Y-2204466D01*
G01X1357630Y-2207514D01*
G01X1351534Y-2216912D01*
G01X1348486Y-2232152D01*
G01X1348486Y-2247646D01*
G01X1351534Y-2260092D01*
G01X1357630Y-2266442D01*
G01X1367028Y-2269490D01*
G01X1370076Y-2269490D01*
G01X1379220Y-2266442D01*
G01X1385570Y-2260092D01*
G01X1388618Y-2250948D01*
G01X1388618Y-2247646D01*
G01X1385570Y-2238502D01*
G01X1379220Y-2232152D01*
G01X1370076Y-2229104D01*
G01X1367028Y-2229104D01*
G01X1357630Y-2232152D01*
G01X1351534Y-2238502D01*
G01X1348486Y-2247646D01*
G01X-538734Y480060D02*
G01X-492252Y480060D01*
G01X-483108Y483108D01*
G01X-476758Y489458D01*
G01X-473710Y498602D01*
G01X-473710Y504952D01*
G01X-476758Y514096D01*
G01X-483108Y520192D01*
G01X-492252Y523494D01*
G01X-538734Y523494D01*
G01X-523240Y556768D02*
G01X-526288Y556768D01*
G01X-532638Y559816D01*
G01X-535686Y562864D01*
G01X-538734Y568960D01*
G01X-538734Y581406D01*
G01X-535686Y587756D01*
G01X-532638Y590804D01*
G01X-526288Y593852D01*
G01X-520192Y593852D01*
G01X-514096Y590804D01*
G01X-504698Y584454D01*
G01X-473710Y553720D01*
G01X-473710Y596900D01*
G01X-517144Y667258D02*
G01X-507746Y664210D01*
G01X-501650Y657860D01*
G01X-498602Y648716D01*
G01X-498602Y645668D01*
G01X-501650Y636270D01*
G01X-507746Y630174D01*
G01X-517144Y627126D01*
G01X-520192Y627126D01*
G01X-529590Y630174D01*
G01X-535686Y636270D01*
G01X-538734Y645668D01*
G01X-538734Y648716D01*
G01X-535686Y657860D01*
G01X-529590Y664210D01*
G01X-517144Y667258D01*
G01X-501650Y667258D01*
G01X-486156Y664210D01*
G01X-476758Y657860D01*
G01X-473710Y648716D01*
G01X-473710Y642366D01*
G01X-476758Y633222D01*
G01X-483108Y630174D01*
G01X-1022566Y468152D02*
G01X-976084Y468152D01*
G01X-966940Y471200D01*
G01X-960590Y477550D01*
G01X-957542Y486694D01*
G01X-957542Y493044D01*
G01X-960590Y502188D01*
G01X-966940Y508284D01*
G01X-976084Y511586D01*
G01X-1022566Y511586D01*
G01X-1022566Y547908D02*
G01X-1022566Y581944D01*
G01X-997928Y563402D01*
G01X-997928Y572546D01*
G01X-994880Y578896D01*
G01X-991578Y581944D01*
G01X-982434Y584992D01*
G01X-976084Y584992D01*
G01X-966940Y581944D01*
G01X-960590Y575848D01*
G01X-957542Y566450D01*
G01X-957542Y557052D01*
G01X-960590Y547908D01*
G01X-963892Y544860D01*
G01X-969988Y541812D01*
G01X-1022566Y633760D02*
G01X-1019518Y624362D01*
G01X-1010120Y618266D01*
G01X-994880Y615218D01*
G01X-985482Y615218D01*
G01X-969988Y618266D01*
G01X-960590Y624362D01*
G01X-957542Y633760D01*
G01X-957542Y639856D01*
G01X-960590Y649254D01*
G01X-969988Y655350D01*
G01X-985482Y658398D01*
G01X-994880Y658398D01*
G01X-1010120Y655350D01*
G01X-1019518Y649254D01*
G01X-1022566Y639856D01*
G01X-1022566Y633760D01*
G01X302260Y-85598D02*
G01X295910Y-88646D01*
G01X289814Y-94996D01*
G01X286766Y-101092D01*
G01X286766Y-113538D01*
G01X289814Y-119634D01*
G01X295910Y-125984D01*
G01X302260Y-129032D01*
G01X311404Y-132080D01*
G01X326898Y-132080D01*
G01X336296Y-129032D01*
G01X342392Y-125984D01*
G01X348742Y-119634D01*
G01X351790Y-113538D01*
G01X351790Y-101092D01*
G01X348742Y-94996D01*
G01X342392Y-88646D01*
G01X336296Y-85598D01*
G01X299212Y-55372D02*
G01X295910Y-49276D01*
G01X286766Y-40132D01*
G01X351790Y-40132D01*
G01X286766Y8636D02*
G01X289814Y-762D01*
G01X299212Y-6858D01*
G01X314452Y-9906D01*
G01X323850Y-9906D01*
G01X339344Y-6858D01*
G01X348742Y-762D01*
G01X351790Y8636D01*
G01X351790Y14732D01*
G01X348742Y24130D01*
G01X339344Y30226D01*
G01X323850Y33274D01*
G01X314452Y33274D01*
G01X299212Y30226D01*
G01X289814Y24130D01*
G01X286766Y14732D01*
G01X286766Y8636D01*
G01X295910Y100584D02*
G01X289814Y97536D01*
G01X286766Y88138D01*
G01X286766Y82042D01*
G01X289814Y72644D01*
G01X299212Y66548D01*
G01X314452Y63500D01*
G01X329946Y63500D01*
G01X342392Y66548D01*
G01X348742Y72644D01*
G01X351790Y82042D01*
G01X351790Y85090D01*
G01X348742Y94234D01*
G01X342392Y100584D01*
G01X333248Y103632D01*
G01X329946Y103632D01*
G01X320802Y100584D01*
G01X314452Y94234D01*
G01X311404Y85090D01*
G01X311404Y82042D01*
G01X314452Y72644D01*
G01X320802Y66548D01*
G01X329946Y63500D01*
G01X-290322Y289560D02*
G01X-287274Y283210D01*
G01X-280924Y277114D01*
G01X-274828Y274066D01*
G01X-262382Y274066D01*
G01X-256286Y277114D01*
G01X-249936Y283210D01*
G01X-246888Y289560D01*
G01X-243840Y298704D01*
G01X-243840Y314198D01*
G01X-246888Y323596D01*
G01X-249936Y329692D01*
G01X-256286Y336042D01*
G01X-262382Y339090D01*
G01X-274828Y339090D01*
G01X-280924Y336042D01*
G01X-287274Y329692D01*
G01X-290322Y323596D01*
G01X-320548Y286512D02*
G01X-326644Y283210D01*
G01X-335788Y274066D01*
G01X-335788Y339090D01*
G01X-384556Y274066D02*
G01X-375158Y277114D01*
G01X-369062Y286512D01*
G01X-366014Y301752D01*
G01X-366014Y311150D01*
G01X-369062Y326644D01*
G01X-375158Y336042D01*
G01X-384556Y339090D01*
G01X-390652Y339090D01*
G01X-400050Y336042D01*
G01X-406146Y326644D01*
G01X-409194Y311150D01*
G01X-409194Y301752D01*
G01X-406146Y286512D01*
G01X-400050Y277114D01*
G01X-390652Y274066D01*
G01X-384556Y274066D01*
G01X-482600Y274066D02*
G01X-451612Y339090D01*
G01X-439420Y274066D02*
G01X-482600Y274066D01*
G01X-333502Y863600D02*
G01X-330454Y857250D01*
G01X-324104Y851154D01*
G01X-318008Y848106D01*
G01X-305562Y848106D01*
G01X-299466Y851154D01*
G01X-293116Y857250D01*
G01X-290068Y863600D01*
G01X-287020Y872744D01*
G01X-287020Y888238D01*
G01X-290068Y897636D01*
G01X-293116Y903732D01*
G01X-299466Y910082D01*
G01X-305562Y913130D01*
G01X-318008Y913130D01*
G01X-324104Y910082D01*
G01X-330454Y903732D01*
G01X-333502Y897636D01*
G01X-363728Y860552D02*
G01X-369824Y857250D01*
G01X-378968Y848106D01*
G01X-378968Y913130D01*
G01X-427736Y848106D02*
G01X-418338Y851154D01*
G01X-412242Y860552D01*
G01X-409194Y875792D01*
G01X-409194Y885190D01*
G01X-412242Y900684D01*
G01X-418338Y910082D01*
G01X-427736Y913130D01*
G01X-433832Y913130D01*
G01X-443230Y910082D01*
G01X-449326Y900684D01*
G01X-452374Y885190D01*
G01X-452374Y875792D01*
G01X-449326Y860552D01*
G01X-443230Y851154D01*
G01X-433832Y848106D01*
G01X-427736Y848106D01*
G01X-497840Y848106D02*
G01X-488696Y851154D01*
G01X-485648Y857250D01*
G01X-485648Y863600D01*
G01X-488696Y869696D01*
G01X-494792Y872744D01*
G01X-507238Y875792D01*
G01X-516636Y879094D01*
G01X-522732Y885190D01*
G01X-525780Y891286D01*
G01X-525780Y900684D01*
G01X-522732Y906780D01*
G01X-519684Y910082D01*
G01X-510286Y913130D01*
G01X-497840Y913130D01*
G01X-488696Y910082D01*
G01X-485648Y906780D01*
G01X-482600Y900684D01*
G01X-482600Y891286D01*
G01X-485648Y885190D01*
G01X-491744Y879094D01*
G01X-501142Y875792D01*
G01X-513334Y872744D01*
G01X-519684Y869696D01*
G01X-522732Y863600D01*
G01X-522732Y857250D01*
G01X-519684Y851154D01*
G01X-510286Y848106D01*
G01X-497840Y848106D01*
G01X-676402Y812800D02*
G01X-673354Y806450D01*
G01X-667004Y800354D01*
G01X-660908Y797306D01*
G01X-648462Y797306D01*
G01X-642366Y800354D01*
G01X-636016Y806450D01*
G01X-632968Y812800D01*
G01X-629920Y821944D01*
G01X-629920Y837438D01*
G01X-632968Y846836D01*
G01X-636016Y852932D01*
G01X-642366Y859282D01*
G01X-648462Y862330D01*
G01X-660908Y862330D01*
G01X-667004Y859282D01*
G01X-673354Y852932D01*
G01X-676402Y846836D01*
G01X-706628Y809752D02*
G01X-712724Y806450D01*
G01X-721868Y797306D01*
G01X-721868Y862330D01*
G01X-770636Y797306D02*
G01X-761238Y800354D01*
G01X-755142Y809752D01*
G01X-752094Y824992D01*
G01X-752094Y834390D01*
G01X-755142Y849884D01*
G01X-761238Y859282D01*
G01X-770636Y862330D01*
G01X-776732Y862330D01*
G01X-786130Y859282D01*
G01X-792226Y849884D01*
G01X-795274Y834390D01*
G01X-795274Y824992D01*
G01X-792226Y809752D01*
G01X-786130Y800354D01*
G01X-776732Y797306D01*
G01X-770636Y797306D01*
G01X-865632Y818896D02*
G01X-862584Y828294D01*
G01X-856234Y834390D01*
G01X-847090Y837438D01*
G01X-844042Y837438D01*
G01X-834644Y834390D01*
G01X-828548Y828294D01*
G01X-825500Y818896D01*
G01X-825500Y815848D01*
G01X-828548Y806450D01*
G01X-834644Y800354D01*
G01X-844042Y797306D01*
G01X-847090Y797306D01*
G01X-856234Y800354D01*
G01X-862584Y806450D01*
G01X-865632Y818896D01*
G01X-865632Y834390D01*
G01X-862584Y849884D01*
G01X-856234Y859282D01*
G01X-847090Y862330D01*
G01X-840740Y862330D01*
G01X-831596Y859282D01*
G01X-828548Y852932D01*
G01X-765302Y342900D02*
G01X-762254Y336550D01*
G01X-755904Y330454D01*
G01X-749808Y327406D01*
G01X-737362Y327406D01*
G01X-731266Y330454D01*
G01X-724916Y336550D01*
G01X-721868Y342900D01*
G01X-718820Y352044D01*
G01X-718820Y367538D01*
G01X-721868Y376936D01*
G01X-724916Y383032D01*
G01X-731266Y389382D01*
G01X-737362Y392430D01*
G01X-749808Y392430D01*
G01X-755904Y389382D01*
G01X-762254Y383032D01*
G01X-765302Y376936D01*
G01X-795528Y339852D02*
G01X-801624Y336550D01*
G01X-810768Y327406D01*
G01X-810768Y392430D01*
G01X-840994Y339852D02*
G01X-847090Y336550D01*
G01X-856234Y327406D01*
G01X-856234Y392430D01*
G01X-905002Y327406D02*
G01X-895604Y330454D01*
G01X-889508Y339852D01*
G01X-886460Y355092D01*
G01X-886460Y364490D01*
G01X-889508Y379984D01*
G01X-895604Y389382D01*
G01X-905002Y392430D01*
G01X-911098Y392430D01*
G01X-920496Y389382D01*
G01X-926592Y379984D01*
G01X-929640Y364490D01*
G01X-929640Y355092D01*
G01X-926592Y339852D01*
G01X-920496Y330454D01*
G01X-911098Y327406D01*
G01X-905002Y327406D01*
G01X474980Y45466D02*
G01X474980Y110490D01*
G01X474980Y45466D02*
G01X447040Y45466D01*
G01X437896Y48514D01*
G01X434848Y51562D01*
G01X431546Y57912D01*
G01X431546Y64008D01*
G01X434848Y70104D01*
G01X437896Y73152D01*
G01X447040Y76454D01*
G01X474980Y76454D01*
G01X453390Y76454D02*
G01X431546Y110490D01*
G01X358140Y45466D02*
G01X389128Y110490D01*
G01X401320Y45466D02*
G01X358140Y45466D01*
G01X287782Y67056D02*
G01X290830Y76454D01*
G01X297180Y82550D01*
G01X306324Y85598D01*
G01X309372Y85598D01*
G01X318770Y82550D01*
G01X324866Y76454D01*
G01X327914Y67056D01*
G01X327914Y64008D01*
G01X324866Y54610D01*
G01X318770Y48514D01*
G01X309372Y45466D01*
G01X306324Y45466D01*
G01X297180Y48514D01*
G01X290830Y54610D01*
G01X287782Y67056D01*
G01X287782Y82550D01*
G01X290830Y98044D01*
G01X297180Y107442D01*
G01X306324Y110490D01*
G01X312674Y110490D01*
G01X321818Y107442D01*
G01X324866Y101092D01*
G01X-7620Y337566D02*
G01X-7620Y402590D01*
G01X-7620Y337566D02*
G01X-35560Y337566D01*
G01X-44704Y340614D01*
G01X-47752Y343662D01*
G01X-51054Y350012D01*
G01X-51054Y356108D01*
G01X-47752Y362204D01*
G01X-44704Y365252D01*
G01X-35560Y368554D01*
G01X-7620Y368554D01*
G01X-29210Y368554D02*
G01X-51054Y402590D01*
G01X-96520Y337566D02*
G01X-87376Y340614D01*
G01X-84328Y346710D01*
G01X-84328Y353060D01*
G01X-87376Y359156D01*
G01X-93472Y362204D01*
G01X-105918Y365252D01*
G01X-115316Y368554D01*
G01X-121412Y374650D01*
G01X-124460Y380746D01*
G01X-124460Y390144D01*
G01X-121412Y396240D01*
G01X-118364Y399542D01*
G01X-108966Y402590D01*
G01X-96520Y402590D01*
G01X-87376Y399542D01*
G01X-84328Y396240D01*
G01X-81280Y390144D01*
G01X-81280Y380746D01*
G01X-84328Y374650D01*
G01X-90424Y368554D01*
G01X-99822Y365252D01*
G01X-112014Y362204D01*
G01X-118364Y359156D01*
G01X-121412Y353060D01*
G01X-121412Y346710D01*
G01X-118364Y340614D01*
G01X-108966Y337566D01*
G01X-96520Y337566D01*
G01X-173228Y337566D02*
G01X-163830Y340614D01*
G01X-157734Y350012D01*
G01X-154686Y365252D01*
G01X-154686Y374650D01*
G01X-157734Y390144D01*
G01X-163830Y399542D01*
G01X-173228Y402590D01*
G01X-179324Y402590D01*
G01X-188722Y399542D01*
G01X-194818Y390144D01*
G01X-197866Y374650D01*
G01X-197866Y365252D01*
G01X-194818Y350012D01*
G01X-188722Y340614D01*
G01X-179324Y337566D01*
G01X-173228Y337566D01*
G54D11*
G01X-636695Y-2315064D02*
G01X-739565Y-2315064D01*
G01X-1793157Y-2340972D02*
G01X-1793157Y-2238102D01*
G01X-1741595Y-2289664D02*
G01X-1844465Y-2289664D01*
G54D10*
G01X-635000Y-3481578D02*
G01X-641350Y-3484626D01*
G01X-647446Y-3490976D01*
G01X-650494Y-3497072D01*
G01X-650494Y-3509518D01*
G01X-647446Y-3515614D01*
G01X-641350Y-3521964D01*
G01X-635000Y-3525012D01*
G01X-625856Y-3528060D01*
G01X-610362Y-3528060D01*
G01X-600964Y-3525012D01*
G01X-594868Y-3521964D01*
G01X-588518Y-3515614D01*
G01X-585470Y-3509518D01*
G01X-585470Y-3497072D01*
G01X-588518Y-3490976D01*
G01X-594868Y-3484626D01*
G01X-600964Y-3481578D01*
G01X-650494Y-3451352D02*
G01X-585470Y-3451352D01*
G01X-650494Y-3451352D02*
G01X-585470Y-3408172D01*
G01X-650494Y-3408172D02*
G01X-585470Y-3408172D01*
G01X-638048Y-3377946D02*
G01X-641350Y-3371850D01*
G01X-650494Y-3362706D01*
G01X-585470Y-3362706D01*
G01X896963Y-2393003D02*
G01X896963Y-2439485D01*
G01X900011Y-2448629D01*
G01X906361Y-2454979D01*
G01X915505Y-2458027D01*
G01X921855Y-2458027D01*
G01X930999Y-2454979D01*
G01X937095Y-2448629D01*
G01X940397Y-2439485D01*
G01X940397Y-2393003D01*
G01X1013803Y-2402147D02*
G01X1007707Y-2396051D01*
G01X998309Y-2393003D01*
G01X985863Y-2393003D01*
G01X976719Y-2396051D01*
G01X970623Y-2402147D01*
G01X970623Y-2408497D01*
G01X973671Y-2414593D01*
G01X976719Y-2417641D01*
G01X982815Y-2420689D01*
G01X1001357Y-2427039D01*
G01X1007707Y-2430087D01*
G01X1010755Y-2433135D01*
G01X1013803Y-2439485D01*
G01X1013803Y-2448629D01*
G01X1007707Y-2454979D01*
G01X998309Y-2458027D01*
G01X985863Y-2458027D01*
G01X976719Y-2454979D01*
G01X970623Y-2448629D01*
G01X1044029Y-2393003D02*
G01X1044029Y-2458027D01*
G01X1044029Y-2393003D02*
G01X1071715Y-2393003D01*
G01X1081113Y-2396051D01*
G01X1084161Y-2399099D01*
G01X1087209Y-2405449D01*
G01X1087209Y-2411545D01*
G01X1084161Y-2417641D01*
G01X1081113Y-2420689D01*
G01X1071715Y-2423991D01*
G01X1044029Y-2423991D02*
G01X1071715Y-2423991D01*
G01X1081113Y-2427039D01*
G01X1084161Y-2430087D01*
G01X1087209Y-2436183D01*
G01X1087209Y-2445581D01*
G01X1084161Y-2451677D01*
G01X1081113Y-2454979D01*
G01X1071715Y-2458027D01*
G01X1044029Y-2458027D01*
G01X1123531Y-2393003D02*
G01X1157567Y-2393003D01*
G01X1139025Y-2417641D01*
G01X1148169Y-2417641D01*
G01X1154519Y-2420689D01*
G01X1157567Y-2423991D01*
G01X1160615Y-2433135D01*
G01X1160615Y-2439485D01*
G01X1157567Y-2448629D01*
G01X1151471Y-2454979D01*
G01X1142073Y-2458027D01*
G01X1132675Y-2458027D01*
G01X1123531Y-2454979D01*
G01X1120483Y-2451677D01*
G01X1117435Y-2445581D01*
G01X-464566Y-1226820D02*
G01X-511048Y-1226820D01*
G01X-520192Y-1229868D01*
G01X-526542Y-1236218D01*
G01X-529590Y-1245362D01*
G01X-529590Y-1251712D01*
G01X-526542Y-1260856D01*
G01X-520192Y-1266952D01*
G01X-511048Y-1270254D01*
G01X-464566Y-1270254D01*
G01X-464566Y-1306576D02*
G01X-464566Y-1340612D01*
G01X-489204Y-1322070D01*
G01X-489204Y-1331214D01*
G01X-492252Y-1337564D01*
G01X-495554Y-1340612D01*
G01X-504698Y-1343660D01*
G01X-511048Y-1343660D01*
G01X-520192Y-1340612D01*
G01X-526542Y-1334516D01*
G01X-529590Y-1325118D01*
G01X-529590Y-1315720D01*
G01X-526542Y-1306576D01*
G01X-523240Y-1303528D01*
G01X-517144Y-1300480D01*
G01X-480060Y-1376934D02*
G01X-477012Y-1376934D01*
G01X-470662Y-1379982D01*
G01X-467614Y-1383030D01*
G01X-464566Y-1389126D01*
G01X-464566Y-1401572D01*
G01X-467614Y-1407922D01*
G01X-470662Y-1410970D01*
G01X-477012Y-1414018D01*
G01X-483108Y-1414018D01*
G01X-489204Y-1410970D01*
G01X-498602Y-1404620D01*
G01X-529590Y-1373886D01*
G01X-529590Y-1417066D01*
G01X426720Y-172466D02*
G01X426720Y-218948D01*
G01X429768Y-228092D01*
G01X436118Y-234442D01*
G01X445262Y-237490D01*
G01X451612Y-237490D01*
G01X460756Y-234442D01*
G01X466852Y-228092D01*
G01X470154Y-218948D01*
G01X470154Y-172466D01*
G01X506476Y-172466D02*
G01X540512Y-172466D01*
G01X521970Y-197104D01*
G01X531114Y-197104D01*
G01X537464Y-200152D01*
G01X540512Y-203454D01*
G01X543560Y-212598D01*
G01X543560Y-218948D01*
G01X540512Y-228092D01*
G01X534416Y-234442D01*
G01X525018Y-237490D01*
G01X515620Y-237490D01*
G01X506476Y-234442D01*
G01X503428Y-231140D01*
G01X500380Y-225044D01*
G01X579882Y-172466D02*
G01X613918Y-172466D01*
G01X595376Y-197104D01*
G01X604520Y-197104D01*
G01X610870Y-200152D01*
G01X613918Y-203454D01*
G01X616966Y-212598D01*
G01X616966Y-218948D01*
G01X613918Y-228092D01*
G01X607822Y-234442D01*
G01X598424Y-237490D01*
G01X589026Y-237490D01*
G01X579882Y-234442D01*
G01X576834Y-231140D01*
G01X573786Y-225044D01*
G01X-411475Y-2504465D02*
G01X-411475Y-2550947D01*
G01X-408427Y-2560091D01*
G01X-402077Y-2566441D01*
G01X-392933Y-2569489D01*
G01X-386583Y-2569489D01*
G01X-377439Y-2566441D01*
G01X-371343Y-2560091D01*
G01X-368041Y-2550947D01*
G01X-368041Y-2504465D01*
G01X-331719Y-2504465D02*
G01X-297683Y-2504465D01*
G01X-316225Y-2529103D01*
G01X-307081Y-2529103D01*
G01X-300731Y-2532151D01*
G01X-297683Y-2535453D01*
G01X-294635Y-2544597D01*
G01X-294635Y-2550947D01*
G01X-297683Y-2560091D01*
G01X-303779Y-2566441D01*
G01X-313177Y-2569489D01*
G01X-322575Y-2569489D01*
G01X-331719Y-2566441D01*
G01X-334767Y-2563139D01*
G01X-337815Y-2557043D01*
G01X-233675Y-2504465D02*
G01X-264409Y-2547645D01*
G01X-218181Y-2547645D01*
G01X-233675Y-2504465D02*
G01X-233675Y-2569489D01*
G01X-3848100Y50508D02*
G01X-3848100Y-14516D01*
G01X-3848100Y50508D02*
G01X-3820160Y50508D01*
G01X-3811016Y47460D01*
G01X-3807968Y44412D01*
G01X-3804666Y38062D01*
G01X-3804666Y31966D01*
G01X-3807968Y25870D01*
G01X-3811016Y22822D01*
G01X-3820160Y19520D01*
G01X-3848100Y19520D01*
G01X-3826510Y19520D02*
G01X-3804666Y-14516D01*
G01X-3774440Y38062D02*
G01X-3768344Y41364D01*
G01X-3759200Y50508D01*
G01X-3759200Y-14516D01*
G01X3848100Y-50508D02*
G01X3848100Y14516D01*
G01X3848100Y-50508D02*
G01X3820160Y-50508D01*
G01X3811016Y-47460D01*
G01X3807968Y-44412D01*
G01X3804666Y-38062D01*
G01X3804666Y-31966D01*
G01X3807968Y-25870D01*
G01X3811016Y-22822D01*
G01X3820160Y-19520D01*
G01X3848100Y-19520D01*
G01X3826510Y-19520D02*
G01X3804666Y14516D01*
G01X3768344Y-50508D02*
G01X3734308Y-50508D01*
G01X3752850Y-25870D01*
G01X3743706Y-25870D01*
G01X3737356Y-22822D01*
G01X3734308Y-19520D01*
G01X3731260Y-10376D01*
G01X3731260Y-4026D01*
G01X3734308Y5118D01*
G01X3740404Y11468D01*
G01X3749802Y14516D01*
G01X3759200Y14516D01*
G01X3768344Y11468D01*
G01X3771392Y8166D01*
G01X3774440Y2070D01*
G01X-2921092Y-50000D02*
G01X-2921092Y15024D01*
G01X-2921092Y-50000D02*
G01X-2949032Y-50000D01*
G01X-2958176Y-46952D01*
G01X-2961224Y-43904D01*
G01X-2964526Y-37554D01*
G01X-2964526Y-31458D01*
G01X-2961224Y-25362D01*
G01X-2958176Y-22314D01*
G01X-2949032Y-19012D01*
G01X-2921092Y-19012D01*
G01X-2942682Y-19012D02*
G01X-2964526Y15024D01*
G01X-2994752Y-37554D02*
G01X-3000848Y-40856D01*
G01X-3009992Y-50000D01*
G01X-3009992Y15024D01*
G01X-3058760Y-50000D02*
G01X-3049362Y-46952D01*
G01X-3043266Y-37554D01*
G01X-3040218Y-22314D01*
G01X-3040218Y-12916D01*
G01X-3043266Y2578D01*
G01X-3049362Y11976D01*
G01X-3058760Y15024D01*
G01X-3064856Y15024D01*
G01X-3074254Y11976D01*
G01X-3080350Y2578D01*
G01X-3083398Y-12916D01*
G01X-3083398Y-22314D01*
G01X-3080350Y-37554D01*
G01X-3074254Y-46952D01*
G01X-3064856Y-50000D01*
G01X-3058760Y-50000D01*
G01X172276Y-1410386D02*
G01X172276Y-1475410D01*
G01X172276Y-1410386D02*
G01X200216Y-1410386D01*
G01X209360Y-1413434D01*
G01X212408Y-1416482D01*
G01X215710Y-1422832D01*
G01X215710Y-1428928D01*
G01X212408Y-1435024D01*
G01X209360Y-1438072D01*
G01X200216Y-1441374D01*
G01X172276Y-1441374D01*
G01X193866Y-1441374D02*
G01X215710Y-1475410D01*
G01X252032Y-1410386D02*
G01X286068Y-1410386D01*
G01X267526Y-1435024D01*
G01X276670Y-1435024D01*
G01X283020Y-1438072D01*
G01X286068Y-1441374D01*
G01X289116Y-1450518D01*
G01X289116Y-1456868D01*
G01X286068Y-1466012D01*
G01X279972Y-1472362D01*
G01X270574Y-1475410D01*
G01X261176Y-1475410D01*
G01X252032Y-1472362D01*
G01X248984Y-1469060D01*
G01X245936Y-1462964D01*
G01X325438Y-1410386D02*
G01X359474Y-1410386D01*
G01X340932Y-1435024D01*
G01X350076Y-1435024D01*
G01X356426Y-1438072D01*
G01X359474Y-1441374D01*
G01X362522Y-1450518D01*
G01X362522Y-1456868D01*
G01X359474Y-1466012D01*
G01X353378Y-1472362D01*
G01X343980Y-1475410D01*
G01X334582Y-1475410D01*
G01X325438Y-1472362D01*
G01X322390Y-1469060D01*
G01X319342Y-1462964D01*
G54D12*
G01X-3434798Y174625D02*
G01X-3433782Y172085D01*
G01X-3431242Y169799D01*
G01X-3428702Y168529D01*
G01X-3424892Y167259D01*
G01X-3418796Y167259D01*
G01X-3414986Y168529D01*
G01X-3412446Y169799D01*
G01X-3409906Y172085D01*
G01X-3408636Y174625D01*
G01X-3408636Y179705D01*
G01X-3409906Y182245D01*
G01X-3412446Y184785D01*
G01X-3414986Y186055D01*
G01X-3418796Y187071D01*
G01X-3424892Y187071D01*
G01X-3428702Y186055D01*
G01X-3431242Y184785D01*
G01X-3433782Y182245D01*
G01X-3434798Y179705D01*
G01X-3434798Y174625D01*
G01X-3434798Y203073D02*
G01X-3408636Y203073D01*
G01X-3434798Y203073D02*
G01X-3408636Y220599D01*
G01X-3434798Y220599D02*
G01X-3408636Y220599D01*
G01X-2929318Y189281D02*
G01X-2932366Y194869D01*
G01X-2940748Y203251D01*
G01X-2881566Y203251D01*
G54D10*
G01X-2750820Y68326D02*
G01X-2750820Y114808D01*
G01X-2753868Y123952D01*
G01X-2760218Y130302D01*
G01X-2769362Y133350D01*
G01X-2775712Y133350D01*
G01X-2784856Y130302D01*
G01X-2790952Y123952D01*
G01X-2794254Y114808D01*
G01X-2794254Y68326D01*
G01X-2861564Y68326D02*
G01X-2830576Y68326D01*
G01X-2827528Y96012D01*
G01X-2830576Y92964D01*
G01X-2839720Y89916D01*
G01X-2849118Y89916D01*
G01X-2858516Y92964D01*
G01X-2864612Y99314D01*
G01X-2867660Y108458D01*
G01X-2867660Y114808D01*
G01X-2864612Y123952D01*
G01X-2858516Y130302D01*
G01X-2849118Y133350D01*
G01X-2839720Y133350D01*
G01X-2830576Y130302D01*
G01X-2827528Y127000D01*
G01X-2824480Y120904D01*
G54D12*
G01X3434798Y-174625D02*
G01X3433782Y-172085D01*
G01X3431242Y-169799D01*
G01X3428702Y-168529D01*
G01X3424892Y-167259D01*
G01X3418796Y-167259D01*
G01X3414986Y-168529D01*
G01X3412446Y-169799D01*
G01X3409906Y-172085D01*
G01X3408636Y-174625D01*
G01X3408636Y-179705D01*
G01X3409906Y-182245D01*
G01X3412446Y-184785D01*
G01X3414986Y-186055D01*
G01X3418796Y-187071D01*
G01X3424892Y-187071D01*
G01X3428702Y-186055D01*
G01X3431242Y-184785D01*
G01X3433782Y-182245D01*
G01X3434798Y-179705D01*
G01X3434798Y-174625D01*
G01X3434798Y-203073D02*
G01X3408636Y-203073D01*
G01X3434798Y-203073D02*
G01X3408636Y-220599D01*
G01X3434798Y-220599D02*
G01X3408636Y-220599D01*
G01X2929319Y-189281D02*
G01X2932367Y-194869D01*
G01X2940749Y-203251D01*
G01X2881567Y-203251D01*
G54D10*
G01X2652541Y43424D02*
G01X2652541Y-3058D01*
G01X2655589Y-12202D01*
G01X2661939Y-18552D01*
G01X2671083Y-21600D01*
G01X2677433Y-21600D01*
G01X2686577Y-18552D01*
G01X2692673Y-12202D01*
G01X2695975Y-3058D01*
G01X2695975Y43424D01*
G01X2763285Y34280D02*
G01X2760237Y40376D01*
G01X2750839Y43424D01*
G01X2744743Y43424D01*
G01X2735345Y40376D01*
G01X2729249Y30978D01*
G01X2726201Y15738D01*
G01X2726201Y244D01*
G01X2729249Y-12202D01*
G01X2735345Y-18552D01*
G01X2744743Y-21600D01*
G01X2747791Y-21600D01*
G01X2756935Y-18552D01*
G01X2763285Y-12202D01*
G01X2766333Y-3058D01*
G01X2766333Y244D01*
G01X2763285Y9388D01*
G01X2756935Y15738D01*
G01X2747791Y18786D01*
G01X2744743Y18786D01*
G01X2735345Y15738D01*
G01X2729249Y9388D01*
G01X2726201Y244D01*
G54D12*
G01X-3334394Y-174117D02*
G01X-3335410Y-171577D01*
G01X-3337950Y-169291D01*
G01X-3340490Y-168021D01*
G01X-3344300Y-166751D01*
G01X-3350396Y-166751D01*
G01X-3354206Y-168021D01*
G01X-3356746Y-169291D01*
G01X-3359286Y-171577D01*
G01X-3360556Y-174117D01*
G01X-3360556Y-179197D01*
G01X-3359286Y-181737D01*
G01X-3356746Y-184277D01*
G01X-3354206Y-185547D01*
G01X-3350396Y-186563D01*
G01X-3344300Y-186563D01*
G01X-3340490Y-185547D01*
G01X-3337950Y-184277D01*
G01X-3335410Y-181737D01*
G01X-3334394Y-179197D01*
G01X-3334394Y-174117D01*
G01X-3334394Y-202565D02*
G01X-3360556Y-202565D01*
G01X-3334394Y-202565D02*
G01X-3360556Y-220091D01*
G01X-3334394Y-220091D02*
G01X-3360556Y-220091D01*
G01X-3839873Y-188773D02*
G01X-3836825Y-194361D01*
G01X-3828443Y-202743D01*
G01X-3887625Y-202743D01*
G54D10*
G01X-4116651Y43932D02*
G01X-4116651Y-2550D01*
G01X-4113603Y-11694D01*
G01X-4107253Y-18044D01*
G01X-4098109Y-21092D01*
G01X-4091759Y-21092D01*
G01X-4082615Y-18044D01*
G01X-4076519Y-11694D01*
G01X-4073217Y-2550D01*
G01X-4073217Y43932D01*
G01X-4027751Y43932D02*
G01X-4036895Y40884D01*
G01X-4039943Y34788D01*
G01X-4039943Y28438D01*
G01X-4036895Y22342D01*
G01X-4030799Y19294D01*
G01X-4018353Y16246D01*
G01X-4008955Y12944D01*
G01X-4002859Y6848D01*
G01X-3999811Y752D01*
G01X-3999811Y-8646D01*
G01X-4002859Y-14742D01*
G01X-4005907Y-18044D01*
G01X-4015305Y-21092D01*
G01X-4027751Y-21092D01*
G01X-4036895Y-18044D01*
G01X-4039943Y-14742D01*
G01X-4042991Y-8646D01*
G01X-4042991Y752D01*
G01X-4039943Y6848D01*
G01X-4033847Y12944D01*
G01X-4024449Y16246D01*
G01X-4012257Y19294D01*
G01X-4005907Y22342D01*
G01X-4002859Y28438D01*
G01X-4002859Y34788D01*
G01X-4005907Y40884D01*
G01X-4015305Y43932D01*
G01X-4027751Y43932D01*
G54D12*
G01X47625Y-1741722D02*
G01X45085Y-1742738D01*
G01X42799Y-1745278D01*
G01X41529Y-1747818D01*
G01X40259Y-1751628D01*
G01X40259Y-1757724D01*
G01X41529Y-1761534D01*
G01X42799Y-1764074D01*
G01X45085Y-1766614D01*
G01X47625Y-1767884D01*
G01X52705Y-1767884D01*
G01X55245Y-1766614D01*
G01X57785Y-1764074D01*
G01X59055Y-1761534D01*
G01X60071Y-1757724D01*
G01X60071Y-1751628D01*
G01X59055Y-1747818D01*
G01X57785Y-1745278D01*
G01X55245Y-1742738D01*
G01X52705Y-1741722D01*
G01X47625Y-1741722D01*
G01X76073Y-1741722D02*
G01X76073Y-1767884D01*
G01X76073Y-1741722D02*
G01X93599Y-1767884D01*
G01X93599Y-1741722D02*
G01X93599Y-1767884D01*
G01X62281Y-2247201D02*
G01X67869Y-2244153D01*
G01X76251Y-2235771D01*
G01X76251Y-2294953D01*
G54D10*
G01X-170424Y-2523979D02*
G01X-123942Y-2523979D01*
G01X-114798Y-2520931D01*
G01X-108448Y-2514581D01*
G01X-105400Y-2505437D01*
G01X-105400Y-2499087D01*
G01X-108448Y-2489943D01*
G01X-114798Y-2483847D01*
G01X-123942Y-2480545D01*
G01X-170424Y-2480545D01*
G01X-157978Y-2450319D02*
G01X-161280Y-2444223D01*
G01X-170424Y-2435079D01*
G01X-105400Y-2435079D01*
G01X-154930Y-2401805D02*
G01X-157978Y-2401805D01*
G01X-164328Y-2398757D01*
G01X-167376Y-2395709D01*
G01X-170424Y-2389613D01*
G01X-170424Y-2377167D01*
G01X-167376Y-2370817D01*
G01X-164328Y-2367769D01*
G01X-157978Y-2364721D01*
G01X-151882Y-2364721D01*
G01X-145786Y-2367769D01*
G01X-136388Y-2374119D01*
G01X-105400Y-2404853D01*
G01X-105400Y-2361673D01*
G54D12*
G01X3334302Y174625D02*
G01X3335318Y172085D01*
G01X3337858Y169799D01*
G01X3340398Y168529D01*
G01X3344208Y167259D01*
G01X3350304Y167259D01*
G01X3354114Y168529D01*
G01X3356654Y169799D01*
G01X3359194Y172085D01*
G01X3360464Y174625D01*
G01X3360464Y179705D01*
G01X3359194Y182245D01*
G01X3356654Y184785D01*
G01X3354114Y186055D01*
G01X3350304Y187071D01*
G01X3344208Y187071D01*
G01X3340398Y186055D01*
G01X3337858Y184785D01*
G01X3335318Y182245D01*
G01X3334302Y179705D01*
G01X3334302Y174625D01*
G01X3334302Y203073D02*
G01X3360464Y203073D01*
G01X3334302Y203073D02*
G01X3360464Y220599D01*
G01X3334302Y220599D02*
G01X3360464Y220599D01*
G01X3839782Y189281D02*
G01X3836734Y194869D01*
G01X3828352Y203251D01*
G01X3887534Y203251D01*
G54D10*
G01X4116559Y-43424D02*
G01X4116559Y3058D01*
G01X4113511Y12202D01*
G01X4107161Y18552D01*
G01X4098017Y21600D01*
G01X4091667Y21600D01*
G01X4082523Y18552D01*
G01X4076427Y12202D01*
G01X4073125Y3058D01*
G01X4073125Y-43424D01*
G01X4036803Y-43424D02*
G01X4002767Y-43424D01*
G01X4021309Y-18786D01*
G01X4012165Y-18786D01*
G01X4005815Y-15738D01*
G01X4002767Y-12436D01*
G01X3999719Y-3292D01*
G01X3999719Y3058D01*
G01X4002767Y12202D01*
G01X4008863Y18552D01*
G01X4018261Y21600D01*
G01X4027659Y21600D01*
G01X4036803Y18552D01*
G01X4039851Y15250D01*
G01X4042899Y9154D01*
G01X3932409Y-43424D02*
G01X3963397Y-43424D01*
G01X3966445Y-15738D01*
G01X3963397Y-18786D01*
G01X3954253Y-21834D01*
G01X3944855Y-21834D01*
G01X3935457Y-18786D01*
G01X3929361Y-12436D01*
G01X3926313Y-3292D01*
G01X3926313Y3058D01*
G01X3929361Y12202D01*
G01X3935457Y18552D01*
G01X3944855Y21600D01*
G01X3954253Y21600D01*
G01X3963397Y18552D01*
G01X3966445Y15250D01*
G01X3969493Y9154D01*
G04 Text End*

G04 PolygonModel Start*
G54D13*
G01X-3784763Y137081D02*
G01X-3784763Y57084D01*
G01X-3784717Y193126D02*
G01X-3784717Y273124D01*
G01X-3926731Y137081D02*
G01X-3926731Y57084D01*
G01X-3926683Y193126D02*
G01X-3926683Y273124D01*
G01X-3815745Y26109D02*
G01X-3895750Y26109D01*
G01X-3895697Y304102D02*
G01X-3815695Y304102D01*
G01X-3926683Y273119D02*
G02X-3895697Y304102I30983J0D01*
G01X-3815700Y304102D02*
G02X-3784717Y273119I0J-30983D01*
G01X-3784763Y57089D02*
G02X-3815745Y26109I-30983J3D01*
G01X-3895743Y26109D02*
G02X-3926731Y57089I-5J30983D01*
G01X322735Y28019D02*
G01X322735Y108016D01*
G01X322689Y-28026D02*
G01X322689Y-108024D01*
G01X464703Y28019D02*
G01X464703Y108016D01*
G01X464655Y-28026D02*
G01X464655Y-108024D01*
G01X353718Y138991D02*
G01X433723Y138991D01*
G01X433669Y-139001D02*
G01X353667Y-139001D01*
G01X464655Y-108019D02*
G02X433669Y-139001I-30983J0D01*
G01X353672Y-139001D02*
G02X322689Y-108019I0J30983D01*
G01X322735Y108011D02*
G02X353718Y138991I30983J-3D01*
G01X433715Y138991D02*
G02X464703Y108011I5J-30983D01*
G01X18420Y-175839D02*
G01X98417Y-175839D01*
G01X-37625Y-175793D02*
G01X-117622Y-175793D01*
G01X18420Y-317807D02*
G01X98417Y-317807D01*
G01X-37625Y-317759D02*
G01X-117622Y-317759D01*
G01X129393Y-206822D02*
G01X129393Y-286827D01*
G01X-148600Y-286774D02*
G01X-148600Y-206771D01*
G01X-117617Y-317759D02*
G02X-148600Y-286774I0J30983D01*
G01X-148600Y-206776D02*
G02X-117617Y-175793I30983J0D01*
G01X98412Y-175839D02*
G02X129393Y-206822I-3J-30983D01*
G01X129393Y-286819D02*
G02X98412Y-317807I-30983J-5D01*
G01X1818719Y363057D02*
G01X1898716Y363057D01*
G01X1762674Y363103D02*
G01X1682676Y363103D01*
G01X1818719Y221089D02*
G01X1898716Y221089D01*
G01X1762674Y221137D02*
G01X1682676Y221137D01*
G01X1929691Y332075D02*
G01X1929691Y252070D01*
G01X1651699Y252123D02*
G01X1651699Y332125D01*
G01X1682681Y221137D02*
G02X1651699Y252123I0J30983D01*
G01X1651699Y332120D02*
G02X1682681Y363103I30983J0D01*
G01X1898711Y363057D02*
G02X1929691Y332075I-3J-30983D01*
G01X1929691Y252077D02*
G02X1898711Y221089I-30983J-5D01*
G01X2080181Y221143D02*
G01X2000184Y221143D01*
G01X2136226Y221097D02*
G01X2216224Y221097D01*
G01X2080181Y363111D02*
G01X2000184Y363111D01*
G01X2136226Y363063D02*
G01X2216224Y363063D01*
G01X1969209Y252125D02*
G01X1969209Y332130D01*
G01X2247202Y332077D02*
G01X2247202Y252075D01*
G01X2216219Y363063D02*
G02X2247202Y332077I0J-30983D01*
G01X2247202Y252080D02*
G02X2216219Y221097I-30983J0D01*
G01X2000189Y221143D02*
G02X1969209Y252125I3J30983D01*
G01X1969209Y332123D02*
G02X2000189Y363111I30983J5D01*
G01X3784763Y-137081D02*
G01X3784763Y-57084D01*
G01X3784717Y-193126D02*
G01X3784717Y-273124D01*
G01X3926731Y-137081D02*
G01X3926731Y-57084D01*
G01X3926683Y-193126D02*
G01X3926683Y-273124D01*
G01X3815745Y-26109D02*
G01X3895750Y-26109D01*
G01X3895697Y-304101D02*
G01X3815695Y-304101D01*
G01X3926683Y-273119D02*
G02X3895697Y-304101I-30983J0D01*
G01X3815700Y-304101D02*
G02X3784717Y-273119I0J30983D01*
G01X3784763Y-57089D02*
G02X3815745Y-26109I30983J-3D01*
G01X3895743Y-26109D02*
G02X3926731Y-57089I5J-30983D01*
G01X-221143Y-739219D02*
G01X-221143Y-819216D01*
G01X-221097Y-683174D02*
G01X-221097Y-603176D01*
G01X-363111Y-739219D02*
G01X-363111Y-819216D01*
G01X-363063Y-683174D02*
G01X-363063Y-603176D01*
G01X-252125Y-850191D02*
G01X-332130Y-850191D01*
G01X-332077Y-572198D02*
G01X-252075Y-572198D01*
G01X-363063Y-603181D02*
G02X-332077Y-572198I30983J0D01*
G01X-252080Y-572198D02*
G02X-221097Y-603181I0J-30983D01*
G01X-221143Y-819211D02*
G02X-252125Y-850191I-30983J3D01*
G01X-332123Y-850191D02*
G02X-363111Y-819211I-5J30983D01*
G01X312257Y-751919D02*
G01X312257Y-831916D01*
G01X312303Y-695874D02*
G01X312303Y-615876D01*
G01X170289Y-751919D02*
G01X170289Y-831916D01*
G01X170337Y-695874D02*
G01X170337Y-615876D01*
G01X281275Y-862891D02*
G01X201270Y-862891D01*
G01X201323Y-584898D02*
G01X281325Y-584898D01*
G01X170337Y-615881D02*
G02X201323Y-584898I30983J0D01*
G01X281320Y-584898D02*
G02X312303Y-615881I0J-30983D01*
G01X312257Y-831911D02*
G02X281275Y-862891I-30983J3D01*
G01X201277Y-862891D02*
G02X170289Y-831911I-5J30983D01*
G01X-162481Y-1021243D02*
G01X-82484Y-1021243D01*
G01X-218526Y-1021197D02*
G01X-298524Y-1021197D01*
G01X-162481Y-1163211D02*
G01X-82484Y-1163211D01*
G01X-218526Y-1163163D02*
G01X-298524Y-1163163D01*
G01X-51509Y-1052225D02*
G01X-51509Y-1132230D01*
G01X-329501Y-1132177D02*
G01X-329501Y-1052175D01*
G01X-298519Y-1163163D02*
G02X-329501Y-1132177I0J30983D01*
G01X-329501Y-1052180D02*
G02X-298519Y-1021197I30983J0D01*
G01X-82489Y-1021243D02*
G02X-51509Y-1052225I-3J-30983D01*
G01X-51509Y-1132223D02*
G02X-82489Y-1163211I-30983J-5D01*
G01X-2984429Y-136574D02*
G01X-2984429Y-56576D01*
G01X-2984475Y-192619D02*
G01X-2984475Y-272616D01*
G01X-2842461Y-136574D02*
G01X-2842461Y-56576D01*
G01X-2842509Y-192619D02*
G01X-2842509Y-272616D01*
G01X-2953446Y-25601D02*
G01X-2873442Y-25601D01*
G01X-2873495Y-303594D02*
G01X-2953497Y-303594D01*
G01X-2842509Y-272611D02*
G02X-2873495Y-303594I-30983J0D01*
G01X-2953492Y-303594D02*
G02X-2984475Y-272611I0J30983D01*
G01X-2984429Y-56581D02*
G02X-2953446Y-25601I30983J-3D01*
G01X-2873449Y-25601D02*
G02X-2842461Y-56581I5J-30983D01*
G01X2984337Y137081D02*
G01X2984337Y57084D01*
G01X2984383Y193126D02*
G01X2984383Y273124D01*
G01X2842369Y137081D02*
G01X2842369Y57084D01*
G01X2842417Y193126D02*
G01X2842417Y273124D01*
G01X2953355Y26109D02*
G01X2873350Y26109D01*
G01X2873403Y304102D02*
G01X2953405Y304102D01*
G01X2842417Y273119D02*
G02X2873403Y304102I30983J0D01*
G01X2953400Y304102D02*
G02X2984383Y273119I0J-30983D01*
G01X2984337Y57089D02*
G02X2953355Y26109I-30983J3D01*
G01X2873357Y26109D02*
G02X2842369Y57089I-5J30983D01*
G01X-746948Y-1409700D02*
G01X12700Y-1409700D01*
G01X12700Y-1409700D02*
G01X12700Y-1663700D01*
G01X12700Y-1663700D02*
G01X-1003300Y-1663700D01*
G01X-1003300Y-1663700D02*
G01X-1003300Y-1409700D01*
G01X-1003300Y-1409700D02*
G01X-746948Y-1409700D01*
G01X-746948Y-1409700D02*
G01X-746948Y-1663700D01*
G54D10*
G01X-4061430Y280722D02*
G01X-4061430Y359731D01*
G01X-4061430Y359731D02*
G01X-4046192Y374974D01*
G01X-4046192Y374974D02*
G01X-3976952Y374974D01*
G01X-3976952Y374974D02*
G01X-3961714Y359731D01*
G01X-3961714Y359731D02*
G01X-3961714Y280722D01*
G01X-4061430Y255322D02*
G01X-4061430Y176328D01*
G01X-4061430Y176328D02*
G01X-4046190Y161088D01*
G01X-4046190Y161088D02*
G01X-3977864Y161088D01*
G01X-3977864Y161088D02*
G01X-3961608Y177344D01*
G01X-3961608Y177344D02*
G01X-3961608Y255322D01*
G01X4061430Y-280722D02*
G01X4061430Y-359731D01*
G01X4061430Y-359731D02*
G01X4046192Y-374974D01*
G01X4046192Y-374974D02*
G01X3976952Y-374974D01*
G01X3976952Y-374974D02*
G01X3961714Y-359731D01*
G01X3961714Y-359731D02*
G01X3961714Y-280722D01*
G01X4061430Y-255322D02*
G01X4061430Y-176328D01*
G01X4061430Y-176328D02*
G01X4046190Y-161088D01*
G01X4046190Y-161088D02*
G01X3977864Y-161088D01*
G01X3977864Y-161088D02*
G01X3961608Y-177344D01*
G01X3961608Y-177344D02*
G01X3961608Y-255322D01*
G01X2707670Y280722D02*
G01X2707670Y359731D01*
G01X2707670Y359731D02*
G01X2722908Y374974D01*
G01X2722908Y374974D02*
G01X2792148Y374974D01*
G01X2792148Y374974D02*
G01X2807386Y359731D01*
G01X2807386Y359731D02*
G01X2807386Y280722D01*
G01X2707670Y255322D02*
G01X2707670Y176328D01*
G01X2707670Y176328D02*
G01X2722910Y161088D01*
G01X2722910Y161088D02*
G01X2791236Y161088D01*
G01X2791236Y161088D02*
G01X2807492Y177344D01*
G01X2807492Y177344D02*
G01X2807492Y255322D01*
G01X1689113Y-2324100D02*
G01X1610103Y-2324100D01*
G01X1610103Y-2324100D02*
G01X1594861Y-2308863D01*
G01X1594861Y-2308863D02*
G01X1594861Y-2239622D01*
G01X1594861Y-2239622D02*
G01X1610103Y-2224385D01*
G01X1610103Y-2224385D02*
G01X1689113Y-2224385D01*
G01X1714513Y-2324100D02*
G01X1793507Y-2324100D01*
G01X1793507Y-2324100D02*
G01X1808747Y-2308860D01*
G01X1808747Y-2308860D02*
G01X1808747Y-2240534D01*
G01X1808747Y-2240534D02*
G01X1792491Y-2224278D01*
G01X1792491Y-2224278D02*
G01X1714513Y-2224278D01*
G01X-2707762Y-280214D02*
G01X-2707762Y-359224D01*
G01X-2707762Y-359224D02*
G01X-2723000Y-374466D01*
G01X-2723000Y-374466D02*
G01X-2792240Y-374466D01*
G01X-2792240Y-374466D02*
G01X-2807478Y-359224D01*
G01X-2807478Y-359224D02*
G01X-2807478Y-280214D01*
G01X-2707762Y-254814D02*
G01X-2707762Y-175820D01*
G01X-2707762Y-175820D02*
G01X-2723002Y-160580D01*
G01X-2723002Y-160580D02*
G01X-2791328Y-160580D01*
G01X-2791328Y-160580D02*
G01X-2807584Y-176836D01*
G01X-2807584Y-176836D02*
G01X-2807584Y-254814D01*
G54D13*
G01X2281681Y2218398D02*
G01X2281681Y2661511D01*
G01X2941679Y2218398D02*
G01X2941679Y2661511D01*
G01X2878875Y2004616D02*
G01X2878875Y2051497D01*
G01X2878875Y2004616D02*
G01X2803874Y2004616D01*
G01X2803874Y2004616D02*
G01X2803874Y2051497D01*
G01X2421680Y2004629D02*
G01X2346679Y2004629D01*
G01X2346679Y2004629D02*
G01X2346679Y2051512D01*
G01X2421680Y2004629D02*
G01X2421680Y2051512D01*
G01X2941679Y2218398D02*
G01X2941679Y2051512D01*
G01X2941679Y2051512D02*
G01X2281681Y2051512D01*
G01X2281681Y2051512D02*
G01X2281681Y2218398D01*
G01X3056381Y2218398D02*
G01X3056381Y2661511D01*
G01X3716379Y2218398D02*
G01X3716379Y2661511D01*
G01X3653575Y2004616D02*
G01X3653575Y2051497D01*
G01X3653575Y2004616D02*
G01X3578574Y2004616D01*
G01X3578574Y2004616D02*
G01X3578574Y2051497D01*
G01X3196380Y2004629D02*
G01X3121379Y2004629D01*
G01X3121379Y2004629D02*
G01X3121379Y2051512D01*
G01X3196380Y2004629D02*
G01X3196380Y2051512D01*
G01X3716379Y2218398D02*
G01X3716379Y2051512D01*
G01X3716379Y2051512D02*
G01X3056381Y2051512D01*
G01X3056381Y2051512D02*
G01X3056381Y2218398D01*
G01X3831081Y2218398D02*
G01X3831081Y2661511D01*
G01X4491079Y2218398D02*
G01X4491079Y2661511D01*
G01X4428275Y2004616D02*
G01X4428275Y2051497D01*
G01X4428275Y2004616D02*
G01X4353274Y2004616D01*
G01X4353274Y2004616D02*
G01X4353274Y2051497D01*
G01X3971080Y2004629D02*
G01X3896079Y2004629D01*
G01X3896079Y2004629D02*
G01X3896079Y2051512D01*
G01X3971080Y2004629D02*
G01X3971080Y2051512D01*
G01X4491079Y2218398D02*
G01X4491079Y2051512D01*
G01X4491079Y2051512D02*
G01X3831081Y2051512D01*
G01X3831081Y2051512D02*
G01X3831081Y2218398D01*
G01X-3712719Y2218398D02*
G01X-3712719Y2661511D01*
G01X-3052721Y2218398D02*
G01X-3052721Y2661511D01*
G01X-3115525Y2004616D02*
G01X-3115525Y2051497D01*
G01X-3115525Y2004616D02*
G01X-3190526Y2004616D01*
G01X-3190526Y2004616D02*
G01X-3190526Y2051497D01*
G01X-3572720Y2004629D02*
G01X-3647721Y2004629D01*
G01X-3647721Y2004629D02*
G01X-3647721Y2051512D01*
G01X-3572720Y2004629D02*
G01X-3572720Y2051512D01*
G01X-3052721Y2218398D02*
G01X-3052721Y2051512D01*
G01X-3052721Y2051512D02*
G01X-3712719Y2051512D01*
G01X-3712719Y2051512D02*
G01X-3712719Y2218398D01*
G01X-4487419Y2218398D02*
G01X-4487419Y2661511D01*
G01X-3827421Y2218398D02*
G01X-3827421Y2661511D01*
G01X-3890225Y2004616D02*
G01X-3890225Y2051497D01*
G01X-3890225Y2004616D02*
G01X-3965226Y2004616D01*
G01X-3965226Y2004616D02*
G01X-3965226Y2051497D01*
G01X-4347420Y2004629D02*
G01X-4422421Y2004629D01*
G01X-4422421Y2004629D02*
G01X-4422421Y2051512D01*
G01X-4347420Y2004629D02*
G01X-4347420Y2051512D01*
G01X-3827421Y2218398D02*
G01X-3827421Y2051512D01*
G01X-3827421Y2051512D02*
G01X-4487419Y2051512D01*
G01X-4487419Y2051512D02*
G01X-4487419Y2218398D01*
G01X-2938019Y2218398D02*
G01X-2938019Y2661511D01*
G01X-2278021Y2218398D02*
G01X-2278021Y2661511D01*
G01X-2340825Y2004616D02*
G01X-2340825Y2051497D01*
G01X-2340825Y2004616D02*
G01X-2415826Y2004616D01*
G01X-2415826Y2004616D02*
G01X-2415826Y2051497D01*
G01X-2798020Y2004629D02*
G01X-2873021Y2004629D01*
G01X-2873021Y2004629D02*
G01X-2873021Y2051512D01*
G01X-2798020Y2004629D02*
G01X-2798020Y2051512D01*
G01X-2278021Y2218398D02*
G01X-2278021Y2051512D01*
G01X-2278021Y2051512D02*
G01X-2938019Y2051512D01*
G01X-2938019Y2051512D02*
G01X-2938019Y2218398D01*
G01X3712719Y-2218398D02*
G01X3712719Y-2661511D01*
G01X3052721Y-2218398D02*
G01X3052721Y-2661511D01*
G01X3115525Y-2004616D02*
G01X3115525Y-2051497D01*
G01X3115525Y-2004616D02*
G01X3190526Y-2004616D01*
G01X3190526Y-2004616D02*
G01X3190526Y-2051497D01*
G01X3572720Y-2004629D02*
G01X3647721Y-2004629D01*
G01X3647721Y-2004629D02*
G01X3647721Y-2051512D01*
G01X3572720Y-2004629D02*
G01X3572720Y-2051512D01*
G01X3052721Y-2218398D02*
G01X3052721Y-2051512D01*
G01X3052721Y-2051512D02*
G01X3712719Y-2051512D01*
G01X3712719Y-2051512D02*
G01X3712719Y-2218398D01*
G01X4487419Y-2218398D02*
G01X4487419Y-2661511D01*
G01X3827421Y-2218398D02*
G01X3827421Y-2661511D01*
G01X3890225Y-2004616D02*
G01X3890225Y-2051497D01*
G01X3890225Y-2004616D02*
G01X3965226Y-2004616D01*
G01X3965226Y-2004616D02*
G01X3965226Y-2051497D01*
G01X4347420Y-2004629D02*
G01X4422421Y-2004629D01*
G01X4422421Y-2004629D02*
G01X4422421Y-2051512D01*
G01X4347420Y-2004629D02*
G01X4347420Y-2051512D01*
G01X3827421Y-2218398D02*
G01X3827421Y-2051512D01*
G01X3827421Y-2051512D02*
G01X4487419Y-2051512D01*
G01X4487419Y-2051512D02*
G01X4487419Y-2218398D01*
G01X2938019Y-2218398D02*
G01X2938019Y-2661511D01*
G01X2278021Y-2218398D02*
G01X2278021Y-2661511D01*
G01X2340825Y-2004616D02*
G01X2340825Y-2051497D01*
G01X2340825Y-2004616D02*
G01X2415826Y-2004616D01*
G01X2415826Y-2004616D02*
G01X2415826Y-2051497D01*
G01X2798020Y-2004629D02*
G01X2873021Y-2004629D01*
G01X2873021Y-2004629D02*
G01X2873021Y-2051512D01*
G01X2798020Y-2004629D02*
G01X2798020Y-2051512D01*
G01X2278021Y-2218398D02*
G01X2278021Y-2051512D01*
G01X2278021Y-2051512D02*
G01X2938019Y-2051512D01*
G01X2938019Y-2051512D02*
G01X2938019Y-2218398D01*
G01X-3056473Y-2217890D02*
G01X-3056473Y-2661003D01*
G01X-3716471Y-2217890D02*
G01X-3716471Y-2661003D01*
G01X-3653667Y-2004108D02*
G01X-3653667Y-2050989D01*
G01X-3653667Y-2004108D02*
G01X-3578666Y-2004108D01*
G01X-3578666Y-2004108D02*
G01X-3578666Y-2050989D01*
G01X-3196472Y-2004121D02*
G01X-3121471Y-2004121D01*
G01X-3121471Y-2004121D02*
G01X-3121471Y-2051004D01*
G01X-3196472Y-2004121D02*
G01X-3196472Y-2051004D01*
G01X-3716471Y-2217890D02*
G01X-3716471Y-2051004D01*
G01X-3716471Y-2051004D02*
G01X-3056473Y-2051004D01*
G01X-3056473Y-2051004D02*
G01X-3056473Y-2217890D01*
G01X-2281773Y-2217890D02*
G01X-2281773Y-2661003D01*
G01X-2941771Y-2217890D02*
G01X-2941771Y-2661003D01*
G01X-2878967Y-2004108D02*
G01X-2878967Y-2050989D01*
G01X-2878967Y-2004108D02*
G01X-2803966Y-2004108D01*
G01X-2803966Y-2004108D02*
G01X-2803966Y-2050989D01*
G01X-2421772Y-2004121D02*
G01X-2346771Y-2004121D01*
G01X-2346771Y-2004121D02*
G01X-2346771Y-2051004D01*
G01X-2421772Y-2004121D02*
G01X-2421772Y-2051004D01*
G01X-2941771Y-2217890D02*
G01X-2941771Y-2051004D01*
G01X-2941771Y-2051004D02*
G01X-2281773Y-2051004D01*
G01X-2281773Y-2051004D02*
G01X-2281773Y-2217890D01*
G01X-3831173Y-2217890D02*
G01X-3831173Y-2661003D01*
G01X-4491171Y-2217890D02*
G01X-4491171Y-2661003D01*
G01X-4428367Y-2004108D02*
G01X-4428367Y-2050989D01*
G01X-4428367Y-2004108D02*
G01X-4353366Y-2004108D01*
G01X-4353366Y-2004108D02*
G01X-4353366Y-2050989D01*
G01X-3971172Y-2004121D02*
G01X-3896171Y-2004121D01*
G01X-3896171Y-2004121D02*
G01X-3896171Y-2051004D01*
G01X-3971172Y-2004121D02*
G01X-3971172Y-2051004D01*
G01X-4491171Y-2217890D02*
G01X-4491171Y-2051004D01*
G01X-4491171Y-2051004D02*
G01X-3831173Y-2051004D01*
G01X-3831173Y-2051004D02*
G01X-3831173Y-2217890D01*
G54D10*
G01X-3497560Y499821D02*
G01X-3497560Y595709D01*
G01X-3497560Y595709D02*
G01X-3629680Y595709D01*
G01X-3629680Y595709D02*
G01X-3629680Y499821D01*
G01X-3497560Y414579D02*
G01X-3497560Y318691D01*
G01X-3497560Y318691D02*
G01X-3629680Y318691D01*
G01X-3629680Y318691D02*
G01X-3629680Y414579D01*
G01X2422389Y1553921D02*
G01X2422389Y1649809D01*
G01X2422389Y1649809D02*
G01X2290268Y1649809D01*
G01X2290268Y1649809D02*
G01X2290268Y1553921D01*
G01X2422389Y1468679D02*
G01X2422389Y1372791D01*
G01X2422389Y1372791D02*
G01X2290268Y1372791D01*
G01X2290268Y1372791D02*
G01X2290268Y1468679D01*
G01X-3572011Y1553921D02*
G01X-3572011Y1649809D01*
G01X-3572011Y1649809D02*
G01X-3704132Y1649809D01*
G01X-3704132Y1649809D02*
G01X-3704132Y1553921D01*
G01X-3572011Y1468679D02*
G01X-3572011Y1372791D01*
G01X-3572011Y1372791D02*
G01X-3704132Y1372791D01*
G01X-3704132Y1372791D02*
G01X-3704132Y1468679D01*
G01X-2797311Y1553921D02*
G01X-2797311Y1649809D01*
G01X-2797311Y1649809D02*
G01X-2929432Y1649809D01*
G01X-2929432Y1649809D02*
G01X-2929432Y1553921D01*
G01X-2797311Y1468679D02*
G01X-2797311Y1372791D01*
G01X-2797311Y1372791D02*
G01X-2929432Y1372791D01*
G01X-2929432Y1372791D02*
G01X-2929432Y1468679D01*
G01X-4346711Y1553921D02*
G01X-4346711Y1649809D01*
G01X-4346711Y1649809D02*
G01X-4478832Y1649809D01*
G01X-4478832Y1649809D02*
G01X-4478832Y1553921D01*
G01X-4346711Y1468679D02*
G01X-4346711Y1372791D01*
G01X-4346711Y1372791D02*
G01X-4478832Y1372791D01*
G01X-4478832Y1372791D02*
G01X-4478832Y1468679D01*
G01X3497560Y-499821D02*
G01X3497560Y-595709D01*
G01X3497560Y-595709D02*
G01X3629680Y-595709D01*
G01X3629680Y-595709D02*
G01X3629680Y-499821D01*
G01X3497560Y-414579D02*
G01X3497560Y-318691D01*
G01X3497560Y-318691D02*
G01X3629680Y-318691D01*
G01X3629680Y-318691D02*
G01X3629680Y-414579D01*
G01X3271540Y499821D02*
G01X3271540Y595709D01*
G01X3271540Y595709D02*
G01X3139420Y595709D01*
G01X3139420Y595709D02*
G01X3139420Y499821D01*
G01X3271540Y414579D02*
G01X3271540Y318691D01*
G01X3271540Y318691D02*
G01X3139420Y318691D01*
G01X3139420Y318691D02*
G01X3139420Y414579D01*
G01X3197089Y1553921D02*
G01X3197089Y1649809D01*
G01X3197089Y1649809D02*
G01X3064968Y1649809D01*
G01X3064968Y1649809D02*
G01X3064968Y1553921D01*
G01X3197089Y1468679D02*
G01X3197089Y1372791D01*
G01X3197089Y1372791D02*
G01X3064968Y1372791D01*
G01X3064968Y1372791D02*
G01X3064968Y1468679D01*
G01X3971789Y1553921D02*
G01X3971789Y1649809D01*
G01X3971789Y1649809D02*
G01X3839668Y1649809D01*
G01X3839668Y1649809D02*
G01X3839668Y1553921D01*
G01X3971789Y1468679D02*
G01X3971789Y1372791D01*
G01X3971789Y1372791D02*
G01X3839668Y1372791D01*
G01X3839668Y1372791D02*
G01X3839668Y1468679D01*
G01X3572011Y-1553921D02*
G01X3572011Y-1649809D01*
G01X3572011Y-1649809D02*
G01X3704132Y-1649809D01*
G01X3704132Y-1649809D02*
G01X3704132Y-1553921D01*
G01X3572011Y-1468679D02*
G01X3572011Y-1372791D01*
G01X3572011Y-1372791D02*
G01X3704132Y-1372791D01*
G01X3704132Y-1372791D02*
G01X3704132Y-1468679D01*
G01X2797311Y-1553921D02*
G01X2797311Y-1649809D01*
G01X2797311Y-1649809D02*
G01X2929432Y-1649809D01*
G01X2929432Y-1649809D02*
G01X2929432Y-1553921D01*
G01X2797311Y-1468679D02*
G01X2797311Y-1372791D01*
G01X2797311Y-1372791D02*
G01X2929432Y-1372791D01*
G01X2929432Y-1372791D02*
G01X2929432Y-1468679D01*
G01X4346711Y-1553921D02*
G01X4346711Y-1649809D01*
G01X4346711Y-1649809D02*
G01X4478832Y-1649809D01*
G01X4478832Y-1649809D02*
G01X4478832Y-1553921D01*
G01X4346711Y-1468679D02*
G01X4346711Y-1372791D01*
G01X4346711Y-1372791D02*
G01X4478832Y-1372791D01*
G01X4478832Y-1372791D02*
G01X4478832Y-1468679D01*
G01X-3271632Y-499313D02*
G01X-3271632Y-595201D01*
G01X-3271632Y-595201D02*
G01X-3139512Y-595201D01*
G01X-3139512Y-595201D02*
G01X-3139512Y-499313D01*
G01X-3271632Y-414071D02*
G01X-3271632Y-318184D01*
G01X-3271632Y-318184D02*
G01X-3139512Y-318184D01*
G01X-3139512Y-318184D02*
G01X-3139512Y-414071D01*
G01X-3197181Y-1553413D02*
G01X-3197181Y-1649301D01*
G01X-3197181Y-1649301D02*
G01X-3065060Y-1649301D01*
G01X-3065060Y-1649301D02*
G01X-3065060Y-1553413D01*
G01X-3197181Y-1468171D02*
G01X-3197181Y-1372284D01*
G01X-3197181Y-1372284D02*
G01X-3065060Y-1372284D01*
G01X-3065060Y-1372284D02*
G01X-3065060Y-1468171D01*
G01X-3971881Y-1553413D02*
G01X-3971881Y-1649301D01*
G01X-3971881Y-1649301D02*
G01X-3839760Y-1649301D01*
G01X-3839760Y-1649301D02*
G01X-3839760Y-1553413D01*
G01X-3971881Y-1468171D02*
G01X-3971881Y-1372284D01*
G01X-3971881Y-1372284D02*
G01X-3839760Y-1372284D01*
G01X-3839760Y-1372284D02*
G01X-3839760Y-1468171D01*
G01X-2422481Y-1553413D02*
G01X-2422481Y-1649301D01*
G01X-2422481Y-1649301D02*
G01X-2290360Y-1649301D01*
G01X-2290360Y-1649301D02*
G01X-2290360Y-1553413D01*
G01X-2422481Y-1468171D02*
G01X-2422481Y-1372284D01*
G01X-2422481Y-1372284D02*
G01X-2290360Y-1372284D01*
G01X-2290360Y-1372284D02*
G01X-2290360Y-1468171D01*
G01X-2269691Y1488689D02*
G01X-2269691Y1184407D01*
G01X-2269691Y1184407D02*
G01X-2774933Y1184407D01*
G01X-2774933Y1184407D02*
G01X-2774933Y1488689D01*
G01X-2774933Y1488689D02*
G01X-2269691Y1488689D01*
G01X83038Y132621D02*
G01X157607Y132621D01*
G01X157607Y132621D02*
G01X157607Y108049D01*
G01X83038Y-132621D02*
G01X157607Y-132621D01*
G01X157607Y-132621D02*
G01X157607Y-108049D01*
G01X-83063Y132621D02*
G01X-157632Y132621D01*
G01X-157632Y132621D02*
G01X-157632Y108049D01*
G01X-83063Y-132621D02*
G01X-157632Y-132621D01*
G01X-157632Y-132621D02*
G01X-157632Y-108049D01*
G54D13*
G01X1770609Y-46502D02*
G01X1765003Y-46502D01*
G01X2044997Y-46502D02*
G01X2039391Y-46502D01*
G01X1770609Y173502D02*
G01X1765003Y173502D01*
G01X2044997Y173502D02*
G01X2039391Y173502D01*
G01X1765003Y173502D02*
G01X1765003Y-46502D01*
G01X2044997Y173502D02*
G01X2044997Y-46502D01*
G54D14*
G01X94600Y-665500D02*
G01X135230Y-665500D01*
G01X135230Y-665500D02*
G01X135230Y-706120D01*
G01X134600Y-945500D02*
G01X134600Y-986132D01*
G01X134600Y-986132D02*
G01X93980Y-986132D01*
G01X-185400Y-985500D02*
G01X-185400Y-944877D01*
G01X-185400Y-705500D02*
G01X-185400Y-664870D01*
G01X-185400Y-664870D02*
G01X-144780Y-664870D01*
G01X-144772Y-985500D02*
G01X-185400Y-985500D01*
G54D16*
G01X144600Y-905500D02*
G03X169598Y-905373I12499J127D01*
G03X144600Y-905246I-12499J0D01*
G54D10*
G01X-3819091Y1488689D02*
G01X-3819091Y1184407D01*
G01X-3819091Y1184407D02*
G01X-4324333Y1184407D01*
G01X-4324333Y1184407D02*
G01X-4324333Y1488689D01*
G01X-4324333Y1488689D02*
G01X-3819091Y1488689D01*
G01X-3044391Y1488689D02*
G01X-3044391Y1184407D01*
G01X-3044391Y1184407D02*
G01X-3549633Y1184407D01*
G01X-3549633Y1184407D02*
G01X-3549633Y1488689D01*
G01X-3549633Y1488689D02*
G01X-3044391Y1488689D01*
G01X2269691Y-1488689D02*
G01X2269691Y-1184407D01*
G01X2269691Y-1184407D02*
G01X2774933Y-1184407D01*
G01X2774933Y-1184407D02*
G01X2774933Y-1488689D01*
G01X2774933Y-1488689D02*
G01X2269691Y-1488689D01*
G01X3819091Y-1488689D02*
G01X3819091Y-1184407D01*
G01X3819091Y-1184407D02*
G01X4324333Y-1184407D01*
G01X4324333Y-1184407D02*
G01X4324333Y-1488689D01*
G01X4324333Y-1488689D02*
G01X3819091Y-1488689D01*
G01X3044391Y-1488689D02*
G01X3044391Y-1184407D01*
G01X3044391Y-1184407D02*
G01X3549633Y-1184407D01*
G01X3549633Y-1184407D02*
G01X3549633Y-1488689D01*
G01X3549633Y-1488689D02*
G01X3044391Y-1488689D01*
G01X-4499501Y-1488181D02*
G01X-4499501Y-1183899D01*
G01X-4499501Y-1183899D02*
G01X-3994259Y-1183899D01*
G01X-3994259Y-1183899D02*
G01X-3994259Y-1488181D01*
G01X-3994259Y-1488181D02*
G01X-4499501Y-1488181D01*
G01X-2950101Y-1488181D02*
G01X-2950101Y-1183899D01*
G01X-2950101Y-1183899D02*
G01X-2444859Y-1183899D01*
G01X-2444859Y-1183899D02*
G01X-2444859Y-1488181D01*
G01X-2444859Y-1488181D02*
G01X-2950101Y-1488181D01*
G01X2950009Y1488689D02*
G01X2950009Y1184407D01*
G01X2950009Y1184407D02*
G01X2444767Y1184407D01*
G01X2444767Y1184407D02*
G01X2444767Y1488689D01*
G01X2444767Y1488689D02*
G01X2950009Y1488689D01*
G01X3724709Y1488689D02*
G01X3724709Y1184407D01*
G01X3724709Y1184407D02*
G01X3219467Y1184407D01*
G01X3219467Y1184407D02*
G01X3219467Y1488689D01*
G01X3219467Y1488689D02*
G01X3724709Y1488689D01*
G01X4499409Y1488689D02*
G01X4499409Y1184407D01*
G01X4499409Y1184407D02*
G01X3994167Y1184407D01*
G01X3994167Y1184407D02*
G01X3994167Y1488689D01*
G01X3994167Y1488689D02*
G01X4499409Y1488689D01*
G01X-3724801Y-1488181D02*
G01X-3724801Y-1183899D01*
G01X-3724801Y-1183899D02*
G01X-3219559Y-1183899D01*
G01X-3219559Y-1183899D02*
G01X-3219559Y-1488181D01*
G01X-3219559Y-1488181D02*
G01X-3724801Y-1488181D01*
G01X816154Y-221344D02*
G01X766154Y-221344D01*
G01X831397Y-136866D02*
G01X831397Y-206107D01*
G01X766154Y-121626D02*
G01X816154Y-121626D01*
G01X671877Y-121840D02*
G01X721877Y-121840D01*
G01X721877Y-221553D02*
G01X671877Y-221553D01*
G01X656634Y-206318D02*
G01X656634Y-137075D01*
G01X671877Y-221555D02*
G02X656637Y-206315I0J15240D01*
G01X656637Y-137075D02*
G02X671877Y-121835I15240J0D01*
G01X816154Y-121626D02*
G02X831394Y-136866I0J-15240D01*
G01X831394Y-206107D02*
G02X816154Y-221347I-15240J0D01*
G01X1096261Y-1956846D02*
G01X1146261Y-1956846D01*
G01X1081019Y-2041324D02*
G01X1081019Y-1972084D01*
G01X1146261Y-2056564D02*
G01X1096261Y-2056564D01*
G01X1240539Y-2056351D02*
G01X1190539Y-2056351D01*
G01X1190539Y-1956638D02*
G01X1240539Y-1956638D01*
G01X1255781Y-1971873D02*
G01X1255781Y-2041116D01*
G01X1240539Y-1956636D02*
G02X1255779Y-1971876I0J-15240D01*
G01X1255779Y-2041116D02*
G02X1240539Y-2056356I-15240J0D01*
G01X1096261Y-2056564D02*
G02X1081021Y-2041324I0J15240D01*
G01X1081021Y-1972084D02*
G02X1096261Y-1956844I15240J0D01*
G01X418054Y-1655061D02*
G01X418054Y-1705061D01*
G01X333576Y-1639819D02*
G01X402816Y-1639819D01*
G01X318336Y-1705061D02*
G01X318336Y-1655061D01*
G01X318549Y-1799339D02*
G01X318549Y-1749339D01*
G01X418262Y-1749339D02*
G01X418262Y-1799339D01*
G01X403027Y-1814581D02*
G01X333784Y-1814581D01*
G01X418264Y-1799339D02*
G02X403024Y-1814579I-15240J0D01*
G01X333784Y-1814579D02*
G02X318544Y-1799339I0J15240D01*
G01X318336Y-1655061D02*
G02X333576Y-1639821I15240J0D01*
G01X402816Y-1639821D02*
G02X418056Y-1655061I0J-15240D01*
G01X2782319Y394746D02*
G01X2732319Y394746D01*
G01X2797561Y479224D02*
G01X2797561Y409984D01*
G01X2732319Y494464D02*
G01X2782319Y494464D01*
G01X2638041Y494251D02*
G01X2688041Y494251D01*
G01X2688041Y394538D02*
G01X2638041Y394538D01*
G01X2622799Y409773D02*
G01X2622799Y479016D01*
G01X2638041Y394536D02*
G02X2622801Y409776I0J15240D01*
G01X2622801Y479016D02*
G02X2638041Y494256I15240J0D01*
G01X2782319Y494464D02*
G02X2797559Y479224I0J-15240D01*
G01X2797559Y409984D02*
G02X2782319Y394744I-15240J0D01*
G01X1629661Y-1969546D02*
G01X1679661Y-1969546D01*
G01X1614419Y-2054024D02*
G01X1614419Y-1984784D01*
G01X1679661Y-2069264D02*
G01X1629661Y-2069264D01*
G01X1773939Y-2069051D02*
G01X1723939Y-2069051D01*
G01X1723939Y-1969338D02*
G01X1773939Y-1969338D01*
G01X1789181Y-1984573D02*
G01X1789181Y-2053816D01*
G01X1773939Y-1969336D02*
G02X1789179Y-1984576I0J-15240D01*
G01X1789179Y-2053816D02*
G02X1773939Y-2069056I-15240J0D01*
G01X1629661Y-2069264D02*
G02X1614421Y-2054024I0J15240D01*
G01X1614421Y-1984784D02*
G02X1629661Y-1969544I15240J0D01*
G01X1629661Y-2096546D02*
G01X1679661Y-2096546D01*
G01X1614419Y-2181024D02*
G01X1614419Y-2111784D01*
G01X1679661Y-2196264D02*
G01X1629661Y-2196264D01*
G01X1773939Y-2196051D02*
G01X1723939Y-2196051D01*
G01X1723939Y-2096338D02*
G01X1773939Y-2096338D01*
G01X1789181Y-2111573D02*
G01X1789181Y-2180816D01*
G01X1773939Y-2096336D02*
G02X1789179Y-2111576I0J-15240D01*
G01X1789179Y-2180816D02*
G02X1773939Y-2196056I-15240J0D01*
G01X1629661Y-2196264D02*
G02X1614421Y-2181024I0J15240D01*
G01X1614421Y-2111784D02*
G02X1629661Y-2096544I15240J0D01*
G54D13*
G01X429181Y-2001357D02*
G01X349184Y-2001357D01*
G01X485226Y-2001403D02*
G01X565224Y-2001403D01*
G01X429181Y-1859389D02*
G01X349184Y-1859389D01*
G01X485226Y-1859437D02*
G01X565224Y-1859437D01*
G01X318209Y-1970375D02*
G01X318209Y-1890370D01*
G01X596202Y-1890423D02*
G01X596202Y-1970425D01*
G01X565219Y-1859437D02*
G02X596202Y-1890423I0J-30983D01*
G01X596202Y-1970420D02*
G02X565219Y-2001403I-30983J0D01*
G01X349189Y-2001357D02*
G02X318209Y-1970375I3J30983D01*
G01X318209Y-1890377D02*
G02X349189Y-1859389I30983J5D01*
G54D10*
G01X3139201Y126060D02*
G01X3211005Y126060D01*
G01X3211005Y126060D02*
G01X3211005Y26340D01*
G01X3211005Y26340D02*
G01X3139201Y26340D01*
G01X3093959Y126060D02*
G01X3022156Y126060D01*
G01X3022156Y126060D02*
G01X3022156Y26340D01*
G01X3022156Y26340D02*
G01X3093959Y26340D01*
G01X2638041Y621254D02*
G01X2688041Y621254D01*
G01X2622799Y536776D02*
G01X2622799Y606016D01*
G01X2688041Y521536D02*
G01X2638041Y521536D01*
G01X2782319Y521749D02*
G01X2732319Y521749D01*
G01X2732319Y621462D02*
G01X2782319Y621462D01*
G01X2797561Y606227D02*
G01X2797561Y536984D01*
G01X2782319Y621464D02*
G02X2797559Y606224I0J-15240D01*
G01X2797559Y536984D02*
G02X2782319Y521744I-15240J0D01*
G01X2638041Y521536D02*
G02X2622801Y536776I0J15240D01*
G01X2622801Y606016D02*
G02X2638041Y621256I15240J0D01*
G01X-4131059Y621254D02*
G01X-4081059Y621254D01*
G01X-4146301Y536776D02*
G01X-4146301Y606016D01*
G01X-4081059Y521536D02*
G01X-4131059Y521536D01*
G01X-3986781Y521749D02*
G01X-4036781Y521749D01*
G01X-4036781Y621462D02*
G01X-3986781Y621462D01*
G01X-3971539Y606227D02*
G01X-3971539Y536984D01*
G01X-3986781Y621464D02*
G02X-3971541Y606224I0J-15240D01*
G01X-3971541Y536984D02*
G02X-3986781Y521744I-15240J0D01*
G01X-4131059Y521536D02*
G02X-4146299Y536776I0J15240D01*
G01X-4146299Y606016D02*
G02X-4131059Y621256I15240J0D01*
G01X4131059Y-621254D02*
G01X4081059Y-621254D01*
G01X4146301Y-536776D02*
G01X4146301Y-606016D01*
G01X4081059Y-521536D02*
G01X4131059Y-521536D01*
G01X3986781Y-521749D02*
G01X4036781Y-521749D01*
G01X4036781Y-621462D02*
G01X3986781Y-621462D01*
G01X3971539Y-606227D02*
G01X3971539Y-536984D01*
G01X3986781Y-621464D02*
G02X3971541Y-606224I0J15240D01*
G01X3971541Y-536984D02*
G02X3986781Y-521744I15240J0D01*
G01X4131059Y-521536D02*
G02X4146299Y-536776I0J-15240D01*
G01X4146299Y-606016D02*
G02X4131059Y-621256I-15240J0D01*
G01X-2638133Y-620746D02*
G01X-2688133Y-620746D01*
G01X-2622891Y-536268D02*
G01X-2622891Y-605508D01*
G01X-2688133Y-521028D02*
G01X-2638133Y-521028D01*
G01X-2782410Y-521241D02*
G01X-2732411Y-521241D01*
G01X-2732411Y-620954D02*
G01X-2782410Y-620954D01*
G01X-2797653Y-605719D02*
G01X-2797653Y-536476D01*
G01X-2782410Y-620957D02*
G02X-2797650Y-605717I0J15240D01*
G01X-2797650Y-536476D02*
G02X-2782410Y-521236I15240J0D01*
G01X-2638133Y-521028D02*
G02X-2622893Y-536268I0J-15240D01*
G01X-2622893Y-605508D02*
G02X-2638133Y-620748I-15240J0D01*
G01X-3986781Y394746D02*
G01X-4036781Y394746D01*
G01X-3971539Y479224D02*
G01X-3971539Y409984D01*
G01X-4036781Y494464D02*
G01X-3986781Y494464D01*
G01X-4131059Y494251D02*
G01X-4081059Y494251D01*
G01X-4081059Y394538D02*
G01X-4131059Y394538D01*
G01X-4146301Y409773D02*
G01X-4146301Y479016D01*
G01X-4131059Y394536D02*
G02X-4146299Y409776I0J15240D01*
G01X-4146299Y479016D02*
G02X-4131059Y494256I15240J0D01*
G01X-3986781Y494464D02*
G02X-3971541Y479224I0J-15240D01*
G01X-3971541Y409984D02*
G02X-3986781Y394744I-15240J0D01*
G01X3986781Y-394746D02*
G01X4036781Y-394746D01*
G01X3971539Y-479224D02*
G01X3971539Y-409984D01*
G01X4036781Y-494464D02*
G01X3986781Y-494464D01*
G01X4131059Y-494251D02*
G01X4081059Y-494251D01*
G01X4081059Y-394538D02*
G01X4131059Y-394538D01*
G01X4146301Y-409773D02*
G01X4146301Y-479016D01*
G01X4131059Y-394536D02*
G02X4146299Y-409776I0J-15240D01*
G01X4146299Y-479016D02*
G02X4131059Y-494256I-15240J0D01*
G01X3986781Y-494464D02*
G02X3971541Y-479224I0J15240D01*
G01X3971541Y-409984D02*
G02X3986781Y-394744I15240J0D01*
G01X-2782410Y-394239D02*
G01X-2732411Y-394239D01*
G01X-2797653Y-478717D02*
G01X-2797653Y-409476D01*
G01X-2732411Y-493957D02*
G01X-2782410Y-493957D01*
G01X-2638133Y-493743D02*
G01X-2688133Y-493743D01*
G01X-2688133Y-394030D02*
G01X-2638133Y-394030D01*
G01X-2622891Y-409265D02*
G01X-2622891Y-478508D01*
G01X-2638133Y-394028D02*
G02X-2622893Y-409268I0J-15240D01*
G01X-2622893Y-478508D02*
G02X-2638133Y-493748I-15240J0D01*
G01X-2782410Y-493957D02*
G02X-2797650Y-478717I0J15240D01*
G01X-2797650Y-409476D02*
G02X-2782410Y-394236I15240J0D01*
G54D13*
G01X1031319Y-56043D02*
G01X1111316Y-56043D01*
G01X975274Y-55997D02*
G01X895276Y-55997D01*
G01X1031319Y-198011D02*
G01X1111316Y-198011D01*
G01X975274Y-197963D02*
G01X895276Y-197963D01*
G01X1142291Y-87025D02*
G01X1142291Y-167030D01*
G01X864299Y-166977D02*
G01X864299Y-86975D01*
G01X895281Y-197963D02*
G02X864299Y-166977I0J30983D01*
G01X864299Y-86980D02*
G02X895281Y-55997I30983J0D01*
G01X1111311Y-56043D02*
G02X1142291Y-87025I-3J-30983D01*
G01X1142291Y-167023D02*
G02X1111311Y-198011I-30983J-5D01*
G01X-130614Y411338D02*
G01X1669382Y411338D01*
G01X1669382Y411338D02*
G01X1669382Y2211334D01*
G01X1669382Y2211334D02*
G01X-130614Y2211334D01*
G01X-130614Y2211334D02*
G01X-130614Y411338D01*
G01X881380Y955040D02*
G03X854753Y948228I-88915J292095D01*
G01X855980Y1069340D02*
G03X832259Y1053559I-101599J127000D01*
G54D10*
G01X1350721Y-2237760D02*
G01X1446609Y-2237760D01*
G01X1446609Y-2237760D02*
G01X1446609Y-2105640D01*
G01X1446609Y-2105640D02*
G01X1350721Y-2105640D01*
G01X1265479Y-2237760D02*
G01X1169591Y-2237760D01*
G01X1169591Y-2237760D02*
G01X1169591Y-2105640D01*
G01X1169591Y-2105640D02*
G01X1265479Y-2105640D01*
G01X-457035Y725150D02*
G01X-365950Y725150D01*
G01X-565114Y725150D02*
G01X-565114Y549905D01*
G01X-565114Y549905D02*
G01X-460954Y549905D01*
G01X-257871Y725150D02*
G01X-257871Y549905D01*
G01X-257871Y549905D02*
G01X-362031Y549905D01*
G01X-908012Y725147D02*
G01X-908012Y549907D01*
G01X-908012Y549907D02*
G01X-803852Y549907D01*
G01X-600773Y725147D02*
G01X-600773Y549907D01*
G01X-600773Y549907D02*
G01X-704934Y549907D01*
G01X-799932Y725147D02*
G01X-708853Y725147D01*
G01X191546Y-110239D02*
G01X191546Y-60239D01*
G01X276024Y-125481D02*
G01X206784Y-125481D01*
G01X291264Y-60239D02*
G01X291264Y-110239D01*
G01X291051Y34039D02*
G01X291051Y-15961D01*
G01X191338Y-15961D02*
G01X191338Y34039D01*
G01X206573Y49281D02*
G01X275816Y49281D01*
G01X191336Y34039D02*
G02X206576Y49279I15240J0D01*
G01X275816Y49279D02*
G02X291056Y34039I0J-15240D01*
G01X291264Y-110239D02*
G02X276024Y-125479I-15240J0D01*
G01X206784Y-125479D02*
G02X191544Y-110239I0J15240D01*
G01X-288554Y346486D02*
G01X-338554Y346486D01*
G01X-273312Y430964D02*
G01X-273312Y361724D01*
G01X-338554Y446204D02*
G01X-288554Y446204D01*
G01X-432831Y445991D02*
G01X-382831Y445991D01*
G01X-382831Y346278D02*
G01X-432831Y346278D01*
G01X-448074Y361513D02*
G01X-448074Y430756D01*
G01X-432831Y346276D02*
G02X-448071Y361516I0J15240D01*
G01X-448071Y430756D02*
G02X-432831Y445996I15240J0D01*
G01X-288554Y446204D02*
G02X-273314Y430964I0J-15240D01*
G01X-273314Y361724D02*
G02X-288554Y346484I-15240J0D01*
G01X-385061Y818011D02*
G01X-435061Y818011D01*
G01X-369819Y902489D02*
G01X-369819Y833248D01*
G01X-435061Y917729D02*
G01X-385061Y917729D01*
G01X-529339Y917515D02*
G01X-479339Y917515D01*
G01X-479339Y817803D02*
G01X-529339Y817803D01*
G01X-544581Y833037D02*
G01X-544581Y902280D01*
G01X-529339Y817800D02*
G02X-544579Y833040I0J15240D01*
G01X-544579Y902280D02*
G02X-529339Y917520I15240J0D01*
G01X-385061Y917729D02*
G02X-369821Y902489I0J-15240D01*
G01X-369821Y833248D02*
G02X-385061Y818008I-15240J0D01*
G01X-727961Y829086D02*
G01X-777961Y829086D01*
G01X-712719Y913564D02*
G01X-712719Y844324D01*
G01X-777961Y928804D02*
G01X-727961Y928804D01*
G01X-872239Y928591D02*
G01X-822239Y928591D01*
G01X-822239Y828878D02*
G01X-872239Y828878D01*
G01X-887481Y844113D02*
G01X-887481Y913356D01*
G01X-872239Y828876D02*
G02X-887479Y844116I0J15240D01*
G01X-887479Y913356D02*
G02X-872239Y928596I15240J0D01*
G01X-727961Y928804D02*
G02X-712721Y913564I0J-15240D01*
G01X-712721Y844324D02*
G02X-727961Y829084I-15240J0D01*
G01X-631454Y333786D02*
G01X-681454Y333786D01*
G01X-616212Y418264D02*
G01X-616212Y349024D01*
G01X-681454Y433504D02*
G01X-631454Y433504D01*
G01X-775731Y433291D02*
G01X-725731Y433291D01*
G01X-725731Y333578D02*
G01X-775731Y333578D01*
G01X-790974Y348813D02*
G01X-790974Y418056D01*
G01X-775731Y333576D02*
G02X-790971Y348816I0J15240D01*
G01X-790971Y418056D02*
G02X-775731Y433296I15240J0D01*
G01X-631454Y433504D02*
G02X-616214Y418264I0J-15240D01*
G01X-616214Y349024D02*
G02X-631454Y333784I-15240J0D01*
G01X443560Y231379D02*
G01X443560Y159576D01*
G01X443560Y159576D02*
G01X343840Y159576D01*
G01X343840Y159576D02*
G01X343840Y231379D01*
G01X443560Y276621D02*
G01X443560Y348425D01*
G01X443560Y348425D02*
G01X343840Y348425D01*
G01X343840Y348425D02*
G01X343840Y276621D01*
G01X316560Y231379D02*
G01X316560Y159576D01*
G01X316560Y159576D02*
G01X216840Y159576D01*
G01X216840Y159576D02*
G01X216840Y231379D01*
G01X316560Y276621D02*
G01X316560Y348425D01*
G01X316560Y348425D02*
G01X216840Y348425D01*
G01X216840Y348425D02*
G01X216840Y276621D01*
G54D13*
G01X-461128Y-3585615D02*
G01X-461128Y-2169075D01*
G01X-2011122Y-3585615D02*
G01X-2011122Y-2169075D01*
G01X-461128Y-3585615D02*
G01X-2011122Y-3585615D01*
G01X-781768Y-1778146D02*
G01X-636767Y-1778908D01*
G01X-1509955Y-1774318D02*
G01X-968503Y-1777163D01*
G01X-1842322Y-1772571D02*
G01X-1680252Y-1773422D01*
G01X-2010825Y-2175374D02*
G02X-1842322Y-1772571I599829J-14278D01*
G01X-461425Y-2180175D02*
G03X-629929Y-1777371I-599829J-14278D01*
G01X1828797Y-2939024D02*
G01X1828797Y-2749395D01*
G01X914397Y-3157403D02*
G01X914397Y-3314710D01*
G01X914397Y-3314710D02*
G01X1828797Y-3314710D01*
G01X1828797Y-3314710D02*
G01X1828797Y-3157403D01*
G01X914397Y-2749395D02*
G01X914397Y-2939024D01*
G01X-2014705Y-1320790D02*
G01X-2335406Y-1320790D01*
G01X-2335406Y-1320790D02*
G01X-2335406Y127010D01*
G01X-2335406Y127010D02*
G01X-2014705Y127010D01*
G01X-1674706Y127010D02*
G01X-544706Y127010D01*
G01X-544706Y127010D02*
G01X-544706Y-75786D01*
G01X-544706Y-1111011D02*
G01X-544706Y-1320790D01*
G01X-544706Y-1320790D02*
G01X-1674706Y-1320790D01*
G54D17*
G01X695800Y-467200D02*
G01X695800Y-1717200D01*
G01X695800Y-1717200D02*
G01X1945800Y-1717200D01*
G01X1945800Y-1717200D02*
G01X1945800Y-467200D01*
G01X1945800Y-467200D02*
G01X695800Y-467200D01*
G54D18*
G01X795782Y-1587246D02*
G03X796036Y-1647245I254J-29999D01*
G03X796290Y-1587246I0J30000D01*
G54D19*
G01X632460Y-1861820D02*
G03X632587Y-1891822I127J-15001D01*
G03X632714Y-1861820I0J15001D01*
G54D13*
G01X1288Y-2779098D02*
G01X1288Y-3139097D01*
G01X1288Y-3139097D02*
G01X345Y-3139097D01*
G01X-46690Y-2779100D02*
G01X-46690Y-3139100D01*
G01X-46690Y-3139100D02*
G01X-47633Y-3139100D01*
G01X-94668Y-2779100D02*
G01X-94668Y-3139100D01*
G01X-94668Y-3139100D02*
G01X-95611Y-3139100D01*
G01X49266Y-2779100D02*
G01X49266Y-3139100D01*
G01X49266Y-3139100D02*
G01X48324Y-3139100D01*
G01X97244Y-2779100D02*
G01X97244Y-3139100D01*
G01X97244Y-3139100D02*
G01X102888Y-3139100D01*
G01X502623Y-2779100D02*
G01X460289Y-2779100D01*
G01X473606Y-2779100D02*
G01X-126393Y-2779100D01*
G01X-126393Y-2779100D02*
G01X-126393Y-3139100D01*
G01X-126393Y-3139100D02*
G01X583606Y-3139100D01*
G01X583606Y-3139100D02*
G01X583606Y-2829100D01*
G01X583606Y-2829100D02*
G01X583606Y-2779100D01*
G01X583606Y-2779100D02*
G01X483606Y-2779100D01*
G01X-406395Y-2624099D02*
G01X-406395Y-3294101D01*
G01X863605Y-3294101D02*
G01X-406395Y-3294101D01*
G01X863605Y-2624099D02*
G01X863605Y-3294101D01*
G01X-406395Y-2624099D02*
G01X863605Y-2624099D01*
G54D10*
G01X-3629899Y126060D02*
G01X-3558095Y126060D01*
G01X-3558095Y126060D02*
G01X-3558095Y26340D01*
G01X-3558095Y26340D02*
G01X-3629899Y26340D01*
G01X-3675141Y126060D02*
G01X-3746944Y126060D01*
G01X-3746944Y126060D02*
G01X-3746944Y26340D01*
G01X-3746944Y26340D02*
G01X-3675141Y26340D01*
G01X3629899Y-126060D02*
G01X3558096Y-126060D01*
G01X3558096Y-126060D02*
G01X3558096Y-26340D01*
G01X3558096Y-26340D02*
G01X3629899Y-26340D01*
G01X3675141Y-126060D02*
G01X3746945Y-126060D01*
G01X3746945Y-126060D02*
G01X3746945Y-26340D01*
G01X3746945Y-26340D02*
G01X3675141Y-26340D01*
G01X-3139293Y-125552D02*
G01X-3211096Y-125552D01*
G01X-3211096Y-125552D02*
G01X-3211096Y-25832D01*
G01X-3211096Y-25832D02*
G01X-3139293Y-25832D01*
G01X-3094051Y-125552D02*
G01X-3022247Y-125552D01*
G01X-3022247Y-125552D02*
G01X-3022247Y-25832D01*
G01X-3022247Y-25832D02*
G01X-3094051Y-25832D01*
G01X244079Y-1624660D02*
G01X172276Y-1624660D01*
G01X172276Y-1624660D02*
G01X172276Y-1524940D01*
G01X172276Y-1524940D02*
G01X244079Y-1524940D01*
G01X289321Y-1624660D02*
G01X361125Y-1624660D01*
G01X361125Y-1624660D02*
G01X361125Y-1524940D01*
G01X361125Y-1524940D02*
G01X289321Y-1524940D01*
G54D13*
G01X-3479914Y76210D02*
G01X-2859916Y76210D01*
G01X-2859916Y76210D02*
G01X-2859916Y330210D01*
G01X-2859916Y330210D02*
G01X-3479914Y330210D01*
G01X-3479914Y330210D02*
G01X-3479914Y76210D01*
G01X-3374895Y139697D02*
G01X-3374895Y266697D01*
G01X-3374895Y266697D02*
G01X-2968495Y266697D01*
G01X-2968495Y266697D02*
G01X-2968495Y139697D01*
G01X-2968495Y139697D02*
G01X-3374895Y139697D01*
G01X-3336795Y139697D02*
G01X-3336795Y266697D01*
G01X-3298695Y139697D02*
G01X-3298695Y266697D01*
G01X-3051045Y139697D02*
G01X-3051045Y266697D01*
G01X-3012945Y139697D02*
G01X-3012945Y266697D01*
G01X3479914Y-76210D02*
G01X2859916Y-76210D01*
G01X2859916Y-76210D02*
G01X2859916Y-330210D01*
G01X2859916Y-330210D02*
G01X3479914Y-330210D01*
G01X3479914Y-330210D02*
G01X3479914Y-76210D01*
G01X3374895Y-139697D02*
G01X3374895Y-266697D01*
G01X3374895Y-266697D02*
G01X2968495Y-266697D01*
G01X2968495Y-266697D02*
G01X2968495Y-139697D01*
G01X2968495Y-139697D02*
G01X3374895Y-139697D01*
G01X3336795Y-139697D02*
G01X3336795Y-266697D01*
G01X3298695Y-139697D02*
G01X3298695Y-266697D01*
G01X3051045Y-139697D02*
G01X3051045Y-266697D01*
G01X3012945Y-139697D02*
G01X3012945Y-266697D01*
G01X-3289278Y-75702D02*
G01X-3909276Y-75702D01*
G01X-3909276Y-75702D02*
G01X-3909276Y-329702D01*
G01X-3909276Y-329702D02*
G01X-3289278Y-329702D01*
G01X-3289278Y-329702D02*
G01X-3289278Y-75702D01*
G01X-3394296Y-139190D02*
G01X-3394296Y-266190D01*
G01X-3394296Y-266190D02*
G01X-3800696Y-266190D01*
G01X-3800696Y-266190D02*
G01X-3800696Y-139190D01*
G01X-3800696Y-139190D02*
G01X-3394296Y-139190D01*
G01X-3432396Y-139190D02*
G01X-3432396Y-266190D01*
G01X-3470496Y-139190D02*
G01X-3470496Y-266190D01*
G01X-3718146Y-139190D02*
G01X-3718146Y-266190D01*
G01X-3756246Y-139190D02*
G01X-3756246Y-266190D01*
G01X-50790Y-1696606D02*
G01X-50790Y-2316604D01*
G01X-50790Y-2316604D02*
G01X203210Y-2316604D01*
G01X203210Y-2316604D02*
G01X203210Y-1696606D01*
G01X203210Y-1696606D02*
G01X-50790Y-1696606D01*
G01X12697Y-1801625D02*
G01X139697Y-1801625D01*
G01X139697Y-1801625D02*
G01X139697Y-2208025D01*
G01X139697Y-2208025D02*
G01X12697Y-2208025D01*
G01X12697Y-2208025D02*
G01X12697Y-1801625D01*
G01X12697Y-1839725D02*
G01X139697Y-1839725D01*
G01X12697Y-1877825D02*
G01X139697Y-1877825D01*
G01X12697Y-2125475D02*
G01X139697Y-2125475D01*
G01X12697Y-2163575D02*
G01X139697Y-2163575D01*
G01X3289186Y76210D02*
G01X3909184Y76210D01*
G01X3909184Y76210D02*
G01X3909184Y330210D01*
G01X3909184Y330210D02*
G01X3289186Y330210D01*
G01X3289186Y330210D02*
G01X3289186Y76210D01*
G01X3394205Y139697D02*
G01X3394205Y266697D01*
G01X3394205Y266697D02*
G01X3800605Y266697D01*
G01X3800605Y266697D02*
G01X3800605Y139697D01*
G01X3800605Y139697D02*
G01X3394205Y139697D01*
G01X3432305Y139697D02*
G01X3432305Y266697D01*
G01X3470405Y139697D02*
G01X3470405Y266697D01*
G01X3718055Y139697D02*
G01X3718055Y266697D01*
G01X3756155Y139697D02*
G01X3756155Y266697D01*

G04 Rect Start*
G01X-3120911Y241300D02*
G01X-3120911Y165100D01*
G01X-3247911Y165100D01*
G01X-3247911Y241300D01*
G01X-3120911Y241300D01*
G01X3120911Y-241300D02*
G01X3120911Y-165100D01*
G01X3247911Y-165100D01*
G01X3247911Y-241300D01*
G01X3120911Y-241300D01*
G01X-3648281Y-240792D02*
G01X-3648281Y-164592D01*
G01X-3521281Y-164592D01*
G01X-3521281Y-240792D01*
G01X-3648281Y-240792D01*
G01X114300Y-2055609D02*
G01X38100Y-2055609D01*
G01X38100Y-1928609D01*
G01X114300Y-1928609D01*
G01X114300Y-2055609D01*
G01X3648189Y241300D02*
G01X3648189Y165100D01*
G01X3521189Y165100D01*
G01X3521189Y241300D01*
G01X3648189Y241300D01*
G04 Rect End*

G04 Circle Start*
G54D20*
G01X2241678Y1969010D02*
G03X2281658Y1969010I19990J0D01*
G03X2241678Y1969010I-19990J0D01*
G01X3016378Y1969010D02*
G03X3056358Y1969010I19990J0D01*
G03X3016378Y1969010I-19990J0D01*
G01X3791078Y1969010D02*
G03X3831058Y1969010I19990J0D01*
G03X3791078Y1969010I-19990J0D01*
G01X-3752722Y1969010D02*
G03X-3712742Y1969010I19990J0D01*
G03X-3752722Y1969010I-19990J0D01*
G01X-4527422Y1969010D02*
G03X-4487442Y1969010I19990J0D01*
G03X-4527422Y1969010I-19990J0D01*
G01X-2978022Y1969010D02*
G03X-2938042Y1969010I19990J0D01*
G03X-2978022Y1969010I-19990J0D01*
G01X3712742Y-1969010D02*
G03X3752722Y-1969010I19990J0D01*
G03X3712742Y-1969010I-19990J0D01*
G01X4487442Y-1969010D02*
G03X4527422Y-1969010I19990J0D01*
G03X4487442Y-1969010I-19990J0D01*
G01X2938042Y-1969010D02*
G03X2978022Y-1969010I19990J0D01*
G03X2938042Y-1969010I-19990J0D01*
G01X-3056450Y-1968503D02*
G03X-3016470Y-1968503I19990J0D01*
G03X-3056450Y-1968503I-19990J0D01*
G01X-2281750Y-1968503D02*
G03X-2241770Y-1968503I19990J0D01*
G03X-2281750Y-1968503I-19990J0D01*
G01X-3831150Y-1968503D02*
G03X-3791170Y-1968503I19990J0D01*
G03X-3831150Y-1968503I-19990J0D01*
G54D19*
G01X-2346823Y1413459D02*
G03X-2316801Y1413459I15011J0D01*
G03X-2346823Y1413459I-15011J0D01*
G01X-2272173Y1613789D02*
G03X-2242150Y1613789I15011J0D01*
G03X-2272173Y1613789I-15011J0D01*
G54D21*
G01X-198006Y76200D02*
G03X-183020Y76200I7493J0D01*
G03X-198006Y76200I-7493J0D01*
G54D17*
G01X1994992Y-66497D02*
G03X2015007Y-66497I10008J0D01*
G03X1994992Y-66497I-10008J0D01*
G54D19*
G01X-3896223Y1413459D02*
G03X-3866201Y1413459I15011J0D01*
G03X-3896223Y1413459I-15011J0D01*
G01X-3821573Y1613789D02*
G03X-3791550Y1613789I15011J0D01*
G03X-3821573Y1613789I-15011J0D01*
G01X-3121523Y1413459D02*
G03X-3091501Y1413459I15011J0D01*
G03X-3121523Y1413459I-15011J0D01*
G01X-3046873Y1613789D02*
G03X-3016850Y1613789I15011J0D01*
G03X-3046873Y1613789I-15011J0D01*
G01X2316801Y-1413459D02*
G03X2346823Y-1413459I15011J0D01*
G03X2316801Y-1413459I-15011J0D01*
G01X2242150Y-1613789D02*
G03X2272173Y-1613789I15011J0D01*
G03X2242150Y-1613789I-15011J0D01*
G01X3866201Y-1413459D02*
G03X3896223Y-1413459I15011J0D01*
G03X3866201Y-1413459I-15011J0D01*
G01X3791550Y-1613789D02*
G03X3821573Y-1613789I15011J0D01*
G03X3791550Y-1613789I-15011J0D01*
G01X3091501Y-1413459D02*
G03X3121523Y-1413459I15011J0D01*
G03X3091501Y-1413459I-15011J0D01*
G01X3016850Y-1613789D02*
G03X3046873Y-1613789I15011J0D01*
G03X3016850Y-1613789I-15011J0D01*
G01X-4452391Y-1412951D02*
G03X-4422369Y-1412951I15011J0D01*
G03X-4452391Y-1412951I-15011J0D01*
G01X-4527042Y-1613281D02*
G03X-4497019Y-1613281I15011J0D01*
G03X-4527042Y-1613281I-15011J0D01*
G01X-2902991Y-1412951D02*
G03X-2872969Y-1412951I15011J0D01*
G03X-2902991Y-1412951I-15011J0D01*
G01X-2977642Y-1613281D02*
G03X-2947619Y-1613281I15011J0D01*
G03X-2977642Y-1613281I-15011J0D01*
G01X2872877Y1413459D02*
G03X2902899Y1413459I15011J0D01*
G03X2872877Y1413459I-15011J0D01*
G01X2947527Y1613789D02*
G03X2977550Y1613789I15011J0D01*
G03X2947527Y1613789I-15011J0D01*
G01X3647577Y1413459D02*
G03X3677599Y1413459I15011J0D01*
G03X3647577Y1413459I-15011J0D01*
G01X3722227Y1613789D02*
G03X3752250Y1613789I15011J0D01*
G03X3722227Y1613789I-15011J0D01*
G01X4422277Y1413459D02*
G03X4452299Y1413459I15011J0D01*
G03X4422277Y1413459I-15011J0D01*
G01X4496927Y1613789D02*
G03X4526950Y1613789I15011J0D01*
G03X4496927Y1613789I-15011J0D01*
G01X-3677691Y-1412951D02*
G03X-3647669Y-1412951I15011J0D01*
G03X-3677691Y-1412951I-15011J0D01*
G01X-3752342Y-1613281D02*
G03X-3722319Y-1613281I15011J0D01*
G03X-3752342Y-1613281I-15011J0D01*
G04 Circle End*

M02*

