G04 Layer: BottomLayer*
G04 EasyEDA Pro v2.2.47.7, 2026-05-03 20:12:45*
G04 Gerber Generator version 0.3*
G04 Scale: 100 percent, Rotated: No, Reflected: No*
G04 Dimensions in millimeters*
G04 Leading zeros omitted, absolute positions, 4 integers and 5 decimals*
G04 Generated by one-click*
G04 Object Configs: Pad,Via,Track,Text,Image,Dimension,BoardOutline,BoardCutout,CopperFilled,SolidRegion,FPCStiffener,Line,PlaneZone,ComponentProperty,ComponentSilkscreen,TearDrop*
G04 Layer Configs: 1,15,16,2,3,4,5,6,7,8,9,10,11,13,14,56*
G04 Copper Areas: 24*
%FSLAX45Y45*%
%MOMM*%
%ADD10C,0.2032*%
%ADD11C,0.635*%
%ADD12C,1.61999*%
%ADD13R,1.61999X1.61999*%
%ADD14R,5.99999X6.50001*%
%ADD15R,1.2X2.49999*%
%ADD16R,0.86401X0.80648*%
%ADD17O,1.68399X0.44801*%
%ADD18O,0.4539X1.68399*%
%ADD19O,0.44801X1.68399*%
%ADD20R,1.2X0.55001*%
%ADD21R,1.41X1.35001*%
%ADD22R,0.8X0.9*%
%ADD23R,1.52999X1.29601*%
%ADD24R,1.0X2.69999*%
%ADD25R,0.3X1.25001*%
%ADD26R,2.0X2.49999*%
%ADD27R,0.6X1.08001*%
%ADD28C,1.8*%
%ADD29R,0.54X0.56566*%
%ADD30O,0.7X1.773*%
%ADD31R,1.07X0.6*%
%ADD32O,1.2X2.2*%
%ADD33C,3.79999*%
%ADD34R,0.9X0.8*%
%ADD35O,1.7X2.89999*%
%ADD36R,1.2X3.49999*%
%ADD37R,3.49999X1.2*%
%ADD38R,0.5X0.54*%
%ADD39R,0.54X0.5*%
%ADD40R,1.35001X1.41*%
%ADD41R,0.56566X0.54*%
%ADD42O,1.0X1.8*%
%ADD43O,1.0X2.0*%
%ADD44C,0.61*%
%ADD45C,1.27*%
%ADD46C,1.016*%
%ADD47C,0.254*%
%ADD48C,0.762*%
%ADD49C,0.508*%
G75*


G04 Copper Start*
G36*
G01X-2374900Y-395368D02*
G01X-2374900Y-562212D01*
G01X-2521348Y-708660D01*
G01X-2607514Y-708660D01*
G01X-2795110Y-521064D01*
G01X-2795110Y-363459D01*
G01X-2688541Y-256889D01*
G01X-2513379Y-256889D01*
G01X-2374900Y-395368D01*
G37*
G36*
G01X1536700Y934720D02*
G01X1536700Y1450340D01*
G01X1902460Y1450340D01*
G01X1902460Y934720D01*
G01X1536700Y934720D01*
G37*
G36*
G01X-4292607Y-2099306D02*
G01X-4294588Y-2087560D01*
G01X-4300312Y-2077113D01*
G01X-4300312Y-2061164D01*
G01X-4162635Y-2061164D01*
G01X-4162635Y-2110780D01*
G01X-4160882Y-2121847D01*
G01X-4155795Y-2131831D01*
G01X-4147872Y-2139754D01*
G01X-4137888Y-2144841D01*
G01X-4126821Y-2146594D01*
G01X-4040420Y-2146594D01*
G01X-4029038Y-2144737D01*
G01X-4018836Y-2139359D01*
G01X-4010872Y-2131017D01*
G01X-3998267Y-2127762D01*
G01X-3986635Y-2121915D01*
G01X-3976503Y-2113741D01*
G01X-3969357Y-2106595D01*
G01X-3964201Y-2101991D01*
G01X-3955020Y-2092810D01*
G01X-3941236Y-2085100D01*
G01X-3929666Y-2074347D01*
G01X-3920967Y-2061164D01*
G01X-3841333Y-2061164D01*
G01X-3841333Y-2376932D01*
G01X-4300312Y-2376932D01*
G01X-4300312Y-2371499D01*
G01X-4294588Y-2361052D01*
G01X-4292607Y-2349306D01*
G01X-4292607Y-2099306D01*
G37*
G36*
G01X-2743207Y-2099306D02*
G01X-2745188Y-2087560D01*
G01X-2750912Y-2077113D01*
G01X-2750912Y-2061164D01*
G01X-2613235Y-2061164D01*
G01X-2613235Y-2110780D01*
G01X-2611482Y-2121847D01*
G01X-2606395Y-2131831D01*
G01X-2598472Y-2139754D01*
G01X-2588488Y-2144841D01*
G01X-2577421Y-2146594D01*
G01X-2491020Y-2146594D01*
G01X-2479638Y-2144737D01*
G01X-2469436Y-2139359D01*
G01X-2461472Y-2131017D01*
G01X-2448867Y-2127762D01*
G01X-2437235Y-2121915D01*
G01X-2427103Y-2113741D01*
G01X-2419957Y-2106595D01*
G01X-2414801Y-2101991D01*
G01X-2405620Y-2092810D01*
G01X-2391836Y-2085100D01*
G01X-2380266Y-2074347D01*
G01X-2371567Y-2061164D01*
G01X-2291933Y-2061164D01*
G01X-2291933Y-2376932D01*
G01X-2750912Y-2376932D01*
G01X-2750912Y-2371499D01*
G01X-2745188Y-2361052D01*
G01X-2743207Y-2349306D01*
G01X-2743207Y-2099306D01*
G37*
G36*
G01X-3517907Y-2099306D02*
G01X-3519888Y-2087560D01*
G01X-3525612Y-2077113D01*
G01X-3525612Y-2061164D01*
G01X-3387935Y-2061164D01*
G01X-3387935Y-2110780D01*
G01X-3386182Y-2121847D01*
G01X-3381095Y-2131831D01*
G01X-3373172Y-2139754D01*
G01X-3363188Y-2144841D01*
G01X-3352121Y-2146594D01*
G01X-3265720Y-2146594D01*
G01X-3254338Y-2144737D01*
G01X-3244136Y-2139359D01*
G01X-3236172Y-2131017D01*
G01X-3223567Y-2127762D01*
G01X-3211935Y-2121915D01*
G01X-3201803Y-2113741D01*
G01X-3194657Y-2106595D01*
G01X-3189501Y-2101991D01*
G01X-3180320Y-2092810D01*
G01X-3166536Y-2085100D01*
G01X-3154966Y-2074347D01*
G01X-3146267Y-2061164D01*
G01X-3066633Y-2061164D01*
G01X-3066633Y-2376932D01*
G01X-3525612Y-2376932D01*
G01X-3525612Y-2371499D01*
G01X-3519888Y-2361052D01*
G01X-3517907Y-2349306D01*
G01X-3517907Y-2099306D01*
G37*
G36*
G01X4292515Y2099814D02*
G01X4294496Y2088068D01*
G01X4300220Y2077621D01*
G01X4300220Y2061672D01*
G01X4162543Y2061672D01*
G01X4162543Y2111287D01*
G01X4160790Y2122355D01*
G01X4155703Y2132338D01*
G01X4147780Y2140262D01*
G01X4137796Y2145349D01*
G01X4126729Y2147101D01*
G01X4040328Y2147101D01*
G01X4028946Y2145245D01*
G01X4018744Y2139866D01*
G01X4010780Y2131525D01*
G01X3998175Y2128270D01*
G01X3986543Y2122423D01*
G01X3976411Y2114248D01*
G01X3969265Y2107103D01*
G01X3964109Y2102499D01*
G01X3954928Y2093318D01*
G01X3941144Y2085607D01*
G01X3929574Y2074855D01*
G01X3920875Y2061672D01*
G01X3841241Y2061672D01*
G01X3841241Y2377440D01*
G01X4300220Y2377440D01*
G01X4300220Y2372006D01*
G01X4294496Y2361560D01*
G01X4292515Y2349813D01*
G01X4292515Y2099814D01*
G37*
G36*
G01X2743115Y2099814D02*
G01X2745096Y2088068D01*
G01X2750820Y2077621D01*
G01X2750820Y2061672D01*
G01X2613143Y2061672D01*
G01X2613143Y2111287D01*
G01X2611390Y2122355D01*
G01X2606303Y2132338D01*
G01X2598380Y2140262D01*
G01X2588396Y2145349D01*
G01X2577329Y2147101D01*
G01X2490928Y2147101D01*
G01X2479546Y2145245D01*
G01X2469344Y2139866D01*
G01X2461380Y2131525D01*
G01X2448775Y2128270D01*
G01X2437143Y2122423D01*
G01X2427011Y2114248D01*
G01X2419865Y2107103D01*
G01X2414709Y2102499D01*
G01X2405528Y2093318D01*
G01X2391744Y2085607D01*
G01X2380174Y2074855D01*
G01X2371475Y2061672D01*
G01X2291841Y2061672D01*
G01X2291841Y2377440D01*
G01X2750820Y2377440D01*
G01X2750820Y2372006D01*
G01X2745096Y2361560D01*
G01X2743115Y2349813D01*
G01X2743115Y2099814D01*
G37*
G36*
G01X2250641Y2457158D02*
G01X2250641Y3543652D01*
G01X2252829Y3545840D01*
G01X4599686Y3545840D01*
G01X4599686Y2457158D01*
G01X2250641Y2457158D01*
G37*
G36*
G01X3517815Y2099814D02*
G01X3519796Y2088068D01*
G01X3525520Y2077621D01*
G01X3525520Y2061672D01*
G01X3387843Y2061672D01*
G01X3387843Y2111287D01*
G01X3386090Y2122355D01*
G01X3381003Y2132338D01*
G01X3373080Y2140262D01*
G01X3363096Y2145349D01*
G01X3352029Y2147101D01*
G01X3265628Y2147101D01*
G01X3254246Y2145245D01*
G01X3244044Y2139866D01*
G01X3236080Y2131525D01*
G01X3223475Y2128270D01*
G01X3211843Y2122423D01*
G01X3201711Y2114248D01*
G01X3194565Y2107103D01*
G01X3189409Y2102499D01*
G01X3180228Y2093318D01*
G01X3166444Y2085607D01*
G01X3154874Y2074855D01*
G01X3146175Y2061672D01*
G01X3066541Y2061672D01*
G01X3066541Y2377440D01*
G01X3525520Y2377440D01*
G01X3525520Y2372006D01*
G01X3519796Y2361560D01*
G01X3517815Y2349813D01*
G01X3517815Y2099814D01*
G37*
G36*
G01X2476585Y-2099814D02*
G01X2474604Y-2088068D01*
G01X2468880Y-2077621D01*
G01X2468880Y-2061672D01*
G01X2606557Y-2061672D01*
G01X2606557Y-2111287D01*
G01X2608310Y-2122355D01*
G01X2613397Y-2132338D01*
G01X2621320Y-2140262D01*
G01X2631304Y-2145349D01*
G01X2642371Y-2147101D01*
G01X2728772Y-2147101D01*
G01X2740154Y-2145245D01*
G01X2750356Y-2139866D01*
G01X2758320Y-2131525D01*
G01X2770925Y-2128270D01*
G01X2782557Y-2122423D01*
G01X2792689Y-2114248D01*
G01X2799835Y-2107103D01*
G01X2804991Y-2102499D01*
G01X2814172Y-2093318D01*
G01X2827956Y-2085607D01*
G01X2839526Y-2074855D01*
G01X2848225Y-2061672D01*
G01X2927859Y-2061672D01*
G01X2927859Y-2377440D01*
G01X2468880Y-2377440D01*
G01X2468880Y-2372006D01*
G01X2474604Y-2361560D01*
G01X2476585Y-2349813D01*
G01X2476585Y-2099814D01*
G37*
G36*
G01X4025985Y-2099814D02*
G01X4024004Y-2088068D01*
G01X4018280Y-2077621D01*
G01X4018280Y-2061672D01*
G01X4155957Y-2061672D01*
G01X4155957Y-2111287D01*
G01X4157710Y-2122355D01*
G01X4162797Y-2132338D01*
G01X4170720Y-2140262D01*
G01X4180704Y-2145349D01*
G01X4191771Y-2147101D01*
G01X4278172Y-2147101D01*
G01X4289554Y-2145245D01*
G01X4299756Y-2139866D01*
G01X4307720Y-2131525D01*
G01X4320325Y-2128270D01*
G01X4331957Y-2122423D01*
G01X4342089Y-2114248D01*
G01X4349235Y-2107103D01*
G01X4354391Y-2102499D01*
G01X4363572Y-2093318D01*
G01X4377356Y-2085607D01*
G01X4388926Y-2074855D01*
G01X4397625Y-2061672D01*
G01X4477259Y-2061672D01*
G01X4477259Y-2377440D01*
G01X4018280Y-2377440D01*
G01X4018280Y-2372006D01*
G01X4024004Y-2361560D01*
G01X4025985Y-2349813D01*
G01X4025985Y-2099814D01*
G37*
G36*
G01X4518459Y-3545840D02*
G01X2196949Y-3545840D01*
G01X2163580Y-3512471D01*
G01X2163580Y-2457158D01*
G01X4518459Y-2457158D01*
G01X4518459Y-3545840D01*
G37*
G36*
G01X3251285Y-2099814D02*
G01X3249304Y-2088068D01*
G01X3243580Y-2077621D01*
G01X3243580Y-2061672D01*
G01X3381257Y-2061672D01*
G01X3381257Y-2111287D01*
G01X3383010Y-2122355D01*
G01X3388097Y-2132338D01*
G01X3396020Y-2140262D01*
G01X3406004Y-2145349D01*
G01X3417071Y-2147101D01*
G01X3503472Y-2147101D01*
G01X3514854Y-2145245D01*
G01X3525056Y-2139866D01*
G01X3533020Y-2131525D01*
G01X3545625Y-2128270D01*
G01X3557257Y-2122423D01*
G01X3567389Y-2114248D01*
G01X3574535Y-2107103D01*
G01X3579691Y-2102499D01*
G01X3588872Y-2093318D01*
G01X3602656Y-2085607D01*
G01X3614226Y-2074855D01*
G01X3622925Y-2061672D01*
G01X3702559Y-2061672D01*
G01X3702559Y-2377440D01*
G01X3243580Y-2377440D01*
G01X3243580Y-2372006D01*
G01X3249304Y-2361560D01*
G01X3251285Y-2349813D01*
G01X3251285Y-2099814D01*
G37*
G36*
G01X-4020905Y2099814D02*
G01X-4018924Y2088068D01*
G01X-4013200Y2077621D01*
G01X-4013200Y2061672D01*
G01X-4150877Y2061672D01*
G01X-4150877Y2111287D01*
G01X-4152630Y2122355D01*
G01X-4157717Y2132338D01*
G01X-4165640Y2140262D01*
G01X-4175624Y2145349D01*
G01X-4186691Y2147101D01*
G01X-4273092Y2147101D01*
G01X-4284474Y2145245D01*
G01X-4294676Y2139866D01*
G01X-4302640Y2131525D01*
G01X-4315245Y2128270D01*
G01X-4326877Y2122423D01*
G01X-4337009Y2114248D01*
G01X-4344155Y2107103D01*
G01X-4349311Y2102499D01*
G01X-4358492Y2093318D01*
G01X-4372276Y2085607D01*
G01X-4383846Y2074855D01*
G01X-4392545Y2061672D01*
G01X-4472179Y2061672D01*
G01X-4472179Y2377440D01*
G01X-4013200Y2377440D01*
G01X-4013200Y2372006D01*
G01X-4018924Y2361560D01*
G01X-4020905Y2349813D01*
G01X-4020905Y2099814D01*
G37*
G36*
G01X-4513379Y3545840D02*
G01X-2265529Y3545840D01*
G01X-2158500Y3438811D01*
G01X-2158500Y2457158D01*
G01X-4513379Y2457158D01*
G01X-4513379Y3545840D01*
G37*
G36*
G01X-4518153Y2387600D02*
G01X-4518153Y2192020D01*
G01X-4599686Y2192020D01*
G01X-4599686Y3583686D01*
G01X-2303375Y3583686D01*
G01X-1221664Y2501976D01*
G01X-1214247Y2496284D01*
G01X-1205609Y2492706D01*
G01X-1196340Y2491486D01*
G01X1183640Y2491486D01*
G01X1192909Y2492706D01*
G01X1201547Y2496284D01*
G01X1208964Y2501976D01*
G01X2298295Y3591306D01*
G01X4599686Y3591306D01*
G01X4599686Y2192020D01*
G01X4484143Y2192020D01*
G01X4484143Y2349813D01*
G01X4482390Y2360881D01*
G01X4477303Y2370864D01*
G01X4469380Y2378788D01*
G01X4459396Y2383875D01*
G01X4448329Y2385627D01*
G01X4346194Y2385627D01*
G01X4346194Y2387600D01*
G01X4344441Y2398667D01*
G01X4339354Y2408651D01*
G01X4331431Y2416574D01*
G01X4321447Y2421661D01*
G01X4310380Y2423414D01*
G01X3831081Y2423414D01*
G01X3820014Y2421661D01*
G01X3810030Y2416574D01*
G01X3802107Y2408651D01*
G01X3797020Y2398667D01*
G01X3795267Y2387600D01*
G01X3795267Y2192020D01*
G01X3709443Y2192020D01*
G01X3709443Y2349813D01*
G01X3707690Y2360881D01*
G01X3702603Y2370864D01*
G01X3694680Y2378788D01*
G01X3684696Y2383875D01*
G01X3673629Y2385627D01*
G01X3571494Y2385627D01*
G01X3571494Y2387600D01*
G01X3569741Y2398667D01*
G01X3564654Y2408651D01*
G01X3556731Y2416574D01*
G01X3546747Y2421661D01*
G01X3535680Y2423414D01*
G01X3056381Y2423414D01*
G01X3045314Y2421661D01*
G01X3035330Y2416574D01*
G01X3027407Y2408651D01*
G01X3022320Y2398667D01*
G01X3020567Y2387600D01*
G01X3020567Y2192020D01*
G01X2934743Y2192020D01*
G01X2934743Y2349813D01*
G01X2932990Y2360881D01*
G01X2927903Y2370864D01*
G01X2919980Y2378788D01*
G01X2909996Y2383875D01*
G01X2898929Y2385627D01*
G01X2796794Y2385627D01*
G01X2796794Y2387600D01*
G01X2795041Y2398667D01*
G01X2789954Y2408651D01*
G01X2782031Y2416574D01*
G01X2772047Y2421661D01*
G01X2760980Y2423414D01*
G01X2281681Y2423414D01*
G01X2270614Y2421661D01*
G01X2260630Y2416574D01*
G01X2252707Y2408651D01*
G01X2247620Y2398667D01*
G01X2245867Y2387600D01*
G01X2245867Y2192020D01*
G01X-2279877Y2192020D01*
G01X-2279877Y2349813D01*
G01X-2281630Y2360881D01*
G01X-2286717Y2370864D01*
G01X-2294640Y2378788D01*
G01X-2304624Y2383875D01*
G01X-2315691Y2385627D01*
G01X-2417826Y2385627D01*
G01X-2417826Y2387600D01*
G01X-2419579Y2398667D01*
G01X-2424666Y2408651D01*
G01X-2432589Y2416574D01*
G01X-2442573Y2421661D01*
G01X-2453640Y2423414D01*
G01X-2932939Y2423414D01*
G01X-2944006Y2421661D01*
G01X-2953990Y2416574D01*
G01X-2961913Y2408651D01*
G01X-2967000Y2398667D01*
G01X-2968753Y2387600D01*
G01X-2968753Y2192020D01*
G01X-3054577Y2192020D01*
G01X-3054577Y2349813D01*
G01X-3056330Y2360881D01*
G01X-3061417Y2370864D01*
G01X-3069340Y2378788D01*
G01X-3079324Y2383875D01*
G01X-3090391Y2385627D01*
G01X-3192526Y2385627D01*
G01X-3192526Y2387600D01*
G01X-3194279Y2398667D01*
G01X-3199366Y2408651D01*
G01X-3207289Y2416574D01*
G01X-3217273Y2421661D01*
G01X-3228340Y2423414D01*
G01X-3707639Y2423414D01*
G01X-3718706Y2421661D01*
G01X-3728690Y2416574D01*
G01X-3736613Y2408651D01*
G01X-3741700Y2398667D01*
G01X-3743453Y2387600D01*
G01X-3743453Y2192020D01*
G01X-3829277Y2192020D01*
G01X-3829277Y2349813D01*
G01X-3831030Y2360881D01*
G01X-3836117Y2370864D01*
G01X-3844040Y2378788D01*
G01X-3854024Y2383875D01*
G01X-3865091Y2385627D01*
G01X-3967226Y2385627D01*
G01X-3967226Y2387600D01*
G01X-3968979Y2398667D01*
G01X-3974066Y2408651D01*
G01X-3981989Y2416574D01*
G01X-3991973Y2421661D01*
G01X-4003040Y2423414D01*
G01X-4482339Y2423414D01*
G01X-4493406Y2421661D01*
G01X-4503390Y2416574D01*
G01X-4511313Y2408651D01*
G01X-4516400Y2398667D01*
G01X-4518153Y2387600D01*
G37*
G36*
G01X-3246205Y2099814D02*
G01X-3244224Y2088068D01*
G01X-3238500Y2077621D01*
G01X-3238500Y2061672D01*
G01X-3376177Y2061672D01*
G01X-3376177Y2111287D01*
G01X-3377930Y2122355D01*
G01X-3383017Y2132338D01*
G01X-3390940Y2140262D01*
G01X-3400924Y2145349D01*
G01X-3411991Y2147101D01*
G01X-3498392Y2147101D01*
G01X-3509774Y2145245D01*
G01X-3519976Y2139866D01*
G01X-3527940Y2131525D01*
G01X-3540545Y2128270D01*
G01X-3552177Y2122423D01*
G01X-3562309Y2114248D01*
G01X-3569455Y2107103D01*
G01X-3574611Y2102499D01*
G01X-3583792Y2093318D01*
G01X-3597576Y2085607D01*
G01X-3609146Y2074855D01*
G01X-3617845Y2061672D01*
G01X-3697479Y2061672D01*
G01X-3697479Y2377440D01*
G01X-3238500Y2377440D01*
G01X-3238500Y2372006D01*
G01X-3244224Y2361560D01*
G01X-3246205Y2349813D01*
G01X-3246205Y2099814D01*
G37*
G36*
G01X-2471505Y2099814D02*
G01X-2469524Y2088068D01*
G01X-2463800Y2077621D01*
G01X-2463800Y2061672D01*
G01X-2601477Y2061672D01*
G01X-2601477Y2111287D01*
G01X-2603230Y2122355D01*
G01X-2608317Y2132338D01*
G01X-2616240Y2140262D01*
G01X-2626224Y2145349D01*
G01X-2637291Y2147101D01*
G01X-2723692Y2147101D01*
G01X-2735074Y2145245D01*
G01X-2745276Y2139866D01*
G01X-2753240Y2131525D01*
G01X-2765845Y2128270D01*
G01X-2777477Y2122423D01*
G01X-2787609Y2114248D01*
G01X-2794755Y2107103D01*
G01X-2799911Y2102499D01*
G01X-2809092Y2093318D01*
G01X-2822876Y2085607D01*
G01X-2834446Y2074855D01*
G01X-2843145Y2061672D01*
G01X-2922779Y2061672D01*
G01X-2922779Y2377440D01*
G01X-2463800Y2377440D01*
G01X-2463800Y2372006D01*
G01X-2469524Y2361560D01*
G01X-2471505Y2349813D01*
G01X-2471505Y2099814D01*
G37*
G36*
G01X-2315691Y2385627D02*
G01X-2376320Y2385627D01*
G01X-2376320Y3583686D01*
G01X-2303375Y3583686D01*
G01X-1221664Y2501976D01*
G01X-1214247Y2496284D01*
G01X-1205609Y2492706D01*
G01X-1196340Y2491486D01*
G01X1183640Y2491486D01*
G01X1192909Y2492706D01*
G01X1201547Y2496284D01*
G01X1208964Y2501976D01*
G01X2298295Y3591306D01*
G01X2495700Y3591306D01*
G01X2495700Y2423414D01*
G01X2281681Y2423414D01*
G01X2270614Y2421661D01*
G01X2260630Y2416574D01*
G01X2252707Y2408651D01*
G01X2247620Y2398667D01*
G01X2245867Y2387600D01*
G01X2245867Y2051512D01*
G01X2247620Y2040445D01*
G01X2252707Y2030461D01*
G01X2260630Y2022538D01*
G01X2270614Y2017451D01*
G01X2281681Y2015698D01*
G01X2366501Y2015698D01*
G01X2369915Y2005674D01*
G01X2338528Y2005674D01*
G01X2327461Y2003921D01*
G01X2317478Y1998834D01*
G01X2309554Y1990911D01*
G01X2304467Y1980927D01*
G01X2302714Y1969860D01*
G01X2302714Y1889213D01*
G01X2304029Y1879599D01*
G01X2307876Y1870691D01*
G01X2313973Y1863142D01*
G01X2321872Y1857507D01*
G01X2330995Y1854200D01*
G01X2321872Y1850893D01*
G01X2313973Y1845258D01*
G01X2307876Y1837709D01*
G01X2304029Y1828801D01*
G01X2302714Y1819187D01*
G01X2302714Y1738540D01*
G01X2303927Y1729300D01*
G01X2307482Y1720686D01*
G01X2313139Y1713281D01*
G01X2320515Y1707586D01*
G01X2320515Y1520679D01*
G01X777766Y1520679D01*
G01X750278Y1548167D01*
G01X750278Y1695647D01*
G01X748525Y1706714D01*
G01X743438Y1716698D01*
G01X735515Y1724621D01*
G01X725531Y1729708D01*
G01X714464Y1731461D01*
G01X514464Y1731461D01*
G01X503397Y1729708D01*
G01X493413Y1724621D01*
G01X485490Y1716698D01*
G01X480403Y1706714D01*
G01X478650Y1695647D01*
G01X478650Y1520679D01*
G01X159058Y1520679D01*
G01X154450Y1535154D01*
G01X146670Y1548200D01*
G01X136125Y1559134D01*
G01X123369Y1567381D01*
G01X109070Y1572509D01*
G01X93980Y1574249D01*
G01X78890Y1572509D01*
G01X64591Y1567381D01*
G01X51835Y1559134D01*
G01X41290Y1548200D01*
G01X33510Y1535154D01*
G01X28902Y1520679D01*
G01X-294833Y1520679D01*
G01X-307385Y1526198D01*
G01X-320804Y1529019D01*
G01X-334516Y1529019D01*
G01X-347935Y1526198D01*
G01X-360487Y1520679D01*
G01X-442099Y1520679D01*
G01X-445643Y1534779D01*
G01X-452174Y1547768D01*
G01X-461378Y1559022D01*
G01X-472814Y1568000D01*
G01X-485931Y1574270D01*
G01X-500099Y1577530D01*
G01X-514638Y1577625D01*
G01X-528847Y1574549D01*
G01X-542045Y1568451D01*
G01X-553597Y1559623D01*
G01X-562947Y1548490D01*
G01X-569647Y1535587D01*
G01X-576729Y1547536D01*
G01X-586145Y1557747D01*
G01X-597481Y1565773D01*
G01X-610240Y1571261D01*
G01X-623863Y1573971D01*
G01X-637752Y1573784D01*
G01X-651297Y1570709D01*
G01X-663904Y1564879D01*
G01X-675020Y1556551D01*
G01X-684158Y1546090D01*
G01X-690916Y1533955D01*
G01X-694998Y1520679D01*
G01X-737730Y1520679D01*
G01X-737730Y1695647D01*
G01X-739483Y1706714D01*
G01X-744570Y1716698D01*
G01X-752493Y1724621D01*
G01X-762477Y1729708D01*
G01X-773544Y1731461D01*
G01X-973544Y1731461D01*
G01X-984611Y1729708D01*
G01X-994595Y1724621D01*
G01X-1002518Y1716698D01*
G01X-1007605Y1706714D01*
G01X-1009358Y1695647D01*
G01X-1009358Y1520679D01*
G01X-2376320Y1520679D01*
G01X-2376320Y1704340D01*
G01X-2253254Y1704340D01*
G01X-2251327Y1688470D01*
G01X-2245658Y1673522D01*
G01X-2236577Y1660366D01*
G01X-2224611Y1649765D01*
G01X-2210455Y1642335D01*
G01X-2194933Y1638509D01*
G01X-2178947Y1638509D01*
G01X-2163425Y1642335D01*
G01X-2149269Y1649765D01*
G01X-2137303Y1660366D01*
G01X-2128222Y1673522D01*
G01X-2122553Y1688470D01*
G01X-2120626Y1704340D01*
G01X-2122553Y1720210D01*
G01X-2128222Y1735158D01*
G01X-2137303Y1748314D01*
G01X-2149269Y1758915D01*
G01X-2163425Y1766345D01*
G01X-2178947Y1770171D01*
G01X-2194933Y1770171D01*
G01X-2210455Y1766345D01*
G01X-2224611Y1758915D01*
G01X-2236577Y1748314D01*
G01X-2245658Y1735158D01*
G01X-2251327Y1720210D01*
G01X-2253254Y1704340D01*
G01X-2253254Y1704340D01*
G01X-2376320Y1704340D01*
G01X-2376320Y1761130D01*
G01X-2332406Y1805044D01*
G01X-2324459Y1814826D01*
G01X-2314882Y1802845D01*
G01X-2302809Y1793385D01*
G01X-2288886Y1786952D01*
G01X-2273857Y1783890D01*
G01X-2258526Y1784362D01*
G01X-2243714Y1788344D01*
G01X-2230213Y1795622D01*
G01X-2218745Y1805808D01*
G01X-2209924Y1818355D01*
G01X-2204221Y1832594D01*
G01X-2201943Y1847761D01*
G01X-2203209Y1863047D01*
G01X-2207954Y1877633D01*
G01X-2215923Y1890738D01*
G01X-2206013Y1901723D01*
G01X-2198785Y1914631D01*
G01X-2194599Y1928821D01*
G01X-2178995Y1927648D01*
G01X-2163550Y1930164D01*
G01X-2149124Y1936229D01*
G01X-2136521Y1945506D01*
G01X-2126444Y1957478D01*
G01X-2119452Y1971478D01*
G01X-2115935Y1986726D01*
G01X-2116090Y2002374D01*
G01X-2119907Y2017550D01*
G01X-2127174Y2031410D01*
G01X-2137486Y2043180D01*
G01X-2150269Y2052206D01*
G01X-2164812Y2057985D01*
G01X-2180304Y2060196D01*
G01X-2195882Y2058715D01*
G01X-2210680Y2053624D01*
G01X-2223873Y2045208D01*
G01X-2234726Y2033934D01*
G01X-2242635Y2020431D01*
G01X-2247160Y2005451D01*
G01X-2259901Y2006686D01*
G01X-2272642Y2005451D01*
G01X-2284909Y2001790D01*
G01X-2296243Y1995840D01*
G01X-2306223Y1987824D01*
G01X-2314477Y1978040D01*
G01X-2314477Y2064021D01*
G01X-2303704Y2066065D01*
G01X-2294055Y2071274D01*
G01X-2286434Y2079158D01*
G01X-2281556Y2088978D01*
G01X-2279877Y2099814D01*
G01X-2279877Y2349813D01*
G01X-2281630Y2360881D01*
G01X-2286717Y2370864D01*
G01X-2294640Y2378788D01*
G01X-2304624Y2383875D01*
G01X-2315691Y2385627D01*
G37*
G36*
G01X-2250733Y-3545332D02*
G01X-4599686Y-3545332D01*
G01X-4599686Y-2456650D01*
G01X-2250733Y-2456650D01*
G01X-2250733Y-3545332D01*
G37*
G36*
G01X-1167920Y-2132652D02*
G01X-1169710Y-2113884D01*
G01X-1175013Y-2095793D01*
G01X-1183640Y-2079030D01*
G01X-1183640Y-1793062D01*
G01X-1064438Y-1673860D01*
G01X-423308Y-1673860D01*
G01X-73660Y-2023508D01*
G01X-73660Y-2285779D01*
G01X-556849Y-2667404D01*
G01X-674186Y-2618126D01*
G01X-674186Y-2548109D01*
G01X-675606Y-2533689D01*
G01X-679812Y-2519823D01*
G01X-686643Y-2507045D01*
G01X-695835Y-2495844D01*
G01X-745111Y-2446568D01*
G01X-756311Y-2437376D01*
G01X-769090Y-2430545D01*
G01X-782956Y-2426339D01*
G01X-797376Y-2424919D01*
G01X-855135Y-2424919D01*
G01X-871834Y-2426830D01*
G01X-887670Y-2432464D01*
G01X-901823Y-2441531D01*
G01X-955151Y-2441531D01*
G01X-961103Y-2439959D01*
G01X-967236Y-2439430D01*
G01X-1087236Y-2439430D01*
G01X-1096670Y-2440695D01*
G01X-1116961Y-2432174D01*
G01X-1167920Y-2381214D01*
G01X-1167920Y-2132652D01*
G37*
G36*
G01X-2453640Y2423414D02*
G01X-2496683Y2423414D01*
G01X-2496670Y2931160D01*
G01X-1650849Y2931160D01*
G01X-1221664Y2501976D01*
G01X-1214247Y2496284D01*
G01X-1205609Y2492706D01*
G01X-1196340Y2491486D01*
G01X-855980Y2491486D01*
G01X-855980Y1899390D01*
G01X-1029423Y1725946D01*
G01X-1031626Y1722650D01*
G01X-1032399Y1718762D01*
G01X-1032399Y1308803D01*
G01X-1031626Y1304915D01*
G01X-1029423Y1301619D01*
G01X-855199Y1127395D01*
G01X-855199Y-1419887D01*
G01X-957299Y-1419887D01*
G01X-968366Y-1421640D01*
G01X-978350Y-1426727D01*
G01X-986273Y-1434650D01*
G01X-991360Y-1444634D01*
G01X-993113Y-1455701D01*
G01X-993113Y-1617699D01*
G01X-991634Y-1627886D01*
G01X-1068647Y-1627886D01*
G01X-1077916Y-1629106D01*
G01X-1086554Y-1632684D01*
G01X-1093971Y-1638376D01*
G01X-1219124Y-1763529D01*
G01X-1224816Y-1770946D01*
G01X-1228394Y-1779584D01*
G01X-1229614Y-1788853D01*
G01X-1229614Y-2242820D01*
G01X-1330348Y-2242820D01*
G01X-1334236Y-2243593D01*
G01X-1337532Y-2245796D01*
G01X-1383252Y-2291516D01*
G01X-1385454Y-2294812D01*
G01X-1386228Y-2298700D01*
G01X-1386228Y-2621683D01*
G01X-1468060Y-2678476D01*
G01X-1478504Y-2680182D01*
G01X-1487994Y-2684865D01*
G01X-1495700Y-2692116D01*
G01X-1500952Y-2701304D01*
G01X-1535353Y-2725179D01*
G01X-1538563Y-2728816D01*
G01X-1539720Y-2733526D01*
G01X-1539720Y-3144565D01*
G01X-1692076Y-3296920D01*
G01X-2496820Y-3296920D01*
G01X-2496801Y-2519064D01*
G01X-2006954Y-2519064D01*
G01X-2006954Y-2619064D01*
G01X-2005113Y-2637756D01*
G01X-1999661Y-2655730D01*
G01X-1990807Y-2672295D01*
G01X-1978891Y-2686814D01*
G01X-1964372Y-2698730D01*
G01X-1947807Y-2707584D01*
G01X-1929833Y-2713037D01*
G01X-1911140Y-2714878D01*
G01X-1892448Y-2713037D01*
G01X-1874474Y-2707584D01*
G01X-1857909Y-2698730D01*
G01X-1843390Y-2686814D01*
G01X-1831474Y-2672295D01*
G01X-1822620Y-2655730D01*
G01X-1817168Y-2637756D01*
G01X-1815327Y-2619064D01*
G01X-1815327Y-2619064D01*
G01X-1815327Y-2519064D01*
G01X-1817168Y-2500372D01*
G01X-1822620Y-2482398D01*
G01X-1831474Y-2465833D01*
G01X-1843390Y-2451313D01*
G01X-1857909Y-2439398D01*
G01X-1874474Y-2430544D01*
G01X-1892448Y-2425091D01*
G01X-1911140Y-2423250D01*
G01X-1929833Y-2425091D01*
G01X-1947807Y-2430544D01*
G01X-1964372Y-2439398D01*
G01X-1978891Y-2451313D01*
G01X-1990807Y-2465833D01*
G01X-1999661Y-2482398D01*
G01X-2005113Y-2500372D01*
G01X-2006954Y-2519064D01*
G01X-2496801Y-2519064D01*
G01X-2496799Y-2422906D01*
G01X-2281773Y-2422906D01*
G01X-2270706Y-2421153D01*
G01X-2260722Y-2416066D01*
G01X-2252799Y-2408143D01*
G01X-2247712Y-2398159D01*
G01X-2245959Y-2387092D01*
G01X-2245959Y-2051004D01*
G01X-2247712Y-2039937D01*
G01X-2252799Y-2029953D01*
G01X-2260722Y-2022030D01*
G01X-2270706Y-2016943D01*
G01X-2281773Y-2015190D01*
G01X-2366593Y-2015190D01*
G01X-2370007Y-2005166D01*
G01X-2338620Y-2005166D01*
G01X-2327553Y-2003414D01*
G01X-2317569Y-1998327D01*
G01X-2309646Y-1990403D01*
G01X-2304559Y-1980420D01*
G01X-2302806Y-1969352D01*
G01X-2302806Y-1888705D01*
G01X-2304121Y-1879091D01*
G01X-2307968Y-1870183D01*
G01X-2314065Y-1862634D01*
G01X-2321964Y-1857000D01*
G01X-2331087Y-1853692D01*
G01X-2321964Y-1850385D01*
G01X-2314065Y-1844750D01*
G01X-2307968Y-1837202D01*
G01X-2304121Y-1828293D01*
G01X-2302806Y-1818680D01*
G01X-2302806Y-1738032D01*
G01X-2304019Y-1728793D01*
G01X-2307574Y-1720179D01*
G01X-2313231Y-1712773D01*
G01X-2320607Y-1707078D01*
G01X-2320607Y-1229643D01*
G01X-2321783Y-1217701D01*
G01X-2325266Y-1206218D01*
G01X-2330923Y-1195635D01*
G01X-2338536Y-1186359D01*
G01X-2390192Y-1134702D01*
G01X-2376027Y-1131452D01*
G01X-2362910Y-1125194D01*
G01X-2351472Y-1116229D01*
G01X-2342261Y-1104987D01*
G01X-2335720Y-1092009D01*
G01X-2332163Y-1077918D01*
G01X-2331762Y-1063390D01*
G01X-2334534Y-1049124D01*
G01X-2340348Y-1035804D01*
G01X-2348924Y-1024071D01*
G01X-2359849Y-1014487D01*
G01X-2372600Y-1007514D01*
G01X-2496762Y-883353D01*
G01X-2496759Y-748269D01*
G01X-2491816Y-744144D01*
G01X-2339416Y-591744D01*
G01X-2333724Y-584327D01*
G01X-2330146Y-575689D01*
G01X-2328926Y-566420D01*
G01X-2328926Y-391160D01*
G01X-2330146Y-381891D01*
G01X-2333724Y-373253D01*
G01X-2339416Y-365836D01*
G01X-2483846Y-221405D01*
G01X-2489849Y-216574D01*
G01X-2496746Y-213140D01*
G01X-2496741Y-32371D01*
G01X-2476934Y-38267D01*
G01X-2456397Y-40581D01*
G01X-2435774Y-39239D01*
G01X-2415710Y-34284D01*
G01X-2396833Y-25870D01*
G01X-2379735Y-14262D01*
G01X-2364949Y178D01*
G01X-2352940Y16998D01*
G01X-2344083Y35670D01*
G01X-2338655Y55612D01*
G01X-2336827Y76197D01*
G01X-2338654Y96783D01*
G01X-2344081Y116724D01*
G01X-2352937Y135398D01*
G01X-2364946Y152218D01*
G01X-2379730Y166658D01*
G01X-2396828Y178268D01*
G01X-2415704Y186682D01*
G01X-2435768Y191638D01*
G01X-2456391Y192981D01*
G01X-2476928Y190668D01*
G01X-2496736Y184773D01*
G01X-2496735Y221627D01*
G01X-2477677Y215886D01*
G01X-2457920Y213465D01*
G01X-2438039Y214433D01*
G01X-2418611Y218763D01*
G01X-2400200Y226327D01*
G01X-2383341Y236908D01*
G01X-2368522Y250198D01*
G01X-2356176Y265810D01*
G01X-2346659Y283292D01*
G01X-2340248Y302136D01*
G01X-2337129Y321795D01*
G01X-2337394Y341698D01*
G01X-2341033Y361267D01*
G01X-2347943Y379933D01*
G01X-2357921Y397156D01*
G01X-2370678Y412435D01*
G01X-2385844Y425326D01*
G01X-2402978Y435456D01*
G01X-2421584Y442529D01*
G01X-2441120Y446340D01*
G01X-2461020Y446780D01*
G01X-2480705Y443835D01*
G01X-2496730Y459859D01*
G01X-2496729Y475624D01*
G01X-2477669Y469885D01*
G01X-2457911Y467465D01*
G01X-2438030Y468434D01*
G01X-2418601Y472766D01*
G01X-2400190Y480332D01*
G01X-2383331Y490915D01*
G01X-2368514Y504207D01*
G01X-2356168Y519822D01*
G01X-2346653Y537306D01*
G01X-2340244Y556151D01*
G01X-2337128Y575811D01*
G01X-2337396Y595715D01*
G01X-2341038Y615284D01*
G01X-2347951Y633951D01*
G01X-2357932Y651173D01*
G01X-2370693Y666450D01*
G01X-2385862Y679339D01*
G01X-2402999Y689465D01*
G01X-2421606Y696535D01*
G01X-2441144Y700343D01*
G01X-2461045Y700778D01*
G01X-2480731Y697829D01*
G01X-2488292Y703930D01*
G01X-2496724Y708758D01*
G01X-2496723Y721387D01*
G01X-2372641Y721387D01*
G01X-2361574Y723140D01*
G01X-2351590Y728227D01*
G01X-2343667Y736150D01*
G01X-2338580Y746134D01*
G01X-2336827Y757201D01*
G01X-2336827Y919199D01*
G01X-2338580Y930266D01*
G01X-2343667Y940250D01*
G01X-2351590Y948173D01*
G01X-2361574Y953260D01*
G01X-2372641Y955013D01*
G01X-2496718Y955013D01*
G01X-2496713Y1156110D01*
G01X-2491637Y1157986D01*
G01X-2453998Y1157986D01*
G01X-2448314Y1150494D01*
G01X-2440875Y1144740D01*
G01X-2432195Y1141121D01*
G01X-2422872Y1139886D01*
G01X-2287871Y1139886D01*
G01X-2276804Y1141639D01*
G01X-2266820Y1146726D01*
G01X-2258897Y1154649D01*
G01X-2253810Y1164633D01*
G01X-2252057Y1175700D01*
G01X-2252057Y1316700D01*
G01X-2253810Y1327768D01*
G01X-2258897Y1337751D01*
G01X-2266820Y1345675D01*
G01X-2276804Y1350762D01*
G01X-2287871Y1352514D01*
G01X-2422872Y1352514D01*
G01X-2433939Y1350762D01*
G01X-2443923Y1345675D01*
G01X-2451846Y1337751D01*
G01X-2456933Y1327768D01*
G01X-2458686Y1316700D01*
G01X-2458686Y1280414D01*
G01X-2491637Y1280414D01*
G01X-2491888Y1280518D01*
G01X-2496710Y1285340D01*
G01X-2496707Y1396872D01*
G01X-2482119Y1403137D01*
G01X-2469438Y1412690D01*
G01X-2459391Y1424983D01*
G01X-2452553Y1439312D01*
G01X-2449318Y1454855D01*
G01X-2449870Y1470722D01*
G01X-2454177Y1486003D01*
G01X-2454177Y1522832D01*
G01X-2455353Y1534774D01*
G01X-2458837Y1546257D01*
G01X-2464494Y1556840D01*
G01X-2472106Y1566116D01*
G01X-2493846Y1587856D01*
G01X-2493846Y1589100D01*
G01X-2494567Y1596252D01*
G01X-2496702Y1603116D01*
G01X-2496700Y1704340D01*
G01X-2253254Y1704340D01*
G01X-2251327Y1688470D01*
G01X-2245658Y1673522D01*
G01X-2236577Y1660366D01*
G01X-2224611Y1649765D01*
G01X-2210455Y1642335D01*
G01X-2194933Y1638509D01*
G01X-2178947Y1638509D01*
G01X-2163425Y1642335D01*
G01X-2149269Y1649765D01*
G01X-2137303Y1660366D01*
G01X-2128222Y1673522D01*
G01X-2122553Y1688470D01*
G01X-2120626Y1704340D01*
G01X-2122553Y1720210D01*
G01X-2128222Y1735158D01*
G01X-2137303Y1748314D01*
G01X-2149269Y1758915D01*
G01X-2163425Y1766345D01*
G01X-2178947Y1770171D01*
G01X-2194933Y1770171D01*
G01X-2210455Y1766345D01*
G01X-2224611Y1758915D01*
G01X-2236577Y1748314D01*
G01X-2245658Y1735158D01*
G01X-2251327Y1720210D01*
G01X-2253254Y1704340D01*
G01X-2253254Y1704340D01*
G01X-2496700Y1704340D01*
G01X-2496700Y1709186D01*
G01X-2453620Y1709186D01*
G01X-2441678Y1710362D01*
G01X-2430195Y1713845D01*
G01X-2419612Y1719502D01*
G01X-2410335Y1727115D01*
G01X-2332406Y1805044D01*
G01X-2324459Y1814826D01*
G01X-2314882Y1802845D01*
G01X-2302809Y1793385D01*
G01X-2288886Y1786952D01*
G01X-2273857Y1783890D01*
G01X-2258526Y1784362D01*
G01X-2243714Y1788344D01*
G01X-2230213Y1795622D01*
G01X-2218745Y1805808D01*
G01X-2209924Y1818355D01*
G01X-2204221Y1832594D01*
G01X-2201943Y1847761D01*
G01X-2203209Y1863047D01*
G01X-2207954Y1877633D01*
G01X-2215923Y1890738D01*
G01X-2206013Y1901723D01*
G01X-2198785Y1914631D01*
G01X-2194599Y1928821D01*
G01X-2178995Y1927648D01*
G01X-2163550Y1930164D01*
G01X-2149124Y1936229D01*
G01X-2136521Y1945506D01*
G01X-2126444Y1957478D01*
G01X-2119452Y1971478D01*
G01X-2115935Y1986726D01*
G01X-2116090Y2002374D01*
G01X-2119907Y2017550D01*
G01X-2127174Y2031410D01*
G01X-2137486Y2043180D01*
G01X-2150269Y2052206D01*
G01X-2164812Y2057985D01*
G01X-2180304Y2060196D01*
G01X-2195882Y2058715D01*
G01X-2210680Y2053624D01*
G01X-2223873Y2045208D01*
G01X-2234726Y2033934D01*
G01X-2242635Y2020431D01*
G01X-2247160Y2005451D01*
G01X-2262465Y2006637D01*
G01X-2277632Y2004272D01*
G01X-2291849Y1998482D01*
G01X-2304354Y1989580D01*
G01X-2314477Y1978040D01*
G01X-2314477Y2064021D01*
G01X-2303704Y2066065D01*
G01X-2294055Y2071274D01*
G01X-2286434Y2079158D01*
G01X-2281556Y2088978D01*
G01X-2279877Y2099814D01*
G01X-2279877Y2349813D01*
G01X-2281630Y2360881D01*
G01X-2286717Y2370864D01*
G01X-2294640Y2378788D01*
G01X-2304624Y2383875D01*
G01X-2315691Y2385627D01*
G01X-2417826Y2385627D01*
G01X-2417826Y2387600D01*
G01X-2419579Y2398667D01*
G01X-2424666Y2408651D01*
G01X-2432589Y2416574D01*
G01X-2442573Y2421661D01*
G01X-2453640Y2423414D01*
G37*
G36*
G01X-4599686Y-3591306D02*
G01X-4599686Y-3261360D01*
G01X-401320Y-3261360D01*
G01X-401320Y-3591306D01*
G01X-4599686Y-3591306D01*
G37*
G36*
G01X-657860Y-2938780D02*
G01X-657860Y-2899100D01*
G01X-372200Y-2899100D01*
G01X-372200Y-3019100D01*
G01X-370365Y-3040079D01*
G01X-364914Y-3060421D01*
G01X-356014Y-3079507D01*
G01X-343935Y-3096758D01*
G01X-329044Y-3111649D01*
G01X-311793Y-3123728D01*
G01X-292707Y-3132628D01*
G01X-272365Y-3138078D01*
G01X-251386Y-3139914D01*
G01X-230407Y-3138078D01*
G01X-210066Y-3132628D01*
G01X-190979Y-3123728D01*
G01X-173729Y-3111649D01*
G01X-158838Y-3096758D01*
G01X-146758Y-3079507D01*
G01X-137858Y-3060421D01*
G01X-132408Y-3040079D01*
G01X-130573Y-3019100D01*
G01X-130573Y-2899100D01*
G01X107809Y-2899100D01*
G01X107809Y-2899100D01*
G01X107809Y-3019100D01*
G01X109644Y-3040079D01*
G01X115095Y-3060421D01*
G01X123995Y-3079507D01*
G01X136074Y-3096758D01*
G01X150965Y-3111649D01*
G01X168216Y-3123728D01*
G01X187302Y-3132628D01*
G01X207644Y-3138078D01*
G01X228623Y-3139914D01*
G01X249602Y-3138078D01*
G01X269944Y-3132628D01*
G01X289030Y-3123728D01*
G01X306280Y-3111649D01*
G01X321172Y-3096758D01*
G01X333251Y-3079507D01*
G01X342151Y-3060421D01*
G01X347601Y-3040079D01*
G01X349437Y-3019100D01*
G01X349437Y-2899100D01*
G01X587793Y-2899100D01*
G01X587793Y-3019100D01*
G01X589628Y-3040079D01*
G01X595079Y-3060421D01*
G01X603979Y-3079507D01*
G01X616058Y-3096758D01*
G01X630949Y-3111649D01*
G01X648200Y-3123728D01*
G01X667286Y-3132628D01*
G01X687628Y-3138078D01*
G01X708607Y-3139914D01*
G01X729586Y-3138078D01*
G01X749927Y-3132628D01*
G01X769014Y-3123728D01*
G01X786264Y-3111649D01*
G01X801155Y-3096758D01*
G01X813235Y-3079507D01*
G01X822135Y-3060421D01*
G01X827585Y-3040079D01*
G01X829420Y-3019100D01*
G01X829420Y-2899100D01*
G01X828409Y-2887538D01*
G01X1026503Y-2887538D01*
G01X1026503Y-2987538D01*
G01X1028404Y-3005502D01*
G01X1034024Y-3022670D01*
G01X1043114Y-3038282D01*
G01X1055270Y-3051644D01*
G01X1069954Y-3062166D01*
G01X1086515Y-3069381D01*
G01X1104220Y-3072969D01*
G01X1122283Y-3072771D01*
G01X1139905Y-3068796D01*
G01X1156305Y-3061220D01*
G01X1170755Y-3050379D01*
G01X1182615Y-3036753D01*
G01X1191360Y-3020947D01*
G01X1200120Y-3034909D01*
G01X1211870Y-3046468D01*
G01X1225974Y-3054997D01*
G01X1241668Y-3060035D01*
G01X1258101Y-3061308D01*
G01X1274384Y-3058748D01*
G01X1289634Y-3052494D01*
G01X1303024Y-3042883D01*
G01X1315097Y-3051991D01*
G01X1328919Y-3058128D01*
G01X1343771Y-3060973D01*
G01X1358883Y-3060379D01*
G01X1373466Y-3056377D01*
G01X1386764Y-3049175D01*
G01X1398084Y-3039147D01*
G01X1406838Y-3026816D01*
G01X1412571Y-3012822D01*
G01X1414984Y-2997892D01*
G01X1414677Y-2993410D01*
G01X1453998Y-2993410D01*
G01X1455925Y-3009280D01*
G01X1461594Y-3024227D01*
G01X1470676Y-3037384D01*
G01X1482642Y-3047985D01*
G01X1496797Y-3055415D01*
G01X1512319Y-3059240D01*
G01X1528306Y-3059240D01*
G01X1543828Y-3055415D01*
G01X1557983Y-3047985D01*
G01X1569949Y-3037384D01*
G01X1579031Y-3024227D01*
G01X1584700Y-3009280D01*
G01X1586626Y-2993410D01*
G01X1586536Y-2992666D01*
G01X1672584Y-2992666D01*
G01X1674522Y-3007730D01*
G01X1679836Y-3021957D01*
G01X1688248Y-3034603D01*
G01X1699316Y-3045003D01*
G01X1712461Y-3052611D01*
G01X1726992Y-3057030D01*
G01X1742146Y-3058027D01*
G01X1757131Y-3055549D01*
G01X1771158Y-3049727D01*
G01X1783493Y-3040867D01*
G01X1796788Y-3051212D01*
G01X1812151Y-3058124D01*
G01X1828711Y-3061213D01*
G01X1845533Y-3060302D01*
G01X1861663Y-3055444D01*
G01X1876189Y-3046914D01*
G01X1888290Y-3035193D01*
G01X1897280Y-3020947D01*
G01X1906025Y-3036753D01*
G01X1917885Y-3050379D01*
G01X1932335Y-3061220D01*
G01X1948735Y-3068796D01*
G01X1966357Y-3072771D01*
G01X1984420Y-3072969D01*
G01X2002125Y-3069381D01*
G01X2018686Y-3062166D01*
G01X2033370Y-3051644D01*
G01X2045526Y-3038282D01*
G01X2054616Y-3022670D01*
G01X2060236Y-3005502D01*
G01X2062137Y-2987538D01*
G01X2062137Y-2887538D01*
G01X2060262Y-2869696D01*
G01X2054718Y-2852634D01*
G01X2045748Y-2837098D01*
G01X2033744Y-2823766D01*
G01X2019230Y-2813221D01*
G01X2002841Y-2805924D01*
G01X1985293Y-2802194D01*
G01X1967353Y-2802194D01*
G01X1949805Y-2805924D01*
G01X1933416Y-2813221D01*
G01X1918902Y-2823766D01*
G01X1906898Y-2837098D01*
G01X1897928Y-2852634D01*
G01X1892385Y-2869696D01*
G01X1890509Y-2887538D01*
G01X1890509Y-2948783D01*
G01X1880104Y-2937386D01*
G01X1867477Y-2928514D01*
G01X1853227Y-2922588D01*
G01X1838033Y-2919889D01*
G01X1822614Y-2920547D01*
G01X1807704Y-2924528D01*
G01X1794011Y-2931645D01*
G01X1782185Y-2941560D01*
G01X1769620Y-2933027D01*
G01X1755444Y-2927577D01*
G01X1740400Y-2925495D01*
G01X1725276Y-2926891D01*
G01X1710867Y-2931691D01*
G01X1697928Y-2939644D01*
G01X1687137Y-2950332D01*
G01X1679062Y-2963194D01*
G01X1674124Y-2977557D01*
G01X1672584Y-2992666D01*
G01X1672584Y-2992666D01*
G01X1586536Y-2992666D01*
G01X1584700Y-2977540D01*
G01X1579031Y-2962592D01*
G01X1569949Y-2949435D01*
G01X1557983Y-2938834D01*
G01X1543828Y-2931405D01*
G01X1528306Y-2927579D01*
G01X1512319Y-2927579D01*
G01X1496797Y-2931405D01*
G01X1482642Y-2938834D01*
G01X1470676Y-2949435D01*
G01X1461594Y-2962592D01*
G01X1455925Y-2977540D01*
G01X1453998Y-2993410D01*
G01X1453998Y-2993410D01*
G01X1414677Y-2993410D01*
G01X1413952Y-2982805D01*
G01X1409528Y-2968343D01*
G01X1401943Y-2955260D01*
G01X1391591Y-2944236D01*
G01X1379011Y-2935843D01*
G01X1364856Y-2930519D01*
G01X1349863Y-2928541D01*
G01X1334812Y-2930010D01*
G01X1320485Y-2934852D01*
G01X1307628Y-2942813D01*
G01X1295869Y-2932492D01*
G01X1282131Y-2925005D01*
G01X1267085Y-2920717D01*
G01X1251464Y-2919838D01*
G01X1236031Y-2922410D01*
G01X1221540Y-2928308D01*
G01X1208697Y-2937244D01*
G01X1198131Y-2948783D01*
G01X1198131Y-2948783D01*
G01X1198131Y-2887538D01*
G01X1196255Y-2869696D01*
G01X1190712Y-2852634D01*
G01X1181742Y-2837098D01*
G01X1169738Y-2823766D01*
G01X1155224Y-2813221D01*
G01X1138835Y-2805924D01*
G01X1121287Y-2802194D01*
G01X1103347Y-2802194D01*
G01X1085799Y-2805924D01*
G01X1069410Y-2813221D01*
G01X1054896Y-2823766D01*
G01X1042892Y-2837098D01*
G01X1033922Y-2852634D01*
G01X1028378Y-2869696D01*
G01X1026503Y-2887538D01*
G01X828409Y-2887538D01*
G01X827585Y-2878121D01*
G01X822135Y-2857779D01*
G01X813235Y-2838693D01*
G01X801155Y-2821442D01*
G01X786264Y-2806551D01*
G01X769014Y-2794472D01*
G01X749927Y-2785572D01*
G01X729586Y-2780122D01*
G01X708607Y-2778286D01*
G01X687628Y-2780122D01*
G01X667286Y-2785572D01*
G01X648200Y-2794472D01*
G01X630949Y-2806551D01*
G01X616058Y-2821442D01*
G01X603979Y-2838693D01*
G01X595079Y-2857779D01*
G01X589628Y-2878121D01*
G01X587793Y-2899100D01*
G01X587793Y-2899100D01*
G01X349437Y-2899100D01*
G01X347601Y-2878121D01*
G01X342151Y-2857779D01*
G01X333251Y-2838693D01*
G01X321172Y-2821442D01*
G01X306280Y-2806551D01*
G01X289030Y-2794472D01*
G01X269944Y-2785572D01*
G01X249602Y-2780122D01*
G01X228623Y-2778286D01*
G01X207644Y-2780122D01*
G01X187302Y-2785572D01*
G01X168216Y-2794472D01*
G01X150965Y-2806551D01*
G01X136074Y-2821442D01*
G01X123995Y-2838693D01*
G01X115095Y-2857779D01*
G01X109644Y-2878121D01*
G01X107809Y-2899100D01*
G01X-130573Y-2899100D01*
G01X-132408Y-2878121D01*
G01X-137858Y-2857779D01*
G01X-146758Y-2838693D01*
G01X-158838Y-2821442D01*
G01X-173729Y-2806551D01*
G01X-190979Y-2794472D01*
G01X-210066Y-2785572D01*
G01X-230407Y-2780122D01*
G01X-251386Y-2778286D01*
G01X-272365Y-2780122D01*
G01X-292707Y-2785572D01*
G01X-311793Y-2794472D01*
G01X-329044Y-2806551D01*
G01X-343935Y-2821442D01*
G01X-356014Y-2838693D01*
G01X-364914Y-2857779D01*
G01X-370365Y-2878121D01*
G01X-372200Y-2899100D01*
G01X-372200Y-2899100D01*
G01X-657860Y-2899100D01*
G01X-657860Y-2743200D01*
G01X1502728Y-2743200D01*
G01X1504655Y-2759070D01*
G01X1510324Y-2774018D01*
G01X1519405Y-2787174D01*
G01X1531371Y-2797775D01*
G01X1545527Y-2805205D01*
G01X1561049Y-2809031D01*
G01X1577035Y-2809031D01*
G01X1592557Y-2805205D01*
G01X1606713Y-2797775D01*
G01X1618679Y-2787174D01*
G01X1627760Y-2774018D01*
G01X1633429Y-2759070D01*
G01X1635356Y-2743200D01*
G01X1633429Y-2727330D01*
G01X1627760Y-2712382D01*
G01X1618679Y-2699226D01*
G01X1606713Y-2688625D01*
G01X1592557Y-2681195D01*
G01X1577035Y-2677369D01*
G01X1561049Y-2677369D01*
G01X1545527Y-2681195D01*
G01X1531371Y-2688625D01*
G01X1519405Y-2699226D01*
G01X1510324Y-2712382D01*
G01X1504655Y-2727330D01*
G01X1502728Y-2743200D01*
G01X1502728Y-2743200D01*
G01X-657860Y-2743200D01*
G01X-657860Y-2674846D01*
G01X-628529Y-2687165D01*
G01X-613349Y-2699398D01*
G01X-596007Y-2708305D01*
G01X-577221Y-2713517D01*
G01X-557768Y-2714819D01*
G01X-545866Y-2713654D01*
G01X-528249Y-2709059D01*
G01X-511819Y-2701214D01*
G01X-497169Y-2690403D01*
G01X-484829Y-2677016D01*
G01X-475245Y-2661536D01*
G01X-41302Y-2318807D01*
G01X-33973Y-2310969D01*
G01X-29294Y-2301311D01*
G01X-27686Y-2290701D01*
G01X-27686Y-2274189D01*
G01X1493756Y-2274189D01*
G01X1495683Y-2290059D01*
G01X1501352Y-2305007D01*
G01X1510433Y-2318163D01*
G01X1522399Y-2328764D01*
G01X1536554Y-2336194D01*
G01X1552077Y-2340020D01*
G01X1568063Y-2340020D01*
G01X1583585Y-2336194D01*
G01X1597740Y-2328764D01*
G01X1609707Y-2318163D01*
G01X1618788Y-2305007D01*
G01X1624457Y-2290059D01*
G01X1626384Y-2274189D01*
G01X1624457Y-2258319D01*
G01X1618788Y-2243371D01*
G01X1609707Y-2230215D01*
G01X1597740Y-2219614D01*
G01X1583585Y-2212184D01*
G01X1568063Y-2208358D01*
G01X1552077Y-2208358D01*
G01X1536554Y-2212184D01*
G01X1522399Y-2219614D01*
G01X1510433Y-2230215D01*
G01X1501352Y-2243371D01*
G01X1495683Y-2258319D01*
G01X1493756Y-2274189D01*
G01X1493756Y-2274189D01*
G01X-27686Y-2274189D01*
G01X-27686Y-2019300D01*
G01X-27776Y-2016760D01*
G01X483882Y-2016760D01*
G01X535444Y-2068322D01*
G01X550493Y-2080673D01*
G01X567664Y-2089850D01*
G01X586294Y-2095502D01*
G01X605669Y-2097410D01*
G01X720806Y-2097410D01*
G01X738749Y-2095776D01*
G01X756101Y-2090927D01*
G01X772291Y-2083023D01*
G01X786787Y-2072324D01*
G01X799112Y-2059182D01*
G01X808859Y-2044030D01*
G01X817856Y-2054611D01*
G01X828860Y-2063086D01*
G01X841387Y-2069083D01*
G01X854889Y-2072339D01*
G01X868773Y-2072712D01*
G01X882430Y-2070184D01*
G01X876256Y-2082685D01*
G01X872831Y-2096200D01*
G01X872308Y-2110132D01*
G01X874709Y-2123865D01*
G01X879929Y-2136793D01*
G01X887736Y-2148345D01*
G01X897786Y-2158008D01*
G01X909634Y-2165357D01*
G01X922757Y-2170066D01*
G01X936574Y-2171927D01*
G01X950475Y-2170859D01*
G01X963845Y-2166907D01*
G01X968149Y-2181698D01*
G01X975749Y-2195096D01*
G01X986235Y-2206380D01*
G01X999041Y-2214940D01*
G01X1013477Y-2220314D01*
G01X1028764Y-2222213D01*
G01X1044076Y-2220534D01*
G01X1058588Y-2215367D01*
G01X1071516Y-2206992D01*
G01X1082163Y-2195860D01*
G01X1089954Y-2182571D01*
G01X1094469Y-2167844D01*
G01X1095465Y-2152472D01*
G01X1092887Y-2137286D01*
G01X1086875Y-2123103D01*
G01X1077753Y-2110691D01*
G01X1077753Y-2096046D01*
G01X1121405Y-2052395D01*
G01X1129115Y-2042347D01*
G01X1133961Y-2030647D01*
G01X1135614Y-2018090D01*
G01X1135614Y-2016760D01*
G01X1191687Y-2016760D01*
G01X1177452Y-2022832D01*
G01X1165013Y-2032038D01*
G01X1155046Y-2043876D01*
G01X1148094Y-2057703D01*
G01X1144536Y-2072764D01*
G01X1144565Y-2088239D01*
G01X1148181Y-2103286D01*
G01X1155186Y-2117086D01*
G01X1165198Y-2128886D01*
G01X1177672Y-2138044D01*
G01X1191930Y-2144062D01*
G01X1207194Y-2146612D01*
G01X1222633Y-2145554D01*
G01X1237407Y-2140946D01*
G01X1250710Y-2133040D01*
G01X1261819Y-2122266D01*
G01X1270128Y-2109210D01*
G01X1275186Y-2094585D01*
G01X1276715Y-2079185D01*
G01X1274634Y-2063850D01*
G01X1289408Y-2070225D01*
G01X1305282Y-2072854D01*
G01X1321323Y-2071582D01*
G01X1336585Y-2066485D01*
G01X1350170Y-2057861D01*
G01X1361278Y-2046219D01*
G01X1369255Y-2032244D01*
G01X1373631Y-2016760D01*
G01X1440689Y-2016760D01*
G01X1437741Y-2033766D01*
G01X1437782Y-2051025D01*
G01X1440811Y-2068016D01*
G01X1446735Y-2084227D01*
G01X1455377Y-2099167D01*
G01X1466474Y-2112386D01*
G01X1507137Y-2153048D01*
G01X1522187Y-2165399D01*
G01X1539357Y-2174577D01*
G01X1557988Y-2180229D01*
G01X1577363Y-2182137D01*
G01X1618568Y-2182137D01*
G01X1638027Y-2180275D01*
G01X1656744Y-2174638D01*
G01X1673995Y-2165444D01*
G01X1689111Y-2153049D01*
G01X1754573Y-2087587D01*
G01X1835447Y-2087587D01*
G01X1846514Y-2085834D01*
G01X1856498Y-2080747D01*
G01X1864421Y-2072824D01*
G01X1869508Y-2062840D01*
G01X1871261Y-2051773D01*
G01X1871261Y-2016760D01*
G01X2180192Y-2016760D01*
G01X2240280Y-2076848D01*
G01X2240280Y-2380275D01*
G01X2241053Y-2384164D01*
G01X2243256Y-2387460D01*
G01X2317223Y-2461427D01*
G01X2320519Y-2463630D01*
G01X2324408Y-2464403D01*
G01X4599686Y-2464403D01*
G01X4599686Y-3591306D01*
G01X-1603734Y-3591306D01*
G01X-1860152Y-3334888D01*
G01X-1840809Y-3315546D01*
G01X1026503Y-3315546D01*
G01X1026503Y-3395546D01*
G01X1028378Y-3413387D01*
G01X1033922Y-3430449D01*
G01X1042892Y-3445986D01*
G01X1054896Y-3459318D01*
G01X1069410Y-3469863D01*
G01X1085799Y-3477160D01*
G01X1103347Y-3480889D01*
G01X1121287Y-3480889D01*
G01X1138835Y-3477160D01*
G01X1155224Y-3469863D01*
G01X1169738Y-3459318D01*
G01X1181742Y-3445986D01*
G01X1190712Y-3430449D01*
G01X1196255Y-3413387D01*
G01X1198131Y-3395546D01*
G01X1198131Y-3315546D01*
G01X1890509Y-3315546D01*
G01X1890509Y-3395546D01*
G01X1892385Y-3413387D01*
G01X1897928Y-3430449D01*
G01X1906898Y-3445986D01*
G01X1918902Y-3459318D01*
G01X1933416Y-3469863D01*
G01X1949805Y-3477160D01*
G01X1967353Y-3480889D01*
G01X1985293Y-3480889D01*
G01X2002841Y-3477160D01*
G01X2019230Y-3469863D01*
G01X2033744Y-3459318D01*
G01X2045748Y-3445986D01*
G01X2054718Y-3430449D01*
G01X2060262Y-3413387D01*
G01X2062137Y-3395546D01*
G01X2062137Y-3315546D01*
G01X2060262Y-3297704D01*
G01X2054718Y-3280642D01*
G01X2045748Y-3265106D01*
G01X2033744Y-3251774D01*
G01X2019230Y-3241229D01*
G01X2002841Y-3233932D01*
G01X1985293Y-3230202D01*
G01X1967353Y-3230202D01*
G01X1949805Y-3233932D01*
G01X1933416Y-3241229D01*
G01X1918902Y-3251774D01*
G01X1906898Y-3265106D01*
G01X1897928Y-3280642D01*
G01X1892385Y-3297704D01*
G01X1890509Y-3315546D01*
G01X1890509Y-3315546D01*
G01X1198131Y-3315546D01*
G01X1196255Y-3297704D01*
G01X1190712Y-3280642D01*
G01X1181742Y-3265106D01*
G01X1169738Y-3251774D01*
G01X1155224Y-3241229D01*
G01X1138835Y-3233932D01*
G01X1121287Y-3230202D01*
G01X1103347Y-3230202D01*
G01X1085799Y-3233932D01*
G01X1069410Y-3241229D01*
G01X1054896Y-3251774D01*
G01X1042892Y-3265106D01*
G01X1033922Y-3280642D01*
G01X1028378Y-3297704D01*
G01X1026503Y-3315546D01*
G01X1026503Y-3315546D01*
G01X-1840809Y-3315546D01*
G01X-1580884Y-3055620D01*
G01X-774700Y-3055620D01*
G01X-770812Y-3054847D01*
G01X-767516Y-3052644D01*
G01X-660836Y-2945964D01*
G01X-658633Y-2942668D01*
G01X-657860Y-2938780D01*
G37*
G54D10*
G01X-2374900Y-395368D02*
G01X-2374900Y-562212D01*
G01X-2521348Y-708660D01*
G01X-2607514Y-708660D01*
G01X-2795110Y-521064D01*
G01X-2795110Y-363459D01*
G01X-2688541Y-256889D01*
G01X-2513379Y-256889D01*
G01X-2374900Y-395368D01*
G01X1536700Y934720D02*
G01X1536700Y1450340D01*
G01X1902460Y1450340D01*
G01X1902460Y934720D01*
G01X1536700Y934720D01*
G01X-4292607Y-2099306D02*
G03X-4300312Y-2077113I-35814J0D01*
G01X-4300312Y-2061164D01*
G01X-4162635Y-2061164D01*
G01X-4162635Y-2110780D01*
G03X-4126821Y-2146594I35814J0D01*
G01X-4040420Y-2146594D01*
G03X-4010872Y-2131017I0J35814D01*
G03X-3976503Y-2113741I-8915J60561D01*
G01X-3969357Y-2106595D01*
G03X-3964201Y-2101991I-38129J47889D01*
G01X-3955020Y-2092810D01*
G03X-3920967Y-2061164I-25252J61318D01*
G01X-3841333Y-2061164D01*
G01X-3841333Y-2376932D01*
G01X-4300312Y-2376932D01*
G01X-4300312Y-2371499D01*
G03X-4292607Y-2349306I-28109J22193D01*
G01X-4292607Y-2099306D01*
G01X-2743207Y-2099306D02*
G03X-2750912Y-2077113I-35814J0D01*
G01X-2750912Y-2061164D01*
G01X-2613235Y-2061164D01*
G01X-2613235Y-2110780D01*
G03X-2577421Y-2146594I35814J0D01*
G01X-2491020Y-2146594D01*
G03X-2461472Y-2131017I0J35814D01*
G03X-2427103Y-2113741I-8915J60561D01*
G01X-2419957Y-2106595D01*
G03X-2414801Y-2101991I-38129J47889D01*
G01X-2405620Y-2092810D01*
G03X-2371567Y-2061164I-25252J61318D01*
G01X-2291933Y-2061164D01*
G01X-2291933Y-2376932D01*
G01X-2750912Y-2376932D01*
G01X-2750912Y-2371499D01*
G03X-2743207Y-2349306I-28109J22193D01*
G01X-2743207Y-2099306D01*
G01X-3517907Y-2099306D02*
G03X-3525612Y-2077113I-35814J0D01*
G01X-3525612Y-2061164D01*
G01X-3387935Y-2061164D01*
G01X-3387935Y-2110780D01*
G03X-3352121Y-2146594I35814J0D01*
G01X-3265720Y-2146594D01*
G03X-3236172Y-2131017I0J35814D01*
G03X-3201803Y-2113741I-8915J60561D01*
G01X-3194657Y-2106595D01*
G03X-3189501Y-2101991I-38129J47889D01*
G01X-3180320Y-2092810D01*
G03X-3146267Y-2061164I-25252J61318D01*
G01X-3066633Y-2061164D01*
G01X-3066633Y-2376932D01*
G01X-3525612Y-2376932D01*
G01X-3525612Y-2371499D01*
G03X-3517907Y-2349306I-28109J22193D01*
G01X-3517907Y-2099306D01*
G01X4292515Y2099814D02*
G03X4300220Y2077621I35814J0D01*
G01X4300220Y2061672D01*
G01X4162543Y2061672D01*
G01X4162543Y2111287D01*
G03X4126729Y2147101I-35814J0D01*
G01X4040328Y2147101D01*
G03X4010780Y2131525I0J-35814D01*
G03X3976411Y2114248I8915J-60561D01*
G01X3969265Y2107103D01*
G03X3964109Y2102499I38129J-47889D01*
G01X3954928Y2093318D01*
G03X3920875Y2061672I25252J-61318D01*
G01X3841241Y2061672D01*
G01X3841241Y2377440D01*
G01X4300220Y2377440D01*
G01X4300220Y2372006D01*
G03X4292515Y2349813I28109J-22193D01*
G01X4292515Y2099814D01*
G01X2743115Y2099814D02*
G03X2750820Y2077621I35814J0D01*
G01X2750820Y2061672D01*
G01X2613143Y2061672D01*
G01X2613143Y2111287D01*
G03X2577329Y2147101I-35814J0D01*
G01X2490928Y2147101D01*
G03X2461380Y2131525I0J-35814D01*
G03X2427011Y2114248I8915J-60561D01*
G01X2419865Y2107103D01*
G03X2414709Y2102499I38129J-47889D01*
G01X2405528Y2093318D01*
G03X2371475Y2061672I25252J-61318D01*
G01X2291841Y2061672D01*
G01X2291841Y2377440D01*
G01X2750820Y2377440D01*
G01X2750820Y2372006D01*
G03X2743115Y2349813I28109J-22193D01*
G01X2743115Y2099814D01*
G01X2250641Y2457158D02*
G01X2250641Y3543652D01*
G01X2252829Y3545840D01*
G01X4599686Y3545840D01*
G01X4599686Y2457158D01*
G01X2250641Y2457158D01*
G01X3517815Y2099814D02*
G03X3525520Y2077621I35814J0D01*
G01X3525520Y2061672D01*
G01X3387843Y2061672D01*
G01X3387843Y2111287D01*
G03X3352029Y2147101I-35814J0D01*
G01X3265628Y2147101D01*
G03X3236080Y2131525I0J-35814D01*
G03X3201711Y2114248I8915J-60561D01*
G01X3194565Y2107103D01*
G03X3189409Y2102499I38129J-47889D01*
G01X3180228Y2093318D01*
G03X3146175Y2061672I25252J-61318D01*
G01X3066541Y2061672D01*
G01X3066541Y2377440D01*
G01X3525520Y2377440D01*
G01X3525520Y2372006D01*
G03X3517815Y2349813I28109J-22193D01*
G01X3517815Y2099814D01*
G01X2476585Y-2099814D02*
G03X2468880Y-2077621I-35814J0D01*
G01X2468880Y-2061672D01*
G01X2606557Y-2061672D01*
G01X2606557Y-2111287D01*
G03X2642371Y-2147101I35814J0D01*
G01X2728772Y-2147101D01*
G03X2758320Y-2131525I0J35814D01*
G03X2792689Y-2114248I-8915J60561D01*
G01X2799835Y-2107103D01*
G03X2804991Y-2102499I-38129J47889D01*
G01X2814172Y-2093318D01*
G03X2848225Y-2061672I-25252J61318D01*
G01X2927859Y-2061672D01*
G01X2927859Y-2377440D01*
G01X2468880Y-2377440D01*
G01X2468880Y-2372006D01*
G03X2476585Y-2349813I-28109J22193D01*
G01X2476585Y-2099814D01*
G01X4025985Y-2099814D02*
G03X4018280Y-2077621I-35814J0D01*
G01X4018280Y-2061672D01*
G01X4155957Y-2061672D01*
G01X4155957Y-2111287D01*
G03X4191771Y-2147101I35814J0D01*
G01X4278172Y-2147101D01*
G03X4307720Y-2131525I0J35814D01*
G03X4342089Y-2114248I-8915J60561D01*
G01X4349235Y-2107103D01*
G03X4354391Y-2102499I-38129J47889D01*
G01X4363572Y-2093318D01*
G03X4397625Y-2061672I-25252J61318D01*
G01X4477259Y-2061672D01*
G01X4477259Y-2377440D01*
G01X4018280Y-2377440D01*
G01X4018280Y-2372006D01*
G03X4025985Y-2349813I-28109J22193D01*
G01X4025985Y-2099814D01*
G01X4518459Y-3545840D02*
G01X2196949Y-3545840D01*
G01X2163580Y-3512471D01*
G01X2163580Y-2457158D01*
G01X4518459Y-2457158D01*
G01X4518459Y-3545840D01*
G01X3251285Y-2099814D02*
G03X3243580Y-2077621I-35814J0D01*
G01X3243580Y-2061672D01*
G01X3381257Y-2061672D01*
G01X3381257Y-2111287D01*
G03X3417071Y-2147101I35814J0D01*
G01X3503472Y-2147101D01*
G03X3533020Y-2131525I0J35814D01*
G03X3567389Y-2114248I-8915J60561D01*
G01X3574535Y-2107103D01*
G03X3579691Y-2102499I-38129J47889D01*
G01X3588872Y-2093318D01*
G03X3622925Y-2061672I-25252J61318D01*
G01X3702559Y-2061672D01*
G01X3702559Y-2377440D01*
G01X3243580Y-2377440D01*
G01X3243580Y-2372006D01*
G03X3251285Y-2349813I-28109J22193D01*
G01X3251285Y-2099814D01*
G01X-4020905Y2099814D02*
G03X-4013200Y2077621I35814J0D01*
G01X-4013200Y2061672D01*
G01X-4150877Y2061672D01*
G01X-4150877Y2111287D01*
G03X-4186691Y2147101I-35814J0D01*
G01X-4273092Y2147101D01*
G03X-4302640Y2131525I0J-35814D01*
G03X-4337009Y2114248I8915J-60561D01*
G01X-4344155Y2107103D01*
G03X-4349311Y2102499I38129J-47889D01*
G01X-4358492Y2093318D01*
G03X-4392545Y2061672I25252J-61318D01*
G01X-4472179Y2061672D01*
G01X-4472179Y2377440D01*
G01X-4013200Y2377440D01*
G01X-4013200Y2372006D01*
G03X-4020905Y2349813I28109J-22193D01*
G01X-4020905Y2099814D01*
G01X-4513379Y3545840D02*
G01X-2265529Y3545840D01*
G01X-2158500Y3438811D01*
G01X-2158500Y2457158D01*
G01X-4513379Y2457158D01*
G01X-4513379Y3545840D01*
G01X-4518153Y2387600D02*
G01X-4518153Y2192020D01*
G01X-4599686Y2192020D01*
G01X-4599686Y3583686D01*
G01X-2303375Y3583686D01*
G01X-1221664Y2501976D01*
G03X-1196340Y2491486I25324J25324D01*
G01X1183640Y2491486D01*
G03X1208964Y2501976I0J35814D01*
G01X2298295Y3591306D01*
G01X4599686Y3591306D01*
G01X4599686Y2192020D01*
G01X4484143Y2192020D01*
G01X4484143Y2349813D01*
G03X4448329Y2385627I-35814J0D01*
G01X4346194Y2385627D01*
G01X4346194Y2387600D01*
G03X4310380Y2423414I-35814J0D01*
G01X3831081Y2423414D01*
G03X3795267Y2387600I0J-35814D01*
G01X3795267Y2192020D01*
G01X3709443Y2192020D01*
G01X3709443Y2349813D01*
G03X3673629Y2385627I-35814J0D01*
G01X3571494Y2385627D01*
G01X3571494Y2387600D01*
G03X3535680Y2423414I-35814J0D01*
G01X3056381Y2423414D01*
G03X3020567Y2387600I0J-35814D01*
G01X3020567Y2192020D01*
G01X2934743Y2192020D01*
G01X2934743Y2349813D01*
G03X2898929Y2385627I-35814J0D01*
G01X2796794Y2385627D01*
G01X2796794Y2387600D01*
G03X2760980Y2423414I-35814J0D01*
G01X2281681Y2423414D01*
G03X2245867Y2387600I0J-35814D01*
G01X2245867Y2192020D01*
G01X-2279877Y2192020D01*
G01X-2279877Y2349813D01*
G03X-2315691Y2385627I-35814J0D01*
G01X-2417826Y2385627D01*
G01X-2417826Y2387600D01*
G03X-2453640Y2423414I-35814J0D01*
G01X-2932939Y2423414D01*
G03X-2968753Y2387600I0J-35814D01*
G01X-2968753Y2192020D01*
G01X-3054577Y2192020D01*
G01X-3054577Y2349813D01*
G03X-3090391Y2385627I-35814J0D01*
G01X-3192526Y2385627D01*
G01X-3192526Y2387600D01*
G03X-3228340Y2423414I-35814J0D01*
G01X-3707639Y2423414D01*
G03X-3743453Y2387600I0J-35814D01*
G01X-3743453Y2192020D01*
G01X-3829277Y2192020D01*
G01X-3829277Y2349813D01*
G03X-3865091Y2385627I-35814J0D01*
G01X-3967226Y2385627D01*
G01X-3967226Y2387600D01*
G03X-4003040Y2423414I-35814J0D01*
G01X-4482339Y2423414D01*
G03X-4518153Y2387600I0J-35814D01*
G01X-3246205Y2099814D02*
G03X-3238500Y2077621I35814J0D01*
G01X-3238500Y2061672D01*
G01X-3376177Y2061672D01*
G01X-3376177Y2111287D01*
G03X-3411991Y2147101I-35814J0D01*
G01X-3498392Y2147101D01*
G03X-3527940Y2131525I0J-35814D01*
G03X-3562309Y2114248I8915J-60561D01*
G01X-3569455Y2107103D01*
G03X-3574611Y2102499I38129J-47889D01*
G01X-3583792Y2093318D01*
G03X-3617845Y2061672I25252J-61318D01*
G01X-3697479Y2061672D01*
G01X-3697479Y2377440D01*
G01X-3238500Y2377440D01*
G01X-3238500Y2372006D01*
G03X-3246205Y2349813I28109J-22193D01*
G01X-3246205Y2099814D01*
G01X-2471505Y2099814D02*
G03X-2463800Y2077621I35814J0D01*
G01X-2463800Y2061672D01*
G01X-2601477Y2061672D01*
G01X-2601477Y2111287D01*
G03X-2637291Y2147101I-35814J0D01*
G01X-2723692Y2147101D01*
G03X-2753240Y2131525I0J-35814D01*
G03X-2787609Y2114248I8915J-60561D01*
G01X-2794755Y2107103D01*
G03X-2799911Y2102499I38129J-47889D01*
G01X-2809092Y2093318D01*
G03X-2843145Y2061672I25252J-61318D01*
G01X-2922779Y2061672D01*
G01X-2922779Y2377440D01*
G01X-2463800Y2377440D01*
G01X-2463800Y2372006D01*
G03X-2471505Y2349813I28109J-22193D01*
G01X-2471505Y2099814D01*
G01X-2315691Y2385627D02*
G01X-2376320Y2385627D01*
G01X-2376320Y3583686D01*
G01X-2303375Y3583686D01*
G01X-1221664Y2501976D01*
G03X-1196340Y2491486I25324J25324D01*
G01X1183640Y2491486D01*
G03X1208964Y2501976I0J35814D01*
G01X2298295Y3591306D01*
G01X2495700Y3591306D01*
G01X2495700Y2423414D01*
G01X2281681Y2423414D01*
G03X2245867Y2387600I0J-35814D01*
G01X2245867Y2051512D01*
G03X2281681Y2015698I35814J0D01*
G01X2366501Y2015698D01*
G03X2369915Y2005674I64279J16302D01*
G01X2338528Y2005674D01*
G03X2302714Y1969860I0J-35814D01*
G01X2302714Y1889213D01*
G03X2330995Y1854200I35814J0D01*
G03X2302714Y1819187I7534J-35013D01*
G01X2302714Y1738540D01*
G03X2320515Y1707586I35814J0D01*
G01X2320515Y1520679D01*
G01X777766Y1520679D01*
G01X750278Y1548167D01*
G01X750278Y1695647D01*
G03X714464Y1731461I-35814J0D01*
G01X514464Y1731461D01*
G03X478650Y1695647I0J-35814D01*
G01X478650Y1520679D01*
G01X159058Y1520679D01*
G03X93980Y1574249I-65078J-12744D01*
G03X28902Y1520679I0J-66314D01*
G01X-294833Y1520679D01*
G03X-360487Y1520679I-32827J-57619D01*
G01X-442099Y1520679D01*
G03X-500099Y1577530I-65699J-9014D01*
G03X-569647Y1535587I-7699J-65866D01*
G03X-637752Y1573784I-60273J-27653D01*
G03X-694998Y1520679I7832J-65850D01*
G01X-737730Y1520679D01*
G01X-737730Y1695647D01*
G03X-773544Y1731461I-35814J0D01*
G01X-973544Y1731461D01*
G03X-1009358Y1695647I0J-35814D01*
G01X-1009358Y1520679D01*
G01X-2376320Y1520679D01*
G01X-2376320Y1761130D01*
G01X-2332406Y1805044D01*
G03X-2324459Y1814826I-43285J43285D01*
G03X-2230213Y1795622I56239J35138D01*
G03X-2215923Y1890738I-38007J54342D01*
G03X-2194599Y1928821I-43977J49634D01*
G03X-2127174Y2031410I12739J65079D01*
G03X-2247160Y2005451I-54686J-37510D01*
G03X-2284909Y2001790I-12739J-65079D01*
G03X-2314477Y1978040I25009J-61417D01*
G01X-2314477Y2064021D01*
G03X-2279877Y2099814I-1214J35793D01*
G01X-2279877Y2349813D01*
G03X-2315691Y2385627I-35814J0D01*
G01X-2253254Y1704340D02*
G03X-2120626Y1704340I66314J0D01*
G03X-2253254Y1704340I-66314J0D01*
G01X-2250733Y-3545332D02*
G01X-4599686Y-3545332D01*
G01X-4599686Y-2456650D01*
G01X-2250733Y-2456650D01*
G01X-2250733Y-3545332D01*
G01X-1167920Y-2132652D02*
G03X-1183640Y-2079030I-99314J0D01*
G01X-1183640Y-1793062D01*
G01X-1064438Y-1673860D01*
G01X-423308Y-1673860D01*
G01X-73660Y-2023508D01*
G01X-73660Y-2285779D01*
G01X-556849Y-2667404D01*
G01X-674186Y-2618126D01*
G01X-674186Y-2548109D01*
G03X-695835Y-2495844I-73914J0D01*
G01X-745111Y-2446568D01*
G03X-797376Y-2424919I-52265J-52265D01*
G01X-855135Y-2424919D01*
G03X-901823Y-2441531I0J-73914D01*
G01X-955151Y-2441531D01*
G03X-967236Y-2439430I-12085J-33713D01*
G01X-1087236Y-2439430D01*
G03X-1096670Y-2440695I0J-35814D01*
G01X-1116961Y-2432174D01*
G01X-1167920Y-2381214D01*
G01X-1167920Y-2132652D01*
G01X-2453640Y2423414D02*
G01X-2496683Y2423414D01*
G01X-2496670Y2931160D01*
G01X-1650849Y2931160D01*
G01X-1221664Y2501976D01*
G03X-1196340Y2491486I25324J25324D01*
G01X-855980Y2491486D01*
G01X-855980Y1899390D01*
G01X-1029423Y1725946D01*
G03X-1032399Y1718762I7184J-7184D01*
G01X-1032399Y1308803D01*
G03X-1029423Y1301619I10160J0D01*
G01X-855199Y1127395D01*
G01X-855199Y-1419887D01*
G01X-957299Y-1419887D01*
G03X-993113Y-1455701I0J-35814D01*
G01X-993113Y-1617699D01*
G03X-991634Y-1627886I35814J0D01*
G01X-1068647Y-1627886D01*
G03X-1093971Y-1638376I0J-35814D01*
G01X-1219124Y-1763529D01*
G03X-1229614Y-1788853I25324J-25324D01*
G01X-1229614Y-2242820D01*
G01X-1330348Y-2242820D01*
G03X-1337532Y-2245796I0J-10160D01*
G01X-1383252Y-2291516D01*
G03X-1386228Y-2298700I7184J-7184D01*
G01X-1386228Y-2621683D01*
G01X-1468060Y-2678476D01*
G03X-1500952Y-2701304I486J-35811D01*
G01X-1535353Y-2725179D01*
G03X-1539720Y-2733526I5793J-8347D01*
G01X-1539720Y-3144565D01*
G01X-1692076Y-3296920D01*
G01X-2496820Y-3296920D01*
G01X-2496799Y-2422906D01*
G01X-2281773Y-2422906D01*
G03X-2245959Y-2387092I0J35814D01*
G01X-2245959Y-2051004D01*
G03X-2281773Y-2015190I-35814J0D01*
G01X-2366593Y-2015190D01*
G03X-2370007Y-2005166I-64279J-16302D01*
G01X-2338620Y-2005166D01*
G03X-2302806Y-1969352I0J35814D01*
G01X-2302806Y-1888705D01*
G03X-2331087Y-1853692I-35814J0D01*
G03X-2302806Y-1818680I-7534J35013D01*
G01X-2302806Y-1738032D01*
G03X-2320607Y-1707078I-35814J0D01*
G01X-2320607Y-1229643D01*
G03X-2338536Y-1186359I-61214J0D01*
G01X-2390192Y-1134702D01*
G03X-2332163Y-1077918I-7660J65870D01*
G03X-2372600Y-1007514I-65689J9086D01*
G01X-2496762Y-883353D01*
G01X-2496759Y-748269D01*
G03X-2491816Y-744144I-20381J29449D01*
G01X-2339416Y-591744D01*
G03X-2328926Y-566420I-25324J25324D01*
G01X-2328926Y-391160D01*
G03X-2339416Y-365836I-35814J0D01*
G01X-2483846Y-221405D01*
G03X-2496746Y-213140I-25324J-25324D01*
G01X-2496741Y-32371D01*
G03X-2336827Y76197I43101J108571D01*
G03X-2496736Y184773I-116813J3D01*
G01X-2496735Y221627D01*
G03X-2337129Y321795I43095J108573D01*
G03X-2480705Y443835I-116511J8405D01*
G01X-2496730Y459859D01*
G01X-2496729Y475624D01*
G03X-2337128Y575811I43089J108576D01*
G03X-2480731Y697829I-116512J8389D01*
G03X-2496724Y708758I-42099J-44439D01*
G01X-2496723Y721387D01*
G01X-2372641Y721387D01*
G03X-2336827Y757201I0J35814D01*
G01X-2336827Y919199D01*
G03X-2372641Y955013I-35814J0D01*
G01X-2496718Y955013D01*
G01X-2496713Y1156110D01*
G03X-2491637Y1157986I-20427J63090D01*
G01X-2453998Y1157986D01*
G03X-2422872Y1139886I31126J17714D01*
G01X-2287871Y1139886D01*
G03X-2252057Y1175700I0J35814D01*
G01X-2252057Y1316700D01*
G03X-2287871Y1352514I-35814J0D01*
G01X-2422872Y1352514D01*
G03X-2458686Y1316700I0J-35814D01*
G01X-2458686Y1280414D01*
G01X-2491637Y1280414D01*
G01X-2491888Y1280518D01*
G01X-2496710Y1285340D01*
G01X-2496707Y1396872D01*
G03X-2454177Y1486003I-18684J63628D01*
G01X-2454177Y1522832D01*
G03X-2472106Y1566116I-61214J0D01*
G01X-2493846Y1587856D01*
G01X-2493846Y1589100D01*
G03X-2496702Y1603116I-35814J0D01*
G01X-2496700Y1709186D01*
G01X-2453620Y1709186D01*
G03X-2410335Y1727115I0J61214D01*
G01X-2332406Y1805044D01*
G03X-2324459Y1814826I-43285J43285D01*
G03X-2230213Y1795622I56239J35138D01*
G03X-2215923Y1890738I-38007J54342D01*
G03X-2194599Y1928821I-43977J49634D01*
G03X-2127174Y2031410I12739J65079D01*
G03X-2247160Y2005451I-54686J-37510D01*
G03X-2314477Y1978040I-12739J-65079D01*
G01X-2314477Y2064021D01*
G03X-2279877Y2099814I-1214J35793D01*
G01X-2279877Y2349813D01*
G03X-2315691Y2385627I-35814J0D01*
G01X-2417826Y2385627D01*
G01X-2417826Y2387600D01*
G03X-2453640Y2423414I-35814J0D01*
G01X-2253254Y1704340D02*
G03X-2120626Y1704340I66314J0D01*
G03X-2253254Y1704340I-66314J0D01*
G01X-1815327Y-2619064D02*
G01X-1815327Y-2519064D01*
G03X-2006954Y-2519064I-95814J0D01*
G01X-2006954Y-2619064D01*
G03X-1815327Y-2619064I95814J0D01*
G01X-4599686Y-3591306D02*
G01X-4599686Y-3261360D01*
G01X-401320Y-3261360D01*
G01X-401320Y-3591306D01*
G01X-4599686Y-3591306D01*
G01X-657860Y-2938780D02*
G01X-657860Y-2674846D01*
G01X-628529Y-2687165D01*
G03X-557768Y-2714819I67399J68101D01*
G03X-545866Y-2713654I2512J35726D01*
G03X-475245Y-2661536I-15264J94590D01*
G01X-41302Y-2318807D01*
G03X-27686Y-2290701I-22198J28105D01*
G01X-27686Y-2019300D01*
G03X-27776Y-2016760I-35814J0D01*
G01X483882Y-2016760D01*
G01X535444Y-2068322D01*
G03X605669Y-2097410I70226J70226D01*
G01X720806Y-2097410D01*
G03X808859Y-2044030I0J99314D01*
G03X882430Y-2070184I54741J37430D01*
G03X887736Y-2148345I56040J-35456D01*
G03X963845Y-2166907I50734J42704D01*
G03X1058588Y-2215367I65394J11006D01*
G03X1077753Y-2110691I-29348J59466D01*
G01X1077753Y-2096046D01*
G01X1121405Y-2052395D01*
G03X1135614Y-2018090I-34305J34305D01*
G01X1135614Y-2016760D01*
G01X1191687Y-2016760D01*
G03X1177672Y-2138044I18725J-63616D01*
G03X1274634Y-2063850I32739J57669D01*
G03X1373631Y-2016760I33466J57250D01*
G01X1440689Y-2016760D01*
G03X1466474Y-2112386I96011J-25400D01*
G01X1507137Y-2153048D01*
G03X1577363Y-2182137I70226J70226D01*
G01X1618568Y-2182137D01*
G03X1689111Y-2153049I318J99313D01*
G01X1754573Y-2087587D01*
G01X1835447Y-2087587D01*
G03X1871261Y-2051773I0J35814D01*
G01X1871261Y-2016760D01*
G01X2180192Y-2016760D01*
G01X2240280Y-2076848D01*
G01X2240280Y-2380275D01*
G03X2243256Y-2387460I10160J0D01*
G01X2317223Y-2461427D01*
G03X2324408Y-2464403I7184J7184D01*
G01X4599686Y-2464403D01*
G01X4599686Y-3591306D01*
G01X-1603734Y-3591306D01*
G01X-1860152Y-3334888D01*
G01X-1580884Y-3055620D01*
G01X-774700Y-3055620D01*
G03X-767516Y-3052644I0J10160D01*
G01X-660836Y-2945964D01*
G03X-657860Y-2938780I-7184J7184D01*
G01X-372200Y-2899100D02*
G01X-372200Y-3019100D01*
G03X-130573Y-3019100I120814J0D01*
G01X-130573Y-2899100D01*
G03X-372200Y-2899100I-120814J0D01*
G01X107809Y-2899100D02*
G01X107809Y-3019100D01*
G03X349437Y-3019100I120814J0D01*
G01X349437Y-2899100D01*
G03X107809Y-2899100I-120814J0D01*
G01X587793Y-2899100D02*
G01X587793Y-3019100D01*
G03X829420Y-3019100I120814J0D01*
G01X829420Y-2899100D01*
G03X587793Y-2899100I-120814J0D01*
G01X1026503Y-3315546D02*
G01X1026503Y-3395546D01*
G03X1198131Y-3395546I85814J0D01*
G01X1198131Y-3315546D01*
G03X1026503Y-3315546I-85814J0D01*
G01X1198131Y-2948783D02*
G01X1198131Y-2887538D01*
G03X1026503Y-2887538I-85814J0D01*
G01X1026503Y-2987538D01*
G03X1191360Y-3020947I85814J0D01*
G03X1303024Y-3042883I63959J30399D01*
G03X1414984Y-2997892I45716J48038D01*
G03X1307628Y-2942813I-66244J3047D01*
G03X1198131Y-2948783I-52309J-47735D01*
G01X1453998Y-2993410D02*
G03X1586626Y-2993410I66314J0D01*
G03X1453998Y-2993410I-66314J0D01*
G01X1493756Y-2274189D02*
G03X1626384Y-2274189I66314J0D01*
G03X1493756Y-2274189I-66314J0D01*
G01X1502728Y-2743200D02*
G03X1635356Y-2743200I66314J0D01*
G03X1502728Y-2743200I-66314J0D01*
G01X1672584Y-2992666D02*
G03X1783493Y-3040867I66308J874D01*
G03X1897280Y-3020947I49828J50319D01*
G03X2062137Y-2987538I79043J33409D01*
G01X2062137Y-2887538D01*
G03X1890509Y-2887538I-85814J0D01*
G01X1890509Y-2948783D01*
G03X1782185Y-2941560I-57188J-41765D01*
G03X1672584Y-2992666I-43292J-50233D01*
G01X1890509Y-3315546D02*
G01X1890509Y-3395546D01*
G03X2062137Y-3395546I85814J0D01*
G01X2062137Y-3315546D01*
G03X1890509Y-3315546I-85814J0D01*
G04 Copper End*

G04 PolygonModel Start*
G54D11*
G01X-1226181Y-2502745D02*
G01X-1226181Y-2425244D01*
G01X-1304468Y-2425244D01*
G01X-1304468Y-2502745D01*

G04 Pad Start*
G54D12*
G01X4310380Y76200D03*
G01X4310380Y330200D03*
G01X4310380Y584200D03*
G54D13*
G01X4310380Y838200D03*
G54D12*
G01X-114300Y-1536700D03*
G01X-368300Y-1536700D03*
G01X-622300Y-1536700D03*
G54D13*
G01X-876300Y-1536700D03*
G54D12*
G01X-2453640Y76200D03*
G01X-2453640Y330200D03*
G01X-2453640Y584200D03*
G54D13*
G01X-2453640Y838200D03*
G54D12*
G01X2458720Y-76200D03*
G01X2458720Y-330200D03*
G01X2458720Y-584200D03*
G54D13*
G01X2458720Y-838200D03*
G54D12*
G01X-4310472Y-75692D03*
G01X-4310472Y-329692D03*
G01X-4310472Y-583692D03*
G54D13*
G01X-4310472Y-837692D03*
G54D14*
G01X2610329Y2919808D03*
G54D15*
G01X2381729Y2224814D03*
G01X2838929Y2224814D03*
G54D14*
G01X3385029Y2919808D03*
G54D15*
G01X3156429Y2224814D03*
G01X3613629Y2224814D03*
G54D14*
G01X4159729Y2919808D03*
G54D15*
G01X3931129Y2224814D03*
G01X4388329Y2224814D03*
G54D14*
G01X-2604291Y2919808D03*
G54D15*
G01X-2832891Y2224814D03*
G01X-2375691Y2224814D03*
G54D14*
G01X-3378991Y2919808D03*
G54D15*
G01X-3607591Y2224814D03*
G01X-3150391Y2224814D03*
G54D14*
G01X-4153691Y2919808D03*
G54D15*
G01X-4382291Y2224814D03*
G01X-3925091Y2224814D03*
G54D14*
G01X2609371Y-2919808D03*
G54D15*
G01X2837971Y-2224814D03*
G01X2380771Y-2224814D03*
G54D14*
G01X3384071Y-2919808D03*
G54D15*
G01X3612671Y-2224814D03*
G01X3155471Y-2224814D03*
G54D14*
G01X4158771Y-2919808D03*
G54D15*
G01X4387371Y-2224814D03*
G01X3930171Y-2224814D03*
G54D14*
G01X-4159821Y-2919301D03*
G54D15*
G01X-3931221Y-2224306D03*
G01X-4388421Y-2224306D03*
G54D14*
G01X-3385121Y-2919301D03*
G54D15*
G01X-3156521Y-2224306D03*
G01X-3613721Y-2224306D03*
G54D14*
G01X-2610421Y-2919301D03*
G54D15*
G01X-2381821Y-2224306D03*
G01X-2839021Y-2224306D03*
G54D16*
G01X-2680491Y1929536D03*
G01X-2680491Y1778864D03*
G01X-2832891Y1929536D03*
G01X-2832891Y1778864D03*
G01X-2680491Y2221636D03*
G01X-2680491Y2070964D03*
G01X-3455191Y2221636D03*
G01X-3455191Y2070964D03*
G01X-4229891Y2221636D03*
G01X-4229891Y2070964D03*
G01X-3455191Y1929536D03*
G01X-3455191Y1778864D03*
G01X-4229891Y1929536D03*
G01X-4229891Y1778864D03*
G01X-3607591Y1929536D03*
G01X-3607591Y1778864D03*
G01X-4382291Y1929536D03*
G01X-4382291Y1778864D03*
G01X2534129Y2221636D03*
G01X2534129Y2070964D03*
G01X2381729Y1929536D03*
G01X2381729Y1778864D03*
G01X2534129Y1929536D03*
G01X2534129Y1778864D03*
G01X3308829Y2221636D03*
G01X3308829Y2070964D03*
G01X3156429Y1929536D03*
G01X3156429Y1778864D03*
G01X3308829Y1929536D03*
G01X3308829Y1778864D03*
G01X4083529Y2221636D03*
G01X4083529Y2070964D03*
G01X3931129Y1929536D03*
G01X3931129Y1778864D03*
G01X4083529Y1929536D03*
G01X4083529Y1778864D03*
G01X2685571Y-1929536D03*
G01X2685571Y-1778864D03*
G01X2837971Y-1929536D03*
G01X2837971Y-1778864D03*
G01X2685571Y-2221636D03*
G01X2685571Y-2070964D03*
G01X3460271Y-2221636D03*
G01X3460271Y-2070964D03*
G01X4234971Y-2221636D03*
G01X4234971Y-2070964D03*
G01X3460271Y-1929536D03*
G01X3460271Y-1778864D03*
G01X4234971Y-1929536D03*
G01X4234971Y-1778864D03*
G01X3612671Y-1929536D03*
G01X3612671Y-1778864D03*
G01X4387371Y-1929536D03*
G01X4387371Y-1778864D03*
G01X-4083621Y-1929029D03*
G01X-4083621Y-1778356D03*
G01X-3931221Y-1929029D03*
G01X-3931221Y-1778356D03*
G01X-4083621Y-2221129D03*
G01X-4083621Y-2070456D03*
G01X-3308921Y-2221129D03*
G01X-3308921Y-2070456D03*
G01X-2534221Y-2221129D03*
G01X-2534221Y-2070456D03*
G01X-3308921Y-1929029D03*
G01X-3308921Y-1778356D03*
G01X-2534221Y-1929029D03*
G01X-2534221Y-1778356D03*
G01X-3156521Y-1929029D03*
G01X-3156521Y-1778356D03*
G01X-2381821Y-1929029D03*
G01X-2381821Y-1778356D03*
G54D17*
G01X-3830345Y253390D03*
G01X-3830345Y333400D03*
G01X-3830345Y413410D03*
G01X-3830345Y493395D03*
G01X-3830345Y573405D03*
G01X-3830345Y653390D03*
G01X-3830345Y733400D03*
G01X-3830345Y813410D03*
G54D19*
G01X-3686150Y957605D03*
G01X-3606140Y957605D03*
G01X-3526130Y957605D03*
G01X-3446145Y957605D03*
G01X-3366135Y957605D03*
G01X-3286150Y957605D03*
G01X-3206140Y957605D03*
G01X-3126130Y957605D03*
G54D17*
G01X-2981935Y813410D03*
G01X-2981935Y733400D03*
G01X-2981935Y653390D03*
G01X-2981935Y573405D03*
G01X-2981935Y493395D03*
G01X-2981935Y413410D03*
G01X-2981935Y333400D03*
G01X-2981935Y253390D03*
G54D19*
G01X-3126130Y109195D03*
G01X-3206140Y109195D03*
G01X-3286150Y109195D03*
G01X-3366135Y109195D03*
G01X-3446145Y109195D03*
G01X-3526130Y109195D03*
G01X-3606140Y109195D03*
G01X-3686150Y109195D03*
G54D20*
G01X-1027236Y-2597741D03*
G01X-1027236Y-2407749D03*
G01X-1267235Y-2407749D03*
G01X-1267235Y-2502745D03*
G01X-1267235Y-2597741D03*
G01X-1027236Y-2502745D03*
G54D17*
G01X3835425Y-253390D03*
G01X3835425Y-333400D03*
G01X3835425Y-413410D03*
G01X3835425Y-493395D03*
G01X3835425Y-573405D03*
G01X3835425Y-653390D03*
G01X3835425Y-733400D03*
G01X3835425Y-813410D03*
G54D19*
G01X3691230Y-957605D03*
G01X3611220Y-957605D03*
G01X3531210Y-957605D03*
G01X3451225Y-957605D03*
G01X3371215Y-957605D03*
G01X3291230Y-957605D03*
G01X3211220Y-957605D03*
G01X3131210Y-957605D03*
G54D17*
G01X2987015Y-813410D03*
G01X2987015Y-733400D03*
G01X2987015Y-653390D03*
G01X2987015Y-573405D03*
G01X2987015Y-493395D03*
G01X2987015Y-413410D03*
G01X2987015Y-333400D03*
G01X2987015Y-253390D03*
G54D19*
G01X3131210Y-109195D03*
G01X3211220Y-109195D03*
G01X3291230Y-109195D03*
G01X3371215Y-109195D03*
G01X3451225Y-109195D03*
G01X3531210Y-109195D03*
G01X3611220Y-109195D03*
G01X3691230Y-109195D03*
G54D17*
G01X2933675Y253390D03*
G01X2933675Y333400D03*
G01X2933675Y413410D03*
G01X2933675Y493395D03*
G01X2933675Y573405D03*
G01X2933675Y653390D03*
G01X2933675Y733400D03*
G01X2933675Y813410D03*
G54D19*
G01X3077870Y957605D03*
G01X3157880Y957605D03*
G01X3237890Y957605D03*
G01X3317875Y957605D03*
G01X3397885Y957605D03*
G01X3477870Y957605D03*
G01X3557880Y957605D03*
G01X3637890Y957605D03*
G54D17*
G01X3782085Y813410D03*
G01X3782085Y733400D03*
G01X3782085Y653390D03*
G01X3782085Y573405D03*
G01X3782085Y493395D03*
G01X3782085Y413410D03*
G01X3782085Y333400D03*
G01X3782085Y253390D03*
G54D19*
G01X3637890Y109195D03*
G01X3557880Y109195D03*
G01X3477870Y109195D03*
G01X3397885Y109195D03*
G01X3317875Y109195D03*
G01X3237890Y109195D03*
G01X3157880Y109195D03*
G01X3077870Y109195D03*
G54D17*
G01X-2933767Y-252883D03*
G01X-2933767Y-332893D03*
G01X-2933767Y-412903D03*
G01X-2933767Y-492887D03*
G01X-2933767Y-572897D03*
G01X-2933767Y-652882D03*
G01X-2933767Y-732892D03*
G01X-2933767Y-812902D03*
G54D19*
G01X-3077962Y-957098D03*
G01X-3157972Y-957098D03*
G01X-3237982Y-957098D03*
G01X-3317967Y-957098D03*
G01X-3397977Y-957098D03*
G01X-3477962Y-957098D03*
G01X-3557972Y-957098D03*
G01X-3637982Y-957098D03*
G54D17*
G01X-3782177Y-812902D03*
G01X-3782177Y-732892D03*
G01X-3782177Y-652882D03*
G01X-3782177Y-572897D03*
G01X-3782177Y-492887D03*
G01X-3782177Y-412903D03*
G01X-3782177Y-332893D03*
G01X-3782177Y-252883D03*
G54D19*
G01X-3637982Y-108687D03*
G01X-3557972Y-108687D03*
G01X-3477962Y-108687D03*
G01X-3397977Y-108687D03*
G01X-3317967Y-108687D03*
G01X-3237982Y-108687D03*
G01X-3157972Y-108687D03*
G01X-3077962Y-108687D03*
G54D21*
G01X-1278560Y-2227580D03*
G01X-1078560Y-2227580D03*
G54D22*
G01X-1287108Y-2961425D03*
G01X-1427113Y-2961425D03*
G01X-1287569Y-2759287D03*
G01X-1427574Y-2759287D03*
G54D23*
G01X176601Y-1875047D03*
G01X482620Y-1875047D03*
G54D24*
G01X-886965Y-2873592D03*
G01X-1116962Y-2873592D03*
G54D22*
G01X1035202Y-939800D03*
G01X895198Y-939800D03*
G01X-354960Y1121046D03*
G01X-214955Y1121046D03*
G54D25*
G01X-704558Y1313142D03*
G01X-654545Y1313142D03*
G01X-604558Y1313142D03*
G01X-554545Y1313142D03*
G01X-504558Y1313142D03*
G01X-454546Y1313142D03*
G01X-404558Y1313142D03*
G01X-354546Y1313142D03*
G01X-304559Y1313142D03*
G01X-254546Y1313142D03*
G01X-204559Y1313142D03*
G01X-154546Y1313142D03*
G01X-104559Y1313142D03*
G01X-54546Y1313142D03*
G01X-4534Y1313142D03*
G01X45453Y1313142D03*
G01X95466Y1313142D03*
G01X145453Y1313142D03*
G01X195466Y1313142D03*
G01X245453Y1313142D03*
G01X295466Y1313142D03*
G01X345453Y1313142D03*
G01X395465Y1313142D03*
G01X445453Y1313142D03*
G54D26*
G01X-873544Y1570647D03*
G01X614464Y1570647D03*
G54D27*
G01X1362710Y431800D03*
G01X1202690Y431800D03*
G54D28*
G01X1318260Y1178560D03*
G54D29*
G01X86360Y1142276D03*
G01X86360Y1055713D03*
G54D30*
G01X1811609Y-747847D03*
G01X1701602Y-747847D03*
G01X1591594Y-747847D03*
G01X1481612Y-747847D03*
G01X1371605Y-747847D03*
G01X1261598Y-747847D03*
G01X1151616Y-747847D03*
G01X1041608Y-747847D03*
G01X931601Y-747847D03*
G01X931601Y214457D03*
G01X1041608Y214457D03*
G01X1151616Y214457D03*
G01X1261598Y214457D03*
G01X1371605Y214457D03*
G01X1481612Y214457D03*
G01X1591594Y214457D03*
G01X1701602Y214457D03*
G01X1811609Y214457D03*
G54D31*
G01X557213Y1093724D03*
G01X557213Y1283716D03*
G01X804228Y1188720D03*
G54D29*
G01X200660Y1142276D03*
G01X200660Y1055713D03*
G54D32*
G01X-561130Y-2569064D03*
G01X-1911140Y-2569064D03*
G54D33*
G01X-876141Y-1969065D03*
G01X-1596130Y-1969065D03*
G54D22*
G01X1337355Y-1596464D03*
G01X1477360Y-1596464D03*
G54D34*
G01X1167450Y-1492166D03*
G01X1167450Y-1352161D03*
G01X1338747Y-1403244D03*
G01X1338747Y-1293262D03*
G01X1478752Y-1293262D03*
G01X1478752Y-1403244D03*
G01X2057400Y-768502D03*
G01X2057400Y-628498D03*
G54D35*
G01X-251386Y-2959100D03*
G01X228623Y-2959100D03*
G01X708607Y-2959100D03*
G54D36*
G01X1722133Y1254473D03*
G01X1722133Y1788457D03*
G54D37*
G01X-2573307Y-480073D03*
G01X-2039323Y-480073D03*
G54D36*
G01X1775447Y-1876773D03*
G01X1775447Y-2410757D03*
G54D38*
G01X-4104060Y1562100D03*
G01X-4188083Y1562100D03*
G01X-3329360Y1562100D03*
G01X-3413383Y1562100D03*
G54D39*
G01X-2814320Y969112D03*
G01X-2814320Y885088D03*
G54D38*
G01X-2554660Y1562100D03*
G01X-2638683Y1562100D03*
G01X4104060Y-1562100D03*
G01X4188083Y-1562100D03*
G01X3329360Y-1562100D03*
G01X3413383Y-1562100D03*
G54D39*
G01X2814320Y-969112D03*
G01X2814320Y-885088D03*
G54D38*
G01X2554660Y-1562100D03*
G01X2638683Y-1562100D03*
G01X-2665132Y-1561592D03*
G01X-2581109Y-1561592D03*
G01X-3439832Y-1561592D03*
G01X-3355809Y-1561592D03*
G54D39*
G01X3954780Y969112D03*
G01X3954780Y885088D03*
G54D38*
G01X2665040Y1562100D03*
G01X2581017Y1562100D03*
G01X3439740Y1562100D03*
G01X3355717Y1562100D03*
G01X4214440Y1562100D03*
G01X4130417Y1562100D03*
G54D39*
G01X-3954872Y-968604D03*
G01X-3954872Y-884581D03*
G54D38*
G01X-4214532Y-1561592D03*
G01X-4130509Y-1561592D03*
G54D39*
G01X2146300Y-427888D03*
G01X2146300Y-511912D03*
G01X2082800Y-1621688D03*
G01X2082800Y-1705712D03*
G01X-855135Y-2582856D03*
G01X-855135Y-2498833D03*
G01X-53340Y1141006D03*
G01X-53340Y1056983D03*
G54D38*
G01X-664312Y-1041400D03*
G01X-580288Y-1041400D03*
G54D39*
G01X843280Y1088492D03*
G01X843280Y1004468D03*
G54D16*
G01X2057400Y-1016864D03*
G01X2057400Y-1167536D03*
G54D40*
G01X-2355371Y1446200D03*
G01X-2355371Y1246200D03*
G01X-3904771Y1446200D03*
G01X-3904771Y1246200D03*
G01X-3130071Y1446200D03*
G01X-3130071Y1246200D03*
G01X2355371Y-1446200D03*
G01X2355371Y-1246200D03*
G01X3904771Y-1446200D03*
G01X3904771Y-1246200D03*
G01X3130071Y-1446200D03*
G01X3130071Y-1246200D03*
G54D38*
G01X-181712Y-657860D03*
G01X-97688Y-657860D03*
G54D40*
G01X2864329Y1446200D03*
G01X2864329Y1246200D03*
G01X-4413821Y-1445692D03*
G01X-4413821Y-1245692D03*
G01X-2864421Y-1445692D03*
G01X-2864421Y-1245692D03*
G01X-3639121Y-1445692D03*
G01X-3639121Y-1245692D03*
G01X3639029Y1446200D03*
G01X3639029Y1246200D03*
G01X4413729Y1446200D03*
G01X4413729Y1246200D03*
G54D41*
G01X-2563550Y1310640D03*
G01X-2650113Y1310640D03*
G01X-3319678Y1333500D03*
G01X-3406242Y1333500D03*
G01X-4107078Y1313180D03*
G01X-4193642Y1313180D03*
G54D42*
G01X1112317Y-3355546D03*
G01X1976323Y-3355546D03*
G54D43*
G01X1976323Y-2937538D03*
G01X1112317Y-2937538D03*
G54D41*
G01X2667102Y1318260D03*
G01X2580538Y1318260D03*
G01X3431642Y1318260D03*
G01X3345078Y1318260D03*
G01X4188562Y1320800D03*
G01X4101998Y1320800D03*
G01X2557678Y-1330960D03*
G01X2644242Y-1330960D03*
G01X3319678Y-1336040D03*
G01X3406242Y-1336040D03*
G01X4094378Y-1348740D03*
G01X4180942Y-1348740D03*
G01X-4188654Y-1320292D03*
G01X-4102090Y-1320292D03*
G01X-3431734Y-1317752D03*
G01X-3345170Y-1317752D03*
G01X-2667194Y-1317752D03*
G01X-2580630Y-1317752D03*
G54D29*
G01X193040Y-1234338D03*
G01X193040Y-1320902D03*
G54D41*
G01X248818Y-1079500D03*
G01X335382Y-1079500D03*
G04 Pad End*

G04 Via Start*
G54D44*
G01X-127000Y-2006600D03*
G01X-228600Y-1917700D03*
G01X-317500Y-1828800D03*
G01X-419100Y-1739900D03*
G01X-656323Y-1789863D03*
G01X-1051560Y-1772920D03*
G01X-558800Y-1917700D03*
G01X-584200Y-2057400D03*
G01X-685800Y-2171700D03*
G01X-444500Y-2057400D03*
G01X-2003034Y-2189652D03*
G01X-1917700Y-1638300D03*
G01X-1689100Y-1727200D03*
G01X-1536700Y-1727200D03*
G01X-1308100Y-1828800D03*
G01X-1397000Y-1790700D03*
G01X-1333500Y-2032000D03*
G01X-1308100Y-1943100D03*
G01X-1752600Y-2298700D03*
G01X-1638300Y-2324100D03*
G01X-1689100Y-2235200D03*
G01X-1879600Y-2120900D03*
G01X-1866900Y-1905000D03*
G01X-1905000Y-1993900D03*
G01X-1842322Y-1772571D03*
G01X-1841500Y-2247900D03*
G01X-2044700Y-1955800D03*
G01X-1955800Y-1803400D03*
G01X-1467894Y-2165672D03*
G01X-673100Y-50800D03*
G01X-1311828Y-2856398D03*
G01X-1210002Y-2876132D03*
G01X330200Y-495300D03*
G01X78740Y-1374140D03*
G01X-708660Y-1165860D03*
G01X-2621280Y-50800D03*
G01X190500Y254000D03*
G01X2006600Y-266700D03*
G01X1866900Y-482600D03*
G01X419100Y411480D03*
G01X333970Y444398D03*
G01X711200Y-927100D03*
G01X787400Y-1003300D03*
G01X685800Y0D03*
G01X1778000Y-609600D03*
G01X749300Y-647700D03*
G01X825500Y-546100D03*
G01X584200Y-165100D03*
G01X584200Y-419100D03*
G01X634449Y-358723D03*
G01X576600Y-295393D03*
G01X-71120Y-1153160D03*
G01X-86360Y-1295520D03*
G01X1892300Y-1612900D03*
G01X419100Y-1526540D03*
G01X698500Y-1562100D03*
G01X552298Y-1756512D03*
G01X411277Y-1611732D03*
G01X863600Y-2006600D03*
G01X774700Y-1612900D03*
G01X800100Y-1701800D03*
G01X1028700Y-1993900D03*
G01X-53340Y1207607D03*
G01X-157480Y1439355D03*
G01X-137160Y1204941D03*
G01X1879600Y-1435100D03*
G01X-530860Y1182815D03*
G01X-629920Y1507935D03*
G01X-562958Y1449383D03*
G01X-507798Y1511664D03*
G01X-241300Y1439355D03*
G01X-327660Y1463060D03*
G01X1689100Y-139700D03*
G01X1879086Y-101600D03*
G01X459800Y-431800D03*
G01X368300Y-660400D03*
G01X1117600Y-546100D03*
G01X1041400Y-482600D03*
G01X1171765Y-1717200D03*
G01X1210412Y-2080376D03*
G01X1059180Y-1163320D03*
G01X923905Y-1158895D03*
G01X1479220Y-78740D03*
G01X1401974Y21524D03*
G01X1323625Y-45581D03*
G01X1267745Y65096D03*
G01X1045703Y30480D03*
G01X751198Y1424756D03*
G01X835660Y1429195D03*
G01X-815340Y1309815D03*
G01X-128033Y1062063D03*
G01X421756Y1200595D03*
G01X93980Y1507935D03*
G01X87053Y1424115D03*
G01X10853Y1433050D03*
G01X294640Y1421575D03*
G01X1478752Y-1193800D03*
G01X1265189Y-1476801D03*
G01X1308100Y-2006600D03*
G01X1206500Y-1625600D03*
G01X849651Y-819349D03*
G01X-1427113Y-2862367D03*
G01X46012Y-1781948D03*
G01X1193800Y-1041400D03*
G01X304800Y-967256D03*
G01X2065020Y45720D03*
G01X165100Y-330200D03*
G01X292092Y76200D03*
G01X388404Y-170389D03*
G01X-157776Y-172807D03*
G01X1618885Y-2082823D03*
G01X1560070Y-2274189D03*
G01X1935203Y-1705509D03*
G01X2076684Y-425684D03*
G01X791154Y-96226D03*
G01X762000Y-1346200D03*
G01X749300Y-1460500D03*
G01X12700Y-1054100D03*
G01X144780Y-972820D03*
G01X-231140Y-579120D03*
G01X402443Y-571500D03*
G01X444500Y-711200D03*
G01X-245408Y76200D03*
G01X-88100Y202145D03*
G01X62700Y210995D03*
G01X-127000Y279400D03*
G01X-228600Y-76200D03*
G01X3334229Y1460500D03*
G01X3473929Y1460500D03*
G01X3434080Y1765300D03*
G01X3205480Y2032000D03*
G01X3332480Y1231900D03*
G01X3332877Y820405D03*
G01X3495229Y2184400D03*
G01X3421380Y2108200D03*
G01X3497580Y2095500D03*
G01X3408680Y2186517D03*
G01X2720529Y2184400D03*
G01X2975409Y1463289D03*
G01X2722880Y2095500D03*
G01X2633980Y2186517D03*
G01X2646680Y2108200D03*
G01X2430780Y2032000D03*
G01X2659380Y1765300D03*
G01X2557780Y1231900D03*
G01X2699229Y1460500D03*
G01X2559529Y1460500D03*
G01X4269929Y2184400D03*
G01X4524809Y1463289D03*
G01X4272280Y2095500D03*
G01X4183380Y2186517D03*
G01X4196080Y2108200D03*
G01X3980180Y2032000D03*
G01X4208780Y1765300D03*
G01X4013200Y1236980D03*
G01X4248629Y1460500D03*
G01X4108929Y1460500D03*
G01X3116580Y825500D03*
G01X3510280Y812800D03*
G01X4246880Y1219200D03*
G01X2710180Y1219200D03*
G01X3484880Y1231900D03*
G01X2405380Y1079500D03*
G01X2786380Y774700D03*
G01X3141980Y736600D03*
G01X3764280Y1028700D03*
G01X3078480Y609600D03*
G01X3078480Y473484D03*
G01X3103880Y304800D03*
G01X3548380Y469900D03*
G01X2672080Y317500D03*
G01X2799080Y114300D03*
G01X2697480Y139700D03*
G01X2975409Y1550871D03*
G01X3751580Y1549400D03*
G01X3751580Y1460500D03*
G01X4524809Y1550871D03*
G01X4551680Y2971800D03*
G01X3776980Y2971800D03*
G01X4551680Y2790572D03*
G01X3776980Y2790572D03*
G01X3002280Y2789890D03*
G01X3002280Y2971800D03*
G01X-3761740Y2971800D03*
G01X-4028440Y698500D03*
G01X-3761740Y2789890D03*
G01X-4043491Y2184400D03*
G01X-4041140Y2095500D03*
G01X-4130040Y2186517D03*
G01X-4117340Y2108200D03*
G01X-4333240Y2032000D03*
G01X-4104640Y1765300D03*
G01X-4206240Y1231900D03*
G01X-4064791Y1460500D03*
G01X-4204491Y1460500D03*
G01X-4053840Y1219200D03*
G01X-3977640Y774700D03*
G01X-3685540Y609600D03*
G01X-3788611Y1550871D03*
G01X-3788611Y1463289D03*
G01X-3429791Y1460500D03*
G01X-3290091Y1460500D03*
G01X-3329940Y1765300D03*
G01X-3342640Y2108200D03*
G01X-3355340Y2186517D03*
G01X-3431143Y820405D03*
G01X-3431540Y1231900D03*
G01X-3558540Y2032000D03*
G01X-3622040Y736600D03*
G01X-3647440Y825500D03*
G01X-2231591Y1463289D03*
G01X-3215640Y469900D03*
G01X-2999740Y1028700D03*
G01X-3012440Y1549400D03*
G01X-3012440Y1460500D03*
G01X-3685540Y473484D03*
G01X-2494091Y2184400D03*
G01X-2491740Y2095500D03*
G01X-2580640Y2186517D03*
G01X-2567940Y2108200D03*
G01X-2783840Y2032000D03*
G01X-2555240Y1765300D03*
G01X-2515391Y1460500D03*
G01X-2655091Y1460500D03*
G01X-2753360Y1234440D03*
G01X-2517140Y1219200D03*
G01X-2239211Y1550871D03*
G01X-3253740Y812800D03*
G01X-3266440Y2095500D03*
G01X-3279140Y1841500D03*
G01X-3268791Y2184400D03*
G01X-3279140Y1231900D03*
G01X-3660140Y304800D03*
G01X-4091940Y317500D03*
G01X-3964940Y114300D03*
G01X-4066540Y139700D03*
G01X-2212340Y2971800D03*
G01X-2987040Y2971800D03*
G01X-2212340Y2790572D03*
G01X-2987040Y2790572D03*
G01X-3002372Y-2971292D03*
G01X-2397852Y-1068832D03*
G01X-3002372Y-2789382D03*
G01X-2720621Y-2183892D03*
G01X-2722972Y-2094992D03*
G01X-2634072Y-2186009D03*
G01X-2646772Y-2107692D03*
G01X-2710272Y-1840992D03*
G01X-2430872Y-2031492D03*
G01X-2699321Y-1459992D03*
G01X-2559621Y-1459992D03*
G01X-2786472Y-774192D03*
G01X-3078572Y-609092D03*
G01X-2975501Y-1550363D03*
G01X-2983121Y-1462781D03*
G01X-3334321Y-1459992D03*
G01X-3474021Y-1459992D03*
G01X-3421472Y-2107692D03*
G01X-3408772Y-2186009D03*
G01X-3332969Y-819898D03*
G01X-3205572Y-2031492D03*
G01X-3142072Y-736092D03*
G01X-3116672Y-824992D03*
G01X-4535061Y-1462781D03*
G01X-3548472Y-469392D03*
G01X-3764372Y-1028192D03*
G01X-3751672Y-1548892D03*
G01X-3756752Y-1459992D03*
G01X-3078572Y-472976D03*
G01X-4270021Y-2183892D03*
G01X-4259672Y-1840992D03*
G01X-4272372Y-2094992D03*
G01X-4183472Y-2186009D03*
G01X-4196172Y-2107692D03*
G01X-3980272Y-2031492D03*
G01X-4248721Y-1459992D03*
G01X-4109021Y-1459992D03*
G01X-4524901Y-1550363D03*
G01X-3510372Y-812292D03*
G01X-3497672Y-2094992D03*
G01X-3484972Y-1840992D03*
G01X-3495321Y-2183892D03*
G01X-3103972Y-304292D03*
G01X-2669632Y-294132D03*
G01X-2799172Y-113792D03*
G01X-2697572Y-139192D03*
G01X-4551772Y-2971292D03*
G01X-3777072Y-2971292D03*
G01X-4551772Y-2790065D03*
G01X-3777072Y-2790065D03*
G01X3766820Y-2971800D03*
G01X4340860Y-772160D03*
G01X3766820Y-2789890D03*
G01X4048571Y-2184400D03*
G01X4046220Y-2095500D03*
G01X4135120Y-2186517D03*
G01X4122420Y-2108200D03*
G01X4058920Y-1841500D03*
G01X4338320Y-2032000D03*
G01X4064000Y-1718800D03*
G01X4211320Y-1231900D03*
G01X4069871Y-1460500D03*
G01X4209571Y-1460500D03*
G01X4058920Y-1219200D03*
G01X3690620Y-609600D03*
G01X3793691Y-1550871D03*
G01X3793691Y-1463289D03*
G01X3434871Y-1460500D03*
G01X3295171Y-1460500D03*
G01X3281680Y-1732260D03*
G01X3347720Y-2108200D03*
G01X3360420Y-2186517D03*
G01X3362563Y-825485D03*
G01X3436620Y-1231900D03*
G01X3563620Y-2032000D03*
G01X3218180Y-716280D03*
G01X3480200Y-812800D03*
G01X2244291Y-1463289D03*
G01X3220720Y-469900D03*
G01X3004820Y-1028700D03*
G01X3017520Y-1549400D03*
G01X3017520Y-1460500D03*
G01X3690620Y-473484D03*
G01X2499171Y-2184400D03*
G01X2509520Y-1841500D03*
G01X2496820Y-2095500D03*
G01X2585720Y-2186517D03*
G01X2573020Y-2108200D03*
G01X2788920Y-2032000D03*
G01X2527300Y-1724660D03*
G01X2520471Y-1460500D03*
G01X2660171Y-1460500D03*
G01X2768600Y-1216660D03*
G01X2522220Y-1219200D03*
G01X2244291Y-1550871D03*
G01X3258820Y-812800D03*
G01X3271520Y-2095500D03*
G01X3284220Y-1841500D03*
G01X3273871Y-2184400D03*
G01X3284220Y-1231900D03*
G01X3665220Y-304800D03*
G01X4097020Y-317500D03*
G01X3970020Y-114300D03*
G01X4071620Y-139700D03*
G01X2217420Y-2971800D03*
G01X2992120Y-2971800D03*
G01X2217420Y-2790572D03*
G01X2992120Y-2790572D03*
G01X2006600Y-1765300D03*
G01X1938000Y-1165785D03*
G01X2203298Y-635000D03*
G01X2209066Y-558179D03*
G01X-596900Y-1143000D03*
G01X-3374895Y266697D03*
G01X-3394296Y-266190D03*
G01X3374895Y-266697D03*
G01X3394205Y266697D03*
G01X-2550160Y-670560D03*
G01X2352040Y124460D03*
G01X2098040Y-1831340D03*
G01X1940438Y-1038758D03*
G01X-3388360Y-551180D03*
G01X467360Y-3370580D03*
G01X274320Y-3467100D03*
G01X111760Y-3314700D03*
G01X-50800Y-3467100D03*
G01X-237211Y-3294101D03*
G01X-426720Y-3469640D03*
G01X-673100Y-3243580D03*
G01X-800100Y-3495040D03*
G01X-1016000Y-3274060D03*
G01X-1112520Y-3484880D03*
G01X-1333500Y-3263900D03*
G01X2992120Y-3117512D03*
G01X2992120Y-3237201D03*
G01X2992120Y-3380359D03*
G01X2992120Y-3514130D03*
G01X2217420Y-3082309D03*
G01X2217420Y-3255976D03*
G01X2217420Y-3408522D03*
G01X1920240Y-2357120D03*
G01X2042160Y-2186940D03*
G01X2004060Y-2461260D03*
G01X2087880Y-2329180D03*
G01X1996440Y-2631440D03*
G01X2072640Y-2748280D03*
G01X-3002372Y-3169033D03*
G01X-3002372Y-3376729D03*
G01X-2056425Y-3136900D03*
G01X-2084782Y-3430533D03*
G01X-1874520Y-3357880D03*
G01X-2131060Y-2712720D03*
G01X-1690230Y-3455935D03*
G01X-2141220Y-2966720D03*
G01X-1882140Y-3134360D03*
G01X3563620Y-665480D03*
G01X3766820Y-3178542D03*
G01X3766820Y-3351035D03*
G01X3766820Y-3516489D03*
G01X3776980Y3133097D03*
G01X3776980Y3316152D03*
G01X3776980Y3488645D03*
G01X3002280Y3140138D03*
G01X3002280Y3323192D03*
G01X3002280Y3499206D03*
G01X4551680Y3182381D03*
G01X4551680Y3340794D03*
G01X4551680Y3509767D03*
G01X-3269206Y1928054D03*
G01X-3352800Y1887220D03*
G01X-2961640Y1704340D03*
G01X-2964180Y1859280D03*
G01X-2958032Y1989000D03*
G01X-3034600Y1940372D03*
G01X-3042920Y1849964D03*
G01X-4127500Y1887220D03*
G01X-4058920Y1841500D03*
G01X-4043906Y1928054D03*
G01X-3817620Y1849964D03*
G01X-3809300Y1940372D03*
G01X-3738880Y1859280D03*
G01X-3732732Y1989000D03*
G01X-3736340Y1704340D03*
G01X-2578100Y1887220D03*
G01X-2509520Y1841500D03*
G01X-2494506Y1928054D03*
G01X-2268220Y1849964D03*
G01X-2259900Y1940372D03*
G01X-2186940Y1704340D03*
G01X3032760Y1704340D03*
G01X3030220Y1859280D03*
G01X3036368Y1989000D03*
G01X2959800Y1940372D03*
G01X2951480Y1849964D03*
G01X2710180Y1841500D03*
G01X2725194Y1928054D03*
G01X2641600Y1887220D03*
G01X3804920Y1859280D03*
G01X3726180Y1849964D03*
G01X3734500Y1940372D03*
G01X3807460Y1704340D03*
G01X3811068Y1989000D03*
G01X3484880Y1841500D03*
G01X3499894Y1928054D03*
G01X3416300Y1887220D03*
G01X4544060Y1762760D03*
G01X4523740Y1847424D03*
G01X4516820Y1935292D03*
G01X4565448Y1999160D03*
G01X4274594Y1928054D03*
G01X4259580Y1841500D03*
G01X4191000Y1887220D03*
G01X2489200Y-1912667D03*
G01X2584701Y-1887267D03*
G01X2575560Y-1795780D03*
G01X3360420Y-1793240D03*
G01X3266440Y-1920240D03*
G01X3350260Y-1902460D03*
G01X3314700Y-1981200D03*
G01X4132580Y-1790700D03*
G01X4140200Y-1879600D03*
G01X4038600Y-1912620D03*
G01X4112260Y-1943100D03*
G01X4048760Y-1983740D03*
G01X2560320Y-1953260D03*
G01X2491740Y-1986280D03*
G01X-4193632Y-1795272D03*
G01X-4279992Y-1912159D03*
G01X-4184491Y-1886759D03*
G01X-4208872Y-1952752D03*
G01X-4277452Y-1985772D03*
G01X-3408772Y-1792732D03*
G01X-3418932Y-1901952D03*
G01X-3502752Y-1919732D03*
G01X-3454492Y-1980692D03*
G01X-2636612Y-1790192D03*
G01X-2628992Y-1879092D03*
G01X-2656932Y-1942592D03*
G01X-2720432Y-1983232D03*
G01X-2730592Y-1912112D03*
G01X-2705192Y-1718292D03*
G01X-3487512Y-1731752D03*
G01X-4241892Y-1724152D03*
G01X-1122680Y-1866900D03*
G01X-855980Y-2260600D03*
G01X-698500Y-2326640D03*
G01X-533400Y-2181860D03*
G01X-960120Y-2331720D03*
G01X-1120140Y-2044700D03*
G01X-1374140Y-1645920D03*
G01X-1628140Y-1539240D03*
G01X-2098040Y-1656080D03*
G01X-1884680Y-1483360D03*
G01X-2131060Y-2186940D03*
G01X-345440Y-2260600D03*
G01X-500380Y-2367280D03*
G01X1722140Y2783820D03*
G01X1892320Y2783820D03*
G01X2062500Y2783820D03*
G01X1722140Y2613640D03*
G01X1892320Y2613640D03*
G01X2062500Y2613640D03*
G01X1722140Y2443460D03*
G01X1892320Y2443460D03*
G01X2062500Y2443460D03*
G01X1722140Y2273280D03*
G01X1892320Y2273280D03*
G01X2062500Y2273280D03*
G01X1722140Y2103100D03*
G01X1892320Y2103100D03*
G01X2062500Y2103100D03*
G01X2062500Y1932920D03*
G01X1892320Y2954000D03*
G01X2062500Y2954000D03*
G01X2062500Y3124180D03*
G01X1849168Y1013045D03*
G01X1849168Y1139989D03*
G01X1849168Y1266989D03*
G01X1722168Y1013045D03*
G01X1595168Y1013045D03*
G01X1595168Y1140045D03*
G01X1595168Y1267045D03*
G01X1595168Y1394045D03*
G01X-2181860Y1993900D03*
G01X-1216363Y1871993D03*
G01X-1216363Y1744993D03*
G01X-1343363Y1744993D03*
G01X-1470363Y1744993D03*
G01X-1597363Y1744993D03*
G01X-1216363Y1998993D03*
G01X-1343363Y1998993D03*
G01X-1470363Y1998993D03*
G01X-1597363Y1998993D03*
G01X-1470363Y2125993D03*
G01X-1597363Y2125993D03*
G01X-1343363Y2125993D03*
G01X-1216363Y2125993D03*
G01X1029239Y-2155901D03*
G01X938470Y-2105640D03*
G01X1569042Y-2743200D03*
G01X1520312Y-2993410D03*
G01X1348740Y-2994845D03*
G01X1738892Y-2991792D03*
G01X-2479040Y-609600D03*
G01X-2541727Y-294132D03*
G01X-2471420Y-358140D03*
G01X-2603500Y-358140D03*
G01X1536700Y-2042160D03*
G01X1696720Y-1653540D03*
G01X-157460Y-1752620D03*
G01X720806Y-1998096D03*
G01X-364642Y-1197356D03*
G01X-27998Y-825500D03*
G01X1917700Y325120D03*
G01X2095500Y190500D03*
G01X1691640Y43180D03*
G01X-236220Y789940D03*
G01X101211Y974971D03*
G01X-354546Y1205901D03*
G01X210820Y739120D03*
G01X-490220Y929640D03*
G01X-579120Y1059180D03*
G01X-497840Y1018540D03*
G01X858734Y421426D03*
G01X419100Y1107960D03*
G01X266700Y989673D03*
G01X655320Y1188720D03*
G01X646468Y1004468D03*
G01X-107198Y452120D03*
G01X-1597363Y2252993D03*
G01X-1597363Y2379993D03*
G01X-1470363Y2379993D03*
G01X-1343363Y2379993D03*
G01X-1343363Y2252993D03*
G01X-1470363Y2252993D03*
G01X-1216363Y2252993D03*
G01X-1216363Y2379993D03*
G01X-1597363Y2506993D03*
G01X-1597363Y2633993D03*
G01X-1470363Y2633993D03*
G01X-1343363Y2506993D03*
G01X-1470363Y2506993D03*
G01X-2106910Y2818110D03*
G01X-1766550Y2818110D03*
G01X-1936730Y2818110D03*
G01X-2106910Y2647930D03*
G01X-1936730Y2647930D03*
G01X-1766550Y2647930D03*
G01X-1766550Y2477750D03*
G01X-1936730Y2477750D03*
G01X-2106910Y2477750D03*
G01X-2106910Y2307570D03*
G01X-1936730Y2307570D03*
G01X-1766550Y2307570D03*
G01X-1936730Y2988290D03*
G01X-2106910Y2988290D03*
G01X-2106910Y3158470D03*
G01X-1460533Y-1539240D03*
G01X-1079533Y-1158240D03*
G01X-1460533Y-1158240D03*
G01X-1460533Y-777240D03*
G01X-1079533Y-777240D03*
G01X-200660Y-906780D03*
G01X-4246972Y-1218692D03*
G01X-4013292Y-1236472D03*
G01X-3332572Y-1231392D03*
G01X-3484972Y-1231392D03*
G01X-2710272Y-1218692D03*
G01X-2557872Y-1231392D03*
G01X-7620Y-657860D03*
G04 Via End*

G04 Track Start*
G54D45*
G01X83502Y-1781948D02*
G01X46012Y-1781948D01*
G01X176601Y-1875047D02*
G01X83502Y-1781948D01*
G54D46*
G01X-1116962Y-2873592D02*
G01X-1210002Y-2873592D01*
G54D11*
G01X1130300Y431800D02*
G01X1202690Y431800D01*
G01X1041608Y343108D02*
G01X1130300Y431800D01*
G01X1041608Y214457D02*
G01X1041608Y343108D01*
G54D47*
G01X-49140Y202145D02*
G01X-88100Y202145D01*
G01X88900Y64105D02*
G01X-49140Y202145D01*
G01X306010Y-553700D02*
G01X-159200Y-88490D01*
G01X-159200Y247200D01*
G01X368300Y-660400D02*
G01X233706Y-660400D01*
G01X-159200Y247200D02*
G01X-127000Y279400D01*
G01X384644Y-553700D02*
G01X306010Y-553700D01*
G01X402443Y-571500D02*
G01X384644Y-553700D01*
G01X88900Y0D02*
G01X88900Y64105D01*
G01X444500Y-711200D02*
G01X444500Y-660400D01*
G01X482600Y-622300D01*
G01X482600Y-558800D01*
G01X292100Y-368300D01*
G01X292100Y-203200D01*
G01X88900Y0D01*
G54D48*
G01X-1290109Y-2618075D02*
G01X-1290109Y-2759287D01*
G01X-1269775Y-2597741D02*
G01X-1290109Y-2618075D01*
G54D47*
G01X889000Y-431800D02*
G01X622300Y-165100D01*
G01X889000Y-584200D02*
G01X889000Y-431800D01*
G01X850900Y-622300D02*
G01X889000Y-584200D01*
G01X774700Y-622300D02*
G01X850900Y-622300D01*
G01X749300Y-647700D02*
G01X774700Y-622300D01*
G01X622300Y-165100D02*
G01X584200Y-165100D01*
G01X825500Y-467184D02*
G01X658639Y-300323D01*
G01X825500Y-546100D02*
G01X825500Y-467184D01*
G01X746800Y-471074D02*
G01X634449Y-358723D01*
G01X746800Y-567610D02*
G01X746800Y-471074D01*
G01X690900Y-623510D02*
G01X746800Y-567610D01*
G01X622300Y-419100D02*
G01X584200Y-419100D01*
G01X711200Y-508000D02*
G01X622300Y-419100D01*
G01X711200Y-552864D02*
G01X711200Y-508000D01*
G01X655300Y-608764D02*
G01X711200Y-552864D01*
G01X655300Y-686636D02*
G01X655300Y-608764D01*
G01X711200Y-742536D02*
G01X655300Y-686636D01*
G01X711200Y-927100D02*
G01X711200Y-742536D01*
G01X690900Y-671890D02*
G01X690900Y-623510D01*
G01X787400Y-768390D02*
G01X690900Y-671890D01*
G01X787400Y-1003300D02*
G01X787400Y-768390D01*
G01X581531Y-300323D02*
G01X576600Y-295393D01*
G01X658639Y-300323D02*
G01X581531Y-300323D01*
G54D11*
G01X849651Y-894253D02*
G01X849651Y-819349D01*
G01X895198Y-939800D02*
G01X849651Y-894253D01*
G54D47*
G01X1811609Y-643209D02*
G01X1778000Y-609600D01*
G01X1811609Y-747847D02*
G01X1811609Y-643209D01*
G01X927200Y-1643682D02*
G01X923905Y-1646977D01*
G01X927200Y-1254632D02*
G01X927200Y-1643682D01*
G01X923905Y-1251337D02*
G01X927200Y-1254632D01*
G01X923905Y-1158895D02*
G01X923905Y-1251337D01*
G01X459800Y-324375D02*
G01X327700Y-192275D01*
G01X459800Y-431800D02*
G01X459800Y-324375D01*
G01X356726Y-835196D02*
G01X257464Y-835196D01*
G01X820400Y-1298869D02*
G01X356726Y-835196D01*
G01X820400Y-1471990D02*
G01X820400Y-1298869D01*
G01X774700Y-1612900D02*
G01X774700Y-1517690D01*
G01X820400Y-1471990D01*
G01X1536700Y-546100D02*
G01X1117600Y-546100D01*
G01X1591594Y-600994D02*
G01X1536700Y-546100D01*
G01X1591594Y-747847D02*
G01X1591594Y-600994D01*
G01X1600200Y-482600D02*
G01X1041400Y-482600D01*
G01X1701602Y-584002D02*
G01X1600200Y-482600D01*
G01X1701602Y-747847D02*
G01X1701602Y-584002D01*
G01X-53340Y1207607D02*
G01X-53340Y1311935D01*
G01X-53340Y1141006D02*
G01X-53340Y1207607D01*
G01X1840986Y-139700D02*
G01X1689100Y-139700D01*
G01X1879086Y-101600D02*
G01X1840986Y-139700D01*
G01X327700Y-192275D02*
G01X327700Y-137200D01*
G01X1117600Y-1625600D02*
G01X1206500Y-1625600D01*
G01X1054100Y-1562100D02*
G01X1117600Y-1625600D01*
G01X-254546Y1160636D02*
G01X-254546Y1313142D01*
G01X-214955Y1121046D02*
G01X-254546Y1160636D01*
G01X-354546Y1121460D02*
G01X-354960Y1121046D01*
G01X395465Y1226885D02*
G01X421756Y1200595D01*
G01X395465Y1313142D02*
G01X395465Y1226885D01*
G01X195466Y1147470D02*
G01X195466Y1313142D01*
G01X200660Y1142276D02*
G01X195466Y1147470D01*
G01X95466Y1151382D02*
G01X95466Y1313142D01*
G01X86360Y1142276D02*
G01X95466Y1151382D01*
G01X-53340Y1311935D02*
G01X-54546Y1313142D01*
G01X1478752Y-1293262D02*
G01X1478752Y-1193800D01*
G01X1054100Y-1422400D02*
G01X1054100Y-1562100D01*
G01X1124339Y-1352161D02*
G01X1054100Y-1422400D01*
G01X1167450Y-1352161D02*
G01X1124339Y-1352161D01*
G01X1226350Y-1293262D02*
G01X1338747Y-1293262D01*
G01X1167450Y-1352161D02*
G01X1226350Y-1293262D01*
G01X1337355Y-1404636D02*
G01X1249825Y-1492166D01*
G01X1167450Y-1492166D01*
G01X1337355Y-1596464D02*
G01X1337355Y-1404636D01*
G01X1477360Y-1404636D02*
G01X1478752Y-1403244D01*
G01X1477360Y-1596464D02*
G01X1477360Y-1404636D01*
G01X1477360Y-1837340D02*
G01X1477360Y-1596464D01*
G01X1308100Y-2006600D02*
G01X1477360Y-1837340D01*
G54D11*
G01X1149614Y-1041400D02*
G01X1041608Y-933394D01*
G01X1193800Y-1041400D02*
G01X1149614Y-1041400D01*
G01X1193800Y-905998D02*
G01X1261598Y-838200D01*
G01X1193800Y-1041400D02*
G01X1193800Y-905998D01*
G54D47*
G01X762000Y-1346200D02*
G01X457200Y-1346200D01*
G54D48*
G01X-1427574Y-2784687D02*
G01X-1427574Y-2960964D01*
G54D11*
G01X1041608Y-933394D02*
G01X1041608Y-747847D01*
G01X1261598Y-838200D02*
G01X1261598Y-747847D01*
G01X1151616Y214457D02*
G01X1151616Y122916D01*
G01X931601Y109799D02*
G01X931601Y214457D01*
G54D48*
G01X-797376Y-2498833D02*
G01X-855135Y-2498833D01*
G01X-748100Y-2548109D02*
G01X-797376Y-2498833D01*
G01X-748100Y-2734727D02*
G01X-748100Y-2548109D01*
G01X-886965Y-2873592D02*
G01X-748100Y-2734727D01*
G54D49*
G01X-859047Y-2502745D02*
G01X-855135Y-2498833D01*
G01X-870020Y-2597741D02*
G01X-1027236Y-2597741D01*
G01X-855135Y-2582856D02*
G01X-870020Y-2597741D01*
G01X-1027236Y-2502745D02*
G01X-859047Y-2502745D01*
G54D48*
G01X-1287108Y-2785148D02*
G01X-1287569Y-2784687D01*
G54D11*
G01X1371605Y422905D02*
G01X1362710Y431800D01*
G01X1371605Y214457D02*
G01X1371605Y422905D01*
G54D49*
G01X3308829Y2221636D02*
G01X3305652Y2224814D01*
G01X3156429Y1929536D02*
G01X3308829Y1929536D01*
G01X3305652Y2224814D02*
G01X3156429Y2224814D01*
G01X3434080Y1765300D02*
G01X3523865Y1765300D01*
G01X3244996Y2070964D02*
G01X3233246Y2059214D01*
G01X3232694Y2059214D01*
G01X3205480Y2032000D01*
G01X3397885Y1166495D02*
G01X3332480Y1231900D01*
G01X3317875Y957605D02*
G01X3317875Y835407D01*
G01X3332877Y820405D01*
G01X3308829Y2070964D02*
G01X3244996Y2070964D01*
G01X3308829Y2070964D02*
G01X3308829Y1929536D01*
G01X3308829Y1778864D02*
G01X3371465Y1841500D01*
G01X3484880Y1841500D01*
G01X2530952Y2224814D02*
G01X2381729Y2224814D01*
G01X2534129Y2221636D02*
G01X2530952Y2224814D01*
G01X2458546Y2059214D02*
G01X2457994Y2059214D01*
G01X2470296Y2070964D02*
G01X2458546Y2059214D01*
G01X2659380Y1765300D02*
G01X2749165Y1765300D01*
G01X2534129Y2070964D02*
G01X2470296Y2070964D01*
G01X2534129Y2070964D02*
G01X2534129Y1929536D01*
G01X2381729Y1929536D02*
G01X2534129Y1929536D01*
G01X2534129Y1778864D02*
G01X2596765Y1841500D01*
G01X2710180Y1841500D01*
G01X2457994Y2059214D02*
G01X2430780Y2032000D01*
G01X4080352Y2224814D02*
G01X3931129Y2224814D01*
G01X4083529Y2221636D02*
G01X4080352Y2224814D01*
G01X4007946Y2059214D02*
G01X4007394Y2059214D01*
G01X4019696Y2070964D02*
G01X4007946Y2059214D01*
G01X4208780Y1765300D02*
G01X4298565Y1765300D01*
G01X4083529Y2070964D02*
G01X4019696Y2070964D01*
G01X4083529Y2070964D02*
G01X4083529Y1929536D01*
G01X3931129Y1929536D02*
G01X4083529Y1929536D01*
G01X4083529Y1778864D02*
G01X4146165Y1841500D01*
G01X4259580Y1841500D01*
G01X4007394Y2059214D02*
G01X3980180Y2032000D01*
G01X3237890Y957605D02*
G01X3237890Y1028491D01*
G01X3477870Y957605D02*
G01X3477870Y845210D01*
G01X3510280Y812800D01*
G01X4413729Y1276198D02*
G01X4356731Y1219200D01*
G01X4246880Y1219200D01*
G01X3397885Y957605D02*
G01X3397885Y1166495D01*
G01X2710180Y1219200D02*
G01X2807331Y1219200D01*
G01X2864329Y1276198D01*
G01X3484880Y1231900D02*
G01X3594731Y1231900D01*
G01X3639029Y1276198D01*
G01X3156429Y1778864D02*
G01X2903670Y1778864D01*
G01X2819006Y1694200D01*
G01X2466393Y1694200D01*
G01X2381729Y1778864D01*
G01X3241093Y1694200D02*
G01X3156429Y1778864D01*
G01X3593706Y1694200D02*
G01X3241093Y1694200D01*
G01X3678370Y1778864D02*
G01X3593706Y1694200D01*
G01X3931129Y1778864D02*
G01X3678370Y1778864D01*
G01X3141980Y736600D02*
G01X3136880Y741700D01*
G01X3087129Y741700D01*
G01X3015420Y813410D01*
G01X2933675Y813410D01*
G01X2786380Y774700D02*
G01X2827680Y733400D01*
G01X2933675Y733400D01*
G01X3637890Y957605D02*
G01X3693185Y957605D01*
G01X3116580Y825500D02*
G01X3157880Y866800D01*
G01X3157880Y957605D01*
G01X4310380Y584200D02*
G01X4241190Y653390D01*
G01X3782085Y653390D01*
G01X3782085Y573405D02*
G01X4067175Y573405D01*
G01X4310380Y330200D01*
G01X3078480Y609600D02*
G01X3042285Y573405D01*
G01X2933675Y573405D01*
G01X2933675Y493395D02*
G01X3058569Y493395D01*
G01X3078480Y473484D01*
G01X3103880Y304800D02*
G01X3157880Y250800D01*
G01X3157880Y109195D01*
G01X3954780Y857098D02*
G01X3911092Y813410D01*
G01X3693185Y957605D02*
G01X3764280Y1028700D01*
G01X3711200Y813410D02*
G01X3657286Y759495D01*
G01X3657286Y578806D01*
G01X3548380Y469900D01*
G01X2697480Y139700D02*
G01X2811170Y253390D01*
G01X2933675Y253390D01*
G54D48*
G01X2975409Y1463289D02*
G01X2928323Y1416202D01*
G01X2864329Y1416202D01*
G01X3751580Y1460500D02*
G01X3707282Y1416202D01*
G01X3639029Y1416202D01*
G01X4413729Y1416202D02*
G01X4477723Y1416202D01*
G01X4524809Y1463289D01*
G54D49*
G01X-2696845Y573405D02*
G01X-2453640Y330200D01*
G01X-2453640Y584200D02*
G01X-2522830Y653390D01*
G01X-2617855Y1841500D02*
G01X-2504440Y1841500D01*
G01X-2350291Y1276198D02*
G01X-2407289Y1219200D01*
G01X-2517140Y1219200D01*
G01X-3126130Y957605D02*
G01X-3070835Y957605D01*
G01X-2522830Y653390D02*
G01X-2981935Y653390D01*
G01X-2981935Y573405D02*
G01X-2696845Y573405D01*
G01X-2809240Y857098D02*
G01X-2852928Y813410D01*
G01X-3052820Y813410D02*
G01X-3106734Y759495D01*
G01X-3458368Y2224814D02*
G01X-3607591Y2224814D01*
G01X-2683668Y2224814D02*
G01X-2832891Y2224814D01*
G01X-2680491Y2221636D02*
G01X-2683668Y2224814D01*
G01X-2756074Y2059214D02*
G01X-2756626Y2059214D01*
G01X-2744324Y2070964D02*
G01X-2756074Y2059214D01*
G01X-2680491Y2070964D02*
G01X-2744324Y2070964D01*
G01X-2680491Y2070964D02*
G01X-2680491Y1929536D01*
G01X-2832891Y1929536D02*
G01X-2680491Y1929536D01*
G01X-2680491Y1778864D02*
G01X-2617855Y1841500D01*
G01X-2756626Y2059214D02*
G01X-2783840Y2032000D01*
G01X-3531326Y2059214D02*
G01X-3558540Y2032000D01*
G01X-3392555Y1841500D02*
G01X-3279140Y1841500D01*
G01X-3455191Y1778864D02*
G01X-3392555Y1841500D01*
G01X-3607591Y1929536D02*
G01X-3455191Y1929536D01*
G01X-3455191Y2070964D02*
G01X-3455191Y1929536D01*
G01X-3455191Y2070964D02*
G01X-3519024Y2070964D01*
G01X-3530774Y2059214D01*
G01X-3531326Y2059214D01*
G01X-3455191Y2221636D02*
G01X-3458368Y2224814D01*
G01X-3169289Y1231900D02*
G01X-3124991Y1276198D01*
G01X-3170314Y1694200D02*
G01X-3522927Y1694200D01*
G01X-3085650Y1778864D02*
G01X-3170314Y1694200D01*
G01X-2832891Y1778864D02*
G01X-3085650Y1778864D01*
G54D48*
G01X-3012440Y1460500D02*
G01X-3056738Y1416202D01*
G01X-3124991Y1416202D01*
G54D49*
G01X-3206140Y1050900D02*
G01X-3206140Y957605D01*
G01X-3286150Y957605D02*
G01X-3286150Y845210D01*
G01X-3253740Y812800D01*
G01X-3152140Y1104900D02*
G01X-3206140Y1050900D01*
G01X-3366135Y957605D02*
G01X-3366135Y1166495D01*
G01X-3279140Y1231900D02*
G01X-3169289Y1231900D01*
G01X-3106734Y759495D02*
G01X-3106734Y578806D01*
G01X-3215640Y469900D01*
G01X-4233068Y2224814D02*
G01X-4382291Y2224814D01*
G01X-4229891Y2221636D02*
G01X-4233068Y2224814D01*
G01X-3607591Y1778864D02*
G01X-3860350Y1778864D01*
G01X-3522927Y1694200D02*
G01X-3607591Y1778864D01*
G01X-4305474Y2059214D02*
G01X-4306026Y2059214D01*
G01X-4293724Y2070964D02*
G01X-4305474Y2059214D01*
G01X-4229891Y2070964D02*
G01X-4293724Y2070964D01*
G01X-4229891Y2070964D02*
G01X-4229891Y1929536D01*
G01X-4382291Y1929536D02*
G01X-4229891Y1929536D01*
G01X-4229891Y1778864D02*
G01X-4167255Y1841500D01*
G01X-4053840Y1841500D01*
G01X-4306026Y2059214D02*
G01X-4333240Y2032000D01*
G01X-4053840Y1219200D02*
G01X-3956689Y1219200D01*
G01X-3899691Y1276198D01*
G01X-3860350Y1778864D02*
G01X-3945014Y1694200D01*
G54D48*
G01X-3788611Y1463289D02*
G01X-3835697Y1416202D01*
G01X-3899691Y1416202D01*
G54D49*
G01X-3606140Y250800D02*
G01X-3606140Y109195D01*
G01X-3830345Y493395D02*
G01X-3705451Y493395D01*
G01X-3685540Y473484D01*
G01X-3660140Y304800D02*
G01X-3606140Y250800D01*
G01X-4066540Y139700D02*
G01X-3952850Y253390D01*
G01X-3830345Y253390D01*
G01X-3446145Y957605D02*
G01X-3446145Y835407D01*
G01X-3431143Y820405D01*
G01X-3526130Y957605D02*
G01X-3526130Y1028491D01*
G01X-3622040Y736600D02*
G01X-3627140Y741700D01*
G01X-3676891Y741700D01*
G01X-3748600Y813410D01*
G01X-3830345Y813410D01*
G01X-3936340Y733400D02*
G01X-3830345Y733400D01*
G01X-3983330Y653390D02*
G01X-3830345Y653390D01*
G01X-3647440Y825500D02*
G01X-3606140Y866800D01*
G01X-3606140Y957605D01*
G01X-3685540Y609600D02*
G01X-3721735Y573405D01*
G01X-3830345Y573405D01*
G01X-3977640Y774700D02*
G01X-3936340Y733400D01*
G01X-4028440Y698500D02*
G01X-3983330Y653390D01*
G01X-4067267Y-572897D02*
G01X-4310472Y-329692D01*
G01X-4310472Y-583692D02*
G01X-4241282Y-652882D01*
G01X-4146257Y-1840992D02*
G01X-4259672Y-1840992D01*
G01X-3637982Y-957098D02*
G01X-3693277Y-957098D01*
G01X-4241282Y-652882D02*
G01X-3782177Y-652882D01*
G01X-3782177Y-572897D02*
G01X-4067267Y-572897D01*
G01X-3954872Y-856590D02*
G01X-3911184Y-812902D01*
G01X-3693277Y-957098D02*
G01X-3764372Y-1028192D01*
G01X-3954872Y-996595D02*
G01X-3795970Y-996595D01*
G01X-3764372Y-1028192D01*
G01X-3711292Y-812902D02*
G01X-3657377Y-758988D01*
G01X-3305743Y-2224306D02*
G01X-3156521Y-2224306D01*
G01X-4080443Y-2224306D02*
G01X-3931221Y-2224306D01*
G01X-4083621Y-2221129D02*
G01X-4080443Y-2224306D01*
G01X-4008038Y-2058706D02*
G01X-4007486Y-2058706D01*
G01X-4019787Y-2070456D02*
G01X-4008038Y-2058706D01*
G01X-4083621Y-2070456D02*
G01X-4019787Y-2070456D01*
G01X-4083621Y-2070456D02*
G01X-4083621Y-1929029D01*
G01X-3931221Y-1929029D02*
G01X-4083621Y-1929029D01*
G01X-4083621Y-1778356D02*
G01X-4146257Y-1840992D01*
G01X-4007486Y-2058706D02*
G01X-3980272Y-2031492D01*
G01X-3232786Y-2058706D02*
G01X-3205572Y-2031492D01*
G01X-3371557Y-1840992D02*
G01X-3484972Y-1840992D01*
G01X-3308921Y-1778356D02*
G01X-3371557Y-1840992D01*
G01X-3156521Y-1929029D02*
G01X-3308921Y-1929029D01*
G01X-3308921Y-2070456D02*
G01X-3308921Y-1929029D01*
G01X-3308921Y-2070456D02*
G01X-3245087Y-2070456D01*
G01X-3233338Y-2058706D01*
G01X-3232786Y-2058706D01*
G01X-3308921Y-2221129D02*
G01X-3305743Y-2224306D01*
G01X-3477962Y-957098D02*
G01X-3477962Y-844703D01*
G01X-3510372Y-812292D01*
G01X-3657377Y-758988D02*
G01X-3657377Y-578298D01*
G01X-3548472Y-469392D01*
G01X-2531043Y-2224306D02*
G01X-2381821Y-2224306D01*
G01X-2534221Y-2221129D02*
G01X-2531043Y-2224306D01*
G01X-2458638Y-2058706D02*
G01X-2458086Y-2058706D01*
G01X-2470387Y-2070456D02*
G01X-2458638Y-2058706D01*
G01X-2534221Y-2070456D02*
G01X-2470387Y-2070456D01*
G01X-2534221Y-2070456D02*
G01X-2534221Y-1929029D01*
G01X-2381821Y-1929029D02*
G01X-2534221Y-1929029D01*
G01X-2534221Y-1778356D02*
G01X-2596857Y-1840992D01*
G01X-2710272Y-1840992D01*
G01X-2458086Y-2058706D02*
G01X-2430872Y-2031492D01*
G01X-2381821Y-1778356D02*
G01X-2381821Y-1229643D01*
G01X-3157972Y-250292D02*
G01X-3157972Y-108687D01*
G01X-2933767Y-492887D02*
G01X-3058661Y-492887D01*
G01X-3078572Y-472976D01*
G01X-3103972Y-304292D02*
G01X-3157972Y-250292D01*
G01X-2697572Y-139192D02*
G01X-2811262Y-252883D01*
G01X-2933767Y-252883D01*
G01X-3317967Y-957098D02*
G01X-3317967Y-834899D01*
G01X-3332969Y-819898D01*
G01X-3142072Y-736092D02*
G01X-3136972Y-741192D01*
G01X-3087221Y-741192D01*
G01X-3015512Y-812902D01*
G01X-2933767Y-812902D01*
G01X-2827772Y-732892D02*
G01X-2933767Y-732892D01*
G01X-3116672Y-824992D02*
G01X-3157972Y-866293D01*
G01X-3157972Y-957098D01*
G01X-3078572Y-609092D02*
G01X-3042377Y-572897D01*
G01X-2933767Y-572897D01*
G01X-2786472Y-774192D02*
G01X-2827772Y-732892D01*
G01X2701925Y-573405D02*
G01X2458720Y-330200D01*
G01X2458720Y-584200D02*
G01X2527910Y-653390D01*
G01X2622935Y-1841500D02*
G01X2509520Y-1841500D01*
G01X2355371Y-1276198D02*
G01X2412369Y-1219200D01*
G01X2522220Y-1219200D01*
G01X3131210Y-957605D02*
G01X3075915Y-957605D01*
G01X2527910Y-653390D02*
G01X2987015Y-653390D01*
G01X2987015Y-573405D02*
G01X2701925Y-573405D01*
G01X2814320Y-857098D02*
G01X2858008Y-813410D01*
G01X3075915Y-957605D02*
G01X3004820Y-1028700D01*
G01X3057900Y-813410D02*
G01X3111814Y-759495D01*
G01X3463448Y-2224814D02*
G01X3612671Y-2224814D01*
G01X2688748Y-2224814D02*
G01X2837971Y-2224814D01*
G01X2685571Y-2221636D02*
G01X2688748Y-2224814D01*
G01X2761154Y-2059214D02*
G01X2761706Y-2059214D01*
G01X2749404Y-2070964D02*
G01X2761154Y-2059214D01*
G01X2685571Y-2070964D02*
G01X2749404Y-2070964D01*
G01X2685571Y-2070964D02*
G01X2685571Y-1929536D01*
G01X2837971Y-1929536D02*
G01X2685571Y-1929536D01*
G01X2685571Y-1778864D02*
G01X2622935Y-1841500D01*
G01X2761706Y-2059214D02*
G01X2788920Y-2032000D01*
G01X3536406Y-2059214D02*
G01X3563620Y-2032000D01*
G01X3397635Y-1841500D02*
G01X3284220Y-1841500D01*
G01X3460271Y-1778864D02*
G01X3397635Y-1841500D01*
G01X3612671Y-1929536D02*
G01X3460271Y-1929536D01*
G01X3460271Y-2070964D02*
G01X3460271Y-1929536D01*
G01X3460271Y-2070964D02*
G01X3524104Y-2070964D01*
G01X3535854Y-2059214D01*
G01X3536406Y-2059214D01*
G01X3460271Y-2221636D02*
G01X3463448Y-2224814D01*
G01X3174369Y-1231900D02*
G01X3130071Y-1276198D01*
G01X2837971Y-1778864D02*
G01X3090730Y-1778864D01*
G54D48*
G01X3017520Y-1460500D02*
G01X3061818Y-1416202D01*
G01X3130071Y-1416202D01*
G54D49*
G01X3211220Y-1050900D02*
G01X3211220Y-957605D01*
G01X3291230Y-957605D02*
G01X3291230Y-845210D01*
G01X3258820Y-812800D01*
G01X3157220Y-1104900D02*
G01X3211220Y-1050900D01*
G01X3371215Y-957605D02*
G01X3371215Y-1166495D01*
G01X3436620Y-1231900D01*
G01X3284220Y-1231900D02*
G01X3174369Y-1231900D01*
G01X3111814Y-759495D02*
G01X3111814Y-578806D01*
G01X3220720Y-469900D01*
G54D48*
G01X2355371Y-1416202D02*
G01X2291377Y-1416202D01*
G01X2244291Y-1463289D01*
G54D49*
G01X4238148Y-2224814D02*
G01X4387371Y-2224814D01*
G01X4234971Y-2221636D02*
G01X4238148Y-2224814D01*
G01X3612671Y-1778864D02*
G01X3865430Y-1778864D01*
G01X4310554Y-2059214D02*
G01X4311106Y-2059214D01*
G01X4298804Y-2070964D02*
G01X4310554Y-2059214D01*
G01X4234971Y-2070964D02*
G01X4298804Y-2070964D01*
G01X4234971Y-2070964D02*
G01X4234971Y-1929536D01*
G01X4387371Y-1929536D02*
G01X4234971Y-1929536D01*
G01X4234971Y-1778864D02*
G01X4172335Y-1841500D01*
G01X4058920Y-1841500D01*
G01X4311106Y-2059214D02*
G01X4338320Y-2032000D01*
G01X4058920Y-1219200D02*
G01X3961769Y-1219200D01*
G01X3904771Y-1276198D01*
G01X4387371Y-1778864D02*
G01X4387371Y-1230151D01*
G54D48*
G01X3793691Y-1463289D02*
G01X3840777Y-1416202D01*
G01X3904771Y-1416202D01*
G54D49*
G01X3611220Y-250800D02*
G01X3611220Y-109195D01*
G01X3835425Y-493395D02*
G01X3710531Y-493395D01*
G01X3690620Y-473484D01*
G01X3665220Y-304800D02*
G01X3611220Y-250800D01*
G01X4071620Y-139700D02*
G01X3957930Y-253390D01*
G01X3835425Y-253390D01*
G01X3690620Y-609600D02*
G01X3726815Y-573405D01*
G01X3835425Y-573405D01*
G54D47*
G01X2006600Y-1765300D02*
G01X2023212Y-1765300D01*
G01X2082800Y-1705712D01*
G01X2082800Y-1621688D02*
G01X2019024Y-1621688D01*
G01X1935203Y-1705509D01*
G01X1681500Y-424200D02*
G01X1017210Y-424200D01*
G01X1879600Y-622300D02*
G01X1681500Y-424200D01*
G01X1879600Y-1435100D02*
G01X1879600Y-622300D01*
G01X1955800Y-215900D02*
G01X2006600Y-266700D01*
G01X2209066Y-558179D02*
G01X2162800Y-511912D01*
G01X2146300Y-511912D01*
G01X2146300Y-427888D02*
G01X2078888Y-427888D01*
G01X2076684Y-425684D01*
G01X2202248Y-564998D02*
G01X2209066Y-558179D01*
G01X2057400Y-628498D02*
G01X2120900Y-564998D01*
G01X2202248Y-564998D01*
G01X2203298Y-635000D02*
G01X2203298Y-666902D01*
G01X2101698Y-768502D01*
G01X2057400Y-768502D01*
G54D49*
G01X-596900Y-1143000D02*
G01X-580288Y-1126388D01*
G01X-580288Y-1041400D01*
G54D47*
G01X327700Y-137200D02*
G01X139700Y50800D01*
G01X139700Y133995D01*
G01X62700Y210995D01*
G01X233706Y-660400D02*
G01X-299720Y-126974D01*
G01X-299720Y21888D01*
G01X-245408Y76200D01*
G01X257464Y-835196D02*
G01X-411480Y-166252D01*
G01X886460Y-1983740D02*
G01X886460Y-1700116D01*
G01X863600Y-2006600D02*
G01X886460Y-1983740D01*
G01X886460Y-1700116D02*
G01X888305Y-1698271D01*
G01X888305Y-1632231D01*
G01X891600Y-1628936D01*
G01X891600Y-1269378D01*
G01X386218Y-763996D01*
G01X286956Y-763996D01*
G54D49*
G01X-3531210Y109195D02*
G01X-3531210Y210210D01*
G01X-3474723Y266697D01*
G01X-3374895Y266697D01*
G01X-3237982Y-108687D02*
G01X-3237982Y-210302D01*
G01X-3293870Y-266190D01*
G01X-3394296Y-266190D01*
G01X3531210Y-109195D02*
G01X3531210Y-207670D01*
G01X3472183Y-266697D01*
G01X3374895Y-266697D01*
G01X3237890Y109195D02*
G01X3237890Y215290D01*
G01X3289297Y266697D01*
G01X3394205Y266697D01*
G54D47*
G01X-43180Y-1389380D02*
G01X-220980Y-1389380D01*
G01X-368300Y-1536700D01*
G01X134620Y-1635760D02*
G01X-15240Y-1635760D01*
G01X-114300Y-1536700D01*
G01X228600Y-1729740D02*
G01X134620Y-1635760D01*
G01X698500Y-1562100D02*
G01X635000Y-1562100D01*
G01X467360Y-1729740D01*
G01X228600Y-1729740D01*
G54D49*
G01X-708660Y-1165860D02*
G01X-668000Y-1125200D01*
G01X-668000Y-1113549D01*
G01X-664312Y-1109861D01*
G01X-664312Y-1041400D01*
G54D47*
G01X2458720Y-76200D02*
G01X2296160Y-238760D01*
G01X2296160Y-876019D01*
G01X2183291Y-988888D01*
G01X-3388360Y-551180D02*
G01X-3388360Y-272126D01*
G01X-3394296Y-266190D01*
G01X-3439699Y-220787D01*
G01X-3658817Y-220787D01*
G01X-3803911Y-75692D01*
G01X-4310472Y-75692D01*
G01X3394205Y266697D02*
G01X3635843Y266697D01*
G01X3826341Y76200D01*
G01X4310380Y76200D01*
G54D49*
G01X4340860Y-772160D02*
G01X4222090Y-653390D01*
G01X3835425Y-653390D01*
G01X3218180Y-716280D02*
G01X3243600Y-741700D01*
G01X3580371Y-741700D01*
G01X3652080Y-813410D01*
G01X3835425Y-813410D01*
G01X3611220Y-957605D02*
G01X3611220Y-886720D01*
G01X3537300Y-812800D01*
G01X3480200Y-812800D01*
G01X3451225Y-957605D02*
G01X3451225Y-886720D01*
G01X3397311Y-832806D01*
G01X3369883Y-832806D01*
G01X3362563Y-825485D01*
G01X3835425Y-733400D02*
G01X3687420Y-733400D01*
G01X3619500Y-665480D01*
G01X3563620Y-665480D01*
G01X3090730Y-1778864D02*
G01X3208434Y-1661160D01*
G01X3494968Y-1661160D01*
G01X3612671Y-1778864D01*
G01X3865430Y-1778864D02*
G01X3996593Y-1647700D01*
G01X4256208Y-1647700D01*
G01X4387371Y-1778864D01*
G01X-3931221Y-1778356D02*
G01X-3678462Y-1778356D01*
G01X-3560758Y-1660652D01*
G01X-3274224Y-1660652D01*
G01X-3156521Y-1778356D01*
G01X-2903762Y-1778356D01*
G01X-2772598Y-1647192D01*
G01X-2512984Y-1647192D01*
G01X-2381821Y-1778356D01*
G01X2405380Y1079500D02*
G01X2694940Y789940D01*
G01X2694940Y744220D01*
G01X2785770Y653390D02*
G01X2933675Y653390D01*
G01X2694940Y744220D02*
G01X2785770Y653390D01*
G54D47*
G01X1059180Y-1163320D02*
G01X1059180Y-1165860D01*
G01X1018500Y-1206540D01*
G01X1018500Y-1876566D01*
G01X923905Y-1646977D02*
G01X923905Y-1980545D01*
G01X1018500Y-1876566D02*
G01X1066800Y-1924866D01*
G01X1066800Y-1949410D01*
G01X1087100Y-1969710D01*
G01X1087100Y-2018090D01*
G01X2183291Y-988888D02*
G01X2183291Y-1746089D01*
G01X2098040Y-1831340D01*
G54D45*
G01X1775447Y-1926261D02*
G01X1618885Y-2082823D01*
G01X1618884Y-2082823D02*
G01X1577363Y-2082823D01*
G01X1536700Y-2042160D01*
G01X1775447Y-1732267D02*
G01X1696720Y-1653540D01*
G54D49*
G01X-2933767Y-652882D02*
G01X-2771038Y-652882D01*
G01X-2677160Y-746760D01*
G01X-2677160Y-789524D01*
G01X-2397852Y-1068832D01*
G54D47*
G01X419100Y-1526540D02*
G01X93980Y-1526540D01*
G01X-43180Y-1389380D01*
G01X938470Y-1995110D02*
G01X938470Y-2105640D01*
G01X923905Y-1980545D02*
G01X938470Y-1995110D01*
G01X1087100Y-2018090D02*
G01X1029239Y-2075951D01*
G01X1029239Y-2155901D01*
G54D45*
G01X482620Y-1875047D02*
G01X605669Y-1998096D01*
G01X720806Y-1998096D01*
G54D49*
G01X-2852928Y813410D02*
G01X-2981935Y813410D01*
G01X-3052820Y813410D01*
G01X-3911184Y-812902D02*
G01X-3782177Y-812902D01*
G01X-3711292Y-812902D01*
G01X2858008Y-813410D02*
G01X2987015Y-813410D01*
G01X3057900Y-813410D01*
G01X3911092Y813410D02*
G01X3782085Y813410D01*
G01X3711200Y813410D01*
G01X-3413891Y1562100D02*
G01X-3436294Y1539696D01*
G01X-3413383Y1562100D02*
G01X-3413891Y1562100D01*
G01X2057400Y-1167536D02*
G01X2055648Y-1165785D01*
G01X1938000Y-1165785D01*
G01X2035505Y-1038758D02*
G01X1940438Y-1038758D01*
G01X2057400Y-1016864D02*
G01X2035505Y-1038758D01*
G54D47*
G01X1866900Y-482600D02*
G01X1701800Y-317500D01*
G01X1118054Y-317500D01*
G54D11*
G01X1151616Y122916D02*
G01X1059180Y30480D01*
G01X1045703Y30480D01*
G01X1010920Y30480D01*
G01X931601Y109799D01*
G54D47*
G01X286956Y-763996D02*
G01X-337780Y-139260D01*
G01X-337780Y688380D01*
G01X-236220Y789940D01*
G01X784840Y-1102340D02*
G01X508040Y-825540D01*
G01X1892300Y-1612900D02*
G01X1879600Y-1612900D01*
G01X1551652Y-1284952D01*
G01X1551652Y-1241705D01*
G01X1541492Y-1231545D01*
G01X1541492Y-1186650D01*
G01X1537152Y-1182310D01*
G01X1537152Y-1169610D01*
G01X899715Y-1100495D02*
G01X897869Y-1102340D01*
G01X784840Y-1102340D01*
G01X508040Y-825540D02*
G01X508040Y-647206D01*
G01X518200Y-637046D01*
G01X518200Y-544054D01*
G01X508040Y-533894D01*
G01X508040Y-466150D01*
G01X518200Y-455990D01*
G01X518200Y-407610D01*
G01X508040Y-397450D01*
G01X508040Y-220134D01*
G01X446804Y-158898D01*
G01X446804Y-146198D01*
G01X412594Y-111988D01*
G01X364214Y-111988D01*
G01X190540Y136759D02*
G01X121100Y206199D01*
G01X121100Y235185D01*
G01X1537152Y-1169610D02*
G01X1468037Y-1100495D01*
G01X899715Y-1100495D01*
G01X364214Y-111988D02*
G01X190540Y61685D01*
G01X190540Y136759D01*
G01X121100Y235185D02*
G01X21300Y334986D01*
G01X21300Y1179575D01*
G01X45720Y1203996D01*
G01X45720Y1312875D01*
G01X45453Y1313142D01*
G01X360660Y1072385D02*
G01X292100Y1140945D01*
G01X292100Y1199550D01*
G01X245453Y1246197D01*
G01X245453Y1313142D01*
G01X1116449Y-317516D02*
G01X1095034Y-317516D01*
G01X719118Y58400D01*
G01X653376Y58400D01*
G01X323116Y388660D01*
G01X419100Y411480D02*
G01X1046480Y-215900D01*
G01X1955800Y-215900D01*
G01X-354546Y1313142D02*
G01X-354546Y1205901D01*
G01X-354546Y1121460D01*
G01X-411480Y-166252D02*
G01X-411480Y665934D01*
G01X-490220Y744674D01*
G01X-490220Y929640D01*
G01X-621359Y1499373D02*
G01X-629920Y1507935D01*
G01X-604558Y1313142D02*
G01X-604558Y1380112D01*
G01X-621359Y1396912D01*
G01X-621359Y1499373D01*
G01X-554545Y1313142D02*
G01X-554545Y1440970D01*
G01X-562958Y1449383D01*
G01X-504558Y1313142D02*
G01X-504558Y1508425D01*
G01X-507798Y1511664D01*
G01X45453Y1313142D02*
G01X45453Y1382515D01*
G01X87053Y1424115D01*
G01X-4534Y1313142D02*
G01X-4534Y1417663D01*
G01X10853Y1433050D01*
G01X323116Y388660D02*
G01X323116Y433545D01*
G01X333970Y444398D01*
G01X360660Y471089D01*
G01X360660Y1072385D01*
G01X1017210Y-424200D02*
G01X259080Y333930D01*
G01X259080Y690860D01*
G01X210820Y739120D01*
G01X-505460Y-876420D02*
G01X-86360Y-1295520D01*
G01X-505460Y617220D02*
G01X-505460Y-876420D01*
G01X-579120Y1059180D02*
G01X-617220Y1021080D01*
G01X-617220Y728980D01*
G01X-505460Y617220D01*
G01X-71120Y-1153160D02*
G01X-457200Y-767080D01*
G01X-457200Y640080D01*
G01X-556260Y739140D01*
G01X-556260Y960120D01*
G01X-497840Y1018540D01*
G01X-204559Y1313142D02*
G01X-204559Y1402613D01*
G01X-241300Y1439355D01*
G01X-304559Y1313142D02*
G01X-304559Y1439959D01*
G01X-327660Y1463060D01*
G01X145453Y1313142D02*
G01X145453Y1456461D01*
G01X93980Y1507935D01*
G01X-454546Y1313142D02*
G01X-454546Y1246197D01*
G01X-373380Y678180D02*
G01X-431800Y736600D01*
G01X-373380Y-154006D02*
G01X-373380Y678180D01*
G01X272210Y-799596D02*
G01X-373380Y-154006D01*
G01X371472Y-799596D02*
G01X272210Y-799596D01*
G01X856000Y-1284124D02*
G01X371472Y-799596D01*
G01X856000Y-1486736D02*
G01X856000Y-1284124D01*
G01X833100Y-1509636D02*
G01X856000Y-1486736D01*
G01X833100Y-1637090D02*
G01X833100Y-1509636D01*
G01X800100Y-1670090D02*
G01X833100Y-1637090D01*
G01X800100Y-1701800D02*
G01X800100Y-1670090D01*
G01X-403860Y1312443D02*
G01X-404558Y1313142D01*
G01X-431800Y736600D02*
G01X-431800Y1214120D01*
G01X-403860Y1242060D01*
G01X-403860Y1312443D01*
G01X-454546Y1246197D02*
G01X-517929Y1182815D01*
G01X-530860Y1182815D01*
G01X-154546Y1313142D02*
G01X-154546Y1222328D01*
G01X-137160Y1204941D01*
G54D46*
G01X614464Y1570647D02*
G01X614464Y1561490D01*
G01X751198Y1424756D01*
G54D47*
G01X419100Y411480D02*
G01X419100Y1107960D01*
G01X345453Y1181607D01*
G01X345453Y1313142D01*
G54D49*
G01X450342Y1200595D02*
G01X421756Y1200595D01*
G54D47*
G01X557213Y1283716D02*
G01X557213Y1335088D01*
G01X843280Y1088492D02*
G01X843280Y1149668D01*
G01X804228Y1188720D01*
G54D49*
G01X843280Y1004468D02*
G01X646468Y1004468D01*
G54D47*
G01X200660Y1055713D02*
G01X266700Y989673D01*
G01X295466Y1313142D02*
G01X295466Y1420749D01*
G01X294640Y1421575D01*
G01X557213Y1335088D02*
G01X470726Y1421575D01*
G01X294640Y1421575D01*
G54D49*
G01X190500Y254000D02*
G01X190500Y617220D01*
G01X127000Y680720D01*
G01X127000Y778131D01*
G01X266700Y917831D01*
G01X266700Y989673D01*
G54D11*
G01X1318260Y1178560D02*
G01X1202690Y1062990D01*
G01X1202690Y431800D01*
G54D47*
G01X86360Y1055713D02*
G01X101211Y1040861D01*
G01X101211Y974972D01*
G01X-128033Y1062063D02*
G01X-58420Y1062063D01*
G01X-53340Y1056983D01*
G01X-214955Y1121046D02*
G01X-187015Y1121046D01*
G01X-128033Y1062063D01*
G54D11*
G01X655320Y1188720D02*
G01X804228Y1188720D01*
G54D46*
G01X751198Y1424756D02*
G01X831222Y1424756D01*
G01X835660Y1429195D01*
G54D47*
G01X-104559Y1313142D02*
G01X-104559Y1386434D01*
G01X-157480Y1439355D01*
G54D46*
G01X-873544Y1570647D02*
G01X-835444Y1532547D01*
G01X-835444Y1329919D01*
G01X-815340Y1309815D01*
G54D49*
G01X-4248721Y-1527404D02*
G01X-4214532Y-1561592D01*
G01X-4248721Y-1459992D02*
G01X-4248721Y-1527404D01*
G01X-4109021Y-1540104D02*
G01X-4130509Y-1561592D01*
G01X-4109021Y-1459992D02*
G01X-4109021Y-1540104D01*
G01X-3474021Y-1527404D02*
G01X-3439832Y-1561592D01*
G01X-3474021Y-1459992D02*
G01X-3474021Y-1527404D01*
G01X-3334321Y-1540104D02*
G01X-3355809Y-1561592D01*
G01X-3334321Y-1459992D02*
G01X-3334321Y-1540104D01*
G01X-2699321Y-1527404D02*
G01X-2665132Y-1561592D01*
G01X-2699321Y-1459992D02*
G01X-2699321Y-1527404D01*
G01X-2804277Y-108687D02*
G01X-2799172Y-113792D01*
G01X-3077962Y-108687D02*
G01X-2804277Y-108687D01*
G01X-2559621Y-1540104D02*
G01X-2581109Y-1561592D01*
G01X-2559621Y-1459992D02*
G01X-2559621Y-1540104D01*
G01X-2381821Y-1229643D02*
G01X-2575144Y-1036320D01*
G01X-3027162Y-1036320D01*
G01X-3077962Y-985520D01*
G01X-3077962Y-957098D01*
G54D48*
G01X-2983121Y-1462781D02*
G01X-2936035Y-1415695D01*
G01X-2864421Y-1415695D01*
G01X-3756752Y-1459992D02*
G01X-3712454Y-1415695D01*
G01X-3639121Y-1415695D01*
G01X-4413821Y-1415695D02*
G01X-4487975Y-1415695D01*
G01X-4535061Y-1462781D01*
G54D49*
G01X2804185Y109195D02*
G01X2799080Y114300D01*
G01X3077870Y109195D02*
G01X2804185Y109195D01*
G01X4248629Y1527912D02*
G01X4214440Y1562100D01*
G01X4248629Y1460500D02*
G01X4248629Y1527912D01*
G01X4108929Y1540612D02*
G01X4130417Y1562100D01*
G01X4108929Y1460500D02*
G01X4108929Y1540612D01*
G01X2699229Y1527912D02*
G01X2665040Y1562100D01*
G01X2699229Y1460500D02*
G01X2699229Y1527912D01*
G01X2559529Y1540612D02*
G01X2581017Y1562100D01*
G01X2559529Y1460500D02*
G01X2559529Y1540612D01*
G01X3473929Y1527912D02*
G01X3439740Y1562100D01*
G01X3473929Y1460500D02*
G01X3473929Y1527912D01*
G01X3334229Y1540612D02*
G01X3355717Y1562100D01*
G01X3334229Y1460500D02*
G01X3334229Y1540612D01*
G01X3954780Y969112D02*
G01X3895192Y1028700D01*
G01X3764280Y1028700D01*
G01X2381729Y1778864D02*
G01X2381729Y1230151D01*
G01X2583180Y1028700D01*
G01X3027070Y1028700D01*
G01X3077870Y977900D01*
G01X3077870Y957605D01*
G01X3484880Y1231900D02*
G01X3431642Y1285138D01*
G01X3431642Y1318260D01*
G01X3345078Y1318260D02*
G01X3345078Y1244498D01*
G01X3332480Y1231900D01*
G01X4188562Y1320800D02*
G01X4246880Y1262482D01*
G01X4246880Y1219200D01*
G01X3237890Y1028491D02*
G01X3153861Y1112520D01*
G01X2677160Y1112520D01*
G01X2557780Y1231900D01*
G01X2667102Y1318260D02*
G01X2667102Y1262278D01*
G01X2710180Y1219200D01*
G01X2580538Y1318260D02*
G01X2580538Y1254658D01*
G01X2557780Y1231900D01*
G01X4298565Y1765300D02*
G01X4388329Y1855064D01*
G01X4388329Y2224814D01*
G01X3523865Y1765300D02*
G01X3613629Y1855064D01*
G01X3613629Y2224814D01*
G01X2749165Y1765300D02*
G01X2838929Y1855064D01*
G01X2838929Y2224814D01*
G01X4101998Y1320800D02*
G01X4018178Y1236980D01*
G01X4013200Y1236980D01*
G54D48*
G01X-2350291Y1416202D02*
G01X-2278677Y1416202D01*
G01X-2231591Y1463289D01*
G54D49*
G01X-4382291Y1230151D02*
G01X-4160545Y1008405D01*
G01X-3736950Y1008405D01*
G01X-3686150Y957605D01*
G01X-3526130Y1028491D02*
G01X-3607619Y1109980D01*
G01X4010660Y1234440D02*
G01X4010660Y1229359D01*
G01X3886180Y1104879D01*
G01X3616940Y1104879D01*
G01X4013200Y1236980D02*
G01X4010660Y1234440D01*
G01X3616940Y1104879D02*
G01X3557880Y1045819D01*
G01X3557880Y957605D01*
G01X-4010752Y-1233932D02*
G01X-4010752Y-1228851D01*
G01X-4013292Y-1236472D02*
G01X-4010752Y-1233932D01*
G01X-4102090Y-1320292D02*
G01X-4018270Y-1236472D01*
G01X-4013292Y-1236472D01*
G01X-4356823Y-1218692D02*
G01X-4246972Y-1218692D01*
G01X-4413821Y-1275690D02*
G01X-4356823Y-1218692D01*
G01X-4188654Y-1320292D02*
G01X-4246972Y-1261974D01*
G01X-4246972Y-1218692D01*
G01X-4010752Y-1228851D02*
G01X-3886272Y-1104371D01*
G01X-3484972Y-1231392D02*
G01X-3431734Y-1284631D01*
G01X-3431734Y-1317752D01*
G01X-3484972Y-1231392D02*
G01X-3594823Y-1231392D01*
G01X-3639121Y-1275690D01*
G01X-3345170Y-1317752D02*
G01X-3345170Y-1243991D01*
G01X-3332572Y-1231392D01*
G01X-3397977Y-957098D02*
G01X-3397977Y-1165987D01*
G01X-3332572Y-1231392D01*
G01X-3886272Y-1104371D02*
G01X-3617032Y-1104371D01*
G01X-3557972Y-1045311D01*
G01X-3557972Y-957098D01*
G01X-2677252Y-1112012D02*
G01X-2557872Y-1231392D01*
G01X-3153953Y-1112012D02*
G01X-2677252Y-1112012D01*
G01X-3237982Y-1027983D02*
G01X-3153953Y-1112012D01*
G01X-3237982Y-957098D02*
G01X-3237982Y-1027983D01*
G01X-2667194Y-1317752D02*
G01X-2667194Y-1261771D01*
G01X-2710272Y-1218692D01*
G01X-2580630Y-1254151D02*
G01X-2557872Y-1231392D01*
G01X-2580630Y-1317752D02*
G01X-2580630Y-1254151D01*
G01X-2710272Y-1218692D02*
G01X-2807423Y-1218692D01*
G01X-2864421Y-1275690D01*
G01X-3487512Y-1731752D02*
G01X-3613721Y-1857961D01*
G01X-3613721Y-2224306D01*
G01X-2705192Y-1718292D02*
G01X-2839021Y-1852121D01*
G01X-2839021Y-2224306D01*
G01X-4388421Y-1870681D02*
G01X-4388421Y-2224306D01*
G01X-4241892Y-1724152D02*
G01X-4287632Y-1769892D01*
G01X-4289123Y-1769892D01*
G01X-4330772Y-1811542D01*
G01X-4330772Y-1813032D01*
G01X-4388421Y-1870681D01*
G01X-3995400Y1770400D02*
G01X-3925091Y1840709D01*
G01X-3925091Y2224814D01*
G01X-3223240Y1770400D02*
G01X-3150391Y1843249D01*
G01X-3150391Y2224814D01*
G01X-2453620Y1770400D02*
G01X-2375691Y1848329D01*
G01X-2375691Y2224814D01*
G01X-2753360Y1234440D02*
G01X-2882900Y1104900D01*
G01X-3152140Y1104900D01*
G01X-2753360Y1234440D02*
G01X-2677160Y1310640D01*
G01X-2650113Y1310640D01*
G01X4387371Y-1230151D02*
G01X4165625Y-1008405D01*
G01X3742030Y-1008405D01*
G01X3691230Y-957605D01*
G01X3531210Y-1028491D02*
G01X3531210Y-957605D01*
G01X3605079Y-1102360D02*
G01X3531210Y-1028491D01*
G01X2520471Y-1527912D02*
G01X2520471Y-1460500D01*
G01X2554660Y-1562100D02*
G01X2520471Y-1527912D01*
G01X2660171Y-1540612D02*
G01X2660171Y-1460500D01*
G01X2638683Y-1562100D02*
G01X2660171Y-1540612D01*
G01X3436620Y-1305662D02*
G01X3436620Y-1231900D01*
G01X3406242Y-1336040D02*
G01X3436620Y-1305662D01*
G01X3295171Y-1527912D02*
G01X3295171Y-1460500D01*
G01X3329360Y-1562100D02*
G01X3295171Y-1527912D01*
G01X3434871Y-1540612D02*
G01X3413383Y-1562100D01*
G01X3434871Y-1460500D02*
G01X3434871Y-1540612D01*
G01X4069871Y-1527912D02*
G01X4104060Y-1562100D01*
G01X4069871Y-1460500D02*
G01X4069871Y-1527912D01*
G01X4081780Y-1102360D02*
G01X3605079Y-1102360D01*
G01X4211320Y-1231900D02*
G01X4081780Y-1102360D01*
G01X4211320Y-1318362D02*
G01X4211320Y-1231900D01*
G01X4180942Y-1348740D02*
G01X4211320Y-1318362D01*
G01X3964915Y-109195D02*
G01X3691230Y-109195D01*
G01X3970020Y-114300D02*
G01X3964915Y-109195D01*
G01X3319678Y-1267358D02*
G01X3284220Y-1231900D01*
G01X3319678Y-1336040D02*
G01X3319678Y-1267358D01*
G01X2557678Y-1254658D02*
G01X2522220Y-1219200D01*
G01X2557678Y-1330960D02*
G01X2557678Y-1254658D01*
G01X4094378Y-1254658D02*
G01X4058920Y-1219200D01*
G01X4094378Y-1348740D02*
G01X4094378Y-1254658D01*
G01X4209571Y-1540612D02*
G01X4188083Y-1562100D01*
G01X4209571Y-1460500D02*
G01X4209571Y-1540612D01*
G01X2768600Y-1216660D02*
G01X2880360Y-1104900D01*
G01X3157220Y-1104900D01*
G01X2768600Y-1216660D02*
G01X2654300Y-1330960D01*
G01X2644242Y-1330960D01*
G01X-3070835Y957605D02*
G01X-2999740Y1028700D01*
G01X-2515391Y1522832D02*
G01X-2554660Y1562100D01*
G01X-3366135Y1166495D02*
G01X-3431540Y1231900D01*
G01X-3290091Y1522832D02*
G01X-3329360Y1562100D01*
G01X-4064791Y1522832D02*
G01X-4104060Y1562100D01*
G01X-3945014Y1694200D02*
G01X-4297627Y1694200D01*
G01X-3970020Y114300D02*
G01X-3964915Y109195D01*
G01X-3436295Y1461922D02*
G01X-3436294Y1539696D01*
G01X-2814320Y969112D02*
G01X-2873908Y1028700D01*
G01X-4382291Y1778864D02*
G01X-4382291Y1230151D01*
G01X-4297627Y1694200D02*
G01X-4382291Y1778864D01*
G01X-2515391Y1460500D02*
G01X-2515391Y1522832D01*
G01X-2550140Y1770400D02*
G01X-2453620Y1770400D01*
G01X-2555240Y1765300D02*
G01X-2550140Y1770400D01*
G01X-2655091Y1460500D02*
G01X-2655091Y1545692D01*
G01X-3406242Y1257198D02*
G01X-3406242Y1333500D01*
G01X-3431540Y1231900D02*
G01X-3406242Y1257198D01*
G01X-3324840Y1770400D02*
G01X-3223240Y1770400D01*
G01X-3329940Y1765300D02*
G01X-3324840Y1770400D01*
G01X-3290091Y1460500D02*
G01X-3290091Y1522832D01*
G01X-3959835Y109195D02*
G01X-3964940Y114300D01*
G01X-3319678Y1272438D02*
G01X-3319678Y1333500D01*
G01X-3279140Y1231900D02*
G01X-3319678Y1272438D01*
G01X-2563550Y1265610D02*
G01X-2517140Y1219200D01*
G01X-2563550Y1310640D02*
G01X-2563550Y1265610D01*
G01X-4107078Y1272438D02*
G01X-4107078Y1313180D01*
G01X-4053840Y1219200D02*
G01X-4107078Y1272438D01*
G01X-4064791Y1460500D02*
G01X-4064791Y1522832D01*
G01X-4193642Y1244498D02*
G01X-4206240Y1231900D01*
G01X-4193642Y1313180D02*
G01X-4193642Y1244498D01*
G01X-4084320Y1109980D02*
G01X-4206240Y1231900D01*
G01X-3607619Y1109980D02*
G01X-4084320Y1109980D01*
G01X-4099540Y1770400D02*
G01X-3995400Y1770400D01*
G01X-4104640Y1765300D02*
G01X-4099540Y1770400D01*
G01X-4204491Y1460500D02*
G01X-4204491Y1545692D01*
G01X3281680Y-1732260D02*
G01X3155471Y-1858469D01*
G01X3155471Y-2224814D01*
G01X4064000Y-1718800D02*
G01X3930171Y-1852629D01*
G01X3930171Y-2224814D01*
G01X2380771Y-1871189D02*
G01X2380771Y-2224814D01*
G01X2527300Y-1724660D02*
G01X2481560Y-1770400D01*
G01X2480069Y-1770400D01*
G01X2438420Y-1812049D01*
G01X2438420Y-1813540D01*
G01X2380771Y-1871189D01*
G01X2814320Y-969112D02*
G01X2945232Y-969112D01*
G01X3004820Y-1028700D01*
G01X-7620Y-657860D02*
G01X-97688Y-657860D01*
G01X-181712Y-657860D02*
G01X-181712Y-628548D01*
G01X-231140Y-579120D01*
G54D11*
G01X187960Y-1323442D02*
G01X137262Y-1374140D01*
G01X78740Y-1374140D01*
G54D47*
G01X192989Y-1234389D02*
G01X12700Y-1054100D01*
G01X749300Y-1460500D02*
G01X472440Y-1460500D01*
G01X246329Y-1234389D01*
G01X192989Y-1234389D01*
G01X457200Y-1346200D02*
G01X248818Y-1137818D01*
G01X248818Y-1079500D01*
G01X144780Y-975462D01*
G01X144780Y-972820D01*
G54D11*
G01X335382Y-1079500D02*
G01X335382Y-997837D01*
G01X304800Y-967256D01*
G54D45*
G01X-1267234Y-2405208D02*
G01X-1269774Y-2407748D01*
G01X-1267234Y-2132652D02*
G01X-1267234Y-2405208D01*
G54D49*
G01X-1027236Y-2407749D02*
G01X-944147Y-2407749D01*
G01X-887536Y-2351137D01*
G01X-887536Y-2182706D01*
G01X-893405Y-2176837D01*
G54D11*
G01X-1267235Y-2407749D02*
G01X-1267235Y-2502745D01*
G54D48*
G01X-1287108Y-2785148D02*
G01X-1287108Y-2961425D01*
G54D49*
G01X-3434872Y1460500D02*
G01X-3436295Y1461922D01*
G54D45*
G01X1775447Y-1876773D02*
G01X1775447Y-1732267D01*
G01X1775447Y-1876773D02*
G01X1775447Y-1926261D01*
G54D49*
G01X646468Y1004468D02*
G01X557213Y1093724D01*
G01X450342Y1200595D01*
G01X-3429792Y1460500D02*
G01X-3436294Y1467001D01*
G01X-4209571Y1540612D02*
G01X-4188083Y1562100D01*
G01X-2660171Y1540612D02*
G01X-2638683Y1562100D01*
G01X-2873908Y1028700D02*
G01X-3004820Y1028700D01*
G01X-3964915Y109195D02*
G01X-3691230Y109195D01*
G01X-3295171Y1527912D02*
G01X-3329360Y1562100D01*
G01X-3290091Y1460500D02*
G01X-3290091Y1522832D01*
G01X-3436294Y1467001D02*
G01X-3436294Y1539696D01*
G01X-4069871Y1527912D02*
G01X-4104060Y1562100D01*
G01X-4064791Y1460500D02*
G01X-4064791Y1522832D01*
G01X-4204491Y1545692D02*
G01X-4188083Y1562100D01*
G01X-4204491Y1460500D02*
G01X-4204491Y1545692D01*
G01X-2520471Y1527912D02*
G01X-2554660Y1562100D01*
G01X-2515391Y1460500D02*
G01X-2515391Y1522832D01*
G01X-2655091Y1545692D02*
G01X-2638683Y1562100D01*
G01X-2655091Y1460500D02*
G01X-2655091Y1545692D01*
G01X-2814320Y969112D02*
G01X-2873908Y1028700D01*
G01X-2999740Y1028700D01*
G01X-3691230Y109195D02*
G01X-3959835Y109195D01*
G04 Track End*

M02*

