G04 Layer: TopPasteMaskLayer*
G04 EasyEDA Pro v2.2.47.7, 2026-04-30 23:08:15*
G04 Gerber Generator version 0.3*
G04 Scale: 100 percent, Rotated: No, Reflected: No*
G04 Dimensions in millimeters*
G04 Leading zeros omitted, absolute positions, 4 integers and 5 decimals*
G04 Generated by one-click*
G04 Object Configs: Pad,Via,Track,Text,Image,Dimension,BoardOutline,BoardCutout,CopperFilled,SolidRegion,FPCStiffener,Line,PlaneZone,ComponentProperty,ComponentSilkscreen,TearDrop*
G04 Layer Configs: 1,15,16,2,3,4,5,6,7,8,9,10,11,13,14,56*
G04 Copper Areas: 0*
%FSLAX45Y45*%
%MOMM*%
%AMPolygonMacro1*4,1,4,-3.2385,-3.302,-3.2385,3.302,3.2385,3.302,3.2385,-3.302,-3.2385,-3.302,0*%
%AMPolygonMacro2*4,1,4,3.2385,3.302,3.2385,-3.302,-3.2385,-3.302,-3.2385,3.302,3.2385,3.302,0*%
%ADD10PolygonMacro1*%
%ADD11PolygonMacro2*%
%ADD12R,0.9X0.8*%
%ADD13R,0.8X0.9*%
%ADD14R,0.54X0.54*%
%ADD15R,6.0044X6.50001*%
%ADD16R,5.99999X6.50001*%
%ADD17R,1.2X2.49999*%
%ADD18O,0.58801X2.045*%
%ADD19R,0.67501X0.28001*%
%ADD20R,0.28001X0.67501*%
%ADD21R,0.4X0.6*%
%ADD22R,0.25001X0.45001*%
%ADD23R,0.45001X0.25001*%
%ADD24R,0.5X0.54*%
%ADD25R,0.54X0.5*%
%ADD26R,0.532X1.07*%
%ADD27R,0.6X1.07*%
%ADD28R,2.95001X2.49999*%
%ADD29R,2.95001X1.0*%
%ADD30O,1.6X0.3*%
%ADD31O,0.3X1.6*%
%ADD32R,1.5X1.1*%
%ADD33R,1.1X1.5*%
G75*


G04 PolygonModel Start*
G36*
G01X-3608619Y576702D02*
G01X-3608619Y496702D01*
G01X-3603617Y491701D01*
G01X-3580821Y491701D01*
G01X-3580821Y528701D01*
G01X-3547821Y528701D01*
G01X-3547821Y491701D01*
G01X-3523618Y491701D01*
G01X-3518619Y496702D01*
G01X-3518619Y576702D01*
G01X-3523618Y581701D01*
G01X-3603617Y581701D01*
G01X-3608619Y576702D01*
G37*
G36*
G01X-3518621Y337698D02*
G01X-3518621Y417698D01*
G01X-3523623Y422699D01*
G01X-3546419Y422699D01*
G01X-3546419Y385699D01*
G01X-3579419Y385699D01*
G01X-3579419Y422699D01*
G01X-3603622Y422699D01*
G01X-3608621Y417698D01*
G01X-3608621Y337698D01*
G01X-3603622Y332699D01*
G01X-3523623Y332699D01*
G01X-3518621Y337698D01*
G37*
G36*
G01X2311330Y1630802D02*
G01X2311330Y1550802D01*
G01X2316331Y1545801D01*
G01X2339128Y1545801D01*
G01X2339128Y1582801D01*
G01X2372128Y1582801D01*
G01X2372128Y1545801D01*
G01X2396331Y1545801D01*
G01X2401330Y1550802D01*
G01X2401330Y1630802D01*
G01X2396331Y1635801D01*
G01X2316331Y1635801D01*
G01X2311330Y1630802D01*
G37*
G36*
G01X2401327Y1391798D02*
G01X2401327Y1471798D01*
G01X2396326Y1476799D01*
G01X2373530Y1476799D01*
G01X2373530Y1439799D01*
G01X2340530Y1439799D01*
G01X2340530Y1476799D01*
G01X2316326Y1476799D01*
G01X2311328Y1471798D01*
G01X2311328Y1391798D01*
G01X2316326Y1386799D01*
G01X2396326Y1386799D01*
G01X2401327Y1391798D01*
G37*
G36*
G01X-3683070Y1630802D02*
G01X-3683070Y1550802D01*
G01X-3678069Y1545801D01*
G01X-3655272Y1545801D01*
G01X-3655272Y1582801D01*
G01X-3622272Y1582801D01*
G01X-3622272Y1545801D01*
G01X-3598069Y1545801D01*
G01X-3593070Y1550802D01*
G01X-3593070Y1630802D01*
G01X-3598069Y1635801D01*
G01X-3678069Y1635801D01*
G01X-3683070Y1630802D01*
G37*
G36*
G01X-3593073Y1391798D02*
G01X-3593073Y1471798D01*
G01X-3598074Y1476799D01*
G01X-3620870Y1476799D01*
G01X-3620870Y1439799D01*
G01X-3653870Y1439799D01*
G01X-3653870Y1476799D01*
G01X-3678074Y1476799D01*
G01X-3683072Y1471798D01*
G01X-3683072Y1391798D01*
G01X-3678074Y1386799D01*
G01X-3598074Y1386799D01*
G01X-3593073Y1391798D01*
G37*
G36*
G01X-2908370Y1630802D02*
G01X-2908370Y1550802D01*
G01X-2903369Y1545801D01*
G01X-2880572Y1545801D01*
G01X-2880572Y1582801D01*
G01X-2847572Y1582801D01*
G01X-2847572Y1545801D01*
G01X-2823369Y1545801D01*
G01X-2818370Y1550802D01*
G01X-2818370Y1630802D01*
G01X-2823369Y1635801D01*
G01X-2903369Y1635801D01*
G01X-2908370Y1630802D01*
G37*
G36*
G01X-2818373Y1391798D02*
G01X-2818373Y1471798D01*
G01X-2823374Y1476799D01*
G01X-2846170Y1476799D01*
G01X-2846170Y1439799D01*
G01X-2879170Y1439799D01*
G01X-2879170Y1476799D01*
G01X-2903374Y1476799D01*
G01X-2908372Y1471798D01*
G01X-2908372Y1391798D01*
G01X-2903374Y1386799D01*
G01X-2823374Y1386799D01*
G01X-2818373Y1391798D01*
G37*
G36*
G01X-4457770Y1630802D02*
G01X-4457770Y1550802D01*
G01X-4452769Y1545801D01*
G01X-4429972Y1545801D01*
G01X-4429972Y1582801D01*
G01X-4396972Y1582801D01*
G01X-4396972Y1545801D01*
G01X-4372769Y1545801D01*
G01X-4367770Y1550802D01*
G01X-4367770Y1630802D01*
G01X-4372769Y1635801D01*
G01X-4452769Y1635801D01*
G01X-4457770Y1630802D01*
G37*
G36*
G01X-4367773Y1391798D02*
G01X-4367773Y1471798D01*
G01X-4372774Y1476799D01*
G01X-4395570Y1476799D01*
G01X-4395570Y1439799D01*
G01X-4428570Y1439799D01*
G01X-4428570Y1476799D01*
G01X-4452774Y1476799D01*
G01X-4457772Y1471798D01*
G01X-4457772Y1391798D01*
G01X-4452774Y1386799D01*
G01X-4372774Y1386799D01*
G01X-4367773Y1391798D01*
G37*
G36*
G01X3608619Y-576702D02*
G01X3608619Y-496702D01*
G01X3603617Y-491701D01*
G01X3580821Y-491701D01*
G01X3580821Y-528701D01*
G01X3547821Y-528701D01*
G01X3547821Y-491701D01*
G01X3523618Y-491701D01*
G01X3518619Y-496702D01*
G01X3518619Y-576702D01*
G01X3523618Y-581701D01*
G01X3603617Y-581701D01*
G01X3608619Y-576702D01*
G37*
G36*
G01X3518621Y-337698D02*
G01X3518621Y-417698D01*
G01X3523623Y-422699D01*
G01X3546419Y-422699D01*
G01X3546419Y-385699D01*
G01X3579419Y-385699D01*
G01X3579419Y-422699D01*
G01X3603622Y-422699D01*
G01X3608621Y-417698D01*
G01X3608621Y-337698D01*
G01X3603622Y-332699D01*
G01X3523623Y-332699D01*
G01X3518621Y-337698D01*
G37*
G36*
G01X3160481Y576702D02*
G01X3160481Y496702D01*
G01X3165483Y491701D01*
G01X3188279Y491701D01*
G01X3188279Y528701D01*
G01X3221279Y528701D01*
G01X3221279Y491701D01*
G01X3245482Y491701D01*
G01X3250481Y496702D01*
G01X3250481Y576702D01*
G01X3245482Y581701D01*
G01X3165483Y581701D01*
G01X3160481Y576702D01*
G37*
G36*
G01X3250479Y337698D02*
G01X3250479Y417698D01*
G01X3245477Y422699D01*
G01X3222681Y422699D01*
G01X3222681Y385699D01*
G01X3189681Y385699D01*
G01X3189681Y422699D01*
G01X3165478Y422699D01*
G01X3160479Y417698D01*
G01X3160479Y337698D01*
G01X3165478Y332699D01*
G01X3245477Y332699D01*
G01X3250479Y337698D01*
G37*
G36*
G01X3086030Y1630802D02*
G01X3086030Y1550802D01*
G01X3091031Y1545801D01*
G01X3113828Y1545801D01*
G01X3113828Y1582801D01*
G01X3146828Y1582801D01*
G01X3146828Y1545801D01*
G01X3171031Y1545801D01*
G01X3176030Y1550802D01*
G01X3176030Y1630802D01*
G01X3171031Y1635801D01*
G01X3091031Y1635801D01*
G01X3086030Y1630802D01*
G37*
G36*
G01X3176027Y1391798D02*
G01X3176027Y1471798D01*
G01X3171026Y1476799D01*
G01X3148230Y1476799D01*
G01X3148230Y1439799D01*
G01X3115230Y1439799D01*
G01X3115230Y1476799D01*
G01X3091026Y1476799D01*
G01X3086028Y1471798D01*
G01X3086028Y1391798D01*
G01X3091026Y1386799D01*
G01X3171026Y1386799D01*
G01X3176027Y1391798D01*
G37*
G36*
G01X3860730Y1630802D02*
G01X3860730Y1550802D01*
G01X3865731Y1545801D01*
G01X3888528Y1545801D01*
G01X3888528Y1582801D01*
G01X3921528Y1582801D01*
G01X3921528Y1545801D01*
G01X3945731Y1545801D01*
G01X3950730Y1550802D01*
G01X3950730Y1630802D01*
G01X3945731Y1635801D01*
G01X3865731Y1635801D01*
G01X3860730Y1630802D01*
G37*
G36*
G01X3950727Y1391798D02*
G01X3950727Y1471798D01*
G01X3945726Y1476799D01*
G01X3922930Y1476799D01*
G01X3922930Y1439799D01*
G01X3889930Y1439799D01*
G01X3889930Y1476799D01*
G01X3865726Y1476799D01*
G01X3860728Y1471798D01*
G01X3860728Y1391798D01*
G01X3865726Y1386799D01*
G01X3945726Y1386799D01*
G01X3950727Y1391798D01*
G37*
G36*
G01X3683070Y-1630802D02*
G01X3683070Y-1550802D01*
G01X3678069Y-1545801D01*
G01X3655272Y-1545801D01*
G01X3655272Y-1582801D01*
G01X3622272Y-1582801D01*
G01X3622272Y-1545801D01*
G01X3598069Y-1545801D01*
G01X3593070Y-1550802D01*
G01X3593070Y-1630802D01*
G01X3598069Y-1635801D01*
G01X3678069Y-1635801D01*
G01X3683070Y-1630802D01*
G37*
G36*
G01X3593073Y-1391798D02*
G01X3593073Y-1471798D01*
G01X3598074Y-1476799D01*
G01X3620870Y-1476799D01*
G01X3620870Y-1439799D01*
G01X3653870Y-1439799D01*
G01X3653870Y-1476799D01*
G01X3678074Y-1476799D01*
G01X3683072Y-1471798D01*
G01X3683072Y-1391798D01*
G01X3678074Y-1386799D01*
G01X3598074Y-1386799D01*
G01X3593073Y-1391798D01*
G37*
G36*
G01X2908370Y-1630802D02*
G01X2908370Y-1550802D01*
G01X2903369Y-1545801D01*
G01X2880572Y-1545801D01*
G01X2880572Y-1582801D01*
G01X2847572Y-1582801D01*
G01X2847572Y-1545801D01*
G01X2823369Y-1545801D01*
G01X2818370Y-1550802D01*
G01X2818370Y-1630802D01*
G01X2823369Y-1635801D01*
G01X2903369Y-1635801D01*
G01X2908370Y-1630802D01*
G37*
G36*
G01X2818373Y-1391798D02*
G01X2818373Y-1471798D01*
G01X2823374Y-1476799D01*
G01X2846170Y-1476799D01*
G01X2846170Y-1439799D01*
G01X2879170Y-1439799D01*
G01X2879170Y-1476799D01*
G01X2903374Y-1476799D01*
G01X2908372Y-1471798D01*
G01X2908372Y-1391798D01*
G01X2903374Y-1386799D01*
G01X2823374Y-1386799D01*
G01X2818373Y-1391798D01*
G37*
G36*
G01X4457770Y-1630802D02*
G01X4457770Y-1550802D01*
G01X4452769Y-1545801D01*
G01X4429972Y-1545801D01*
G01X4429972Y-1582801D01*
G01X4396972Y-1582801D01*
G01X4396972Y-1545801D01*
G01X4372769Y-1545801D01*
G01X4367770Y-1550802D01*
G01X4367770Y-1630802D01*
G01X4372769Y-1635801D01*
G01X4452769Y-1635801D01*
G01X4457770Y-1630802D01*
G37*
G36*
G01X4367773Y-1391798D02*
G01X4367773Y-1471798D01*
G01X4372774Y-1476799D01*
G01X4395570Y-1476799D01*
G01X4395570Y-1439799D01*
G01X4428570Y-1439799D01*
G01X4428570Y-1476799D01*
G01X4452774Y-1476799D01*
G01X4457772Y-1471798D01*
G01X4457772Y-1391798D01*
G01X4452774Y-1386799D01*
G01X4372774Y-1386799D01*
G01X4367773Y-1391798D01*
G37*
G36*
G01X-3160573Y-576194D02*
G01X-3160573Y-496194D01*
G01X-3165575Y-491193D01*
G01X-3188371Y-491193D01*
G01X-3188371Y-528193D01*
G01X-3221371Y-528193D01*
G01X-3221371Y-491193D01*
G01X-3245574Y-491193D01*
G01X-3250573Y-496194D01*
G01X-3250573Y-576194D01*
G01X-3245574Y-581193D01*
G01X-3165575Y-581193D01*
G01X-3160573Y-576194D01*
G37*
G36*
G01X-3250571Y-337190D02*
G01X-3250571Y-417190D01*
G01X-3245569Y-422191D01*
G01X-3222773Y-422191D01*
G01X-3222773Y-385191D01*
G01X-3189773Y-385191D01*
G01X-3189773Y-422191D01*
G01X-3165569Y-422191D01*
G01X-3160571Y-417190D01*
G01X-3160571Y-337190D01*
G01X-3165569Y-332192D01*
G01X-3245569Y-332192D01*
G01X-3250571Y-337190D01*
G37*
G36*
G01X-3086122Y-1630294D02*
G01X-3086122Y-1550294D01*
G01X-3091123Y-1545293D01*
G01X-3113920Y-1545293D01*
G01X-3113920Y-1582293D01*
G01X-3146920Y-1582293D01*
G01X-3146920Y-1545293D01*
G01X-3171123Y-1545293D01*
G01X-3176122Y-1550294D01*
G01X-3176122Y-1630294D01*
G01X-3171123Y-1635293D01*
G01X-3091123Y-1635293D01*
G01X-3086122Y-1630294D01*
G37*
G36*
G01X-3176119Y-1391290D02*
G01X-3176119Y-1471290D01*
G01X-3171118Y-1476291D01*
G01X-3148322Y-1476291D01*
G01X-3148322Y-1439291D01*
G01X-3115322Y-1439291D01*
G01X-3115322Y-1476291D01*
G01X-3091118Y-1476291D01*
G01X-3086120Y-1471290D01*
G01X-3086120Y-1391290D01*
G01X-3091118Y-1386292D01*
G01X-3171118Y-1386292D01*
G01X-3176119Y-1391290D01*
G37*
G36*
G01X-3860822Y-1630294D02*
G01X-3860822Y-1550294D01*
G01X-3865823Y-1545293D01*
G01X-3888620Y-1545293D01*
G01X-3888620Y-1582293D01*
G01X-3921620Y-1582293D01*
G01X-3921620Y-1545293D01*
G01X-3945823Y-1545293D01*
G01X-3950822Y-1550294D01*
G01X-3950822Y-1630294D01*
G01X-3945823Y-1635293D01*
G01X-3865823Y-1635293D01*
G01X-3860822Y-1630294D01*
G37*
G36*
G01X-3950819Y-1391290D02*
G01X-3950819Y-1471290D01*
G01X-3945818Y-1476291D01*
G01X-3923022Y-1476291D01*
G01X-3923022Y-1439291D01*
G01X-3890022Y-1439291D01*
G01X-3890022Y-1476291D01*
G01X-3865818Y-1476291D01*
G01X-3860820Y-1471290D01*
G01X-3860820Y-1391290D01*
G01X-3865818Y-1386292D01*
G01X-3945818Y-1386292D01*
G01X-3950819Y-1391290D01*
G37*
G36*
G01X-2311422Y-1630294D02*
G01X-2311422Y-1550294D01*
G01X-2316423Y-1545293D01*
G01X-2339220Y-1545293D01*
G01X-2339220Y-1582293D01*
G01X-2372220Y-1582293D01*
G01X-2372220Y-1545293D01*
G01X-2396423Y-1545293D01*
G01X-2401422Y-1550294D01*
G01X-2401422Y-1630294D01*
G01X-2396423Y-1635293D01*
G01X-2316423Y-1635293D01*
G01X-2311422Y-1630294D01*
G37*
G36*
G01X-2401419Y-1391290D02*
G01X-2401419Y-1471290D01*
G01X-2396418Y-1476291D01*
G01X-2373622Y-1476291D01*
G01X-2373622Y-1439291D01*
G01X-2340622Y-1439291D01*
G01X-2340622Y-1476291D01*
G01X-2316418Y-1476291D01*
G01X-2311420Y-1471290D01*
G01X-2311420Y-1391290D01*
G01X-2316418Y-1386292D01*
G01X-2396418Y-1386292D01*
G01X-2401419Y-1391290D01*
G37*
G36*
G01X3103080Y99200D02*
G01X3103080Y53200D01*
G01X3099079Y49200D01*
G01X3049016Y49200D01*
G01X3045016Y53200D01*
G01X3045016Y99200D01*
G01X3049016Y103200D01*
G01X3099079Y103200D01*
G01X3103080Y99200D01*
G37*
G36*
G01X3130080Y99200D02*
G01X3130080Y53200D01*
G01X3134081Y49200D01*
G01X3184144Y49200D01*
G01X3188145Y53200D01*
G01X3188145Y99200D01*
G01X3184144Y103200D01*
G01X3134081Y103200D01*
G01X3130080Y99200D01*
G37*
G36*
G01X1427602Y-2126701D02*
G01X1347602Y-2126701D01*
G01X1342601Y-2131703D01*
G01X1342601Y-2154499D01*
G01X1379601Y-2154499D01*
G01X1379601Y-2187499D01*
G01X1342601Y-2187499D01*
G01X1342601Y-2211702D01*
G01X1347602Y-2216701D01*
G01X1427602Y-2216701D01*
G01X1432601Y-2211702D01*
G01X1432601Y-2131703D01*
G01X1427602Y-2126701D01*
G37*
G36*
G01X1188598Y-2216699D02*
G01X1268598Y-2216699D01*
G01X1273599Y-2211697D01*
G01X1273599Y-2188901D01*
G01X1236599Y-2188901D01*
G01X1236599Y-2155901D01*
G01X1273599Y-2155901D01*
G01X1273599Y-2131698D01*
G01X1268598Y-2126699D01*
G01X1188598Y-2126699D01*
G01X1183599Y-2131698D01*
G01X1183599Y-2211697D01*
G01X1188598Y-2216699D01*
G37*
G36*
G01X416700Y267500D02*
G01X370700Y267500D01*
G01X366700Y271501D01*
G01X366700Y321564D01*
G01X370700Y325565D01*
G01X416700Y325565D01*
G01X420700Y321564D01*
G01X420700Y271501D01*
G01X416700Y267500D01*
G37*
G36*
G01X416700Y240500D02*
G01X370700Y240500D01*
G01X366700Y236499D01*
G01X366700Y186436D01*
G01X370700Y182436D01*
G01X416700Y182436D01*
G01X420700Y186436D01*
G01X420700Y236499D01*
G01X416700Y240500D01*
G37*
G36*
G01X289700Y267500D02*
G01X243700Y267500D01*
G01X239700Y271501D01*
G01X239700Y321564D01*
G01X243700Y325565D01*
G01X289700Y325565D01*
G01X293700Y321564D01*
G01X293700Y271501D01*
G01X289700Y267500D01*
G37*
G36*
G01X289700Y240500D02*
G01X243700Y240500D01*
G01X239700Y236499D01*
G01X239700Y186436D01*
G01X243700Y182436D01*
G01X289700Y182436D01*
G01X293700Y186436D01*
G01X293700Y236499D01*
G01X289700Y240500D01*
G37*
G36*
G01X1021598Y-2500191D02*
G01X1021598Y-2630193D01*
G01X1051596Y-2630193D01*
G01X1051598Y-2630193D01*
G01X1081596Y-2630193D01*
G01X1081596Y-2500191D01*
G01X1051598Y-2500191D01*
G01X1051596Y-2500191D01*
G01X1021598Y-2500191D01*
G37*
G36*
G01X1411592Y-2630193D02*
G01X1411592Y-2500191D01*
G01X1381592Y-2500191D01*
G01X1381592Y-2630193D01*
G01X1411592Y-2630193D01*
G37*
G36*
G01X1311593Y-2630193D02*
G01X1311593Y-2500191D01*
G01X1281593Y-2500191D01*
G01X1281593Y-2630193D01*
G01X1311593Y-2630193D01*
G37*
G36*
G01X1161606Y-2630193D02*
G01X1161606Y-2500191D01*
G01X1131608Y-2500191D01*
G01X1131606Y-2500191D01*
G01X1101608Y-2500191D01*
G01X1101608Y-2630193D01*
G01X1131606Y-2630193D01*
G01X1131608Y-2630193D01*
G01X1161606Y-2630193D01*
G37*
G36*
G01X1231605Y-2500193D02*
G01X1231605Y-2630195D01*
G01X1261605Y-2630195D01*
G01X1261605Y-2500193D01*
G01X1231605Y-2500193D01*
G37*
G36*
G01X1721599Y-2630195D02*
G01X1721599Y-2500193D01*
G01X1691602Y-2500193D01*
G01X1691599Y-2500193D01*
G01X1661602Y-2500193D01*
G01X1661602Y-2630195D01*
G01X1691599Y-2630195D01*
G01X1691602Y-2630195D01*
G01X1721599Y-2630195D01*
G37*
G36*
G01X1331605Y-2500193D02*
G01X1331605Y-2630195D01*
G01X1361605Y-2630195D01*
G01X1361605Y-2500193D01*
G01X1331605Y-2500193D01*
G37*
G36*
G01X1561605Y-2630195D02*
G01X1561605Y-2500193D01*
G01X1531605Y-2500193D01*
G01X1531605Y-2630195D01*
G01X1561605Y-2630195D01*
G37*
G36*
G01X1431605Y-2500193D02*
G01X1431605Y-2630195D01*
G01X1461605Y-2630195D01*
G01X1461605Y-2500193D01*
G01X1431605Y-2500193D01*
G37*
G36*
G01X1511567Y-2630198D02*
G01X1511567Y-2500196D01*
G01X1481567Y-2500196D01*
G01X1481567Y-2630198D01*
G01X1511567Y-2630198D01*
G37*
G36*
G01X1211593Y-2630198D02*
G01X1211593Y-2500196D01*
G01X1181593Y-2500196D01*
G01X1181593Y-2630198D01*
G01X1211593Y-2630198D01*
G37*
G36*
G01X1641620Y-2630221D02*
G01X1641620Y-2500219D01*
G01X1611622Y-2500219D01*
G01X1611620Y-2500219D01*
G01X1581622Y-2500219D01*
G01X1581622Y-2630221D01*
G01X1611620Y-2630221D01*
G01X1611622Y-2630221D01*
G01X1641620Y-2630221D01*
G37*
G36*
G01X943333Y-2530338D02*
G01X940844Y-2530213D01*
G01X938350Y-2530213D01*
G01X935860Y-2530338D01*
G01X933379Y-2530587D01*
G01X930915Y-2530958D01*
G01X928472Y-2531453D01*
G01X926056Y-2532068D01*
G01X923674Y-2532802D01*
G01X921329Y-2533655D01*
G01X919033Y-2534623D01*
G01X916785Y-2535705D01*
G01X914598Y-2536896D01*
G01X912470Y-2538197D01*
G01X910410Y-2539601D01*
G01X908423Y-2541107D01*
G01X906513Y-2542710D01*
G01X904685Y-2544404D01*
G01X902945Y-2546190D01*
G01X901294Y-2548059D01*
G01X899739Y-2550008D01*
G01X898284Y-2552032D01*
G01X896932Y-2554127D01*
G01X895685Y-2556286D01*
G01X894547Y-2558504D01*
G01X893524Y-2560777D01*
G01X892612Y-2563096D01*
G01X891819Y-2565461D01*
G01X891144Y-2567861D01*
G01X890588Y-2570289D01*
G01X890156Y-2572746D01*
G01X889846Y-2575220D01*
G01X889658Y-2577706D01*
G01X889597Y-2580198D01*
G01X889597Y-2680198D01*
G01X889658Y-2682690D01*
G01X889846Y-2685176D01*
G01X890156Y-2687650D01*
G01X890588Y-2690106D01*
G01X891144Y-2692535D01*
G01X891819Y-2694935D01*
G01X892612Y-2697300D01*
G01X893524Y-2699619D01*
G01X894547Y-2701892D01*
G01X895685Y-2704109D01*
G01X896932Y-2706268D01*
G01X898284Y-2708364D01*
G01X899739Y-2710388D01*
G01X901294Y-2712336D01*
G01X902945Y-2714206D01*
G01X904685Y-2715992D01*
G01X906513Y-2717686D01*
G01X908423Y-2719288D01*
G01X910410Y-2720795D01*
G01X912470Y-2722199D01*
G01X914598Y-2723500D01*
G01X916785Y-2724691D01*
G01X919033Y-2725773D01*
G01X921329Y-2726741D01*
G01X923674Y-2727594D01*
G01X926056Y-2728328D01*
G01X928472Y-2728943D01*
G01X930915Y-2729438D01*
G01X933379Y-2729809D01*
G01X935860Y-2730058D01*
G01X938350Y-2730182D01*
G01X940844Y-2730182D01*
G01X943333Y-2730058D01*
G01X945815Y-2729809D01*
G01X948279Y-2729438D01*
G01X950722Y-2728943D01*
G01X953138Y-2728328D01*
G01X955520Y-2727594D01*
G01X957864Y-2726741D01*
G01X960161Y-2725773D01*
G01X962409Y-2724691D01*
G01X964598Y-2723500D01*
G01X966724Y-2722199D01*
G01X968784Y-2720795D01*
G01X970770Y-2719288D01*
G01X972680Y-2717686D01*
G01X974509Y-2715992D01*
G01X976249Y-2714206D01*
G01X977900Y-2712336D01*
G01X979454Y-2710388D01*
G01X980910Y-2708364D01*
G01X982261Y-2706268D01*
G01X983508Y-2704109D01*
G01X984646Y-2701892D01*
G01X985670Y-2699619D01*
G01X986582Y-2697300D01*
G01X987374Y-2694935D01*
G01X988050Y-2692535D01*
G01X988606Y-2690106D01*
G01X989038Y-2687650D01*
G01X989348Y-2685176D01*
G01X989536Y-2682690D01*
G01X989597Y-2680198D01*
G01X989597Y-2580198D01*
G01X989536Y-2577706D01*
G01X989348Y-2575220D01*
G01X989038Y-2572746D01*
G01X988606Y-2570289D01*
G01X988050Y-2567861D01*
G01X987374Y-2565461D01*
G01X986582Y-2563096D01*
G01X985670Y-2560777D01*
G01X984646Y-2558504D01*
G01X983508Y-2556286D01*
G01X982261Y-2554127D01*
G01X980910Y-2552032D01*
G01X979454Y-2550008D01*
G01X977900Y-2548059D01*
G01X976249Y-2546190D01*
G01X974509Y-2544404D01*
G01X972680Y-2542710D01*
G01X970770Y-2541107D01*
G01X968784Y-2539601D01*
G01X966724Y-2538197D01*
G01X964598Y-2536896D01*
G01X962409Y-2535705D01*
G01X960161Y-2534623D01*
G01X957864Y-2533655D01*
G01X955520Y-2532802D01*
G01X953138Y-2532068D01*
G01X950722Y-2531453D01*
G01X948279Y-2530958D01*
G01X945815Y-2530587D01*
G01X943333Y-2530338D01*
G37*
G36*
G01X1807340Y-2530338D02*
G01X1804850Y-2530213D01*
G01X1802356Y-2530213D01*
G01X1799867Y-2530338D01*
G01X1797385Y-2530587D01*
G01X1794921Y-2530958D01*
G01X1792478Y-2531453D01*
G01X1790062Y-2532068D01*
G01X1787680Y-2532802D01*
G01X1785336Y-2533655D01*
G01X1783039Y-2534623D01*
G01X1780791Y-2535705D01*
G01X1778605Y-2536896D01*
G01X1776476Y-2538197D01*
G01X1774416Y-2539601D01*
G01X1772430Y-2541107D01*
G01X1770520Y-2542710D01*
G01X1768691Y-2544404D01*
G01X1766951Y-2546190D01*
G01X1765300Y-2548059D01*
G01X1763746Y-2550008D01*
G01X1762290Y-2552032D01*
G01X1760939Y-2554127D01*
G01X1759692Y-2556286D01*
G01X1758554Y-2558504D01*
G01X1757530Y-2560777D01*
G01X1756618Y-2563096D01*
G01X1755826Y-2565461D01*
G01X1755150Y-2567861D01*
G01X1754594Y-2570289D01*
G01X1754162Y-2572746D01*
G01X1753852Y-2575220D01*
G01X1753664Y-2577706D01*
G01X1753603Y-2580198D01*
G01X1753603Y-2680198D01*
G01X1753664Y-2682690D01*
G01X1753852Y-2685176D01*
G01X1754162Y-2687650D01*
G01X1754594Y-2690106D01*
G01X1755150Y-2692535D01*
G01X1755826Y-2694935D01*
G01X1756618Y-2697300D01*
G01X1757530Y-2699619D01*
G01X1758554Y-2701892D01*
G01X1759692Y-2704109D01*
G01X1760939Y-2706268D01*
G01X1762290Y-2708364D01*
G01X1763746Y-2710388D01*
G01X1765300Y-2712336D01*
G01X1766951Y-2714206D01*
G01X1768691Y-2715992D01*
G01X1770520Y-2717686D01*
G01X1772430Y-2719288D01*
G01X1774416Y-2720795D01*
G01X1776476Y-2722199D01*
G01X1778605Y-2723500D01*
G01X1780791Y-2724691D01*
G01X1783039Y-2725773D01*
G01X1785336Y-2726741D01*
G01X1787680Y-2727594D01*
G01X1790062Y-2728328D01*
G01X1792478Y-2728943D01*
G01X1794921Y-2729438D01*
G01X1797385Y-2729809D01*
G01X1799867Y-2730058D01*
G01X1802356Y-2730182D01*
G01X1804850Y-2730182D01*
G01X1807340Y-2730058D01*
G01X1809821Y-2729809D01*
G01X1812285Y-2729438D01*
G01X1814728Y-2728943D01*
G01X1817144Y-2728328D01*
G01X1819526Y-2727594D01*
G01X1821871Y-2726741D01*
G01X1824167Y-2725773D01*
G01X1826415Y-2724691D01*
G01X1828604Y-2723500D01*
G01X1830730Y-2722199D01*
G01X1832790Y-2720795D01*
G01X1834777Y-2719288D01*
G01X1836687Y-2717686D01*
G01X1838516Y-2715992D01*
G01X1840255Y-2714206D01*
G01X1841906Y-2712336D01*
G01X1843461Y-2710388D01*
G01X1844916Y-2708364D01*
G01X1846268Y-2706268D01*
G01X1847515Y-2704109D01*
G01X1848653Y-2701892D01*
G01X1849676Y-2699619D01*
G01X1850588Y-2697300D01*
G01X1851381Y-2694935D01*
G01X1852056Y-2692535D01*
G01X1852613Y-2690106D01*
G01X1853044Y-2687650D01*
G01X1853354Y-2685176D01*
G01X1853542Y-2682690D01*
G01X1853603Y-2680198D01*
G01X1853603Y-2580198D01*
G01X1853542Y-2577706D01*
G01X1853354Y-2575220D01*
G01X1853044Y-2572746D01*
G01X1852613Y-2570289D01*
G01X1852056Y-2567861D01*
G01X1851381Y-2565461D01*
G01X1850588Y-2563096D01*
G01X1849676Y-2560777D01*
G01X1848653Y-2558504D01*
G01X1847515Y-2556286D01*
G01X1846268Y-2554127D01*
G01X1844916Y-2552032D01*
G01X1843461Y-2550008D01*
G01X1841906Y-2548059D01*
G01X1840255Y-2546190D01*
G01X1838516Y-2544404D01*
G01X1836687Y-2542710D01*
G01X1834777Y-2541107D01*
G01X1832790Y-2539601D01*
G01X1830730Y-2538197D01*
G01X1828604Y-2536896D01*
G01X1826415Y-2535705D01*
G01X1824167Y-2534623D01*
G01X1821871Y-2533655D01*
G01X1819526Y-2532802D01*
G01X1817144Y-2532068D01*
G01X1814728Y-2531453D01*
G01X1812285Y-2530958D01*
G01X1809821Y-2530587D01*
G01X1807340Y-2530338D01*
G37*
G36*
G01X943333Y-2958346D02*
G01X940844Y-2958221D01*
G01X938350Y-2958221D01*
G01X935860Y-2958346D01*
G01X933379Y-2958595D01*
G01X930915Y-2958965D01*
G01X928472Y-2959461D01*
G01X926056Y-2960075D01*
G01X923674Y-2960809D01*
G01X921329Y-2961663D01*
G01X919033Y-2962631D01*
G01X916785Y-2963713D01*
G01X914598Y-2964904D01*
G01X912470Y-2966204D01*
G01X910410Y-2967609D01*
G01X908423Y-2969115D01*
G01X906513Y-2970718D01*
G01X904685Y-2972412D01*
G01X902945Y-2974198D01*
G01X901294Y-2976067D01*
G01X899739Y-2978015D01*
G01X898284Y-2980040D01*
G01X896932Y-2982135D01*
G01X895685Y-2984294D01*
G01X894547Y-2986512D01*
G01X893524Y-2988785D01*
G01X892612Y-2991104D01*
G01X891819Y-2993469D01*
G01X891144Y-2995869D01*
G01X890588Y-2998297D01*
G01X890156Y-3000753D01*
G01X889846Y-3003227D01*
G01X889658Y-3005714D01*
G01X889597Y-3008206D01*
G01X889597Y-3088206D01*
G01X889658Y-3090697D01*
G01X889846Y-3093184D01*
G01X890156Y-3095658D01*
G01X890588Y-3098114D01*
G01X891144Y-3100542D01*
G01X891819Y-3102943D01*
G01X892612Y-3105307D01*
G01X893524Y-3107626D01*
G01X894547Y-3109900D01*
G01X895685Y-3112117D01*
G01X896932Y-3114276D01*
G01X898284Y-3116372D01*
G01X899739Y-3118396D01*
G01X901294Y-3120344D01*
G01X902945Y-3122214D01*
G01X904685Y-3123999D01*
G01X906513Y-3125694D01*
G01X908423Y-3127296D01*
G01X910410Y-3128802D01*
G01X912470Y-3130207D01*
G01X914598Y-3131508D01*
G01X916785Y-3132699D01*
G01X919033Y-3133781D01*
G01X921329Y-3134749D01*
G01X923674Y-3135602D01*
G01X926056Y-3136336D01*
G01X928472Y-3136951D01*
G01X930915Y-3137446D01*
G01X933379Y-3137817D01*
G01X935860Y-3138066D01*
G01X938350Y-3138190D01*
G01X940844Y-3138190D01*
G01X943333Y-3138066D01*
G01X945815Y-3137817D01*
G01X948279Y-3137446D01*
G01X950722Y-3136951D01*
G01X953138Y-3136336D01*
G01X955520Y-3135602D01*
G01X957864Y-3134749D01*
G01X960161Y-3133781D01*
G01X962409Y-3132699D01*
G01X964598Y-3131508D01*
G01X966724Y-3130207D01*
G01X968784Y-3128802D01*
G01X970770Y-3127296D01*
G01X972680Y-3125694D01*
G01X974509Y-3123999D01*
G01X976249Y-3122214D01*
G01X977900Y-3120344D01*
G01X979454Y-3118396D01*
G01X980910Y-3116372D01*
G01X982261Y-3114276D01*
G01X983508Y-3112117D01*
G01X984646Y-3109900D01*
G01X985670Y-3107626D01*
G01X986582Y-3105307D01*
G01X987374Y-3102943D01*
G01X988050Y-3100542D01*
G01X988606Y-3098114D01*
G01X989038Y-3095658D01*
G01X989348Y-3093184D01*
G01X989536Y-3090697D01*
G01X989597Y-3088206D01*
G01X989597Y-3008206D01*
G01X989536Y-3005714D01*
G01X989348Y-3003227D01*
G01X989038Y-3000753D01*
G01X988606Y-2998297D01*
G01X988050Y-2995869D01*
G01X987374Y-2993469D01*
G01X986582Y-2991104D01*
G01X985670Y-2988785D01*
G01X984646Y-2986512D01*
G01X983508Y-2984294D01*
G01X982261Y-2982135D01*
G01X980910Y-2980040D01*
G01X979454Y-2978015D01*
G01X977900Y-2976067D01*
G01X976249Y-2974198D01*
G01X974509Y-2972412D01*
G01X972680Y-2970718D01*
G01X970770Y-2969115D01*
G01X968784Y-2967609D01*
G01X966724Y-2966204D01*
G01X964598Y-2964904D01*
G01X962409Y-2963713D01*
G01X960161Y-2962631D01*
G01X957864Y-2961663D01*
G01X955520Y-2960809D01*
G01X953138Y-2960075D01*
G01X950722Y-2959461D01*
G01X948279Y-2958965D01*
G01X945815Y-2958595D01*
G01X943333Y-2958346D01*
G37*
G36*
G01X1807340Y-2958346D02*
G01X1804850Y-2958221D01*
G01X1802356Y-2958221D01*
G01X1799867Y-2958346D01*
G01X1797385Y-2958595D01*
G01X1794921Y-2958965D01*
G01X1792478Y-2959461D01*
G01X1790062Y-2960075D01*
G01X1787680Y-2960809D01*
G01X1785336Y-2961663D01*
G01X1783039Y-2962631D01*
G01X1780791Y-2963713D01*
G01X1778605Y-2964904D01*
G01X1776476Y-2966204D01*
G01X1774416Y-2967609D01*
G01X1772430Y-2969115D01*
G01X1770520Y-2970718D01*
G01X1768691Y-2972412D01*
G01X1766951Y-2974198D01*
G01X1765300Y-2976067D01*
G01X1763746Y-2978015D01*
G01X1762290Y-2980040D01*
G01X1760939Y-2982135D01*
G01X1759692Y-2984294D01*
G01X1758554Y-2986512D01*
G01X1757530Y-2988785D01*
G01X1756618Y-2991104D01*
G01X1755826Y-2993469D01*
G01X1755150Y-2995869D01*
G01X1754594Y-2998297D01*
G01X1754162Y-3000753D01*
G01X1753852Y-3003227D01*
G01X1753664Y-3005714D01*
G01X1753603Y-3008206D01*
G01X1753603Y-3088206D01*
G01X1753664Y-3090697D01*
G01X1753852Y-3093184D01*
G01X1754162Y-3095658D01*
G01X1754594Y-3098114D01*
G01X1755150Y-3100542D01*
G01X1755826Y-3102943D01*
G01X1756618Y-3105307D01*
G01X1757530Y-3107626D01*
G01X1758554Y-3109900D01*
G01X1759692Y-3112117D01*
G01X1760939Y-3114276D01*
G01X1762290Y-3116372D01*
G01X1763746Y-3118396D01*
G01X1765300Y-3120344D01*
G01X1766951Y-3122214D01*
G01X1768691Y-3123999D01*
G01X1770520Y-3125694D01*
G01X1772430Y-3127296D01*
G01X1774416Y-3128802D01*
G01X1776476Y-3130207D01*
G01X1778605Y-3131508D01*
G01X1780791Y-3132699D01*
G01X1783039Y-3133781D01*
G01X1785336Y-3134749D01*
G01X1787680Y-3135602D01*
G01X1790062Y-3136336D01*
G01X1792478Y-3136951D01*
G01X1794921Y-3137446D01*
G01X1797385Y-3137817D01*
G01X1799867Y-3138066D01*
G01X1802356Y-3138190D01*
G01X1804850Y-3138190D01*
G01X1807340Y-3138066D01*
G01X1809821Y-3137817D01*
G01X1812285Y-3137446D01*
G01X1814728Y-3136951D01*
G01X1817144Y-3136336D01*
G01X1819526Y-3135602D01*
G01X1821871Y-3134749D01*
G01X1824167Y-3133781D01*
G01X1826415Y-3132699D01*
G01X1828604Y-3131508D01*
G01X1830730Y-3130207D01*
G01X1832790Y-3128802D01*
G01X1834777Y-3127296D01*
G01X1836687Y-3125694D01*
G01X1838516Y-3123999D01*
G01X1840255Y-3122214D01*
G01X1841906Y-3120344D01*
G01X1843461Y-3118396D01*
G01X1844916Y-3116372D01*
G01X1846268Y-3114276D01*
G01X1847515Y-3112117D01*
G01X1848653Y-3109900D01*
G01X1849676Y-3107626D01*
G01X1850588Y-3105307D01*
G01X1851381Y-3102943D01*
G01X1852056Y-3100542D01*
G01X1852613Y-3098114D01*
G01X1853044Y-3095658D01*
G01X1853354Y-3093184D01*
G01X1853542Y-3090697D01*
G01X1853603Y-3088206D01*
G01X1853603Y-3008206D01*
G01X1853542Y-3005714D01*
G01X1853354Y-3003227D01*
G01X1853044Y-3000753D01*
G01X1852613Y-2998297D01*
G01X1852056Y-2995869D01*
G01X1851381Y-2993469D01*
G01X1850588Y-2991104D01*
G01X1849676Y-2988785D01*
G01X1848653Y-2986512D01*
G01X1847515Y-2984294D01*
G01X1846268Y-2982135D01*
G01X1844916Y-2980040D01*
G01X1843461Y-2978015D01*
G01X1841906Y-2976067D01*
G01X1840255Y-2974198D01*
G01X1838516Y-2972412D01*
G01X1836687Y-2970718D01*
G01X1834777Y-2969115D01*
G01X1832790Y-2967609D01*
G01X1830730Y-2966204D01*
G01X1828604Y-2964904D01*
G01X1826415Y-2963713D01*
G01X1824167Y-2962631D01*
G01X1821871Y-2961663D01*
G01X1819526Y-2960809D01*
G01X1817144Y-2960075D01*
G01X1814728Y-2959461D01*
G01X1812285Y-2958965D01*
G01X1809821Y-2958595D01*
G01X1807340Y-2958346D01*
G37*
G36*
G01X-3666020Y99200D02*
G01X-3666020Y53200D01*
G01X-3670021Y49200D01*
G01X-3720084Y49200D01*
G01X-3724084Y53200D01*
G01X-3724084Y99200D01*
G01X-3720084Y103200D01*
G01X-3670021Y103200D01*
G01X-3666020Y99200D01*
G37*
G36*
G01X-3639020Y99200D02*
G01X-3639020Y53200D01*
G01X-3635019Y49200D01*
G01X-3584956Y49200D01*
G01X-3580955Y53200D01*
G01X-3580955Y99200D01*
G01X-3584956Y103200D01*
G01X-3635019Y103200D01*
G01X-3639020Y99200D01*
G37*
G36*
G01X3666020Y-99200D02*
G01X3666020Y-53200D01*
G01X3670021Y-49200D01*
G01X3720084Y-49200D01*
G01X3724085Y-53200D01*
G01X3724085Y-99200D01*
G01X3720084Y-103200D01*
G01X3670021Y-103200D01*
G01X3666020Y-99200D01*
G37*
G36*
G01X3639020Y-99200D02*
G01X3639020Y-53200D01*
G01X3635019Y-49200D01*
G01X3584956Y-49200D01*
G01X3580956Y-53200D01*
G01X3580956Y-99200D01*
G01X3584956Y-103200D01*
G01X3635019Y-103200D01*
G01X3639020Y-99200D01*
G37*
G36*
G01X-3103172Y-98692D02*
G01X-3103172Y-52693D01*
G01X-3099171Y-48692D01*
G01X-3049108Y-48692D01*
G01X-3045107Y-52693D01*
G01X-3045107Y-98692D01*
G01X-3049108Y-102692D01*
G01X-3099171Y-102692D01*
G01X-3103172Y-98692D01*
G37*
G36*
G01X-3130172Y-98692D02*
G01X-3130172Y-52693D01*
G01X-3134173Y-48692D01*
G01X-3184236Y-48692D01*
G01X-3188236Y-52693D01*
G01X-3188236Y-98692D01*
G01X-3184236Y-102692D01*
G01X-3134173Y-102692D01*
G01X-3130172Y-98692D01*
G37*
G36*
G01X280200Y-1597800D02*
G01X280200Y-1551800D01*
G01X284201Y-1547800D01*
G01X334264Y-1547800D01*
G01X338265Y-1551800D01*
G01X338265Y-1597800D01*
G01X334264Y-1601800D01*
G01X284201Y-1601800D01*
G01X280200Y-1597800D01*
G37*
G36*
G01X253200Y-1597800D02*
G01X253200Y-1551800D01*
G01X249199Y-1547800D01*
G01X199136Y-1547800D01*
G01X195136Y-1551800D01*
G01X195136Y-1597800D01*
G01X199136Y-1601800D01*
G01X249199Y-1601800D01*
G01X253200Y-1597800D01*
G37*

G04 Pad Start*
G54D10*
G01X3385029Y3238500D03*
G01X2610329Y3238500D03*
G01X4159729Y3238500D03*
G01X-2609371Y3238500D03*
G01X-4158771Y3238500D03*
G01X-3384071Y3238500D03*
G54D11*
G01X-4159821Y-3237992D03*
G01X-2610421Y-3237992D03*
G01X-3385121Y-3237992D03*
G01X2609371Y-3238500D03*
G01X4158771Y-3238500D03*
G01X3384071Y-3238500D03*
G54D12*
G01X-3855720Y235102D03*
G01X-3855720Y95098D03*
G01X393692Y-70002D03*
G01X393692Y70002D03*
G54D13*
G01X-79601Y-246797D03*
G01X60404Y-246797D03*
G01X1720698Y292100D03*
G01X1860702Y292100D03*
G01X2178202Y292100D03*
G01X2038198Y292100D03*
G54D12*
G01X3855720Y-235102D03*
G01X3855720Y-95098D03*
G01X-292100Y-641198D03*
G01X-292100Y-781202D03*
G01X241300Y-653898D03*
G01X241300Y-793902D03*
G54D13*
G01X-260502Y-1092200D03*
G01X-120498Y-1092200D03*
G54D12*
G01X-2913472Y-234595D03*
G01X-2913472Y-94590D03*
G01X2913380Y235102D03*
G01X2913380Y95098D03*
G54D14*
G01X-4010630Y226036D03*
G01X-4010630Y310034D03*
G01X4010630Y-226036D03*
G01X4010630Y-310034D03*
G01X2758470Y226036D03*
G01X2758470Y310034D03*
G01X1743799Y-2273300D03*
G01X1659801Y-2273300D03*
G01X-2758562Y-225528D03*
G01X-2758562Y-309526D03*
G54D16*
G01X2611680Y2551508D03*
G54D17*
G01X2840280Y1856514D03*
G01X2383080Y1856514D03*
G54D16*
G01X3386380Y2551508D03*
G54D17*
G01X3614980Y1856514D03*
G01X3157780Y1856514D03*
G54D16*
G01X4161080Y2551508D03*
G54D17*
G01X4389680Y1856514D03*
G01X3932480Y1856514D03*
G54D16*
G01X-3382720Y2551508D03*
G54D17*
G01X-3154120Y1856514D03*
G01X-3611320Y1856514D03*
G54D16*
G01X-4157420Y2551508D03*
G54D17*
G01X-3928820Y1856514D03*
G01X-4386020Y1856514D03*
G54D16*
G01X-2608020Y2551508D03*
G54D17*
G01X-2379420Y1856514D03*
G01X-2836620Y1856514D03*
G54D16*
G01X3382720Y-2551508D03*
G54D17*
G01X3154120Y-1856514D03*
G01X3611320Y-1856514D03*
G54D16*
G01X4157420Y-2551508D03*
G54D17*
G01X3928820Y-1856514D03*
G01X4386020Y-1856514D03*
G54D16*
G01X2608020Y-2551508D03*
G54D17*
G01X2379420Y-1856514D03*
G01X2836620Y-1856514D03*
G54D16*
G01X-3386472Y-2551001D03*
G54D17*
G01X-3615072Y-1856006D03*
G01X-3157872Y-1856006D03*
G54D16*
G01X-2611772Y-2551001D03*
G54D17*
G01X-2840372Y-1856006D03*
G01X-2383172Y-1856006D03*
G54D16*
G01X-4161172Y-2551001D03*
G54D17*
G01X-4389772Y-1856006D03*
G01X-3932572Y-1856006D03*
G54D18*
G01X-2712812Y1079551D03*
G01X-2585812Y1079551D03*
G01X-2458812Y1079551D03*
G01X-2331812Y1079551D03*
G01X-2712812Y1593545D03*
G01X-2585812Y1593545D03*
G01X-2458812Y1593545D03*
G01X-2331812Y1593545D03*
G54D19*
G01X-126200Y75006D03*
G01X-126200Y24994D03*
G01X-126200Y-24994D03*
G01X-126200Y-75006D03*
G54D20*
G01X-50000Y-101244D03*
G01X-13Y-101244D03*
G01X50000Y-101244D03*
G54D19*
G01X126200Y-75006D03*
G01X126200Y-24994D03*
G01X126200Y24994D03*
G01X126200Y75006D03*
G54D20*
G01X50000Y101244D03*
G01X-13Y101244D03*
G01X-50000Y101244D03*
G54D21*
G01X1807489Y135992D03*
G01X1872513Y135992D03*
G01X1937487Y135992D03*
G01X2002511Y135992D03*
G01X1807489Y-8992D03*
G01X1872513Y-8992D03*
G01X1937487Y-8992D03*
G01X2002511Y-8992D03*
G54D22*
G01X49619Y-951801D03*
G01X-394Y-951801D03*
G01X-50381Y-951801D03*
G01X-100393Y-951801D03*
G54D23*
G01X-151701Y-900519D03*
G01X-151701Y-850506D03*
G01X-151701Y-800519D03*
G01X-151701Y-750506D03*
G54D22*
G01X-100419Y-699198D03*
G01X-50406Y-699198D03*
G01X-419Y-699198D03*
G01X49594Y-699198D03*
G54D23*
G01X100902Y-750481D03*
G01X100902Y-800494D03*
G01X100902Y-850481D03*
G01X100902Y-900493D03*
G54D18*
G01X-4262212Y1079551D03*
G01X-4135212Y1079551D03*
G01X-4008212Y1079551D03*
G01X-3881212Y1079551D03*
G01X-4262212Y1593545D03*
G01X-4135212Y1593545D03*
G01X-4008212Y1593545D03*
G01X-3881212Y1593545D03*
G01X-3487512Y1079551D03*
G01X-3360512Y1079551D03*
G01X-3233512Y1079551D03*
G01X-3106512Y1079551D03*
G01X-3487512Y1593545D03*
G01X-3360512Y1593545D03*
G01X-3233512Y1593545D03*
G01X-3106512Y1593545D03*
G01X2712812Y-1079551D03*
G01X2585812Y-1079551D03*
G01X2458812Y-1079551D03*
G01X2331812Y-1079551D03*
G01X2712812Y-1593545D03*
G01X2585812Y-1593545D03*
G01X2458812Y-1593545D03*
G01X2331812Y-1593545D03*
G01X4262212Y-1079551D03*
G01X4135212Y-1079551D03*
G01X4008212Y-1079551D03*
G01X3881212Y-1079551D03*
G01X4262212Y-1593545D03*
G01X4135212Y-1593545D03*
G01X4008212Y-1593545D03*
G01X3881212Y-1593545D03*
G01X3487512Y-1079551D03*
G01X3360512Y-1079551D03*
G01X3233512Y-1079551D03*
G01X3106512Y-1079551D03*
G01X3487512Y-1593545D03*
G01X3360512Y-1593545D03*
G01X3233512Y-1593545D03*
G01X3106512Y-1593545D03*
G01X-4056380Y-1079043D03*
G01X-4183380Y-1079043D03*
G01X-4310380Y-1079043D03*
G01X-4437380Y-1079043D03*
G01X-4056380Y-1593037D03*
G01X-4183380Y-1593037D03*
G01X-4310380Y-1593037D03*
G01X-4437380Y-1593037D03*
G01X-2506980Y-1079043D03*
G01X-2633980Y-1079043D03*
G01X-2760980Y-1079043D03*
G01X-2887980Y-1079043D03*
G01X-2506980Y-1593037D03*
G01X-2633980Y-1593037D03*
G01X-2760980Y-1593037D03*
G01X-2887980Y-1593037D03*
G01X2506888Y1079551D03*
G01X2633888Y1079551D03*
G01X2760888Y1079551D03*
G01X2887888Y1079551D03*
G01X2506888Y1593545D03*
G01X2633888Y1593545D03*
G01X2760888Y1593545D03*
G01X2887888Y1593545D03*
G01X3281588Y1079551D03*
G01X3408588Y1079551D03*
G01X3535588Y1079551D03*
G01X3662588Y1079551D03*
G01X3281588Y1593545D03*
G01X3408588Y1593545D03*
G01X3535588Y1593545D03*
G01X3662588Y1593545D03*
G01X4056288Y1079551D03*
G01X4183288Y1079551D03*
G01X4310288Y1079551D03*
G01X4437288Y1079551D03*
G01X4056288Y1593545D03*
G01X4183288Y1593545D03*
G01X4310288Y1593545D03*
G01X4437288Y1593545D03*
G01X-3281680Y-1079043D03*
G01X-3408680Y-1079043D03*
G01X-3535680Y-1079043D03*
G01X-3662680Y-1079043D03*
G01X-3281680Y-1593037D03*
G01X-3408680Y-1593037D03*
G01X-3535680Y-1593037D03*
G01X-3662680Y-1593037D03*
G54D24*
G01X702004Y-171591D03*
G01X786027Y-171591D03*
G01X1210412Y-2006600D03*
G01X1126388Y-2006600D03*
G54D25*
G01X368300Y-1769212D03*
G01X368300Y-1685188D03*
G54D24*
G01X2668168Y444500D03*
G01X2752192Y444500D03*
G01X1743812Y-2019300D03*
G01X1659788Y-2019300D03*
G01X1743812Y-2146300D03*
G01X1659788Y-2146300D03*
G54D13*
G01X527202Y-1930400D03*
G01X387198Y-1930400D03*
G54D24*
G01X2752192Y571500D03*
G01X2668168Y571500D03*
G01X-4016908Y571500D03*
G01X-4100932Y571500D03*
G01X4016908Y-571500D03*
G01X4100932Y-571500D03*
G01X-2752284Y-570992D03*
G01X-2668260Y-570992D03*
G01X-4100932Y444500D03*
G01X-4016908Y444500D03*
G01X4100932Y-444500D03*
G01X4016908Y-444500D03*
G01X-2668260Y-443992D03*
G01X-2752284Y-443992D03*
G54D13*
G01X920598Y-111760D03*
G01X1060602Y-111760D03*
G54D26*
G01X-411490Y524025D03*
G01X-506486Y751025D03*
G01X-316494Y751025D03*
G54D27*
G01X-659397Y761048D03*
G01X-849389Y761048D03*
G01X-754393Y514033D03*
G54D25*
G01X241300Y3912D03*
G01X241300Y-80112D03*
G54D24*
G01X-402704Y396240D03*
G01X-318681Y396240D03*
G01X-499212Y867764D03*
G01X-415188Y867764D03*
G01X-842112Y878840D03*
G01X-758088Y878840D03*
G01X-745604Y383540D03*
G01X-661581Y383540D03*
G54D28*
G01X-1845201Y43104D03*
G01X-1844705Y-1236904D03*
G54D29*
G01X-593202Y-148895D03*
G01X-593202Y-275895D03*
G01X-593202Y-402895D03*
G01X-593202Y-529895D03*
G01X-593202Y-656895D03*
G01X-593202Y-783895D03*
G01X-593202Y-910895D03*
G01X-593202Y-1037895D03*
G54D30*
G01X565810Y-1692199D03*
G01X565810Y-1642212D03*
G01X565810Y-1592199D03*
G01X565810Y-1542212D03*
G01X565810Y-1492199D03*
G01X565810Y-1442212D03*
G01X565810Y-1392199D03*
G01X565810Y-1342212D03*
G01X565810Y-1292200D03*
G01X565810Y-1242212D03*
G01X565810Y-1192200D03*
G01X565810Y-1142187D03*
G01X565810Y-1092200D03*
G01X565810Y-1042187D03*
G01X565810Y-992200D03*
G01X565810Y-942188D03*
G01X565810Y-892200D03*
G01X565810Y-842188D03*
G01X565810Y-792201D03*
G01X565810Y-742188D03*
G01X565810Y-692201D03*
G01X565810Y-642188D03*
G01X565810Y-592201D03*
G01X565810Y-542188D03*
G01X565810Y-492201D03*
G54D31*
G01X720801Y-337210D03*
G01X770788Y-337210D03*
G01X820801Y-337210D03*
G01X870788Y-337210D03*
G01X920801Y-337210D03*
G01X970788Y-337210D03*
G01X1020801Y-337210D03*
G01X1070788Y-337210D03*
G01X1120800Y-337210D03*
G01X1170788Y-337210D03*
G01X1220800Y-337210D03*
G01X1270813Y-337210D03*
G01X1320800Y-337210D03*
G01X1370813Y-337210D03*
G01X1420800Y-337210D03*
G01X1470812Y-337210D03*
G01X1520800Y-337210D03*
G01X1570812Y-337210D03*
G01X1620799Y-337210D03*
G01X1670812Y-337210D03*
G01X1720799Y-337210D03*
G01X1770812Y-337210D03*
G01X1820799Y-337210D03*
G01X1870812Y-337210D03*
G01X1920799Y-337210D03*
G54D30*
G01X2075790Y-492201D03*
G01X2075790Y-542188D03*
G01X2075790Y-592201D03*
G01X2075790Y-642188D03*
G01X2075790Y-692201D03*
G01X2075790Y-742188D03*
G01X2075790Y-792201D03*
G01X2075790Y-842188D03*
G01X2075790Y-892200D03*
G01X2075790Y-942188D03*
G01X2075790Y-992200D03*
G01X2075790Y-1042187D03*
G01X2075790Y-1092200D03*
G01X2075790Y-1142187D03*
G01X2075790Y-1192200D03*
G01X2075790Y-1242212D03*
G01X2075790Y-1292200D03*
G01X2075790Y-1342212D03*
G01X2075790Y-1392199D03*
G01X2075790Y-1442212D03*
G01X2075790Y-1492199D03*
G01X2075790Y-1542212D03*
G01X2075790Y-1592199D03*
G01X2075790Y-1642212D03*
G01X2075790Y-1692199D03*
G54D31*
G01X1920799Y-1847190D03*
G01X1870812Y-1847190D03*
G01X1820799Y-1847190D03*
G01X1770812Y-1847190D03*
G01X1720799Y-1847190D03*
G01X1670812Y-1847190D03*
G01X1620799Y-1847190D03*
G01X1570812Y-1847190D03*
G01X1520800Y-1847190D03*
G01X1470812Y-1847190D03*
G01X1420800Y-1847190D03*
G01X1370813Y-1847190D03*
G01X1320800Y-1847190D03*
G01X1270813Y-1847190D03*
G01X1220800Y-1847190D03*
G01X1170788Y-1847190D03*
G01X1120800Y-1847190D03*
G01X1070788Y-1847190D03*
G01X1020801Y-1847190D03*
G01X970788Y-1847190D03*
G01X920801Y-1847190D03*
G01X870788Y-1847190D03*
G01X820801Y-1847190D03*
G01X770788Y-1847190D03*
G01X720801Y-1847190D03*
G54D32*
G01X-2719921Y203200D03*
G01X-3619919Y203200D03*
G01X2719921Y-203200D03*
G01X3619919Y-203200D03*
G01X-4049271Y-202692D03*
G01X-3149273Y-202692D03*
G54D33*
G01X76200Y-2456599D03*
G01X76200Y-1556601D03*
G54D32*
G01X4049179Y203200D03*
G01X3149181Y203200D03*
G04 Pad End*

M02*

