G04 Layer: BottomSilkscreenLayer*
G04 EasyEDA Pro v2.2.47.7, 2026-04-30 23:08:15*
G04 Gerber Generator version 0.3*
G04 Scale: 100 percent, Rotated: No, Reflected: No*
G04 Dimensions in millimeters*
G04 Leading zeros omitted, absolute positions, 4 integers and 5 decimals*
G04 Generated by one-click*
G04 Object Configs: Pad,Via,Track,Text,Image,Dimension,BoardOutline,BoardCutout,CopperFilled,SolidRegion,FPCStiffener,Line,PlaneZone,ComponentProperty,ComponentSilkscreen,TearDrop*
G04 Layer Configs: 1,15,16,2,3,4,5,6,7,8,9,10,11,13,14,56*
G04 Copper Areas: 0*
%FSLAX45Y45*%
%MOMM*%
%ADD10C,0.1524*%
%ADD11C,0.254*%
%ADD12C,0.152*%
%ADD13C,0.4*%
%ADD14C,0.2*%
%ADD15C,0.3*%
%ADD16C,0.2551*%
%ADD17C,0.25001*%
G75*


G04 Text Start*
G54D10*
G01X390398Y-2664460D02*
G01X393446Y-2658110D01*
G01X399796Y-2652014D01*
G01X405892Y-2648966D01*
G01X418338Y-2648966D01*
G01X424434Y-2652014D01*
G01X430784Y-2658110D01*
G01X433832Y-2664460D01*
G01X436880Y-2673604D01*
G01X436880Y-2689098D01*
G01X433832Y-2698496D01*
G01X430784Y-2704592D01*
G01X424434Y-2710942D01*
G01X418338Y-2713990D01*
G01X405892Y-2713990D01*
G01X399796Y-2710942D01*
G01X393446Y-2704592D01*
G01X390398Y-2698496D01*
G01X360172Y-2661412D02*
G01X354076Y-2658110D01*
G01X344932Y-2648966D01*
G01X344932Y-2713990D01*
G01X-2535711Y1408684D02*
G01X-2542061Y1411732D01*
G01X-2548157Y1418082D01*
G01X-2551205Y1424178D01*
G01X-2551205Y1436624D01*
G01X-2548157Y1442720D01*
G01X-2542061Y1449070D01*
G01X-2535711Y1452118D01*
G01X-2526567Y1455166D01*
G01X-2511073Y1455166D01*
G01X-2501675Y1452118D01*
G01X-2495579Y1449070D01*
G01X-2489229Y1442720D01*
G01X-2486181Y1436624D01*
G01X-2486181Y1424178D01*
G01X-2489229Y1418082D01*
G01X-2495579Y1411732D01*
G01X-2501675Y1408684D01*
G01X-2551205Y1347724D02*
G01X-2508025Y1378458D01*
G01X-2508025Y1332230D01*
G01X-2551205Y1347724D02*
G01X-2486181Y1347724D01*
G01X-4085111Y1408684D02*
G01X-4091461Y1411732D01*
G01X-4097557Y1418082D01*
G01X-4100605Y1424178D01*
G01X-4100605Y1436624D01*
G01X-4097557Y1442720D01*
G01X-4091461Y1449070D01*
G01X-4085111Y1452118D01*
G01X-4075967Y1455166D01*
G01X-4060473Y1455166D01*
G01X-4051075Y1452118D01*
G01X-4044979Y1449070D01*
G01X-4038629Y1442720D01*
G01X-4035581Y1436624D01*
G01X-4035581Y1424178D01*
G01X-4038629Y1418082D01*
G01X-4044979Y1411732D01*
G01X-4051075Y1408684D01*
G01X-4100605Y1341374D02*
G01X-4100605Y1372362D01*
G01X-4072919Y1375410D01*
G01X-4075967Y1372362D01*
G01X-4079015Y1363218D01*
G01X-4079015Y1353820D01*
G01X-4075967Y1344422D01*
G01X-4069617Y1338326D01*
G01X-4060473Y1335278D01*
G01X-4054123Y1335278D01*
G01X-4044979Y1338326D01*
G01X-4038629Y1344422D01*
G01X-4035581Y1353820D01*
G01X-4035581Y1363218D01*
G01X-4038629Y1372362D01*
G01X-4041931Y1375410D01*
G01X-4048027Y1378458D01*
G01X-3310411Y1408684D02*
G01X-3316761Y1411732D01*
G01X-3322857Y1418082D01*
G01X-3325905Y1424178D01*
G01X-3325905Y1436624D01*
G01X-3322857Y1442720D01*
G01X-3316761Y1449070D01*
G01X-3310411Y1452118D01*
G01X-3301267Y1455166D01*
G01X-3285773Y1455166D01*
G01X-3276375Y1452118D01*
G01X-3270279Y1449070D01*
G01X-3263929Y1442720D01*
G01X-3260881Y1436624D01*
G01X-3260881Y1424178D01*
G01X-3263929Y1418082D01*
G01X-3270279Y1411732D01*
G01X-3276375Y1408684D01*
G01X-3316761Y1341374D02*
G01X-3322857Y1344422D01*
G01X-3325905Y1353820D01*
G01X-3325905Y1359916D01*
G01X-3322857Y1369314D01*
G01X-3313459Y1375410D01*
G01X-3298219Y1378458D01*
G01X-3282725Y1378458D01*
G01X-3270279Y1375410D01*
G01X-3263929Y1369314D01*
G01X-3260881Y1359916D01*
G01X-3260881Y1356868D01*
G01X-3263929Y1347724D01*
G01X-3270279Y1341374D01*
G01X-3279423Y1338326D01*
G01X-3282725Y1338326D01*
G01X-3291869Y1341374D01*
G01X-3298219Y1347724D01*
G01X-3301267Y1356868D01*
G01X-3301267Y1359916D01*
G01X-3298219Y1369314D01*
G01X-3291869Y1375410D01*
G01X-3282725Y1378458D01*
G01X-4246118Y1483360D02*
G01X-4249166Y1477010D01*
G01X-4255516Y1470914D01*
G01X-4261612Y1467866D01*
G01X-4274058Y1467866D01*
G01X-4280154Y1470914D01*
G01X-4286504Y1477010D01*
G01X-4289552Y1483360D01*
G01X-4292600Y1492504D01*
G01X-4292600Y1507998D01*
G01X-4289552Y1517396D01*
G01X-4286504Y1523492D01*
G01X-4280154Y1529842D01*
G01X-4274058Y1532890D01*
G01X-4261612Y1532890D01*
G01X-4255516Y1529842D01*
G01X-4249166Y1523492D01*
G01X-4246118Y1517396D01*
G01X-4172712Y1467866D02*
G01X-4203700Y1532890D01*
G01X-4215892Y1467866D02*
G01X-4172712Y1467866D01*
G01X-3471418Y1483360D02*
G01X-3474466Y1477010D01*
G01X-3480816Y1470914D01*
G01X-3486912Y1467866D01*
G01X-3499358Y1467866D01*
G01X-3505454Y1470914D01*
G01X-3511804Y1477010D01*
G01X-3514852Y1483360D01*
G01X-3517900Y1492504D01*
G01X-3517900Y1507998D01*
G01X-3514852Y1517396D01*
G01X-3511804Y1523492D01*
G01X-3505454Y1529842D01*
G01X-3499358Y1532890D01*
G01X-3486912Y1532890D01*
G01X-3480816Y1529842D01*
G01X-3474466Y1523492D01*
G01X-3471418Y1517396D01*
G01X-3438144Y1483360D02*
G01X-3438144Y1480312D01*
G01X-3435096Y1473962D01*
G01X-3432048Y1470914D01*
G01X-3425952Y1467866D01*
G01X-3413506Y1467866D01*
G01X-3407156Y1470914D01*
G01X-3404108Y1473962D01*
G01X-3401060Y1480312D01*
G01X-3401060Y1486408D01*
G01X-3404108Y1492504D01*
G01X-3410458Y1501902D01*
G01X-3441192Y1532890D01*
G01X-3398012Y1532890D01*
G01X-3337052Y1467866D02*
G01X-3367786Y1511046D01*
G01X-3321558Y1511046D01*
G01X-3337052Y1467866D02*
G01X-3337052Y1532890D01*
G01X-2684780Y905002D02*
G01X-2678430Y901954D01*
G01X-2672334Y895604D01*
G01X-2669286Y889508D01*
G01X-2669286Y877062D01*
G01X-2672334Y870966D01*
G01X-2678430Y864616D01*
G01X-2684780Y861568D01*
G01X-2693924Y858520D01*
G01X-2709418Y858520D01*
G01X-2718816Y861568D01*
G01X-2724912Y864616D01*
G01X-2731262Y870966D01*
G01X-2734310Y877062D01*
G01X-2734310Y889508D01*
G01X-2731262Y895604D01*
G01X-2724912Y901954D01*
G01X-2718816Y905002D01*
G01X-2669286Y941324D02*
G01X-2669286Y975360D01*
G01X-2693924Y956818D01*
G01X-2693924Y965962D01*
G01X-2696972Y972312D01*
G01X-2700274Y975360D01*
G01X-2709418Y978408D01*
G01X-2715768Y978408D01*
G01X-2724912Y975360D01*
G01X-2731262Y969264D01*
G01X-2734310Y959866D01*
G01X-2734310Y950468D01*
G01X-2731262Y941324D01*
G01X-2727960Y938276D01*
G01X-2721864Y935228D01*
G01X-2681732Y1008634D02*
G01X-2678430Y1014730D01*
G01X-2669286Y1023874D01*
G01X-2734310Y1023874D01*
G01X-2696718Y1483360D02*
G01X-2699766Y1477010D01*
G01X-2706116Y1470914D01*
G01X-2712212Y1467866D01*
G01X-2724658Y1467866D01*
G01X-2730754Y1470914D01*
G01X-2737104Y1477010D01*
G01X-2740152Y1483360D01*
G01X-2743200Y1492504D01*
G01X-2743200Y1507998D01*
G01X-2740152Y1517396D01*
G01X-2737104Y1523492D01*
G01X-2730754Y1529842D01*
G01X-2724658Y1532890D01*
G01X-2712212Y1532890D01*
G01X-2706116Y1529842D01*
G01X-2699766Y1523492D01*
G01X-2696718Y1517396D01*
G01X-2660396Y1467866D02*
G01X-2626360Y1467866D01*
G01X-2644902Y1492504D01*
G01X-2635758Y1492504D01*
G01X-2629408Y1495552D01*
G01X-2626360Y1498854D01*
G01X-2623312Y1507998D01*
G01X-2623312Y1514348D01*
G01X-2626360Y1523492D01*
G01X-2632456Y1529842D01*
G01X-2641854Y1532890D01*
G01X-2651252Y1532890D01*
G01X-2660396Y1529842D01*
G01X-2663444Y1526540D01*
G01X-2666492Y1520444D01*
G01X-2590038Y1483360D02*
G01X-2590038Y1480312D01*
G01X-2586990Y1473962D01*
G01X-2583942Y1470914D01*
G01X-2577846Y1467866D01*
G01X-2565400Y1467866D01*
G01X-2559050Y1470914D01*
G01X-2556002Y1473962D01*
G01X-2552954Y1480312D01*
G01X-2552954Y1486408D01*
G01X-2556002Y1492504D01*
G01X-2562352Y1501902D01*
G01X-2593086Y1532890D01*
G01X-2549906Y1532890D01*
G01X2535711Y-1408684D02*
G01X2542061Y-1411732D01*
G01X2548157Y-1418082D01*
G01X2551205Y-1424178D01*
G01X2551205Y-1436624D01*
G01X2548157Y-1442720D01*
G01X2542061Y-1449070D01*
G01X2535711Y-1452118D01*
G01X2526567Y-1455166D01*
G01X2511073Y-1455166D01*
G01X2501675Y-1452118D01*
G01X2495579Y-1449070D01*
G01X2489229Y-1442720D01*
G01X2486181Y-1436624D01*
G01X2486181Y-1424178D01*
G01X2489229Y-1418082D01*
G01X2495579Y-1411732D01*
G01X2501675Y-1408684D01*
G01X2551205Y-1372362D02*
G01X2551205Y-1338326D01*
G01X2526567Y-1356868D01*
G01X2526567Y-1347724D01*
G01X2523519Y-1341374D01*
G01X2520217Y-1338326D01*
G01X2511073Y-1335278D01*
G01X2504723Y-1335278D01*
G01X2495579Y-1338326D01*
G01X2489229Y-1344422D01*
G01X2486181Y-1353820D01*
G01X2486181Y-1363218D01*
G01X2489229Y-1372362D01*
G01X2492531Y-1375410D01*
G01X2498627Y-1378458D01*
G01X2542061Y-1267968D02*
G01X2548157Y-1271016D01*
G01X2551205Y-1280414D01*
G01X2551205Y-1286510D01*
G01X2548157Y-1295908D01*
G01X2538759Y-1302004D01*
G01X2523519Y-1305052D01*
G01X2508025Y-1305052D01*
G01X2495579Y-1302004D01*
G01X2489229Y-1295908D01*
G01X2486181Y-1286510D01*
G01X2486181Y-1283462D01*
G01X2489229Y-1274318D01*
G01X2495579Y-1267968D01*
G01X2504723Y-1264920D01*
G01X2508025Y-1264920D01*
G01X2517169Y-1267968D01*
G01X2523519Y-1274318D01*
G01X2526567Y-1283462D01*
G01X2526567Y-1286510D01*
G01X2523519Y-1295908D01*
G01X2517169Y-1302004D01*
G01X2508025Y-1305052D01*
G01X4085111Y-1408684D02*
G01X4091461Y-1411732D01*
G01X4097557Y-1418082D01*
G01X4100605Y-1424178D01*
G01X4100605Y-1436624D01*
G01X4097557Y-1442720D01*
G01X4091461Y-1449070D01*
G01X4085111Y-1452118D01*
G01X4075967Y-1455166D01*
G01X4060473Y-1455166D01*
G01X4051075Y-1452118D01*
G01X4044979Y-1449070D01*
G01X4038629Y-1442720D01*
G01X4035581Y-1436624D01*
G01X4035581Y-1424178D01*
G01X4038629Y-1418082D01*
G01X4044979Y-1411732D01*
G01X4051075Y-1408684D01*
G01X4100605Y-1372362D02*
G01X4100605Y-1338326D01*
G01X4075967Y-1356868D01*
G01X4075967Y-1347724D01*
G01X4072919Y-1341374D01*
G01X4069617Y-1338326D01*
G01X4060473Y-1335278D01*
G01X4054123Y-1335278D01*
G01X4044979Y-1338326D01*
G01X4038629Y-1344422D01*
G01X4035581Y-1353820D01*
G01X4035581Y-1363218D01*
G01X4038629Y-1372362D01*
G01X4041931Y-1375410D01*
G01X4048027Y-1378458D01*
G01X4100605Y-1261872D02*
G01X4035581Y-1292860D01*
G01X4100605Y-1305052D02*
G01X4100605Y-1261872D01*
G01X3310411Y-1408684D02*
G01X3316761Y-1411732D01*
G01X3322857Y-1418082D01*
G01X3325905Y-1424178D01*
G01X3325905Y-1436624D01*
G01X3322857Y-1442720D01*
G01X3316761Y-1449070D01*
G01X3310411Y-1452118D01*
G01X3301267Y-1455166D01*
G01X3285773Y-1455166D01*
G01X3276375Y-1452118D01*
G01X3270279Y-1449070D01*
G01X3263929Y-1442720D01*
G01X3260881Y-1436624D01*
G01X3260881Y-1424178D01*
G01X3263929Y-1418082D01*
G01X3270279Y-1411732D01*
G01X3276375Y-1408684D01*
G01X3325905Y-1372362D02*
G01X3325905Y-1338326D01*
G01X3301267Y-1356868D01*
G01X3301267Y-1347724D01*
G01X3298219Y-1341374D01*
G01X3294917Y-1338326D01*
G01X3285773Y-1335278D01*
G01X3279423Y-1335278D01*
G01X3270279Y-1338326D01*
G01X3263929Y-1344422D01*
G01X3260881Y-1353820D01*
G01X3260881Y-1363218D01*
G01X3263929Y-1372362D01*
G01X3267231Y-1375410D01*
G01X3273327Y-1378458D01*
G01X3325905Y-1289812D02*
G01X3322857Y-1298956D01*
G01X3316761Y-1302004D01*
G01X3310411Y-1302004D01*
G01X3304315Y-1298956D01*
G01X3301267Y-1292860D01*
G01X3298219Y-1280414D01*
G01X3294917Y-1271016D01*
G01X3288821Y-1264920D01*
G01X3282725Y-1261872D01*
G01X3273327Y-1261872D01*
G01X3267231Y-1264920D01*
G01X3263929Y-1267968D01*
G01X3260881Y-1277366D01*
G01X3260881Y-1289812D01*
G01X3263929Y-1298956D01*
G01X3267231Y-1302004D01*
G01X3273327Y-1305052D01*
G01X3282725Y-1305052D01*
G01X3288821Y-1302004D01*
G01X3294917Y-1295908D01*
G01X3298219Y-1286510D01*
G01X3301267Y-1274318D01*
G01X3304315Y-1267968D01*
G01X3310411Y-1264920D01*
G01X3316761Y-1264920D01*
G01X3322857Y-1267968D01*
G01X3325905Y-1277366D01*
G01X3325905Y-1289812D01*
G01X4246118Y-1483360D02*
G01X4249166Y-1477010D01*
G01X4255516Y-1470914D01*
G01X4261612Y-1467866D01*
G01X4274058Y-1467866D01*
G01X4280154Y-1470914D01*
G01X4286504Y-1477010D01*
G01X4289552Y-1483360D01*
G01X4292600Y-1492504D01*
G01X4292600Y-1507998D01*
G01X4289552Y-1517396D01*
G01X4286504Y-1523492D01*
G01X4280154Y-1529842D01*
G01X4274058Y-1532890D01*
G01X4261612Y-1532890D01*
G01X4255516Y-1529842D01*
G01X4249166Y-1523492D01*
G01X4246118Y-1517396D01*
G01X4209796Y-1467866D02*
G01X4175760Y-1467866D01*
G01X4194302Y-1492504D01*
G01X4185158Y-1492504D01*
G01X4178808Y-1495552D01*
G01X4175760Y-1498854D01*
G01X4172712Y-1507998D01*
G01X4172712Y-1514348D01*
G01X4175760Y-1523492D01*
G01X4181856Y-1529842D01*
G01X4191254Y-1532890D01*
G01X4200652Y-1532890D01*
G01X4209796Y-1529842D01*
G01X4212844Y-1526540D01*
G01X4215892Y-1520444D01*
G01X4102354Y-1489456D02*
G01X4105402Y-1498854D01*
G01X4111752Y-1504950D01*
G01X4120896Y-1507998D01*
G01X4123944Y-1507998D01*
G01X4133342Y-1504950D01*
G01X4139438Y-1498854D01*
G01X4142486Y-1489456D01*
G01X4142486Y-1486408D01*
G01X4139438Y-1477010D01*
G01X4133342Y-1470914D01*
G01X4123944Y-1467866D01*
G01X4120896Y-1467866D01*
G01X4111752Y-1470914D01*
G01X4105402Y-1477010D01*
G01X4102354Y-1489456D01*
G01X4102354Y-1504950D01*
G01X4105402Y-1520444D01*
G01X4111752Y-1529842D01*
G01X4120896Y-1532890D01*
G01X4127246Y-1532890D01*
G01X4136390Y-1529842D01*
G01X4139438Y-1523492D01*
G01X3471418Y-1483360D02*
G01X3474466Y-1477010D01*
G01X3480816Y-1470914D01*
G01X3486912Y-1467866D01*
G01X3499358Y-1467866D01*
G01X3505454Y-1470914D01*
G01X3511804Y-1477010D01*
G01X3514852Y-1483360D01*
G01X3517900Y-1492504D01*
G01X3517900Y-1507998D01*
G01X3514852Y-1517396D01*
G01X3511804Y-1523492D01*
G01X3505454Y-1529842D01*
G01X3499358Y-1532890D01*
G01X3486912Y-1532890D01*
G01X3480816Y-1529842D01*
G01X3474466Y-1523492D01*
G01X3471418Y-1517396D01*
G01X3410458Y-1467866D02*
G01X3441192Y-1511046D01*
G01X3394964Y-1511046D01*
G01X3410458Y-1467866D02*
G01X3410458Y-1532890D01*
G01X3364738Y-1480312D02*
G01X3358642Y-1477010D01*
G01X3349498Y-1467866D01*
G01X3349498Y-1532890D01*
G01X2684780Y-905002D02*
G01X2678430Y-901954D01*
G01X2672334Y-895604D01*
G01X2669286Y-889508D01*
G01X2669286Y-877062D01*
G01X2672334Y-870966D01*
G01X2678430Y-864616D01*
G01X2684780Y-861568D01*
G01X2693924Y-858520D01*
G01X2709418Y-858520D01*
G01X2718816Y-861568D01*
G01X2724912Y-864616D01*
G01X2731262Y-870966D01*
G01X2734310Y-877062D01*
G01X2734310Y-889508D01*
G01X2731262Y-895604D01*
G01X2724912Y-901954D01*
G01X2718816Y-905002D01*
G01X2669286Y-965962D02*
G01X2712466Y-935228D01*
G01X2712466Y-981456D01*
G01X2669286Y-965962D02*
G01X2734310Y-965962D01*
G01X2669286Y-1017778D02*
G01X2669286Y-1051814D01*
G01X2693924Y-1033272D01*
G01X2693924Y-1042416D01*
G01X2696972Y-1048766D01*
G01X2700274Y-1051814D01*
G01X2709418Y-1054862D01*
G01X2715768Y-1054862D01*
G01X2724912Y-1051814D01*
G01X2731262Y-1045718D01*
G01X2734310Y-1036320D01*
G01X2734310Y-1026922D01*
G01X2731262Y-1017778D01*
G01X2727960Y-1014730D01*
G01X2721864Y-1011682D01*
G01X-174424Y-644901D02*
G01X-180774Y-641853D01*
G01X-186870Y-635503D01*
G01X-189918Y-629407D01*
G01X-189918Y-616961D01*
G01X-186870Y-610865D01*
G01X-180774Y-604515D01*
G01X-174424Y-601467D01*
G01X-165280Y-598419D01*
G01X-149786Y-598419D01*
G01X-140388Y-601467D01*
G01X-134292Y-604515D01*
G01X-127942Y-610865D01*
G01X-124894Y-616961D01*
G01X-124894Y-629407D01*
G01X-127942Y-635503D01*
G01X-134292Y-641853D01*
G01X-140388Y-644901D01*
G01X-189918Y-712211D02*
G01X-189918Y-681223D01*
G01X-162232Y-678175D01*
G01X-165280Y-681223D01*
G01X-168328Y-690367D01*
G01X-168328Y-699765D01*
G01X-165280Y-709163D01*
G01X-158930Y-715259D01*
G01X-149786Y-718307D01*
G01X-143436Y-718307D01*
G01X-134292Y-715259D01*
G01X-127942Y-709163D01*
G01X-124894Y-699765D01*
G01X-124894Y-690367D01*
G01X-127942Y-681223D01*
G01X-131244Y-678175D01*
G01X-137340Y-675127D01*
G01X-189918Y-767075D02*
G01X-186870Y-757677D01*
G01X-177472Y-751581D01*
G01X-162232Y-748533D01*
G01X-152834Y-748533D01*
G01X-137340Y-751581D01*
G01X-127942Y-757677D01*
G01X-124894Y-767075D01*
G01X-124894Y-773171D01*
G01X-127942Y-782569D01*
G01X-137340Y-788665D01*
G01X-152834Y-791713D01*
G01X-162232Y-791713D01*
G01X-177472Y-788665D01*
G01X-186870Y-782569D01*
G01X-189918Y-773171D01*
G01X-189918Y-767075D01*
G01X2696718Y-1483360D02*
G01X2699766Y-1477010D01*
G01X2706116Y-1470914D01*
G01X2712212Y-1467866D01*
G01X2724658Y-1467866D01*
G01X2730754Y-1470914D01*
G01X2737104Y-1477010D01*
G01X2740152Y-1483360D01*
G01X2743200Y-1492504D01*
G01X2743200Y-1507998D01*
G01X2740152Y-1517396D01*
G01X2737104Y-1523492D01*
G01X2730754Y-1529842D01*
G01X2724658Y-1532890D01*
G01X2712212Y-1532890D01*
G01X2706116Y-1529842D01*
G01X2699766Y-1523492D01*
G01X2696718Y-1517396D01*
G01X2629408Y-1467866D02*
G01X2660396Y-1467866D01*
G01X2663444Y-1495552D01*
G01X2660396Y-1492504D01*
G01X2651252Y-1489456D01*
G01X2641854Y-1489456D01*
G01X2632456Y-1492504D01*
G01X2626360Y-1498854D01*
G01X2623312Y-1507998D01*
G01X2623312Y-1514348D01*
G01X2626360Y-1523492D01*
G01X2632456Y-1529842D01*
G01X2641854Y-1532890D01*
G01X2651252Y-1532890D01*
G01X2660396Y-1529842D01*
G01X2663444Y-1526540D01*
G01X2666492Y-1520444D01*
G01X2562352Y-1467866D02*
G01X2593086Y-1511046D01*
G01X2546858Y-1511046D01*
G01X2562352Y-1467866D02*
G01X2562352Y-1532890D01*
G01X2683989Y1408684D02*
G01X2677639Y1411732D01*
G01X2671543Y1418082D01*
G01X2668495Y1424178D01*
G01X2668495Y1436624D01*
G01X2671543Y1442720D01*
G01X2677639Y1449070D01*
G01X2683989Y1452118D01*
G01X2693133Y1455166D01*
G01X2708627Y1455166D01*
G01X2718025Y1452118D01*
G01X2724121Y1449070D01*
G01X2730471Y1442720D01*
G01X2733519Y1436624D01*
G01X2733519Y1424178D01*
G01X2730471Y1418082D01*
G01X2724121Y1411732D01*
G01X2718025Y1408684D01*
G01X2668495Y1341374D02*
G01X2668495Y1372362D01*
G01X2696181Y1375410D01*
G01X2693133Y1372362D01*
G01X2690085Y1363218D01*
G01X2690085Y1353820D01*
G01X2693133Y1344422D01*
G01X2699483Y1338326D01*
G01X2708627Y1335278D01*
G01X2714977Y1335278D01*
G01X2724121Y1338326D01*
G01X2730471Y1344422D01*
G01X2733519Y1353820D01*
G01X2733519Y1363218D01*
G01X2730471Y1372362D01*
G01X2727169Y1375410D01*
G01X2721073Y1378458D01*
G01X2668495Y1267968D02*
G01X2668495Y1298956D01*
G01X2696181Y1302004D01*
G01X2693133Y1298956D01*
G01X2690085Y1289812D01*
G01X2690085Y1280414D01*
G01X2693133Y1271016D01*
G01X2699483Y1264920D01*
G01X2708627Y1261872D01*
G01X2714977Y1261872D01*
G01X2724121Y1264920D01*
G01X2730471Y1271016D01*
G01X2733519Y1280414D01*
G01X2733519Y1289812D01*
G01X2730471Y1298956D01*
G01X2727169Y1302004D01*
G01X2721073Y1305052D01*
G01X-4233481Y-1408176D02*
G01X-4227131Y-1411224D01*
G01X-4221035Y-1417574D01*
G01X-4217987Y-1423670D01*
G01X-4217987Y-1436116D01*
G01X-4221035Y-1442212D01*
G01X-4227131Y-1448562D01*
G01X-4233481Y-1451610D01*
G01X-4242625Y-1454658D01*
G01X-4258119Y-1454658D01*
G01X-4267517Y-1451610D01*
G01X-4273613Y-1448562D01*
G01X-4279963Y-1442212D01*
G01X-4283011Y-1436116D01*
G01X-4283011Y-1423670D01*
G01X-4279963Y-1417574D01*
G01X-4273613Y-1411224D01*
G01X-4267517Y-1408176D01*
G01X-4217987Y-1340866D02*
G01X-4217987Y-1371854D01*
G01X-4245673Y-1374902D01*
G01X-4242625Y-1371854D01*
G01X-4239577Y-1362710D01*
G01X-4239577Y-1353312D01*
G01X-4242625Y-1343914D01*
G01X-4248975Y-1337818D01*
G01X-4258119Y-1334770D01*
G01X-4264469Y-1334770D01*
G01X-4273613Y-1337818D01*
G01X-4279963Y-1343914D01*
G01X-4283011Y-1353312D01*
G01X-4283011Y-1362710D01*
G01X-4279963Y-1371854D01*
G01X-4276661Y-1374902D01*
G01X-4270565Y-1377950D01*
G01X-4217987Y-1261364D02*
G01X-4283011Y-1292352D01*
G01X-4217987Y-1304544D02*
G01X-4217987Y-1261364D01*
G01X-2684081Y-1408176D02*
G01X-2677731Y-1411224D01*
G01X-2671635Y-1417574D01*
G01X-2668587Y-1423670D01*
G01X-2668587Y-1436116D01*
G01X-2671635Y-1442212D01*
G01X-2677731Y-1448562D01*
G01X-2684081Y-1451610D01*
G01X-2693225Y-1454658D01*
G01X-2708719Y-1454658D01*
G01X-2718117Y-1451610D01*
G01X-2724213Y-1448562D01*
G01X-2730563Y-1442212D01*
G01X-2733611Y-1436116D01*
G01X-2733611Y-1423670D01*
G01X-2730563Y-1417574D01*
G01X-2724213Y-1411224D01*
G01X-2718117Y-1408176D01*
G01X-2668587Y-1340866D02*
G01X-2668587Y-1371854D01*
G01X-2696273Y-1374902D01*
G01X-2693225Y-1371854D01*
G01X-2690177Y-1362710D01*
G01X-2690177Y-1353312D01*
G01X-2693225Y-1343914D01*
G01X-2699575Y-1337818D01*
G01X-2708719Y-1334770D01*
G01X-2715069Y-1334770D01*
G01X-2724213Y-1337818D01*
G01X-2730563Y-1343914D01*
G01X-2733611Y-1353312D01*
G01X-2733611Y-1362710D01*
G01X-2730563Y-1371854D01*
G01X-2727261Y-1374902D01*
G01X-2721165Y-1377950D01*
G01X-2668587Y-1289304D02*
G01X-2671635Y-1298448D01*
G01X-2677731Y-1301496D01*
G01X-2684081Y-1301496D01*
G01X-2690177Y-1298448D01*
G01X-2693225Y-1292352D01*
G01X-2696273Y-1279906D01*
G01X-2699575Y-1270508D01*
G01X-2705671Y-1264412D01*
G01X-2711767Y-1261364D01*
G01X-2721165Y-1261364D01*
G01X-2727261Y-1264412D01*
G01X-2730563Y-1267460D01*
G01X-2733611Y-1276858D01*
G01X-2733611Y-1289304D01*
G01X-2730563Y-1298448D01*
G01X-2727261Y-1301496D01*
G01X-2721165Y-1304544D01*
G01X-2711767Y-1304544D01*
G01X-2705671Y-1301496D01*
G01X-2699575Y-1295400D01*
G01X-2696273Y-1286002D01*
G01X-2693225Y-1273810D01*
G01X-2690177Y-1267460D01*
G01X-2684081Y-1264412D01*
G01X-2677731Y-1264412D01*
G01X-2671635Y-1267460D01*
G01X-2668587Y-1276858D01*
G01X-2668587Y-1289304D01*
G01X-3458781Y-1408176D02*
G01X-3452431Y-1411224D01*
G01X-3446335Y-1417574D01*
G01X-3443287Y-1423670D01*
G01X-3443287Y-1436116D01*
G01X-3446335Y-1442212D01*
G01X-3452431Y-1448562D01*
G01X-3458781Y-1451610D01*
G01X-3467925Y-1454658D01*
G01X-3483419Y-1454658D01*
G01X-3492817Y-1451610D01*
G01X-3498913Y-1448562D01*
G01X-3505263Y-1442212D01*
G01X-3508311Y-1436116D01*
G01X-3508311Y-1423670D01*
G01X-3505263Y-1417574D01*
G01X-3498913Y-1411224D01*
G01X-3492817Y-1408176D01*
G01X-3443287Y-1340866D02*
G01X-3443287Y-1371854D01*
G01X-3470973Y-1374902D01*
G01X-3467925Y-1371854D01*
G01X-3464877Y-1362710D01*
G01X-3464877Y-1353312D01*
G01X-3467925Y-1343914D01*
G01X-3474275Y-1337818D01*
G01X-3483419Y-1334770D01*
G01X-3489769Y-1334770D01*
G01X-3498913Y-1337818D01*
G01X-3505263Y-1343914D01*
G01X-3508311Y-1353312D01*
G01X-3508311Y-1362710D01*
G01X-3505263Y-1371854D01*
G01X-3501961Y-1374902D01*
G01X-3495865Y-1377950D01*
G01X-3464877Y-1264412D02*
G01X-3474275Y-1267460D01*
G01X-3480371Y-1273810D01*
G01X-3483419Y-1282954D01*
G01X-3483419Y-1286002D01*
G01X-3480371Y-1295400D01*
G01X-3474275Y-1301496D01*
G01X-3464877Y-1304544D01*
G01X-3461829Y-1304544D01*
G01X-3452431Y-1301496D01*
G01X-3446335Y-1295400D01*
G01X-3443287Y-1286002D01*
G01X-3443287Y-1282954D01*
G01X-3446335Y-1273810D01*
G01X-3452431Y-1267460D01*
G01X-3464877Y-1264412D01*
G01X-3480371Y-1264412D01*
G01X-3495865Y-1267460D01*
G01X-3505263Y-1273810D01*
G01X-3508311Y-1282954D01*
G01X-3508311Y-1289304D01*
G01X-3505263Y-1298448D01*
G01X-3498913Y-1301496D01*
G01X-2523074Y-1482852D02*
G01X-2520026Y-1476502D01*
G01X-2513676Y-1470406D01*
G01X-2507580Y-1467358D01*
G01X-2495134Y-1467358D01*
G01X-2489038Y-1470406D01*
G01X-2482688Y-1476502D01*
G01X-2479640Y-1482852D01*
G01X-2476592Y-1491996D01*
G01X-2476592Y-1507490D01*
G01X-2479640Y-1516888D01*
G01X-2482688Y-1522984D01*
G01X-2489038Y-1529334D01*
G01X-2495134Y-1532382D01*
G01X-2507580Y-1532382D01*
G01X-2513676Y-1529334D01*
G01X-2520026Y-1522984D01*
G01X-2523074Y-1516888D01*
G01X-2590384Y-1476502D02*
G01X-2587336Y-1470406D01*
G01X-2577938Y-1467358D01*
G01X-2571842Y-1467358D01*
G01X-2562444Y-1470406D01*
G01X-2556348Y-1479804D01*
G01X-2553300Y-1495044D01*
G01X-2553300Y-1510538D01*
G01X-2556348Y-1522984D01*
G01X-2562444Y-1529334D01*
G01X-2571842Y-1532382D01*
G01X-2574890Y-1532382D01*
G01X-2584034Y-1529334D01*
G01X-2590384Y-1522984D01*
G01X-2593432Y-1513840D01*
G01X-2593432Y-1510538D01*
G01X-2590384Y-1501394D01*
G01X-2584034Y-1495044D01*
G01X-2574890Y-1491996D01*
G01X-2571842Y-1491996D01*
G01X-2562444Y-1495044D01*
G01X-2556348Y-1501394D01*
G01X-2553300Y-1510538D01*
G01X-2642200Y-1467358D02*
G01X-2632802Y-1470406D01*
G01X-2626706Y-1479804D01*
G01X-2623658Y-1495044D01*
G01X-2623658Y-1504442D01*
G01X-2626706Y-1519936D01*
G01X-2632802Y-1529334D01*
G01X-2642200Y-1532382D01*
G01X-2648296Y-1532382D01*
G01X-2657694Y-1529334D01*
G01X-2663790Y-1519936D01*
G01X-2666838Y-1504442D01*
G01X-2666838Y-1495044D01*
G01X-2663790Y-1479804D01*
G01X-2657694Y-1470406D01*
G01X-2648296Y-1467358D01*
G01X-2642200Y-1467358D01*
G01X-3297774Y-1482852D02*
G01X-3294726Y-1476502D01*
G01X-3288376Y-1470406D01*
G01X-3282280Y-1467358D01*
G01X-3269834Y-1467358D01*
G01X-3263738Y-1470406D01*
G01X-3257388Y-1476502D01*
G01X-3254340Y-1482852D01*
G01X-3251292Y-1491996D01*
G01X-3251292Y-1507490D01*
G01X-3254340Y-1516888D01*
G01X-3257388Y-1522984D01*
G01X-3263738Y-1529334D01*
G01X-3269834Y-1532382D01*
G01X-3282280Y-1532382D01*
G01X-3288376Y-1529334D01*
G01X-3294726Y-1522984D01*
G01X-3297774Y-1516888D01*
G01X-3365084Y-1476502D02*
G01X-3362036Y-1470406D01*
G01X-3352638Y-1467358D01*
G01X-3346542Y-1467358D01*
G01X-3337144Y-1470406D01*
G01X-3331048Y-1479804D01*
G01X-3328000Y-1495044D01*
G01X-3328000Y-1510538D01*
G01X-3331048Y-1522984D01*
G01X-3337144Y-1529334D01*
G01X-3346542Y-1532382D01*
G01X-3349590Y-1532382D01*
G01X-3358734Y-1529334D01*
G01X-3365084Y-1522984D01*
G01X-3368132Y-1513840D01*
G01X-3368132Y-1510538D01*
G01X-3365084Y-1501394D01*
G01X-3358734Y-1495044D01*
G01X-3349590Y-1491996D01*
G01X-3346542Y-1491996D01*
G01X-3337144Y-1495044D01*
G01X-3331048Y-1501394D01*
G01X-3328000Y-1510538D01*
G01X-3401406Y-1482852D02*
G01X-3401406Y-1479804D01*
G01X-3404454Y-1473454D01*
G01X-3407502Y-1470406D01*
G01X-3413598Y-1467358D01*
G01X-3426044Y-1467358D01*
G01X-3432394Y-1470406D01*
G01X-3435442Y-1473454D01*
G01X-3438490Y-1479804D01*
G01X-3438490Y-1485900D01*
G01X-3435442Y-1491996D01*
G01X-3429092Y-1501394D01*
G01X-3398358Y-1532382D01*
G01X-3441538Y-1532382D01*
G01X4084320Y905002D02*
G01X4090670Y901954D01*
G01X4096766Y895604D01*
G01X4099814Y889508D01*
G01X4099814Y877062D01*
G01X4096766Y870966D01*
G01X4090670Y864616D01*
G01X4084320Y861568D01*
G01X4075176Y858520D01*
G01X4059682Y858520D01*
G01X4050284Y861568D01*
G01X4044188Y864616D01*
G01X4037838Y870966D01*
G01X4034790Y877062D01*
G01X4034790Y889508D01*
G01X4037838Y895604D01*
G01X4044188Y901954D01*
G01X4050284Y905002D01*
G01X4090670Y972312D02*
G01X4096766Y969264D01*
G01X4099814Y959866D01*
G01X4099814Y953770D01*
G01X4096766Y944372D01*
G01X4087368Y938276D01*
G01X4072128Y935228D01*
G01X4056634Y935228D01*
G01X4044188Y938276D01*
G01X4037838Y944372D01*
G01X4034790Y953770D01*
G01X4034790Y956818D01*
G01X4037838Y965962D01*
G01X4044188Y972312D01*
G01X4053332Y975360D01*
G01X4056634Y975360D01*
G01X4065778Y972312D01*
G01X4072128Y965962D01*
G01X4075176Y956818D01*
G01X4075176Y953770D01*
G01X4072128Y944372D01*
G01X4065778Y938276D01*
G01X4056634Y935228D01*
G01X4099814Y1011682D02*
G01X4099814Y1045718D01*
G01X4075176Y1027176D01*
G01X4075176Y1036320D01*
G01X4072128Y1042670D01*
G01X4068826Y1045718D01*
G01X4059682Y1048766D01*
G01X4053332Y1048766D01*
G01X4044188Y1045718D01*
G01X4037838Y1039622D01*
G01X4034790Y1030224D01*
G01X4034790Y1020826D01*
G01X4037838Y1011682D01*
G01X4041140Y1008634D01*
G01X4047236Y1005586D01*
G01X2522982Y1483360D02*
G01X2519934Y1477010D01*
G01X2513584Y1470914D01*
G01X2507488Y1467866D01*
G01X2495042Y1467866D01*
G01X2488946Y1470914D01*
G01X2482596Y1477010D01*
G01X2479548Y1483360D01*
G01X2476500Y1492504D01*
G01X2476500Y1507998D01*
G01X2479548Y1517396D01*
G01X2482596Y1523492D01*
G01X2488946Y1529842D01*
G01X2495042Y1532890D01*
G01X2507488Y1532890D01*
G01X2513584Y1529842D01*
G01X2519934Y1523492D01*
G01X2522982Y1517396D01*
G01X2590292Y1477010D02*
G01X2587244Y1470914D01*
G01X2577846Y1467866D01*
G01X2571750Y1467866D01*
G01X2562352Y1470914D01*
G01X2556256Y1480312D01*
G01X2553208Y1495552D01*
G01X2553208Y1511046D01*
G01X2556256Y1523492D01*
G01X2562352Y1529842D01*
G01X2571750Y1532890D01*
G01X2574798Y1532890D01*
G01X2583942Y1529842D01*
G01X2590292Y1523492D01*
G01X2593340Y1514348D01*
G01X2593340Y1511046D01*
G01X2590292Y1501902D01*
G01X2583942Y1495552D01*
G01X2574798Y1492504D01*
G01X2571750Y1492504D01*
G01X2562352Y1495552D01*
G01X2556256Y1501902D01*
G01X2553208Y1511046D01*
G01X2666746Y1467866D02*
G01X2635758Y1532890D01*
G01X2623566Y1467866D02*
G01X2666746Y1467866D01*
G01X3458689Y1408684D02*
G01X3452339Y1411732D01*
G01X3446243Y1418082D01*
G01X3443195Y1424178D01*
G01X3443195Y1436624D01*
G01X3446243Y1442720D01*
G01X3452339Y1449070D01*
G01X3458689Y1452118D01*
G01X3467833Y1455166D01*
G01X3483327Y1455166D01*
G01X3492725Y1452118D01*
G01X3498821Y1449070D01*
G01X3505171Y1442720D01*
G01X3508219Y1436624D01*
G01X3508219Y1424178D01*
G01X3505171Y1418082D01*
G01X3498821Y1411732D01*
G01X3492725Y1408684D01*
G01X3452339Y1341374D02*
G01X3446243Y1344422D01*
G01X3443195Y1353820D01*
G01X3443195Y1359916D01*
G01X3446243Y1369314D01*
G01X3455641Y1375410D01*
G01X3470881Y1378458D01*
G01X3486375Y1378458D01*
G01X3498821Y1375410D01*
G01X3505171Y1369314D01*
G01X3508219Y1359916D01*
G01X3508219Y1356868D01*
G01X3505171Y1347724D01*
G01X3498821Y1341374D01*
G01X3489677Y1338326D01*
G01X3486375Y1338326D01*
G01X3477231Y1341374D01*
G01X3470881Y1347724D01*
G01X3467833Y1356868D01*
G01X3467833Y1359916D01*
G01X3470881Y1369314D01*
G01X3477231Y1375410D01*
G01X3486375Y1378458D01*
G01X3443195Y1292860D02*
G01X3446243Y1302004D01*
G01X3452339Y1305052D01*
G01X3458689Y1305052D01*
G01X3464785Y1302004D01*
G01X3467833Y1295908D01*
G01X3470881Y1283462D01*
G01X3474183Y1274064D01*
G01X3480279Y1267968D01*
G01X3486375Y1264920D01*
G01X3495773Y1264920D01*
G01X3501869Y1267968D01*
G01X3505171Y1271016D01*
G01X3508219Y1280414D01*
G01X3508219Y1292860D01*
G01X3505171Y1302004D01*
G01X3501869Y1305052D01*
G01X3495773Y1308100D01*
G01X3486375Y1308100D01*
G01X3480279Y1305052D01*
G01X3474183Y1298956D01*
G01X3470881Y1289558D01*
G01X3467833Y1277366D01*
G01X3464785Y1271016D01*
G01X3458689Y1267968D01*
G01X3452339Y1267968D01*
G01X3446243Y1271016D01*
G01X3443195Y1280414D01*
G01X3443195Y1292860D01*
G01X3297682Y1483360D02*
G01X3294634Y1477010D01*
G01X3288284Y1470914D01*
G01X3282188Y1467866D01*
G01X3269742Y1467866D01*
G01X3263646Y1470914D01*
G01X3257296Y1477010D01*
G01X3254248Y1483360D01*
G01X3251200Y1492504D01*
G01X3251200Y1507998D01*
G01X3254248Y1517396D01*
G01X3257296Y1523492D01*
G01X3263646Y1529842D01*
G01X3269742Y1532890D01*
G01X3282188Y1532890D01*
G01X3288284Y1529842D01*
G01X3294634Y1523492D01*
G01X3297682Y1517396D01*
G01X3364992Y1477010D02*
G01X3361944Y1470914D01*
G01X3352546Y1467866D01*
G01X3346450Y1467866D01*
G01X3337052Y1470914D01*
G01X3330956Y1480312D01*
G01X3327908Y1495552D01*
G01X3327908Y1511046D01*
G01X3330956Y1523492D01*
G01X3337052Y1529842D01*
G01X3346450Y1532890D01*
G01X3349498Y1532890D01*
G01X3358642Y1529842D01*
G01X3364992Y1523492D01*
G01X3368040Y1514348D01*
G01X3368040Y1511046D01*
G01X3364992Y1501902D01*
G01X3358642Y1495552D01*
G01X3349498Y1492504D01*
G01X3346450Y1492504D01*
G01X3337052Y1495552D01*
G01X3330956Y1501902D01*
G01X3327908Y1511046D01*
G01X3438398Y1489456D02*
G01X3435350Y1498854D01*
G01X3429000Y1504950D01*
G01X3419856Y1507998D01*
G01X3416808Y1507998D01*
G01X3407410Y1504950D01*
G01X3401314Y1498854D01*
G01X3398266Y1489456D01*
G01X3398266Y1486408D01*
G01X3401314Y1477010D01*
G01X3407410Y1470914D01*
G01X3416808Y1467866D01*
G01X3419856Y1467866D01*
G01X3429000Y1470914D01*
G01X3435350Y1477010D01*
G01X3438398Y1489456D01*
G01X3438398Y1504950D01*
G01X3435350Y1520444D01*
G01X3429000Y1529842D01*
G01X3419856Y1532890D01*
G01X3413506Y1532890D01*
G01X3404362Y1529842D01*
G01X3401314Y1523492D01*
G01X4233389Y1408684D02*
G01X4227039Y1411732D01*
G01X4220943Y1418082D01*
G01X4217895Y1424178D01*
G01X4217895Y1436624D01*
G01X4220943Y1442720D01*
G01X4227039Y1449070D01*
G01X4233389Y1452118D01*
G01X4242533Y1455166D01*
G01X4258027Y1455166D01*
G01X4267425Y1452118D01*
G01X4273521Y1449070D01*
G01X4279871Y1442720D01*
G01X4282919Y1436624D01*
G01X4282919Y1424178D01*
G01X4279871Y1418082D01*
G01X4273521Y1411732D01*
G01X4267425Y1408684D01*
G01X4217895Y1335278D02*
G01X4282919Y1366266D01*
G01X4217895Y1378458D02*
G01X4217895Y1335278D01*
G01X4217895Y1286510D02*
G01X4220943Y1295908D01*
G01X4230341Y1302004D01*
G01X4245581Y1305052D01*
G01X4254979Y1305052D01*
G01X4270473Y1302004D01*
G01X4279871Y1295908D01*
G01X4282919Y1286510D01*
G01X4282919Y1280414D01*
G01X4279871Y1271016D01*
G01X4270473Y1264920D01*
G01X4254979Y1261872D01*
G01X4245581Y1261872D01*
G01X4230341Y1264920D01*
G01X4220943Y1271016D01*
G01X4217895Y1280414D01*
G01X4217895Y1286510D01*
G01X4072382Y1483360D02*
G01X4069334Y1477010D01*
G01X4062984Y1470914D01*
G01X4056888Y1467866D01*
G01X4044442Y1467866D01*
G01X4038346Y1470914D01*
G01X4031996Y1477010D01*
G01X4028948Y1483360D01*
G01X4025900Y1492504D01*
G01X4025900Y1507998D01*
G01X4028948Y1517396D01*
G01X4031996Y1523492D01*
G01X4038346Y1529842D01*
G01X4044442Y1532890D01*
G01X4056888Y1532890D01*
G01X4062984Y1529842D01*
G01X4069334Y1523492D01*
G01X4072382Y1517396D01*
G01X4145788Y1467866D02*
G01X4114800Y1532890D01*
G01X4102608Y1467866D02*
G01X4145788Y1467866D01*
G01X4176014Y1480312D02*
G01X4182110Y1477010D01*
G01X4191254Y1467866D01*
G01X4191254Y1532890D01*
G01X-4084412Y-904494D02*
G01X-4090762Y-901446D01*
G01X-4096858Y-895096D01*
G01X-4099906Y-889000D01*
G01X-4099906Y-876554D01*
G01X-4096858Y-870458D01*
G01X-4090762Y-864108D01*
G01X-4084412Y-861060D01*
G01X-4075268Y-858012D01*
G01X-4059774Y-858012D01*
G01X-4050376Y-861060D01*
G01X-4044280Y-864108D01*
G01X-4037930Y-870458D01*
G01X-4034882Y-876554D01*
G01X-4034882Y-889000D01*
G01X-4037930Y-895096D01*
G01X-4044280Y-901446D01*
G01X-4050376Y-904494D01*
G01X-4099906Y-977900D02*
G01X-4034882Y-946912D01*
G01X-4099906Y-934720D02*
G01X-4099906Y-977900D01*
G01X-4099906Y-1045210D02*
G01X-4099906Y-1014222D01*
G01X-4072220Y-1011174D01*
G01X-4075268Y-1014222D01*
G01X-4078316Y-1023366D01*
G01X-4078316Y-1032764D01*
G01X-4075268Y-1042162D01*
G01X-4068918Y-1048258D01*
G01X-4059774Y-1051306D01*
G01X-4053424Y-1051306D01*
G01X-4044280Y-1048258D01*
G01X-4037930Y-1042162D01*
G01X-4034882Y-1032764D01*
G01X-4034882Y-1023366D01*
G01X-4037930Y-1014222D01*
G01X-4041232Y-1011174D01*
G01X-4047328Y-1008126D01*
G01X-4072474Y-1482852D02*
G01X-4069426Y-1476502D01*
G01X-4063076Y-1470406D01*
G01X-4056980Y-1467358D01*
G01X-4044534Y-1467358D01*
G01X-4038438Y-1470406D01*
G01X-4032088Y-1476502D01*
G01X-4029040Y-1482852D01*
G01X-4025992Y-1491996D01*
G01X-4025992Y-1507490D01*
G01X-4029040Y-1516888D01*
G01X-4032088Y-1522984D01*
G01X-4038438Y-1529334D01*
G01X-4044534Y-1532382D01*
G01X-4056980Y-1532382D01*
G01X-4063076Y-1529334D01*
G01X-4069426Y-1522984D01*
G01X-4072474Y-1516888D01*
G01X-4145880Y-1467358D02*
G01X-4114892Y-1532382D01*
G01X-4102700Y-1467358D02*
G01X-4145880Y-1467358D01*
G01X-4213190Y-1476502D02*
G01X-4210142Y-1470406D01*
G01X-4200744Y-1467358D01*
G01X-4194648Y-1467358D01*
G01X-4185250Y-1470406D01*
G01X-4179154Y-1479804D01*
G01X-4176106Y-1495044D01*
G01X-4176106Y-1510538D01*
G01X-4179154Y-1522984D01*
G01X-4185250Y-1529334D01*
G01X-4194648Y-1532382D01*
G01X-4197696Y-1532382D01*
G01X-4206840Y-1529334D01*
G01X-4213190Y-1522984D01*
G01X-4216238Y-1513840D01*
G01X-4216238Y-1510538D01*
G01X-4213190Y-1501394D01*
G01X-4206840Y-1495044D01*
G01X-4197696Y-1491996D01*
G01X-4194648Y-1491996D01*
G01X-4185250Y-1495044D01*
G01X-4179154Y-1501394D01*
G01X-4176106Y-1510538D01*
G01X2160695Y3218647D02*
G01X2163743Y3224743D01*
G01X2169839Y3231093D01*
G01X2176189Y3234141D01*
G01X2185333Y3237189D01*
G01X2200827Y3237189D01*
G01X2210225Y3234141D01*
G01X2216321Y3231093D01*
G01X2222671Y3224743D01*
G01X2225719Y3218647D01*
G01X2225719Y3206201D01*
G01X2222671Y3200105D01*
G01X2216321Y3193755D01*
G01X2210225Y3190707D01*
G01X2200827Y3187659D01*
G01X2185333Y3187659D01*
G01X2176189Y3190707D01*
G01X2169839Y3193755D01*
G01X2163743Y3200105D01*
G01X2160695Y3206201D01*
G01X2160695Y3218647D01*
G01X2213273Y3209249D02*
G01X2231815Y3190707D01*
G01X2173141Y3157433D02*
G01X2169839Y3151337D01*
G01X2160695Y3142193D01*
G01X2225719Y3142193D01*
G01X2935395Y3218647D02*
G01X2938443Y3224743D01*
G01X2944539Y3231093D01*
G01X2950889Y3234141D01*
G01X2960033Y3237189D01*
G01X2975527Y3237189D01*
G01X2984925Y3234141D01*
G01X2991021Y3231093D01*
G01X2997371Y3224743D01*
G01X3000419Y3218647D01*
G01X3000419Y3206201D01*
G01X2997371Y3200105D01*
G01X2991021Y3193755D01*
G01X2984925Y3190707D01*
G01X2975527Y3187659D01*
G01X2960033Y3187659D01*
G01X2950889Y3190707D01*
G01X2944539Y3193755D01*
G01X2938443Y3200105D01*
G01X2935395Y3206201D01*
G01X2935395Y3218647D01*
G01X2987973Y3209249D02*
G01X3006515Y3190707D01*
G01X2935395Y3151337D02*
G01X2935395Y3117301D01*
G01X2960033Y3135843D01*
G01X2960033Y3126699D01*
G01X2963081Y3120349D01*
G01X2966383Y3117301D01*
G01X2975527Y3114253D01*
G01X2981877Y3114253D01*
G01X2991021Y3117301D01*
G01X2997371Y3123397D01*
G01X3000419Y3132795D01*
G01X3000419Y3142193D01*
G01X2997371Y3151337D01*
G01X2994069Y3154385D01*
G01X2987973Y3157433D01*
G01X3710095Y3218647D02*
G01X3713143Y3224743D01*
G01X3719239Y3231093D01*
G01X3725589Y3234141D01*
G01X3734733Y3237189D01*
G01X3750227Y3237189D01*
G01X3759625Y3234141D01*
G01X3765721Y3231093D01*
G01X3772071Y3224743D01*
G01X3775119Y3218647D01*
G01X3775119Y3206201D01*
G01X3772071Y3200105D01*
G01X3765721Y3193755D01*
G01X3759625Y3190707D01*
G01X3750227Y3187659D01*
G01X3734733Y3187659D01*
G01X3725589Y3190707D01*
G01X3719239Y3193755D01*
G01X3713143Y3200105D01*
G01X3710095Y3206201D01*
G01X3710095Y3218647D01*
G01X3762673Y3209249D02*
G01X3781215Y3190707D01*
G01X3710095Y3120349D02*
G01X3710095Y3151337D01*
G01X3737781Y3154385D01*
G01X3734733Y3151337D01*
G01X3731685Y3142193D01*
G01X3731685Y3132795D01*
G01X3734733Y3123397D01*
G01X3741083Y3117301D01*
G01X3750227Y3114253D01*
G01X3756577Y3114253D01*
G01X3765721Y3117301D01*
G01X3772071Y3123397D01*
G01X3775119Y3132795D01*
G01X3775119Y3142193D01*
G01X3772071Y3151337D01*
G01X3768769Y3154385D01*
G01X3762673Y3157433D01*
G01X-3059005Y3218647D02*
G01X-3055957Y3224743D01*
G01X-3049861Y3231093D01*
G01X-3043511Y3234141D01*
G01X-3034367Y3237189D01*
G01X-3018873Y3237189D01*
G01X-3009475Y3234141D01*
G01X-3003379Y3231093D01*
G01X-2997029Y3224743D01*
G01X-2993981Y3218647D01*
G01X-2993981Y3206201D01*
G01X-2997029Y3200105D01*
G01X-3003379Y3193755D01*
G01X-3009475Y3190707D01*
G01X-3018873Y3187659D01*
G01X-3034367Y3187659D01*
G01X-3043511Y3190707D01*
G01X-3049861Y3193755D01*
G01X-3055957Y3200105D01*
G01X-3059005Y3206201D01*
G01X-3059005Y3218647D01*
G01X-3006427Y3209249D02*
G01X-2987885Y3190707D01*
G01X-3059005Y3142193D02*
G01X-3055957Y3151337D01*
G01X-3049861Y3154385D01*
G01X-3043511Y3154385D01*
G01X-3037415Y3151337D01*
G01X-3034367Y3145241D01*
G01X-3031319Y3132795D01*
G01X-3028017Y3123397D01*
G01X-3021921Y3117301D01*
G01X-3015825Y3114253D01*
G01X-3006427Y3114253D01*
G01X-3000331Y3117301D01*
G01X-2997029Y3120349D01*
G01X-2993981Y3129747D01*
G01X-2993981Y3142193D01*
G01X-2997029Y3151337D01*
G01X-3000331Y3154385D01*
G01X-3006427Y3157433D01*
G01X-3015825Y3157433D01*
G01X-3021921Y3154385D01*
G01X-3028017Y3148289D01*
G01X-3031319Y3138891D01*
G01X-3034367Y3126699D01*
G01X-3037415Y3120349D01*
G01X-3043511Y3117301D01*
G01X-3049861Y3117301D01*
G01X-3055957Y3120349D01*
G01X-3059005Y3129747D01*
G01X-3059005Y3142193D01*
G01X-3833705Y3218647D02*
G01X-3830657Y3224743D01*
G01X-3824561Y3231093D01*
G01X-3818211Y3234141D01*
G01X-3809067Y3237189D01*
G01X-3793573Y3237189D01*
G01X-3784175Y3234141D01*
G01X-3778079Y3231093D01*
G01X-3771729Y3224743D01*
G01X-3768681Y3218647D01*
G01X-3768681Y3206201D01*
G01X-3771729Y3200105D01*
G01X-3778079Y3193755D01*
G01X-3784175Y3190707D01*
G01X-3793573Y3187659D01*
G01X-3809067Y3187659D01*
G01X-3818211Y3190707D01*
G01X-3824561Y3193755D01*
G01X-3830657Y3200105D01*
G01X-3833705Y3206201D01*
G01X-3833705Y3218647D01*
G01X-3781127Y3209249D02*
G01X-3762585Y3190707D01*
G01X-3812115Y3117301D02*
G01X-3802717Y3120349D01*
G01X-3796621Y3126699D01*
G01X-3793573Y3135843D01*
G01X-3793573Y3138891D01*
G01X-3796621Y3148289D01*
G01X-3802717Y3154385D01*
G01X-3812115Y3157433D01*
G01X-3815163Y3157433D01*
G01X-3824561Y3154385D01*
G01X-3830657Y3148289D01*
G01X-3833705Y3138891D01*
G01X-3833705Y3135843D01*
G01X-3830657Y3126699D01*
G01X-3824561Y3120349D01*
G01X-3812115Y3117301D01*
G01X-3796621Y3117301D01*
G01X-3781127Y3120349D01*
G01X-3771729Y3126699D01*
G01X-3768681Y3135843D01*
G01X-3768681Y3142193D01*
G01X-3771729Y3151337D01*
G01X-3778079Y3154385D01*
G01X-4608405Y3218647D02*
G01X-4605357Y3224743D01*
G01X-4599261Y3231093D01*
G01X-4592911Y3234141D01*
G01X-4583767Y3237189D01*
G01X-4568273Y3237189D01*
G01X-4558875Y3234141D01*
G01X-4552779Y3231093D01*
G01X-4546429Y3224743D01*
G01X-4543381Y3218647D01*
G01X-4543381Y3206201D01*
G01X-4546429Y3200105D01*
G01X-4552779Y3193755D01*
G01X-4558875Y3190707D01*
G01X-4568273Y3187659D01*
G01X-4583767Y3187659D01*
G01X-4592911Y3190707D01*
G01X-4599261Y3193755D01*
G01X-4605357Y3200105D01*
G01X-4608405Y3206201D01*
G01X-4608405Y3218647D01*
G01X-4555827Y3209249D02*
G01X-4537285Y3190707D01*
G01X-4595959Y3157433D02*
G01X-4599261Y3151337D01*
G01X-4608405Y3142193D01*
G01X-4543381Y3142193D01*
G01X-4595959Y3111967D02*
G01X-4599261Y3105871D01*
G01X-4608405Y3096727D01*
G01X-4543381Y3096727D01*
G01X3059005Y-3218647D02*
G01X3055957Y-3224743D01*
G01X3049861Y-3231093D01*
G01X3043511Y-3234141D01*
G01X3034367Y-3237189D01*
G01X3018873Y-3237189D01*
G01X3009475Y-3234141D01*
G01X3003379Y-3231093D01*
G01X2997029Y-3224743D01*
G01X2993981Y-3218647D01*
G01X2993981Y-3206201D01*
G01X2997029Y-3200105D01*
G01X3003379Y-3193755D01*
G01X3009475Y-3190707D01*
G01X3018873Y-3187659D01*
G01X3034367Y-3187659D01*
G01X3043511Y-3190707D01*
G01X3049861Y-3193755D01*
G01X3055957Y-3200105D01*
G01X3059005Y-3206201D01*
G01X3059005Y-3218647D01*
G01X3006427Y-3209249D02*
G01X2987885Y-3190707D01*
G01X3046559Y-3157433D02*
G01X3049861Y-3151337D01*
G01X3059005Y-3142193D01*
G01X2993981Y-3142193D01*
G01X3059005Y-3081233D02*
G01X3015825Y-3111967D01*
G01X3015825Y-3065739D01*
G01X3059005Y-3081233D02*
G01X2993981Y-3081233D01*
G01X3833705Y-3218647D02*
G01X3830657Y-3224743D01*
G01X3824561Y-3231093D01*
G01X3818211Y-3234141D01*
G01X3809067Y-3237189D01*
G01X3793573Y-3237189D01*
G01X3784175Y-3234141D01*
G01X3778079Y-3231093D01*
G01X3771729Y-3224743D01*
G01X3768681Y-3218647D01*
G01X3768681Y-3206201D01*
G01X3771729Y-3200105D01*
G01X3778079Y-3193755D01*
G01X3784175Y-3190707D01*
G01X3793573Y-3187659D01*
G01X3809067Y-3187659D01*
G01X3818211Y-3190707D01*
G01X3824561Y-3193755D01*
G01X3830657Y-3200105D01*
G01X3833705Y-3206201D01*
G01X3833705Y-3218647D01*
G01X3781127Y-3209249D02*
G01X3762585Y-3190707D01*
G01X3821259Y-3157433D02*
G01X3824561Y-3151337D01*
G01X3833705Y-3142193D01*
G01X3768681Y-3142193D01*
G01X3833705Y-3074883D02*
G01X3833705Y-3105871D01*
G01X3806019Y-3108919D01*
G01X3809067Y-3105871D01*
G01X3812115Y-3096727D01*
G01X3812115Y-3087329D01*
G01X3809067Y-3077931D01*
G01X3802717Y-3071835D01*
G01X3793573Y-3068787D01*
G01X3787223Y-3068787D01*
G01X3778079Y-3071835D01*
G01X3771729Y-3077931D01*
G01X3768681Y-3087329D01*
G01X3768681Y-3096727D01*
G01X3771729Y-3105871D01*
G01X3775031Y-3108919D01*
G01X3781127Y-3111967D01*
G01X4608405Y-3218647D02*
G01X4605357Y-3224743D01*
G01X4599261Y-3231093D01*
G01X4592911Y-3234141D01*
G01X4583767Y-3237189D01*
G01X4568273Y-3237189D01*
G01X4558875Y-3234141D01*
G01X4552779Y-3231093D01*
G01X4546429Y-3224743D01*
G01X4543381Y-3218647D01*
G01X4543381Y-3206201D01*
G01X4546429Y-3200105D01*
G01X4552779Y-3193755D01*
G01X4558875Y-3190707D01*
G01X4568273Y-3187659D01*
G01X4583767Y-3187659D01*
G01X4592911Y-3190707D01*
G01X4599261Y-3193755D01*
G01X4605357Y-3200105D01*
G01X4608405Y-3206201D01*
G01X4608405Y-3218647D01*
G01X4555827Y-3209249D02*
G01X4537285Y-3190707D01*
G01X4595959Y-3157433D02*
G01X4599261Y-3151337D01*
G01X4608405Y-3142193D01*
G01X4543381Y-3142193D01*
G01X4608405Y-3068787D02*
G01X4543381Y-3099775D01*
G01X4608405Y-3111967D02*
G01X4608405Y-3068787D01*
G01X-3710187Y-3218139D02*
G01X-3713235Y-3224235D01*
G01X-3719331Y-3230585D01*
G01X-3725681Y-3233633D01*
G01X-3734825Y-3236681D01*
G01X-3750319Y-3236681D01*
G01X-3759717Y-3233633D01*
G01X-3765813Y-3230585D01*
G01X-3772163Y-3224235D01*
G01X-3775211Y-3218139D01*
G01X-3775211Y-3205693D01*
G01X-3772163Y-3199597D01*
G01X-3765813Y-3193247D01*
G01X-3759717Y-3190199D01*
G01X-3750319Y-3187151D01*
G01X-3734825Y-3187151D01*
G01X-3725681Y-3190199D01*
G01X-3719331Y-3193247D01*
G01X-3713235Y-3199597D01*
G01X-3710187Y-3205693D01*
G01X-3710187Y-3218139D01*
G01X-3762765Y-3208741D02*
G01X-3781307Y-3190199D01*
G01X-3725681Y-3153877D02*
G01X-3722633Y-3153877D01*
G01X-3716283Y-3150829D01*
G01X-3713235Y-3147781D01*
G01X-3710187Y-3141685D01*
G01X-3710187Y-3129239D01*
G01X-3713235Y-3122889D01*
G01X-3716283Y-3119841D01*
G01X-3722633Y-3116793D01*
G01X-3728729Y-3116793D01*
G01X-3734825Y-3119841D01*
G01X-3744223Y-3126191D01*
G01X-3775211Y-3156925D01*
G01X-3775211Y-3113745D01*
G01X-3710187Y-3064977D02*
G01X-3713235Y-3074375D01*
G01X-3722633Y-3080471D01*
G01X-3737873Y-3083519D01*
G01X-3747271Y-3083519D01*
G01X-3762765Y-3080471D01*
G01X-3772163Y-3074375D01*
G01X-3775211Y-3064977D01*
G01X-3775211Y-3058881D01*
G01X-3772163Y-3049483D01*
G01X-3762765Y-3043387D01*
G01X-3747271Y-3040339D01*
G01X-3737873Y-3040339D01*
G01X-3722633Y-3043387D01*
G01X-3713235Y-3049483D01*
G01X-3710187Y-3058881D01*
G01X-3710187Y-3064977D01*
G01X-2935487Y-3218139D02*
G01X-2938535Y-3224235D01*
G01X-2944631Y-3230585D01*
G01X-2950981Y-3233633D01*
G01X-2960125Y-3236681D01*
G01X-2975619Y-3236681D01*
G01X-2985017Y-3233633D01*
G01X-2991113Y-3230585D01*
G01X-2997463Y-3224235D01*
G01X-3000511Y-3218139D01*
G01X-3000511Y-3205693D01*
G01X-2997463Y-3199597D01*
G01X-2991113Y-3193247D01*
G01X-2985017Y-3190199D01*
G01X-2975619Y-3187151D01*
G01X-2960125Y-3187151D01*
G01X-2950981Y-3190199D01*
G01X-2944631Y-3193247D01*
G01X-2938535Y-3199597D01*
G01X-2935487Y-3205693D01*
G01X-2935487Y-3218139D01*
G01X-2988065Y-3208741D02*
G01X-3006607Y-3190199D01*
G01X-2950981Y-3153877D02*
G01X-2947933Y-3153877D01*
G01X-2941583Y-3150829D01*
G01X-2938535Y-3147781D01*
G01X-2935487Y-3141685D01*
G01X-2935487Y-3129239D01*
G01X-2938535Y-3122889D01*
G01X-2941583Y-3119841D01*
G01X-2947933Y-3116793D01*
G01X-2954029Y-3116793D01*
G01X-2960125Y-3119841D01*
G01X-2969523Y-3126191D01*
G01X-3000511Y-3156925D01*
G01X-3000511Y-3113745D01*
G01X-2947933Y-3083519D02*
G01X-2944631Y-3077423D01*
G01X-2935487Y-3068279D01*
G01X-3000511Y-3068279D01*
G01X-2160787Y-3218139D02*
G01X-2163835Y-3224235D01*
G01X-2169931Y-3230585D01*
G01X-2176281Y-3233633D01*
G01X-2185425Y-3236681D01*
G01X-2200919Y-3236681D01*
G01X-2210317Y-3233633D01*
G01X-2216413Y-3230585D01*
G01X-2222763Y-3224235D01*
G01X-2225811Y-3218139D01*
G01X-2225811Y-3205693D01*
G01X-2222763Y-3199597D01*
G01X-2216413Y-3193247D01*
G01X-2210317Y-3190199D01*
G01X-2200919Y-3187151D01*
G01X-2185425Y-3187151D01*
G01X-2176281Y-3190199D01*
G01X-2169931Y-3193247D01*
G01X-2163835Y-3199597D01*
G01X-2160787Y-3205693D01*
G01X-2160787Y-3218139D01*
G01X-2213365Y-3208741D02*
G01X-2231907Y-3190199D01*
G01X-2176281Y-3153877D02*
G01X-2173233Y-3153877D01*
G01X-2166883Y-3150829D01*
G01X-2163835Y-3147781D01*
G01X-2160787Y-3141685D01*
G01X-2160787Y-3129239D01*
G01X-2163835Y-3122889D01*
G01X-2166883Y-3119841D01*
G01X-2173233Y-3116793D01*
G01X-2179329Y-3116793D01*
G01X-2185425Y-3119841D01*
G01X-2194823Y-3126191D01*
G01X-2225811Y-3156925D01*
G01X-2225811Y-3113745D01*
G01X-2160787Y-3077423D02*
G01X-2160787Y-3043387D01*
G01X-2185425Y-3061929D01*
G01X-2185425Y-3052785D01*
G01X-2188473Y-3046435D01*
G01X-2191775Y-3043387D01*
G01X-2200919Y-3040339D01*
G01X-2207269Y-3040339D01*
G01X-2216413Y-3043387D01*
G01X-2222763Y-3049483D01*
G01X-2225811Y-3058881D01*
G01X-2225811Y-3068279D01*
G01X-2222763Y-3077423D01*
G01X-2219461Y-3080471D01*
G01X-2213365Y-3083519D01*
G01X-2741451Y1645666D02*
G01X-2741451Y1710690D01*
G01X-2741451Y1645666D02*
G01X-2713511Y1645666D01*
G01X-2704367Y1648714D01*
G01X-2701319Y1651762D01*
G01X-2698017Y1658112D01*
G01X-2698017Y1664208D01*
G01X-2701319Y1670304D01*
G01X-2704367Y1673352D01*
G01X-2713511Y1676654D01*
G01X-2741451Y1676654D01*
G01X-2719861Y1676654D02*
G01X-2698017Y1710690D01*
G01X-2637057Y1645666D02*
G01X-2667791Y1688846D01*
G01X-2621563Y1688846D01*
G01X-2637057Y1645666D02*
G01X-2637057Y1710690D01*
G01X-2923286Y1747520D02*
G01X-2988310Y1747520D01*
G01X-2923286Y1747520D02*
G01X-2923286Y1775460D01*
G01X-2926334Y1784604D01*
G01X-2929382Y1787652D01*
G01X-2935732Y1790954D01*
G01X-2941828Y1790954D01*
G01X-2947924Y1787652D01*
G01X-2950972Y1784604D01*
G01X-2954274Y1775460D01*
G01X-2954274Y1747520D01*
G01X-2954274Y1769110D02*
G01X-2988310Y1790954D01*
G01X-2923286Y1858264D02*
G01X-2923286Y1827276D01*
G01X-2950972Y1824228D01*
G01X-2947924Y1827276D01*
G01X-2944876Y1836420D01*
G01X-2944876Y1845818D01*
G01X-2947924Y1855216D01*
G01X-2954274Y1861312D01*
G01X-2963418Y1864360D01*
G01X-2969768Y1864360D01*
G01X-2978912Y1861312D01*
G01X-2985262Y1855216D01*
G01X-2988310Y1845818D01*
G01X-2988310Y1836420D01*
G01X-2985262Y1827276D01*
G01X-2981960Y1824228D01*
G01X-2975864Y1821180D01*
G01X-2819654Y2240280D02*
G01X-2754630Y2240280D01*
G01X-2819654Y2240280D02*
G01X-2819654Y2212340D01*
G01X-2816606Y2203196D01*
G01X-2813558Y2200148D01*
G01X-2807208Y2196846D01*
G01X-2801112Y2196846D01*
G01X-2795016Y2200148D01*
G01X-2791968Y2203196D01*
G01X-2788666Y2212340D01*
G01X-2788666Y2240280D01*
G01X-2788666Y2218690D02*
G01X-2754630Y2196846D01*
G01X-2810510Y2129536D02*
G01X-2816606Y2132584D01*
G01X-2819654Y2141982D01*
G01X-2819654Y2148078D01*
G01X-2816606Y2157476D01*
G01X-2807208Y2163572D01*
G01X-2791968Y2166620D01*
G01X-2776474Y2166620D01*
G01X-2764028Y2163572D01*
G01X-2757678Y2157476D01*
G01X-2754630Y2148078D01*
G01X-2754630Y2145030D01*
G01X-2757678Y2135886D01*
G01X-2764028Y2129536D01*
G01X-2773172Y2126488D01*
G01X-2776474Y2126488D01*
G01X-2785618Y2129536D01*
G01X-2791968Y2135886D01*
G01X-2795016Y2145030D01*
G01X-2795016Y2148078D01*
G01X-2791968Y2157476D01*
G01X-2785618Y2163572D01*
G01X-2776474Y2166620D01*
G01X-3594354Y2240280D02*
G01X-3529330Y2240280D01*
G01X-3594354Y2240280D02*
G01X-3594354Y2212340D01*
G01X-3591306Y2203196D01*
G01X-3588258Y2200148D01*
G01X-3581908Y2196846D01*
G01X-3575812Y2196846D01*
G01X-3569716Y2200148D01*
G01X-3566668Y2203196D01*
G01X-3563366Y2212340D01*
G01X-3563366Y2240280D01*
G01X-3563366Y2218690D02*
G01X-3529330Y2196846D01*
G01X-3594354Y2123440D02*
G01X-3529330Y2154428D01*
G01X-3594354Y2166620D02*
G01X-3594354Y2123440D01*
G01X-4369054Y2240280D02*
G01X-4304030Y2240280D01*
G01X-4369054Y2240280D02*
G01X-4369054Y2212340D01*
G01X-4366006Y2203196D01*
G01X-4362958Y2200148D01*
G01X-4356608Y2196846D01*
G01X-4350512Y2196846D01*
G01X-4344416Y2200148D01*
G01X-4341368Y2203196D01*
G01X-4338066Y2212340D01*
G01X-4338066Y2240280D01*
G01X-4338066Y2218690D02*
G01X-4304030Y2196846D01*
G01X-4369054Y2151380D02*
G01X-4366006Y2160524D01*
G01X-4359910Y2163572D01*
G01X-4353560Y2163572D01*
G01X-4347464Y2160524D01*
G01X-4344416Y2154428D01*
G01X-4341368Y2141982D01*
G01X-4338066Y2132584D01*
G01X-4331970Y2126488D01*
G01X-4325874Y2123440D01*
G01X-4316476Y2123440D01*
G01X-4310380Y2126488D01*
G01X-4307078Y2129536D01*
G01X-4304030Y2138934D01*
G01X-4304030Y2151380D01*
G01X-4307078Y2160524D01*
G01X-4310380Y2163572D01*
G01X-4316476Y2166620D01*
G01X-4325874Y2166620D01*
G01X-4331970Y2163572D01*
G01X-4338066Y2157476D01*
G01X-4341368Y2148078D01*
G01X-4344416Y2135886D01*
G01X-4347464Y2129536D01*
G01X-4353560Y2126488D01*
G01X-4359910Y2126488D01*
G01X-4366006Y2129536D01*
G01X-4369054Y2138934D01*
G01X-4369054Y2151380D01*
G01X-3516151Y1645666D02*
G01X-3516151Y1710690D01*
G01X-3516151Y1645666D02*
G01X-3488211Y1645666D01*
G01X-3479067Y1648714D01*
G01X-3476019Y1651762D01*
G01X-3472717Y1658112D01*
G01X-3472717Y1664208D01*
G01X-3476019Y1670304D01*
G01X-3479067Y1673352D01*
G01X-3488211Y1676654D01*
G01X-3516151Y1676654D01*
G01X-3494561Y1676654D02*
G01X-3472717Y1710690D01*
G01X-3402359Y1667256D02*
G01X-3405407Y1676654D01*
G01X-3411757Y1682750D01*
G01X-3420901Y1685798D01*
G01X-3423949Y1685798D01*
G01X-3433347Y1682750D01*
G01X-3439443Y1676654D01*
G01X-3442491Y1667256D01*
G01X-3442491Y1664208D01*
G01X-3439443Y1654810D01*
G01X-3433347Y1648714D01*
G01X-3423949Y1645666D01*
G01X-3420901Y1645666D01*
G01X-3411757Y1648714D01*
G01X-3405407Y1654810D01*
G01X-3402359Y1667256D01*
G01X-3402359Y1682750D01*
G01X-3405407Y1698244D01*
G01X-3411757Y1707642D01*
G01X-3420901Y1710690D01*
G01X-3427251Y1710690D01*
G01X-3436395Y1707642D01*
G01X-3439443Y1701292D01*
G01X170434Y-1452880D02*
G01X105410Y-1452880D01*
G01X170434Y-1452880D02*
G01X170434Y-1424940D01*
G01X167386Y-1415796D01*
G01X164338Y-1412748D01*
G01X157988Y-1409446D01*
G01X151892Y-1409446D01*
G01X145796Y-1412748D01*
G01X142748Y-1415796D01*
G01X139446Y-1424940D01*
G01X139446Y-1452880D01*
G01X139446Y-1431290D02*
G01X105410Y-1409446D01*
G01X157988Y-1379220D02*
G01X161290Y-1373124D01*
G01X170434Y-1363980D01*
G01X105410Y-1363980D01*
G01X157988Y-1333754D02*
G01X161290Y-1327658D01*
G01X170434Y-1318514D01*
G01X105410Y-1318514D01*
G01X430609Y-898886D02*
G01X430609Y-963910D01*
G01X430609Y-898886D02*
G01X402669Y-898886D01*
G01X393525Y-901934D01*
G01X390477Y-904982D01*
G01X387175Y-911332D01*
G01X387175Y-917428D01*
G01X390477Y-923524D01*
G01X393525Y-926572D01*
G01X402669Y-929874D01*
G01X430609Y-929874D01*
G01X409019Y-929874D02*
G01X387175Y-963910D01*
G01X356949Y-911332D02*
G01X350853Y-908030D01*
G01X341709Y-898886D01*
G01X341709Y-963910D01*
G01X308435Y-914380D02*
G01X308435Y-911332D01*
G01X305387Y-904982D01*
G01X302339Y-901934D01*
G01X296243Y-898886D01*
G01X283797Y-898886D01*
G01X277447Y-901934D01*
G01X274399Y-904982D01*
G01X271351Y-911332D01*
G01X271351Y-917428D01*
G01X274399Y-923524D01*
G01X280749Y-932922D01*
G01X311483Y-963910D01*
G01X268303Y-963910D01*
G01X2668495Y1998980D02*
G01X2733519Y1998980D01*
G01X2668495Y1998980D02*
G01X2668495Y1971040D01*
G01X2671543Y1961896D01*
G01X2674591Y1958848D01*
G01X2680941Y1955546D01*
G01X2687037Y1955546D01*
G01X2693133Y1958848D01*
G01X2696181Y1961896D01*
G01X2699483Y1971040D01*
G01X2699483Y1998980D01*
G01X2699483Y1977390D02*
G01X2733519Y1955546D01*
G01X2680941Y1925320D02*
G01X2677639Y1919224D01*
G01X2668495Y1910080D01*
G01X2733519Y1910080D01*
G01X2668495Y1849120D02*
G01X2711675Y1879854D01*
G01X2711675Y1833626D01*
G01X2668495Y1849120D02*
G01X2733519Y1849120D01*
G01X-4290851Y1645666D02*
G01X-4290851Y1710690D01*
G01X-4290851Y1645666D02*
G01X-4262911Y1645666D01*
G01X-4253767Y1648714D01*
G01X-4250719Y1651762D01*
G01X-4247417Y1658112D01*
G01X-4247417Y1664208D01*
G01X-4250719Y1670304D01*
G01X-4253767Y1673352D01*
G01X-4262911Y1676654D01*
G01X-4290851Y1676654D01*
G01X-4269261Y1676654D02*
G01X-4247417Y1710690D01*
G01X-4217191Y1658112D02*
G01X-4211095Y1654810D01*
G01X-4201951Y1645666D01*
G01X-4201951Y1710690D01*
G01X-4134641Y1645666D02*
G01X-4165629Y1645666D01*
G01X-4168677Y1673352D01*
G01X-4165629Y1670304D01*
G01X-4156485Y1667256D01*
G01X-4147087Y1667256D01*
G01X-4137689Y1670304D01*
G01X-4131593Y1676654D01*
G01X-4128545Y1685798D01*
G01X-4128545Y1692148D01*
G01X-4131593Y1701292D01*
G01X-4137689Y1707642D01*
G01X-4147087Y1710690D01*
G01X-4156485Y1710690D01*
G01X-4165629Y1707642D01*
G01X-4168677Y1704340D01*
G01X-4171725Y1698244D01*
G01X-3697986Y1747520D02*
G01X-3763010Y1747520D01*
G01X-3697986Y1747520D02*
G01X-3697986Y1775460D01*
G01X-3701034Y1784604D01*
G01X-3704082Y1787652D01*
G01X-3710432Y1790954D01*
G01X-3716528Y1790954D01*
G01X-3722624Y1787652D01*
G01X-3725672Y1784604D01*
G01X-3728974Y1775460D01*
G01X-3728974Y1747520D01*
G01X-3728974Y1769110D02*
G01X-3763010Y1790954D01*
G01X-3710432Y1821180D02*
G01X-3707130Y1827276D01*
G01X-3697986Y1836420D01*
G01X-3763010Y1836420D01*
G01X-3707130Y1903730D02*
G01X-3701034Y1900682D01*
G01X-3697986Y1891284D01*
G01X-3697986Y1885188D01*
G01X-3701034Y1875790D01*
G01X-3710432Y1869694D01*
G01X-3725672Y1866646D01*
G01X-3741166Y1866646D01*
G01X-3753612Y1869694D01*
G01X-3759962Y1875790D01*
G01X-3763010Y1885188D01*
G01X-3763010Y1888236D01*
G01X-3759962Y1897380D01*
G01X-3753612Y1903730D01*
G01X-3744468Y1906778D01*
G01X-3741166Y1906778D01*
G01X-3732022Y1903730D01*
G01X-3725672Y1897380D01*
G01X-3722624Y1888236D01*
G01X-3722624Y1885188D01*
G01X-3725672Y1875790D01*
G01X-3732022Y1869694D01*
G01X-3741166Y1866646D01*
G01X-4472686Y1747520D02*
G01X-4537710Y1747520D01*
G01X-4472686Y1747520D02*
G01X-4472686Y1775460D01*
G01X-4475734Y1784604D01*
G01X-4478782Y1787652D01*
G01X-4485132Y1790954D01*
G01X-4491228Y1790954D01*
G01X-4497324Y1787652D01*
G01X-4500372Y1784604D01*
G01X-4503674Y1775460D01*
G01X-4503674Y1747520D01*
G01X-4503674Y1769110D02*
G01X-4537710Y1790954D01*
G01X-4485132Y1821180D02*
G01X-4481830Y1827276D01*
G01X-4472686Y1836420D01*
G01X-4537710Y1836420D01*
G01X-4472686Y1909826D02*
G01X-4537710Y1878838D01*
G01X-4472686Y1866646D02*
G01X-4472686Y1909826D01*
G01X-2551205Y1998980D02*
G01X-2486181Y1998980D01*
G01X-2551205Y1998980D02*
G01X-2551205Y1971040D01*
G01X-2548157Y1961896D01*
G01X-2545109Y1958848D01*
G01X-2538759Y1955546D01*
G01X-2532663Y1955546D01*
G01X-2526567Y1958848D01*
G01X-2523519Y1961896D01*
G01X-2520217Y1971040D01*
G01X-2520217Y1998980D01*
G01X-2520217Y1977390D02*
G01X-2486181Y1955546D01*
G01X-2538759Y1925320D02*
G01X-2542061Y1919224D01*
G01X-2551205Y1910080D01*
G01X-2486181Y1910080D01*
G01X-2551205Y1864614D02*
G01X-2548157Y1873758D01*
G01X-2542061Y1876806D01*
G01X-2535711Y1876806D01*
G01X-2529615Y1873758D01*
G01X-2526567Y1867662D01*
G01X-2523519Y1855216D01*
G01X-2520217Y1845818D01*
G01X-2514121Y1839722D01*
G01X-2508025Y1836674D01*
G01X-2498627Y1836674D01*
G01X-2492531Y1839722D01*
G01X-2489229Y1842770D01*
G01X-2486181Y1852168D01*
G01X-2486181Y1864614D01*
G01X-2489229Y1873758D01*
G01X-2492531Y1876806D01*
G01X-2498627Y1879854D01*
G01X-2508025Y1879854D01*
G01X-2514121Y1876806D01*
G01X-2520217Y1870710D01*
G01X-2523519Y1861312D01*
G01X-2526567Y1849120D01*
G01X-2529615Y1842770D01*
G01X-2535711Y1839722D01*
G01X-2542061Y1839722D01*
G01X-2548157Y1842770D01*
G01X-2551205Y1852168D01*
G01X-2551205Y1864614D01*
G01X2400046Y2240280D02*
G01X2465070Y2240280D01*
G01X2400046Y2240280D02*
G01X2400046Y2212340D01*
G01X2403094Y2203196D01*
G01X2406142Y2200148D01*
G01X2412492Y2196846D01*
G01X2418588Y2196846D01*
G01X2424684Y2200148D01*
G01X2427732Y2203196D01*
G01X2431034Y2212340D01*
G01X2431034Y2240280D01*
G01X2431034Y2218690D02*
G01X2465070Y2196846D01*
G01X2412492Y2166620D02*
G01X2409190Y2160524D01*
G01X2400046Y2151380D01*
G01X2465070Y2151380D01*
G01X2421636Y2081022D02*
G01X2431034Y2084070D01*
G01X2437130Y2090420D01*
G01X2440178Y2099564D01*
G01X2440178Y2102612D01*
G01X2437130Y2112010D01*
G01X2431034Y2118106D01*
G01X2421636Y2121154D01*
G01X2418588Y2121154D01*
G01X2409190Y2118106D01*
G01X2403094Y2112010D01*
G01X2400046Y2102612D01*
G01X2400046Y2099564D01*
G01X2403094Y2090420D01*
G01X2409190Y2084070D01*
G01X2421636Y2081022D01*
G01X2437130Y2081022D01*
G01X2452624Y2084070D01*
G01X2462022Y2090420D01*
G01X2465070Y2099564D01*
G01X2465070Y2105914D01*
G01X2462022Y2115058D01*
G01X2455672Y2118106D01*
G01X2296414Y1747520D02*
G01X2231390Y1747520D01*
G01X2296414Y1747520D02*
G01X2296414Y1775460D01*
G01X2293366Y1784604D01*
G01X2290318Y1787652D01*
G01X2283968Y1790954D01*
G01X2277872Y1790954D01*
G01X2271776Y1787652D01*
G01X2268728Y1784604D01*
G01X2265426Y1775460D01*
G01X2265426Y1747520D01*
G01X2265426Y1769110D02*
G01X2231390Y1790954D01*
G01X2280920Y1824228D02*
G01X2283968Y1824228D01*
G01X2290318Y1827276D01*
G01X2293366Y1830324D01*
G01X2296414Y1836420D01*
G01X2296414Y1848866D01*
G01X2293366Y1855216D01*
G01X2290318Y1858264D01*
G01X2283968Y1861312D01*
G01X2277872Y1861312D01*
G01X2271776Y1858264D01*
G01X2262378Y1851914D01*
G01X2231390Y1821180D01*
G01X2231390Y1864360D01*
G01X2296414Y1913128D02*
G01X2293366Y1903730D01*
G01X2283968Y1897634D01*
G01X2268728Y1894586D01*
G01X2259330Y1894586D01*
G01X2243836Y1897634D01*
G01X2234438Y1903730D01*
G01X2231390Y1913128D01*
G01X2231390Y1919224D01*
G01X2234438Y1928622D01*
G01X2243836Y1934718D01*
G01X2259330Y1937766D01*
G01X2268728Y1937766D01*
G01X2283968Y1934718D01*
G01X2293366Y1928622D01*
G01X2296414Y1919224D01*
G01X2296414Y1913128D01*
G01X2478249Y1645666D02*
G01X2478249Y1710690D01*
G01X2478249Y1645666D02*
G01X2506189Y1645666D01*
G01X2515333Y1648714D01*
G01X2518381Y1651762D01*
G01X2521683Y1658112D01*
G01X2521683Y1664208D01*
G01X2518381Y1670304D01*
G01X2515333Y1673352D01*
G01X2506189Y1676654D01*
G01X2478249Y1676654D01*
G01X2499839Y1676654D02*
G01X2521683Y1710690D01*
G01X2554957Y1661160D02*
G01X2554957Y1658112D01*
G01X2558005Y1651762D01*
G01X2561053Y1648714D01*
G01X2567149Y1645666D01*
G01X2579595Y1645666D01*
G01X2585945Y1648714D01*
G01X2588993Y1651762D01*
G01X2592041Y1658112D01*
G01X2592041Y1664208D01*
G01X2588993Y1670304D01*
G01X2582643Y1679702D01*
G01X2551909Y1710690D01*
G01X2595089Y1710690D01*
G01X2625315Y1658112D02*
G01X2631411Y1654810D01*
G01X2640555Y1645666D01*
G01X2640555Y1710690D01*
G01X3174746Y2240280D02*
G01X3239770Y2240280D01*
G01X3174746Y2240280D02*
G01X3174746Y2212340D01*
G01X3177794Y2203196D01*
G01X3180842Y2200148D01*
G01X3187192Y2196846D01*
G01X3193288Y2196846D01*
G01X3199384Y2200148D01*
G01X3202432Y2203196D01*
G01X3205734Y2212340D01*
G01X3205734Y2240280D01*
G01X3205734Y2218690D02*
G01X3239770Y2196846D01*
G01X3190240Y2163572D02*
G01X3187192Y2163572D01*
G01X3180842Y2160524D01*
G01X3177794Y2157476D01*
G01X3174746Y2151380D01*
G01X3174746Y2138934D01*
G01X3177794Y2132584D01*
G01X3180842Y2129536D01*
G01X3187192Y2126488D01*
G01X3193288Y2126488D01*
G01X3199384Y2129536D01*
G01X3208782Y2135886D01*
G01X3239770Y2166620D01*
G01X3239770Y2123440D01*
G01X3190240Y2090166D02*
G01X3187192Y2090166D01*
G01X3180842Y2087118D01*
G01X3177794Y2084070D01*
G01X3174746Y2077974D01*
G01X3174746Y2065528D01*
G01X3177794Y2059178D01*
G01X3180842Y2056130D01*
G01X3187192Y2053082D01*
G01X3193288Y2053082D01*
G01X3199384Y2056130D01*
G01X3208782Y2062480D01*
G01X3239770Y2093214D01*
G01X3239770Y2050034D01*
G01X3071114Y1747520D02*
G01X3006090Y1747520D01*
G01X3071114Y1747520D02*
G01X3071114Y1775460D01*
G01X3068066Y1784604D01*
G01X3065018Y1787652D01*
G01X3058668Y1790954D01*
G01X3052572Y1790954D01*
G01X3046476Y1787652D01*
G01X3043428Y1784604D01*
G01X3040126Y1775460D01*
G01X3040126Y1747520D01*
G01X3040126Y1769110D02*
G01X3006090Y1790954D01*
G01X3055620Y1824228D02*
G01X3058668Y1824228D01*
G01X3065018Y1827276D01*
G01X3068066Y1830324D01*
G01X3071114Y1836420D01*
G01X3071114Y1848866D01*
G01X3068066Y1855216D01*
G01X3065018Y1858264D01*
G01X3058668Y1861312D01*
G01X3052572Y1861312D01*
G01X3046476Y1858264D01*
G01X3037078Y1851914D01*
G01X3006090Y1821180D01*
G01X3006090Y1864360D01*
G01X3071114Y1900682D02*
G01X3071114Y1934718D01*
G01X3046476Y1916176D01*
G01X3046476Y1925320D01*
G01X3043428Y1931670D01*
G01X3040126Y1934718D01*
G01X3030982Y1937766D01*
G01X3024632Y1937766D01*
G01X3015488Y1934718D01*
G01X3009138Y1928622D01*
G01X3006090Y1919224D01*
G01X3006090Y1909826D01*
G01X3009138Y1900682D01*
G01X3012440Y1897634D01*
G01X3018536Y1894586D01*
G01X3252949Y1645666D02*
G01X3252949Y1710690D01*
G01X3252949Y1645666D02*
G01X3280889Y1645666D01*
G01X3290033Y1648714D01*
G01X3293081Y1651762D01*
G01X3296383Y1658112D01*
G01X3296383Y1664208D01*
G01X3293081Y1670304D01*
G01X3290033Y1673352D01*
G01X3280889Y1676654D01*
G01X3252949Y1676654D01*
G01X3274539Y1676654D02*
G01X3296383Y1710690D01*
G01X3329657Y1661160D02*
G01X3329657Y1658112D01*
G01X3332705Y1651762D01*
G01X3335753Y1648714D01*
G01X3341849Y1645666D01*
G01X3354295Y1645666D01*
G01X3360645Y1648714D01*
G01X3363693Y1651762D01*
G01X3366741Y1658112D01*
G01X3366741Y1664208D01*
G01X3363693Y1670304D01*
G01X3357343Y1679702D01*
G01X3326609Y1710690D01*
G01X3369789Y1710690D01*
G01X3430749Y1645666D02*
G01X3400015Y1688846D01*
G01X3446243Y1688846D01*
G01X3430749Y1645666D02*
G01X3430749Y1710690D01*
G01X3949446Y2240280D02*
G01X4014470Y2240280D01*
G01X3949446Y2240280D02*
G01X3949446Y2212340D01*
G01X3952494Y2203196D01*
G01X3955542Y2200148D01*
G01X3961892Y2196846D01*
G01X3967988Y2196846D01*
G01X3974084Y2200148D01*
G01X3977132Y2203196D01*
G01X3980434Y2212340D01*
G01X3980434Y2240280D01*
G01X3980434Y2218690D02*
G01X4014470Y2196846D01*
G01X3964940Y2163572D02*
G01X3961892Y2163572D01*
G01X3955542Y2160524D01*
G01X3952494Y2157476D01*
G01X3949446Y2151380D01*
G01X3949446Y2138934D01*
G01X3952494Y2132584D01*
G01X3955542Y2129536D01*
G01X3961892Y2126488D01*
G01X3967988Y2126488D01*
G01X3974084Y2129536D01*
G01X3983482Y2135886D01*
G01X4014470Y2166620D01*
G01X4014470Y2123440D01*
G01X3949446Y2077974D02*
G01X3952494Y2087118D01*
G01X3958590Y2090166D01*
G01X3964940Y2090166D01*
G01X3971036Y2087118D01*
G01X3974084Y2081022D01*
G01X3977132Y2068576D01*
G01X3980434Y2059178D01*
G01X3986530Y2053082D01*
G01X3992626Y2050034D01*
G01X4002024Y2050034D01*
G01X4008120Y2053082D01*
G01X4011422Y2056130D01*
G01X4014470Y2065528D01*
G01X4014470Y2077974D01*
G01X4011422Y2087118D01*
G01X4008120Y2090166D01*
G01X4002024Y2093214D01*
G01X3992626Y2093214D01*
G01X3986530Y2090166D01*
G01X3980434Y2084070D01*
G01X3977132Y2074672D01*
G01X3974084Y2062480D01*
G01X3971036Y2056130D01*
G01X3964940Y2053082D01*
G01X3958590Y2053082D01*
G01X3952494Y2056130D01*
G01X3949446Y2065528D01*
G01X3949446Y2077974D01*
G01X3845814Y1747520D02*
G01X3780790Y1747520D01*
G01X3845814Y1747520D02*
G01X3845814Y1775460D01*
G01X3842766Y1784604D01*
G01X3839718Y1787652D01*
G01X3833368Y1790954D01*
G01X3827272Y1790954D01*
G01X3821176Y1787652D01*
G01X3818128Y1784604D01*
G01X3814826Y1775460D01*
G01X3814826Y1747520D01*
G01X3814826Y1769110D02*
G01X3780790Y1790954D01*
G01X3830320Y1824228D02*
G01X3833368Y1824228D01*
G01X3839718Y1827276D01*
G01X3842766Y1830324D01*
G01X3845814Y1836420D01*
G01X3845814Y1848866D01*
G01X3842766Y1855216D01*
G01X3839718Y1858264D01*
G01X3833368Y1861312D01*
G01X3827272Y1861312D01*
G01X3821176Y1858264D01*
G01X3811778Y1851914D01*
G01X3780790Y1821180D01*
G01X3780790Y1864360D01*
G01X3824224Y1934718D02*
G01X3814826Y1931670D01*
G01X3808730Y1925320D01*
G01X3805682Y1916176D01*
G01X3805682Y1913128D01*
G01X3808730Y1903730D01*
G01X3814826Y1897634D01*
G01X3824224Y1894586D01*
G01X3827272Y1894586D01*
G01X3836670Y1897634D01*
G01X3842766Y1903730D01*
G01X3845814Y1913128D01*
G01X3845814Y1916176D01*
G01X3842766Y1925320D01*
G01X3836670Y1931670D01*
G01X3824224Y1934718D01*
G01X3808730Y1934718D01*
G01X3793236Y1931670D01*
G01X3783838Y1925320D01*
G01X3780790Y1916176D01*
G01X3780790Y1909826D01*
G01X3783838Y1900682D01*
G01X3790188Y1897634D01*
G01X4027649Y1645666D02*
G01X4027649Y1710690D01*
G01X4027649Y1645666D02*
G01X4055589Y1645666D01*
G01X4064733Y1648714D01*
G01X4067781Y1651762D01*
G01X4071083Y1658112D01*
G01X4071083Y1664208D01*
G01X4067781Y1670304D01*
G01X4064733Y1673352D01*
G01X4055589Y1676654D01*
G01X4027649Y1676654D01*
G01X4049239Y1676654D02*
G01X4071083Y1710690D01*
G01X4107405Y1645666D02*
G01X4141441Y1645666D01*
G01X4122899Y1670304D01*
G01X4132043Y1670304D01*
G01X4138393Y1673352D01*
G01X4141441Y1676654D01*
G01X4144489Y1685798D01*
G01X4144489Y1692148D01*
G01X4141441Y1701292D01*
G01X4135345Y1707642D01*
G01X4125947Y1710690D01*
G01X4116549Y1710690D01*
G01X4107405Y1707642D01*
G01X4104357Y1704340D01*
G01X4101309Y1698244D01*
G01X4193257Y1645666D02*
G01X4183859Y1648714D01*
G01X4177763Y1658112D01*
G01X4174715Y1673352D01*
G01X4174715Y1682750D01*
G01X4177763Y1698244D01*
G01X4183859Y1707642D01*
G01X4193257Y1710690D01*
G01X4199353Y1710690D01*
G01X4208751Y1707642D01*
G01X4214847Y1698244D01*
G01X4217895Y1682750D01*
G01X4217895Y1673352D01*
G01X4214847Y1658112D01*
G01X4208751Y1648714D01*
G01X4199353Y1645666D01*
G01X4193257Y1645666D01*
G01X-3325905Y1998980D02*
G01X-3260881Y1998980D01*
G01X-3325905Y1998980D02*
G01X-3325905Y1971040D01*
G01X-3322857Y1961896D01*
G01X-3319809Y1958848D01*
G01X-3313459Y1955546D01*
G01X-3307363Y1955546D01*
G01X-3301267Y1958848D01*
G01X-3298219Y1961896D01*
G01X-3294917Y1971040D01*
G01X-3294917Y1998980D01*
G01X-3294917Y1977390D02*
G01X-3260881Y1955546D01*
G01X-3325905Y1919224D02*
G01X-3325905Y1885188D01*
G01X-3301267Y1903730D01*
G01X-3301267Y1894586D01*
G01X-3298219Y1888236D01*
G01X-3294917Y1885188D01*
G01X-3285773Y1882140D01*
G01X-3279423Y1882140D01*
G01X-3270279Y1885188D01*
G01X-3263929Y1891284D01*
G01X-3260881Y1900682D01*
G01X-3260881Y1910080D01*
G01X-3263929Y1919224D01*
G01X-3267231Y1922272D01*
G01X-3273327Y1925320D01*
G01X-3313459Y1851914D02*
G01X-3316761Y1845818D01*
G01X-3325905Y1836674D01*
G01X-3260881Y1836674D01*
G01X-4100605Y1998980D02*
G01X-4035581Y1998980D01*
G01X-4100605Y1998980D02*
G01X-4100605Y1971040D01*
G01X-4097557Y1961896D01*
G01X-4094509Y1958848D01*
G01X-4088159Y1955546D01*
G01X-4082063Y1955546D01*
G01X-4075967Y1958848D01*
G01X-4072919Y1961896D01*
G01X-4069617Y1971040D01*
G01X-4069617Y1998980D01*
G01X-4069617Y1977390D02*
G01X-4035581Y1955546D01*
G01X-4100605Y1919224D02*
G01X-4100605Y1885188D01*
G01X-4075967Y1903730D01*
G01X-4075967Y1894586D01*
G01X-4072919Y1888236D01*
G01X-4069617Y1885188D01*
G01X-4060473Y1882140D01*
G01X-4054123Y1882140D01*
G01X-4044979Y1885188D01*
G01X-4038629Y1891284D01*
G01X-4035581Y1900682D01*
G01X-4035581Y1910080D01*
G01X-4038629Y1919224D01*
G01X-4041931Y1922272D01*
G01X-4048027Y1925320D01*
G01X-4085111Y1848866D02*
G01X-4088159Y1848866D01*
G01X-4094509Y1845818D01*
G01X-4097557Y1842770D01*
G01X-4100605Y1836674D01*
G01X-4100605Y1824228D01*
G01X-4097557Y1817878D01*
G01X-4094509Y1814830D01*
G01X-4088159Y1811782D01*
G01X-4082063Y1811782D01*
G01X-4075967Y1814830D01*
G01X-4066569Y1821180D01*
G01X-4035581Y1851914D01*
G01X-4035581Y1808734D01*
G01X3443195Y1998980D02*
G01X3508219Y1998980D01*
G01X3443195Y1998980D02*
G01X3443195Y1971040D01*
G01X3446243Y1961896D01*
G01X3449291Y1958848D01*
G01X3455641Y1955546D01*
G01X3461737Y1955546D01*
G01X3467833Y1958848D01*
G01X3470881Y1961896D01*
G01X3474183Y1971040D01*
G01X3474183Y1998980D01*
G01X3474183Y1977390D02*
G01X3508219Y1955546D01*
G01X3443195Y1919224D02*
G01X3443195Y1885188D01*
G01X3467833Y1903730D01*
G01X3467833Y1894586D01*
G01X3470881Y1888236D01*
G01X3474183Y1885188D01*
G01X3483327Y1882140D01*
G01X3489677Y1882140D01*
G01X3498821Y1885188D01*
G01X3505171Y1891284D01*
G01X3508219Y1900682D01*
G01X3508219Y1910080D01*
G01X3505171Y1919224D01*
G01X3501869Y1922272D01*
G01X3495773Y1925320D01*
G01X3443195Y1836674D02*
G01X3446243Y1845818D01*
G01X3452339Y1848866D01*
G01X3458689Y1848866D01*
G01X3464785Y1845818D01*
G01X3467833Y1839722D01*
G01X3470881Y1827276D01*
G01X3474183Y1817878D01*
G01X3480279Y1811782D01*
G01X3486375Y1808734D01*
G01X3495773Y1808734D01*
G01X3501869Y1811782D01*
G01X3505171Y1814830D01*
G01X3508219Y1824228D01*
G01X3508219Y1836674D01*
G01X3505171Y1845818D01*
G01X3501869Y1848866D01*
G01X3495773Y1851914D01*
G01X3486375Y1851914D01*
G01X3480279Y1848866D01*
G01X3474183Y1842770D01*
G01X3470881Y1833372D01*
G01X3467833Y1821180D01*
G01X3464785Y1814830D01*
G01X3458689Y1811782D01*
G01X3452339Y1811782D01*
G01X3446243Y1814830D01*
G01X3443195Y1824228D01*
G01X3443195Y1836674D01*
G01X4217895Y1998980D02*
G01X4282919Y1998980D01*
G01X4217895Y1998980D02*
G01X4217895Y1971040D01*
G01X4220943Y1961896D01*
G01X4223991Y1958848D01*
G01X4230341Y1955546D01*
G01X4236437Y1955546D01*
G01X4242533Y1958848D01*
G01X4245581Y1961896D01*
G01X4248883Y1971040D01*
G01X4248883Y1998980D01*
G01X4248883Y1977390D02*
G01X4282919Y1955546D01*
G01X4217895Y1894586D02*
G01X4261075Y1925320D01*
G01X4261075Y1879092D01*
G01X4217895Y1894586D02*
G01X4282919Y1894586D01*
G01X4217895Y1830324D02*
G01X4220943Y1839722D01*
G01X4230341Y1845818D01*
G01X4245581Y1848866D01*
G01X4254979Y1848866D01*
G01X4270473Y1845818D01*
G01X4279871Y1839722D01*
G01X4282919Y1830324D01*
G01X4282919Y1824228D01*
G01X4279871Y1814830D01*
G01X4270473Y1808734D01*
G01X4254979Y1805686D01*
G01X4245581Y1805686D01*
G01X4230341Y1808734D01*
G01X4220943Y1814830D01*
G01X4217895Y1824228D01*
G01X4217895Y1830324D01*
G01X2741451Y-1645666D02*
G01X2741451Y-1710690D01*
G01X2741451Y-1645666D02*
G01X2713511Y-1645666D01*
G01X2704367Y-1648714D01*
G01X2701319Y-1651762D01*
G01X2698017Y-1658112D01*
G01X2698017Y-1664208D01*
G01X2701319Y-1670304D01*
G01X2704367Y-1673352D01*
G01X2713511Y-1676654D01*
G01X2741451Y-1676654D01*
G01X2719861Y-1676654D02*
G01X2698017Y-1710690D01*
G01X2637057Y-1645666D02*
G01X2667791Y-1688846D01*
G01X2621563Y-1688846D01*
G01X2637057Y-1645666D02*
G01X2637057Y-1710690D01*
G01X2591337Y-1658112D02*
G01X2585241Y-1654810D01*
G01X2576097Y-1645666D01*
G01X2576097Y-1710690D01*
G01X2923286Y-1747520D02*
G01X2988310Y-1747520D01*
G01X2923286Y-1747520D02*
G01X2923286Y-1775460D01*
G01X2926334Y-1784604D01*
G01X2929382Y-1787652D01*
G01X2935732Y-1790954D01*
G01X2941828Y-1790954D01*
G01X2947924Y-1787652D01*
G01X2950972Y-1784604D01*
G01X2954274Y-1775460D01*
G01X2954274Y-1747520D01*
G01X2954274Y-1769110D02*
G01X2988310Y-1790954D01*
G01X2923286Y-1851914D02*
G01X2966466Y-1821180D01*
G01X2966466Y-1867408D01*
G01X2923286Y-1851914D02*
G01X2988310Y-1851914D01*
G01X2938780Y-1900682D02*
G01X2935732Y-1900682D01*
G01X2929382Y-1903730D01*
G01X2926334Y-1906778D01*
G01X2923286Y-1912874D01*
G01X2923286Y-1925320D01*
G01X2926334Y-1931670D01*
G01X2929382Y-1934718D01*
G01X2935732Y-1937766D01*
G01X2941828Y-1937766D01*
G01X2947924Y-1934718D01*
G01X2957322Y-1928368D01*
G01X2988310Y-1897634D01*
G01X2988310Y-1940814D01*
G01X2819654Y-2240280D02*
G01X2754630Y-2240280D01*
G01X2819654Y-2240280D02*
G01X2819654Y-2212340D01*
G01X2816606Y-2203196D01*
G01X2813558Y-2200148D01*
G01X2807208Y-2196846D01*
G01X2801112Y-2196846D01*
G01X2795016Y-2200148D01*
G01X2791968Y-2203196D01*
G01X2788666Y-2212340D01*
G01X2788666Y-2240280D01*
G01X2788666Y-2218690D02*
G01X2754630Y-2196846D01*
G01X2819654Y-2135886D02*
G01X2776474Y-2166620D01*
G01X2776474Y-2120392D01*
G01X2819654Y-2135886D02*
G01X2754630Y-2135886D01*
G01X2819654Y-2084070D02*
G01X2819654Y-2050034D01*
G01X2795016Y-2068576D01*
G01X2795016Y-2059432D01*
G01X2791968Y-2053082D01*
G01X2788666Y-2050034D01*
G01X2779522Y-2046986D01*
G01X2773172Y-2046986D01*
G01X2764028Y-2050034D01*
G01X2757678Y-2056130D01*
G01X2754630Y-2065528D01*
G01X2754630Y-2074926D01*
G01X2757678Y-2084070D01*
G01X2760980Y-2087118D01*
G01X2767076Y-2090166D01*
G01X3594354Y-2240280D02*
G01X3529330Y-2240280D01*
G01X3594354Y-2240280D02*
G01X3594354Y-2212340D01*
G01X3591306Y-2203196D01*
G01X3588258Y-2200148D01*
G01X3581908Y-2196846D01*
G01X3575812Y-2196846D01*
G01X3569716Y-2200148D01*
G01X3566668Y-2203196D01*
G01X3563366Y-2212340D01*
G01X3563366Y-2240280D01*
G01X3563366Y-2218690D02*
G01X3529330Y-2196846D01*
G01X3594354Y-2135886D02*
G01X3551174Y-2166620D01*
G01X3551174Y-2120392D01*
G01X3594354Y-2135886D02*
G01X3529330Y-2135886D01*
G01X3594354Y-2059432D02*
G01X3551174Y-2090166D01*
G01X3551174Y-2043938D01*
G01X3594354Y-2059432D02*
G01X3529330Y-2059432D01*
G01X4369054Y-2240280D02*
G01X4304030Y-2240280D01*
G01X4369054Y-2240280D02*
G01X4369054Y-2212340D01*
G01X4366006Y-2203196D01*
G01X4362958Y-2200148D01*
G01X4356608Y-2196846D01*
G01X4350512Y-2196846D01*
G01X4344416Y-2200148D01*
G01X4341368Y-2203196D01*
G01X4338066Y-2212340D01*
G01X4338066Y-2240280D01*
G01X4338066Y-2218690D02*
G01X4304030Y-2196846D01*
G01X4369054Y-2135886D02*
G01X4325874Y-2166620D01*
G01X4325874Y-2120392D01*
G01X4369054Y-2135886D02*
G01X4304030Y-2135886D01*
G01X4369054Y-2053082D02*
G01X4369054Y-2084070D01*
G01X4341368Y-2087118D01*
G01X4344416Y-2084070D01*
G01X4347464Y-2074926D01*
G01X4347464Y-2065528D01*
G01X4344416Y-2056130D01*
G01X4338066Y-2050034D01*
G01X4328922Y-2046986D01*
G01X4322572Y-2046986D01*
G01X4313428Y-2050034D01*
G01X4307078Y-2056130D01*
G01X4304030Y-2065528D01*
G01X4304030Y-2074926D01*
G01X4307078Y-2084070D01*
G01X4310380Y-2087118D01*
G01X4316476Y-2090166D01*
G01X3516151Y-1645666D02*
G01X3516151Y-1710690D01*
G01X3516151Y-1645666D02*
G01X3488211Y-1645666D01*
G01X3479067Y-1648714D01*
G01X3476019Y-1651762D01*
G01X3472717Y-1658112D01*
G01X3472717Y-1664208D01*
G01X3476019Y-1670304D01*
G01X3479067Y-1673352D01*
G01X3488211Y-1676654D01*
G01X3516151Y-1676654D01*
G01X3494561Y-1676654D02*
G01X3472717Y-1710690D01*
G01X3411757Y-1645666D02*
G01X3442491Y-1688846D01*
G01X3396263Y-1688846D01*
G01X3411757Y-1645666D02*
G01X3411757Y-1710690D01*
G01X3328953Y-1654810D02*
G01X3332001Y-1648714D01*
G01X3341399Y-1645666D01*
G01X3347495Y-1645666D01*
G01X3356893Y-1648714D01*
G01X3362989Y-1658112D01*
G01X3366037Y-1673352D01*
G01X3366037Y-1688846D01*
G01X3362989Y-1701292D01*
G01X3356893Y-1707642D01*
G01X3347495Y-1710690D01*
G01X3344447Y-1710690D01*
G01X3335303Y-1707642D01*
G01X3328953Y-1701292D01*
G01X3325905Y-1692148D01*
G01X3325905Y-1688846D01*
G01X3328953Y-1679702D01*
G01X3335303Y-1673352D01*
G01X3344447Y-1670304D01*
G01X3347495Y-1670304D01*
G01X3356893Y-1673352D01*
G01X3362989Y-1679702D01*
G01X3366037Y-1688846D01*
G01X4290851Y-1645666D02*
G01X4290851Y-1710690D01*
G01X4290851Y-1645666D02*
G01X4262911Y-1645666D01*
G01X4253767Y-1648714D01*
G01X4250719Y-1651762D01*
G01X4247417Y-1658112D01*
G01X4247417Y-1664208D01*
G01X4250719Y-1670304D01*
G01X4253767Y-1673352D01*
G01X4262911Y-1676654D01*
G01X4290851Y-1676654D01*
G01X4269261Y-1676654D02*
G01X4247417Y-1710690D01*
G01X4186457Y-1645666D02*
G01X4217191Y-1688846D01*
G01X4170963Y-1688846D01*
G01X4186457Y-1645666D02*
G01X4186457Y-1710690D01*
G01X4097557Y-1645666D02*
G01X4128545Y-1710690D01*
G01X4140737Y-1645666D02*
G01X4097557Y-1645666D01*
G01X3697986Y-1747520D02*
G01X3763010Y-1747520D01*
G01X3697986Y-1747520D02*
G01X3697986Y-1775460D01*
G01X3701034Y-1784604D01*
G01X3704082Y-1787652D01*
G01X3710432Y-1790954D01*
G01X3716528Y-1790954D01*
G01X3722624Y-1787652D01*
G01X3725672Y-1784604D01*
G01X3728974Y-1775460D01*
G01X3728974Y-1747520D01*
G01X3728974Y-1769110D02*
G01X3763010Y-1790954D01*
G01X3697986Y-1851914D02*
G01X3741166Y-1821180D01*
G01X3741166Y-1867408D01*
G01X3697986Y-1851914D02*
G01X3763010Y-1851914D01*
G01X3697986Y-1912874D02*
G01X3701034Y-1903730D01*
G01X3707130Y-1900682D01*
G01X3713480Y-1900682D01*
G01X3719576Y-1903730D01*
G01X3722624Y-1909826D01*
G01X3725672Y-1922272D01*
G01X3728974Y-1931670D01*
G01X3735070Y-1937766D01*
G01X3741166Y-1940814D01*
G01X3750564Y-1940814D01*
G01X3756660Y-1937766D01*
G01X3759962Y-1934718D01*
G01X3763010Y-1925320D01*
G01X3763010Y-1912874D01*
G01X3759962Y-1903730D01*
G01X3756660Y-1900682D01*
G01X3750564Y-1897634D01*
G01X3741166Y-1897634D01*
G01X3735070Y-1900682D01*
G01X3728974Y-1906778D01*
G01X3725672Y-1916176D01*
G01X3722624Y-1928368D01*
G01X3719576Y-1934718D01*
G01X3713480Y-1937766D01*
G01X3707130Y-1937766D01*
G01X3701034Y-1934718D01*
G01X3697986Y-1925320D01*
G01X3697986Y-1912874D01*
G01X4472686Y-1747520D02*
G01X4537710Y-1747520D01*
G01X4472686Y-1747520D02*
G01X4472686Y-1775460D01*
G01X4475734Y-1784604D01*
G01X4478782Y-1787652D01*
G01X4485132Y-1790954D01*
G01X4491228Y-1790954D01*
G01X4497324Y-1787652D01*
G01X4500372Y-1784604D01*
G01X4503674Y-1775460D01*
G01X4503674Y-1747520D01*
G01X4503674Y-1769110D02*
G01X4537710Y-1790954D01*
G01X4472686Y-1851914D02*
G01X4515866Y-1821180D01*
G01X4515866Y-1867408D01*
G01X4472686Y-1851914D02*
G01X4537710Y-1851914D01*
G01X4494276Y-1937766D02*
G01X4503674Y-1934718D01*
G01X4509770Y-1928368D01*
G01X4512818Y-1919224D01*
G01X4512818Y-1916176D01*
G01X4509770Y-1906778D01*
G01X4503674Y-1900682D01*
G01X4494276Y-1897634D01*
G01X4491228Y-1897634D01*
G01X4481830Y-1900682D01*
G01X4475734Y-1906778D01*
G01X4472686Y-1916176D01*
G01X4472686Y-1919224D01*
G01X4475734Y-1928368D01*
G01X4481830Y-1934718D01*
G01X4494276Y-1937766D01*
G01X4509770Y-1937766D01*
G01X4525264Y-1934718D01*
G01X4534662Y-1928368D01*
G01X4537710Y-1919224D01*
G01X4537710Y-1912874D01*
G01X4534662Y-1903730D01*
G01X4528312Y-1900682D01*
G01X2551205Y-1998980D02*
G01X2486181Y-1998980D01*
G01X2551205Y-1998980D02*
G01X2551205Y-1971040D01*
G01X2548157Y-1961896D01*
G01X2545109Y-1958848D01*
G01X2538759Y-1955546D01*
G01X2532663Y-1955546D01*
G01X2526567Y-1958848D01*
G01X2523519Y-1961896D01*
G01X2520217Y-1971040D01*
G01X2520217Y-1998980D01*
G01X2520217Y-1977390D02*
G01X2486181Y-1955546D01*
G01X2551205Y-1888236D02*
G01X2551205Y-1919224D01*
G01X2523519Y-1922272D01*
G01X2526567Y-1919224D01*
G01X2529615Y-1910080D01*
G01X2529615Y-1900682D01*
G01X2526567Y-1891284D01*
G01X2520217Y-1885188D01*
G01X2511073Y-1882140D01*
G01X2504723Y-1882140D01*
G01X2495579Y-1885188D01*
G01X2489229Y-1891284D01*
G01X2486181Y-1900682D01*
G01X2486181Y-1910080D01*
G01X2489229Y-1919224D01*
G01X2492531Y-1922272D01*
G01X2498627Y-1925320D01*
G01X2551205Y-1833372D02*
G01X2548157Y-1842770D01*
G01X2538759Y-1848866D01*
G01X2523519Y-1851914D01*
G01X2514121Y-1851914D01*
G01X2498627Y-1848866D01*
G01X2489229Y-1842770D01*
G01X2486181Y-1833372D01*
G01X2486181Y-1827276D01*
G01X2489229Y-1817878D01*
G01X2498627Y-1811782D01*
G01X2514121Y-1808734D01*
G01X2523519Y-1808734D01*
G01X2538759Y-1811782D01*
G01X2548157Y-1817878D01*
G01X2551205Y-1827276D01*
G01X2551205Y-1833372D01*
G01X3325905Y-1998980D02*
G01X3260881Y-1998980D01*
G01X3325905Y-1998980D02*
G01X3325905Y-1971040D01*
G01X3322857Y-1961896D01*
G01X3319809Y-1958848D01*
G01X3313459Y-1955546D01*
G01X3307363Y-1955546D01*
G01X3301267Y-1958848D01*
G01X3298219Y-1961896D01*
G01X3294917Y-1971040D01*
G01X3294917Y-1998980D01*
G01X3294917Y-1977390D02*
G01X3260881Y-1955546D01*
G01X3325905Y-1888236D02*
G01X3325905Y-1919224D01*
G01X3298219Y-1922272D01*
G01X3301267Y-1919224D01*
G01X3304315Y-1910080D01*
G01X3304315Y-1900682D01*
G01X3301267Y-1891284D01*
G01X3294917Y-1885188D01*
G01X3285773Y-1882140D01*
G01X3279423Y-1882140D01*
G01X3270279Y-1885188D01*
G01X3263929Y-1891284D01*
G01X3260881Y-1900682D01*
G01X3260881Y-1910080D01*
G01X3263929Y-1919224D01*
G01X3267231Y-1922272D01*
G01X3273327Y-1925320D01*
G01X3325905Y-1821180D02*
G01X3282725Y-1851914D01*
G01X3282725Y-1805686D01*
G01X3325905Y-1821180D02*
G01X3260881Y-1821180D01*
G01X4100605Y-1998980D02*
G01X4035581Y-1998980D01*
G01X4100605Y-1998980D02*
G01X4100605Y-1971040D01*
G01X4097557Y-1961896D01*
G01X4094509Y-1958848D01*
G01X4088159Y-1955546D01*
G01X4082063Y-1955546D01*
G01X4075967Y-1958848D01*
G01X4072919Y-1961896D01*
G01X4069617Y-1971040D01*
G01X4069617Y-1998980D01*
G01X4069617Y-1977390D02*
G01X4035581Y-1955546D01*
G01X4100605Y-1888236D02*
G01X4100605Y-1919224D01*
G01X4072919Y-1922272D01*
G01X4075967Y-1919224D01*
G01X4079015Y-1910080D01*
G01X4079015Y-1900682D01*
G01X4075967Y-1891284D01*
G01X4069617Y-1885188D01*
G01X4060473Y-1882140D01*
G01X4054123Y-1882140D01*
G01X4044979Y-1885188D01*
G01X4038629Y-1891284D01*
G01X4035581Y-1900682D01*
G01X4035581Y-1910080D01*
G01X4038629Y-1919224D01*
G01X4041931Y-1922272D01*
G01X4048027Y-1925320D01*
G01X4100605Y-1814830D02*
G01X4100605Y-1845818D01*
G01X4072919Y-1848866D01*
G01X4075967Y-1845818D01*
G01X4079015Y-1836674D01*
G01X4079015Y-1827276D01*
G01X4075967Y-1817878D01*
G01X4069617Y-1811782D01*
G01X4060473Y-1808734D01*
G01X4054123Y-1808734D01*
G01X4044979Y-1811782D01*
G01X4038629Y-1817878D01*
G01X4035581Y-1827276D01*
G01X4035581Y-1836674D01*
G01X4038629Y-1845818D01*
G01X4041931Y-1848866D01*
G01X4048027Y-1851914D01*
G01X-4027741Y-1645158D02*
G01X-4027741Y-1710182D01*
G01X-4027741Y-1645158D02*
G01X-4055681Y-1645158D01*
G01X-4064825Y-1648206D01*
G01X-4067873Y-1651254D01*
G01X-4071175Y-1657604D01*
G01X-4071175Y-1663700D01*
G01X-4067873Y-1669796D01*
G01X-4064825Y-1672844D01*
G01X-4055681Y-1676146D01*
G01X-4027741Y-1676146D01*
G01X-4049331Y-1676146D02*
G01X-4071175Y-1710182D01*
G01X-4138485Y-1645158D02*
G01X-4107497Y-1645158D01*
G01X-4104449Y-1672844D01*
G01X-4107497Y-1669796D01*
G01X-4116641Y-1666748D01*
G01X-4126039Y-1666748D01*
G01X-4135437Y-1669796D01*
G01X-4141533Y-1676146D01*
G01X-4144581Y-1685290D01*
G01X-4144581Y-1691640D01*
G01X-4141533Y-1700784D01*
G01X-4135437Y-1707134D01*
G01X-4126039Y-1710182D01*
G01X-4116641Y-1710182D01*
G01X-4107497Y-1707134D01*
G01X-4104449Y-1703832D01*
G01X-4101401Y-1697736D01*
G01X-4190047Y-1645158D02*
G01X-4180903Y-1648206D01*
G01X-4177855Y-1654302D01*
G01X-4177855Y-1660652D01*
G01X-4180903Y-1666748D01*
G01X-4186999Y-1669796D01*
G01X-4199445Y-1672844D01*
G01X-4208843Y-1676146D01*
G01X-4214939Y-1682242D01*
G01X-4217987Y-1688338D01*
G01X-4217987Y-1697736D01*
G01X-4214939Y-1703832D01*
G01X-4211891Y-1707134D01*
G01X-4202493Y-1710182D01*
G01X-4190047Y-1710182D01*
G01X-4180903Y-1707134D01*
G01X-4177855Y-1703832D01*
G01X-4174807Y-1697736D01*
G01X-4174807Y-1688338D01*
G01X-4177855Y-1682242D01*
G01X-4183951Y-1676146D01*
G01X-4193349Y-1672844D01*
G01X-4205541Y-1669796D01*
G01X-4211891Y-1666748D01*
G01X-4214939Y-1660652D01*
G01X-4214939Y-1654302D01*
G01X-4211891Y-1648206D01*
G01X-4202493Y-1645158D01*
G01X-4190047Y-1645158D01*
G01X-3845906Y-1747012D02*
G01X-3780882Y-1747012D01*
G01X-3845906Y-1747012D02*
G01X-3845906Y-1774952D01*
G01X-3842858Y-1784096D01*
G01X-3839810Y-1787144D01*
G01X-3833460Y-1790446D01*
G01X-3827364Y-1790446D01*
G01X-3821268Y-1787144D01*
G01X-3818220Y-1784096D01*
G01X-3814918Y-1774952D01*
G01X-3814918Y-1747012D01*
G01X-3814918Y-1768602D02*
G01X-3780882Y-1790446D01*
G01X-3845906Y-1857756D02*
G01X-3845906Y-1826768D01*
G01X-3818220Y-1823720D01*
G01X-3821268Y-1826768D01*
G01X-3824316Y-1835912D01*
G01X-3824316Y-1845310D01*
G01X-3821268Y-1854708D01*
G01X-3814918Y-1860804D01*
G01X-3805774Y-1863852D01*
G01X-3799424Y-1863852D01*
G01X-3790280Y-1860804D01*
G01X-3783930Y-1854708D01*
G01X-3780882Y-1845310D01*
G01X-3780882Y-1835912D01*
G01X-3783930Y-1826768D01*
G01X-3787232Y-1823720D01*
G01X-3793328Y-1820672D01*
G01X-3824316Y-1934210D02*
G01X-3814918Y-1931162D01*
G01X-3808822Y-1924812D01*
G01X-3805774Y-1915668D01*
G01X-3805774Y-1912620D01*
G01X-3808822Y-1903222D01*
G01X-3814918Y-1897126D01*
G01X-3824316Y-1894078D01*
G01X-3827364Y-1894078D01*
G01X-3836762Y-1897126D01*
G01X-3842858Y-1903222D01*
G01X-3845906Y-1912620D01*
G01X-3845906Y-1915668D01*
G01X-3842858Y-1924812D01*
G01X-3836762Y-1931162D01*
G01X-3824316Y-1934210D01*
G01X-3808822Y-1934210D01*
G01X-3793328Y-1931162D01*
G01X-3783930Y-1924812D01*
G01X-3780882Y-1915668D01*
G01X-3780882Y-1909318D01*
G01X-3783930Y-1900174D01*
G01X-3790280Y-1897126D01*
G01X-3949538Y-2239772D02*
G01X-4014562Y-2239772D01*
G01X-3949538Y-2239772D02*
G01X-3949538Y-2211832D01*
G01X-3952586Y-2202688D01*
G01X-3955634Y-2199640D01*
G01X-3961984Y-2196338D01*
G01X-3968080Y-2196338D01*
G01X-3974176Y-2199640D01*
G01X-3977224Y-2202688D01*
G01X-3980526Y-2211832D01*
G01X-3980526Y-2239772D01*
G01X-3980526Y-2218182D02*
G01X-4014562Y-2196338D01*
G01X-3958682Y-2129028D02*
G01X-3952586Y-2132076D01*
G01X-3949538Y-2141474D01*
G01X-3949538Y-2147570D01*
G01X-3952586Y-2156968D01*
G01X-3961984Y-2163064D01*
G01X-3977224Y-2166112D01*
G01X-3992718Y-2166112D01*
G01X-4005164Y-2163064D01*
G01X-4011514Y-2156968D01*
G01X-4014562Y-2147570D01*
G01X-4014562Y-2144522D01*
G01X-4011514Y-2135378D01*
G01X-4005164Y-2129028D01*
G01X-3996020Y-2125980D01*
G01X-3992718Y-2125980D01*
G01X-3983574Y-2129028D01*
G01X-3977224Y-2135378D01*
G01X-3974176Y-2144522D01*
G01X-3974176Y-2147570D01*
G01X-3977224Y-2156968D01*
G01X-3983574Y-2163064D01*
G01X-3992718Y-2166112D01*
G01X-3949538Y-2077212D02*
G01X-3952586Y-2086610D01*
G01X-3961984Y-2092706D01*
G01X-3977224Y-2095754D01*
G01X-3986622Y-2095754D01*
G01X-4002116Y-2092706D01*
G01X-4011514Y-2086610D01*
G01X-4014562Y-2077212D01*
G01X-4014562Y-2071116D01*
G01X-4011514Y-2061718D01*
G01X-4002116Y-2055622D01*
G01X-3986622Y-2052574D01*
G01X-3977224Y-2052574D01*
G01X-3961984Y-2055622D01*
G01X-3952586Y-2061718D01*
G01X-3949538Y-2071116D01*
G01X-3949538Y-2077212D01*
G01X-3174838Y-2239772D02*
G01X-3239862Y-2239772D01*
G01X-3174838Y-2239772D02*
G01X-3174838Y-2211832D01*
G01X-3177886Y-2202688D01*
G01X-3180934Y-2199640D01*
G01X-3187284Y-2196338D01*
G01X-3193380Y-2196338D01*
G01X-3199476Y-2199640D01*
G01X-3202524Y-2202688D01*
G01X-3205826Y-2211832D01*
G01X-3205826Y-2239772D01*
G01X-3205826Y-2218182D02*
G01X-3239862Y-2196338D01*
G01X-3183982Y-2129028D02*
G01X-3177886Y-2132076D01*
G01X-3174838Y-2141474D01*
G01X-3174838Y-2147570D01*
G01X-3177886Y-2156968D01*
G01X-3187284Y-2163064D01*
G01X-3202524Y-2166112D01*
G01X-3218018Y-2166112D01*
G01X-3230464Y-2163064D01*
G01X-3236814Y-2156968D01*
G01X-3239862Y-2147570D01*
G01X-3239862Y-2144522D01*
G01X-3236814Y-2135378D01*
G01X-3230464Y-2129028D01*
G01X-3221320Y-2125980D01*
G01X-3218018Y-2125980D01*
G01X-3208874Y-2129028D01*
G01X-3202524Y-2135378D01*
G01X-3199476Y-2144522D01*
G01X-3199476Y-2147570D01*
G01X-3202524Y-2156968D01*
G01X-3208874Y-2163064D01*
G01X-3218018Y-2166112D01*
G01X-3187284Y-2095754D02*
G01X-3183982Y-2089658D01*
G01X-3174838Y-2080514D01*
G01X-3239862Y-2080514D01*
G01X-2400138Y-2239772D02*
G01X-2465162Y-2239772D01*
G01X-2400138Y-2239772D02*
G01X-2400138Y-2211832D01*
G01X-2403186Y-2202688D01*
G01X-2406234Y-2199640D01*
G01X-2412584Y-2196338D01*
G01X-2418680Y-2196338D01*
G01X-2424776Y-2199640D01*
G01X-2427824Y-2202688D01*
G01X-2431126Y-2211832D01*
G01X-2431126Y-2239772D01*
G01X-2431126Y-2218182D02*
G01X-2465162Y-2196338D01*
G01X-2409282Y-2129028D02*
G01X-2403186Y-2132076D01*
G01X-2400138Y-2141474D01*
G01X-2400138Y-2147570D01*
G01X-2403186Y-2156968D01*
G01X-2412584Y-2163064D01*
G01X-2427824Y-2166112D01*
G01X-2443318Y-2166112D01*
G01X-2455764Y-2163064D01*
G01X-2462114Y-2156968D01*
G01X-2465162Y-2147570D01*
G01X-2465162Y-2144522D01*
G01X-2462114Y-2135378D01*
G01X-2455764Y-2129028D01*
G01X-2446620Y-2125980D01*
G01X-2443318Y-2125980D01*
G01X-2434174Y-2129028D01*
G01X-2427824Y-2135378D01*
G01X-2424776Y-2144522D01*
G01X-2424776Y-2147570D01*
G01X-2427824Y-2156968D01*
G01X-2434174Y-2163064D01*
G01X-2443318Y-2166112D01*
G01X-2415632Y-2092706D02*
G01X-2412584Y-2092706D01*
G01X-2406234Y-2089658D01*
G01X-2403186Y-2086610D01*
G01X-2400138Y-2080514D01*
G01X-2400138Y-2068068D01*
G01X-2403186Y-2061718D01*
G01X-2406234Y-2058670D01*
G01X-2412584Y-2055622D01*
G01X-2418680Y-2055622D01*
G01X-2424776Y-2058670D01*
G01X-2434174Y-2065020D01*
G01X-2465162Y-2095754D01*
G01X-2465162Y-2052574D01*
G01X-3253041Y-1645158D02*
G01X-3253041Y-1710182D01*
G01X-3253041Y-1645158D02*
G01X-3280981Y-1645158D01*
G01X-3290125Y-1648206D01*
G01X-3293173Y-1651254D01*
G01X-3296475Y-1657604D01*
G01X-3296475Y-1663700D01*
G01X-3293173Y-1669796D01*
G01X-3290125Y-1672844D01*
G01X-3280981Y-1676146D01*
G01X-3253041Y-1676146D01*
G01X-3274631Y-1676146D02*
G01X-3296475Y-1710182D01*
G01X-3363785Y-1654302D02*
G01X-3360737Y-1648206D01*
G01X-3351339Y-1645158D01*
G01X-3345243Y-1645158D01*
G01X-3335845Y-1648206D01*
G01X-3329749Y-1657604D01*
G01X-3326701Y-1672844D01*
G01X-3326701Y-1688338D01*
G01X-3329749Y-1700784D01*
G01X-3335845Y-1707134D01*
G01X-3345243Y-1710182D01*
G01X-3348291Y-1710182D01*
G01X-3357435Y-1707134D01*
G01X-3363785Y-1700784D01*
G01X-3366833Y-1691640D01*
G01X-3366833Y-1688338D01*
G01X-3363785Y-1679194D01*
G01X-3357435Y-1672844D01*
G01X-3348291Y-1669796D01*
G01X-3345243Y-1669796D01*
G01X-3335845Y-1672844D01*
G01X-3329749Y-1679194D01*
G01X-3326701Y-1688338D01*
G01X-3403155Y-1645158D02*
G01X-3437191Y-1645158D01*
G01X-3418649Y-1669796D01*
G01X-3427793Y-1669796D01*
G01X-3434143Y-1672844D01*
G01X-3437191Y-1676146D01*
G01X-3440239Y-1685290D01*
G01X-3440239Y-1691640D01*
G01X-3437191Y-1700784D01*
G01X-3431095Y-1707134D01*
G01X-3421697Y-1710182D01*
G01X-3412299Y-1710182D01*
G01X-3403155Y-1707134D01*
G01X-3400107Y-1703832D01*
G01X-3397059Y-1697736D01*
G01X-2478341Y-1645158D02*
G01X-2478341Y-1710182D01*
G01X-2478341Y-1645158D02*
G01X-2506281Y-1645158D01*
G01X-2515425Y-1648206D01*
G01X-2518473Y-1651254D01*
G01X-2521775Y-1657604D01*
G01X-2521775Y-1663700D01*
G01X-2518473Y-1669796D01*
G01X-2515425Y-1672844D01*
G01X-2506281Y-1676146D01*
G01X-2478341Y-1676146D01*
G01X-2499931Y-1676146D02*
G01X-2521775Y-1710182D01*
G01X-2589085Y-1654302D02*
G01X-2586037Y-1648206D01*
G01X-2576639Y-1645158D01*
G01X-2570543Y-1645158D01*
G01X-2561145Y-1648206D01*
G01X-2555049Y-1657604D01*
G01X-2552001Y-1672844D01*
G01X-2552001Y-1688338D01*
G01X-2555049Y-1700784D01*
G01X-2561145Y-1707134D01*
G01X-2570543Y-1710182D01*
G01X-2573591Y-1710182D01*
G01X-2582735Y-1707134D01*
G01X-2589085Y-1700784D01*
G01X-2592133Y-1691640D01*
G01X-2592133Y-1688338D01*
G01X-2589085Y-1679194D01*
G01X-2582735Y-1672844D01*
G01X-2573591Y-1669796D01*
G01X-2570543Y-1669796D01*
G01X-2561145Y-1672844D01*
G01X-2555049Y-1679194D01*
G01X-2552001Y-1688338D01*
G01X-2653093Y-1645158D02*
G01X-2622359Y-1688338D01*
G01X-2668587Y-1688338D01*
G01X-2653093Y-1645158D02*
G01X-2653093Y-1710182D01*
G01X-3071206Y-1747012D02*
G01X-3006182Y-1747012D01*
G01X-3071206Y-1747012D02*
G01X-3071206Y-1774952D01*
G01X-3068158Y-1784096D01*
G01X-3065110Y-1787144D01*
G01X-3058760Y-1790446D01*
G01X-3052664Y-1790446D01*
G01X-3046568Y-1787144D01*
G01X-3043520Y-1784096D01*
G01X-3040218Y-1774952D01*
G01X-3040218Y-1747012D01*
G01X-3040218Y-1768602D02*
G01X-3006182Y-1790446D01*
G01X-3062062Y-1857756D02*
G01X-3068158Y-1854708D01*
G01X-3071206Y-1845310D01*
G01X-3071206Y-1839214D01*
G01X-3068158Y-1829816D01*
G01X-3058760Y-1823720D01*
G01X-3043520Y-1820672D01*
G01X-3028026Y-1820672D01*
G01X-3015580Y-1823720D01*
G01X-3009230Y-1829816D01*
G01X-3006182Y-1839214D01*
G01X-3006182Y-1842262D01*
G01X-3009230Y-1851406D01*
G01X-3015580Y-1857756D01*
G01X-3024724Y-1860804D01*
G01X-3028026Y-1860804D01*
G01X-3037170Y-1857756D01*
G01X-3043520Y-1851406D01*
G01X-3046568Y-1842262D01*
G01X-3046568Y-1839214D01*
G01X-3043520Y-1829816D01*
G01X-3037170Y-1823720D01*
G01X-3028026Y-1820672D01*
G01X-3071206Y-1928114D02*
G01X-3071206Y-1897126D01*
G01X-3043520Y-1894078D01*
G01X-3046568Y-1897126D01*
G01X-3049616Y-1906270D01*
G01X-3049616Y-1915668D01*
G01X-3046568Y-1925066D01*
G01X-3040218Y-1931162D01*
G01X-3031074Y-1934210D01*
G01X-3024724Y-1934210D01*
G01X-3015580Y-1931162D01*
G01X-3009230Y-1925066D01*
G01X-3006182Y-1915668D01*
G01X-3006182Y-1906270D01*
G01X-3009230Y-1897126D01*
G01X-3012532Y-1894078D01*
G01X-3018628Y-1891030D01*
G01X-2296506Y-1747012D02*
G01X-2231482Y-1747012D01*
G01X-2296506Y-1747012D02*
G01X-2296506Y-1774952D01*
G01X-2293458Y-1784096D01*
G01X-2290410Y-1787144D01*
G01X-2284060Y-1790446D01*
G01X-2277964Y-1790446D01*
G01X-2271868Y-1787144D01*
G01X-2268820Y-1784096D01*
G01X-2265518Y-1774952D01*
G01X-2265518Y-1747012D01*
G01X-2265518Y-1768602D02*
G01X-2231482Y-1790446D01*
G01X-2287362Y-1857756D02*
G01X-2293458Y-1854708D01*
G01X-2296506Y-1845310D01*
G01X-2296506Y-1839214D01*
G01X-2293458Y-1829816D01*
G01X-2284060Y-1823720D01*
G01X-2268820Y-1820672D01*
G01X-2253326Y-1820672D01*
G01X-2240880Y-1823720D01*
G01X-2234530Y-1829816D01*
G01X-2231482Y-1839214D01*
G01X-2231482Y-1842262D01*
G01X-2234530Y-1851406D01*
G01X-2240880Y-1857756D01*
G01X-2250024Y-1860804D01*
G01X-2253326Y-1860804D01*
G01X-2262470Y-1857756D01*
G01X-2268820Y-1851406D01*
G01X-2271868Y-1842262D01*
G01X-2271868Y-1839214D01*
G01X-2268820Y-1829816D01*
G01X-2262470Y-1823720D01*
G01X-2253326Y-1820672D01*
G01X-2287362Y-1928114D02*
G01X-2293458Y-1925066D01*
G01X-2296506Y-1915668D01*
G01X-2296506Y-1909572D01*
G01X-2293458Y-1900174D01*
G01X-2284060Y-1894078D01*
G01X-2268820Y-1891030D01*
G01X-2253326Y-1891030D01*
G01X-2240880Y-1894078D01*
G01X-2234530Y-1900174D01*
G01X-2231482Y-1909572D01*
G01X-2231482Y-1912620D01*
G01X-2234530Y-1921764D01*
G01X-2240880Y-1928114D01*
G01X-2250024Y-1931162D01*
G01X-2253326Y-1931162D01*
G01X-2262470Y-1928114D01*
G01X-2268820Y-1921764D01*
G01X-2271868Y-1912620D01*
G01X-2271868Y-1909572D01*
G01X-2268820Y-1900174D01*
G01X-2262470Y-1894078D01*
G01X-2253326Y-1891030D01*
G01X-4217987Y-1998472D02*
G01X-4283011Y-1998472D01*
G01X-4217987Y-1998472D02*
G01X-4217987Y-1970532D01*
G01X-4221035Y-1961388D01*
G01X-4224083Y-1958340D01*
G01X-4230433Y-1955038D01*
G01X-4236529Y-1955038D01*
G01X-4242625Y-1958340D01*
G01X-4245673Y-1961388D01*
G01X-4248975Y-1970532D01*
G01X-4248975Y-1998472D01*
G01X-4248975Y-1976882D02*
G01X-4283011Y-1955038D01*
G01X-4227131Y-1887728D02*
G01X-4221035Y-1890776D01*
G01X-4217987Y-1900174D01*
G01X-4217987Y-1906270D01*
G01X-4221035Y-1915668D01*
G01X-4230433Y-1921764D01*
G01X-4245673Y-1924812D01*
G01X-4261167Y-1924812D01*
G01X-4273613Y-1921764D01*
G01X-4279963Y-1915668D01*
G01X-4283011Y-1906270D01*
G01X-4283011Y-1903222D01*
G01X-4279963Y-1894078D01*
G01X-4273613Y-1887728D01*
G01X-4264469Y-1884680D01*
G01X-4261167Y-1884680D01*
G01X-4252023Y-1887728D01*
G01X-4245673Y-1894078D01*
G01X-4242625Y-1903222D01*
G01X-4242625Y-1906270D01*
G01X-4245673Y-1915668D01*
G01X-4252023Y-1921764D01*
G01X-4261167Y-1924812D01*
G01X-4217987Y-1811274D02*
G01X-4283011Y-1842262D01*
G01X-4217987Y-1854454D02*
G01X-4217987Y-1811274D01*
G01X-3443287Y-1998472D02*
G01X-3508311Y-1998472D01*
G01X-3443287Y-1998472D02*
G01X-3443287Y-1970532D01*
G01X-3446335Y-1961388D01*
G01X-3449383Y-1958340D01*
G01X-3455733Y-1955038D01*
G01X-3461829Y-1955038D01*
G01X-3467925Y-1958340D01*
G01X-3470973Y-1961388D01*
G01X-3474275Y-1970532D01*
G01X-3474275Y-1998472D01*
G01X-3474275Y-1976882D02*
G01X-3508311Y-1955038D01*
G01X-3443287Y-1881632D02*
G01X-3508311Y-1912620D01*
G01X-3443287Y-1924812D02*
G01X-3443287Y-1881632D01*
G01X-3455733Y-1851406D02*
G01X-3452431Y-1845310D01*
G01X-3443287Y-1836166D01*
G01X-3508311Y-1836166D01*
G01X-2668587Y-1998472D02*
G01X-2733611Y-1998472D01*
G01X-2668587Y-1998472D02*
G01X-2668587Y-1970532D01*
G01X-2671635Y-1961388D01*
G01X-2674683Y-1958340D01*
G01X-2681033Y-1955038D01*
G01X-2687129Y-1955038D01*
G01X-2693225Y-1958340D01*
G01X-2696273Y-1961388D01*
G01X-2699575Y-1970532D01*
G01X-2699575Y-1998472D01*
G01X-2699575Y-1976882D02*
G01X-2733611Y-1955038D01*
G01X-2668587Y-1881632D02*
G01X-2733611Y-1912620D01*
G01X-2668587Y-1924812D02*
G01X-2668587Y-1881632D01*
G01X-2684081Y-1848358D02*
G01X-2681033Y-1848358D01*
G01X-2674683Y-1845310D01*
G01X-2671635Y-1842262D01*
G01X-2668587Y-1836166D01*
G01X-2668587Y-1823720D01*
G01X-2671635Y-1817370D01*
G01X-2674683Y-1814322D01*
G01X-2681033Y-1811274D01*
G01X-2687129Y-1811274D01*
G01X-2693225Y-1814322D01*
G01X-2702623Y-1820672D01*
G01X-2733611Y-1851406D01*
G01X-2733611Y-1808226D01*
G01X-3050286Y807720D02*
G01X-3096768Y807720D01*
G01X-3105912Y810768D01*
G01X-3112262Y817118D01*
G01X-3115310Y826262D01*
G01X-3115310Y832612D01*
G01X-3112262Y841756D01*
G01X-3105912Y847852D01*
G01X-3096768Y851154D01*
G01X-3050286Y851154D01*
G01X-3071876Y921512D02*
G01X-3081274Y918464D01*
G01X-3087370Y912114D01*
G01X-3090418Y902970D01*
G01X-3090418Y899922D01*
G01X-3087370Y890524D01*
G01X-3081274Y884428D01*
G01X-3071876Y881380D01*
G01X-3068828Y881380D01*
G01X-3059430Y884428D01*
G01X-3053334Y890524D01*
G01X-3050286Y899922D01*
G01X-3050286Y902970D01*
G01X-3053334Y912114D01*
G01X-3059430Y918464D01*
G01X-3071876Y921512D01*
G01X-3087370Y921512D01*
G01X-3102864Y918464D01*
G01X-3112262Y912114D01*
G01X-3115310Y902970D01*
G01X-3115310Y896620D01*
G01X-3112262Y887476D01*
G01X-3105912Y884428D01*
G01X-1127169Y-2327485D02*
G01X-1080687Y-2327485D01*
G01X-1071543Y-2330533D01*
G01X-1065193Y-2336883D01*
G01X-1062145Y-2346027D01*
G01X-1062145Y-2352377D01*
G01X-1065193Y-2361521D01*
G01X-1071543Y-2367617D01*
G01X-1080687Y-2370919D01*
G01X-1127169Y-2370919D01*
G01X-1114723Y-2401145D02*
G01X-1118025Y-2407241D01*
G01X-1127169Y-2416385D01*
G01X-1062145Y-2416385D01*
G01X-1114723Y-2446611D02*
G01X-1118025Y-2452707D01*
G01X-1127169Y-2461851D01*
G01X-1062145Y-2461851D01*
G01X3050286Y-807720D02*
G01X3096768Y-807720D01*
G01X3105912Y-810768D01*
G01X3112262Y-817118D01*
G01X3115310Y-826262D01*
G01X3115310Y-832612D01*
G01X3112262Y-841756D01*
G01X3105912Y-847852D01*
G01X3096768Y-851154D01*
G01X3050286Y-851154D01*
G01X3062732Y-881380D02*
G01X3059430Y-887476D01*
G01X3050286Y-896620D01*
G01X3115310Y-896620D01*
G01X3050286Y-963930D02*
G01X3050286Y-932942D01*
G01X3077972Y-929894D01*
G01X3074924Y-932942D01*
G01X3071876Y-942086D01*
G01X3071876Y-951484D01*
G01X3074924Y-960882D01*
G01X3081274Y-966978D01*
G01X3090418Y-970026D01*
G01X3096768Y-970026D01*
G01X3105912Y-966978D01*
G01X3112262Y-960882D01*
G01X3115310Y-951484D01*
G01X3115310Y-942086D01*
G01X3112262Y-932942D01*
G01X3108960Y-929894D01*
G01X3102864Y-926846D01*
G01X3718814Y807720D02*
G01X3672332Y807720D01*
G01X3663188Y810768D01*
G01X3656838Y817118D01*
G01X3653790Y826262D01*
G01X3653790Y832612D01*
G01X3656838Y841756D01*
G01X3663188Y847852D01*
G01X3672332Y851154D01*
G01X3718814Y851154D01*
G01X3706368Y881380D02*
G01X3709670Y887476D01*
G01X3718814Y896620D01*
G01X3653790Y896620D01*
G01X3718814Y942086D02*
G01X3715766Y932942D01*
G01X3709670Y929894D01*
G01X3703320Y929894D01*
G01X3697224Y932942D01*
G01X3694176Y939038D01*
G01X3691128Y951484D01*
G01X3687826Y960882D01*
G01X3681730Y966978D01*
G01X3675634Y970026D01*
G01X3666236Y970026D01*
G01X3660140Y966978D01*
G01X3656838Y963930D01*
G01X3653790Y954532D01*
G01X3653790Y942086D01*
G01X3656838Y932942D01*
G01X3660140Y929894D01*
G01X3666236Y926846D01*
G01X3675634Y926846D01*
G01X3681730Y929894D01*
G01X3687826Y935990D01*
G01X3691128Y945388D01*
G01X3694176Y957580D01*
G01X3697224Y963930D01*
G01X3703320Y966978D01*
G01X3709670Y966978D01*
G01X3715766Y963930D01*
G01X3718814Y954532D01*
G01X3718814Y942086D01*
G01X-3718906Y-807212D02*
G01X-3672424Y-807212D01*
G01X-3663280Y-810260D01*
G01X-3656930Y-816610D01*
G01X-3653882Y-825754D01*
G01X-3653882Y-832104D01*
G01X-3656930Y-841248D01*
G01X-3663280Y-847344D01*
G01X-3672424Y-850646D01*
G01X-3718906Y-850646D01*
G01X-3703412Y-883920D02*
G01X-3706460Y-883920D01*
G01X-3712810Y-886968D01*
G01X-3715858Y-890016D01*
G01X-3718906Y-896112D01*
G01X-3718906Y-908558D01*
G01X-3715858Y-914908D01*
G01X-3712810Y-917956D01*
G01X-3706460Y-921004D01*
G01X-3700364Y-921004D01*
G01X-3694268Y-917956D01*
G01X-3684870Y-911606D01*
G01X-3653882Y-880872D01*
G01X-3653882Y-924052D01*
G01X-3718906Y-960374D02*
G01X-3718906Y-994410D01*
G01X-3694268Y-975868D01*
G01X-3694268Y-985012D01*
G01X-3691220Y-991362D01*
G01X-3687918Y-994410D01*
G01X-3678774Y-997458D01*
G01X-3672424Y-997458D01*
G01X-3663280Y-994410D01*
G01X-3656930Y-988314D01*
G01X-3653882Y-978916D01*
G01X-3653882Y-969518D01*
G01X-3656930Y-960374D01*
G01X-3660232Y-957326D01*
G01X-3666328Y-954278D01*
G01X1991360Y-429768D02*
G01X1985010Y-426720D01*
G01X1978914Y-420370D01*
G01X1975866Y-414274D01*
G01X1975866Y-401828D01*
G01X1978914Y-395732D01*
G01X1985010Y-389382D01*
G01X1991360Y-386334D01*
G01X2000504Y-383286D01*
G01X2015998Y-383286D01*
G01X2025396Y-386334D01*
G01X2031492Y-389382D01*
G01X2037842Y-395732D01*
G01X2040890Y-401828D01*
G01X2040890Y-414274D01*
G01X2037842Y-420370D01*
G01X2031492Y-426720D01*
G01X2025396Y-429768D01*
G01X1975866Y-503174D02*
G01X2040890Y-472186D01*
G01X1975866Y-459994D02*
G01X1975866Y-503174D01*
G01X1975866Y-548640D02*
G01X1978914Y-539496D01*
G01X1985010Y-536448D01*
G01X1991360Y-536448D01*
G01X1997456Y-539496D01*
G01X2000504Y-545592D01*
G01X2003552Y-558038D01*
G01X2006854Y-567436D01*
G01X2012950Y-573532D01*
G01X2019046Y-576580D01*
G01X2028444Y-576580D01*
G01X2034540Y-573532D01*
G01X2037842Y-570484D01*
G01X2040890Y-561086D01*
G01X2040890Y-548640D01*
G01X2037842Y-539496D01*
G01X2034540Y-536448D01*
G01X2028444Y-533400D01*
G01X2019046Y-533400D01*
G01X2012950Y-536448D01*
G01X2006854Y-542544D01*
G01X2003552Y-551942D01*
G01X2000504Y-564134D01*
G01X1997456Y-570484D01*
G01X1991360Y-573532D01*
G01X1985010Y-573532D01*
G01X1978914Y-570484D01*
G01X1975866Y-561086D01*
G01X1975866Y-548640D01*
G01X1988543Y-1705917D02*
G01X1994893Y-1708965D01*
G01X2000989Y-1715315D01*
G01X2004037Y-1721411D01*
G01X2004037Y-1733857D01*
G01X2000989Y-1739953D01*
G01X1994893Y-1746303D01*
G01X1988543Y-1749351D01*
G01X1979399Y-1752399D01*
G01X1963905Y-1752399D01*
G01X1954507Y-1749351D01*
G01X1948411Y-1746303D01*
G01X1942061Y-1739953D01*
G01X1939013Y-1733857D01*
G01X1939013Y-1721411D01*
G01X1942061Y-1715315D01*
G01X1948411Y-1708965D01*
G01X1954507Y-1705917D01*
G01X2004037Y-1632511D02*
G01X1939013Y-1663499D01*
G01X2004037Y-1675691D02*
G01X2004037Y-1632511D01*
G01X1982447Y-1562153D02*
G01X1973049Y-1565201D01*
G01X1966953Y-1571551D01*
G01X1963905Y-1580695D01*
G01X1963905Y-1583743D01*
G01X1966953Y-1593141D01*
G01X1973049Y-1599237D01*
G01X1982447Y-1602285D01*
G01X1985495Y-1602285D01*
G01X1994893Y-1599237D01*
G01X2000989Y-1593141D01*
G01X2004037Y-1583743D01*
G01X2004037Y-1580695D01*
G01X2000989Y-1571551D01*
G01X1994893Y-1565201D01*
G01X1982447Y-1562153D01*
G01X1966953Y-1562153D01*
G01X1951459Y-1565201D01*
G01X1942061Y-1571551D01*
G01X1939013Y-1580695D01*
G01X1939013Y-1587045D01*
G01X1942061Y-1596189D01*
G01X1948411Y-1599237D01*
G01X-979240Y-2508231D02*
G01X-985590Y-2505183D01*
G01X-991686Y-2498833D01*
G01X-994734Y-2492737D01*
G01X-994734Y-2480291D01*
G01X-991686Y-2474195D01*
G01X-985590Y-2467845D01*
G01X-979240Y-2464797D01*
G01X-970096Y-2461749D01*
G01X-954602Y-2461749D01*
G01X-945204Y-2464797D01*
G01X-939108Y-2467845D01*
G01X-932758Y-2474195D01*
G01X-929710Y-2480291D01*
G01X-929710Y-2492737D01*
G01X-932758Y-2498833D01*
G01X-939108Y-2505183D01*
G01X-945204Y-2508231D01*
G01X-973144Y-2578589D02*
G01X-963746Y-2575541D01*
G01X-957650Y-2569191D01*
G01X-954602Y-2560047D01*
G01X-954602Y-2556999D01*
G01X-957650Y-2547601D01*
G01X-963746Y-2541505D01*
G01X-973144Y-2538457D01*
G01X-976192Y-2538457D01*
G01X-985590Y-2541505D01*
G01X-991686Y-2547601D01*
G01X-994734Y-2556999D01*
G01X-994734Y-2560047D01*
G01X-991686Y-2569191D01*
G01X-985590Y-2575541D01*
G01X-973144Y-2578589D01*
G01X-957650Y-2578589D01*
G01X-942156Y-2575541D01*
G01X-932758Y-2569191D01*
G01X-929710Y-2560047D01*
G01X-929710Y-2553697D01*
G01X-932758Y-2544553D01*
G01X-939108Y-2541505D01*
G01X-994734Y-2645899D02*
G01X-994734Y-2614911D01*
G01X-967048Y-2611863D01*
G01X-970096Y-2614911D01*
G01X-973144Y-2624055D01*
G01X-973144Y-2633453D01*
G01X-970096Y-2642851D01*
G01X-963746Y-2648947D01*
G01X-954602Y-2651995D01*
G01X-948252Y-2651995D01*
G01X-939108Y-2648947D01*
G01X-932758Y-2642851D01*
G01X-929710Y-2633453D01*
G01X-929710Y-2624055D01*
G01X-932758Y-2614911D01*
G01X-936060Y-2611863D01*
G01X-942156Y-2608815D01*
G01X-1580144Y-2162359D02*
G01X-1586494Y-2159311D01*
G01X-1592590Y-2152961D01*
G01X-1595638Y-2146865D01*
G01X-1595638Y-2134419D01*
G01X-1592590Y-2128323D01*
G01X-1586494Y-2121973D01*
G01X-1580144Y-2118925D01*
G01X-1571000Y-2115877D01*
G01X-1555506Y-2115877D01*
G01X-1546108Y-2118925D01*
G01X-1540012Y-2121973D01*
G01X-1533662Y-2128323D01*
G01X-1530614Y-2134419D01*
G01X-1530614Y-2146865D01*
G01X-1533662Y-2152961D01*
G01X-1540012Y-2159311D01*
G01X-1546108Y-2162359D01*
G01X-1574048Y-2232717D02*
G01X-1564650Y-2229669D01*
G01X-1558554Y-2223319D01*
G01X-1555506Y-2214175D01*
G01X-1555506Y-2211127D01*
G01X-1558554Y-2201729D01*
G01X-1564650Y-2195633D01*
G01X-1574048Y-2192585D01*
G01X-1577096Y-2192585D01*
G01X-1586494Y-2195633D01*
G01X-1592590Y-2201729D01*
G01X-1595638Y-2211127D01*
G01X-1595638Y-2214175D01*
G01X-1592590Y-2223319D01*
G01X-1586494Y-2229669D01*
G01X-1574048Y-2232717D01*
G01X-1558554Y-2232717D01*
G01X-1543060Y-2229669D01*
G01X-1533662Y-2223319D01*
G01X-1530614Y-2214175D01*
G01X-1530614Y-2207825D01*
G01X-1533662Y-2198681D01*
G01X-1540012Y-2195633D01*
G01X-1586494Y-2300027D02*
G01X-1592590Y-2296979D01*
G01X-1595638Y-2287581D01*
G01X-1595638Y-2281485D01*
G01X-1592590Y-2272087D01*
G01X-1583192Y-2265991D01*
G01X-1567952Y-2262943D01*
G01X-1552458Y-2262943D01*
G01X-1540012Y-2265991D01*
G01X-1533662Y-2272087D01*
G01X-1530614Y-2281485D01*
G01X-1530614Y-2284533D01*
G01X-1533662Y-2293677D01*
G01X-1540012Y-2300027D01*
G01X-1549156Y-2303075D01*
G01X-1552458Y-2303075D01*
G01X-1561602Y-2300027D01*
G01X-1567952Y-2293677D01*
G01X-1571000Y-2284533D01*
G01X-1571000Y-2281485D01*
G01X-1567952Y-2272087D01*
G01X-1561602Y-2265991D01*
G01X-1552458Y-2262943D01*
G01X-1879011Y-3004700D02*
G01X-1882059Y-3011050D01*
G01X-1888409Y-3017146D01*
G01X-1894505Y-3020194D01*
G01X-1906951Y-3020194D01*
G01X-1913047Y-3017146D01*
G01X-1919397Y-3011050D01*
G01X-1922445Y-3004700D01*
G01X-1925493Y-2995556D01*
G01X-1925493Y-2980062D01*
G01X-1922445Y-2970664D01*
G01X-1919397Y-2964568D01*
G01X-1913047Y-2958218D01*
G01X-1906951Y-2955170D01*
G01X-1894505Y-2955170D01*
G01X-1888409Y-2958218D01*
G01X-1882059Y-2964568D01*
G01X-1879011Y-2970664D01*
G01X-1808653Y-2998604D02*
G01X-1811701Y-2989206D01*
G01X-1818051Y-2983110D01*
G01X-1827195Y-2980062D01*
G01X-1830243Y-2980062D01*
G01X-1839641Y-2983110D01*
G01X-1845737Y-2989206D01*
G01X-1848785Y-2998604D01*
G01X-1848785Y-3001652D01*
G01X-1845737Y-3011050D01*
G01X-1839641Y-3017146D01*
G01X-1830243Y-3020194D01*
G01X-1827195Y-3020194D01*
G01X-1818051Y-3017146D01*
G01X-1811701Y-3011050D01*
G01X-1808653Y-2998604D01*
G01X-1808653Y-2983110D01*
G01X-1811701Y-2967616D01*
G01X-1818051Y-2958218D01*
G01X-1827195Y-2955170D01*
G01X-1833545Y-2955170D01*
G01X-1842689Y-2958218D01*
G01X-1845737Y-2964568D01*
G01X-1735247Y-3020194D02*
G01X-1766235Y-2955170D01*
G01X-1778427Y-3020194D02*
G01X-1735247Y-3020194D01*
G01X-1866311Y-2801500D02*
G01X-1869359Y-2807850D01*
G01X-1875709Y-2813946D01*
G01X-1881805Y-2816994D01*
G01X-1894251Y-2816994D01*
G01X-1900347Y-2813946D01*
G01X-1906697Y-2807850D01*
G01X-1909745Y-2801500D01*
G01X-1912793Y-2792356D01*
G01X-1912793Y-2776862D01*
G01X-1909745Y-2767464D01*
G01X-1906697Y-2761368D01*
G01X-1900347Y-2755018D01*
G01X-1894251Y-2751970D01*
G01X-1881805Y-2751970D01*
G01X-1875709Y-2755018D01*
G01X-1869359Y-2761368D01*
G01X-1866311Y-2767464D01*
G01X-1795953Y-2795404D02*
G01X-1799001Y-2786006D01*
G01X-1805351Y-2779910D01*
G01X-1814495Y-2776862D01*
G01X-1817543Y-2776862D01*
G01X-1826941Y-2779910D01*
G01X-1833037Y-2786006D01*
G01X-1836085Y-2795404D01*
G01X-1836085Y-2798452D01*
G01X-1833037Y-2807850D01*
G01X-1826941Y-2813946D01*
G01X-1817543Y-2816994D01*
G01X-1814495Y-2816994D01*
G01X-1805351Y-2813946D01*
G01X-1799001Y-2807850D01*
G01X-1795953Y-2795404D01*
G01X-1795953Y-2779910D01*
G01X-1799001Y-2764416D01*
G01X-1805351Y-2755018D01*
G01X-1814495Y-2751970D01*
G01X-1820845Y-2751970D01*
G01X-1829989Y-2755018D01*
G01X-1833037Y-2761368D01*
G01X-1750487Y-2816994D02*
G01X-1759631Y-2813946D01*
G01X-1762679Y-2807850D01*
G01X-1762679Y-2801500D01*
G01X-1759631Y-2795404D01*
G01X-1753535Y-2792356D01*
G01X-1741089Y-2789308D01*
G01X-1731691Y-2786006D01*
G01X-1725595Y-2779910D01*
G01X-1722547Y-2773814D01*
G01X-1722547Y-2764416D01*
G01X-1725595Y-2758320D01*
G01X-1728643Y-2755018D01*
G01X-1738041Y-2751970D01*
G01X-1750487Y-2751970D01*
G01X-1759631Y-2755018D01*
G01X-1762679Y-2758320D01*
G01X-1765727Y-2764416D01*
G01X-1765727Y-2773814D01*
G01X-1762679Y-2779910D01*
G01X-1756583Y-2786006D01*
G01X-1747185Y-2789308D01*
G01X-1734993Y-2792356D01*
G01X-1728643Y-2795404D01*
G01X-1725595Y-2801500D01*
G01X-1725595Y-2807850D01*
G01X-1728643Y-2813946D01*
G01X-1738041Y-2816994D01*
G01X-1750487Y-2816994D01*
G01X461518Y-1706880D02*
G01X464566Y-1700530D01*
G01X470916Y-1694434D01*
G01X477012Y-1691386D01*
G01X489458Y-1691386D01*
G01X495554Y-1694434D01*
G01X501904Y-1700530D01*
G01X504952Y-1706880D01*
G01X508000Y-1716024D01*
G01X508000Y-1731518D01*
G01X504952Y-1740916D01*
G01X501904Y-1747012D01*
G01X495554Y-1753362D01*
G01X489458Y-1756410D01*
G01X477012Y-1756410D01*
G01X470916Y-1753362D01*
G01X464566Y-1747012D01*
G01X461518Y-1740916D01*
G01X391160Y-1712976D02*
G01X394208Y-1722374D01*
G01X400558Y-1728470D01*
G01X409702Y-1731518D01*
G01X412750Y-1731518D01*
G01X422148Y-1728470D01*
G01X428244Y-1722374D01*
G01X431292Y-1712976D01*
G01X431292Y-1709928D01*
G01X428244Y-1700530D01*
G01X422148Y-1694434D01*
G01X412750Y-1691386D01*
G01X409702Y-1691386D01*
G01X400558Y-1694434D01*
G01X394208Y-1700530D01*
G01X391160Y-1712976D01*
G01X391160Y-1728470D01*
G01X394208Y-1743964D01*
G01X400558Y-1753362D01*
G01X409702Y-1756410D01*
G01X416052Y-1756410D01*
G01X425196Y-1753362D01*
G01X428244Y-1747012D01*
G01X320802Y-1712976D02*
G01X323850Y-1722374D01*
G01X330200Y-1728470D01*
G01X339344Y-1731518D01*
G01X342392Y-1731518D01*
G01X351790Y-1728470D01*
G01X357886Y-1722374D01*
G01X360934Y-1712976D01*
G01X360934Y-1709928D01*
G01X357886Y-1700530D01*
G01X351790Y-1694434D01*
G01X342392Y-1691386D01*
G01X339344Y-1691386D01*
G01X330200Y-1694434D01*
G01X323850Y-1700530D01*
G01X320802Y-1712976D01*
G01X320802Y-1728470D01*
G01X323850Y-1743964D01*
G01X330200Y-1753362D01*
G01X339344Y-1756410D01*
G01X345694Y-1756410D01*
G01X354838Y-1753362D01*
G01X357886Y-1747012D01*
G01X488572Y-1955689D02*
G01X488572Y-2002171D01*
G01X485524Y-2011315D01*
G01X479174Y-2017665D01*
G01X470030Y-2020713D01*
G01X463680Y-2020713D01*
G01X454536Y-2017665D01*
G01X448440Y-2011315D01*
G01X445138Y-2002171D01*
G01X445138Y-1955689D01*
G01X411864Y-1971183D02*
G01X411864Y-1968135D01*
G01X408816Y-1961785D01*
G01X405768Y-1958737D01*
G01X399672Y-1955689D01*
G01X387226Y-1955689D01*
G01X380876Y-1958737D01*
G01X377828Y-1961785D01*
G01X374780Y-1968135D01*
G01X374780Y-1974231D01*
G01X377828Y-1980327D01*
G01X384178Y-1989725D01*
G01X414912Y-2020713D01*
G01X371732Y-2020713D01*
G01X304422Y-1955689D02*
G01X335410Y-1955689D01*
G01X338458Y-1983375D01*
G01X335410Y-1980327D01*
G01X326266Y-1977279D01*
G01X316868Y-1977279D01*
G01X307470Y-1980327D01*
G01X301374Y-1986677D01*
G01X298326Y-1995821D01*
G01X298326Y-2002171D01*
G01X301374Y-2011315D01*
G01X307470Y-2017665D01*
G01X316868Y-2020713D01*
G01X326266Y-2020713D01*
G01X335410Y-2017665D01*
G01X338458Y-2014363D01*
G01X341506Y-2008267D01*
G01X-924479Y-2880240D02*
G01X-989503Y-2880240D01*
G01X-989503Y-2880240D02*
G01X-989503Y-2843156D01*
G01X-933623Y-2775846D02*
G01X-927527Y-2778894D01*
G01X-924479Y-2788292D01*
G01X-924479Y-2794388D01*
G01X-927527Y-2803786D01*
G01X-936925Y-2809882D01*
G01X-952165Y-2812930D01*
G01X-967659Y-2812930D01*
G01X-980105Y-2809882D01*
G01X-986455Y-2803786D01*
G01X-989503Y-2794388D01*
G01X-989503Y-2791340D01*
G01X-986455Y-2782196D01*
G01X-980105Y-2775846D01*
G01X-970961Y-2772798D01*
G01X-967659Y-2772798D01*
G01X-958515Y-2775846D01*
G01X-952165Y-2782196D01*
G01X-949117Y-2791340D01*
G01X-949117Y-2794388D01*
G01X-952165Y-2803786D01*
G01X-958515Y-2809882D01*
G01X-967659Y-2812930D01*
G01X1973834Y-1186180D02*
G01X1908810Y-1186180D01*
G01X1973834Y-1186180D02*
G01X1973834Y-1158240D01*
G01X1970786Y-1149096D01*
G01X1967738Y-1146048D01*
G01X1961388Y-1142746D01*
G01X1955292Y-1142746D01*
G01X1949196Y-1146048D01*
G01X1946148Y-1149096D01*
G01X1942846Y-1158240D01*
G01X1942846Y-1186180D01*
G01X1942846Y-1164590D02*
G01X1908810Y-1142746D01*
G01X1973834Y-1069340D02*
G01X1908810Y-1100328D01*
G01X1973834Y-1112520D02*
G01X1973834Y-1069340D01*
G01X1973834Y-1008380D02*
G01X1930654Y-1039114D01*
G01X1930654Y-992886D01*
G01X1973834Y-1008380D02*
G01X1908810Y-1008380D01*
G01X1513477Y-3011637D02*
G01X1513477Y-2946613D01*
G01X1513477Y-3011637D02*
G01X1541417Y-3011637D01*
G01X1550561Y-3008589D01*
G01X1553609Y-3005541D01*
G01X1556911Y-2999191D01*
G01X1556911Y-2993095D01*
G01X1553609Y-2986999D01*
G01X1550561Y-2983951D01*
G01X1541417Y-2980649D01*
G01X1513477Y-2980649D01*
G01X1535067Y-2980649D02*
G01X1556911Y-2946613D01*
G01X1602377Y-3011637D02*
G01X1593233Y-3008589D01*
G01X1590185Y-3002493D01*
G01X1590185Y-2996143D01*
G01X1593233Y-2990047D01*
G01X1599329Y-2986999D01*
G01X1611775Y-2983951D01*
G01X1621173Y-2980649D01*
G01X1627269Y-2974553D01*
G01X1630317Y-2968457D01*
G01X1630317Y-2959059D01*
G01X1627269Y-2952963D01*
G01X1624221Y-2949661D01*
G01X1614823Y-2946613D01*
G01X1602377Y-2946613D01*
G01X1593233Y-2949661D01*
G01X1590185Y-2952963D01*
G01X1587137Y-2959059D01*
G01X1587137Y-2968457D01*
G01X1590185Y-2974553D01*
G01X1596281Y-2980649D01*
G01X1605679Y-2983951D01*
G01X1617871Y-2986999D01*
G01X1624221Y-2990047D01*
G01X1627269Y-2996143D01*
G01X1627269Y-3002493D01*
G01X1624221Y-3008589D01*
G01X1614823Y-3011637D01*
G01X1602377Y-3011637D01*
G01X1660543Y-2999191D02*
G01X1666639Y-3002493D01*
G01X1675783Y-3011637D01*
G01X1675783Y-2946613D01*
G01X1005477Y-3011637D02*
G01X1005477Y-2946613D01*
G01X1005477Y-3011637D02*
G01X1033417Y-3011637D01*
G01X1042561Y-3008589D01*
G01X1045609Y-3005541D01*
G01X1048911Y-2999191D01*
G01X1048911Y-2993095D01*
G01X1045609Y-2986999D01*
G01X1042561Y-2983951D01*
G01X1033417Y-2980649D01*
G01X1005477Y-2980649D01*
G01X1027067Y-2980649D02*
G01X1048911Y-2946613D01*
G01X1094377Y-3011637D02*
G01X1085233Y-3008589D01*
G01X1082185Y-3002493D01*
G01X1082185Y-2996143D01*
G01X1085233Y-2990047D01*
G01X1091329Y-2986999D01*
G01X1103775Y-2983951D01*
G01X1113173Y-2980649D01*
G01X1119269Y-2974553D01*
G01X1122317Y-2968457D01*
G01X1122317Y-2959059D01*
G01X1119269Y-2952963D01*
G01X1116221Y-2949661D01*
G01X1106823Y-2946613D01*
G01X1094377Y-2946613D01*
G01X1085233Y-2949661D01*
G01X1082185Y-2952963D01*
G01X1079137Y-2959059D01*
G01X1079137Y-2968457D01*
G01X1082185Y-2974553D01*
G01X1088281Y-2980649D01*
G01X1097679Y-2983951D01*
G01X1109871Y-2986999D01*
G01X1116221Y-2990047D01*
G01X1119269Y-2996143D01*
G01X1119269Y-3002493D01*
G01X1116221Y-3008589D01*
G01X1106823Y-3011637D01*
G01X1094377Y-3011637D01*
G01X1155591Y-2996143D02*
G01X1155591Y-2999191D01*
G01X1158639Y-3005541D01*
G01X1161687Y-3008589D01*
G01X1167783Y-3011637D01*
G01X1180229Y-3011637D01*
G01X1186579Y-3008589D01*
G01X1189627Y-3005541D01*
G01X1192675Y-2999191D01*
G01X1192675Y-2993095D01*
G01X1189627Y-2986999D01*
G01X1183277Y-2977601D01*
G01X1152543Y-2946613D01*
G01X1195723Y-2946613D01*
G01X1504947Y-1421313D02*
G01X1507995Y-1414963D01*
G01X1514345Y-1408867D01*
G01X1520441Y-1405819D01*
G01X1532887Y-1405819D01*
G01X1538983Y-1408867D01*
G01X1545333Y-1414963D01*
G01X1548381Y-1421313D01*
G01X1551429Y-1430457D01*
G01X1551429Y-1445951D01*
G01X1548381Y-1455349D01*
G01X1545333Y-1461445D01*
G01X1538983Y-1467795D01*
G01X1532887Y-1470843D01*
G01X1520441Y-1470843D01*
G01X1514345Y-1467795D01*
G01X1507995Y-1461445D01*
G01X1504947Y-1455349D01*
G01X1474721Y-1418265D02*
G01X1468625Y-1414963D01*
G01X1459481Y-1405819D01*
G01X1459481Y-1470843D01*
G01X1429255Y-1418265D02*
G01X1423159Y-1414963D01*
G01X1414015Y-1405819D01*
G01X1414015Y-1470843D01*
G01X1380741Y-1421313D02*
G01X1380741Y-1418265D01*
G01X1377693Y-1411915D01*
G01X1374645Y-1408867D01*
G01X1368549Y-1405819D01*
G01X1356103Y-1405819D01*
G01X1349753Y-1408867D01*
G01X1346705Y-1411915D01*
G01X1343657Y-1418265D01*
G01X1343657Y-1424361D01*
G01X1346705Y-1430457D01*
G01X1353055Y-1439855D01*
G01X1383789Y-1470843D01*
G01X1340609Y-1470843D01*
G01X975360Y-1324102D02*
G01X969010Y-1321054D01*
G01X962914Y-1314704D01*
G01X959866Y-1308608D01*
G01X959866Y-1296162D01*
G01X962914Y-1290066D01*
G01X969010Y-1283716D01*
G01X975360Y-1280668D01*
G01X984504Y-1277620D01*
G01X999998Y-1277620D01*
G01X1009396Y-1280668D01*
G01X1015492Y-1283716D01*
G01X1021842Y-1290066D01*
G01X1024890Y-1296162D01*
G01X1024890Y-1308608D01*
G01X1021842Y-1314704D01*
G01X1015492Y-1321054D01*
G01X1009396Y-1324102D01*
G01X972312Y-1354328D02*
G01X969010Y-1360424D01*
G01X959866Y-1369568D01*
G01X1024890Y-1369568D01*
G01X972312Y-1399794D02*
G01X969010Y-1405890D01*
G01X959866Y-1415034D01*
G01X1024890Y-1415034D01*
G01X959866Y-1451356D02*
G01X959866Y-1485392D01*
G01X984504Y-1466850D01*
G01X984504Y-1475994D01*
G01X987552Y-1482344D01*
G01X990854Y-1485392D01*
G01X999998Y-1488440D01*
G01X1006348Y-1488440D01*
G01X1015492Y-1485392D01*
G01X1021842Y-1479296D01*
G01X1024890Y-1469898D01*
G01X1024890Y-1460500D01*
G01X1021842Y-1451356D01*
G01X1018540Y-1448308D01*
G01X1012444Y-1445260D01*
G01X-581401Y-892376D02*
G01X-578353Y-886026D01*
G01X-572003Y-879930D01*
G01X-565907Y-876882D01*
G01X-553461Y-876882D01*
G01X-547365Y-879930D01*
G01X-541015Y-886026D01*
G01X-537967Y-892376D01*
G01X-534919Y-901520D01*
G01X-534919Y-917014D01*
G01X-537967Y-926412D01*
G01X-541015Y-932508D01*
G01X-547365Y-938858D01*
G01X-553461Y-941906D01*
G01X-565907Y-941906D01*
G01X-572003Y-938858D01*
G01X-578353Y-932508D01*
G01X-581401Y-926412D01*
G01X-611627Y-889328D02*
G01X-617723Y-886026D01*
G01X-626867Y-876882D01*
G01X-626867Y-941906D01*
G01X-657093Y-889328D02*
G01X-663189Y-886026D01*
G01X-672333Y-876882D01*
G01X-672333Y-941906D01*
G01X-733293Y-876882D02*
G01X-702559Y-920062D01*
G01X-748787Y-920062D01*
G01X-733293Y-876882D02*
G01X-733293Y-941906D01*
G01X1573728Y-1118733D02*
G01X1573728Y-1165215D01*
G01X1570680Y-1174359D01*
G01X1564330Y-1180709D01*
G01X1555186Y-1183757D01*
G01X1548836Y-1183757D01*
G01X1539692Y-1180709D01*
G01X1533596Y-1174359D01*
G01X1530294Y-1165215D01*
G01X1530294Y-1118733D01*
G01X1493972Y-1118733D02*
G01X1459936Y-1118733D01*
G01X1478478Y-1143371D01*
G01X1469334Y-1143371D01*
G01X1462984Y-1146419D01*
G01X1459936Y-1149721D01*
G01X1456888Y-1158865D01*
G01X1456888Y-1165215D01*
G01X1459936Y-1174359D01*
G01X1466032Y-1180709D01*
G01X1475430Y-1183757D01*
G01X1484828Y-1183757D01*
G01X1493972Y-1180709D01*
G01X1497020Y-1177407D01*
G01X1500068Y-1171311D01*
G01X1426662Y-1131179D02*
G01X1420566Y-1127877D01*
G01X1411422Y-1118733D01*
G01X1411422Y-1183757D01*
G01X1882249Y-600911D02*
G01X1875899Y-597863D01*
G01X1869803Y-591513D01*
G01X1866755Y-585417D01*
G01X1866755Y-572971D01*
G01X1869803Y-566875D01*
G01X1875899Y-560525D01*
G01X1882249Y-557477D01*
G01X1891393Y-554429D01*
G01X1906887Y-554429D01*
G01X1916285Y-557477D01*
G01X1922381Y-560525D01*
G01X1928731Y-566875D01*
G01X1931779Y-572971D01*
G01X1931779Y-585417D01*
G01X1928731Y-591513D01*
G01X1922381Y-597863D01*
G01X1916285Y-600911D01*
G01X1879201Y-631137D02*
G01X1875899Y-637233D01*
G01X1866755Y-646377D01*
G01X1931779Y-646377D01*
G01X1879201Y-676603D02*
G01X1875899Y-682699D01*
G01X1866755Y-691843D01*
G01X1931779Y-691843D01*
G01X1875899Y-759153D02*
G01X1869803Y-756105D01*
G01X1866755Y-746707D01*
G01X1866755Y-740611D01*
G01X1869803Y-731213D01*
G01X1879201Y-725117D01*
G01X1894441Y-722069D01*
G01X1909935Y-722069D01*
G01X1922381Y-725117D01*
G01X1928731Y-731213D01*
G01X1931779Y-740611D01*
G01X1931779Y-743659D01*
G01X1928731Y-752803D01*
G01X1922381Y-759153D01*
G01X1913237Y-762201D01*
G01X1909935Y-762201D01*
G01X1900791Y-759153D01*
G01X1894441Y-752803D01*
G01X1891393Y-743659D01*
G01X1891393Y-740611D01*
G01X1894441Y-731213D01*
G01X1900791Y-725117D01*
G01X1909935Y-722069D01*
G01X778201Y-201215D02*
G01X824683Y-201215D01*
G01X833827Y-204263D01*
G01X840177Y-210613D01*
G01X843225Y-219757D01*
G01X843225Y-226107D01*
G01X840177Y-235251D01*
G01X833827Y-241347D01*
G01X824683Y-244649D01*
G01X778201Y-244649D01*
G01X793695Y-277923D02*
G01X790647Y-277923D01*
G01X784297Y-280971D01*
G01X781249Y-284019D01*
G01X778201Y-290115D01*
G01X778201Y-302561D01*
G01X781249Y-308911D01*
G01X784297Y-311959D01*
G01X790647Y-315007D01*
G01X796743Y-315007D01*
G01X802839Y-311959D01*
G01X812237Y-305609D01*
G01X843225Y-274875D01*
G01X843225Y-318055D01*
G01X778201Y-391461D02*
G01X843225Y-360473D01*
G01X778201Y-348281D02*
G01X778201Y-391461D01*
G01X1410716Y623214D02*
G01X1410716Y558190D01*
G01X1410716Y558190D02*
G01X1373632Y558190D01*
G01X1300226Y623214D02*
G01X1331214Y558190D01*
G01X1343406Y623214D02*
G01X1300226Y623214D01*
G01X875737Y-1123235D02*
G01X872689Y-1129585D01*
G01X866339Y-1135681D01*
G01X860243Y-1138729D01*
G01X847797Y-1138729D01*
G01X841701Y-1135681D01*
G01X835351Y-1129585D01*
G01X832303Y-1123235D01*
G01X829255Y-1114091D01*
G01X829255Y-1098597D01*
G01X832303Y-1089199D01*
G01X835351Y-1083103D01*
G01X841701Y-1076753D01*
G01X847797Y-1073705D01*
G01X860243Y-1073705D01*
G01X866339Y-1076753D01*
G01X872689Y-1083103D01*
G01X875737Y-1089199D01*
G01X905963Y-1126283D02*
G01X912059Y-1129585D01*
G01X921203Y-1138729D01*
G01X921203Y-1073705D01*
G01X969971Y-1138729D02*
G01X960573Y-1135681D01*
G01X954477Y-1126283D01*
G01X951429Y-1111043D01*
G01X951429Y-1101645D01*
G01X954477Y-1086151D01*
G01X960573Y-1076753D01*
G01X969971Y-1073705D01*
G01X976067Y-1073705D01*
G01X985465Y-1076753D01*
G01X991561Y-1086151D01*
G01X994609Y-1101645D01*
G01X994609Y-1111043D01*
G01X991561Y-1126283D01*
G01X985465Y-1135681D01*
G01X976067Y-1138729D01*
G01X969971Y-1138729D01*
G01X1043377Y-1138729D02*
G01X1033979Y-1135681D01*
G01X1027883Y-1126283D01*
G01X1024835Y-1111043D01*
G01X1024835Y-1101645D01*
G01X1027883Y-1086151D01*
G01X1033979Y-1076753D01*
G01X1043377Y-1073705D01*
G01X1049473Y-1073705D01*
G01X1058871Y-1076753D01*
G01X1064967Y-1086151D01*
G01X1068015Y-1101645D01*
G01X1068015Y-1111043D01*
G01X1064967Y-1126283D01*
G01X1058871Y-1135681D01*
G01X1049473Y-1138729D01*
G01X1043377Y-1138729D01*
G01X-756666Y1419860D02*
G01X-821690Y1419860D01*
G01X-756666Y1419860D02*
G01X-756666Y1447800D01*
G01X-759714Y1456944D01*
G01X-762762Y1459992D01*
G01X-769112Y1463294D01*
G01X-775208Y1463294D01*
G01X-781304Y1459992D01*
G01X-784352Y1456944D01*
G01X-787654Y1447800D01*
G01X-787654Y1419860D01*
G01X-787654Y1441450D02*
G01X-821690Y1463294D01*
G01X-756666Y1536700D02*
G01X-821690Y1505712D01*
G01X-756666Y1493520D02*
G01X-756666Y1536700D01*
G01X-756666Y1582166D02*
G01X-759714Y1573022D01*
G01X-765810Y1569974D01*
G01X-772160Y1569974D01*
G01X-778256Y1573022D01*
G01X-781304Y1579118D01*
G01X-784352Y1591564D01*
G01X-787654Y1600962D01*
G01X-793750Y1607058D01*
G01X-799846Y1610106D01*
G01X-809244Y1610106D01*
G01X-815340Y1607058D01*
G01X-818642Y1604010D01*
G01X-821690Y1594612D01*
G01X-821690Y1582166D01*
G01X-818642Y1573022D01*
G01X-815340Y1569974D01*
G01X-809244Y1566926D01*
G01X-799846Y1566926D01*
G01X-793750Y1569974D01*
G01X-787654Y1576070D01*
G01X-784352Y1585468D01*
G01X-781304Y1597660D01*
G01X-778256Y1604010D01*
G01X-772160Y1607058D01*
G01X-765810Y1607058D01*
G01X-759714Y1604010D01*
G01X-756666Y1594612D01*
G01X-756666Y1582166D01*
G01X-703834Y1607820D02*
G01X-638810Y1607820D01*
G01X-703834Y1607820D02*
G01X-703834Y1579880D01*
G01X-700786Y1570736D01*
G01X-697738Y1567688D01*
G01X-691388Y1564386D01*
G01X-685292Y1564386D01*
G01X-679196Y1567688D01*
G01X-676148Y1570736D01*
G01X-672846Y1579880D01*
G01X-672846Y1607820D01*
G01X-672846Y1586230D02*
G01X-638810Y1564386D01*
G01X-703834Y1490980D02*
G01X-638810Y1521968D01*
G01X-703834Y1534160D02*
G01X-703834Y1490980D01*
G01X-703834Y1417574D02*
G01X-638810Y1448562D01*
G01X-703834Y1460754D02*
G01X-703834Y1417574D01*
G01X378460Y1227074D02*
G01X378460Y1162050D01*
G01X378460Y1227074D02*
G01X338328Y1227074D01*
G01X378460Y1196086D02*
G01X353568Y1196086D01*
G01X308102Y1227074D02*
G01X308102Y1162050D01*
G01X308102Y1227074D02*
G01X280416Y1227074D01*
G01X271018Y1224026D01*
G01X267970Y1220978D01*
G01X264922Y1214628D01*
G01X264922Y1205484D01*
G01X267970Y1199388D01*
G01X271018Y1196086D01*
G01X280416Y1193038D01*
G01X308102Y1193038D01*
G01X188468Y1211580D02*
G01X191516Y1217930D01*
G01X197612Y1224026D01*
G01X203962Y1227074D01*
G01X216154Y1227074D01*
G01X222504Y1224026D01*
G01X228600Y1217930D01*
G01X231648Y1211580D01*
G01X234696Y1202436D01*
G01X234696Y1186942D01*
G01X231648Y1177544D01*
G01X228600Y1171448D01*
G01X222504Y1165098D01*
G01X216154Y1162050D01*
G01X203962Y1162050D01*
G01X197612Y1165098D01*
G01X191516Y1171448D01*
G01X188468Y1177544D01*
G01X158242Y1214628D02*
G01X152146Y1217930D01*
G01X143002Y1227074D01*
G01X143002Y1162050D01*
G01X-497840Y1612138D02*
G01X-504190Y1615186D01*
G01X-510286Y1621536D01*
G01X-513334Y1627632D01*
G01X-513334Y1640078D01*
G01X-510286Y1646174D01*
G01X-504190Y1652524D01*
G01X-497840Y1655572D01*
G01X-488696Y1658620D01*
G01X-473202Y1658620D01*
G01X-463804Y1655572D01*
G01X-457708Y1652524D01*
G01X-451358Y1646174D01*
G01X-448310Y1640078D01*
G01X-448310Y1627632D01*
G01X-451358Y1621536D01*
G01X-457708Y1615186D01*
G01X-463804Y1612138D01*
G01X-500888Y1581912D02*
G01X-504190Y1575816D01*
G01X-513334Y1566672D01*
G01X-448310Y1566672D01*
G01X-513334Y1517904D02*
G01X-510286Y1527302D01*
G01X-500888Y1533398D01*
G01X-485648Y1536446D01*
G01X-476250Y1536446D01*
G01X-460756Y1533398D01*
G01X-451358Y1527302D01*
G01X-448310Y1517904D01*
G01X-448310Y1511808D01*
G01X-451358Y1502410D01*
G01X-460756Y1496314D01*
G01X-476250Y1493266D01*
G01X-485648Y1493266D01*
G01X-500888Y1496314D01*
G01X-510286Y1502410D01*
G01X-513334Y1511808D01*
G01X-513334Y1517904D01*
G01X-513334Y1425956D02*
G01X-513334Y1456944D01*
G01X-485648Y1459992D01*
G01X-488696Y1456944D01*
G01X-491744Y1447800D01*
G01X-491744Y1438402D01*
G01X-488696Y1429004D01*
G01X-482346Y1422908D01*
G01X-473202Y1419860D01*
G01X-466852Y1419860D01*
G01X-457708Y1422908D01*
G01X-451358Y1429004D01*
G01X-448310Y1438402D01*
G01X-448310Y1447800D01*
G01X-451358Y1456944D01*
G01X-454660Y1459992D01*
G01X-460756Y1463040D01*
G01X-314198Y1358900D02*
G01X-317246Y1352550D01*
G01X-323596Y1346454D01*
G01X-329692Y1343406D01*
G01X-342138Y1343406D01*
G01X-348234Y1346454D01*
G01X-354584Y1352550D01*
G01X-357632Y1358900D01*
G01X-360680Y1368044D01*
G01X-360680Y1383538D01*
G01X-357632Y1392936D01*
G01X-354584Y1399032D01*
G01X-348234Y1405382D01*
G01X-342138Y1408430D01*
G01X-329692Y1408430D01*
G01X-323596Y1405382D01*
G01X-317246Y1399032D01*
G01X-314198Y1392936D01*
G01X-283972Y1355852D02*
G01X-277876Y1352550D01*
G01X-268732Y1343406D01*
G01X-268732Y1408430D01*
G01X-219964Y1343406D02*
G01X-229362Y1346454D01*
G01X-235458Y1355852D01*
G01X-238506Y1371092D01*
G01X-238506Y1380490D01*
G01X-235458Y1395984D01*
G01X-229362Y1405382D01*
G01X-219964Y1408430D01*
G01X-213868Y1408430D01*
G01X-204470Y1405382D01*
G01X-198374Y1395984D01*
G01X-195326Y1380490D01*
G01X-195326Y1371092D01*
G01X-198374Y1355852D01*
G01X-204470Y1346454D01*
G01X-213868Y1343406D01*
G01X-219964Y1343406D01*
G01X-159004Y1343406D02*
G01X-124968Y1343406D01*
G01X-143510Y1368044D01*
G01X-134366Y1368044D01*
G01X-128016Y1371092D01*
G01X-124968Y1374394D01*
G01X-121920Y1383538D01*
G01X-121920Y1389888D01*
G01X-124968Y1399032D01*
G01X-131064Y1405382D01*
G01X-140462Y1408430D01*
G01X-149860Y1408430D01*
G01X-159004Y1405382D01*
G01X-162052Y1402080D01*
G01X-165100Y1395984D01*
G04 Text End*

G04 PolygonModel Start*
G54D11*
G01X497919Y-2903057D02*
G01X577916Y-2903057D01*
G01X441874Y-2903103D02*
G01X361876Y-2903103D01*
G01X497919Y-2761089D02*
G01X577916Y-2761089D01*
G01X441874Y-2761137D02*
G01X361876Y-2761137D01*
G01X608891Y-2872075D02*
G01X608891Y-2792070D01*
G01X330899Y-2792123D02*
G01X330899Y-2872125D01*
G01X361881Y-2761137D02*
G03X330899Y-2792123I0J-30983D01*
G01X330899Y-2872120D02*
G03X361881Y-2903103I30983J0D01*
G01X577911Y-2903057D02*
G03X608891Y-2872075I-3J30983D01*
G01X608891Y-2792077D02*
G03X577911Y-2761089I-30983J5D01*
G01X-2426329Y1318181D02*
G01X-2426329Y1238184D01*
G01X-2426374Y1374226D02*
G01X-2426374Y1454224D01*
G01X-2284360Y1318181D02*
G01X-2284360Y1238184D01*
G01X-2284409Y1374226D02*
G01X-2284409Y1454224D01*
G01X-2395346Y1207209D02*
G01X-2315341Y1207209D01*
G01X-2315394Y1485202D02*
G01X-2395397Y1485202D01*
G01X-2284409Y1454219D02*
G03X-2315394Y1485202I-30983J0D01*
G01X-2395391Y1485202D02*
G03X-2426374Y1454219I0J-30983D01*
G01X-2426329Y1238189D02*
G03X-2395346Y1207209I30983J3D01*
G01X-2315348Y1207209D02*
G03X-2284360Y1238189I5J30983D01*
G01X-3975729Y1318181D02*
G01X-3975729Y1238184D01*
G01X-3975774Y1374226D02*
G01X-3975774Y1454224D01*
G01X-3833760Y1318181D02*
G01X-3833760Y1238184D01*
G01X-3833809Y1374226D02*
G01X-3833809Y1454224D01*
G01X-3944746Y1207209D02*
G01X-3864741Y1207209D01*
G01X-3864794Y1485202D02*
G01X-3944797Y1485202D01*
G01X-3833809Y1454219D02*
G03X-3864794Y1485202I-30983J0D01*
G01X-3944791Y1485202D02*
G03X-3975774Y1454219I0J-30983D01*
G01X-3975729Y1238189D02*
G03X-3944746Y1207209I30983J3D01*
G01X-3864748Y1207209D02*
G03X-3833760Y1238189I5J30983D01*
G01X-3201029Y1318181D02*
G01X-3201029Y1238184D01*
G01X-3201074Y1374226D02*
G01X-3201074Y1454224D01*
G01X-3059060Y1318181D02*
G01X-3059060Y1238184D01*
G01X-3059109Y1374226D02*
G01X-3059109Y1454224D01*
G01X-3170046Y1207209D02*
G01X-3090041Y1207209D01*
G01X-3090094Y1485202D02*
G01X-3170097Y1485202D01*
G01X-3059109Y1454219D02*
G03X-3090094Y1485202I-30983J0D01*
G01X-3170091Y1485202D02*
G03X-3201074Y1454219I0J-30983D01*
G01X-3201029Y1238189D02*
G03X-3170046Y1207209I30983J3D01*
G01X-3090048Y1207209D02*
G03X-3059060Y1238189I5J30983D01*
G01X-4174090Y1633057D02*
G01X-4254087Y1633057D01*
G01X-4118045Y1633103D02*
G01X-4038048Y1633103D01*
G01X-4174090Y1491089D02*
G01X-4254087Y1491089D01*
G01X-4118045Y1491137D02*
G01X-4038048Y1491137D01*
G01X-4285063Y1602075D02*
G01X-4285063Y1522070D01*
G01X-4007070Y1522123D02*
G01X-4007070Y1602125D01*
G01X-4038053Y1491137D02*
G03X-4007070Y1522123I0J30983D01*
G01X-4007070Y1602120D02*
G03X-4038053Y1633103I-30983J0D01*
G01X-4254082Y1633057D02*
G03X-4285063Y1602075I3J-30983D01*
G01X-4285063Y1522077D02*
G03X-4254082Y1491089I30983J-5D01*
G01X-3399390Y1633057D02*
G01X-3479387Y1633057D01*
G01X-3343345Y1633103D02*
G01X-3263348Y1633103D01*
G01X-3399390Y1491089D02*
G01X-3479387Y1491089D01*
G01X-3343345Y1491137D02*
G01X-3263348Y1491137D01*
G01X-3510363Y1602075D02*
G01X-3510363Y1522070D01*
G01X-3232370Y1522123D02*
G01X-3232370Y1602125D01*
G01X-3263353Y1491137D02*
G03X-3232370Y1522123I0J30983D01*
G01X-3232370Y1602120D02*
G03X-3263353Y1633103I-30983J0D01*
G01X-3479382Y1633057D02*
G03X-3510363Y1602075I3J-30983D01*
G01X-3510363Y1522077D02*
G03X-3479382Y1491089I30983J-5D01*
G01X-2885277Y899081D02*
G01X-2885277Y819084D01*
G01X-2885323Y955126D02*
G01X-2885323Y1035124D01*
G01X-2743309Y899081D02*
G01X-2743309Y819084D01*
G01X-2743357Y955126D02*
G01X-2743357Y1035124D01*
G01X-2854295Y788109D02*
G01X-2774290Y788109D01*
G01X-2774343Y1066102D02*
G01X-2854345Y1066102D01*
G01X-2743357Y1035119D02*
G03X-2774343Y1066102I-30983J0D01*
G01X-2854340Y1066102D02*
G03X-2885323Y1035119I0J-30983D01*
G01X-2885277Y819089D02*
G03X-2854295Y788109I30983J3D01*
G01X-2774297Y788109D02*
G03X-2743309Y819089I5J30983D01*
G01X-2624690Y1633057D02*
G01X-2704687Y1633057D01*
G01X-2568645Y1633103D02*
G01X-2488648Y1633103D01*
G01X-2624690Y1491089D02*
G01X-2704687Y1491089D01*
G01X-2568645Y1491137D02*
G01X-2488648Y1491137D01*
G01X-2735663Y1602075D02*
G01X-2735663Y1522070D01*
G01X-2457670Y1522123D02*
G01X-2457670Y1602125D01*
G01X-2488653Y1491137D02*
G03X-2457670Y1522123I0J30983D01*
G01X-2457670Y1602120D02*
G03X-2488653Y1633103I-30983J0D01*
G01X-2704682Y1633057D02*
G03X-2735663Y1602075I3J-30983D01*
G01X-2735663Y1522077D02*
G03X-2704682Y1491089I30983J-5D01*
G01X2426329Y-1318181D02*
G01X2426329Y-1238184D01*
G01X2426374Y-1374226D02*
G01X2426374Y-1454224D01*
G01X2284360Y-1318181D02*
G01X2284360Y-1238184D01*
G01X2284409Y-1374226D02*
G01X2284409Y-1454224D01*
G01X2395346Y-1207209D02*
G01X2315341Y-1207209D01*
G01X2315394Y-1485201D02*
G01X2395397Y-1485201D01*
G01X2284409Y-1454219D02*
G03X2315394Y-1485201I30983J0D01*
G01X2395391Y-1485201D02*
G03X2426374Y-1454219I0J30983D01*
G01X2426329Y-1238189D02*
G03X2395346Y-1207209I-30983J-3D01*
G01X2315348Y-1207209D02*
G03X2284360Y-1238189I-5J-30983D01*
G01X3975729Y-1318181D02*
G01X3975729Y-1238184D01*
G01X3975774Y-1374226D02*
G01X3975774Y-1454224D01*
G01X3833760Y-1318181D02*
G01X3833760Y-1238184D01*
G01X3833809Y-1374226D02*
G01X3833809Y-1454224D01*
G01X3944746Y-1207209D02*
G01X3864741Y-1207209D01*
G01X3864794Y-1485201D02*
G01X3944797Y-1485201D01*
G01X3833809Y-1454219D02*
G03X3864794Y-1485201I30983J0D01*
G01X3944791Y-1485201D02*
G03X3975774Y-1454219I0J30983D01*
G01X3975729Y-1238189D02*
G03X3944746Y-1207209I-30983J-3D01*
G01X3864748Y-1207209D02*
G03X3833760Y-1238189I-5J-30983D01*
G01X3201029Y-1318181D02*
G01X3201029Y-1238184D01*
G01X3201074Y-1374226D02*
G01X3201074Y-1454224D01*
G01X3059060Y-1318181D02*
G01X3059060Y-1238184D01*
G01X3059109Y-1374226D02*
G01X3059109Y-1454224D01*
G01X3170046Y-1207209D02*
G01X3090041Y-1207209D01*
G01X3090094Y-1485201D02*
G01X3170097Y-1485201D01*
G01X3059109Y-1454219D02*
G03X3090094Y-1485201I30983J0D01*
G01X3170091Y-1485201D02*
G03X3201074Y-1454219I0J30983D01*
G01X3201029Y-1238189D02*
G03X3170046Y-1207209I-30983J-3D01*
G01X3090048Y-1207209D02*
G03X3059060Y-1238189I-5J-30983D01*
G01X4174090Y-1633057D02*
G01X4254087Y-1633057D01*
G01X4118045Y-1633103D02*
G01X4038048Y-1633103D01*
G01X4174090Y-1491089D02*
G01X4254087Y-1491089D01*
G01X4118045Y-1491137D02*
G01X4038048Y-1491137D01*
G01X4285063Y-1602075D02*
G01X4285063Y-1522070D01*
G01X4007070Y-1522123D02*
G01X4007070Y-1602125D01*
G01X4038053Y-1491137D02*
G03X4007070Y-1522123I0J-30983D01*
G01X4007070Y-1602120D02*
G03X4038053Y-1633103I30983J0D01*
G01X4254082Y-1633057D02*
G03X4285063Y-1602075I-3J30983D01*
G01X4285063Y-1522077D02*
G03X4254082Y-1491089I-30983J5D01*
G01X3399390Y-1633057D02*
G01X3479387Y-1633057D01*
G01X3343345Y-1633103D02*
G01X3263348Y-1633103D01*
G01X3399390Y-1491089D02*
G01X3479387Y-1491089D01*
G01X3343345Y-1491137D02*
G01X3263348Y-1491137D01*
G01X3510363Y-1602075D02*
G01X3510363Y-1522070D01*
G01X3232370Y-1522123D02*
G01X3232370Y-1602125D01*
G01X3263353Y-1491137D02*
G03X3232370Y-1522123I0J-30983D01*
G01X3232370Y-1602120D02*
G03X3263353Y-1633103I30983J0D01*
G01X3479382Y-1633057D02*
G03X3510363Y-1602075I-3J30983D01*
G01X3510363Y-1522077D02*
G03X3479382Y-1491089I-30983J5D01*
G01X2885277Y-899081D02*
G01X2885277Y-819084D01*
G01X2885323Y-955126D02*
G01X2885323Y-1035124D01*
G01X2743309Y-899081D02*
G01X2743309Y-819084D01*
G01X2743357Y-955126D02*
G01X2743357Y-1035124D01*
G01X2854295Y-788109D02*
G01X2774290Y-788109D01*
G01X2774343Y-1066101D02*
G01X2854345Y-1066101D01*
G01X2743357Y-1035119D02*
G03X2774343Y-1066101I30983J0D01*
G01X2854340Y-1066101D02*
G03X2885323Y-1035119I0J30983D01*
G01X2885277Y-819089D02*
G03X2854295Y-788109I-30983J-3D01*
G01X2774297Y-788109D02*
G03X2743309Y-819089I-5J-30983D01*
G54D10*
G01X-75154Y-613661D02*
G01X-75154Y-663661D01*
G01X9324Y-598419D02*
G01X-59916Y-598419D01*
G01X24564Y-663661D02*
G01X24564Y-613661D01*
G01X24351Y-757939D02*
G01X24351Y-707939D01*
G01X-75362Y-707939D02*
G01X-75362Y-757939D01*
G01X-60127Y-773181D02*
G01X9116Y-773181D01*
G01X-75364Y-757939D02*
G03X-60124Y-773179I15240J0D01*
G01X9116Y-773179D02*
G03X24356Y-757939I0J15240D01*
G01X24564Y-613661D02*
G03X9324Y-598421I-15240J0D01*
G01X-59916Y-598421D02*
G03X-75156Y-613661I0J-15240D01*
G54D11*
G01X2624690Y-1633057D02*
G01X2704687Y-1633057D01*
G01X2568645Y-1633103D02*
G01X2488648Y-1633103D01*
G01X2624690Y-1491089D02*
G01X2704687Y-1491089D01*
G01X2568645Y-1491137D02*
G01X2488648Y-1491137D01*
G01X2735663Y-1602075D02*
G01X2735663Y-1522070D01*
G01X2457670Y-1522123D02*
G01X2457670Y-1602125D01*
G01X2488653Y-1491137D02*
G03X2457670Y-1522123I0J-30983D01*
G01X2457670Y-1602120D02*
G03X2488653Y-1633103I30983J0D01*
G01X2704682Y-1633057D02*
G03X2735663Y-1602075I-3J30983D01*
G01X2735663Y-1522077D02*
G03X2704682Y-1491089I-30983J5D01*
G01X2793371Y1318181D02*
G01X2793371Y1238184D01*
G01X2793326Y1374226D02*
G01X2793326Y1454224D01*
G01X2935340Y1318181D02*
G01X2935340Y1238184D01*
G01X2935291Y1374226D02*
G01X2935291Y1454224D01*
G01X2824354Y1207209D02*
G01X2904359Y1207209D01*
G01X2904306Y1485202D02*
G01X2824303Y1485202D01*
G01X2935291Y1454219D02*
G03X2904306Y1485202I-30983J0D01*
G01X2824309Y1485202D02*
G03X2793326Y1454219I0J-30983D01*
G01X2793371Y1238189D02*
G03X2824354Y1207209I30983J3D01*
G01X2904352Y1207209D02*
G03X2935340Y1238189I5J30983D01*
G01X-4342863Y-1317674D02*
G01X-4342863Y-1237676D01*
G01X-4342818Y-1373719D02*
G01X-4342818Y-1453716D01*
G01X-4484832Y-1317674D02*
G01X-4484832Y-1237676D01*
G01X-4484783Y-1373719D02*
G01X-4484783Y-1453716D01*
G01X-4373846Y-1206701D02*
G01X-4453851Y-1206701D01*
G01X-4453798Y-1484694D02*
G01X-4373795Y-1484694D01*
G01X-4484783Y-1453711D02*
G03X-4453798Y-1484694I30983J0D01*
G01X-4373800Y-1484694D02*
G03X-4342818Y-1453711I0J30983D01*
G01X-4342863Y-1237681D02*
G03X-4373846Y-1206701I-30983J-3D01*
G01X-4453844Y-1206701D02*
G03X-4484832Y-1237681I-5J-30983D01*
G01X-2793463Y-1317674D02*
G01X-2793463Y-1237676D01*
G01X-2793418Y-1373719D02*
G01X-2793418Y-1453716D01*
G01X-2935432Y-1317674D02*
G01X-2935432Y-1237676D01*
G01X-2935383Y-1373719D02*
G01X-2935383Y-1453716D01*
G01X-2824446Y-1206701D02*
G01X-2904451Y-1206701D01*
G01X-2904398Y-1484694D02*
G01X-2824395Y-1484694D01*
G01X-2935383Y-1453711D02*
G03X-2904398Y-1484694I30983J0D01*
G01X-2824400Y-1484694D02*
G03X-2793418Y-1453711I0J30983D01*
G01X-2793463Y-1237681D02*
G03X-2824446Y-1206701I-30983J-3D01*
G01X-2904444Y-1206701D02*
G03X-2935432Y-1237681I-5J-30983D01*
G01X-3568163Y-1317674D02*
G01X-3568163Y-1237676D01*
G01X-3568118Y-1373719D02*
G01X-3568118Y-1453716D01*
G01X-3710132Y-1317674D02*
G01X-3710132Y-1237676D01*
G01X-3710083Y-1373719D02*
G01X-3710083Y-1453716D01*
G01X-3599146Y-1206701D02*
G01X-3679151Y-1206701D01*
G01X-3679098Y-1484694D02*
G01X-3599095Y-1484694D01*
G01X-3710083Y-1453711D02*
G03X-3679098Y-1484694I30983J0D01*
G01X-3599100Y-1484694D02*
G03X-3568118Y-1453711I0J30983D01*
G01X-3568163Y-1237681D02*
G03X-3599146Y-1206701I-30983J-3D01*
G01X-3679144Y-1206701D02*
G03X-3710132Y-1237681I-5J-30983D01*
G01X-2595102Y-1632550D02*
G01X-2515105Y-1632550D01*
G01X-2651147Y-1632595D02*
G01X-2731144Y-1632595D01*
G01X-2595102Y-1490581D02*
G01X-2515105Y-1490581D01*
G01X-2651147Y-1490630D02*
G01X-2731144Y-1490630D01*
G01X-2484129Y-1601567D02*
G01X-2484129Y-1521562D01*
G01X-2762122Y-1521615D02*
G01X-2762122Y-1601618D01*
G01X-2731139Y-1490630D02*
G03X-2762122Y-1521615I0J-30983D01*
G01X-2762122Y-1601612D02*
G03X-2731139Y-1632595I30983J0D01*
G01X-2515110Y-1632550D02*
G03X-2484129Y-1601567I-3J30983D01*
G01X-2484129Y-1521569D02*
G03X-2515110Y-1490581I-30983J5D01*
G01X-3369802Y-1632550D02*
G01X-3289805Y-1632550D01*
G01X-3425847Y-1632595D02*
G01X-3505844Y-1632595D01*
G01X-3369802Y-1490581D02*
G01X-3289805Y-1490581D01*
G01X-3425847Y-1490630D02*
G01X-3505844Y-1490630D01*
G01X-3258829Y-1601567D02*
G01X-3258829Y-1521562D01*
G01X-3536822Y-1521615D02*
G01X-3536822Y-1601618D01*
G01X-3505839Y-1490630D02*
G03X-3536822Y-1521615I0J-30983D01*
G01X-3536822Y-1601612D02*
G03X-3505839Y-1632595I30983J0D01*
G01X-3289810Y-1632550D02*
G03X-3258829Y-1601567I-3J30983D01*
G01X-3258829Y-1521569D02*
G03X-3289810Y-1490581I-30983J5D01*
G01X3883823Y899081D02*
G01X3883823Y819084D01*
G01X3883777Y955126D02*
G01X3883777Y1035124D01*
G01X4025791Y899081D02*
G01X4025791Y819084D01*
G01X4025743Y955126D02*
G01X4025743Y1035124D01*
G01X3914805Y788109D02*
G01X3994810Y788109D01*
G01X3994757Y1066102D02*
G01X3914755Y1066102D01*
G01X4025743Y1035119D02*
G03X3994757Y1066102I-30983J0D01*
G01X3914760Y1066102D02*
G03X3883777Y1035119I0J-30983D01*
G01X3883823Y819089D02*
G03X3914805Y788109I30983J3D01*
G01X3994803Y788109D02*
G03X4025791Y819089I5J30983D01*
G01X2595010Y1633057D02*
G01X2515013Y1633057D01*
G01X2651055Y1633103D02*
G01X2731052Y1633103D01*
G01X2595010Y1491089D02*
G01X2515013Y1491089D01*
G01X2651055Y1491137D02*
G01X2731052Y1491137D01*
G01X2484037Y1602075D02*
G01X2484037Y1522070D01*
G01X2762030Y1522123D02*
G01X2762030Y1602125D01*
G01X2731047Y1491137D02*
G03X2762030Y1522123I0J30983D01*
G01X2762030Y1602120D02*
G03X2731047Y1633103I-30983J0D01*
G01X2515018Y1633057D02*
G03X2484037Y1602075I3J-30983D01*
G01X2484037Y1522077D02*
G03X2515018Y1491089I30983J-5D01*
G01X3568071Y1318181D02*
G01X3568071Y1238184D01*
G01X3568026Y1374226D02*
G01X3568026Y1454224D01*
G01X3710040Y1318181D02*
G01X3710040Y1238184D01*
G01X3709991Y1374226D02*
G01X3709991Y1454224D01*
G01X3599054Y1207209D02*
G01X3679059Y1207209D01*
G01X3679006Y1485202D02*
G01X3599003Y1485202D01*
G01X3709991Y1454219D02*
G03X3679006Y1485202I-30983J0D01*
G01X3599009Y1485202D02*
G03X3568026Y1454219I0J-30983D01*
G01X3568071Y1238189D02*
G03X3599054Y1207209I30983J3D01*
G01X3679052Y1207209D02*
G03X3710040Y1238189I5J30983D01*
G01X3369710Y1633057D02*
G01X3289713Y1633057D01*
G01X3425755Y1633103D02*
G01X3505752Y1633103D01*
G01X3369710Y1491089D02*
G01X3289713Y1491089D01*
G01X3425755Y1491137D02*
G01X3505752Y1491137D01*
G01X3258737Y1602075D02*
G01X3258737Y1522070D01*
G01X3536730Y1522123D02*
G01X3536730Y1602125D01*
G01X3505747Y1491137D02*
G03X3536730Y1522123I0J30983D01*
G01X3536730Y1602120D02*
G03X3505747Y1633103I-30983J0D01*
G01X3289718Y1633057D02*
G03X3258737Y1602075I3J-30983D01*
G01X3258737Y1522077D02*
G03X3289718Y1491089I30983J-5D01*
G01X4342771Y1318181D02*
G01X4342771Y1238184D01*
G01X4342726Y1374226D02*
G01X4342726Y1454224D01*
G01X4484740Y1318181D02*
G01X4484740Y1238184D01*
G01X4484691Y1374226D02*
G01X4484691Y1454224D01*
G01X4373754Y1207209D02*
G01X4453759Y1207209D01*
G01X4453706Y1485202D02*
G01X4373703Y1485202D01*
G01X4484691Y1454219D02*
G03X4453706Y1485202I-30983J0D01*
G01X4373709Y1485202D02*
G03X4342726Y1454219I0J-30983D01*
G01X4342771Y1238189D02*
G03X4373754Y1207209I30983J3D01*
G01X4453752Y1207209D02*
G03X4484740Y1238189I5J30983D01*
G01X4144410Y1633057D02*
G01X4064413Y1633057D01*
G01X4200455Y1633103D02*
G01X4280452Y1633103D01*
G01X4144410Y1491089D02*
G01X4064413Y1491089D01*
G01X4200455Y1491137D02*
G01X4280452Y1491137D01*
G01X4033437Y1602075D02*
G01X4033437Y1522070D01*
G01X4311430Y1522123D02*
G01X4311430Y1602125D01*
G01X4280447Y1491137D02*
G03X4311430Y1522123I0J30983D01*
G01X4311430Y1602120D02*
G03X4280447Y1633103I-30983J0D01*
G01X4064418Y1633057D02*
G03X4033437Y1602075I3J-30983D01*
G01X4033437Y1522077D02*
G03X4064418Y1491089I30983J-5D01*
G01X-3883915Y-898574D02*
G01X-3883915Y-818576D01*
G01X-3883869Y-954619D02*
G01X-3883869Y-1034616D01*
G01X-4025883Y-898574D02*
G01X-4025883Y-818576D01*
G01X-4025834Y-954619D02*
G01X-4025834Y-1034616D01*
G01X-3914897Y-787601D02*
G01X-3994902Y-787601D01*
G01X-3994849Y-1065594D02*
G01X-3914847Y-1065594D01*
G01X-4025834Y-1034611D02*
G03X-3994849Y-1065594I30983J0D01*
G01X-3914852Y-1065594D02*
G03X-3883869Y-1034611I0J30983D01*
G01X-3883915Y-818581D02*
G03X-3914897Y-787601I-30983J-3D01*
G01X-3994895Y-787601D02*
G03X-4025883Y-818581I-5J-30983D01*
G01X-4144502Y-1632550D02*
G01X-4064505Y-1632550D01*
G01X-4200547Y-1632595D02*
G01X-4280544Y-1632595D01*
G01X-4144502Y-1490581D02*
G01X-4064505Y-1490581D01*
G01X-4200547Y-1490630D02*
G01X-4280544Y-1490630D01*
G01X-4033529Y-1601567D02*
G01X-4033529Y-1521562D01*
G01X-4311522Y-1521615D02*
G01X-4311522Y-1601618D01*
G01X-4280539Y-1490630D02*
G03X-4311522Y-1521615I0J-30983D01*
G01X-4311522Y-1601612D02*
G03X-4280539Y-1632595I30983J0D01*
G01X-4064510Y-1632550D02*
G03X-4033529Y-1601567I-3J30983D01*
G01X-4033529Y-1521569D02*
G03X-4064510Y-1490581I-30983J5D01*
G01X4183380Y708848D02*
G01X4183380Y-50800D01*
G01X4183380Y-50800D02*
G01X4437380Y-50800D01*
G01X4437380Y-50800D02*
G01X4437380Y965200D01*
G01X4437380Y965200D02*
G01X4183380Y965200D01*
G01X4183380Y965200D02*
G01X4183380Y708848D01*
G01X4183380Y708848D02*
G01X4437380Y708848D01*
G01X-2585720Y708848D02*
G01X-2585720Y-50800D01*
G01X-2585720Y-50800D02*
G01X-2331720Y-50800D01*
G01X-2331720Y-50800D02*
G01X-2331720Y965200D01*
G01X-2331720Y965200D02*
G01X-2585720Y965200D01*
G01X-2585720Y965200D02*
G01X-2585720Y708848D01*
G01X-2585720Y708848D02*
G01X-2331720Y708848D01*
G01X2585720Y-708848D02*
G01X2585720Y50800D01*
G01X2585720Y50800D02*
G01X2331720Y50800D01*
G01X2331720Y50800D02*
G01X2331720Y-965200D01*
G01X2331720Y-965200D02*
G01X2585720Y-965200D01*
G01X2585720Y-965200D02*
G01X2585720Y-708848D01*
G01X2585720Y-708848D02*
G01X2331720Y-708848D01*
G01X-4183472Y-708340D02*
G01X-4183472Y51308D01*
G01X-4183472Y51308D02*
G01X-4437472Y51308D01*
G01X-4437472Y51308D02*
G01X-4437472Y-964692D01*
G01X-4437472Y-964692D02*
G01X-4183472Y-964692D01*
G01X-4183472Y-964692D02*
G01X-4183472Y-708340D01*
G01X-4183472Y-708340D02*
G01X-4437472Y-708340D01*
G01X2940328Y2586698D02*
G01X2940328Y3029811D01*
G01X2280329Y2586698D02*
G01X2280329Y3029811D01*
G01X2343133Y2372916D02*
G01X2343133Y2419797D01*
G01X2343133Y2372916D02*
G01X2418135Y2372916D01*
G01X2418135Y2372916D02*
G01X2418135Y2419797D01*
G01X2800328Y2372929D02*
G01X2875330Y2372929D01*
G01X2875330Y2372929D02*
G01X2875330Y2419812D01*
G01X2800328Y2372929D02*
G01X2800328Y2419812D01*
G01X2280329Y2586698D02*
G01X2280329Y2419812D01*
G01X2280329Y2419812D02*
G01X2940328Y2419812D01*
G01X2940328Y2419812D02*
G01X2940328Y2586698D01*
G01X3715028Y2586698D02*
G01X3715028Y3029811D01*
G01X3055029Y2586698D02*
G01X3055029Y3029811D01*
G01X3117833Y2372916D02*
G01X3117833Y2419797D01*
G01X3117833Y2372916D02*
G01X3192835Y2372916D01*
G01X3192835Y2372916D02*
G01X3192835Y2419797D01*
G01X3575028Y2372929D02*
G01X3650030Y2372929D01*
G01X3650030Y2372929D02*
G01X3650030Y2419812D01*
G01X3575028Y2372929D02*
G01X3575028Y2419812D01*
G01X3055029Y2586698D02*
G01X3055029Y2419812D01*
G01X3055029Y2419812D02*
G01X3715028Y2419812D01*
G01X3715028Y2419812D02*
G01X3715028Y2586698D01*
G01X4489728Y2586698D02*
G01X4489728Y3029811D01*
G01X3829729Y2586698D02*
G01X3829729Y3029811D01*
G01X3892533Y2372916D02*
G01X3892533Y2419797D01*
G01X3892533Y2372916D02*
G01X3967535Y2372916D01*
G01X3967535Y2372916D02*
G01X3967535Y2419797D01*
G01X4349728Y2372929D02*
G01X4424730Y2372929D01*
G01X4424730Y2372929D02*
G01X4424730Y2419812D01*
G01X4349728Y2372929D02*
G01X4349728Y2419812D01*
G01X3829729Y2586698D02*
G01X3829729Y2419812D01*
G01X3829729Y2419812D02*
G01X4489728Y2419812D01*
G01X4489728Y2419812D02*
G01X4489728Y2586698D01*
G01X-2279372Y2586698D02*
G01X-2279372Y3029811D01*
G01X-2939371Y2586698D02*
G01X-2939371Y3029811D01*
G01X-2876567Y2372916D02*
G01X-2876567Y2419797D01*
G01X-2876567Y2372916D02*
G01X-2801565Y2372916D01*
G01X-2801565Y2372916D02*
G01X-2801565Y2419797D01*
G01X-2419372Y2372929D02*
G01X-2344370Y2372929D01*
G01X-2344370Y2372929D02*
G01X-2344370Y2419812D01*
G01X-2419372Y2372929D02*
G01X-2419372Y2419812D01*
G01X-2939371Y2586698D02*
G01X-2939371Y2419812D01*
G01X-2939371Y2419812D02*
G01X-2279372Y2419812D01*
G01X-2279372Y2419812D02*
G01X-2279372Y2586698D01*
G01X-3054072Y2586698D02*
G01X-3054072Y3029811D01*
G01X-3714071Y2586698D02*
G01X-3714071Y3029811D01*
G01X-3651267Y2372916D02*
G01X-3651267Y2419797D01*
G01X-3651267Y2372916D02*
G01X-3576265Y2372916D01*
G01X-3576265Y2372916D02*
G01X-3576265Y2419797D01*
G01X-3194072Y2372929D02*
G01X-3119070Y2372929D01*
G01X-3119070Y2372929D02*
G01X-3119070Y2419812D01*
G01X-3194072Y2372929D02*
G01X-3194072Y2419812D01*
G01X-3714071Y2586698D02*
G01X-3714071Y2419812D01*
G01X-3714071Y2419812D02*
G01X-3054072Y2419812D01*
G01X-3054072Y2419812D02*
G01X-3054072Y2586698D01*
G01X-3828772Y2586698D02*
G01X-3828772Y3029811D01*
G01X-4488771Y2586698D02*
G01X-4488771Y3029811D01*
G01X-4425967Y2372916D02*
G01X-4425967Y2419797D01*
G01X-4425967Y2372916D02*
G01X-4350965Y2372916D01*
G01X-4350965Y2372916D02*
G01X-4350965Y2419797D01*
G01X-3968772Y2372929D02*
G01X-3893770Y2372929D01*
G01X-3893770Y2372929D02*
G01X-3893770Y2419812D01*
G01X-3968772Y2372929D02*
G01X-3968772Y2419812D01*
G01X-4488771Y2586698D02*
G01X-4488771Y2419812D01*
G01X-4488771Y2419812D02*
G01X-3828772Y2419812D01*
G01X-3828772Y2419812D02*
G01X-3828772Y2586698D01*
G01X2279372Y-2586698D02*
G01X2279372Y-3029811D01*
G01X2939371Y-2586698D02*
G01X2939371Y-3029811D01*
G01X2876567Y-2372916D02*
G01X2876567Y-2419797D01*
G01X2876567Y-2372916D02*
G01X2801565Y-2372916D01*
G01X2801565Y-2372916D02*
G01X2801565Y-2419797D01*
G01X2419372Y-2372929D02*
G01X2344370Y-2372929D01*
G01X2344370Y-2372929D02*
G01X2344370Y-2419812D01*
G01X2419372Y-2372929D02*
G01X2419372Y-2419812D01*
G01X2939371Y-2586698D02*
G01X2939371Y-2419812D01*
G01X2939371Y-2419812D02*
G01X2279372Y-2419812D01*
G01X2279372Y-2419812D02*
G01X2279372Y-2586698D01*
G01X3054072Y-2586698D02*
G01X3054072Y-3029811D01*
G01X3714071Y-2586698D02*
G01X3714071Y-3029811D01*
G01X3651267Y-2372916D02*
G01X3651267Y-2419797D01*
G01X3651267Y-2372916D02*
G01X3576265Y-2372916D01*
G01X3576265Y-2372916D02*
G01X3576265Y-2419797D01*
G01X3194072Y-2372929D02*
G01X3119070Y-2372929D01*
G01X3119070Y-2372929D02*
G01X3119070Y-2419812D01*
G01X3194072Y-2372929D02*
G01X3194072Y-2419812D01*
G01X3714071Y-2586698D02*
G01X3714071Y-2419812D01*
G01X3714071Y-2419812D02*
G01X3054072Y-2419812D01*
G01X3054072Y-2419812D02*
G01X3054072Y-2586698D01*
G01X3828772Y-2586698D02*
G01X3828772Y-3029811D01*
G01X4488771Y-2586698D02*
G01X4488771Y-3029811D01*
G01X4425967Y-2372916D02*
G01X4425967Y-2419797D01*
G01X4425967Y-2372916D02*
G01X4350965Y-2372916D01*
G01X4350965Y-2372916D02*
G01X4350965Y-2419797D01*
G01X3968772Y-2372929D02*
G01X3893770Y-2372929D01*
G01X3893770Y-2372929D02*
G01X3893770Y-2419812D01*
G01X3968772Y-2372929D02*
G01X3968772Y-2419812D01*
G01X4488771Y-2586698D02*
G01X4488771Y-2419812D01*
G01X4488771Y-2419812D02*
G01X3828772Y-2419812D01*
G01X3828772Y-2419812D02*
G01X3828772Y-2586698D01*
G01X-4489820Y-2586190D02*
G01X-4489820Y-3029303D01*
G01X-3829821Y-2586190D02*
G01X-3829821Y-3029303D01*
G01X-3892625Y-2372408D02*
G01X-3892625Y-2419289D01*
G01X-3892625Y-2372408D02*
G01X-3967627Y-2372408D01*
G01X-3967627Y-2372408D02*
G01X-3967627Y-2419289D01*
G01X-4349820Y-2372421D02*
G01X-4424821Y-2372421D01*
G01X-4424821Y-2372421D02*
G01X-4424821Y-2419304D01*
G01X-4349820Y-2372421D02*
G01X-4349820Y-2419304D01*
G01X-3829821Y-2586190D02*
G01X-3829821Y-2419304D01*
G01X-3829821Y-2419304D02*
G01X-4489820Y-2419304D01*
G01X-4489820Y-2419304D02*
G01X-4489820Y-2586190D01*
G01X-3715120Y-2586190D02*
G01X-3715120Y-3029303D01*
G01X-3055121Y-2586190D02*
G01X-3055121Y-3029303D01*
G01X-3117925Y-2372408D02*
G01X-3117925Y-2419289D01*
G01X-3117925Y-2372408D02*
G01X-3192927Y-2372408D01*
G01X-3192927Y-2372408D02*
G01X-3192927Y-2419289D01*
G01X-3575120Y-2372421D02*
G01X-3650121Y-2372421D01*
G01X-3650121Y-2372421D02*
G01X-3650121Y-2419304D01*
G01X-3575120Y-2372421D02*
G01X-3575120Y-2419304D01*
G01X-3055121Y-2586190D02*
G01X-3055121Y-2419304D01*
G01X-3055121Y-2419304D02*
G01X-3715120Y-2419304D01*
G01X-3715120Y-2419304D02*
G01X-3715120Y-2586190D01*
G01X-2940420Y-2586190D02*
G01X-2940420Y-3029303D01*
G01X-2280421Y-2586190D02*
G01X-2280421Y-3029303D01*
G01X-2343225Y-2372408D02*
G01X-2343225Y-2419289D01*
G01X-2343225Y-2372408D02*
G01X-2418227Y-2372408D01*
G01X-2418227Y-2372408D02*
G01X-2418227Y-2419289D01*
G01X-2800420Y-2372421D02*
G01X-2875421Y-2372421D01*
G01X-2875421Y-2372421D02*
G01X-2875421Y-2419304D01*
G01X-2800420Y-2372421D02*
G01X-2800420Y-2419304D01*
G01X-2280421Y-2586190D02*
G01X-2280421Y-2419304D01*
G01X-2280421Y-2419304D02*
G01X-2940420Y-2419304D01*
G01X-2940420Y-2419304D02*
G01X-2940420Y-2586190D01*
G54D10*
G01X-2751632Y1896821D02*
G01X-2751632Y1992709D01*
G01X-2751632Y1992709D02*
G01X-2619511Y1992709D01*
G01X-2619511Y1992709D02*
G01X-2619511Y1896821D01*
G01X-2751632Y1811579D02*
G01X-2751632Y1715691D01*
G01X-2751632Y1715691D02*
G01X-2619511Y1715691D01*
G01X-2619511Y1715691D02*
G01X-2619511Y1811579D01*
G01X-2904032Y1896821D02*
G01X-2904032Y1992709D01*
G01X-2904032Y1992709D02*
G01X-2771911Y1992709D01*
G01X-2771911Y1992709D02*
G01X-2771911Y1896821D01*
G01X-2904032Y1811579D02*
G01X-2904032Y1715691D01*
G01X-2904032Y1715691D02*
G01X-2771911Y1715691D01*
G01X-2771911Y1715691D02*
G01X-2771911Y1811579D01*
G01X-2751632Y2188921D02*
G01X-2751632Y2284809D01*
G01X-2751632Y2284809D02*
G01X-2619511Y2284809D01*
G01X-2619511Y2284809D02*
G01X-2619511Y2188921D01*
G01X-2751632Y2103679D02*
G01X-2751632Y2007791D01*
G01X-2751632Y2007791D02*
G01X-2619511Y2007791D01*
G01X-2619511Y2007791D02*
G01X-2619511Y2103679D01*
G01X-3526332Y2188921D02*
G01X-3526332Y2284809D01*
G01X-3526332Y2284809D02*
G01X-3394211Y2284809D01*
G01X-3394211Y2284809D02*
G01X-3394211Y2188921D01*
G01X-3526332Y2103679D02*
G01X-3526332Y2007791D01*
G01X-3526332Y2007791D02*
G01X-3394211Y2007791D01*
G01X-3394211Y2007791D02*
G01X-3394211Y2103679D01*
G01X-4301032Y2188921D02*
G01X-4301032Y2284809D01*
G01X-4301032Y2284809D02*
G01X-4168911Y2284809D01*
G01X-4168911Y2284809D02*
G01X-4168911Y2188921D01*
G01X-4301032Y2103679D02*
G01X-4301032Y2007791D01*
G01X-4301032Y2007791D02*
G01X-4168911Y2007791D01*
G01X-4168911Y2007791D02*
G01X-4168911Y2103679D01*
G01X-3526332Y1896821D02*
G01X-3526332Y1992709D01*
G01X-3526332Y1992709D02*
G01X-3394211Y1992709D01*
G01X-3394211Y1992709D02*
G01X-3394211Y1896821D01*
G01X-3526332Y1811579D02*
G01X-3526332Y1715691D01*
G01X-3526332Y1715691D02*
G01X-3394211Y1715691D01*
G01X-3394211Y1715691D02*
G01X-3394211Y1811579D01*
G01X149840Y-1328979D02*
G01X149840Y-1233091D01*
G01X149840Y-1233091D02*
G01X281960Y-1233091D01*
G01X281960Y-1233091D02*
G01X281960Y-1328979D01*
G01X149840Y-1414221D02*
G01X149840Y-1510109D01*
G01X149840Y-1510109D02*
G01X281960Y-1510109D01*
G01X281960Y-1510109D02*
G01X281960Y-1414221D01*
G01X249479Y-1145560D02*
G01X153591Y-1145560D01*
G01X153591Y-1145560D02*
G01X153591Y-1013440D01*
G01X153591Y-1013440D02*
G01X249479Y-1013440D01*
G01X334721Y-1145560D02*
G01X430609Y-1145560D01*
G01X430609Y-1145560D02*
G01X430609Y-1013440D01*
G01X430609Y-1013440D02*
G01X334721Y-1013440D01*
G01X2772868Y1973021D02*
G01X2772868Y2068909D01*
G01X2772868Y2068909D02*
G01X2904989Y2068909D01*
G01X2904989Y2068909D02*
G01X2904989Y1973021D01*
G01X2772868Y1887779D02*
G01X2772868Y1791891D01*
G01X2772868Y1791891D02*
G01X2904989Y1791891D01*
G01X2904989Y1791891D02*
G01X2904989Y1887779D01*
G01X-4301032Y1896821D02*
G01X-4301032Y1992709D01*
G01X-4301032Y1992709D02*
G01X-4168911Y1992709D01*
G01X-4168911Y1992709D02*
G01X-4168911Y1896821D01*
G01X-4301032Y1811579D02*
G01X-4301032Y1715691D01*
G01X-4301032Y1715691D02*
G01X-4168911Y1715691D01*
G01X-4168911Y1715691D02*
G01X-4168911Y1811579D01*
G01X-3678732Y1896821D02*
G01X-3678732Y1992709D01*
G01X-3678732Y1992709D02*
G01X-3546611Y1992709D01*
G01X-3546611Y1992709D02*
G01X-3546611Y1896821D01*
G01X-3678732Y1811579D02*
G01X-3678732Y1715691D01*
G01X-3678732Y1715691D02*
G01X-3546611Y1715691D01*
G01X-3546611Y1715691D02*
G01X-3546611Y1811579D01*
G01X-4453432Y1896821D02*
G01X-4453432Y1992709D01*
G01X-4453432Y1992709D02*
G01X-4321311Y1992709D01*
G01X-4321311Y1992709D02*
G01X-4321311Y1896821D01*
G01X-4453432Y1811579D02*
G01X-4453432Y1715691D01*
G01X-4453432Y1715691D02*
G01X-4321311Y1715691D01*
G01X-4321311Y1715691D02*
G01X-4321311Y1811579D01*
G01X-2446832Y1973021D02*
G01X-2446832Y2068909D01*
G01X-2446832Y2068909D02*
G01X-2314711Y2068909D01*
G01X-2314711Y2068909D02*
G01X-2314711Y1973021D01*
G01X-2446832Y1887779D02*
G01X-2446832Y1791891D01*
G01X-2446832Y1791891D02*
G01X-2314711Y1791891D01*
G01X-2314711Y1791891D02*
G01X-2314711Y1887779D01*
G01X2468068Y2188921D02*
G01X2468068Y2284809D01*
G01X2468068Y2284809D02*
G01X2600189Y2284809D01*
G01X2600189Y2284809D02*
G01X2600189Y2188921D01*
G01X2468068Y2103679D02*
G01X2468068Y2007791D01*
G01X2468068Y2007791D02*
G01X2600189Y2007791D01*
G01X2600189Y2007791D02*
G01X2600189Y2103679D01*
G01X2315668Y1896821D02*
G01X2315668Y1992709D01*
G01X2315668Y1992709D02*
G01X2447789Y1992709D01*
G01X2447789Y1992709D02*
G01X2447789Y1896821D01*
G01X2315668Y1811579D02*
G01X2315668Y1715691D01*
G01X2315668Y1715691D02*
G01X2447789Y1715691D01*
G01X2447789Y1715691D02*
G01X2447789Y1811579D01*
G01X2468068Y1896821D02*
G01X2468068Y1992709D01*
G01X2468068Y1992709D02*
G01X2600189Y1992709D01*
G01X2600189Y1992709D02*
G01X2600189Y1896821D01*
G01X2468068Y1811579D02*
G01X2468068Y1715691D01*
G01X2468068Y1715691D02*
G01X2600189Y1715691D01*
G01X2600189Y1715691D02*
G01X2600189Y1811579D01*
G01X3242768Y2188921D02*
G01X3242768Y2284809D01*
G01X3242768Y2284809D02*
G01X3374889Y2284809D01*
G01X3374889Y2284809D02*
G01X3374889Y2188921D01*
G01X3242768Y2103679D02*
G01X3242768Y2007791D01*
G01X3242768Y2007791D02*
G01X3374889Y2007791D01*
G01X3374889Y2007791D02*
G01X3374889Y2103679D01*
G01X3090368Y1896821D02*
G01X3090368Y1992709D01*
G01X3090368Y1992709D02*
G01X3222489Y1992709D01*
G01X3222489Y1992709D02*
G01X3222489Y1896821D01*
G01X3090368Y1811579D02*
G01X3090368Y1715691D01*
G01X3090368Y1715691D02*
G01X3222489Y1715691D01*
G01X3222489Y1715691D02*
G01X3222489Y1811579D01*
G01X3242768Y1896821D02*
G01X3242768Y1992709D01*
G01X3242768Y1992709D02*
G01X3374889Y1992709D01*
G01X3374889Y1992709D02*
G01X3374889Y1896821D01*
G01X3242768Y1811579D02*
G01X3242768Y1715691D01*
G01X3242768Y1715691D02*
G01X3374889Y1715691D01*
G01X3374889Y1715691D02*
G01X3374889Y1811579D01*
G01X4017468Y2188921D02*
G01X4017468Y2284809D01*
G01X4017468Y2284809D02*
G01X4149589Y2284809D01*
G01X4149589Y2284809D02*
G01X4149589Y2188921D01*
G01X4017468Y2103679D02*
G01X4017468Y2007791D01*
G01X4017468Y2007791D02*
G01X4149589Y2007791D01*
G01X4149589Y2007791D02*
G01X4149589Y2103679D01*
G01X3865068Y1896821D02*
G01X3865068Y1992709D01*
G01X3865068Y1992709D02*
G01X3997189Y1992709D01*
G01X3997189Y1992709D02*
G01X3997189Y1896821D01*
G01X3865068Y1811579D02*
G01X3865068Y1715691D01*
G01X3865068Y1715691D02*
G01X3997189Y1715691D01*
G01X3997189Y1715691D02*
G01X3997189Y1811579D01*
G01X4017468Y1896821D02*
G01X4017468Y1992709D01*
G01X4017468Y1992709D02*
G01X4149589Y1992709D01*
G01X4149589Y1992709D02*
G01X4149589Y1896821D01*
G01X4017468Y1811579D02*
G01X4017468Y1715691D01*
G01X4017468Y1715691D02*
G01X4149589Y1715691D01*
G01X4149589Y1715691D02*
G01X4149589Y1811579D01*
G01X-3221532Y1973021D02*
G01X-3221532Y2068909D01*
G01X-3221532Y2068909D02*
G01X-3089411Y2068909D01*
G01X-3089411Y2068909D02*
G01X-3089411Y1973021D01*
G01X-3221532Y1887779D02*
G01X-3221532Y1791891D01*
G01X-3221532Y1791891D02*
G01X-3089411Y1791891D01*
G01X-3089411Y1791891D02*
G01X-3089411Y1887779D01*
G01X-3996232Y1973021D02*
G01X-3996232Y2068909D01*
G01X-3996232Y2068909D02*
G01X-3864111Y2068909D01*
G01X-3864111Y2068909D02*
G01X-3864111Y1973021D01*
G01X-3996232Y1887779D02*
G01X-3996232Y1791891D01*
G01X-3996232Y1791891D02*
G01X-3864111Y1791891D01*
G01X-3864111Y1791891D02*
G01X-3864111Y1887779D01*
G01X3547568Y1973021D02*
G01X3547568Y2068909D01*
G01X3547568Y2068909D02*
G01X3679689Y2068909D01*
G01X3679689Y2068909D02*
G01X3679689Y1973021D01*
G01X3547568Y1887779D02*
G01X3547568Y1791891D01*
G01X3547568Y1791891D02*
G01X3679689Y1791891D01*
G01X3679689Y1791891D02*
G01X3679689Y1887779D01*
G01X4322268Y1973021D02*
G01X4322268Y2068909D01*
G01X4322268Y2068909D02*
G01X4454389Y2068909D01*
G01X4454389Y2068909D02*
G01X4454389Y1973021D01*
G01X4322268Y1887779D02*
G01X4322268Y1791891D01*
G01X4322268Y1791891D02*
G01X4454389Y1791891D01*
G01X4454389Y1791891D02*
G01X4454389Y1887779D01*
G01X2751632Y-1896821D02*
G01X2751632Y-1992709D01*
G01X2751632Y-1992709D02*
G01X2619511Y-1992709D01*
G01X2619511Y-1992709D02*
G01X2619511Y-1896821D01*
G01X2751632Y-1811579D02*
G01X2751632Y-1715691D01*
G01X2751632Y-1715691D02*
G01X2619511Y-1715691D01*
G01X2619511Y-1715691D02*
G01X2619511Y-1811579D01*
G01X2904032Y-1896821D02*
G01X2904032Y-1992709D01*
G01X2904032Y-1992709D02*
G01X2771911Y-1992709D01*
G01X2771911Y-1992709D02*
G01X2771911Y-1896821D01*
G01X2904032Y-1811579D02*
G01X2904032Y-1715691D01*
G01X2904032Y-1715691D02*
G01X2771911Y-1715691D01*
G01X2771911Y-1715691D02*
G01X2771911Y-1811579D01*
G01X2751632Y-2188921D02*
G01X2751632Y-2284809D01*
G01X2751632Y-2284809D02*
G01X2619511Y-2284809D01*
G01X2619511Y-2284809D02*
G01X2619511Y-2188921D01*
G01X2751632Y-2103679D02*
G01X2751632Y-2007791D01*
G01X2751632Y-2007791D02*
G01X2619511Y-2007791D01*
G01X2619511Y-2007791D02*
G01X2619511Y-2103679D01*
G01X3526332Y-2188921D02*
G01X3526332Y-2284809D01*
G01X3526332Y-2284809D02*
G01X3394211Y-2284809D01*
G01X3394211Y-2284809D02*
G01X3394211Y-2188921D01*
G01X3526332Y-2103679D02*
G01X3526332Y-2007791D01*
G01X3526332Y-2007791D02*
G01X3394211Y-2007791D01*
G01X3394211Y-2007791D02*
G01X3394211Y-2103679D01*
G01X4301032Y-2188921D02*
G01X4301032Y-2284809D01*
G01X4301032Y-2284809D02*
G01X4168911Y-2284809D01*
G01X4168911Y-2284809D02*
G01X4168911Y-2188921D01*
G01X4301032Y-2103679D02*
G01X4301032Y-2007791D01*
G01X4301032Y-2007791D02*
G01X4168911Y-2007791D01*
G01X4168911Y-2007791D02*
G01X4168911Y-2103679D01*
G01X3526332Y-1896821D02*
G01X3526332Y-1992709D01*
G01X3526332Y-1992709D02*
G01X3394211Y-1992709D01*
G01X3394211Y-1992709D02*
G01X3394211Y-1896821D01*
G01X3526332Y-1811579D02*
G01X3526332Y-1715691D01*
G01X3526332Y-1715691D02*
G01X3394211Y-1715691D01*
G01X3394211Y-1715691D02*
G01X3394211Y-1811579D01*
G01X4301032Y-1896821D02*
G01X4301032Y-1992709D01*
G01X4301032Y-1992709D02*
G01X4168911Y-1992709D01*
G01X4168911Y-1992709D02*
G01X4168911Y-1896821D01*
G01X4301032Y-1811579D02*
G01X4301032Y-1715691D01*
G01X4301032Y-1715691D02*
G01X4168911Y-1715691D01*
G01X4168911Y-1715691D02*
G01X4168911Y-1811579D01*
G01X3678732Y-1896821D02*
G01X3678732Y-1992709D01*
G01X3678732Y-1992709D02*
G01X3546611Y-1992709D01*
G01X3546611Y-1992709D02*
G01X3546611Y-1896821D01*
G01X3678732Y-1811579D02*
G01X3678732Y-1715691D01*
G01X3678732Y-1715691D02*
G01X3546611Y-1715691D01*
G01X3546611Y-1715691D02*
G01X3546611Y-1811579D01*
G01X4453432Y-1896821D02*
G01X4453432Y-1992709D01*
G01X4453432Y-1992709D02*
G01X4321311Y-1992709D01*
G01X4321311Y-1992709D02*
G01X4321311Y-1896821D01*
G01X4453432Y-1811579D02*
G01X4453432Y-1715691D01*
G01X4453432Y-1715691D02*
G01X4321311Y-1715691D01*
G01X4321311Y-1715691D02*
G01X4321311Y-1811579D01*
G01X2446832Y-1973021D02*
G01X2446832Y-2068909D01*
G01X2446832Y-2068909D02*
G01X2314711Y-2068909D01*
G01X2314711Y-2068909D02*
G01X2314711Y-1973021D01*
G01X2446832Y-1887779D02*
G01X2446832Y-1791891D01*
G01X2446832Y-1791891D02*
G01X2314711Y-1791891D01*
G01X2314711Y-1791891D02*
G01X2314711Y-1887779D01*
G01X3221532Y-1973021D02*
G01X3221532Y-2068909D01*
G01X3221532Y-2068909D02*
G01X3089411Y-2068909D01*
G01X3089411Y-2068909D02*
G01X3089411Y-1973021D01*
G01X3221532Y-1887779D02*
G01X3221532Y-1791891D01*
G01X3221532Y-1791891D02*
G01X3089411Y-1791891D01*
G01X3089411Y-1791891D02*
G01X3089411Y-1887779D01*
G01X3996232Y-1973021D02*
G01X3996232Y-2068909D01*
G01X3996232Y-2068909D02*
G01X3864111Y-2068909D01*
G01X3864111Y-2068909D02*
G01X3864111Y-1973021D01*
G01X3996232Y-1887779D02*
G01X3996232Y-1791891D01*
G01X3996232Y-1791891D02*
G01X3864111Y-1791891D01*
G01X3864111Y-1791891D02*
G01X3864111Y-1887779D01*
G01X-4017560Y-1896313D02*
G01X-4017560Y-1992201D01*
G01X-4017560Y-1992201D02*
G01X-4149681Y-1992201D01*
G01X-4149681Y-1992201D02*
G01X-4149681Y-1896313D01*
G01X-4017560Y-1811071D02*
G01X-4017560Y-1715184D01*
G01X-4017560Y-1715184D02*
G01X-4149681Y-1715184D01*
G01X-4149681Y-1715184D02*
G01X-4149681Y-1811071D01*
G01X-3865160Y-1896313D02*
G01X-3865160Y-1992201D01*
G01X-3865160Y-1992201D02*
G01X-3997281Y-1992201D01*
G01X-3997281Y-1992201D02*
G01X-3997281Y-1896313D01*
G01X-3865160Y-1811071D02*
G01X-3865160Y-1715184D01*
G01X-3865160Y-1715184D02*
G01X-3997281Y-1715184D01*
G01X-3997281Y-1715184D02*
G01X-3997281Y-1811071D01*
G01X-4017560Y-2188413D02*
G01X-4017560Y-2284301D01*
G01X-4017560Y-2284301D02*
G01X-4149681Y-2284301D01*
G01X-4149681Y-2284301D02*
G01X-4149681Y-2188413D01*
G01X-4017560Y-2103171D02*
G01X-4017560Y-2007284D01*
G01X-4017560Y-2007284D02*
G01X-4149681Y-2007284D01*
G01X-4149681Y-2007284D02*
G01X-4149681Y-2103171D01*
G01X-3242860Y-2188413D02*
G01X-3242860Y-2284301D01*
G01X-3242860Y-2284301D02*
G01X-3374981Y-2284301D01*
G01X-3374981Y-2284301D02*
G01X-3374981Y-2188413D01*
G01X-3242860Y-2103171D02*
G01X-3242860Y-2007284D01*
G01X-3242860Y-2007284D02*
G01X-3374981Y-2007284D01*
G01X-3374981Y-2007284D02*
G01X-3374981Y-2103171D01*
G01X-2468160Y-2188413D02*
G01X-2468160Y-2284301D01*
G01X-2468160Y-2284301D02*
G01X-2600281Y-2284301D01*
G01X-2600281Y-2284301D02*
G01X-2600281Y-2188413D01*
G01X-2468160Y-2103171D02*
G01X-2468160Y-2007284D01*
G01X-2468160Y-2007284D02*
G01X-2600281Y-2007284D01*
G01X-2600281Y-2007284D02*
G01X-2600281Y-2103171D01*
G01X-3242860Y-1896313D02*
G01X-3242860Y-1992201D01*
G01X-3242860Y-1992201D02*
G01X-3374981Y-1992201D01*
G01X-3374981Y-1992201D02*
G01X-3374981Y-1896313D01*
G01X-3242860Y-1811071D02*
G01X-3242860Y-1715184D01*
G01X-3242860Y-1715184D02*
G01X-3374981Y-1715184D01*
G01X-3374981Y-1715184D02*
G01X-3374981Y-1811071D01*
G01X-2468160Y-1896313D02*
G01X-2468160Y-1992201D01*
G01X-2468160Y-1992201D02*
G01X-2600281Y-1992201D01*
G01X-2600281Y-1992201D02*
G01X-2600281Y-1896313D01*
G01X-2468160Y-1811071D02*
G01X-2468160Y-1715184D01*
G01X-2468160Y-1715184D02*
G01X-2600281Y-1715184D01*
G01X-2600281Y-1715184D02*
G01X-2600281Y-1811071D01*
G01X-3090460Y-1896313D02*
G01X-3090460Y-1992201D01*
G01X-3090460Y-1992201D02*
G01X-3222581Y-1992201D01*
G01X-3222581Y-1992201D02*
G01X-3222581Y-1896313D01*
G01X-3090460Y-1811071D02*
G01X-3090460Y-1715184D01*
G01X-3090460Y-1715184D02*
G01X-3222581Y-1715184D01*
G01X-3222581Y-1715184D02*
G01X-3222581Y-1811071D01*
G01X-2315760Y-1896313D02*
G01X-2315760Y-1992201D01*
G01X-2315760Y-1992201D02*
G01X-2447881Y-1992201D01*
G01X-2447881Y-1992201D02*
G01X-2447881Y-1896313D01*
G01X-2315760Y-1811071D02*
G01X-2315760Y-1715184D01*
G01X-2315760Y-1715184D02*
G01X-2447881Y-1715184D01*
G01X-2447881Y-1715184D02*
G01X-2447881Y-1811071D01*
G01X-4322360Y-1972513D02*
G01X-4322360Y-2068401D01*
G01X-4322360Y-2068401D02*
G01X-4454481Y-2068401D01*
G01X-4454481Y-2068401D02*
G01X-4454481Y-1972513D01*
G01X-4322360Y-1887271D02*
G01X-4322360Y-1791384D01*
G01X-4322360Y-1791384D02*
G01X-4454481Y-1791384D01*
G01X-4454481Y-1791384D02*
G01X-4454481Y-1887271D01*
G01X-3547660Y-1972513D02*
G01X-3547660Y-2068401D01*
G01X-3547660Y-2068401D02*
G01X-3679781Y-2068401D01*
G01X-3679781Y-2068401D02*
G01X-3679781Y-1972513D01*
G01X-3547660Y-1887271D02*
G01X-3547660Y-1791384D01*
G01X-3547660Y-1791384D02*
G01X-3679781Y-1791384D01*
G01X-3679781Y-1791384D02*
G01X-3679781Y-1887271D01*
G01X-2772960Y-1972513D02*
G01X-2772960Y-2068401D01*
G01X-2772960Y-2068401D02*
G01X-2905081Y-2068401D01*
G01X-2905081Y-2068401D02*
G01X-2905081Y-1972513D01*
G01X-2772960Y-1887271D02*
G01X-2772960Y-1791384D01*
G01X-2772960Y-1791384D02*
G01X-2905081Y-1791384D01*
G01X-2905081Y-1791384D02*
G01X-2905081Y-1887271D01*
G01X-3089770Y175781D02*
G01X-3053601Y175781D01*
G01X-3053601Y175781D02*
G01X-3053601Y211950D01*
G01X-3089770Y891019D02*
G01X-3053601Y891019D01*
G01X-3053601Y891019D02*
G01X-3053601Y854850D01*
G01X-3732670Y175781D02*
G01X-3768839Y175781D01*
G01X-3768839Y175781D02*
G01X-3768839Y211950D01*
G01X-3732670Y891019D02*
G01X-3768839Y891019D01*
G01X-3768839Y891019D02*
G01X-3768839Y854850D01*
G01X-3728359Y216261D02*
G01X-3094081Y216261D01*
G01X-3094081Y216261D02*
G01X-3094081Y850539D01*
G01X-3094081Y850539D02*
G01X-3728359Y850539D01*
G01X-3728359Y850539D02*
G01X-3728359Y216261D01*
G54D11*
G01X-1430435Y-2685764D02*
G01X-1270436Y-2685764D01*
G01X-1270436Y-2385765D02*
G01X-1430435Y-2385765D01*
G54D10*
G01X3089770Y-175781D02*
G01X3053601Y-175781D01*
G01X3053601Y-175781D02*
G01X3053601Y-211950D01*
G01X3089770Y-891019D02*
G01X3053601Y-891019D01*
G01X3053601Y-891019D02*
G01X3053601Y-854850D01*
G01X3732670Y-175781D02*
G01X3768839Y-175781D01*
G01X3768839Y-175781D02*
G01X3768839Y-211950D01*
G01X3732670Y-891019D02*
G01X3768839Y-891019D01*
G01X3768839Y-891019D02*
G01X3768839Y-854850D01*
G01X3728359Y-216261D02*
G01X3094081Y-216261D01*
G01X3094081Y-216261D02*
G01X3094081Y-850539D01*
G01X3094081Y-850539D02*
G01X3728359Y-850539D01*
G01X3728359Y-850539D02*
G01X3728359Y-216261D01*
G01X3679330Y175781D02*
G01X3715499Y175781D01*
G01X3715499Y175781D02*
G01X3715499Y211950D01*
G01X3679330Y891019D02*
G01X3715499Y891019D01*
G01X3715499Y891019D02*
G01X3715499Y854850D01*
G01X3036430Y175781D02*
G01X3000261Y175781D01*
G01X3000261Y175781D02*
G01X3000261Y211950D01*
G01X3036430Y891019D02*
G01X3000261Y891019D01*
G01X3000261Y891019D02*
G01X3000261Y854850D01*
G01X3040741Y216261D02*
G01X3675019Y216261D01*
G01X3675019Y216261D02*
G01X3675019Y850539D01*
G01X3675019Y850539D02*
G01X3040741Y850539D01*
G01X3040741Y850539D02*
G01X3040741Y216261D01*
G01X-3679422Y-175273D02*
G01X-3715591Y-175273D01*
G01X-3715591Y-175273D02*
G01X-3715591Y-211443D01*
G01X-3679422Y-890512D02*
G01X-3715591Y-890512D01*
G01X-3715591Y-890512D02*
G01X-3715591Y-854342D01*
G01X-3036522Y-175273D02*
G01X-3000353Y-175273D01*
G01X-3000353Y-175273D02*
G01X-3000353Y-211443D01*
G01X-3036522Y-890512D02*
G01X-3000353Y-890512D01*
G01X-3000353Y-890512D02*
G01X-3000353Y-854342D01*
G01X-3040833Y-215753D02*
G01X-3675111Y-215753D01*
G01X-3675111Y-215753D02*
G01X-3675111Y-850032D01*
G01X-3675111Y-850032D02*
G01X-3040833Y-850032D01*
G01X-3040833Y-850032D02*
G01X-3040833Y-215753D01*
G01X2196054Y-542039D02*
G01X2196054Y-492039D01*
G01X2111576Y-557281D02*
G01X2180816Y-557281D01*
G01X2096336Y-492039D02*
G01X2096336Y-542039D01*
G01X2096549Y-397761D02*
G01X2096549Y-447761D01*
G01X2196262Y-447761D02*
G01X2196262Y-397761D01*
G01X2181027Y-382519D02*
G01X2111784Y-382519D01*
G01X2196264Y-397761D02*
G03X2181024Y-382521I-15240J0D01*
G01X2111784Y-382521D02*
G03X2096544Y-397761I0J-15240D01*
G01X2096336Y-542039D02*
G03X2111576Y-557279I15240J0D01*
G01X2180816Y-557279D02*
G03X2196056Y-542039I0J15240D01*
G01X2132554Y-1735839D02*
G01X2132554Y-1685839D01*
G01X2048076Y-1751081D02*
G01X2117316Y-1751081D01*
G01X2032836Y-1685839D02*
G01X2032836Y-1735839D01*
G01X2033049Y-1591561D02*
G01X2033049Y-1641561D01*
G01X2132762Y-1641561D02*
G01X2132762Y-1591561D01*
G01X2117527Y-1576319D02*
G01X2048284Y-1576319D01*
G01X2132764Y-1591561D02*
G03X2117524Y-1576321I-15240J0D01*
G01X2048284Y-1576321D02*
G03X2033044Y-1591561I0J-15240D01*
G01X2032836Y-1735839D02*
G03X2048076Y-1751079I15240J0D01*
G01X2117316Y-1751079D02*
G03X2132556Y-1735839I0J15240D01*
G01X-1108089Y-2501726D02*
G01X-1108089Y-2551726D01*
G01X-1023611Y-2486483D02*
G01X-1092852Y-2486483D01*
G01X-1008371Y-2551726D02*
G01X-1008371Y-2501726D01*
G01X-1008584Y-2646003D02*
G01X-1008584Y-2596003D01*
G01X-1108297Y-2596003D02*
G01X-1108297Y-2646003D01*
G01X-1093062Y-2661246D02*
G01X-1023819Y-2661246D01*
G01X-1108300Y-2646003D02*
G03X-1093060Y-2661243I15240J0D01*
G01X-1023819Y-2661243D02*
G03X-1008579Y-2646003I0J15240D01*
G01X-1008371Y-2501726D02*
G03X-1023611Y-2486486I-15240J0D01*
G01X-1092852Y-2486486D02*
G03X-1108092Y-2501726I0J-15240D01*
G01X-1377724Y-2119497D02*
G01X-1236724Y-2119497D01*
G01X-1236724Y-2300218D02*
G01X-1377724Y-2300218D01*
G01X-1392964Y-2284978D02*
G01X-1392964Y-2134737D01*
G01X-1015485Y-2119497D02*
G01X-1156485Y-2119497D01*
G01X-1156485Y-2300218D02*
G01X-1015485Y-2300218D01*
G01X-1000245Y-2284978D02*
G01X-1000245Y-2134737D01*
G01X-1377724Y-2300218D02*
G02X-1392964Y-2284978I0J15240D01*
G01X-1392964Y-2134737D02*
G02X-1377724Y-2119497I15240J0D01*
G01X-1015485Y-2300218D02*
G03X-1000245Y-2284978I0J15240D01*
G01X-1000245Y-2134737D02*
G03X-1015485Y-2119497I-15240J0D01*
G54D11*
G01X-1588329Y-2923488D02*
G01X-1668327Y-2923488D01*
G01X-1532284Y-2923442D02*
G01X-1452287Y-2923442D01*
G01X-1588329Y-3065456D02*
G01X-1668327Y-3065456D01*
G01X-1532284Y-3065408D02*
G01X-1452287Y-3065408D01*
G01X-1699302Y-2954471D02*
G01X-1699302Y-3034476D01*
G01X-1421309Y-3034422D02*
G01X-1421309Y-2954420D01*
G01X-1452292Y-3065408D02*
G03X-1421309Y-3034422I0J30983D01*
G01X-1421309Y-2954425D02*
G03X-1452292Y-2923442I-30983J0D01*
G01X-1668322Y-2923488D02*
G03X-1699302Y-2954471I3J-30983D01*
G01X-1699302Y-3034468D02*
G03X-1668322Y-3065456I30983J-5D01*
G01X-1588790Y-2721350D02*
G01X-1668788Y-2721350D01*
G01X-1532745Y-2721304D02*
G01X-1452748Y-2721304D01*
G01X-1588790Y-2863318D02*
G01X-1668788Y-2863318D01*
G01X-1532745Y-2863270D02*
G01X-1452748Y-2863270D01*
G01X-1699763Y-2752333D02*
G01X-1699763Y-2832337D01*
G01X-1421770Y-2832284D02*
G01X-1421770Y-2752282D01*
G01X-1452753Y-2863270D02*
G03X-1421770Y-2832284I0J30983D01*
G01X-1421770Y-2752287D02*
G03X-1452753Y-2721304I-30983J0D01*
G01X-1668783Y-2721350D02*
G03X-1699763Y-2752333I3J-30983D01*
G01X-1699763Y-2832330D02*
G03X-1668783Y-2863318I30983J-5D01*
G54D10*
G01X289176Y-1787425D02*
G01X289176Y-1962669D01*
G01X497228Y-1787425D02*
G01X161994Y-1787425D01*
G54D11*
G01X79611Y-2075047D02*
G01X79611Y-1975047D01*
G01X29611Y-2025047D02*
G01X129611Y-2025047D01*
G54D10*
G01X497228Y-1962669D02*
G01X161994Y-1962669D01*
G36*
G01X169611Y-1779807D02*
G01X169611Y-1795007D01*
G01X123891Y-1795007D01*
G01X123891Y-1779807D01*
G01X169611Y-1779807D01*
G37*
G36*
G01X169611Y-1970287D02*
G01X169611Y-1955088D01*
G01X123891Y-1955088D01*
G01X123891Y-1970287D01*
G01X169611Y-1970287D01*
G37*
G01X543540Y-2732921D02*
G01X543540Y-2067679D01*
G01X543540Y-2067679D02*
G01X269260Y-2067679D01*
G01X269260Y-2067679D02*
G01X269260Y-2732921D01*
G01X269260Y-2732921D02*
G01X543540Y-2732921D01*
G54D11*
G01X-1357574Y-3071707D02*
G01X-1052774Y-3071707D01*
G01X-1052772Y-2741507D02*
G01X-1357572Y-2741507D01*
G54D10*
G01X2007540Y-1114821D02*
G01X2007540Y-1186624D01*
G01X2007540Y-1186624D02*
G01X2107260Y-1186624D01*
G01X2107260Y-1186624D02*
G01X2107260Y-1114821D01*
G01X2007540Y-1069579D02*
G01X2007540Y-997775D01*
G01X2007540Y-997775D02*
G01X2107260Y-997775D01*
G01X2107260Y-997775D02*
G01X2107260Y-1069579D01*
G54D11*
G01X937181Y-868843D02*
G01X857184Y-868843D01*
G01X993226Y-868797D02*
G01X1073224Y-868797D01*
G01X937181Y-1010811D02*
G01X857184Y-1010811D01*
G01X993226Y-1010763D02*
G01X1073224Y-1010763D01*
G01X826209Y-899825D02*
G01X826209Y-979830D01*
G01X1104202Y-979777D02*
G01X1104202Y-899775D01*
G01X1073219Y-1010763D02*
G03X1104202Y-979777I0J30983D01*
G01X1104202Y-899780D02*
G03X1073219Y-868797I-30983J0D01*
G01X857189Y-868843D02*
G03X826209Y-899825I3J-30983D01*
G01X826209Y-979823D02*
G03X857189Y-1010811I30983J-5D01*
G01X-279001Y1359546D02*
G01X-358999Y1359546D01*
G01X-222956Y1359592D02*
G01X-142959Y1359592D01*
G01X-279001Y1217578D02*
G01X-358999Y1217578D01*
G01X-222956Y1217626D02*
G01X-142959Y1217626D01*
G01X-389974Y1328564D02*
G01X-389974Y1248559D01*
G01X-111981Y1248612D02*
G01X-111981Y1328614D01*
G01X-142964Y1217626D02*
G03X-111981Y1248612I0J30983D01*
G01X-111981Y1328609D02*
G03X-142964Y1359592I-30983J0D01*
G01X-358993Y1359546D02*
G03X-389974Y1328564I3J-30983D01*
G01X-389974Y1248566D02*
G03X-358993Y1217578I30983J-5D01*
G54D10*
G01X-532354Y1382779D02*
G01X-532354Y1332779D01*
G01X-447876Y1398021D02*
G01X-517116Y1398021D01*
G01X-432636Y1332779D02*
G01X-432636Y1382779D01*
G01X-432849Y1238501D02*
G01X-432849Y1288501D01*
G01X-532562Y1288501D02*
G01X-532562Y1238501D01*
G01X-517327Y1223259D02*
G01X-448084Y1223259D01*
G01X-532564Y1238501D02*
G03X-517324Y1223261I15240J0D01*
G01X-448084Y1223261D02*
G03X-432844Y1238501I0J15240D01*
G01X-432636Y1382779D02*
G03X-447876Y1398019I-15240J0D01*
G01X-517116Y1398019D02*
G03X-532356Y1382779I0J-15240D01*
G54D11*
G01X406400Y987102D02*
G01X406400Y1031240D01*
G01X-1219200Y690872D02*
G01X-1219200Y510540D01*
G01X-1219200Y510540D02*
G01X406400Y510540D01*
G01X406400Y510540D02*
G01X406400Y690872D01*
G01X-1019340Y1031240D02*
G01X-1219200Y1031240D01*
G01X-1219200Y1031240D02*
G01X-1219200Y987102D01*
G01X406400Y1031240D02*
G01X206555Y1031240D01*
G54D10*
G01X1356360Y508000D02*
G01X1395476Y508660D01*
G01X1395476Y508660D02*
G01X1410716Y493420D01*
G01X1410716Y493420D02*
G01X1410716Y370180D01*
G01X1410716Y370180D02*
G01X1395359Y355801D01*
G01X1395359Y355801D02*
G01X1356360Y355600D01*
G01X1209294Y508000D02*
G01X1170175Y508660D01*
G01X1170175Y508660D02*
G01X1154935Y493420D01*
G01X1154935Y493420D02*
G01X1154935Y370180D01*
G01X1154935Y370180D02*
G01X1170175Y354940D01*
G01X1170175Y354940D02*
G01X1209294Y355600D01*
G01X-572440Y1333261D02*
G01X-572440Y1405065D01*
G01X-572440Y1405065D02*
G01X-672160Y1405065D01*
G01X-672160Y1405065D02*
G01X-672160Y1333261D01*
G01X-572440Y1288019D02*
G01X-572440Y1216216D01*
G01X-572440Y1216216D02*
G01X-672160Y1216216D01*
G01X-672160Y1216216D02*
G01X-672160Y1288019D01*
G01X1861449Y-759320D02*
G01X1884220Y-759320D01*
G01X1884220Y-759320D02*
G01X1884220Y225920D01*
G01X1884220Y225920D02*
G01X1861449Y225920D01*
G01X881751Y-759320D02*
G01X858980Y-759320D01*
G01X858980Y-759320D02*
G01X858980Y225920D01*
G01X858980Y225920D02*
G01X881751Y225920D01*
G01X-686740Y1333261D02*
G01X-686740Y1405065D01*
G01X-686740Y1405065D02*
G01X-786460Y1405065D01*
G01X-786460Y1405065D02*
G01X-786460Y1333261D01*
G01X-686740Y1288019D02*
G01X-686740Y1216216D01*
G01X-686740Y1216216D02*
G01X-786460Y1216216D01*
G01X-786460Y1216216D02*
G01X-786460Y1288019D01*
G01X1694607Y-2764963D02*
G01X1790494Y-2764963D01*
G01X1790494Y-2764963D02*
G01X1790494Y-2897083D01*
G01X1790494Y-2897083D02*
G01X1694607Y-2897083D01*
G01X1609364Y-2764963D02*
G01X1513477Y-2764963D01*
G01X1513477Y-2764963D02*
G01X1513477Y-2897083D01*
G01X1513477Y-2897083D02*
G01X1609364Y-2897083D01*
G01X1186607Y-2764963D02*
G01X1282494Y-2764963D01*
G01X1282494Y-2764963D02*
G01X1282494Y-2897083D01*
G01X1282494Y-2897083D02*
G01X1186607Y-2897083D01*
G01X1101364Y-2764963D02*
G01X1005477Y-2764963D01*
G01X1005477Y-2764963D02*
G01X1005477Y-2897083D01*
G01X1005477Y-2897083D02*
G01X1101364Y-2897083D01*
G54D11*
G01X1435376Y-1667422D02*
G01X1515374Y-1667422D01*
G01X1379331Y-1667467D02*
G01X1299334Y-1667467D01*
G01X1435376Y-1525453D02*
G01X1515374Y-1525453D01*
G01X1379331Y-1525502D02*
G01X1299334Y-1525502D01*
G01X1546349Y-1636439D02*
G01X1546349Y-1556434D01*
G01X1268356Y-1556487D02*
G01X1268356Y-1636489D01*
G01X1299339Y-1525502D02*
G03X1268356Y-1556487I0J-30983D01*
G01X1268356Y-1636484D02*
G03X1299339Y-1667467I30983J0D01*
G01X1515369Y-1667422D02*
G03X1546349Y-1636439I-3J30983D01*
G01X1546349Y-1556441D02*
G03X1515369Y-1525453I-30983J5D01*
G01X1238407Y-1394145D02*
G01X1238407Y-1314148D01*
G01X1238453Y-1450190D02*
G01X1238453Y-1530187D01*
G01X1096439Y-1394145D02*
G01X1096439Y-1314148D01*
G01X1096487Y-1450190D02*
G01X1096487Y-1530187D01*
G01X1207424Y-1283172D02*
G01X1127419Y-1283172D01*
G01X1127473Y-1561165D02*
G01X1207475Y-1561165D01*
G01X1096487Y-1530182D02*
G03X1127473Y-1561165I30983J0D01*
G01X1207470Y-1561165D02*
G03X1238453Y-1530182I0J30983D01*
G01X1238407Y-1314153D02*
G03X1207424Y-1283172I-30983J-3D01*
G01X1127427Y-1283172D02*
G03X1096439Y-1314153I-5J-30983D01*
G54D10*
G01X-550161Y-991646D02*
G01X-600161Y-991646D01*
G01X-534919Y-1076124D02*
G01X-534919Y-1006884D01*
G01X-600161Y-1091364D02*
G01X-550161Y-1091364D01*
G01X-694439Y-1091151D02*
G01X-644439Y-1091151D01*
G01X-644439Y-991438D02*
G01X-694439Y-991438D01*
G01X-709681Y-1006673D02*
G01X-709681Y-1075916D01*
G01X-694439Y-991436D02*
G03X-709679Y-1006676I0J-15240D01*
G01X-709679Y-1075916D02*
G03X-694439Y-1091156I15240J0D01*
G01X-550161Y-1091364D02*
G03X-534921Y-1076124I0J15240D01*
G01X-534921Y-1006884D02*
G03X-550161Y-991644I-15240J0D01*
G54D12*
G01X1573748Y-1363254D02*
G01X1573748Y-1493254D01*
G01X1573748Y-1493254D02*
G01X1433748Y-1493254D01*
G01X1543751Y-1233267D02*
G01X1273749Y-1233267D01*
G01X1273749Y-1463264D01*
G01X1543751Y-1463264D01*
G01X1543751Y-1233267D01*
G54D11*
G01X2128357Y-670481D02*
G01X2128357Y-590484D01*
G01X2128403Y-726526D02*
G01X2128403Y-806524D01*
G01X1986389Y-670481D02*
G01X1986389Y-590484D01*
G01X1986437Y-726526D02*
G01X1986437Y-806524D01*
G01X2097375Y-559509D02*
G01X2017370Y-559509D01*
G01X2017423Y-837501D02*
G01X2097425Y-837501D01*
G01X1986437Y-806519D02*
G03X2017423Y-837501I30983J0D01*
G01X2097420Y-837501D02*
G03X2128403Y-806519I0J30983D01*
G01X2128357Y-590489D02*
G03X2097375Y-559509I-30983J-3D01*
G01X2017377Y-559509D02*
G03X1986389Y-590489I-5J-30983D01*

G04 Rect Start*
G01X-4286250Y-3136900D02*
G01X-4286250Y2260600D01*
G01X4286250Y2260600D01*
G01X4286250Y-3136900D01*
G01X-4286250Y-3136900D01*
G04 Rect End*

G04 Circle Start*
G54D13*
G01X2940351Y2337310D02*
G03X2980331Y2337310I19990J0D01*
G03X2940351Y2337310I-19990J0D01*
G01X3715051Y2337310D02*
G03X3755031Y2337310I19990J0D01*
G03X3715051Y2337310I-19990J0D01*
G01X4489751Y2337310D02*
G03X4529731Y2337310I19990J0D01*
G03X4489751Y2337310I-19990J0D01*
G01X-2279349Y2337310D02*
G03X-2239369Y2337310I19990J0D01*
G03X-2279349Y2337310I-19990J0D01*
G01X-3054049Y2337310D02*
G03X-3014069Y2337310I19990J0D01*
G03X-3054049Y2337310I-19990J0D01*
G01X-3828749Y2337310D02*
G03X-3788769Y2337310I19990J0D01*
G03X-3828749Y2337310I-19990J0D01*
G01X2239369Y-2337310D02*
G03X2279349Y-2337310I19990J0D01*
G03X2239369Y-2337310I-19990J0D01*
G01X3014069Y-2337310D02*
G03X3054049Y-2337310I19990J0D01*
G03X3014069Y-2337310I-19990J0D01*
G01X3788769Y-2337310D02*
G03X3828749Y-2337310I19990J0D01*
G03X3788769Y-2337310I-19990J0D01*
G01X-4529823Y-2336803D02*
G03X-4489843Y-2336803I19990J0D01*
G03X-4529823Y-2336803I-19990J0D01*
G01X-3755123Y-2336803D02*
G03X-3715143Y-2336803I19990J0D01*
G03X-3755123Y-2336803I-19990J0D01*
G01X-2980423Y-2336803D02*
G03X-2940443Y-2336803I19990J0D01*
G03X-2980423Y-2336803I-19990J0D01*
G54D14*
G01X-3959631Y253390D02*
G03X-3939616Y253390I10008J0D01*
G03X-3959631Y253390I-10008J0D01*
G54D15*
G01X-3693363Y266268D02*
G03X-3663340Y266268I15011J0D01*
G03X-3693363Y266268I-15011J0D01*
G54D11*
G01X-1575632Y-2633275D02*
G03X-1550232Y-2633275I12700J0D01*
G03X-1575632Y-2633275I-12700J0D01*
G54D14*
G01X3939616Y-253390D02*
G03X3959631Y-253390I10008J0D01*
G03X3939616Y-253390I-10008J0D01*
G54D15*
G01X3663340Y-266268D02*
G03X3693363Y-266268I15011J0D01*
G03X3663340Y-266268I-15011J0D01*
G54D14*
G01X2809469Y253390D02*
G03X2829484Y253390I10008J0D01*
G03X2809469Y253390I-10008J0D01*
G54D15*
G01X3075737Y266268D02*
G03X3105760Y266268I15011J0D01*
G03X3075737Y266268I-15011J0D01*
G54D14*
G01X-2829576Y-252883D02*
G03X-2809561Y-252883I10008J0D01*
G03X-2829576Y-252883I-10008J0D01*
G54D15*
G01X-3105852Y-265760D02*
G03X-3075829Y-265760I15011J0D01*
G03X-3105852Y-265760I-15011J0D01*
G54D11*
G01X213601Y1132840D02*
G03X239001Y1132840I12700J0D01*
G03X213601Y1132840I-12700J0D01*
G54D17*
G01X1799102Y-869699D02*
G03X1824096Y-869699I12497J0D01*
G03X1799102Y-869699I-12497J0D01*
G04 Circle End*

M02*

