G04 Layer: BottomPasteMaskLayer*
G04 EasyEDA Pro v2.2.47.7, 2026-04-29 20:25:51*
G04 Gerber Generator version 0.3*
G04 Scale: 100 percent, Rotated: No, Reflected: No*
G04 Dimensions in millimeters*
G04 Leading zeros omitted, absolute positions, 4 integers and 5 decimals*
G04 Generated by one-click*
G04 Object Configs: Pad,Via,Track,Text,Image,Dimension,BoardOutline,BoardCutout,CopperFilled,SolidRegion,FPCStiffener,Line,PlaneZone,ComponentProperty,ComponentSilkscreen,TearDrop*
G04 Layer Configs: 1,15,16,2,3,4,5,6,7,8,9,10,11,13,14,56*
G04 Copper Areas: 0*
%FSLAX45Y45*%
%MOMM*%
%ADD10R,0.8X0.9*%
%ADD11R,0.9X0.8*%
%ADD12R,0.54X0.5*%
%ADD13R,5.99999X6.50001*%
%ADD14R,1.2X2.49999*%
%ADD15O,1.68399X0.44801*%
%ADD16O,0.4523X1.68399*%
%ADD17O,0.44801X1.68399*%
%ADD18R,1.2X0.55001*%
%ADD19R,1.52999X1.29601*%
%ADD20R,2.47X0.98001*%
%ADD21R,2.47X3.59999*%
%ADD22R,1.0X2.69999*%
%ADD23R,0.3X1.25001*%
%ADD24R,2.0X2.49999*%
%ADD25R,0.6X1.08001*%
%ADD26O,0.7X1.773*%
%ADD27R,0.5X0.54*%
G75*


G04 PolygonModel Start*
G36*
G01X-2640573Y1973702D02*
G01X-2640573Y1893702D01*
G01X-2645574Y1888701D01*
G01X-2668370Y1888701D01*
G01X-2668370Y1925701D01*
G01X-2701370Y1925701D01*
G01X-2701370Y1888701D01*
G01X-2725574Y1888701D01*
G01X-2730572Y1893702D01*
G01X-2730572Y1973702D01*
G01X-2725574Y1978701D01*
G01X-2645574Y1978701D01*
G01X-2640573Y1973702D01*
G37*
G36*
G01X-2730570Y1734698D02*
G01X-2730570Y1814698D01*
G01X-2725569Y1819699D01*
G01X-2702772Y1819699D01*
G01X-2702772Y1782699D01*
G01X-2669772Y1782699D01*
G01X-2669772Y1819699D01*
G01X-2645569Y1819699D01*
G01X-2640570Y1814698D01*
G01X-2640570Y1734698D01*
G01X-2645569Y1729699D01*
G01X-2725569Y1729699D01*
G01X-2730570Y1734698D01*
G37*
G36*
G01X-2792973Y1973702D02*
G01X-2792973Y1893702D01*
G01X-2797974Y1888701D01*
G01X-2820770Y1888701D01*
G01X-2820770Y1925701D01*
G01X-2853770Y1925701D01*
G01X-2853770Y1888701D01*
G01X-2877974Y1888701D01*
G01X-2882972Y1893702D01*
G01X-2882972Y1973702D01*
G01X-2877974Y1978701D01*
G01X-2797974Y1978701D01*
G01X-2792973Y1973702D01*
G37*
G36*
G01X-2882970Y1734698D02*
G01X-2882970Y1814698D01*
G01X-2877969Y1819699D01*
G01X-2855172Y1819699D01*
G01X-2855172Y1782699D01*
G01X-2822172Y1782699D01*
G01X-2822172Y1819699D01*
G01X-2797969Y1819699D01*
G01X-2792970Y1814698D01*
G01X-2792970Y1734698D01*
G01X-2797969Y1729699D01*
G01X-2877969Y1729699D01*
G01X-2882970Y1734698D01*
G37*
G36*
G01X-2640573Y2265802D02*
G01X-2640573Y2185802D01*
G01X-2645574Y2180801D01*
G01X-2668370Y2180801D01*
G01X-2668370Y2217801D01*
G01X-2701370Y2217801D01*
G01X-2701370Y2180801D01*
G01X-2725574Y2180801D01*
G01X-2730572Y2185802D01*
G01X-2730572Y2265802D01*
G01X-2725574Y2270801D01*
G01X-2645574Y2270801D01*
G01X-2640573Y2265802D01*
G37*
G36*
G01X-2730570Y2026798D02*
G01X-2730570Y2106798D01*
G01X-2725569Y2111799D01*
G01X-2702772Y2111799D01*
G01X-2702772Y2074799D01*
G01X-2669772Y2074799D01*
G01X-2669772Y2111799D01*
G01X-2645569Y2111799D01*
G01X-2640570Y2106798D01*
G01X-2640570Y2026798D01*
G01X-2645569Y2021799D01*
G01X-2725569Y2021799D01*
G01X-2730570Y2026798D01*
G37*
G36*
G01X-3415273Y2265802D02*
G01X-3415273Y2185802D01*
G01X-3420274Y2180801D01*
G01X-3443070Y2180801D01*
G01X-3443070Y2217801D01*
G01X-3476070Y2217801D01*
G01X-3476070Y2180801D01*
G01X-3500274Y2180801D01*
G01X-3505272Y2185802D01*
G01X-3505272Y2265802D01*
G01X-3500274Y2270801D01*
G01X-3420274Y2270801D01*
G01X-3415273Y2265802D01*
G37*
G36*
G01X-3505270Y2026798D02*
G01X-3505270Y2106798D01*
G01X-3500269Y2111799D01*
G01X-3477472Y2111799D01*
G01X-3477472Y2074799D01*
G01X-3444472Y2074799D01*
G01X-3444472Y2111799D01*
G01X-3420269Y2111799D01*
G01X-3415270Y2106798D01*
G01X-3415270Y2026798D01*
G01X-3420269Y2021799D01*
G01X-3500269Y2021799D01*
G01X-3505270Y2026798D01*
G37*
G36*
G01X-4189973Y2265802D02*
G01X-4189973Y2185802D01*
G01X-4194974Y2180801D01*
G01X-4217770Y2180801D01*
G01X-4217770Y2217801D01*
G01X-4250770Y2217801D01*
G01X-4250770Y2180801D01*
G01X-4274974Y2180801D01*
G01X-4279972Y2185802D01*
G01X-4279972Y2265802D01*
G01X-4274974Y2270801D01*
G01X-4194974Y2270801D01*
G01X-4189973Y2265802D01*
G37*
G36*
G01X-4279970Y2026798D02*
G01X-4279970Y2106798D01*
G01X-4274969Y2111799D01*
G01X-4252172Y2111799D01*
G01X-4252172Y2074799D01*
G01X-4219172Y2074799D01*
G01X-4219172Y2111799D01*
G01X-4194969Y2111799D01*
G01X-4189970Y2106798D01*
G01X-4189970Y2026798D01*
G01X-4194969Y2021799D01*
G01X-4274969Y2021799D01*
G01X-4279970Y2026798D01*
G37*
G36*
G01X-3415273Y1973702D02*
G01X-3415273Y1893702D01*
G01X-3420274Y1888701D01*
G01X-3443070Y1888701D01*
G01X-3443070Y1925701D01*
G01X-3476070Y1925701D01*
G01X-3476070Y1888701D01*
G01X-3500274Y1888701D01*
G01X-3505272Y1893702D01*
G01X-3505272Y1973702D01*
G01X-3500274Y1978701D01*
G01X-3420274Y1978701D01*
G01X-3415273Y1973702D01*
G37*
G36*
G01X-3505270Y1734698D02*
G01X-3505270Y1814698D01*
G01X-3500269Y1819699D01*
G01X-3477472Y1819699D01*
G01X-3477472Y1782699D01*
G01X-3444472Y1782699D01*
G01X-3444472Y1819699D01*
G01X-3420269Y1819699D01*
G01X-3415270Y1814698D01*
G01X-3415270Y1734698D01*
G01X-3420269Y1729699D01*
G01X-3500269Y1729699D01*
G01X-3505270Y1734698D01*
G37*
G36*
G01X260899Y-1252098D02*
G01X260899Y-1332098D01*
G01X255897Y-1337099D01*
G01X233101Y-1337099D01*
G01X233101Y-1300099D01*
G01X200101Y-1300099D01*
G01X200101Y-1337099D01*
G01X175898Y-1337099D01*
G01X170899Y-1332098D01*
G01X170899Y-1252098D01*
G01X175898Y-1247099D01*
G01X255897Y-1247099D01*
G01X260899Y-1252098D01*
G37*
G36*
G01X170901Y-1491102D02*
G01X170901Y-1411102D01*
G01X175903Y-1406101D01*
G01X198699Y-1406101D01*
G01X198699Y-1443101D01*
G01X231699Y-1443101D01*
G01X231699Y-1406101D01*
G01X255902Y-1406101D01*
G01X260901Y-1411102D01*
G01X260901Y-1491102D01*
G01X255902Y-1496101D01*
G01X175903Y-1496101D01*
G01X170901Y-1491102D01*
G37*
G36*
G01X172598Y-1034501D02*
G01X252598Y-1034501D01*
G01X257599Y-1039503D01*
G01X257599Y-1062299D01*
G01X220599Y-1062299D01*
G01X220599Y-1095299D01*
G01X257599Y-1095299D01*
G01X257599Y-1119502D01*
G01X252598Y-1124501D01*
G01X172598Y-1124501D01*
G01X167599Y-1119502D01*
G01X167599Y-1039503D01*
G01X172598Y-1034501D01*
G37*
G36*
G01X411602Y-1124499D02*
G01X331602Y-1124499D01*
G01X326601Y-1119497D01*
G01X326601Y-1096701D01*
G01X363601Y-1096701D01*
G01X363601Y-1063701D01*
G01X326601Y-1063701D01*
G01X326601Y-1039498D01*
G01X331602Y-1034499D01*
G01X411602Y-1034499D01*
G01X416601Y-1039498D01*
G01X416601Y-1119497D01*
G01X411602Y-1124499D01*
G37*
G36*
G01X2883927Y2049902D02*
G01X2883927Y1969902D01*
G01X2878926Y1964901D01*
G01X2856130Y1964901D01*
G01X2856130Y2001901D01*
G01X2823130Y2001901D01*
G01X2823130Y1964901D01*
G01X2798926Y1964901D01*
G01X2793928Y1969902D01*
G01X2793928Y2049902D01*
G01X2798926Y2054901D01*
G01X2878926Y2054901D01*
G01X2883927Y2049902D01*
G37*
G36*
G01X2793930Y1810898D02*
G01X2793930Y1890898D01*
G01X2798931Y1895899D01*
G01X2821728Y1895899D01*
G01X2821728Y1858899D01*
G01X2854728Y1858899D01*
G01X2854728Y1895899D01*
G01X2878931Y1895899D01*
G01X2883930Y1890898D01*
G01X2883930Y1810898D01*
G01X2878931Y1805899D01*
G01X2798931Y1805899D01*
G01X2793930Y1810898D01*
G37*
G36*
G01X-4189973Y1973702D02*
G01X-4189973Y1893702D01*
G01X-4194974Y1888701D01*
G01X-4217770Y1888701D01*
G01X-4217770Y1925701D01*
G01X-4250770Y1925701D01*
G01X-4250770Y1888701D01*
G01X-4274974Y1888701D01*
G01X-4279972Y1893702D01*
G01X-4279972Y1973702D01*
G01X-4274974Y1978701D01*
G01X-4194974Y1978701D01*
G01X-4189973Y1973702D01*
G37*
G36*
G01X-4279970Y1734698D02*
G01X-4279970Y1814698D01*
G01X-4274969Y1819699D01*
G01X-4252172Y1819699D01*
G01X-4252172Y1782699D01*
G01X-4219172Y1782699D01*
G01X-4219172Y1819699D01*
G01X-4194969Y1819699D01*
G01X-4189970Y1814698D01*
G01X-4189970Y1734698D01*
G01X-4194969Y1729699D01*
G01X-4274969Y1729699D01*
G01X-4279970Y1734698D01*
G37*
G36*
G01X-3567673Y1973702D02*
G01X-3567673Y1893702D01*
G01X-3572674Y1888701D01*
G01X-3595470Y1888701D01*
G01X-3595470Y1925701D01*
G01X-3628470Y1925701D01*
G01X-3628470Y1888701D01*
G01X-3652674Y1888701D01*
G01X-3657672Y1893702D01*
G01X-3657672Y1973702D01*
G01X-3652674Y1978701D01*
G01X-3572674Y1978701D01*
G01X-3567673Y1973702D01*
G37*
G36*
G01X-3657670Y1734698D02*
G01X-3657670Y1814698D01*
G01X-3652669Y1819699D01*
G01X-3629872Y1819699D01*
G01X-3629872Y1782699D01*
G01X-3596872Y1782699D01*
G01X-3596872Y1819699D01*
G01X-3572669Y1819699D01*
G01X-3567670Y1814698D01*
G01X-3567670Y1734698D01*
G01X-3572669Y1729699D01*
G01X-3652669Y1729699D01*
G01X-3657670Y1734698D01*
G37*
G36*
G01X-4342373Y1973702D02*
G01X-4342373Y1893702D01*
G01X-4347374Y1888701D01*
G01X-4370170Y1888701D01*
G01X-4370170Y1925701D01*
G01X-4403170Y1925701D01*
G01X-4403170Y1888701D01*
G01X-4427374Y1888701D01*
G01X-4432372Y1893702D01*
G01X-4432372Y1973702D01*
G01X-4427374Y1978701D01*
G01X-4347374Y1978701D01*
G01X-4342373Y1973702D01*
G37*
G36*
G01X-4432370Y1734698D02*
G01X-4432370Y1814698D01*
G01X-4427369Y1819699D01*
G01X-4404572Y1819699D01*
G01X-4404572Y1782699D01*
G01X-4371572Y1782699D01*
G01X-4371572Y1819699D01*
G01X-4347369Y1819699D01*
G01X-4342370Y1814698D01*
G01X-4342370Y1734698D01*
G01X-4347369Y1729699D01*
G01X-4427369Y1729699D01*
G01X-4432370Y1734698D01*
G37*
G36*
G01X-2335773Y2049902D02*
G01X-2335773Y1969902D01*
G01X-2340774Y1964901D01*
G01X-2363570Y1964901D01*
G01X-2363570Y2001901D01*
G01X-2396570Y2001901D01*
G01X-2396570Y1964901D01*
G01X-2420774Y1964901D01*
G01X-2425772Y1969902D01*
G01X-2425772Y2049902D01*
G01X-2420774Y2054901D01*
G01X-2340774Y2054901D01*
G01X-2335773Y2049902D01*
G37*
G36*
G01X-2425770Y1810898D02*
G01X-2425770Y1890898D01*
G01X-2420769Y1895899D01*
G01X-2397972Y1895899D01*
G01X-2397972Y1858899D01*
G01X-2364972Y1858899D01*
G01X-2364972Y1895899D01*
G01X-2340769Y1895899D01*
G01X-2335770Y1890898D01*
G01X-2335770Y1810898D01*
G01X-2340769Y1805899D01*
G01X-2420769Y1805899D01*
G01X-2425770Y1810898D01*
G37*
G36*
G01X2579127Y2265802D02*
G01X2579127Y2185802D01*
G01X2574126Y2180801D01*
G01X2551330Y2180801D01*
G01X2551330Y2217801D01*
G01X2518330Y2217801D01*
G01X2518330Y2180801D01*
G01X2494126Y2180801D01*
G01X2489128Y2185802D01*
G01X2489128Y2265802D01*
G01X2494126Y2270801D01*
G01X2574126Y2270801D01*
G01X2579127Y2265802D01*
G37*
G36*
G01X2489130Y2026798D02*
G01X2489130Y2106798D01*
G01X2494131Y2111799D01*
G01X2516928Y2111799D01*
G01X2516928Y2074799D01*
G01X2549928Y2074799D01*
G01X2549928Y2111799D01*
G01X2574131Y2111799D01*
G01X2579130Y2106798D01*
G01X2579130Y2026798D01*
G01X2574131Y2021799D01*
G01X2494131Y2021799D01*
G01X2489130Y2026798D01*
G37*
G36*
G01X2426727Y1973702D02*
G01X2426727Y1893702D01*
G01X2421726Y1888701D01*
G01X2398930Y1888701D01*
G01X2398930Y1925701D01*
G01X2365930Y1925701D01*
G01X2365930Y1888701D01*
G01X2341726Y1888701D01*
G01X2336728Y1893702D01*
G01X2336728Y1973702D01*
G01X2341726Y1978701D01*
G01X2421726Y1978701D01*
G01X2426727Y1973702D01*
G37*
G36*
G01X2336730Y1734698D02*
G01X2336730Y1814698D01*
G01X2341731Y1819699D01*
G01X2364528Y1819699D01*
G01X2364528Y1782699D01*
G01X2397528Y1782699D01*
G01X2397528Y1819699D01*
G01X2421731Y1819699D01*
G01X2426730Y1814698D01*
G01X2426730Y1734698D01*
G01X2421731Y1729699D01*
G01X2341731Y1729699D01*
G01X2336730Y1734698D01*
G37*
G36*
G01X2579127Y1973702D02*
G01X2579127Y1893702D01*
G01X2574126Y1888701D01*
G01X2551330Y1888701D01*
G01X2551330Y1925701D01*
G01X2518330Y1925701D01*
G01X2518330Y1888701D01*
G01X2494126Y1888701D01*
G01X2489128Y1893702D01*
G01X2489128Y1973702D01*
G01X2494126Y1978701D01*
G01X2574126Y1978701D01*
G01X2579127Y1973702D01*
G37*
G36*
G01X2489130Y1734698D02*
G01X2489130Y1814698D01*
G01X2494131Y1819699D01*
G01X2516928Y1819699D01*
G01X2516928Y1782699D01*
G01X2549928Y1782699D01*
G01X2549928Y1819699D01*
G01X2574131Y1819699D01*
G01X2579130Y1814698D01*
G01X2579130Y1734698D01*
G01X2574131Y1729699D01*
G01X2494131Y1729699D01*
G01X2489130Y1734698D01*
G37*
G36*
G01X3353827Y2265802D02*
G01X3353827Y2185802D01*
G01X3348826Y2180801D01*
G01X3326030Y2180801D01*
G01X3326030Y2217801D01*
G01X3293030Y2217801D01*
G01X3293030Y2180801D01*
G01X3268826Y2180801D01*
G01X3263828Y2185802D01*
G01X3263828Y2265802D01*
G01X3268826Y2270801D01*
G01X3348826Y2270801D01*
G01X3353827Y2265802D01*
G37*
G36*
G01X3263830Y2026798D02*
G01X3263830Y2106798D01*
G01X3268831Y2111799D01*
G01X3291628Y2111799D01*
G01X3291628Y2074799D01*
G01X3324628Y2074799D01*
G01X3324628Y2111799D01*
G01X3348831Y2111799D01*
G01X3353830Y2106798D01*
G01X3353830Y2026798D01*
G01X3348831Y2021799D01*
G01X3268831Y2021799D01*
G01X3263830Y2026798D01*
G37*
G36*
G01X3201427Y1973702D02*
G01X3201427Y1893702D01*
G01X3196426Y1888701D01*
G01X3173630Y1888701D01*
G01X3173630Y1925701D01*
G01X3140630Y1925701D01*
G01X3140630Y1888701D01*
G01X3116426Y1888701D01*
G01X3111428Y1893702D01*
G01X3111428Y1973702D01*
G01X3116426Y1978701D01*
G01X3196426Y1978701D01*
G01X3201427Y1973702D01*
G37*
G36*
G01X3111430Y1734698D02*
G01X3111430Y1814698D01*
G01X3116431Y1819699D01*
G01X3139228Y1819699D01*
G01X3139228Y1782699D01*
G01X3172228Y1782699D01*
G01X3172228Y1819699D01*
G01X3196431Y1819699D01*
G01X3201430Y1814698D01*
G01X3201430Y1734698D01*
G01X3196431Y1729699D01*
G01X3116431Y1729699D01*
G01X3111430Y1734698D01*
G37*
G36*
G01X3353827Y1973702D02*
G01X3353827Y1893702D01*
G01X3348826Y1888701D01*
G01X3326030Y1888701D01*
G01X3326030Y1925701D01*
G01X3293030Y1925701D01*
G01X3293030Y1888701D01*
G01X3268826Y1888701D01*
G01X3263828Y1893702D01*
G01X3263828Y1973702D01*
G01X3268826Y1978701D01*
G01X3348826Y1978701D01*
G01X3353827Y1973702D01*
G37*
G36*
G01X3263830Y1734698D02*
G01X3263830Y1814698D01*
G01X3268831Y1819699D01*
G01X3291628Y1819699D01*
G01X3291628Y1782699D01*
G01X3324628Y1782699D01*
G01X3324628Y1819699D01*
G01X3348831Y1819699D01*
G01X3353830Y1814698D01*
G01X3353830Y1734698D01*
G01X3348831Y1729699D01*
G01X3268831Y1729699D01*
G01X3263830Y1734698D01*
G37*
G36*
G01X4128527Y2265802D02*
G01X4128527Y2185802D01*
G01X4123526Y2180801D01*
G01X4100730Y2180801D01*
G01X4100730Y2217801D01*
G01X4067730Y2217801D01*
G01X4067730Y2180801D01*
G01X4043526Y2180801D01*
G01X4038528Y2185802D01*
G01X4038528Y2265802D01*
G01X4043526Y2270801D01*
G01X4123526Y2270801D01*
G01X4128527Y2265802D01*
G37*
G36*
G01X4038530Y2026798D02*
G01X4038530Y2106798D01*
G01X4043531Y2111799D01*
G01X4066328Y2111799D01*
G01X4066328Y2074799D01*
G01X4099328Y2074799D01*
G01X4099328Y2111799D01*
G01X4123531Y2111799D01*
G01X4128530Y2106798D01*
G01X4128530Y2026798D01*
G01X4123531Y2021799D01*
G01X4043531Y2021799D01*
G01X4038530Y2026798D01*
G37*
G36*
G01X3976127Y1973702D02*
G01X3976127Y1893702D01*
G01X3971126Y1888701D01*
G01X3948330Y1888701D01*
G01X3948330Y1925701D01*
G01X3915330Y1925701D01*
G01X3915330Y1888701D01*
G01X3891126Y1888701D01*
G01X3886128Y1893702D01*
G01X3886128Y1973702D01*
G01X3891126Y1978701D01*
G01X3971126Y1978701D01*
G01X3976127Y1973702D01*
G37*
G36*
G01X3886130Y1734698D02*
G01X3886130Y1814698D01*
G01X3891131Y1819699D01*
G01X3913928Y1819699D01*
G01X3913928Y1782699D01*
G01X3946928Y1782699D01*
G01X3946928Y1819699D01*
G01X3971131Y1819699D01*
G01X3976130Y1814698D01*
G01X3976130Y1734698D01*
G01X3971131Y1729699D01*
G01X3891131Y1729699D01*
G01X3886130Y1734698D01*
G37*
G36*
G01X4128527Y1973702D02*
G01X4128527Y1893702D01*
G01X4123526Y1888701D01*
G01X4100730Y1888701D01*
G01X4100730Y1925701D01*
G01X4067730Y1925701D01*
G01X4067730Y1888701D01*
G01X4043526Y1888701D01*
G01X4038528Y1893702D01*
G01X4038528Y1973702D01*
G01X4043526Y1978701D01*
G01X4123526Y1978701D01*
G01X4128527Y1973702D01*
G37*
G36*
G01X4038530Y1734698D02*
G01X4038530Y1814698D01*
G01X4043531Y1819699D01*
G01X4066328Y1819699D01*
G01X4066328Y1782699D01*
G01X4099328Y1782699D01*
G01X4099328Y1819699D01*
G01X4123531Y1819699D01*
G01X4128530Y1814698D01*
G01X4128530Y1734698D01*
G01X4123531Y1729699D01*
G01X4043531Y1729699D01*
G01X4038530Y1734698D01*
G37*
G36*
G01X-3110473Y2049902D02*
G01X-3110473Y1969902D01*
G01X-3115474Y1964901D01*
G01X-3138270Y1964901D01*
G01X-3138270Y2001901D01*
G01X-3171270Y2001901D01*
G01X-3171270Y1964901D01*
G01X-3195474Y1964901D01*
G01X-3200472Y1969902D01*
G01X-3200472Y2049902D01*
G01X-3195474Y2054901D01*
G01X-3115474Y2054901D01*
G01X-3110473Y2049902D01*
G37*
G36*
G01X-3200470Y1810898D02*
G01X-3200470Y1890898D01*
G01X-3195469Y1895899D01*
G01X-3172672Y1895899D01*
G01X-3172672Y1858899D01*
G01X-3139672Y1858899D01*
G01X-3139672Y1895899D01*
G01X-3115469Y1895899D01*
G01X-3110470Y1890898D01*
G01X-3110470Y1810898D01*
G01X-3115469Y1805899D01*
G01X-3195469Y1805899D01*
G01X-3200470Y1810898D01*
G37*
G36*
G01X-3885173Y2049902D02*
G01X-3885173Y1969902D01*
G01X-3890174Y1964901D01*
G01X-3912970Y1964901D01*
G01X-3912970Y2001901D01*
G01X-3945970Y2001901D01*
G01X-3945970Y1964901D01*
G01X-3970174Y1964901D01*
G01X-3975172Y1969902D01*
G01X-3975172Y2049902D01*
G01X-3970174Y2054901D01*
G01X-3890174Y2054901D01*
G01X-3885173Y2049902D01*
G37*
G36*
G01X-3975170Y1810898D02*
G01X-3975170Y1890898D01*
G01X-3970169Y1895899D01*
G01X-3947372Y1895899D01*
G01X-3947372Y1858899D01*
G01X-3914372Y1858899D01*
G01X-3914372Y1895899D01*
G01X-3890169Y1895899D01*
G01X-3885170Y1890898D01*
G01X-3885170Y1810898D01*
G01X-3890169Y1805899D01*
G01X-3970169Y1805899D01*
G01X-3975170Y1810898D01*
G37*
G36*
G01X3658627Y2049902D02*
G01X3658627Y1969902D01*
G01X3653626Y1964901D01*
G01X3630830Y1964901D01*
G01X3630830Y2001901D01*
G01X3597830Y2001901D01*
G01X3597830Y1964901D01*
G01X3573626Y1964901D01*
G01X3568628Y1969902D01*
G01X3568628Y2049902D01*
G01X3573626Y2054901D01*
G01X3653626Y2054901D01*
G01X3658627Y2049902D01*
G37*
G36*
G01X3568630Y1810898D02*
G01X3568630Y1890898D01*
G01X3573631Y1895899D01*
G01X3596428Y1895899D01*
G01X3596428Y1858899D01*
G01X3629428Y1858899D01*
G01X3629428Y1895899D01*
G01X3653631Y1895899D01*
G01X3658630Y1890898D01*
G01X3658630Y1810898D01*
G01X3653631Y1805899D01*
G01X3573631Y1805899D01*
G01X3568630Y1810898D01*
G37*
G36*
G01X4433327Y2049902D02*
G01X4433327Y1969902D01*
G01X4428326Y1964901D01*
G01X4405530Y1964901D01*
G01X4405530Y2001901D01*
G01X4372530Y2001901D01*
G01X4372530Y1964901D01*
G01X4348326Y1964901D01*
G01X4343328Y1969902D01*
G01X4343328Y2049902D01*
G01X4348326Y2054901D01*
G01X4428326Y2054901D01*
G01X4433327Y2049902D01*
G37*
G36*
G01X4343330Y1810898D02*
G01X4343330Y1890898D01*
G01X4348331Y1895899D01*
G01X4371128Y1895899D01*
G01X4371128Y1858899D01*
G01X4404128Y1858899D01*
G01X4404128Y1895899D01*
G01X4428331Y1895899D01*
G01X4433330Y1890898D01*
G01X4433330Y1810898D01*
G01X4428331Y1805899D01*
G01X4348331Y1805899D01*
G01X4343330Y1810898D01*
G37*
G36*
G01X2640573Y-1973702D02*
G01X2640573Y-1893702D01*
G01X2645574Y-1888701D01*
G01X2668370Y-1888701D01*
G01X2668370Y-1925701D01*
G01X2701370Y-1925701D01*
G01X2701370Y-1888701D01*
G01X2725574Y-1888701D01*
G01X2730572Y-1893702D01*
G01X2730572Y-1973702D01*
G01X2725574Y-1978701D01*
G01X2645574Y-1978701D01*
G01X2640573Y-1973702D01*
G37*
G36*
G01X2730570Y-1734698D02*
G01X2730570Y-1814698D01*
G01X2725569Y-1819699D01*
G01X2702772Y-1819699D01*
G01X2702772Y-1782699D01*
G01X2669772Y-1782699D01*
G01X2669772Y-1819699D01*
G01X2645569Y-1819699D01*
G01X2640570Y-1814698D01*
G01X2640570Y-1734698D01*
G01X2645569Y-1729699D01*
G01X2725569Y-1729699D01*
G01X2730570Y-1734698D01*
G37*
G36*
G01X2792973Y-1973702D02*
G01X2792973Y-1893702D01*
G01X2797974Y-1888701D01*
G01X2820770Y-1888701D01*
G01X2820770Y-1925701D01*
G01X2853770Y-1925701D01*
G01X2853770Y-1888701D01*
G01X2877974Y-1888701D01*
G01X2882972Y-1893702D01*
G01X2882972Y-1973702D01*
G01X2877974Y-1978701D01*
G01X2797974Y-1978701D01*
G01X2792973Y-1973702D01*
G37*
G36*
G01X2882970Y-1734698D02*
G01X2882970Y-1814698D01*
G01X2877969Y-1819699D01*
G01X2855172Y-1819699D01*
G01X2855172Y-1782699D01*
G01X2822172Y-1782699D01*
G01X2822172Y-1819699D01*
G01X2797969Y-1819699D01*
G01X2792970Y-1814698D01*
G01X2792970Y-1734698D01*
G01X2797969Y-1729699D01*
G01X2877969Y-1729699D01*
G01X2882970Y-1734698D01*
G37*
G36*
G01X2640573Y-2265802D02*
G01X2640573Y-2185802D01*
G01X2645574Y-2180801D01*
G01X2668370Y-2180801D01*
G01X2668370Y-2217801D01*
G01X2701370Y-2217801D01*
G01X2701370Y-2180801D01*
G01X2725574Y-2180801D01*
G01X2730572Y-2185802D01*
G01X2730572Y-2265802D01*
G01X2725574Y-2270801D01*
G01X2645574Y-2270801D01*
G01X2640573Y-2265802D01*
G37*
G36*
G01X2730570Y-2026798D02*
G01X2730570Y-2106798D01*
G01X2725569Y-2111799D01*
G01X2702772Y-2111799D01*
G01X2702772Y-2074799D01*
G01X2669772Y-2074799D01*
G01X2669772Y-2111799D01*
G01X2645569Y-2111799D01*
G01X2640570Y-2106798D01*
G01X2640570Y-2026798D01*
G01X2645569Y-2021799D01*
G01X2725569Y-2021799D01*
G01X2730570Y-2026798D01*
G37*
G36*
G01X3415273Y-2265802D02*
G01X3415273Y-2185802D01*
G01X3420274Y-2180801D01*
G01X3443070Y-2180801D01*
G01X3443070Y-2217801D01*
G01X3476070Y-2217801D01*
G01X3476070Y-2180801D01*
G01X3500274Y-2180801D01*
G01X3505272Y-2185802D01*
G01X3505272Y-2265802D01*
G01X3500274Y-2270801D01*
G01X3420274Y-2270801D01*
G01X3415273Y-2265802D01*
G37*
G36*
G01X3505270Y-2026798D02*
G01X3505270Y-2106798D01*
G01X3500269Y-2111799D01*
G01X3477472Y-2111799D01*
G01X3477472Y-2074799D01*
G01X3444472Y-2074799D01*
G01X3444472Y-2111799D01*
G01X3420269Y-2111799D01*
G01X3415270Y-2106798D01*
G01X3415270Y-2026798D01*
G01X3420269Y-2021799D01*
G01X3500269Y-2021799D01*
G01X3505270Y-2026798D01*
G37*
G36*
G01X4189973Y-2265802D02*
G01X4189973Y-2185802D01*
G01X4194974Y-2180801D01*
G01X4217770Y-2180801D01*
G01X4217770Y-2217801D01*
G01X4250770Y-2217801D01*
G01X4250770Y-2180801D01*
G01X4274974Y-2180801D01*
G01X4279972Y-2185802D01*
G01X4279972Y-2265802D01*
G01X4274974Y-2270801D01*
G01X4194974Y-2270801D01*
G01X4189973Y-2265802D01*
G37*
G36*
G01X4279970Y-2026798D02*
G01X4279970Y-2106798D01*
G01X4274969Y-2111799D01*
G01X4252172Y-2111799D01*
G01X4252172Y-2074799D01*
G01X4219172Y-2074799D01*
G01X4219172Y-2111799D01*
G01X4194969Y-2111799D01*
G01X4189970Y-2106798D01*
G01X4189970Y-2026798D01*
G01X4194969Y-2021799D01*
G01X4274969Y-2021799D01*
G01X4279970Y-2026798D01*
G37*
G36*
G01X3415273Y-1973702D02*
G01X3415273Y-1893702D01*
G01X3420274Y-1888701D01*
G01X3443070Y-1888701D01*
G01X3443070Y-1925701D01*
G01X3476070Y-1925701D01*
G01X3476070Y-1888701D01*
G01X3500274Y-1888701D01*
G01X3505272Y-1893702D01*
G01X3505272Y-1973702D01*
G01X3500274Y-1978701D01*
G01X3420274Y-1978701D01*
G01X3415273Y-1973702D01*
G37*
G36*
G01X3505270Y-1734698D02*
G01X3505270Y-1814698D01*
G01X3500269Y-1819699D01*
G01X3477472Y-1819699D01*
G01X3477472Y-1782699D01*
G01X3444472Y-1782699D01*
G01X3444472Y-1819699D01*
G01X3420269Y-1819699D01*
G01X3415270Y-1814698D01*
G01X3415270Y-1734698D01*
G01X3420269Y-1729699D01*
G01X3500269Y-1729699D01*
G01X3505270Y-1734698D01*
G37*
G36*
G01X4189973Y-1973702D02*
G01X4189973Y-1893702D01*
G01X4194974Y-1888701D01*
G01X4217770Y-1888701D01*
G01X4217770Y-1925701D01*
G01X4250770Y-1925701D01*
G01X4250770Y-1888701D01*
G01X4274974Y-1888701D01*
G01X4279972Y-1893702D01*
G01X4279972Y-1973702D01*
G01X4274974Y-1978701D01*
G01X4194974Y-1978701D01*
G01X4189973Y-1973702D01*
G37*
G36*
G01X4279970Y-1734698D02*
G01X4279970Y-1814698D01*
G01X4274969Y-1819699D01*
G01X4252172Y-1819699D01*
G01X4252172Y-1782699D01*
G01X4219172Y-1782699D01*
G01X4219172Y-1819699D01*
G01X4194969Y-1819699D01*
G01X4189970Y-1814698D01*
G01X4189970Y-1734698D01*
G01X4194969Y-1729699D01*
G01X4274969Y-1729699D01*
G01X4279970Y-1734698D01*
G37*
G36*
G01X3567673Y-1973702D02*
G01X3567673Y-1893702D01*
G01X3572674Y-1888701D01*
G01X3595470Y-1888701D01*
G01X3595470Y-1925701D01*
G01X3628470Y-1925701D01*
G01X3628470Y-1888701D01*
G01X3652674Y-1888701D01*
G01X3657672Y-1893702D01*
G01X3657672Y-1973702D01*
G01X3652674Y-1978701D01*
G01X3572674Y-1978701D01*
G01X3567673Y-1973702D01*
G37*
G36*
G01X3657670Y-1734698D02*
G01X3657670Y-1814698D01*
G01X3652669Y-1819699D01*
G01X3629872Y-1819699D01*
G01X3629872Y-1782699D01*
G01X3596872Y-1782699D01*
G01X3596872Y-1819699D01*
G01X3572669Y-1819699D01*
G01X3567670Y-1814698D01*
G01X3567670Y-1734698D01*
G01X3572669Y-1729699D01*
G01X3652669Y-1729699D01*
G01X3657670Y-1734698D01*
G37*
G36*
G01X4342373Y-1973702D02*
G01X4342373Y-1893702D01*
G01X4347374Y-1888701D01*
G01X4370170Y-1888701D01*
G01X4370170Y-1925701D01*
G01X4403170Y-1925701D01*
G01X4403170Y-1888701D01*
G01X4427374Y-1888701D01*
G01X4432372Y-1893702D01*
G01X4432372Y-1973702D01*
G01X4427374Y-1978701D01*
G01X4347374Y-1978701D01*
G01X4342373Y-1973702D01*
G37*
G36*
G01X4432370Y-1734698D02*
G01X4432370Y-1814698D01*
G01X4427369Y-1819699D01*
G01X4404572Y-1819699D01*
G01X4404572Y-1782699D01*
G01X4371572Y-1782699D01*
G01X4371572Y-1819699D01*
G01X4347369Y-1819699D01*
G01X4342370Y-1814698D01*
G01X4342370Y-1734698D01*
G01X4347369Y-1729699D01*
G01X4427369Y-1729699D01*
G01X4432370Y-1734698D01*
G37*
G36*
G01X2335773Y-2049902D02*
G01X2335773Y-1969902D01*
G01X2340774Y-1964901D01*
G01X2363570Y-1964901D01*
G01X2363570Y-2001901D01*
G01X2396570Y-2001901D01*
G01X2396570Y-1964901D01*
G01X2420774Y-1964901D01*
G01X2425772Y-1969902D01*
G01X2425772Y-2049902D01*
G01X2420774Y-2054901D01*
G01X2340774Y-2054901D01*
G01X2335773Y-2049902D01*
G37*
G36*
G01X2425770Y-1810898D02*
G01X2425770Y-1890898D01*
G01X2420769Y-1895899D01*
G01X2397972Y-1895899D01*
G01X2397972Y-1858899D01*
G01X2364972Y-1858899D01*
G01X2364972Y-1895899D01*
G01X2340769Y-1895899D01*
G01X2335770Y-1890898D01*
G01X2335770Y-1810898D01*
G01X2340769Y-1805899D01*
G01X2420769Y-1805899D01*
G01X2425770Y-1810898D01*
G37*
G36*
G01X3110473Y-2049902D02*
G01X3110473Y-1969902D01*
G01X3115474Y-1964901D01*
G01X3138270Y-1964901D01*
G01X3138270Y-2001901D01*
G01X3171270Y-2001901D01*
G01X3171270Y-1964901D01*
G01X3195474Y-1964901D01*
G01X3200472Y-1969902D01*
G01X3200472Y-2049902D01*
G01X3195474Y-2054901D01*
G01X3115474Y-2054901D01*
G01X3110473Y-2049902D01*
G37*
G36*
G01X3200470Y-1810898D02*
G01X3200470Y-1890898D01*
G01X3195469Y-1895899D01*
G01X3172672Y-1895899D01*
G01X3172672Y-1858899D01*
G01X3139672Y-1858899D01*
G01X3139672Y-1895899D01*
G01X3115469Y-1895899D01*
G01X3110470Y-1890898D01*
G01X3110470Y-1810898D01*
G01X3115469Y-1805899D01*
G01X3195469Y-1805899D01*
G01X3200470Y-1810898D01*
G37*
G36*
G01X3885173Y-2049902D02*
G01X3885173Y-1969902D01*
G01X3890174Y-1964901D01*
G01X3912970Y-1964901D01*
G01X3912970Y-2001901D01*
G01X3945970Y-2001901D01*
G01X3945970Y-1964901D01*
G01X3970174Y-1964901D01*
G01X3975172Y-1969902D01*
G01X3975172Y-2049902D01*
G01X3970174Y-2054901D01*
G01X3890174Y-2054901D01*
G01X3885173Y-2049902D01*
G37*
G36*
G01X3975170Y-1810898D02*
G01X3975170Y-1890898D01*
G01X3970169Y-1895899D01*
G01X3947372Y-1895899D01*
G01X3947372Y-1858899D01*
G01X3914372Y-1858899D01*
G01X3914372Y-1895899D01*
G01X3890169Y-1895899D01*
G01X3885170Y-1890898D01*
G01X3885170Y-1810898D01*
G01X3890169Y-1805899D01*
G01X3970169Y-1805899D01*
G01X3975170Y-1810898D01*
G37*
G36*
G01X-4128619Y-1973194D02*
G01X-4128619Y-1893194D01*
G01X-4123618Y-1888193D01*
G01X-4100822Y-1888193D01*
G01X-4100822Y-1925193D01*
G01X-4067822Y-1925193D01*
G01X-4067822Y-1888193D01*
G01X-4043618Y-1888193D01*
G01X-4038620Y-1893194D01*
G01X-4038620Y-1973194D01*
G01X-4043618Y-1978193D01*
G01X-4123618Y-1978193D01*
G01X-4128619Y-1973194D01*
G37*
G36*
G01X-4038622Y-1734190D02*
G01X-4038622Y-1814190D01*
G01X-4043623Y-1819191D01*
G01X-4066420Y-1819191D01*
G01X-4066420Y-1782191D01*
G01X-4099420Y-1782191D01*
G01X-4099420Y-1819191D01*
G01X-4123623Y-1819191D01*
G01X-4128622Y-1814190D01*
G01X-4128622Y-1734190D01*
G01X-4123623Y-1729192D01*
G01X-4043623Y-1729192D01*
G01X-4038622Y-1734190D01*
G37*
G36*
G01X-3976219Y-1973194D02*
G01X-3976219Y-1893194D01*
G01X-3971218Y-1888193D01*
G01X-3948422Y-1888193D01*
G01X-3948422Y-1925193D01*
G01X-3915422Y-1925193D01*
G01X-3915422Y-1888193D01*
G01X-3891218Y-1888193D01*
G01X-3886220Y-1893194D01*
G01X-3886220Y-1973194D01*
G01X-3891218Y-1978193D01*
G01X-3971218Y-1978193D01*
G01X-3976219Y-1973194D01*
G37*
G36*
G01X-3886222Y-1734190D02*
G01X-3886222Y-1814190D01*
G01X-3891223Y-1819191D01*
G01X-3914020Y-1819191D01*
G01X-3914020Y-1782191D01*
G01X-3947020Y-1782191D01*
G01X-3947020Y-1819191D01*
G01X-3971223Y-1819191D01*
G01X-3976222Y-1814190D01*
G01X-3976222Y-1734190D01*
G01X-3971223Y-1729192D01*
G01X-3891223Y-1729192D01*
G01X-3886222Y-1734190D01*
G37*
G36*
G01X-4128619Y-2265294D02*
G01X-4128619Y-2185294D01*
G01X-4123618Y-2180293D01*
G01X-4100822Y-2180293D01*
G01X-4100822Y-2217293D01*
G01X-4067822Y-2217293D01*
G01X-4067822Y-2180293D01*
G01X-4043618Y-2180293D01*
G01X-4038620Y-2185294D01*
G01X-4038620Y-2265294D01*
G01X-4043618Y-2270293D01*
G01X-4123618Y-2270293D01*
G01X-4128619Y-2265294D01*
G37*
G36*
G01X-4038622Y-2026290D02*
G01X-4038622Y-2106290D01*
G01X-4043623Y-2111291D01*
G01X-4066420Y-2111291D01*
G01X-4066420Y-2074291D01*
G01X-4099420Y-2074291D01*
G01X-4099420Y-2111291D01*
G01X-4123623Y-2111291D01*
G01X-4128622Y-2106290D01*
G01X-4128622Y-2026290D01*
G01X-4123623Y-2021292D01*
G01X-4043623Y-2021292D01*
G01X-4038622Y-2026290D01*
G37*
G36*
G01X-3353919Y-2265294D02*
G01X-3353919Y-2185294D01*
G01X-3348918Y-2180293D01*
G01X-3326122Y-2180293D01*
G01X-3326122Y-2217293D01*
G01X-3293122Y-2217293D01*
G01X-3293122Y-2180293D01*
G01X-3268918Y-2180293D01*
G01X-3263920Y-2185294D01*
G01X-3263920Y-2265294D01*
G01X-3268918Y-2270293D01*
G01X-3348918Y-2270293D01*
G01X-3353919Y-2265294D01*
G37*
G36*
G01X-3263922Y-2026290D02*
G01X-3263922Y-2106290D01*
G01X-3268923Y-2111291D01*
G01X-3291720Y-2111291D01*
G01X-3291720Y-2074291D01*
G01X-3324720Y-2074291D01*
G01X-3324720Y-2111291D01*
G01X-3348923Y-2111291D01*
G01X-3353922Y-2106290D01*
G01X-3353922Y-2026290D01*
G01X-3348923Y-2021292D01*
G01X-3268923Y-2021292D01*
G01X-3263922Y-2026290D01*
G37*
G36*
G01X-2579219Y-2265294D02*
G01X-2579219Y-2185294D01*
G01X-2574218Y-2180293D01*
G01X-2551422Y-2180293D01*
G01X-2551422Y-2217293D01*
G01X-2518422Y-2217293D01*
G01X-2518422Y-2180293D01*
G01X-2494218Y-2180293D01*
G01X-2489220Y-2185294D01*
G01X-2489220Y-2265294D01*
G01X-2494218Y-2270293D01*
G01X-2574218Y-2270293D01*
G01X-2579219Y-2265294D01*
G37*
G36*
G01X-2489222Y-2026290D02*
G01X-2489222Y-2106290D01*
G01X-2494223Y-2111291D01*
G01X-2517020Y-2111291D01*
G01X-2517020Y-2074291D01*
G01X-2550020Y-2074291D01*
G01X-2550020Y-2111291D01*
G01X-2574223Y-2111291D01*
G01X-2579222Y-2106290D01*
G01X-2579222Y-2026290D01*
G01X-2574223Y-2021292D01*
G01X-2494223Y-2021292D01*
G01X-2489222Y-2026290D01*
G37*
G36*
G01X-3353919Y-1973194D02*
G01X-3353919Y-1893194D01*
G01X-3348918Y-1888193D01*
G01X-3326122Y-1888193D01*
G01X-3326122Y-1925193D01*
G01X-3293122Y-1925193D01*
G01X-3293122Y-1888193D01*
G01X-3268918Y-1888193D01*
G01X-3263920Y-1893194D01*
G01X-3263920Y-1973194D01*
G01X-3268918Y-1978193D01*
G01X-3348918Y-1978193D01*
G01X-3353919Y-1973194D01*
G37*
G36*
G01X-3263922Y-1734190D02*
G01X-3263922Y-1814190D01*
G01X-3268923Y-1819191D01*
G01X-3291720Y-1819191D01*
G01X-3291720Y-1782191D01*
G01X-3324720Y-1782191D01*
G01X-3324720Y-1819191D01*
G01X-3348923Y-1819191D01*
G01X-3353922Y-1814190D01*
G01X-3353922Y-1734190D01*
G01X-3348923Y-1729192D01*
G01X-3268923Y-1729192D01*
G01X-3263922Y-1734190D01*
G37*
G36*
G01X-2579219Y-1973194D02*
G01X-2579219Y-1893194D01*
G01X-2574218Y-1888193D01*
G01X-2551422Y-1888193D01*
G01X-2551422Y-1925193D01*
G01X-2518422Y-1925193D01*
G01X-2518422Y-1888193D01*
G01X-2494218Y-1888193D01*
G01X-2489220Y-1893194D01*
G01X-2489220Y-1973194D01*
G01X-2494218Y-1978193D01*
G01X-2574218Y-1978193D01*
G01X-2579219Y-1973194D01*
G37*
G36*
G01X-2489222Y-1734190D02*
G01X-2489222Y-1814190D01*
G01X-2494223Y-1819191D01*
G01X-2517020Y-1819191D01*
G01X-2517020Y-1782191D01*
G01X-2550020Y-1782191D01*
G01X-2550020Y-1819191D01*
G01X-2574223Y-1819191D01*
G01X-2579222Y-1814190D01*
G01X-2579222Y-1734190D01*
G01X-2574223Y-1729192D01*
G01X-2494223Y-1729192D01*
G01X-2489222Y-1734190D01*
G37*
G36*
G01X-3201519Y-1973194D02*
G01X-3201519Y-1893194D01*
G01X-3196518Y-1888193D01*
G01X-3173722Y-1888193D01*
G01X-3173722Y-1925193D01*
G01X-3140722Y-1925193D01*
G01X-3140722Y-1888193D01*
G01X-3116518Y-1888193D01*
G01X-3111520Y-1893194D01*
G01X-3111520Y-1973194D01*
G01X-3116518Y-1978193D01*
G01X-3196518Y-1978193D01*
G01X-3201519Y-1973194D01*
G37*
G36*
G01X-3111522Y-1734190D02*
G01X-3111522Y-1814190D01*
G01X-3116523Y-1819191D01*
G01X-3139320Y-1819191D01*
G01X-3139320Y-1782191D01*
G01X-3172320Y-1782191D01*
G01X-3172320Y-1819191D01*
G01X-3196523Y-1819191D01*
G01X-3201522Y-1814190D01*
G01X-3201522Y-1734190D01*
G01X-3196523Y-1729192D01*
G01X-3116523Y-1729192D01*
G01X-3111522Y-1734190D01*
G37*
G36*
G01X-2426819Y-1973194D02*
G01X-2426819Y-1893194D01*
G01X-2421818Y-1888193D01*
G01X-2399022Y-1888193D01*
G01X-2399022Y-1925193D01*
G01X-2366022Y-1925193D01*
G01X-2366022Y-1888193D01*
G01X-2341818Y-1888193D01*
G01X-2336820Y-1893194D01*
G01X-2336820Y-1973194D01*
G01X-2341818Y-1978193D01*
G01X-2421818Y-1978193D01*
G01X-2426819Y-1973194D01*
G37*
G36*
G01X-2336822Y-1734190D02*
G01X-2336822Y-1814190D01*
G01X-2341823Y-1819191D01*
G01X-2364620Y-1819191D01*
G01X-2364620Y-1782191D01*
G01X-2397620Y-1782191D01*
G01X-2397620Y-1819191D01*
G01X-2421823Y-1819191D01*
G01X-2426822Y-1814190D01*
G01X-2426822Y-1734190D01*
G01X-2421823Y-1729192D01*
G01X-2341823Y-1729192D01*
G01X-2336822Y-1734190D01*
G37*
G36*
G01X-4433419Y-2049394D02*
G01X-4433419Y-1969394D01*
G01X-4428418Y-1964393D01*
G01X-4405622Y-1964393D01*
G01X-4405622Y-2001393D01*
G01X-4372622Y-2001393D01*
G01X-4372622Y-1964393D01*
G01X-4348418Y-1964393D01*
G01X-4343420Y-1969394D01*
G01X-4343420Y-2049394D01*
G01X-4348418Y-2054393D01*
G01X-4428418Y-2054393D01*
G01X-4433419Y-2049394D01*
G37*
G36*
G01X-4343422Y-1810390D02*
G01X-4343422Y-1890390D01*
G01X-4348423Y-1895391D01*
G01X-4371220Y-1895391D01*
G01X-4371220Y-1858391D01*
G01X-4404220Y-1858391D01*
G01X-4404220Y-1895391D01*
G01X-4428423Y-1895391D01*
G01X-4433422Y-1890390D01*
G01X-4433422Y-1810390D01*
G01X-4428423Y-1805392D01*
G01X-4348423Y-1805392D01*
G01X-4343422Y-1810390D01*
G37*
G36*
G01X-3658719Y-2049394D02*
G01X-3658719Y-1969394D01*
G01X-3653718Y-1964393D01*
G01X-3630922Y-1964393D01*
G01X-3630922Y-2001393D01*
G01X-3597922Y-2001393D01*
G01X-3597922Y-1964393D01*
G01X-3573718Y-1964393D01*
G01X-3568720Y-1969394D01*
G01X-3568720Y-2049394D01*
G01X-3573718Y-2054393D01*
G01X-3653718Y-2054393D01*
G01X-3658719Y-2049394D01*
G37*
G36*
G01X-3568722Y-1810390D02*
G01X-3568722Y-1890390D01*
G01X-3573723Y-1895391D01*
G01X-3596520Y-1895391D01*
G01X-3596520Y-1858391D01*
G01X-3629520Y-1858391D01*
G01X-3629520Y-1895391D01*
G01X-3653723Y-1895391D01*
G01X-3658722Y-1890390D01*
G01X-3658722Y-1810390D01*
G01X-3653723Y-1805392D01*
G01X-3573723Y-1805392D01*
G01X-3568722Y-1810390D01*
G37*
G36*
G01X-2884019Y-2049394D02*
G01X-2884019Y-1969394D01*
G01X-2879018Y-1964393D01*
G01X-2856222Y-1964393D01*
G01X-2856222Y-2001393D01*
G01X-2823222Y-2001393D01*
G01X-2823222Y-1964393D01*
G01X-2799018Y-1964393D01*
G01X-2794020Y-1969394D01*
G01X-2794020Y-2049394D01*
G01X-2799018Y-2054393D01*
G01X-2879018Y-2054393D01*
G01X-2884019Y-2049394D01*
G37*
G36*
G01X-2794022Y-1810390D02*
G01X-2794022Y-1890390D01*
G01X-2799023Y-1895391D01*
G01X-2821820Y-1895391D01*
G01X-2821820Y-1858391D01*
G01X-2854820Y-1858391D01*
G01X-2854820Y-1895391D01*
G01X-2879023Y-1895391D01*
G01X-2884022Y-1890390D01*
G01X-2884022Y-1810390D01*
G01X-2879023Y-1805392D01*
G01X-2799023Y-1805392D01*
G01X-2794022Y-1810390D01*
G37*
G36*
G01X-1026107Y-2273858D02*
G01X-1026107Y-2145860D01*
G01X-1031108Y-2140858D01*
G01X-1146109Y-2140858D01*
G01X-1151108Y-2145860D01*
G01X-1151611Y-2186863D01*
G01X-1106610Y-2186863D01*
G01X-1106610Y-2231861D01*
G01X-1150610Y-2231861D01*
G01X-1151108Y-2273858D01*
G01X-1146109Y-2278859D01*
G01X-1031108Y-2278859D01*
G01X-1026107Y-2273858D01*
G37*
G36*
G01X-1367102Y-2145857D02*
G01X-1367102Y-2273855D01*
G01X-1362101Y-2278857D01*
G01X-1247100Y-2278857D01*
G01X-1242101Y-2273855D01*
G01X-1241598Y-2232852D01*
G01X-1286599Y-2232852D01*
G01X-1286599Y-2187853D01*
G01X-1242599Y-2187853D01*
G01X-1242101Y-2145857D01*
G01X-1247100Y-2140856D01*
G01X-1362101Y-2140856D01*
G01X-1367102Y-2145857D01*
G37*
G36*
G01X2034400Y-1078700D02*
G01X2080400Y-1078700D01*
G01X2084400Y-1074699D01*
G01X2084400Y-1024636D01*
G01X2080400Y-1020635D01*
G01X2034400Y-1020635D01*
G01X2030400Y-1024636D01*
G01X2030400Y-1074699D01*
G01X2034400Y-1078700D01*
G37*
G36*
G01X2034400Y-1105700D02*
G01X2080400Y-1105700D01*
G01X2084400Y-1109701D01*
G01X2084400Y-1159764D01*
G01X2080400Y-1163764D01*
G01X2034400Y-1163764D01*
G01X2030400Y-1159764D01*
G01X2030400Y-1109701D01*
G01X2034400Y-1105700D01*
G37*
G36*
G01X-599300Y1297140D02*
G01X-645300Y1297140D01*
G01X-649300Y1293139D01*
G01X-649300Y1243076D01*
G01X-645300Y1239076D01*
G01X-599300Y1239076D01*
G01X-595300Y1243076D01*
G01X-595300Y1293139D01*
G01X-599300Y1297140D01*
G37*
G36*
G01X-599300Y1324140D02*
G01X-645300Y1324140D01*
G01X-649300Y1328141D01*
G01X-649300Y1378204D01*
G01X-645300Y1382205D01*
G01X-599300Y1382205D01*
G01X-595300Y1378204D01*
G01X-595300Y1328141D01*
G01X-599300Y1324140D01*
G37*
G36*
G01X-713600Y1297140D02*
G01X-759600Y1297140D01*
G01X-763600Y1293139D01*
G01X-763600Y1243076D01*
G01X-759600Y1239076D01*
G01X-713600Y1239076D01*
G01X-709600Y1243076D01*
G01X-709600Y1293139D01*
G01X-713600Y1297140D01*
G37*
G36*
G01X-713600Y1324140D02*
G01X-759600Y1324140D01*
G01X-763600Y1328141D01*
G01X-763600Y1378204D01*
G01X-759600Y1382205D01*
G01X-713600Y1382205D01*
G01X-709600Y1378204D01*
G01X-709600Y1328141D01*
G01X-713600Y1324140D01*
G37*
G36*
G01X1771487Y-2876022D02*
G01X1691488Y-2876022D01*
G01X1686486Y-2871020D01*
G01X1686486Y-2848224D01*
G01X1723487Y-2848224D01*
G01X1723487Y-2815224D01*
G01X1686486Y-2815224D01*
G01X1686486Y-2791021D01*
G01X1691488Y-2786022D01*
G01X1771487Y-2786022D01*
G01X1776486Y-2791021D01*
G01X1776486Y-2871020D01*
G01X1771487Y-2876022D01*
G37*
G36*
G01X1532484Y-2786024D02*
G01X1612483Y-2786024D01*
G01X1617485Y-2791026D01*
G01X1617485Y-2813822D01*
G01X1580485Y-2813822D01*
G01X1580485Y-2846822D01*
G01X1617485Y-2846822D01*
G01X1617485Y-2871025D01*
G01X1612483Y-2876024D01*
G01X1532484Y-2876024D01*
G01X1527485Y-2871025D01*
G01X1527485Y-2791026D01*
G01X1532484Y-2786024D01*
G37*
G36*
G01X1263487Y-2876022D02*
G01X1183488Y-2876022D01*
G01X1178486Y-2871020D01*
G01X1178486Y-2848224D01*
G01X1215487Y-2848224D01*
G01X1215487Y-2815224D01*
G01X1178486Y-2815224D01*
G01X1178486Y-2791021D01*
G01X1183488Y-2786022D01*
G01X1263487Y-2786022D01*
G01X1268486Y-2791021D01*
G01X1268486Y-2871020D01*
G01X1263487Y-2876022D01*
G37*
G36*
G01X1024484Y-2786024D02*
G01X1104483Y-2786024D01*
G01X1109485Y-2791026D01*
G01X1109485Y-2813822D01*
G01X1072485Y-2813822D01*
G01X1072485Y-2846822D01*
G01X1109485Y-2846822D01*
G01X1109485Y-2871025D01*
G01X1104483Y-2876024D01*
G01X1024484Y-2876024D01*
G01X1019485Y-2871025D01*
G01X1019485Y-2791026D01*
G01X1024484Y-2786024D01*
G37*

G04 Pad Start*
G54D10*
G01X399898Y-2832100D03*
G01X539902Y-2832100D03*
G54D11*
G01X-2355371Y1416202D03*
G01X-2355371Y1276198D03*
G01X-3904771Y1416202D03*
G01X-3904771Y1276198D03*
G01X-3130071Y1416202D03*
G01X-3130071Y1276198D03*
G54D10*
G01X-4076069Y1562100D03*
G01X-4216074Y1562100D03*
G01X-3301369Y1562100D03*
G01X-3441374Y1562100D03*
G54D11*
G01X-2814320Y997102D03*
G01X-2814320Y857098D03*
G54D10*
G01X-2526669Y1562100D03*
G01X-2666674Y1562100D03*
G54D11*
G01X2355371Y-1416202D03*
G01X2355371Y-1276198D03*
G01X3904771Y-1416202D03*
G01X3904771Y-1276198D03*
G01X3130071Y-1416202D03*
G01X3130071Y-1276198D03*
G54D10*
G01X4076069Y-1562100D03*
G01X4216074Y-1562100D03*
G01X3301369Y-1562100D03*
G01X3441374Y-1562100D03*
G54D11*
G01X2814320Y-997102D03*
G01X2814320Y-857098D03*
G54D12*
G01X-25400Y-727812D03*
G01X-25400Y-643788D03*
G54D10*
G01X2526669Y-1562100D03*
G01X2666674Y-1562100D03*
G54D11*
G01X2864329Y1416202D03*
G01X2864329Y1276198D03*
G01X-4413821Y-1415695D03*
G01X-4413821Y-1275690D03*
G01X-2864421Y-1415695D03*
G01X-2864421Y-1275690D03*
G01X-3639121Y-1415695D03*
G01X-3639121Y-1275690D03*
G54D10*
G01X-2693123Y-1561592D03*
G01X-2553118Y-1561592D03*
G01X-3467823Y-1561592D03*
G01X-3327818Y-1561592D03*
G54D11*
G01X3954780Y997102D03*
G01X3954780Y857098D03*
G54D10*
G01X2693031Y1562100D03*
G01X2553026Y1562100D03*
G54D11*
G01X3639029Y1416202D03*
G01X3639029Y1276198D03*
G54D10*
G01X3467731Y1562100D03*
G01X3327726Y1562100D03*
G54D11*
G01X4413729Y1416202D03*
G01X4413729Y1276198D03*
G54D10*
G01X4242431Y1562100D03*
G01X4102426Y1562100D03*
G54D11*
G01X-3954872Y-996595D03*
G01X-3954872Y-856590D03*
G54D10*
G01X-4242523Y-1561592D03*
G01X-4102518Y-1561592D03*
G54D13*
G01X2610329Y2919808D03*
G54D14*
G01X2381729Y2224814D03*
G01X2838929Y2224814D03*
G54D13*
G01X3385029Y2919808D03*
G54D14*
G01X3156429Y2224814D03*
G01X3613629Y2224814D03*
G54D13*
G01X4159729Y2919808D03*
G54D14*
G01X3931129Y2224814D03*
G01X4388329Y2224814D03*
G54D13*
G01X-2609371Y2919808D03*
G54D14*
G01X-2837971Y2224814D03*
G01X-2380771Y2224814D03*
G54D13*
G01X-3384071Y2919808D03*
G54D14*
G01X-3612671Y2224814D03*
G01X-3155471Y2224814D03*
G54D13*
G01X-4158771Y2919808D03*
G54D14*
G01X-4387371Y2224814D03*
G01X-3930171Y2224814D03*
G54D13*
G01X2609371Y-2919808D03*
G54D14*
G01X2837971Y-2224814D03*
G01X2380771Y-2224814D03*
G54D13*
G01X3384071Y-2919808D03*
G54D14*
G01X3612671Y-2224814D03*
G01X3155471Y-2224814D03*
G54D13*
G01X4158771Y-2919808D03*
G54D14*
G01X4387371Y-2224814D03*
G01X3930171Y-2224814D03*
G54D13*
G01X-4159821Y-2919301D03*
G54D14*
G01X-3931221Y-2224306D03*
G01X-4388421Y-2224306D03*
G54D13*
G01X-3385121Y-2919301D03*
G54D14*
G01X-3156521Y-2224306D03*
G01X-3613721Y-2224306D03*
G54D13*
G01X-2610421Y-2919301D03*
G54D14*
G01X-2381821Y-2224306D03*
G01X-2839021Y-2224306D03*
G54D15*
G01X-3835425Y253390D03*
G01X-3835425Y333400D03*
G01X-3835425Y413410D03*
G01X-3835425Y493395D03*
G01X-3835425Y573405D03*
G01X-3835425Y653390D03*
G01X-3835425Y733400D03*
G01X-3835425Y813410D03*
G54D17*
G01X-3691230Y957605D03*
G01X-3611220Y957605D03*
G01X-3531210Y957605D03*
G01X-3451225Y957605D03*
G01X-3371215Y957605D03*
G01X-3291230Y957605D03*
G01X-3211220Y957605D03*
G01X-3131210Y957605D03*
G54D15*
G01X-2987015Y813410D03*
G01X-2987015Y733400D03*
G01X-2987015Y653390D03*
G01X-2987015Y573405D03*
G01X-2987015Y493395D03*
G01X-2987015Y413410D03*
G01X-2987015Y333400D03*
G01X-2987015Y253390D03*
G54D17*
G01X-3131210Y109195D03*
G01X-3211220Y109195D03*
G01X-3291230Y109195D03*
G01X-3371215Y109195D03*
G01X-3451225Y109195D03*
G01X-3531210Y109195D03*
G01X-3611220Y109195D03*
G01X-3691230Y109195D03*
G54D18*
G01X-1230436Y-2630761D03*
G01X-1230436Y-2440769D03*
G01X-1470435Y-2440769D03*
G01X-1470435Y-2535765D03*
G01X-1470435Y-2630761D03*
G01X-1230436Y-2535765D03*
G54D15*
G01X3835425Y-253390D03*
G01X3835425Y-333400D03*
G01X3835425Y-413410D03*
G01X3835425Y-493395D03*
G01X3835425Y-573405D03*
G01X3835425Y-653390D03*
G01X3835425Y-733400D03*
G01X3835425Y-813410D03*
G54D17*
G01X3691230Y-957605D03*
G01X3611220Y-957605D03*
G01X3531210Y-957605D03*
G01X3451225Y-957605D03*
G01X3371215Y-957605D03*
G01X3291230Y-957605D03*
G01X3211220Y-957605D03*
G01X3131210Y-957605D03*
G54D15*
G01X2987015Y-813410D03*
G01X2987015Y-733400D03*
G01X2987015Y-653390D03*
G01X2987015Y-573405D03*
G01X2987015Y-493395D03*
G01X2987015Y-413410D03*
G01X2987015Y-333400D03*
G01X2987015Y-253390D03*
G54D17*
G01X3131210Y-109195D03*
G01X3211220Y-109195D03*
G01X3291230Y-109195D03*
G01X3371215Y-109195D03*
G01X3451225Y-109195D03*
G01X3531210Y-109195D03*
G01X3611220Y-109195D03*
G01X3691230Y-109195D03*
G54D15*
G01X2933675Y253390D03*
G01X2933675Y333400D03*
G01X2933675Y413410D03*
G01X2933675Y493395D03*
G01X2933675Y573405D03*
G01X2933675Y653390D03*
G01X2933675Y733400D03*
G01X2933675Y813410D03*
G54D17*
G01X3077870Y957605D03*
G01X3157880Y957605D03*
G01X3237890Y957605D03*
G01X3317875Y957605D03*
G01X3397885Y957605D03*
G01X3477870Y957605D03*
G01X3557880Y957605D03*
G01X3637890Y957605D03*
G54D15*
G01X3782085Y813410D03*
G01X3782085Y733400D03*
G01X3782085Y653390D03*
G01X3782085Y573405D03*
G01X3782085Y493395D03*
G01X3782085Y413410D03*
G01X3782085Y333400D03*
G01X3782085Y253390D03*
G54D17*
G01X3637890Y109195D03*
G01X3557880Y109195D03*
G01X3477870Y109195D03*
G01X3397885Y109195D03*
G01X3317875Y109195D03*
G01X3237890Y109195D03*
G01X3157880Y109195D03*
G01X3077870Y109195D03*
G54D15*
G01X-2933767Y-252883D03*
G01X-2933767Y-332893D03*
G01X-2933767Y-412903D03*
G01X-2933767Y-492887D03*
G01X-2933767Y-572897D03*
G01X-2933767Y-652882D03*
G01X-2933767Y-732892D03*
G01X-2933767Y-812902D03*
G54D17*
G01X-3077962Y-957098D03*
G01X-3157972Y-957098D03*
G01X-3237982Y-957098D03*
G01X-3317967Y-957098D03*
G01X-3397977Y-957098D03*
G01X-3477962Y-957098D03*
G01X-3557972Y-957098D03*
G01X-3637982Y-957098D03*
G54D15*
G01X-3782177Y-812902D03*
G01X-3782177Y-732892D03*
G01X-3782177Y-652882D03*
G01X-3782177Y-572897D03*
G01X-3782177Y-492887D03*
G01X-3782177Y-412903D03*
G01X-3782177Y-332893D03*
G01X-3782177Y-252883D03*
G54D17*
G01X-3637982Y-108687D03*
G01X-3557972Y-108687D03*
G01X-3477962Y-108687D03*
G01X-3397977Y-108687D03*
G01X-3317967Y-108687D03*
G01X-3237982Y-108687D03*
G01X-3157972Y-108687D03*
G01X-3077962Y-108687D03*
G54D12*
G01X2146300Y-427888D03*
G01X2146300Y-511912D03*
G01X2082800Y-1621688D03*
G01X2082800Y-1705712D03*
G01X-1058335Y-2615876D03*
G01X-1058335Y-2531853D03*
G54D10*
G01X-1490308Y-2994445D03*
G01X-1630313Y-2994445D03*
G01X-1490769Y-2792307D03*
G01X-1630774Y-2792307D03*
G54D19*
G01X176601Y-1875047D03*
G01X482620Y-1875047D03*
G54D20*
G01X122911Y-2630297D03*
G01X122911Y-2400300D03*
G01X122911Y-2170303D03*
G54D21*
G01X689889Y-2400300D03*
G54D22*
G01X-1090165Y-2906612D03*
G01X-1320162Y-2906612D03*
G54D10*
G01X1035202Y-939800D03*
G01X895198Y-939800D03*
G01X-180980Y1288589D03*
G01X-320985Y1288589D03*
G54D12*
G01X-482600Y1268628D03*
G01X-482600Y1352652D03*
G54D23*
G01X168618Y1096493D03*
G01X118605Y1096493D03*
G01X68618Y1096493D03*
G01X18606Y1096493D03*
G01X-31382Y1096493D03*
G01X-81394Y1096493D03*
G01X-131381Y1096493D03*
G01X-181394Y1096493D03*
G01X-231381Y1096493D03*
G01X-281394Y1096493D03*
G01X-331381Y1096493D03*
G01X-381394Y1096493D03*
G01X-431381Y1096493D03*
G01X-481393Y1096493D03*
G01X-531406Y1096493D03*
G01X-581393Y1096493D03*
G01X-631406Y1096493D03*
G01X-681393Y1096493D03*
G01X-731406Y1096493D03*
G01X-781393Y1096493D03*
G01X-831405Y1096493D03*
G01X-881393Y1096493D03*
G01X-931405Y1096493D03*
G01X-981392Y1096493D03*
G54D24*
G01X337604Y838987D03*
G01X-1150404Y838987D03*
G54D25*
G01X1362710Y431800D03*
G01X1202690Y431800D03*
G54D26*
G01X1811609Y-747847D03*
G01X1701602Y-747847D03*
G01X1591594Y-747847D03*
G01X1481612Y-747847D03*
G01X1371605Y-747847D03*
G01X1261598Y-747847D03*
G01X1151616Y-747847D03*
G01X1041608Y-747847D03*
G01X931601Y-747847D03*
G01X931601Y214457D03*
G01X1041608Y214457D03*
G01X1151616Y214457D03*
G01X1261598Y214457D03*
G01X1371605Y214457D03*
G01X1481612Y214457D03*
G01X1591594Y214457D03*
G01X1701602Y214457D03*
G01X1811609Y214457D03*
G54D10*
G01X1337355Y-1596464D03*
G01X1477360Y-1596464D03*
G54D11*
G01X1167450Y-1492166D03*
G01X1167450Y-1352161D03*
G54D27*
G01X-664312Y-1041400D03*
G01X-580288Y-1041400D03*
G54D11*
G01X1338747Y-1403244D03*
G01X1338747Y-1293262D03*
G01X1478752Y-1293262D03*
G01X1478752Y-1403244D03*
G01X2057400Y-768502D03*
G01X2057400Y-628498D03*
G04 Pad End*

M02*

