G04 Layer: TopLayer*
G04 EasyEDA Pro v2.2.47.7, 2026-04-30 23:08:15*
G04 Gerber Generator version 0.3*
G04 Scale: 100 percent, Rotated: No, Reflected: No*
G04 Dimensions in millimeters*
G04 Leading zeros omitted, absolute positions, 4 integers and 5 decimals*
G04 Generated by one-click*
G04 Object Configs: Pad,Via,Track,Text,Image,Dimension,BoardOutline,BoardCutout,CopperFilled,SolidRegion,FPCStiffener,Line,PlaneZone,ComponentProperty,ComponentSilkscreen,TearDrop*
G04 Layer Configs: 1,15,16,2,3,4,5,6,7,8,9,10,11,13,14,56*
G04 Copper Areas: 32*
%FSLAX45Y45*%
%MOMM*%
%AMPolygonMacro1*4,1,4,-3.2385,-3.302,-3.2385,3.302,3.2385,3.302,3.2385,-3.302,-3.2385,-3.302,0*%
%AMPolygonMacro2*4,1,4,3.2385,3.302,3.2385,-3.302,-3.2385,-3.302,-3.2385,3.302,3.2385,3.302,0*%
%ADD10C,0.2032*%
%ADD11C,0.254*%
%ADD12PolygonMacro1*%
%ADD13PolygonMacro2*%
%ADD14R,0.9X0.8*%
%ADD15R,0.8X0.9*%
%ADD16C,1.6261*%
%ADD17C,1.61999*%
%ADD18R,1.61999X1.61999*%
%ADD19R,0.54X0.54*%
%ADD20R,5.99999X6.50001*%
%ADD21R,1.2X2.49999*%
%ADD22R,0.86401X0.80648*%
%ADD23O,0.58801X2.045*%
%ADD24R,0.67501X0.28001*%
%ADD25R,0.28001X0.67501*%
%ADD26R,0.4X0.6*%
%ADD27R,0.25001X0.45001*%
%ADD28R,0.45001X0.25001*%
%ADD29R,0.5X0.54*%
%ADD30R,0.54X0.5*%
%ADD31R,0.56566X0.54*%
%ADD32C,1.8*%
%ADD33R,0.80648X0.86401*%
%ADD34R,0.532X1.07*%
%ADD35R,0.6X1.07*%
%ADD36R,0.54X0.56566*%
%ADD37O,1.2X2.2*%
%ADD38C,3.79999*%
%ADD39R,0.3X1.3*%
%ADD40O,1.0X1.8*%
%ADD41O,1.0X2.0*%
%ADD42R,2.95001X2.49999*%
%ADD43R,2.95001X1.0*%
%ADD44O,1.6X0.3*%
%ADD45O,0.3X1.6*%
%ADD46O,1.7X2.89999*%
%ADD47R,1.5X1.1*%
%ADD48R,1.1X1.5*%
%ADD49C,0.61*%
%ADD50C,1.016*%
%ADD51C,0.635*%
%ADD52C,0.508*%
%ADD53C,0.889*%
%ADD54C,0.762*%
G75*


G04 Copper Start*
G36*
G01X-3682311Y-2040777D02*
G01X-3682311Y-1728077D01*
G01X-3668124Y-1730874D01*
G01X-3653670Y-1730476D01*
G01X-3639659Y-1726903D01*
G01X-3626779Y-1720330D01*
G01X-3615664Y-1711081D01*
G01X-3606861Y-1699609D01*
G01X-3591499Y-1699609D01*
G01X-3581473Y-1712319D01*
G01X-3568626Y-1722168D01*
G01X-3553749Y-1728548D01*
G01X-3552695Y-1743947D01*
G01X-3548111Y-1758684D01*
G01X-3540244Y-1771963D01*
G01X-3529520Y-1783064D01*
G01X-3516521Y-1791385D01*
G01X-3501951Y-1796476D01*
G01X-3486598Y-1798060D01*
G01X-3471295Y-1796053D01*
G01X-3456870Y-1790563D01*
G01X-3444105Y-1781886D01*
G01X-3433692Y-1770495D01*
G01X-3426194Y-1757004D01*
G01X-3399665Y-1730475D01*
G01X-3388472Y-1727891D01*
G01X-3377905Y-1723384D01*
G01X-3368294Y-1717091D01*
G01X-3368294Y-1902696D01*
G01X-3429757Y-1964159D01*
G01X-3437370Y-1973435D01*
G01X-3443026Y-1984018D01*
G01X-3446510Y-1995501D01*
G01X-3447686Y-2007444D01*
G01X-3447686Y-2040777D01*
G01X-3459484Y-2040777D01*
G01X-3473804Y-2033123D01*
G01X-3489554Y-2029177D01*
G01X-3505790Y-2029177D01*
G01X-3521540Y-2033123D01*
G01X-3535859Y-2040777D01*
G01X-3682311Y-2040777D01*
G37*
G36*
G01X-2907611Y-2040777D02*
G01X-2907611Y-1728077D01*
G01X-2893424Y-1730874D01*
G01X-2878970Y-1730476D01*
G01X-2864959Y-1726903D01*
G01X-2852079Y-1720330D01*
G01X-2840964Y-1711081D01*
G01X-2832161Y-1699609D01*
G01X-2816799Y-1699609D01*
G01X-2808065Y-1711008D01*
G01X-2797049Y-1720219D01*
G01X-2784283Y-1726796D01*
G01X-2770388Y-1730419D01*
G01X-2766327Y-1743983D01*
G01X-2759480Y-1756376D01*
G01X-2750157Y-1767033D01*
G01X-2738785Y-1775468D01*
G01X-2725882Y-1781296D01*
G01X-2712035Y-1784253D01*
G01X-2697876Y-1784202D01*
G01X-2684051Y-1781146D01*
G01X-2671189Y-1775225D01*
G01X-2659878Y-1766709D01*
G01X-2650632Y-1755986D01*
G01X-2643874Y-1743544D01*
G01X-2631379Y-1731050D01*
G01X-2617896Y-1729087D01*
G01X-2605115Y-1724366D01*
G01X-2593594Y-1717091D01*
G01X-2593594Y-1902696D01*
G01X-2655057Y-1964159D01*
G01X-2662670Y-1973435D01*
G01X-2668326Y-1984018D01*
G01X-2671810Y-1995501D01*
G01X-2672986Y-2007444D01*
G01X-2672986Y-2040777D01*
G01X-2684784Y-2040777D01*
G01X-2699104Y-2033123D01*
G01X-2714854Y-2029177D01*
G01X-2731090Y-2029177D01*
G01X-2746840Y-2033123D01*
G01X-2761159Y-2040777D01*
G01X-2907611Y-2040777D01*
G37*
G36*
G01X-1064438Y-1673860D02*
G01X-739169Y-1673860D01*
G01X-697225Y-1715804D01*
G01X-687177Y-1723514D01*
G01X-675477Y-1728361D01*
G01X-662920Y-1730014D01*
G01X-316355Y-1730014D01*
G01X-86614Y-1959754D01*
G01X-86614Y-2447146D01*
G01X-423308Y-2783840D01*
G01X-656192Y-2783840D01*
G01X-789940Y-2650092D01*
G01X-789940Y-2527300D01*
G01X-790713Y-2523412D01*
G01X-792916Y-2520116D01*
G01X-879447Y-2433584D01*
G01X-882743Y-2431382D01*
G01X-886631Y-2430609D01*
G01X-1118526Y-2430609D01*
G01X-1183640Y-2365494D01*
G01X-1183640Y-1793062D01*
G01X-1064438Y-1673860D01*
G37*
G36*
G01X3677920Y2042160D02*
G01X3271011Y2042160D01*
G01X3266815Y2057211D01*
G01X3259214Y2070862D01*
G01X3248630Y2082355D01*
G01X3235650Y2091053D01*
G01X3220996Y2096473D01*
G01X3205480Y2098314D01*
G01X3189964Y2096473D01*
G01X3175310Y2091053D01*
G01X3162330Y2082355D01*
G01X3151746Y2070862D01*
G01X3144145Y2057211D01*
G01X3139949Y2042160D01*
G01X3101340Y2042160D01*
G01X3101340Y3558540D01*
G01X3677920Y3558540D01*
G01X3677920Y2042160D01*
G37*
G36*
G01X2903220Y2042160D02*
G01X2496311Y2042160D01*
G01X2492115Y2057211D01*
G01X2484514Y2070862D01*
G01X2473930Y2082355D01*
G01X2460950Y2091053D01*
G01X2446296Y2096473D01*
G01X2430780Y2098314D01*
G01X2415264Y2096473D01*
G01X2400610Y2091053D01*
G01X2387630Y2082355D01*
G01X2377046Y2070862D01*
G01X2369445Y2057211D01*
G01X2365249Y2042160D01*
G01X2326640Y2042160D01*
G01X2326640Y3558540D01*
G01X2903220Y3558540D01*
G01X2903220Y2042160D01*
G37*
G36*
G01X4452620Y2042160D02*
G01X4045711Y2042160D01*
G01X4041515Y2057211D01*
G01X4033914Y2070862D01*
G01X4023330Y2082355D01*
G01X4010350Y2091053D01*
G01X3995696Y2096473D01*
G01X3980180Y2098314D01*
G01X3964664Y2096473D01*
G01X3950010Y2091053D01*
G01X3937030Y2082355D01*
G01X3926446Y2070862D01*
G01X3918845Y2057211D01*
G01X3914649Y2042160D01*
G01X3876040Y2042160D01*
G01X3876040Y3558540D01*
G01X4452620Y3558540D01*
G01X4452620Y2042160D01*
G37*
G36*
G01X-3091180Y2042160D02*
G01X-3498089Y2042160D01*
G01X-3502285Y2057211D01*
G01X-3509886Y2070862D01*
G01X-3520470Y2082355D01*
G01X-3533450Y2091053D01*
G01X-3548104Y2096473D01*
G01X-3563620Y2098314D01*
G01X-3579136Y2096473D01*
G01X-3593790Y2091053D01*
G01X-3606770Y2082355D01*
G01X-3617354Y2070862D01*
G01X-3624955Y2057211D01*
G01X-3629151Y2042160D01*
G01X-3667760Y2042160D01*
G01X-3667760Y3558540D01*
G01X-3091180Y3558540D01*
G01X-3091180Y2042160D01*
G37*
G36*
G01X-3865880Y2042160D02*
G01X-4272789Y2042160D01*
G01X-4276985Y2057211D01*
G01X-4284586Y2070862D01*
G01X-4295170Y2082355D01*
G01X-4308150Y2091053D01*
G01X-4322804Y2096473D01*
G01X-4338320Y2098314D01*
G01X-4353836Y2096473D01*
G01X-4368490Y2091053D01*
G01X-4381470Y2082355D01*
G01X-4392054Y2070862D01*
G01X-4399655Y2057211D01*
G01X-4403851Y2042160D01*
G01X-4442460Y2042160D01*
G01X-4442460Y3558540D01*
G01X-3865880Y3558540D01*
G01X-3865880Y2042160D01*
G37*
G36*
G01X-2316480Y2042160D02*
G01X-2723389Y2042160D01*
G01X-2727585Y2057211D01*
G01X-2735186Y2070862D01*
G01X-2745770Y2082355D01*
G01X-2758750Y2091053D01*
G01X-2773404Y2096473D01*
G01X-2788920Y2098314D01*
G01X-2804436Y2096473D01*
G01X-2819090Y2091053D01*
G01X-2832070Y2082355D01*
G01X-2842654Y2070862D01*
G01X-2850255Y2057211D01*
G01X-2854451Y2042160D01*
G01X-2893060Y2042160D01*
G01X-2893060Y3558540D01*
G01X-2316480Y3558540D01*
G01X-2316480Y2042160D01*
G37*
G36*
G01X-3678012Y-3558032D02*
G01X-3678012Y-2086751D01*
G01X-3327472Y-2086751D01*
G01X-3316404Y-2084998D01*
G01X-3306421Y-2079911D01*
G01X-3298497Y-2071988D01*
G01X-3293410Y-2062004D01*
G01X-3291658Y-2050937D01*
G01X-3291658Y-2041652D01*
G01X-3271103Y-2041652D01*
G01X-3266907Y-2056703D01*
G01X-3259306Y-2070354D01*
G01X-3248722Y-2081848D01*
G01X-3235742Y-2090546D01*
G01X-3221088Y-2095966D01*
G01X-3205572Y-2097806D01*
G01X-3190056Y-2095966D01*
G01X-3175402Y-2090546D01*
G01X-3162422Y-2081848D01*
G01X-3151838Y-2070354D01*
G01X-3144237Y-2056703D01*
G01X-3140041Y-2041652D01*
G01X-3101432Y-2041652D01*
G01X-3101432Y-3558032D01*
G01X-3678012Y-3558032D01*
G37*
G36*
G01X-3678012Y-3558032D02*
G01X-3678012Y-2086751D01*
G01X-3327472Y-2086751D01*
G01X-3316404Y-2084998D01*
G01X-3306421Y-2079911D01*
G01X-3298497Y-2071988D01*
G01X-3293410Y-2062004D01*
G01X-3291658Y-2050937D01*
G01X-3291658Y-2041652D01*
G01X-3271103Y-2041652D01*
G01X-3266907Y-2056703D01*
G01X-3259306Y-2070354D01*
G01X-3248722Y-2081848D01*
G01X-3235742Y-2090546D01*
G01X-3221088Y-2095966D01*
G01X-3205572Y-2097806D01*
G01X-3190056Y-2095966D01*
G01X-3175402Y-2090546D01*
G01X-3162422Y-2081848D01*
G01X-3151838Y-2070354D01*
G01X-3144237Y-2056703D01*
G01X-3140041Y-2041652D01*
G01X-3101432Y-2041652D01*
G01X-3101432Y-3558032D01*
G01X-3678012Y-3558032D01*
G37*
G36*
G01X-2903312Y-3558032D02*
G01X-2903312Y-2086751D01*
G01X-2552772Y-2086751D01*
G01X-2541704Y-2084998D01*
G01X-2531721Y-2079911D01*
G01X-2523797Y-2071988D01*
G01X-2518710Y-2062004D01*
G01X-2516958Y-2050937D01*
G01X-2516958Y-2041652D01*
G01X-2496403Y-2041652D01*
G01X-2492207Y-2056703D01*
G01X-2484606Y-2070354D01*
G01X-2474022Y-2081848D01*
G01X-2461042Y-2090546D01*
G01X-2446388Y-2095966D01*
G01X-2430872Y-2097806D01*
G01X-2415356Y-2095966D01*
G01X-2400702Y-2090546D01*
G01X-2387722Y-2081848D01*
G01X-2377138Y-2070354D01*
G01X-2369537Y-2056703D01*
G01X-2365341Y-2041652D01*
G01X-2326732Y-2041652D01*
G01X-2326732Y-3558032D01*
G01X-2903312Y-3558032D01*
G37*
G36*
G01X-2903312Y-3558032D02*
G01X-2903312Y-2086751D01*
G01X-2552772Y-2086751D01*
G01X-2541704Y-2084998D01*
G01X-2531721Y-2079911D01*
G01X-2523797Y-2071988D01*
G01X-2518710Y-2062004D01*
G01X-2516958Y-2050937D01*
G01X-2516958Y-2041652D01*
G01X-2496403Y-2041652D01*
G01X-2492207Y-2056703D01*
G01X-2484606Y-2070354D01*
G01X-2474022Y-2081848D01*
G01X-2461042Y-2090546D01*
G01X-2446388Y-2095966D01*
G01X-2430872Y-2097806D01*
G01X-2415356Y-2095966D01*
G01X-2400702Y-2090546D01*
G01X-2387722Y-2081848D01*
G01X-2377138Y-2070354D01*
G01X-2369537Y-2056703D01*
G01X-2365341Y-2041652D01*
G01X-2326732Y-2041652D01*
G01X-2326732Y-3558032D01*
G01X-2903312Y-3558032D01*
G37*
G36*
G01X-4241745Y-2041652D02*
G01X-4045803Y-2041652D01*
G01X-4041607Y-2056703D01*
G01X-4034006Y-2070354D01*
G01X-4023422Y-2081848D01*
G01X-4010442Y-2090546D01*
G01X-3995788Y-2095966D01*
G01X-3980272Y-2097806D01*
G01X-3964756Y-2095966D01*
G01X-3950102Y-2090546D01*
G01X-3937122Y-2081848D01*
G01X-3926538Y-2070354D01*
G01X-3918937Y-2056703D01*
G01X-3914741Y-2041652D01*
G01X-3876132Y-2041652D01*
G01X-3876132Y-3558032D01*
G01X-4452712Y-3558032D01*
G01X-4452712Y-2041652D01*
G01X-4313159Y-2041652D01*
G01X-4299639Y-2048264D01*
G01X-4284977Y-2051658D01*
G01X-4269927Y-2051658D01*
G01X-4255265Y-2048264D01*
G01X-4241745Y-2041652D01*
G37*
G36*
G01X3091180Y-2042160D02*
G01X3288596Y-2042160D01*
G01X3301376Y-2046162D01*
G01X3314700Y-2047514D01*
G01X3328024Y-2046162D01*
G01X3340804Y-2042160D01*
G01X3498089Y-2042160D01*
G01X3502285Y-2057211D01*
G01X3509886Y-2070862D01*
G01X3520470Y-2082355D01*
G01X3533450Y-2091053D01*
G01X3548104Y-2096473D01*
G01X3563620Y-2098314D01*
G01X3579136Y-2096473D01*
G01X3593790Y-2091053D01*
G01X3606770Y-2082355D01*
G01X3617354Y-2070862D01*
G01X3624955Y-2057211D01*
G01X3629151Y-2042160D01*
G01X3667760Y-2042160D01*
G01X3667760Y-3558540D01*
G01X3091180Y-3558540D01*
G01X3091180Y-2042160D01*
G37*
G36*
G01X3865880Y-2042160D02*
G01X4017381Y-2042160D01*
G01X4032582Y-2048050D01*
G01X4048760Y-2050054D01*
G01X4064938Y-2048050D01*
G01X4080139Y-2042160D01*
G01X4272789Y-2042160D01*
G01X4276985Y-2057211D01*
G01X4284586Y-2070862D01*
G01X4295170Y-2082355D01*
G01X4308150Y-2091053D01*
G01X4322804Y-2096473D01*
G01X4338320Y-2098314D01*
G01X4353836Y-2096473D01*
G01X4368490Y-2091053D01*
G01X4381470Y-2082355D01*
G01X4392054Y-2070862D01*
G01X4399655Y-2057211D01*
G01X4403851Y-2042160D01*
G01X4442460Y-2042160D01*
G01X4442460Y-3558540D01*
G01X3865880Y-3558540D01*
G01X3865880Y-2042160D01*
G37*
G36*
G01X2527447Y-2042160D02*
G01X2723389Y-2042160D01*
G01X2727585Y-2057211D01*
G01X2735186Y-2070862D01*
G01X2745770Y-2082355D01*
G01X2758750Y-2091053D01*
G01X2773404Y-2096473D01*
G01X2788920Y-2098314D01*
G01X2804436Y-2096473D01*
G01X2819090Y-2091053D01*
G01X2832070Y-2082355D01*
G01X2842654Y-2070862D01*
G01X2850255Y-2057211D01*
G01X2854451Y-2042160D01*
G01X2893060Y-2042160D01*
G01X2893060Y-3558540D01*
G01X2316480Y-3558540D01*
G01X2316480Y-2042160D01*
G01X2456033Y-2042160D01*
G01X2469553Y-2048772D01*
G01X2484215Y-2052166D01*
G01X2499265Y-2052166D01*
G01X2513927Y-2048772D01*
G01X2527447Y-2042160D01*
G37*
G36*
G01X-1393825Y-2475865D02*
G01X-1393825Y-2822193D01*
G01X-1412411Y-2820002D01*
G01X-1431034Y-2821854D01*
G01X-1515028Y-2821854D01*
G01X-1529732Y-2823473D01*
G01X-1543731Y-2828254D01*
G01X-1556355Y-2835966D01*
G01X-1566997Y-2846241D01*
G01X-1575147Y-2858586D01*
G01X-1585321Y-2846671D01*
G01X-1598006Y-2837475D01*
G01X-1612495Y-2831512D01*
G01X-1627979Y-2829114D01*
G01X-1643592Y-2830417D01*
G01X-1658465Y-2835345D01*
G01X-1671765Y-2843626D01*
G01X-1682752Y-2854796D01*
G01X-1690812Y-2868232D01*
G01X-1695494Y-2883184D01*
G01X-1696538Y-2898817D01*
G01X-1693885Y-2914258D01*
G01X-1687684Y-2928647D01*
G01X-1678279Y-2941178D01*
G01X-1666197Y-2951154D01*
G01X-1652112Y-2958016D01*
G01X-1636810Y-2961382D01*
G01X-1621146Y-2961065D01*
G01X-1605993Y-2957081D01*
G01X-1592198Y-2949653D01*
G01X-1580530Y-2939196D01*
G01X-1571641Y-2926294D01*
G01X-1563249Y-2936743D01*
G01X-1552959Y-2945330D01*
G01X-1541176Y-2951717D01*
G01X-1528364Y-2955652D01*
G01X-1515028Y-2956982D01*
G01X-1483664Y-2956982D01*
G01X-1474447Y-2967858D01*
G01X-1421959Y-3020345D01*
G01X-1408818Y-3031127D01*
G01X-1393825Y-3039135D01*
G01X-1393825Y-3591306D01*
G01X-2221865Y-3591306D01*
G01X-2221865Y-2475865D01*
G01X-1996663Y-2475865D01*
G01X-2002334Y-2489669D01*
G01X-2005792Y-2504186D01*
G01X-2006954Y-2519064D01*
G01X-2006954Y-2619064D01*
G01X-2005113Y-2637756D01*
G01X-1999661Y-2655730D01*
G01X-1990807Y-2672295D01*
G01X-1978891Y-2686814D01*
G01X-1964372Y-2698730D01*
G01X-1947807Y-2707584D01*
G01X-1929833Y-2713037D01*
G01X-1911140Y-2714878D01*
G01X-1892448Y-2713037D01*
G01X-1874474Y-2707584D01*
G01X-1857909Y-2698730D01*
G01X-1843390Y-2686814D01*
G01X-1831474Y-2672295D01*
G01X-1822620Y-2655730D01*
G01X-1817168Y-2637756D01*
G01X-1815327Y-2619064D01*
G01X-1815327Y-2519064D01*
G01X-1816489Y-2504186D01*
G01X-1819947Y-2489669D01*
G01X-1825618Y-2475865D01*
G01X-1393825Y-2475865D01*
G37*
G36*
G01X3091088Y-2041652D02*
G01X3287441Y-2041652D01*
G01X3300759Y-2046032D01*
G01X3314700Y-2047514D01*
G01X3328641Y-2046032D01*
G01X3341959Y-2041652D01*
G01X3498012Y-2041652D01*
G01X3502124Y-2056814D01*
G01X3509686Y-2070584D01*
G01X3520276Y-2082188D01*
G01X3533297Y-2090975D01*
G01X3548021Y-2096453D01*
G01X3563620Y-2098314D01*
G01X3579219Y-2096453D01*
G01X3593943Y-2090975D01*
G01X3606964Y-2082188D01*
G01X3617554Y-2070584D01*
G01X3625116Y-2056814D01*
G01X3629228Y-2041652D01*
G01X3667668Y-2041652D01*
G01X3667668Y-3558032D01*
G01X3091088Y-3558032D01*
G01X3091088Y-2041652D01*
G37*
G36*
G01X2528229Y-2041652D02*
G01X2723312Y-2041652D01*
G01X2727424Y-2056814D01*
G01X2734986Y-2070584D01*
G01X2745576Y-2082188D01*
G01X2758597Y-2090975D01*
G01X2773321Y-2096453D01*
G01X2788920Y-2098314D01*
G01X2804519Y-2096453D01*
G01X2819243Y-2090975D01*
G01X2832264Y-2082188D01*
G01X2842854Y-2070584D01*
G01X2850416Y-2056814D01*
G01X2854528Y-2041652D01*
G01X2892968Y-2041652D01*
G01X2892968Y-3558032D01*
G01X2316388Y-3558032D01*
G01X2316388Y-2041652D01*
G01X2455251Y-2041652D01*
G01X2469026Y-2048583D01*
G01X2484030Y-2052144D01*
G01X2499450Y-2052144D01*
G01X2514454Y-2048583D01*
G01X2528229Y-2041652D01*
G37*
G36*
G01X-3081020Y1996186D02*
G01X-3070602Y1997735D01*
G01X-3061085Y2002247D01*
G01X-3053292Y2009333D01*
G01X-3047897Y2018379D01*
G01X-3045367Y2028603D01*
G01X-2938873Y2028603D01*
G01X-2936607Y2019042D01*
G01X-2931829Y2010456D01*
G01X-2924897Y2003491D01*
G01X-2930497Y1993131D01*
G01X-2932434Y1981513D01*
G01X-2932434Y1731514D01*
G01X-2931532Y1723526D01*
G01X-2928871Y1715941D01*
G01X-2924585Y1709140D01*
G01X-2924585Y1687435D01*
G01X-3044785Y1687435D01*
G01X-3051854Y1701968D01*
G01X-3062281Y1714317D01*
G01X-3075423Y1723722D01*
G01X-3090475Y1729607D01*
G01X-3106512Y1731609D01*
G01X-3122549Y1729607D01*
G01X-3137601Y1723722D01*
G01X-3150743Y1714317D01*
G01X-3161170Y1701968D01*
G01X-3168239Y1687435D01*
G01X-3171785Y1687435D01*
G01X-3178854Y1701968D01*
G01X-3189281Y1714317D01*
G01X-3202423Y1723722D01*
G01X-3217475Y1729607D01*
G01X-3233512Y1731609D01*
G01X-3249549Y1729607D01*
G01X-3264601Y1723722D01*
G01X-3277743Y1714317D01*
G01X-3288170Y1701968D01*
G01X-3295239Y1687435D01*
G01X-3298785Y1687435D01*
G01X-3299298Y1688884D01*
G01X-3299298Y1709430D01*
G01X-3287291Y1719262D01*
G01X-3277898Y1731615D01*
G01X-3271634Y1745813D01*
G01X-3268840Y1761078D01*
G01X-3269671Y1776574D01*
G01X-3274081Y1791453D01*
G01X-3281828Y1804900D01*
G01X-3292488Y1816178D01*
G01X-3305477Y1824670D01*
G01X-3320084Y1829910D01*
G01X-3335509Y1831612D01*
G01X-3350907Y1829683D01*
G01X-3365436Y1824227D01*
G01X-3378298Y1815545D01*
G01X-3388790Y1804111D01*
G01X-3396338Y1790552D01*
G01X-3400898Y1785992D01*
G01X-3400898Y1903204D01*
G01X-3339435Y1964666D01*
G01X-3331789Y1973993D01*
G01X-3326120Y1984637D01*
G01X-3322647Y1996186D01*
G01X-3081020Y1996186D01*
G37*
G36*
G01X-3855720Y1996186D02*
G01X-3845302Y1997735D01*
G01X-3835785Y2002247D01*
G01X-3827992Y2009333D01*
G01X-3822597Y2018379D01*
G01X-3820067Y2028603D01*
G01X-3713573Y2028603D01*
G01X-3711307Y2019042D01*
G01X-3706529Y2010456D01*
G01X-3699597Y2003491D01*
G01X-3705197Y1993131D01*
G01X-3707134Y1981513D01*
G01X-3707134Y1731514D01*
G01X-3706232Y1723526D01*
G01X-3703571Y1715941D01*
G01X-3699285Y1709140D01*
G01X-3699285Y1687435D01*
G01X-3819485Y1687435D01*
G01X-3826554Y1701968D01*
G01X-3836981Y1714317D01*
G01X-3850123Y1723722D01*
G01X-3865175Y1729607D01*
G01X-3881212Y1731609D01*
G01X-3897249Y1729607D01*
G01X-3912301Y1723722D01*
G01X-3925443Y1714317D01*
G01X-3935870Y1701968D01*
G01X-3942939Y1687435D01*
G01X-3946485Y1687435D01*
G01X-3953554Y1701968D01*
G01X-3963981Y1714317D01*
G01X-3977123Y1723722D01*
G01X-3992175Y1729607D01*
G01X-4008212Y1731609D01*
G01X-4024249Y1729607D01*
G01X-4039301Y1723722D01*
G01X-4052443Y1714317D01*
G01X-4062870Y1701968D01*
G01X-4069939Y1687435D01*
G01X-4073485Y1687435D01*
G01X-4073998Y1688884D01*
G01X-4073998Y1709430D01*
G01X-4061991Y1719262D01*
G01X-4052598Y1731615D01*
G01X-4046334Y1745813D01*
G01X-4043540Y1761078D01*
G01X-4044371Y1776574D01*
G01X-4048781Y1791453D01*
G01X-4056528Y1804900D01*
G01X-4067188Y1816178D01*
G01X-4080177Y1824670D01*
G01X-4094784Y1829910D01*
G01X-4110209Y1831612D01*
G01X-4125607Y1829683D01*
G01X-4140136Y1824227D01*
G01X-4152998Y1815545D01*
G01X-4163490Y1804111D01*
G01X-4171038Y1790552D01*
G01X-4175598Y1785992D01*
G01X-4175598Y1903204D01*
G01X-4114135Y1964666D01*
G01X-4106489Y1973993D01*
G01X-4100820Y1984637D01*
G01X-4097347Y1996186D01*
G01X-3855720Y1996186D01*
G37*
G36*
G01X-2306320Y1996186D02*
G01X-2295902Y1997735D01*
G01X-2286385Y2002247D01*
G01X-2278592Y2009333D01*
G01X-2273197Y2018379D01*
G01X-2270667Y2028603D01*
G01X-2128500Y2028603D01*
G01X-2128500Y1687435D01*
G01X-2270085Y1687435D01*
G01X-2277154Y1701968D01*
G01X-2287581Y1714317D01*
G01X-2300723Y1723722D01*
G01X-2315775Y1729607D01*
G01X-2331812Y1731609D01*
G01X-2347849Y1729607D01*
G01X-2362901Y1723722D01*
G01X-2376043Y1714317D01*
G01X-2386470Y1701968D01*
G01X-2393539Y1687435D01*
G01X-2397085Y1687435D01*
G01X-2404154Y1701968D01*
G01X-2414581Y1714317D01*
G01X-2427723Y1723722D01*
G01X-2442775Y1729607D01*
G01X-2458812Y1731609D01*
G01X-2474849Y1729607D01*
G01X-2489901Y1723722D01*
G01X-2503043Y1714317D01*
G01X-2513470Y1701968D01*
G01X-2520539Y1687435D01*
G01X-2524085Y1687435D01*
G01X-2524598Y1688884D01*
G01X-2524598Y1709430D01*
G01X-2512591Y1719262D01*
G01X-2503198Y1731615D01*
G01X-2496934Y1745813D01*
G01X-2494140Y1761078D01*
G01X-2494971Y1776574D01*
G01X-2499381Y1791453D01*
G01X-2507128Y1804900D01*
G01X-2517788Y1816178D01*
G01X-2530777Y1824670D01*
G01X-2545384Y1829910D01*
G01X-2560809Y1831612D01*
G01X-2576207Y1829683D01*
G01X-2590736Y1824227D01*
G01X-2603598Y1815545D01*
G01X-2614090Y1804111D01*
G01X-2621638Y1790552D01*
G01X-2626198Y1785992D01*
G01X-2626198Y1903204D01*
G01X-2564735Y1964666D01*
G01X-2557089Y1973993D01*
G01X-2551420Y1984637D01*
G01X-2547947Y1996186D01*
G01X-2306320Y1996186D01*
G37*
G36*
G01X3688080Y1996186D02*
G01X3698498Y1997735D01*
G01X3708015Y2002247D01*
G01X3715808Y2009333D01*
G01X3721203Y2018379D01*
G01X3723733Y2028603D01*
G01X3830227Y2028603D01*
G01X3832493Y2019042D01*
G01X3837271Y2010456D01*
G01X3844203Y2003491D01*
G01X3838603Y1993131D01*
G01X3836666Y1981513D01*
G01X3836666Y1731514D01*
G01X3837568Y1723526D01*
G01X3840229Y1715941D01*
G01X3844515Y1709140D01*
G01X3844515Y1687435D01*
G01X3724315Y1687435D01*
G01X3717246Y1701968D01*
G01X3706819Y1714317D01*
G01X3693677Y1723722D01*
G01X3678625Y1729607D01*
G01X3662588Y1731609D01*
G01X3646551Y1729607D01*
G01X3631499Y1723722D01*
G01X3618357Y1714317D01*
G01X3607930Y1701968D01*
G01X3600861Y1687435D01*
G01X3597315Y1687435D01*
G01X3590246Y1701968D01*
G01X3579819Y1714317D01*
G01X3566677Y1723722D01*
G01X3551625Y1729607D01*
G01X3535588Y1731609D01*
G01X3519551Y1729607D01*
G01X3504499Y1723722D01*
G01X3491357Y1714317D01*
G01X3480930Y1701968D01*
G01X3473861Y1687435D01*
G01X3470315Y1687435D01*
G01X3469802Y1688884D01*
G01X3469802Y1709430D01*
G01X3481809Y1719262D01*
G01X3491202Y1731615D01*
G01X3497466Y1745813D01*
G01X3500260Y1761078D01*
G01X3499429Y1776574D01*
G01X3495019Y1791453D01*
G01X3487272Y1804900D01*
G01X3476612Y1816178D01*
G01X3463623Y1824670D01*
G01X3449016Y1829910D01*
G01X3433591Y1831612D01*
G01X3418193Y1829683D01*
G01X3403664Y1824227D01*
G01X3390802Y1815545D01*
G01X3380310Y1804111D01*
G01X3372762Y1790552D01*
G01X3368202Y1785992D01*
G01X3368202Y1903204D01*
G01X3429665Y1964666D01*
G01X3437311Y1973993D01*
G01X3442980Y1984637D01*
G01X3446453Y1996186D01*
G01X3688080Y1996186D01*
G37*
G36*
G01X2913380Y1996186D02*
G01X2923798Y1997735D01*
G01X2933315Y2002247D01*
G01X2941108Y2009333D01*
G01X2946503Y2018379D01*
G01X2949033Y2028603D01*
G01X3055527Y2028603D01*
G01X3057793Y2019042D01*
G01X3062571Y2010456D01*
G01X3069503Y2003491D01*
G01X3063903Y1993131D01*
G01X3061966Y1981513D01*
G01X3061966Y1731514D01*
G01X3062868Y1723526D01*
G01X3065529Y1715941D01*
G01X3069815Y1709140D01*
G01X3069815Y1687435D01*
G01X2949615Y1687435D01*
G01X2942546Y1701968D01*
G01X2932119Y1714317D01*
G01X2918977Y1723722D01*
G01X2903925Y1729607D01*
G01X2887888Y1731609D01*
G01X2871851Y1729607D01*
G01X2856799Y1723722D01*
G01X2843657Y1714317D01*
G01X2833230Y1701968D01*
G01X2826161Y1687435D01*
G01X2822615Y1687435D01*
G01X2815546Y1701968D01*
G01X2805119Y1714317D01*
G01X2791977Y1723722D01*
G01X2776925Y1729607D01*
G01X2760888Y1731609D01*
G01X2744851Y1729607D01*
G01X2729799Y1723722D01*
G01X2716657Y1714317D01*
G01X2706230Y1701968D01*
G01X2699161Y1687435D01*
G01X2695615Y1687435D01*
G01X2695102Y1688884D01*
G01X2695102Y1709430D01*
G01X2707109Y1719262D01*
G01X2716502Y1731615D01*
G01X2722766Y1745813D01*
G01X2725560Y1761078D01*
G01X2724729Y1776574D01*
G01X2720319Y1791453D01*
G01X2712572Y1804900D01*
G01X2701912Y1816178D01*
G01X2688923Y1824670D01*
G01X2674316Y1829910D01*
G01X2658891Y1831612D01*
G01X2643493Y1829683D01*
G01X2628964Y1824227D01*
G01X2616102Y1815545D01*
G01X2605610Y1804111D01*
G01X2598062Y1790552D01*
G01X2593502Y1785992D01*
G01X2593502Y1903204D01*
G01X2654965Y1964666D01*
G01X2662611Y1973993D01*
G01X2668280Y1984637D01*
G01X2671753Y1996186D01*
G01X2913380Y1996186D01*
G37*
G36*
G01X4462780Y1996186D02*
G01X4473198Y1997735D01*
G01X4482715Y2002247D01*
G01X4490508Y2009333D01*
G01X4495903Y2018379D01*
G01X4498433Y2028603D01*
G01X4599686Y2028603D01*
G01X4599686Y1687435D01*
G01X4499015Y1687435D01*
G01X4491946Y1701968D01*
G01X4481519Y1714317D01*
G01X4468377Y1723722D01*
G01X4453325Y1729607D01*
G01X4437288Y1731609D01*
G01X4421251Y1729607D01*
G01X4406199Y1723722D01*
G01X4393057Y1714317D01*
G01X4382630Y1701968D01*
G01X4375561Y1687435D01*
G01X4372015Y1687435D01*
G01X4364946Y1701968D01*
G01X4354519Y1714317D01*
G01X4341377Y1723722D01*
G01X4326325Y1729607D01*
G01X4310288Y1731609D01*
G01X4294251Y1729607D01*
G01X4279199Y1723722D01*
G01X4266057Y1714317D01*
G01X4255630Y1701968D01*
G01X4248561Y1687435D01*
G01X4245015Y1687435D01*
G01X4244502Y1688884D01*
G01X4244502Y1709430D01*
G01X4256509Y1719262D01*
G01X4265902Y1731615D01*
G01X4272166Y1745813D01*
G01X4274960Y1761078D01*
G01X4274129Y1776574D01*
G01X4269719Y1791453D01*
G01X4261972Y1804900D01*
G01X4251312Y1816178D01*
G01X4238323Y1824670D01*
G01X4223716Y1829910D01*
G01X4208291Y1831612D01*
G01X4192893Y1829683D01*
G01X4178364Y1824227D01*
G01X4165502Y1815545D01*
G01X4155010Y1804111D01*
G01X4147462Y1790552D01*
G01X4142902Y1785992D01*
G01X4142902Y1903204D01*
G01X4204365Y1964666D01*
G01X4212011Y1973993D01*
G01X4217680Y1984637D01*
G01X4221153Y1996186D01*
G01X4462780Y1996186D01*
G37*
G36*
G01X2548049Y-1995678D02*
G01X2312181Y-1995678D01*
G01X2312181Y-1728584D01*
G01X2326368Y-1731382D01*
G01X2340822Y-1730984D01*
G01X2354833Y-1727411D01*
G01X2367713Y-1720838D01*
G01X2378828Y-1711588D01*
G01X2387631Y-1700117D01*
G01X2402993Y-1700117D01*
G01X2411394Y-1711166D01*
G01X2421943Y-1720187D01*
G01X2434162Y-1726771D01*
G01X2447498Y-1730620D01*
G01X2461346Y-1731560D01*
G01X2464453Y-1745822D01*
G01X2470605Y-1759059D01*
G01X2479504Y-1770629D01*
G01X2490719Y-1779972D01*
G01X2503706Y-1786635D01*
G01X2517836Y-1790295D01*
G01X2532425Y-1790776D01*
G01X2546765Y-1788053D01*
G01X2560162Y-1782259D01*
G01X2571967Y-1773674D01*
G01X2581608Y-1762715D01*
G01X2588618Y-1749912D01*
G01X2612739Y-1725790D01*
G01X2626198Y-1717599D01*
G01X2626198Y-1903204D01*
G01X2564735Y-1964666D01*
G01X2557185Y-1973849D01*
G01X2551552Y-1984318D01*
G01X2548049Y-1995678D01*
G37*
G36*
G01X3322749Y-1995678D02*
G01X3086881Y-1995678D01*
G01X3086881Y-1728584D01*
G01X3101068Y-1731382D01*
G01X3115522Y-1730984D01*
G01X3129533Y-1727411D01*
G01X3142413Y-1720838D01*
G01X3153528Y-1711588D01*
G01X3162331Y-1700117D01*
G01X3177693Y-1700117D01*
G01X3187719Y-1712827D01*
G01X3200566Y-1722675D01*
G01X3215443Y-1729056D01*
G01X3216497Y-1744454D01*
G01X3221081Y-1759192D01*
G01X3228948Y-1772471D01*
G01X3239672Y-1783571D01*
G01X3252671Y-1791893D01*
G01X3267241Y-1796983D01*
G01X3282594Y-1798568D01*
G01X3297897Y-1796561D01*
G01X3312322Y-1791070D01*
G01X3325087Y-1782394D01*
G01X3335500Y-1771002D01*
G01X3342998Y-1757512D01*
G01X3369527Y-1730983D01*
G01X3380720Y-1728399D01*
G01X3391287Y-1723891D01*
G01X3400898Y-1717599D01*
G01X3400898Y-1903204D01*
G01X3339435Y-1964666D01*
G01X3331885Y-1973849D01*
G01X3326252Y-1984318D01*
G01X3322749Y-1995678D01*
G37*
G36*
G01X4097347Y-1996186D02*
G01X3861581Y-1996186D01*
G01X3861581Y-1728584D01*
G01X3875768Y-1731382D01*
G01X3890222Y-1730984D01*
G01X3904233Y-1727411D01*
G01X3917113Y-1720838D01*
G01X3928228Y-1711588D01*
G01X3937031Y-1700117D01*
G01X3952393Y-1700117D01*
G01X3961127Y-1711516D01*
G01X3972143Y-1720727D01*
G01X3984909Y-1727304D01*
G01X3998804Y-1730927D01*
G01X4002865Y-1744491D01*
G01X4009712Y-1756884D01*
G01X4019035Y-1767541D01*
G01X4030407Y-1775976D01*
G01X4043310Y-1781804D01*
G01X4057157Y-1784760D01*
G01X4071316Y-1784709D01*
G01X4085141Y-1781654D01*
G01X4098003Y-1775733D01*
G01X4109314Y-1767217D01*
G01X4118560Y-1756494D01*
G01X4125318Y-1744052D01*
G01X4137813Y-1731557D01*
G01X4151296Y-1729595D01*
G01X4164077Y-1724873D01*
G01X4175598Y-1717599D01*
G01X4175598Y-1903204D01*
G01X4114135Y-1964666D01*
G01X4106489Y-1973993D01*
G01X4100820Y-1984637D01*
G01X4097347Y-1996186D01*
G37*
G36*
G01X-4221245Y-1995678D02*
G01X-4457011Y-1995678D01*
G01X-4457011Y-1728077D01*
G01X-4442824Y-1730874D01*
G01X-4428370Y-1730476D01*
G01X-4414359Y-1726903D01*
G01X-4401479Y-1720330D01*
G01X-4390364Y-1711081D01*
G01X-4381561Y-1699609D01*
G01X-4366199Y-1699609D01*
G01X-4357798Y-1710658D01*
G01X-4347249Y-1719679D01*
G01X-4335030Y-1726263D01*
G01X-4321694Y-1730112D01*
G01X-4307846Y-1731052D01*
G01X-4304739Y-1745314D01*
G01X-4298587Y-1758551D01*
G01X-4289688Y-1770121D01*
G01X-4278473Y-1779464D01*
G01X-4265486Y-1786127D01*
G01X-4251356Y-1789788D01*
G01X-4236767Y-1790268D01*
G01X-4222427Y-1787545D01*
G01X-4209030Y-1781751D01*
G01X-4197225Y-1773166D01*
G01X-4187584Y-1762207D01*
G01X-4180574Y-1749404D01*
G01X-4156453Y-1725283D01*
G01X-4142994Y-1717091D01*
G01X-4142994Y-1902696D01*
G01X-4204457Y-1964159D01*
G01X-4212103Y-1973485D01*
G01X-4217772Y-1984129D01*
G01X-4221245Y-1995678D01*
G37*
G36*
G01X-1219124Y-2395027D02*
G01X-1178559Y-2435593D01*
G01X-1178559Y-2695793D01*
G01X-1296630Y-2815628D01*
G01X-2230572Y-2815628D01*
G01X-2230572Y-2519064D01*
G01X-2006954Y-2519064D01*
G01X-2006954Y-2619064D01*
G01X-2005113Y-2637756D01*
G01X-1999661Y-2655730D01*
G01X-1990807Y-2672295D01*
G01X-1978891Y-2686814D01*
G01X-1964372Y-2698730D01*
G01X-1947807Y-2707584D01*
G01X-1929833Y-2713037D01*
G01X-1911140Y-2714878D01*
G01X-1892448Y-2713037D01*
G01X-1874474Y-2707584D01*
G01X-1857909Y-2698730D01*
G01X-1843390Y-2686814D01*
G01X-1831474Y-2672295D01*
G01X-1822620Y-2655730D01*
G01X-1817168Y-2637756D01*
G01X-1815327Y-2619064D01*
G01X-1815327Y-2619064D01*
G01X-1815327Y-2519064D01*
G01X-1817168Y-2500372D01*
G01X-1822620Y-2482398D01*
G01X-1831474Y-2465833D01*
G01X-1843390Y-2451313D01*
G01X-1857909Y-2439398D01*
G01X-1874474Y-2430544D01*
G01X-1892448Y-2425091D01*
G01X-1911140Y-2423250D01*
G01X-1929833Y-2425091D01*
G01X-1947807Y-2430544D01*
G01X-1964372Y-2439398D01*
G01X-1978891Y-2451313D01*
G01X-1990807Y-2465833D01*
G01X-1999661Y-2482398D01*
G01X-2005113Y-2500372D01*
G01X-2006954Y-2519064D01*
G01X-2230572Y-2519064D01*
G01X-2230572Y-1561128D01*
G01X-2044662Y-1430025D01*
G01X-1426607Y-1430025D01*
G01X-1178559Y-1678073D01*
G01X-1178559Y-1722964D01*
G01X-1219124Y-1763529D01*
G01X-1224816Y-1770946D01*
G01X-1228394Y-1779584D01*
G01X-1229614Y-1788853D01*
G01X-1229614Y-2369703D01*
G01X-1228394Y-2378972D01*
G01X-1224816Y-2387610D01*
G01X-1219124Y-2395027D01*
G37*
G36*
G01X676275Y-3147060D02*
G01X676275Y-3415816D01*
G01X500785Y-3591306D01*
G01X-1648460Y-3591306D01*
G01X-1648460Y-3103008D01*
G01X-1627319Y-3081867D01*
G01X-522845Y-3081867D01*
G01X-460628Y-3144084D01*
G01X-457332Y-3146287D01*
G01X-453444Y-3147060D01*
G01X676275Y-3147060D01*
G37*
G54D10*
G01X-3682311Y-2040777D02*
G01X-3682311Y-1728077D01*
G03X-3606861Y-1699609I19631J62190D01*
G01X-3591499Y-1699609D01*
G03X-3553749Y-1728548I55819J33722D01*
G03X-3501951Y-1796476I66237J-3204D01*
G03X-3426194Y-1757004I14439J64723D01*
G01X-3399665Y-1730475D01*
G03X-3368294Y-1717091I-9015J64588D01*
G01X-3368294Y-1902696D01*
G01X-3429757Y-1964159D01*
G03X-3447686Y-2007444I43285J-43285D01*
G01X-3447686Y-2040777D01*
G01X-3459484Y-2040777D01*
G03X-3535859Y-2040777I-38188J-54215D01*
G01X-3682311Y-2040777D01*
G01X-2907611Y-2040777D02*
G01X-2907611Y-1728077D01*
G03X-2832161Y-1699609I19631J62190D01*
G01X-2816799Y-1699609D01*
G03X-2770388Y-1730419I55819J33722D01*
G03X-2712035Y-1784253I65196J12127D01*
G03X-2643874Y-1743544I6843J65960D01*
G01X-2631379Y-1731050D01*
G03X-2593594Y-1717091I-2601J65163D01*
G01X-2593594Y-1902696D01*
G01X-2655057Y-1964159D01*
G03X-2672986Y-2007444I43285J-43285D01*
G01X-2672986Y-2040777D01*
G01X-2684784Y-2040777D01*
G03X-2761159Y-2040777I-38188J-54215D01*
G01X-2907611Y-2040777D01*
G01X-1064438Y-1673860D02*
G01X-739169Y-1673860D01*
G01X-697225Y-1715804D01*
G03X-662920Y-1730014I34305J34305D01*
G01X-316355Y-1730014D01*
G01X-86614Y-1959754D01*
G01X-86614Y-2447146D01*
G01X-423308Y-2783840D01*
G01X-656192Y-2783840D01*
G01X-789940Y-2650092D01*
G01X-789940Y-2527300D01*
G03X-792916Y-2520116I-10160J0D01*
G01X-879447Y-2433584D01*
G03X-886631Y-2430609I-7184J-7184D01*
G01X-1118526Y-2430609D01*
G01X-1183640Y-2365494D01*
G01X-1183640Y-1793062D01*
G01X-1064438Y-1673860D01*
G01X3677920Y2042160D02*
G01X3271011Y2042160D01*
G03X3139949Y2042160I-65531J-10160D01*
G01X3101340Y2042160D01*
G01X3101340Y3558540D01*
G01X3677920Y3558540D01*
G01X3677920Y2042160D01*
G01X2903220Y2042160D02*
G01X2496311Y2042160D01*
G03X2365249Y2042160I-65531J-10160D01*
G01X2326640Y2042160D01*
G01X2326640Y3558540D01*
G01X2903220Y3558540D01*
G01X2903220Y2042160D01*
G01X4452620Y2042160D02*
G01X4045711Y2042160D01*
G03X3914649Y2042160I-65531J-10160D01*
G01X3876040Y2042160D01*
G01X3876040Y3558540D01*
G01X4452620Y3558540D01*
G01X4452620Y2042160D01*
G01X-3091180Y2042160D02*
G01X-3498089Y2042160D01*
G03X-3629151Y2042160I-65531J-10160D01*
G01X-3667760Y2042160D01*
G01X-3667760Y3558540D01*
G01X-3091180Y3558540D01*
G01X-3091180Y2042160D01*
G01X-3865880Y2042160D02*
G01X-4272789Y2042160D01*
G03X-4403851Y2042160I-65531J-10160D01*
G01X-4442460Y2042160D01*
G01X-4442460Y3558540D01*
G01X-3865880Y3558540D01*
G01X-3865880Y2042160D01*
G01X-2316480Y2042160D02*
G01X-2723389Y2042160D01*
G03X-2854451Y2042160I-65531J-10160D01*
G01X-2893060Y2042160D01*
G01X-2893060Y3558540D01*
G01X-2316480Y3558540D01*
G01X-2316480Y2042160D01*
G01X-3678012Y-3558032D02*
G01X-3678012Y-2086751D01*
G01X-3327472Y-2086751D01*
G03X-3291658Y-2050937I0J35814D01*
G01X-3291658Y-2041652D01*
G01X-3271103Y-2041652D01*
G03X-3140041Y-2041652I65531J10160D01*
G01X-3101432Y-2041652D01*
G01X-3101432Y-3558032D01*
G01X-3678012Y-3558032D01*
G01X-3678012Y-3558032D02*
G01X-3678012Y-2086751D01*
G01X-3327472Y-2086751D01*
G03X-3291658Y-2050937I0J35814D01*
G01X-3291658Y-2041652D01*
G01X-3271103Y-2041652D01*
G03X-3140041Y-2041652I65531J10160D01*
G01X-3101432Y-2041652D01*
G01X-3101432Y-3558032D01*
G01X-3678012Y-3558032D01*
G01X-2903312Y-3558032D02*
G01X-2903312Y-2086751D01*
G01X-2552772Y-2086751D01*
G03X-2516958Y-2050937I0J35814D01*
G01X-2516958Y-2041652D01*
G01X-2496403Y-2041652D01*
G03X-2365341Y-2041652I65531J10160D01*
G01X-2326732Y-2041652D01*
G01X-2326732Y-3558032D01*
G01X-2903312Y-3558032D01*
G01X-2903312Y-3558032D02*
G01X-2903312Y-2086751D01*
G01X-2552772Y-2086751D01*
G03X-2516958Y-2050937I0J35814D01*
G01X-2516958Y-2041652D01*
G01X-2496403Y-2041652D01*
G03X-2365341Y-2041652I65531J10160D01*
G01X-2326732Y-2041652D01*
G01X-2326732Y-3558032D01*
G01X-2903312Y-3558032D01*
G01X-4241745Y-2041652D02*
G01X-4045803Y-2041652D01*
G03X-3914741Y-2041652I65531J10160D01*
G01X-3876132Y-2041652D01*
G01X-3876132Y-3558032D01*
G01X-4452712Y-3558032D01*
G01X-4452712Y-2041652D01*
G01X-4313159Y-2041652D01*
G03X-4241745Y-2041652I35707J55880D01*
G01X3091180Y-2042160D02*
G01X3288596Y-2042160D01*
G03X3340804Y-2042160I26104J60960D01*
G01X3498089Y-2042160D01*
G03X3629151Y-2042160I65531J10160D01*
G01X3667760Y-2042160D01*
G01X3667760Y-3558540D01*
G01X3091180Y-3558540D01*
G01X3091180Y-2042160D01*
G01X3865880Y-2042160D02*
G01X4017381Y-2042160D01*
G03X4080139Y-2042160I31379J58420D01*
G01X4272789Y-2042160D01*
G03X4403851Y-2042160I65531J10160D01*
G01X4442460Y-2042160D01*
G01X4442460Y-3558540D01*
G01X3865880Y-3558540D01*
G01X3865880Y-2042160D01*
G01X2527447Y-2042160D02*
G01X2723389Y-2042160D01*
G03X2854451Y-2042160I65531J10160D01*
G01X2893060Y-2042160D01*
G01X2893060Y-3558540D01*
G01X2316480Y-3558540D01*
G01X2316480Y-2042160D01*
G01X2456033Y-2042160D01*
G03X2527447Y-2042160I35707J55880D01*
G01X-1393825Y-2475865D02*
G01X-1393825Y-2822193D01*
G03X-1431034Y-2821854I-19377J-84419D01*
G01X-1515028Y-2821854D01*
G03X-1575147Y-2858586I0J-67564D01*
G03X-1696538Y-2898817I-55166J-36801D01*
G03X-1571641Y-2926294I66225J3429D01*
G03X-1515028Y-2956982I56613J36876D01*
G01X-1483664Y-2956982D01*
G03X-1474447Y-2967858I70462J50369D01*
G01X-1421959Y-3020345D01*
G03X-1393825Y-3039135I61245J61245D01*
G01X-1393825Y-3591306D01*
G01X-2221865Y-3591306D01*
G01X-2221865Y-2475865D01*
G01X-1996663Y-2475865D01*
G03X-2006954Y-2519064I85523J-43199D01*
G01X-2006954Y-2619064D01*
G03X-1815327Y-2619064I95814J0D01*
G01X-1815327Y-2519064D01*
G03X-1825618Y-2475865I-95814J0D01*
G01X-1393825Y-2475865D01*
G01X3091088Y-2041652D02*
G01X3287441Y-2041652D01*
G03X3341959Y-2041652I27259J60452D01*
G01X3498012Y-2041652D01*
G03X3629228Y-2041652I65608J9652D01*
G01X3667668Y-2041652D01*
G01X3667668Y-3558032D01*
G01X3091088Y-3558032D01*
G01X3091088Y-2041652D01*
G01X2528229Y-2041652D02*
G01X2723312Y-2041652D01*
G03X2854528Y-2041652I65608J9652D01*
G01X2892968Y-2041652D01*
G01X2892968Y-3558032D01*
G01X2316388Y-3558032D01*
G01X2316388Y-2041652D01*
G01X2455251Y-2041652D01*
G03X2528229Y-2041652I36489J55372D01*
G01X-3081020Y1996186D02*
G03X-3045367Y2028603I0J35814D01*
G01X-2938873Y2028603D01*
G03X-2924897Y2003491I35653J3397D01*
G03X-2932434Y1981513I28277J-21978D01*
G01X-2932434Y1731514D01*
G03X-2924585Y1709140I35814J0D01*
G01X-2924585Y1687435D01*
G01X-3044785Y1687435D01*
G03X-3168239Y1687435I-61727J-21040D01*
G01X-3171785Y1687435D01*
G03X-3295239Y1687435I-61727J-21040D01*
G01X-3298785Y1687435D01*
G01X-3299298Y1688884D01*
G01X-3299298Y1709430D01*
G03X-3292488Y1816178I-35722J55870D01*
G03X-3396338Y1790552I-42532J-50878D01*
G01X-3400898Y1785992D01*
G01X-3400898Y1903204D01*
G01X-3339435Y1964666D01*
G03X-3322647Y1996186I-43285J43285D01*
G01X-3081020Y1996186D01*
G01X-3855720Y1996186D02*
G03X-3820067Y2028603I0J35814D01*
G01X-3713573Y2028603D01*
G03X-3699597Y2003491I35653J3397D01*
G03X-3707134Y1981513I28277J-21978D01*
G01X-3707134Y1731514D01*
G03X-3699285Y1709140I35814J0D01*
G01X-3699285Y1687435D01*
G01X-3819485Y1687435D01*
G03X-3942939Y1687435I-61727J-21040D01*
G01X-3946485Y1687435D01*
G03X-4069939Y1687435I-61727J-21040D01*
G01X-4073485Y1687435D01*
G01X-4073998Y1688884D01*
G01X-4073998Y1709430D01*
G03X-4067188Y1816178I-35722J55870D01*
G03X-4171038Y1790552I-42532J-50878D01*
G01X-4175598Y1785992D01*
G01X-4175598Y1903204D01*
G01X-4114135Y1964666D01*
G03X-4097347Y1996186I-43285J43285D01*
G01X-3855720Y1996186D01*
G01X-2306320Y1996186D02*
G03X-2270667Y2028603I0J35814D01*
G01X-2128500Y2028603D01*
G01X-2128500Y1687435D01*
G01X-2270085Y1687435D01*
G03X-2393539Y1687435I-61727J-21040D01*
G01X-2397085Y1687435D01*
G03X-2520539Y1687435I-61727J-21040D01*
G01X-2524085Y1687435D01*
G01X-2524598Y1688884D01*
G01X-2524598Y1709430D01*
G03X-2517788Y1816178I-35722J55870D01*
G03X-2621638Y1790552I-42532J-50878D01*
G01X-2626198Y1785992D01*
G01X-2626198Y1903204D01*
G01X-2564735Y1964666D01*
G03X-2547947Y1996186I-43285J43285D01*
G01X-2306320Y1996186D01*
G01X3688080Y1996186D02*
G03X3723733Y2028603I0J35814D01*
G01X3830227Y2028603D01*
G03X3844203Y2003491I35653J3397D01*
G03X3836666Y1981513I28277J-21978D01*
G01X3836666Y1731514D01*
G03X3844515Y1709140I35814J0D01*
G01X3844515Y1687435D01*
G01X3724315Y1687435D01*
G03X3600861Y1687435I-61727J-21040D01*
G01X3597315Y1687435D01*
G03X3473861Y1687435I-61727J-21040D01*
G01X3470315Y1687435D01*
G01X3469802Y1688884D01*
G01X3469802Y1709430D01*
G03X3476612Y1816178I-35722J55870D01*
G03X3372762Y1790552I-42532J-50878D01*
G01X3368202Y1785992D01*
G01X3368202Y1903204D01*
G01X3429665Y1964666D01*
G03X3446453Y1996186I-43285J43285D01*
G01X3688080Y1996186D01*
G01X2913380Y1996186D02*
G03X2949033Y2028603I0J35814D01*
G01X3055527Y2028603D01*
G03X3069503Y2003491I35653J3397D01*
G03X3061966Y1981513I28277J-21978D01*
G01X3061966Y1731514D01*
G03X3069815Y1709140I35814J0D01*
G01X3069815Y1687435D01*
G01X2949615Y1687435D01*
G03X2826161Y1687435I-61727J-21040D01*
G01X2822615Y1687435D01*
G03X2699161Y1687435I-61727J-21040D01*
G01X2695615Y1687435D01*
G01X2695102Y1688884D01*
G01X2695102Y1709430D01*
G03X2701912Y1816178I-35722J55870D01*
G03X2598062Y1790552I-42532J-50878D01*
G01X2593502Y1785992D01*
G01X2593502Y1903204D01*
G01X2654965Y1964666D01*
G03X2671753Y1996186I-43285J43285D01*
G01X2913380Y1996186D01*
G01X4462780Y1996186D02*
G03X4498433Y2028603I0J35814D01*
G01X4599686Y2028603D01*
G01X4599686Y1687435D01*
G01X4499015Y1687435D01*
G03X4375561Y1687435I-61727J-21040D01*
G01X4372015Y1687435D01*
G03X4248561Y1687435I-61727J-21040D01*
G01X4245015Y1687435D01*
G01X4244502Y1688884D01*
G01X4244502Y1709430D01*
G03X4251312Y1816178I-35722J55870D01*
G03X4147462Y1790552I-42532J-50878D01*
G01X4142902Y1785992D01*
G01X4142902Y1903204D01*
G01X4204365Y1964666D01*
G03X4221153Y1996186I-43285J43285D01*
G01X4462780Y1996186D01*
G01X2548049Y-1995678D02*
G01X2312181Y-1995678D01*
G01X2312181Y-1728584D01*
G03X2387631Y-1700117I19631J62190D01*
G01X2402993Y-1700117D01*
G03X2461346Y-1731560I55819J33722D01*
G03X2517836Y-1790295I65954J6900D01*
G03X2588618Y-1749912I9464J65635D01*
G01X2612739Y-1725790D01*
G03X2626198Y-1717599I-26927J59396D01*
G01X2626198Y-1903204D01*
G01X2564735Y-1964666D01*
G03X2548049Y-1995678I43285J-43285D01*
G01X3322749Y-1995678D02*
G01X3086881Y-1995678D01*
G01X3086881Y-1728584D01*
G03X3162331Y-1700117I19631J62190D01*
G01X3177693Y-1700117D01*
G03X3215443Y-1729056I55819J33722D01*
G03X3267241Y-1796983I66237J-3204D01*
G03X3342998Y-1757512I14439J64723D01*
G01X3369527Y-1730983D01*
G03X3400898Y-1717599I-9015J64588D01*
G01X3400898Y-1903204D01*
G01X3339435Y-1964666D01*
G03X3322749Y-1995678I43285J-43285D01*
G01X4097347Y-1996186D02*
G01X3861581Y-1996186D01*
G01X3861581Y-1728584D01*
G03X3937031Y-1700117I19631J62190D01*
G01X3952393Y-1700117D01*
G03X3998804Y-1730927I55819J33722D01*
G03X4057157Y-1784760I65196J12127D01*
G03X4125318Y-1744052I6843J65960D01*
G01X4137813Y-1731557D01*
G03X4175598Y-1717599I-2601J65163D01*
G01X4175598Y-1903204D01*
G01X4114135Y-1964666D01*
G03X4097347Y-1996186I43285J-43285D01*
G01X-4221245Y-1995678D02*
G01X-4457011Y-1995678D01*
G01X-4457011Y-1728077D01*
G03X-4381561Y-1699609I19631J62190D01*
G01X-4366199Y-1699609D01*
G03X-4307846Y-1731052I55819J33722D01*
G03X-4251356Y-1789788I65954J6900D01*
G03X-4180574Y-1749404I9464J65635D01*
G01X-4156453Y-1725283D01*
G03X-4142994Y-1717091I-26927J59396D01*
G01X-4142994Y-1902696D01*
G01X-4204457Y-1964159D01*
G03X-4221245Y-1995678I43285J-43285D01*
G01X-1219124Y-2395027D02*
G01X-1178559Y-2435593D01*
G01X-1178559Y-2695793D01*
G01X-1296630Y-2815628D01*
G01X-2230572Y-2815628D01*
G01X-2230572Y-1561128D01*
G01X-2044662Y-1430025D01*
G01X-1426607Y-1430025D01*
G01X-1178559Y-1678073D01*
G01X-1178559Y-1722964D01*
G01X-1219124Y-1763529D01*
G03X-1229614Y-1788853I25324J-25324D01*
G01X-1229614Y-2369703D01*
G03X-1219124Y-2395027I35814J0D01*
G01X-1815327Y-2619064D02*
G01X-1815327Y-2519064D01*
G03X-2006954Y-2519064I-95814J0D01*
G01X-2006954Y-2619064D01*
G03X-1815327Y-2619064I95814J0D01*
G01X676275Y-3147060D02*
G01X676275Y-3415816D01*
G01X500785Y-3591306D01*
G01X-1648460Y-3591306D01*
G01X-1648460Y-3103008D01*
G01X-1627319Y-3081867D01*
G01X-522845Y-3081867D01*
G01X-460628Y-3144084D01*
G03X-453444Y-3147060I7184J7184D01*
G01X676275Y-3147060D01*
G04 Copper End*

G04 PolygonModel Start*
G54D11*
G01X786027Y-171591D02*
G01X786027Y-101353D01*
G01X791154Y-96226D01*
G01X1659788Y-2019300D02*
G01X1614545Y-2064544D01*
G01X1614545Y-2087164D01*
G01X1659788Y-2132408D01*
G01X1659788Y-2146300D01*
G01X1743812Y-2146300D02*
G01X1743812Y-2273287D01*
G01X1743799Y-2273300D01*
G01X1560070Y-2274189D02*
G01X1658912Y-2274189D01*
G01X1659801Y-2273300D01*
G01X-126200Y75006D02*
G01X-244214Y75006D01*
G01X-245408Y76200D01*
G01X-126200Y-75006D02*
G01X-227406Y-75006D01*
G01X-228600Y-76200D01*
G01X60404Y-246797D02*
G01X60404Y-111648D01*
G01X50000Y-101244D01*
G01X-13Y-101244D02*
G01X-13Y-186380D01*
G01X143807Y-330200D01*
G01X165100Y-330200D01*

G04 Pad Start*
G54D12*
G01X3385029Y3238500D03*
G01X2610329Y3238500D03*
G01X4159729Y3238500D03*
G01X-2609371Y3238500D03*
G01X-4158771Y3238500D03*
G01X-3384071Y3238500D03*
G54D13*
G01X-4159821Y-3237992D03*
G01X-2610421Y-3237992D03*
G01X-3385121Y-3237992D03*
G01X2609371Y-3238500D03*
G01X4158771Y-3238500D03*
G01X3384071Y-3238500D03*
G54D14*
G01X-3855720Y235102D03*
G01X-3855720Y95098D03*
G01X393692Y-70002D03*
G01X393692Y70002D03*
G54D15*
G01X-79601Y-246797D03*
G01X60404Y-246797D03*
G01X1720698Y292100D03*
G01X1860702Y292100D03*
G01X2178202Y292100D03*
G01X2038198Y292100D03*
G54D14*
G01X3855720Y-235102D03*
G01X3855720Y-95098D03*
G01X-292100Y-641198D03*
G01X-292100Y-781202D03*
G01X241300Y-653898D03*
G01X241300Y-793902D03*
G54D15*
G01X-260502Y-1092200D03*
G01X-120498Y-1092200D03*
G54D14*
G01X-2913472Y-234595D03*
G01X-2913472Y-94590D03*
G01X2913380Y235102D03*
G01X2913380Y95098D03*
G54D17*
G01X4310380Y76200D03*
G01X4310380Y330200D03*
G01X4310380Y584200D03*
G54D18*
G01X4310380Y838200D03*
G54D17*
G01X-114300Y-1536700D03*
G01X-368300Y-1536700D03*
G01X-622300Y-1536700D03*
G54D18*
G01X-876300Y-1536700D03*
G54D17*
G01X-2458720Y76200D03*
G01X-2458720Y330200D03*
G01X-2458720Y584200D03*
G54D18*
G01X-2458720Y838200D03*
G54D17*
G01X2458720Y-76200D03*
G01X2458720Y-330200D03*
G01X2458720Y-584200D03*
G54D18*
G01X2458720Y-838200D03*
G54D17*
G01X-4310472Y-75692D03*
G01X-4310472Y-329692D03*
G01X-4310472Y-583692D03*
G54D18*
G01X-4310472Y-837692D03*
G54D19*
G01X-4010630Y226036D03*
G01X-4010630Y310034D03*
G01X4010630Y-226036D03*
G01X4010630Y-310034D03*
G01X2758470Y226036D03*
G01X2758470Y310034D03*
G01X1743799Y-2273300D03*
G01X1659801Y-2273300D03*
G01X-2758562Y-225528D03*
G01X-2758562Y-309526D03*
G54D20*
G01X2611680Y2551508D03*
G54D21*
G01X2840280Y1856514D03*
G01X2383080Y1856514D03*
G54D20*
G01X3386380Y2551508D03*
G54D21*
G01X3614980Y1856514D03*
G01X3157780Y1856514D03*
G54D20*
G01X4161080Y2551508D03*
G54D21*
G01X4389680Y1856514D03*
G01X3932480Y1856514D03*
G54D20*
G01X-3382720Y2551508D03*
G54D21*
G01X-3154120Y1856514D03*
G01X-3611320Y1856514D03*
G54D20*
G01X-4157420Y2551508D03*
G54D21*
G01X-3928820Y1856514D03*
G01X-4386020Y1856514D03*
G54D20*
G01X-2608020Y2551508D03*
G54D21*
G01X-2379420Y1856514D03*
G01X-2836620Y1856514D03*
G54D20*
G01X3382720Y-2551508D03*
G54D21*
G01X3154120Y-1856514D03*
G01X3611320Y-1856514D03*
G54D20*
G01X4157420Y-2551508D03*
G54D21*
G01X3928820Y-1856514D03*
G01X4386020Y-1856514D03*
G54D20*
G01X2608020Y-2551508D03*
G54D21*
G01X2379420Y-1856514D03*
G01X2836620Y-1856514D03*
G54D20*
G01X-3386472Y-2551001D03*
G54D21*
G01X-3615072Y-1856006D03*
G01X-3157872Y-1856006D03*
G54D20*
G01X-2611772Y-2551001D03*
G54D21*
G01X-2840372Y-1856006D03*
G01X-2383172Y-1856006D03*
G54D20*
G01X-4161172Y-2551001D03*
G54D21*
G01X-4389772Y-1856006D03*
G01X-3932572Y-1856006D03*
G54D22*
G01X-3563620Y532536D03*
G01X-3563620Y381864D03*
G01X2356329Y1586636D03*
G01X2356329Y1435964D03*
G01X-3638071Y1586636D03*
G01X-3638071Y1435964D03*
G01X-2863371Y1586636D03*
G01X-2863371Y1435964D03*
G01X-4412771Y1586636D03*
G01X-4412771Y1435964D03*
G01X3563620Y-532536D03*
G01X3563620Y-381864D03*
G01X3205480Y532536D03*
G01X3205480Y381864D03*
G01X3131029Y1586636D03*
G01X3131029Y1435964D03*
G01X3905729Y1586636D03*
G01X3905729Y1435964D03*
G01X3638071Y-1586636D03*
G01X3638071Y-1435964D03*
G01X2863371Y-1586636D03*
G01X2863371Y-1435964D03*
G01X4412771Y-1586636D03*
G01X4412771Y-1435964D03*
G01X-3205572Y-532029D03*
G01X-3205572Y-381356D03*
G01X-3131121Y-1586129D03*
G01X-3131121Y-1435456D03*
G01X-3905821Y-1586129D03*
G01X-3905821Y-1435456D03*
G01X-2356421Y-1586129D03*
G01X-2356421Y-1435456D03*
G54D23*
G01X-2712812Y1079551D03*
G01X-2585812Y1079551D03*
G01X-2458812Y1079551D03*
G01X-2331812Y1079551D03*
G01X-2712812Y1593545D03*
G01X-2585812Y1593545D03*
G01X-2458812Y1593545D03*
G01X-2331812Y1593545D03*
G54D24*
G01X-126200Y75006D03*
G01X-126200Y24994D03*
G01X-126200Y-24994D03*
G01X-126200Y-75006D03*
G54D25*
G01X-50000Y-101244D03*
G01X-13Y-101244D03*
G01X50000Y-101244D03*
G54D24*
G01X126200Y-75006D03*
G01X126200Y-24994D03*
G01X126200Y24994D03*
G01X126200Y75006D03*
G54D25*
G01X50000Y101244D03*
G01X-13Y101244D03*
G01X-50000Y101244D03*
G54D26*
G01X1807489Y135992D03*
G01X1872513Y135992D03*
G01X1937487Y135992D03*
G01X2002511Y135992D03*
G01X1807489Y-8992D03*
G01X1872513Y-8992D03*
G01X1937487Y-8992D03*
G01X2002511Y-8992D03*
G54D27*
G01X49619Y-951801D03*
G01X-394Y-951801D03*
G01X-50381Y-951801D03*
G01X-100393Y-951801D03*
G54D28*
G01X-151701Y-900519D03*
G01X-151701Y-850506D03*
G01X-151701Y-800519D03*
G01X-151701Y-750506D03*
G54D27*
G01X-100419Y-699198D03*
G01X-50406Y-699198D03*
G01X-419Y-699198D03*
G01X49594Y-699198D03*
G54D28*
G01X100902Y-750481D03*
G01X100902Y-800494D03*
G01X100902Y-850481D03*
G01X100902Y-900493D03*
G54D23*
G01X-4262212Y1079551D03*
G01X-4135212Y1079551D03*
G01X-4008212Y1079551D03*
G01X-3881212Y1079551D03*
G01X-4262212Y1593545D03*
G01X-4135212Y1593545D03*
G01X-4008212Y1593545D03*
G01X-3881212Y1593545D03*
G01X-3487512Y1079551D03*
G01X-3360512Y1079551D03*
G01X-3233512Y1079551D03*
G01X-3106512Y1079551D03*
G01X-3487512Y1593545D03*
G01X-3360512Y1593545D03*
G01X-3233512Y1593545D03*
G01X-3106512Y1593545D03*
G01X2712812Y-1079551D03*
G01X2585812Y-1079551D03*
G01X2458812Y-1079551D03*
G01X2331812Y-1079551D03*
G01X2712812Y-1593545D03*
G01X2585812Y-1593545D03*
G01X2458812Y-1593545D03*
G01X2331812Y-1593545D03*
G01X4262212Y-1079551D03*
G01X4135212Y-1079551D03*
G01X4008212Y-1079551D03*
G01X3881212Y-1079551D03*
G01X4262212Y-1593545D03*
G01X4135212Y-1593545D03*
G01X4008212Y-1593545D03*
G01X3881212Y-1593545D03*
G01X3487512Y-1079551D03*
G01X3360512Y-1079551D03*
G01X3233512Y-1079551D03*
G01X3106512Y-1079551D03*
G01X3487512Y-1593545D03*
G01X3360512Y-1593545D03*
G01X3233512Y-1593545D03*
G01X3106512Y-1593545D03*
G01X-4056380Y-1079043D03*
G01X-4183380Y-1079043D03*
G01X-4310380Y-1079043D03*
G01X-4437380Y-1079043D03*
G01X-4056380Y-1593037D03*
G01X-4183380Y-1593037D03*
G01X-4310380Y-1593037D03*
G01X-4437380Y-1593037D03*
G01X-2506980Y-1079043D03*
G01X-2633980Y-1079043D03*
G01X-2760980Y-1079043D03*
G01X-2887980Y-1079043D03*
G01X-2506980Y-1593037D03*
G01X-2633980Y-1593037D03*
G01X-2760980Y-1593037D03*
G01X-2887980Y-1593037D03*
G01X2506888Y1079551D03*
G01X2633888Y1079551D03*
G01X2760888Y1079551D03*
G01X2887888Y1079551D03*
G01X2506888Y1593545D03*
G01X2633888Y1593545D03*
G01X2760888Y1593545D03*
G01X2887888Y1593545D03*
G01X3281588Y1079551D03*
G01X3408588Y1079551D03*
G01X3535588Y1079551D03*
G01X3662588Y1079551D03*
G01X3281588Y1593545D03*
G01X3408588Y1593545D03*
G01X3535588Y1593545D03*
G01X3662588Y1593545D03*
G01X4056288Y1079551D03*
G01X4183288Y1079551D03*
G01X4310288Y1079551D03*
G01X4437288Y1079551D03*
G01X4056288Y1593545D03*
G01X4183288Y1593545D03*
G01X4310288Y1593545D03*
G01X4437288Y1593545D03*
G01X-3281680Y-1079043D03*
G01X-3408680Y-1079043D03*
G01X-3535680Y-1079043D03*
G01X-3662680Y-1079043D03*
G01X-3281680Y-1593037D03*
G01X-3408680Y-1593037D03*
G01X-3535680Y-1593037D03*
G01X-3662680Y-1593037D03*
G54D29*
G01X702004Y-171591D03*
G01X786027Y-171591D03*
G01X1210412Y-2006600D03*
G01X1126388Y-2006600D03*
G54D30*
G01X368300Y-1769212D03*
G01X368300Y-1685188D03*
G54D29*
G01X2668168Y444500D03*
G01X2752192Y444500D03*
G01X1743812Y-2019300D03*
G01X1659788Y-2019300D03*
G01X1743812Y-2146300D03*
G01X1659788Y-2146300D03*
G54D15*
G01X527202Y-1930400D03*
G01X387198Y-1930400D03*
G54D31*
G01X3073298Y76200D03*
G01X3159862Y76200D03*
G54D29*
G01X2752192Y571500D03*
G01X2668168Y571500D03*
G01X-4016908Y571500D03*
G01X-4100932Y571500D03*
G01X4016908Y-571500D03*
G01X4100932Y-571500D03*
G01X-2752284Y-570992D03*
G01X-2668260Y-570992D03*
G01X-4100932Y444500D03*
G01X-4016908Y444500D03*
G01X4100932Y-444500D03*
G01X4016908Y-444500D03*
G01X-2668260Y-443992D03*
G01X-2752284Y-443992D03*
G54D15*
G01X920598Y-111760D03*
G01X1060602Y-111760D03*
G54D32*
G01X754380Y1196340D03*
G54D33*
G01X1383436Y-2171700D03*
G01X1232764Y-2171700D03*
G54D34*
G01X-411490Y524025D03*
G01X-506486Y751025D03*
G01X-316494Y751025D03*
G54D35*
G01X-659397Y761048D03*
G01X-849389Y761048D03*
G01X-754393Y514033D03*
G54D30*
G01X241300Y3912D03*
G01X241300Y-80112D03*
G54D29*
G01X-402704Y396240D03*
G01X-318681Y396240D03*
G01X-499212Y867764D03*
G01X-415188Y867764D03*
G01X-842112Y878840D03*
G01X-758088Y878840D03*
G01X-745604Y383540D03*
G01X-661581Y383540D03*
G54D36*
G01X393700Y297282D03*
G01X393700Y210718D03*
G01X266700Y297282D03*
G01X266700Y210718D03*
G54D37*
G01X-561130Y-2569064D03*
G01X-1911140Y-2569064D03*
G54D38*
G01X-876141Y-1969065D03*
G01X-1596130Y-1969065D03*
G54D39*
G01X1036599Y-2565199D03*
G01X1066597Y-2565199D03*
G01X1116609Y-2565199D03*
G01X1146607Y-2565199D03*
G01X1196594Y-2565199D03*
G01X1246607Y-2565199D03*
G01X1296594Y-2565199D03*
G01X1346606Y-2565199D03*
G01X1396594Y-2565199D03*
G01X1446606Y-2565199D03*
G01X1546606Y-2565199D03*
G01X1676603Y-2565199D03*
G01X1706601Y-2565199D03*
G01X1496568Y-2565199D03*
G01X1596591Y-2565197D03*
G01X1626588Y-2565197D03*
G54D40*
G01X939597Y-3048206D03*
G01X1803603Y-3048206D03*
G54D41*
G01X1803603Y-2630198D03*
G01X939597Y-2630198D03*
G54D42*
G01X-1845201Y43104D03*
G01X-1844705Y-1236904D03*
G54D43*
G01X-593202Y-148895D03*
G01X-593202Y-275895D03*
G01X-593202Y-402895D03*
G01X-593202Y-529895D03*
G01X-593202Y-656895D03*
G01X-593202Y-783895D03*
G01X-593202Y-910895D03*
G01X-593202Y-1037895D03*
G54D44*
G01X565810Y-1692199D03*
G01X565810Y-1642212D03*
G01X565810Y-1592199D03*
G01X565810Y-1542212D03*
G01X565810Y-1492199D03*
G01X565810Y-1442212D03*
G01X565810Y-1392199D03*
G01X565810Y-1342212D03*
G01X565810Y-1292200D03*
G01X565810Y-1242212D03*
G01X565810Y-1192200D03*
G01X565810Y-1142187D03*
G01X565810Y-1092200D03*
G01X565810Y-1042187D03*
G01X565810Y-992200D03*
G01X565810Y-942188D03*
G01X565810Y-892200D03*
G01X565810Y-842188D03*
G01X565810Y-792201D03*
G01X565810Y-742188D03*
G01X565810Y-692201D03*
G01X565810Y-642188D03*
G01X565810Y-592201D03*
G01X565810Y-542188D03*
G01X565810Y-492201D03*
G54D45*
G01X720801Y-337210D03*
G01X770788Y-337210D03*
G01X820801Y-337210D03*
G01X870788Y-337210D03*
G01X920801Y-337210D03*
G01X970788Y-337210D03*
G01X1020801Y-337210D03*
G01X1070788Y-337210D03*
G01X1120800Y-337210D03*
G01X1170788Y-337210D03*
G01X1220800Y-337210D03*
G01X1270813Y-337210D03*
G01X1320800Y-337210D03*
G01X1370813Y-337210D03*
G01X1420800Y-337210D03*
G01X1470812Y-337210D03*
G01X1520800Y-337210D03*
G01X1570812Y-337210D03*
G01X1620799Y-337210D03*
G01X1670812Y-337210D03*
G01X1720799Y-337210D03*
G01X1770812Y-337210D03*
G01X1820799Y-337210D03*
G01X1870812Y-337210D03*
G01X1920799Y-337210D03*
G54D44*
G01X2075790Y-492201D03*
G01X2075790Y-542188D03*
G01X2075790Y-592201D03*
G01X2075790Y-642188D03*
G01X2075790Y-692201D03*
G01X2075790Y-742188D03*
G01X2075790Y-792201D03*
G01X2075790Y-842188D03*
G01X2075790Y-892200D03*
G01X2075790Y-942188D03*
G01X2075790Y-992200D03*
G01X2075790Y-1042187D03*
G01X2075790Y-1092200D03*
G01X2075790Y-1142187D03*
G01X2075790Y-1192200D03*
G01X2075790Y-1242212D03*
G01X2075790Y-1292200D03*
G01X2075790Y-1342212D03*
G01X2075790Y-1392199D03*
G01X2075790Y-1442212D03*
G01X2075790Y-1492199D03*
G01X2075790Y-1542212D03*
G01X2075790Y-1592199D03*
G01X2075790Y-1642212D03*
G01X2075790Y-1692199D03*
G54D45*
G01X1920799Y-1847190D03*
G01X1870812Y-1847190D03*
G01X1820799Y-1847190D03*
G01X1770812Y-1847190D03*
G01X1720799Y-1847190D03*
G01X1670812Y-1847190D03*
G01X1620799Y-1847190D03*
G01X1570812Y-1847190D03*
G01X1520800Y-1847190D03*
G01X1470812Y-1847190D03*
G01X1420800Y-1847190D03*
G01X1370813Y-1847190D03*
G01X1320800Y-1847190D03*
G01X1270813Y-1847190D03*
G01X1220800Y-1847190D03*
G01X1170788Y-1847190D03*
G01X1120800Y-1847190D03*
G01X1070788Y-1847190D03*
G01X1020801Y-1847190D03*
G01X970788Y-1847190D03*
G01X920801Y-1847190D03*
G01X870788Y-1847190D03*
G01X820801Y-1847190D03*
G01X770788Y-1847190D03*
G01X720801Y-1847190D03*
G54D46*
G01X-251396Y-2959100D03*
G01X228613Y-2959100D03*
G01X708597Y-2959100D03*
G54D31*
G01X-3695802Y76200D03*
G01X-3609238Y76200D03*
G01X3695802Y-76200D03*
G01X3609238Y-76200D03*
G01X-3073390Y-75692D03*
G01X-3159954Y-75692D03*
G01X309982Y-1574800D03*
G01X223418Y-1574800D03*
G54D47*
G01X-2719921Y203200D03*
G01X-3619919Y203200D03*
G01X2719921Y-203200D03*
G01X3619919Y-203200D03*
G01X-4049271Y-202692D03*
G01X-3149273Y-202692D03*
G54D48*
G01X76200Y-2456599D03*
G01X76200Y-1556601D03*
G54D47*
G01X4049179Y203200D03*
G01X3149181Y203200D03*
G04 Pad End*

G04 Via Start*
G54D49*
G01X-127000Y-2006600D03*
G01X-228600Y-1917700D03*
G01X-317500Y-1828800D03*
G01X-419100Y-1739900D03*
G01X-656323Y-1789863D03*
G01X-1051560Y-1772920D03*
G01X-558800Y-1917700D03*
G01X-584200Y-2057400D03*
G01X-685800Y-2171700D03*
G01X-444500Y-2057400D03*
G01X-2003034Y-2189652D03*
G01X-1917700Y-1638300D03*
G01X-1689100Y-1727200D03*
G01X-1536700Y-1727200D03*
G01X-1308100Y-1828800D03*
G01X-1397000Y-1790700D03*
G01X-1333500Y-2032000D03*
G01X-1308100Y-1943100D03*
G01X-1752600Y-2298700D03*
G01X-1638300Y-2324100D03*
G01X-1689100Y-2235200D03*
G01X-1879600Y-2120900D03*
G01X-1866900Y-1905000D03*
G01X-1905000Y-1993900D03*
G01X-1842322Y-1772571D03*
G01X-1841500Y-2247900D03*
G01X-2044700Y-1955800D03*
G01X-1955800Y-1803400D03*
G01X-1470434Y-2165672D03*
G01X-1470434Y-2238346D03*
G01X-1470434Y-2305711D03*
G01X-1470434Y-2382463D03*
G01X-673100Y-50800D03*
G01X520700Y-2679700D03*
G01X-1515028Y-2889418D03*
G01X-1413202Y-2906612D03*
G01X-838200Y1361440D03*
G01X330200Y-495300D03*
G01X215900Y-2044700D03*
G01X101600Y-1397000D03*
G01X-708660Y-1165860D03*
G01X-2621280Y-50800D03*
G01X190500Y254000D03*
G01X2006600Y-266700D03*
G01X1866900Y-482600D03*
G01X469900Y431800D03*
G01X304800Y496509D03*
G01X711200Y-927100D03*
G01X787400Y-1003300D03*
G01X685800Y0D03*
G01X1778000Y-609600D03*
G01X749300Y-647700D03*
G01X825500Y-546100D03*
G01X584200Y-165100D03*
G01X584200Y-419100D03*
G01X634449Y-358723D03*
G01X576600Y-295393D03*
G01X-368300Y-327660D03*
G01X25400Y-1206500D03*
G01X-101600Y-1244600D03*
G01X35018Y668562D03*
G01X-203200Y713740D03*
G01X48260Y589280D03*
G01X1892300Y-1612900D03*
G01X431800Y-1549400D03*
G01X698500Y-1562100D03*
G01X552298Y-1756512D03*
G01X436677Y-1642212D03*
G01X863600Y-2006600D03*
G01X774700Y-1612900D03*
G01X800100Y-1701800D03*
G01X1028700Y-1993900D03*
G01X-482600Y1202027D03*
G01X-393700Y967740D03*
G01X-406400Y1209040D03*
G01X1879600Y-1435100D03*
G01X-38100Y1221740D03*
G01X101600Y904240D03*
G01X25400Y828040D03*
G01X-63500Y904240D03*
G01X-938612Y913279D03*
G01X-304800Y916940D03*
G01X-228600Y955040D03*
G01X-152400Y904240D03*
G01X1689100Y-139700D03*
G01X1879086Y-101600D03*
G01X459800Y-431800D03*
G01X368300Y-660400D03*
G01X1117600Y-546100D03*
G01X1041400Y-482600D03*
G01X1171765Y-1717200D03*
G01X1210412Y-2080376D03*
G01X1059180Y-1163320D03*
G01X923905Y-1158895D03*
G01X1484300Y25400D03*
G01X1404514Y-87696D03*
G01X1333500Y25400D03*
G01X1257585Y-82224D03*
G01X1040623Y63500D03*
G01X357407Y1033047D03*
G01X-1175378Y1025518D03*
G01X-1231900Y1082040D03*
G01X419100Y1094740D03*
G01X-410447Y1352652D03*
G01X-957696Y1209040D03*
G01X-749300Y967740D03*
G01X-635000Y878840D03*
G01X-609600Y955040D03*
G01X-553705Y1353922D03*
G01X-520700Y967740D03*
G01X-838200Y967740D03*
G01X-659397Y651211D03*
G01X-316494Y645693D03*
G01X1478752Y-1193800D03*
G01X1265189Y-1476801D03*
G01X1308100Y-2006600D03*
G01X1206500Y-1625600D03*
G01X407480Y-2400300D03*
G01X849651Y-819349D03*
G01X-1630313Y-2895387D03*
G01X596900Y-2082800D03*
G01X-1090736Y-2384157D03*
G01X46012Y-1781948D03*
G01X1193800Y-1041400D03*
G01X304800Y-893596D03*
G01X-164837Y-990604D03*
G01X-230906Y-929711D03*
G01X-200543Y-701665D03*
G01X2133600Y76200D03*
G01X1722675Y401203D03*
G01X165100Y-330200D03*
G01X292092Y76200D03*
G01X388404Y-170389D03*
G01X-157776Y-172807D03*
G01X1943100Y393700D03*
G01X1939676Y210535D03*
G01X1618885Y-2082823D03*
G01X1560070Y-2274189D03*
G01X1935203Y-1705509D03*
G01X2076684Y-425684D03*
G01X791154Y-96226D03*
G01X1246605Y-2711968D03*
G01X1397986Y-2424623D03*
G01X1347186Y-2704023D03*
G01X1546605Y-2698529D03*
G01X762000Y-1346200D03*
G01X749300Y-1460500D03*
G01X12700Y-1054100D03*
G01X190500Y-965200D03*
G01X-50800Y-850900D03*
G01X-152400Y-571500D03*
G01X402443Y-571500D03*
G01X444500Y-711200D03*
G01X-245408Y76200D03*
G01X-88100Y202145D03*
G01X62700Y210995D03*
G01X-127000Y279400D03*
G01X-228600Y-76200D03*
G01X3334229Y1460500D03*
G01X3473929Y1460500D03*
G01X3434080Y1765300D03*
G01X3205480Y2032000D03*
G01X3332480Y1231900D03*
G01X3332877Y820405D03*
G01X3495229Y2184400D03*
G01X3421380Y2108200D03*
G01X3497580Y2095500D03*
G01X3408680Y2186517D03*
G01X2720529Y2184400D03*
G01X2975409Y1463289D03*
G01X2722880Y2095500D03*
G01X2633980Y2186517D03*
G01X2646680Y2108200D03*
G01X2430780Y2032000D03*
G01X2659380Y1765300D03*
G01X2557780Y1231900D03*
G01X2699229Y1460500D03*
G01X2559529Y1460500D03*
G01X4269929Y2184400D03*
G01X4524809Y1463289D03*
G01X4272280Y2095500D03*
G01X4183380Y2186517D03*
G01X4196080Y2108200D03*
G01X3980180Y2032000D03*
G01X4208780Y1765300D03*
G01X4030980Y1270000D03*
G01X4248629Y1460500D03*
G01X4108929Y1460500D03*
G01X3116580Y825500D03*
G01X3510280Y812800D03*
G01X4246880Y1219200D03*
G01X2710180Y1219200D03*
G01X3484880Y1231900D03*
G01X2735580Y698500D03*
G01X2786380Y774700D03*
G01X3141980Y736600D03*
G01X3764280Y1028700D03*
G01X3078480Y609600D03*
G01X3078480Y473484D03*
G01X3103880Y304800D03*
G01X3548380Y469900D03*
G01X2672080Y317500D03*
G01X2799080Y114300D03*
G01X2697480Y139700D03*
G01X2975409Y1550871D03*
G01X3751580Y1549400D03*
G01X3751580Y1460500D03*
G01X4524809Y1550871D03*
G01X4551680Y2971800D03*
G01X3776980Y2971800D03*
G01X4551680Y2790572D03*
G01X3776980Y2790572D03*
G01X3002280Y2789890D03*
G01X3002280Y2971800D03*
G01X-3766820Y2971800D03*
G01X-4033520Y698500D03*
G01X-3766820Y2789890D03*
G01X-4048571Y2184400D03*
G01X-4046220Y2095500D03*
G01X-4135120Y2186517D03*
G01X-4122420Y2108200D03*
G01X-4338320Y2032000D03*
G01X-4109720Y1765300D03*
G01X-4211320Y1231900D03*
G01X-4069871Y1460500D03*
G01X-4209571Y1460500D03*
G01X-4058920Y1219200D03*
G01X-3982720Y774700D03*
G01X-3690620Y609600D03*
G01X-3793691Y1550871D03*
G01X-3793691Y1463289D03*
G01X-3434871Y1460500D03*
G01X-3295171Y1460500D03*
G01X-3335020Y1765300D03*
G01X-3347720Y2108200D03*
G01X-3360420Y2186517D03*
G01X-3436223Y820405D03*
G01X-3436620Y1231900D03*
G01X-3563620Y2032000D03*
G01X-3627120Y736600D03*
G01X-3652520Y825500D03*
G01X-2244291Y1463289D03*
G01X-3220720Y469900D03*
G01X-3004820Y1028700D03*
G01X-3017520Y1549400D03*
G01X-3017520Y1460500D03*
G01X-3690620Y473484D03*
G01X-2499171Y2184400D03*
G01X-2496820Y2095500D03*
G01X-2585720Y2186517D03*
G01X-2573020Y2108200D03*
G01X-2788920Y2032000D03*
G01X-2560320Y1765300D03*
G01X-2520471Y1460500D03*
G01X-2660171Y1460500D03*
G01X-2738120Y1270000D03*
G01X-2522220Y1219200D03*
G01X-2244291Y1550871D03*
G01X-3258820Y812800D03*
G01X-3271520Y2095500D03*
G01X-3284220Y1841500D03*
G01X-3273871Y2184400D03*
G01X-3284220Y1231900D03*
G01X-3665220Y304800D03*
G01X-4097020Y317500D03*
G01X-3970020Y114300D03*
G01X-4071620Y139700D03*
G01X-2217420Y2971800D03*
G01X-2992120Y2971800D03*
G01X-2217420Y2790572D03*
G01X-2992120Y2790572D03*
G01X-3002372Y-2971292D03*
G01X-2735672Y-697992D03*
G01X-3002372Y-2789382D03*
G01X-2720621Y-2183892D03*
G01X-2722972Y-2094992D03*
G01X-2634072Y-2186009D03*
G01X-2646772Y-2107692D03*
G01X-2710272Y-1840992D03*
G01X-2430872Y-2031492D03*
G01X-2557872Y-1231392D03*
G01X-2699321Y-1459992D03*
G01X-2559621Y-1459992D03*
G01X-2710272Y-1218692D03*
G01X-2786472Y-774192D03*
G01X-3078572Y-609092D03*
G01X-2975501Y-1550363D03*
G01X-2975501Y-1462781D03*
G01X-3334321Y-1459992D03*
G01X-3474021Y-1459992D03*
G01X-3421472Y-2107692D03*
G01X-3408772Y-2186009D03*
G01X-3332969Y-819898D03*
G01X-3332572Y-1231392D03*
G01X-3205572Y-2031492D03*
G01X-3142072Y-736092D03*
G01X-3116672Y-824992D03*
G01X-4524901Y-1462781D03*
G01X-3548472Y-469392D03*
G01X-3764372Y-1028192D03*
G01X-3751672Y-1548892D03*
G01X-3751672Y-1459992D03*
G01X-3078572Y-472976D03*
G01X-4270021Y-2183892D03*
G01X-4259672Y-1840992D03*
G01X-4272372Y-2094992D03*
G01X-4183472Y-2186009D03*
G01X-4196172Y-2107692D03*
G01X-3980272Y-2031492D03*
G01X-4248721Y-1459992D03*
G01X-4109021Y-1459992D03*
G01X-4031072Y-1269492D03*
G01X-4246972Y-1218692D03*
G01X-4524901Y-1550363D03*
G01X-3510372Y-812292D03*
G01X-3497672Y-2094992D03*
G01X-3484972Y-1840992D03*
G01X-3495321Y-2183892D03*
G01X-3484972Y-1231392D03*
G01X-3103972Y-304292D03*
G01X-2672172Y-316992D03*
G01X-2799172Y-113792D03*
G01X-2697572Y-139192D03*
G01X-4551772Y-2971292D03*
G01X-3777072Y-2971292D03*
G01X-4551772Y-2790065D03*
G01X-3777072Y-2790065D03*
G01X3766820Y-2971800D03*
G01X4340860Y-772160D03*
G01X3766820Y-2789890D03*
G01X4048571Y-2184400D03*
G01X4046220Y-2095500D03*
G01X4135120Y-2186517D03*
G01X4122420Y-2108200D03*
G01X4058920Y-1841500D03*
G01X4338320Y-2032000D03*
G01X4064000Y-1718800D03*
G01X4211320Y-1231900D03*
G01X4069871Y-1460500D03*
G01X4209571Y-1460500D03*
G01X4058920Y-1219200D03*
G01X3690620Y-609600D03*
G01X3793691Y-1550871D03*
G01X3793691Y-1463289D03*
G01X3434871Y-1460500D03*
G01X3295171Y-1460500D03*
G01X3281680Y-1732260D03*
G01X3347720Y-2108200D03*
G01X3360420Y-2186517D03*
G01X3362563Y-825485D03*
G01X3436620Y-1231900D03*
G01X3563620Y-2032000D03*
G01X3218180Y-716280D03*
G01X3480200Y-812800D03*
G01X2244291Y-1463289D03*
G01X3220720Y-469900D03*
G01X3004820Y-1028700D03*
G01X3017520Y-1549400D03*
G01X3017520Y-1460500D03*
G01X3690620Y-473484D03*
G01X2499171Y-2184400D03*
G01X2509520Y-1841500D03*
G01X2496820Y-2095500D03*
G01X2585720Y-2186517D03*
G01X2573020Y-2108200D03*
G01X2788920Y-2032000D03*
G01X2527300Y-1724660D03*
G01X2520471Y-1460500D03*
G01X2660171Y-1460500D03*
G01X2738120Y-1270000D03*
G01X2522220Y-1219200D03*
G01X2244291Y-1550871D03*
G01X3258820Y-812800D03*
G01X3271520Y-2095500D03*
G01X3284220Y-1841500D03*
G01X3273871Y-2184400D03*
G01X3284220Y-1231900D03*
G01X3665220Y-304800D03*
G01X4097020Y-317500D03*
G01X3970020Y-114300D03*
G01X4071620Y-139700D03*
G01X2217420Y-2971800D03*
G01X2992120Y-2971800D03*
G01X2217420Y-2790572D03*
G01X2992120Y-2790572D03*
G01X2006600Y-1765300D03*
G01X1938000Y-1165785D03*
G01X2203298Y-635000D03*
G01X2209066Y-558179D03*
G01X-596900Y-1143000D03*
G01X-3374895Y266697D03*
G01X-3394296Y-266190D03*
G01X3374895Y-266697D03*
G01X3394205Y266697D03*
G01X-2550160Y-670560D03*
G01X2352040Y124460D03*
G01X2080260Y-1920240D03*
G01X1940438Y-1038758D03*
G01X-3388360Y-551180D03*
G01X467360Y-3370580D03*
G01X274320Y-3467100D03*
G01X111760Y-3314700D03*
G01X-50800Y-3467100D03*
G01X-237211Y-3294101D03*
G01X-426720Y-3469640D03*
G01X-673100Y-3243580D03*
G01X-800100Y-3495040D03*
G01X-1016000Y-3274060D03*
G01X-1112520Y-3484880D03*
G01X-1333500Y-3263900D03*
G01X2992120Y-3117512D03*
G01X2992120Y-3237201D03*
G01X2992120Y-3380359D03*
G01X2992120Y-3514130D03*
G01X2217420Y-3082309D03*
G01X2217420Y-3255976D03*
G01X2217420Y-3408522D03*
G01X1920240Y-2357120D03*
G01X2042160Y-2186940D03*
G01X2004060Y-2461260D03*
G01X2087880Y-2329180D03*
G01X1996440Y-2631440D03*
G01X2001520Y-2832100D03*
G01X2011680Y-2989580D03*
G01X1371600Y-2913673D03*
G01X1236980Y-3053080D03*
G01X1569720Y-3111500D03*
G01X-3002372Y-3169033D03*
G01X-3002372Y-3376729D03*
G01X-2056425Y-3136900D03*
G01X-2084782Y-3430533D03*
G01X-1874520Y-3357880D03*
G01X-2131060Y-2712720D03*
G01X-1690230Y-3455935D03*
G01X-2141220Y-2966720D03*
G01X-1882140Y-3134360D03*
G01X3563620Y-665480D03*
G01X3766820Y-3178542D03*
G01X3766820Y-3351035D03*
G01X3766820Y-3516489D03*
G01X3776980Y3133097D03*
G01X3776980Y3316152D03*
G01X3776980Y3488645D03*
G01X3002280Y3140138D03*
G01X3002280Y3323192D03*
G01X3002280Y3499206D03*
G01X4551680Y3182381D03*
G01X4551680Y3340794D03*
G01X4551680Y3509767D03*
G01X-3269206Y1928054D03*
G01X-3352800Y1887220D03*
G01X-2961640Y1704340D03*
G01X-2964180Y1859280D03*
G01X-2958032Y1989000D03*
G01X-3034600Y1940372D03*
G01X-3042920Y1849964D03*
G01X-4127500Y1887220D03*
G01X-4058920Y1841500D03*
G01X-4043906Y1928054D03*
G01X-3817620Y1849964D03*
G01X-3809300Y1940372D03*
G01X-3738880Y1859280D03*
G01X-3732732Y1989000D03*
G01X-3736340Y1704340D03*
G01X-2578100Y1887220D03*
G01X-2509520Y1841500D03*
G01X-2494506Y1928054D03*
G01X-2268220Y1849964D03*
G01X-2259900Y1940372D03*
G01X-2189480Y1859280D03*
G01X-2183332Y1989000D03*
G01X-2186940Y1704340D03*
G01X3032760Y1704340D03*
G01X3030220Y1859280D03*
G01X3036368Y1989000D03*
G01X2959800Y1940372D03*
G01X2951480Y1849964D03*
G01X2710180Y1841500D03*
G01X2725194Y1928054D03*
G01X2641600Y1887220D03*
G01X3804920Y1859280D03*
G01X3726180Y1849964D03*
G01X3734500Y1940372D03*
G01X3807460Y1704340D03*
G01X3811068Y1989000D03*
G01X3484880Y1841500D03*
G01X3499894Y1928054D03*
G01X3416300Y1887220D03*
G01X4544060Y1762760D03*
G01X4523740Y1847424D03*
G01X4516820Y1935292D03*
G01X4565448Y1999160D03*
G01X4274594Y1928054D03*
G01X4259580Y1841500D03*
G01X4191000Y1887220D03*
G01X2489200Y-1912667D03*
G01X2584701Y-1887267D03*
G01X2575560Y-1795780D03*
G01X3360420Y-1793240D03*
G01X3266440Y-1920240D03*
G01X3350260Y-1902460D03*
G01X3314700Y-1981200D03*
G01X4132580Y-1790700D03*
G01X4140200Y-1879600D03*
G01X4038600Y-1912620D03*
G01X4112260Y-1943100D03*
G01X4048760Y-1983740D03*
G01X2560320Y-1953260D03*
G01X2491740Y-1986280D03*
G01X-4193632Y-1795272D03*
G01X-4279992Y-1912159D03*
G01X-4184491Y-1886759D03*
G01X-4208872Y-1952752D03*
G01X-4277452Y-1985772D03*
G01X-3408772Y-1792732D03*
G01X-3418932Y-1901952D03*
G01X-3502752Y-1919732D03*
G01X-3454492Y-1980692D03*
G01X-2636612Y-1790192D03*
G01X-2628992Y-1879092D03*
G01X-2656932Y-1942592D03*
G01X-2720432Y-1983232D03*
G01X-2730592Y-1912112D03*
G01X-2705192Y-1718292D03*
G01X-3487512Y-1731752D03*
G01X-4241892Y-1724152D03*
G01X-1122680Y-1866900D03*
G01X-855980Y-2260600D03*
G01X-698500Y-2326640D03*
G01X-533400Y-2181860D03*
G01X-960120Y-2331720D03*
G01X-1120140Y-2044700D03*
G01X-1374140Y-1645920D03*
G01X-1628140Y-1539240D03*
G01X-2098040Y-1656080D03*
G01X-1884680Y-1483360D03*
G01X-2131060Y-2186940D03*
G01X-345440Y-2260600D03*
G01X-500380Y-2367280D03*
G01X-355600Y-2423160D03*
G01X-233680Y-2334260D03*
G01X1722140Y2783820D03*
G01X1892320Y2783820D03*
G01X2062500Y2783820D03*
G01X1722140Y2613640D03*
G01X1892320Y2613640D03*
G01X2062500Y2613640D03*
G01X1722140Y2443460D03*
G01X1892320Y2443460D03*
G01X2062500Y2443460D03*
G01X1722140Y2273280D03*
G01X1892320Y2273280D03*
G01X2062500Y2273280D03*
G01X1722140Y2103100D03*
G01X1892320Y2103100D03*
G01X2062500Y2103100D03*
G01X1722140Y1932920D03*
G01X1892320Y1932920D03*
G01X2062500Y1932920D03*
G01X1722140Y1762740D03*
G01X1892320Y1762740D03*
G01X2062500Y1762740D03*
G01X1722140Y1592560D03*
G01X1892320Y1592560D03*
G01X2062500Y1592560D03*
G01X1892320Y2954000D03*
G01X2062500Y2954000D03*
G01X2062500Y3124180D03*
G04 Via End*

G04 Track Start*
G54D11*
G01X1450363Y-2349500D02*
G01X1589506Y-2488643D01*
G01X1263507Y-2349500D02*
G01X1450363Y-2349500D01*
G01X1147201Y-2465806D02*
G01X1263507Y-2349500D01*
G01X1146607Y-2565199D02*
G01X1147200Y-2564606D01*
G01X1147201Y-2465806D01*
G01X1589506Y-2488643D02*
G01X1589506Y-2558112D01*
G01X1596591Y-2565197D01*
G54D50*
G01X-1360714Y-2959100D02*
G01X-251396Y-2959100D01*
G01X-1413202Y-2906612D02*
G01X-1360714Y-2959100D01*
G54D51*
G01X527202Y-2013102D02*
G01X596900Y-2082800D01*
G01X527202Y-1930400D02*
G01X527202Y-2013102D01*
G54D11*
G01X381000Y-1756512D02*
G01X552298Y-1756512D01*
G01X368300Y-1769212D02*
G01X381000Y-1756512D01*
G01X565810Y-1742999D02*
G01X565810Y-1692199D01*
G01X552298Y-1756512D02*
G01X565810Y-1742999D01*
G54D51*
G01X76200Y-2184400D02*
G01X215900Y-2044700D01*
G01X76200Y-2456599D02*
G01X76200Y-2184400D01*
G54D52*
G01X205219Y-1556601D02*
G01X223418Y-1574800D01*
G01X76200Y-1556601D02*
G01X205219Y-1556601D01*
G54D11*
G01X397842Y-1392199D02*
G01X253799Y-1536243D01*
G01X565810Y-1392199D02*
G01X397842Y-1392199D01*
G01X253799Y-1544420D02*
G01X223418Y-1574800D01*
G01X253799Y-1536243D02*
G01X253799Y-1544420D01*
G01X423012Y-1642212D02*
G01X411277Y-1642212D01*
G01X436677Y-1642212D02*
G01X423012Y-1642212D01*
G01X355600Y-1574800D02*
G01X309982Y-1574800D01*
G01X423012Y-1642212D02*
G01X355600Y-1574800D01*
G01X182214Y-402895D02*
G01X326615Y-258494D01*
G01X490806Y-258494D01*
G01X584200Y-165100D01*
G54D51*
G01X-1430396Y-2889418D02*
G01X-1413202Y-2906612D01*
G01X-1515028Y-2889418D02*
G01X-1430396Y-2889418D01*
G54D11*
G01X-88100Y139344D02*
G01X-88100Y202145D01*
G01X-50000Y101244D02*
G01X-88100Y139344D01*
G01X-83786Y-246797D02*
G01X-157776Y-172807D01*
G01X-79601Y-246797D02*
G01X-83786Y-246797D01*
G01X-13Y211613D02*
G01X-67799Y279400D01*
G01X-13Y101244D02*
G01X-13Y211613D01*
G01X-67799Y279400D02*
G01X-126999Y279401D01*
G01X50000Y198295D02*
G01X62700Y210995D01*
G01X50000Y101244D02*
G01X50000Y198295D01*
G01X236245Y208255D02*
G01X190500Y254000D01*
G01X266700Y458409D02*
G01X266700Y297282D01*
G01X304800Y496509D02*
G01X266700Y458409D01*
G01X393700Y355600D02*
G01X469900Y431800D01*
G01X393700Y297282D02*
G01X393700Y355600D01*
G01X393700Y210718D02*
G01X391236Y208255D01*
G01X-678787Y1202027D02*
G01X-838200Y1361440D01*
G01X1145500Y-2657153D02*
G01X1145500Y-2709262D01*
G01X1096665Y-2758098D01*
G01X953708Y-2758098D01*
G01X765406Y-2946400D01*
G01X657797Y-2946400D01*
G01X1145500Y-2657153D02*
G01X1117600Y-2629253D01*
G01X1145500Y-2566306D02*
G01X1145500Y-2657153D01*
G01X1117600Y-2629253D02*
G01X1117600Y-2565400D01*
G01X1146607Y-2565199D02*
G01X1145500Y-2566306D01*
G01X1117600Y-2565400D02*
G01X1117399Y-2565199D01*
G01X1116609Y-2565199D01*
G54D51*
G01X241300Y-584200D02*
G01X330200Y-495300D01*
G01X241300Y-653898D02*
G01X241300Y-584200D01*
G01X272898Y-2044700D02*
G01X215900Y-2044700D01*
G01X387198Y-1930400D02*
G01X272898Y-2044700D01*
G01X368300Y-1769212D02*
G01X368300Y-1911502D01*
G01X387198Y-1930400D01*
G01X-402704Y396240D02*
G01X-402704Y311036D01*
G54D11*
G01X1866900Y-596900D02*
G01X1866900Y-482600D01*
G01X1962201Y-692201D02*
G01X1866900Y-596900D01*
G01X2075790Y-692201D02*
G01X1962201Y-692201D01*
G01X729000Y-944900D02*
G01X711200Y-927100D01*
G01X729000Y-1027490D02*
G01X729000Y-944900D01*
G01X758705Y-1057195D02*
G01X729000Y-1027490D01*
G01X758705Y-1227323D02*
G01X758705Y-1057195D01*
G01X864982Y-1333600D02*
G01X758705Y-1227323D01*
G01X1141992Y-1333600D02*
G01X864982Y-1333600D01*
G01X1533404Y-942188D02*
G01X1141992Y-1333600D01*
G01X2075790Y-942188D02*
G01X1533404Y-942188D01*
G01X817105Y-1033005D02*
G01X787400Y-1003300D01*
G01X817105Y-1082413D02*
G01X817105Y-1033005D01*
G01X794305Y-1105213D02*
G01X817105Y-1082413D01*
G01X794305Y-1212577D02*
G01X794305Y-1105213D01*
G01X879728Y-1298000D02*
G01X794305Y-1212577D01*
G01X1127246Y-1298000D02*
G01X879728Y-1298000D01*
G01X1533045Y-892200D02*
G01X1127246Y-1298000D01*
G01X2075790Y-892200D02*
G01X1533045Y-892200D01*
G01X702004Y-41286D02*
G01X685800Y-25082D01*
G01X702004Y-171591D02*
G01X702004Y-41286D01*
G01X685800Y-25082D02*
G01X685800Y0D01*
G01X2075790Y-842188D02*
G01X1532712Y-842188D01*
G01X1112500Y-1262400D01*
G01X894473Y-1262400D01*
G01X829905Y-1197831D01*
G01X829905Y-1119959D01*
G01X852705Y-1097159D01*
G01X852705Y-967841D01*
G01X736600Y-851736D01*
G01X736600Y-773864D01*
G01X789900Y-720563D01*
G01X789900Y-688300D01*
G01X749300Y-647700D01*
G01X772200Y-836990D02*
G01X772200Y-788610D01*
G01X888305Y-953095D02*
G01X772200Y-836990D01*
G01X888305Y-1111905D02*
G01X888305Y-953095D01*
G01X909219Y-1226800D02*
G01X865505Y-1183085D01*
G01X1090990Y-1226800D02*
G01X909219Y-1226800D01*
G01X1525590Y-792201D02*
G01X1090990Y-1226800D01*
G01X825500Y-735309D02*
G01X825500Y-546100D01*
G01X772200Y-788610D02*
G01X825500Y-735309D01*
G01X865505Y-1134705D02*
G01X888305Y-1111905D01*
G01X865505Y-1183085D02*
G01X865505Y-1134705D01*
G01X2075790Y-792201D02*
G01X1525590Y-792201D01*
G01X920801Y-831901D02*
G01X920801Y-337210D01*
G01X923905Y-835005D02*
G01X920801Y-831901D01*
G01X923905Y-1158895D02*
G01X923905Y-835005D01*
G01X970788Y-494578D02*
G01X970788Y-337210D01*
G01X1135400Y-659190D02*
G01X970788Y-494578D01*
G01X-128210Y-513100D02*
G01X-288459Y-513100D01*
G01X-75815Y-565495D02*
G01X-128210Y-513100D01*
G01X170651Y-565495D02*
G01X-75815Y-565495D01*
G01X370346Y-365800D02*
G01X170651Y-565495D01*
G01X480554Y-365800D02*
G01X370346Y-365800D01*
G01X509077Y-394323D02*
G01X480554Y-365800D01*
G01X572123Y-394323D02*
G01X509077Y-394323D01*
G01X584200Y-406400D02*
G01X572123Y-394323D01*
G01X584200Y-419100D02*
G01X584200Y-406400D01*
G01X519839Y-294093D02*
G01X382994Y-294093D01*
G01X521137Y-295392D02*
G01X519839Y-294093D01*
G01X576600Y-295392D02*
G01X521137Y-295392D01*
G01X-48424Y-492194D02*
G01X-98718Y-441900D01*
G01X143261Y-492194D02*
G01X-48424Y-492194D01*
G01X340854Y-294600D02*
G01X143261Y-492194D01*
G01X382487Y-294600D02*
G01X340854Y-294600D01*
G01X382994Y-294093D02*
G01X382487Y-294600D01*
G01X459800Y-472542D02*
G01X459800Y-431800D01*
G01X457910Y-474431D02*
G01X459800Y-472542D01*
G01X457910Y-509971D02*
G01X457910Y-474431D01*
G01X483041Y-535101D02*
G01X457910Y-509971D01*
G01X355600Y-1206500D02*
G01X25400Y-1206500D01*
G01X441300Y-1292200D02*
G01X355600Y-1206500D01*
G01X565810Y-1292200D02*
G01X441300Y-1292200D01*
G01X-50800Y-1295400D02*
G01X-101600Y-1244600D01*
G01X342900Y-1295400D02*
G01X-50800Y-1295400D01*
G01X389712Y-1342212D02*
G01X342900Y-1295400D01*
G01X565810Y-1342212D02*
G01X389712Y-1342212D01*
G01X-176590Y845840D02*
G01X-210800Y880050D01*
G01X-50000Y-217195D02*
G01X-79601Y-246797D01*
G01X-50000Y-101244D02*
G01X-50000Y-217195D01*
G01X805200Y-1643400D02*
G01X774700Y-1612900D01*
G01X824290Y-1643400D02*
G01X805200Y-1643400D01*
G01X858500Y-1677610D02*
G01X824290Y-1643400D01*
G01X858500Y-1696700D02*
G01X858500Y-1677610D01*
G01X870788Y-1708988D02*
G01X858500Y-1696700D01*
G01X870788Y-1847190D02*
G01X870788Y-1708988D01*
G01X820801Y-1722501D02*
G01X800100Y-1701800D01*
G01X820801Y-1847190D02*
G01X820801Y-1722501D01*
G01X474599Y-1592199D02*
G01X431800Y-1549400D01*
G01X565810Y-1592199D02*
G01X474599Y-1592199D01*
G01X565810Y-1542212D02*
G01X678612Y-1542212D01*
G01X698500Y-1562100D01*
G01X411277Y-1642212D02*
G01X368300Y-1685188D01*
G01X436677Y-1642212D02*
G01X565810Y-1642212D01*
G01X920801Y-1949399D02*
G01X863600Y-2006600D01*
G01X920801Y-1847190D02*
G01X920801Y-1949399D01*
G01X970788Y-1935988D02*
G01X1028700Y-1993900D01*
G01X970788Y-1847190D02*
G01X970788Y-1935988D01*
G01X1770812Y-221412D02*
G01X1689100Y-139700D01*
G01X1770812Y-337210D02*
G01X1770812Y-221412D01*
G01X1820799Y-207899D02*
G01X1820799Y-337210D01*
G01X1759589Y-146689D02*
G01X1820799Y-207899D01*
G01X1759589Y45089D02*
G01X1759589Y-146689D01*
G01X1870812Y-194412D02*
G01X1870812Y-337210D01*
G01X1807489Y-131089D02*
G01X1870812Y-194412D01*
G01X1807489Y-8992D02*
G01X1807489Y-131089D01*
G01X1879086Y-15565D02*
G01X1879086Y-101600D01*
G01X1872513Y-8992D02*
G01X1879086Y-15565D01*
G01X1954611Y-178989D02*
G01X1920799Y-212801D01*
G01X1954611Y-26116D02*
G01X1954611Y-178989D01*
G01X1937487Y-8992D02*
G01X1954611Y-26116D01*
G01X1920799Y-212801D02*
G01X1920799Y-337210D01*
G01X1807489Y92989D02*
G01X1759589Y45089D01*
G01X1807489Y135992D02*
G01X1807489Y92989D01*
G01X558723Y-535101D02*
G01X483041Y-535101D01*
G01X565810Y-542188D02*
G01X558723Y-535101D01*
G01X423144Y-592201D02*
G01X402443Y-571500D01*
G01X565810Y-592201D02*
G01X423144Y-592201D01*
G01X386512Y-642188D02*
G01X368300Y-660400D01*
G01X390541Y-642188D02*
G01X386512Y-642188D01*
G01X463499Y-692201D02*
G01X444500Y-711200D01*
G01X565810Y-692201D02*
G01X463499Y-692201D01*
G01X390953Y-642600D02*
G01X390541Y-642188D01*
G01X439334Y-642600D02*
G01X390953Y-642600D01*
G01X439746Y-642188D02*
G01X439334Y-642600D01*
G01X565810Y-642188D02*
G01X439746Y-642188D01*
G01X1117600Y-459680D02*
G01X1117600Y-546100D01*
G01X1077900Y-419980D02*
G01X1117600Y-459680D01*
G01X1077900Y-344323D02*
G01X1077900Y-419980D01*
G01X1070788Y-337210D02*
G01X1077900Y-344323D01*
G01X1020801Y-337210D02*
G01X1020801Y-462001D01*
G01X1041400Y-482600D01*
G01X1270813Y-1689913D02*
G01X1206500Y-1625600D01*
G01X1270813Y-1847190D02*
G01X1270813Y-1689913D01*
G01X1171765Y-1846212D02*
G01X1170788Y-1847190D01*
G01X1171765Y-1717200D02*
G01X1171765Y-1846212D01*
G01X1370813Y-1847190D02*
G01X1370813Y-2159076D01*
G01X1383436Y-2171700D01*
G01X1231900Y-2171700D02*
G01X1232764Y-2171700D01*
G01X1210412Y-2150212D02*
G01X1231900Y-2171700D01*
G01X1210412Y-2080376D02*
G01X1210412Y-2150212D01*
G01X1210412Y-2006600D02*
G01X1210412Y-2080376D01*
G54D52*
G01X-842112Y963828D02*
G01X-838200Y967740D01*
G01X-842112Y878840D02*
G01X-842112Y963828D01*
G01X-659397Y651211D02*
G01X-659397Y748348D01*
G01X-659397Y385724D02*
G01X-659397Y651211D01*
G01X-661581Y383540D02*
G01X-659397Y385724D01*
G01X-659397Y780148D02*
G01X-659397Y761048D01*
G01X-316494Y398427D02*
G01X-316494Y645693D01*
G01X-318681Y396240D02*
G01X-316494Y398427D01*
G01X-316494Y645693D02*
G01X-316494Y751025D01*
G01X-849389Y871563D02*
G01X-849389Y761048D01*
G01X-842112Y878840D02*
G01X-849389Y871563D01*
G01X-506486Y860490D02*
G01X-506486Y751025D01*
G01X-499212Y867764D02*
G01X-506486Y860490D01*
G01X-316494Y769070D02*
G01X-316494Y751025D01*
G01X-415188Y867764D02*
G01X-316494Y769070D01*
G01X-758088Y878840D02*
G01X-659397Y780148D01*
G54D11*
G01X1320800Y-1993900D02*
G01X1308100Y-2006600D01*
G01X1320800Y-1847190D02*
G01X1320800Y-1993900D01*
G01X1220800Y-1996211D02*
G01X1220800Y-1847190D01*
G01X1210412Y-2006600D02*
G01X1220800Y-1996211D01*
G01X1126388Y-1986466D02*
G01X1126388Y-2006600D01*
G01X1170788Y-1942067D02*
G01X1126388Y-1986466D01*
G01X1170788Y-1847190D02*
G01X1170788Y-1942067D01*
G01X1620799Y-1980311D02*
G01X1620799Y-1847190D01*
G01X1659788Y-2019300D02*
G01X1620799Y-1980311D01*
G01X1743812Y-1983380D02*
G01X1720799Y-1960367D01*
G01X1720799Y-1847190D01*
G01X1743812Y-2019300D02*
G01X1743812Y-1983380D01*
G01X1743812Y-2146300D02*
G01X1743812Y-2019300D01*
G01X770788Y-186829D02*
G01X770788Y-337210D01*
G01X786027Y-171591D02*
G01X770788Y-186829D01*
G01X720801Y-190388D02*
G01X720801Y-337210D01*
G01X702004Y-171591D02*
G01X720801Y-190388D01*
G01X565810Y-1442212D02*
G01X665988Y-1442212D01*
G01X565810Y-1492199D02*
G01X717601Y-1492199D01*
G01X665988Y-1442212D02*
G01X762000Y-1346200D01*
G01X717601Y-1492199D02*
G01X749300Y-1460500D01*
G54D53*
G01X1738605Y-2565199D02*
G01X1803603Y-2630198D01*
G01X1706601Y-2565199D02*
G01X1738605Y-2565199D01*
G01X1004595Y-2565199D02*
G01X1036599Y-2565199D01*
G01X939597Y-2630198D02*
G01X1004595Y-2565199D01*
G54D11*
G01X393692Y70002D02*
G01X388689Y75006D01*
G01X327602Y3912D02*
G01X393692Y70002D01*
G01X241300Y3912D02*
G01X327602Y3912D01*
G01X388689Y75006D02*
G01X126200Y75006D01*
G01X212395Y-24994D02*
G01X241300Y3912D01*
G01X126200Y-24994D02*
G01X212395Y-24994D01*
G01X236195Y-75006D02*
G01X241300Y-80112D01*
G01X126200Y-75006D02*
G01X236195Y-75006D01*
G54D51*
G01X383583Y-80112D02*
G01X241300Y-80112D01*
G01X393692Y-70002D02*
G01X383583Y-80112D01*
G01X393692Y-165100D02*
G01X393692Y-70002D01*
G01X388404Y-170389D02*
G01X393692Y-165100D01*
G54D11*
G01X304800Y-857402D02*
G01X241300Y-793902D01*
G01X304800Y-893596D02*
G01X304800Y-857402D01*
G01X-120498Y-1034943D02*
G01X-164837Y-990604D01*
G01X-120498Y-1092200D02*
G01X-120498Y-1034943D01*
G01X184722Y-850481D02*
G01X241300Y-793902D01*
G01X100902Y-850481D02*
G01X184722Y-850481D01*
G01X-230906Y-929711D02*
G01X-260502Y-959307D01*
G01X-202102Y-900907D02*
G01X-230906Y-929711D01*
G01X-200543Y-701665D02*
G01X-261010Y-641198D01*
G01X-151701Y-750506D02*
G01X-200543Y-701665D01*
G01X-261010Y-641198D02*
G01X-292100Y-641198D01*
G01X-202102Y-876462D02*
G01X-202102Y-900907D01*
G01X-185759Y-860118D02*
G01X-202102Y-876462D01*
G01X-161313Y-860118D02*
G01X-185759Y-860118D01*
G01X-151701Y-850506D02*
G01X-161313Y-860118D01*
G01X-260502Y-959307D02*
G01X-260502Y-1092200D01*
G01X-100393Y-1072096D02*
G01X-120498Y-1092200D01*
G01X-100393Y-951801D02*
G01X-100393Y-1072096D01*
G01X197879Y-750481D02*
G01X241300Y-793902D01*
G01X100902Y-750481D02*
G01X197879Y-750481D01*
G01X2048408Y-8992D02*
G01X2002511Y-8992D01*
G01X2133600Y76200D02*
G01X2048408Y-8992D01*
G01X2178202Y120803D02*
G01X2133600Y76200D01*
G01X2178202Y292100D02*
G01X2178202Y120803D01*
G01X1720697Y399226D02*
G01X1722675Y401203D01*
G01X1720697Y292100D02*
G01X1720697Y399226D01*
G01X1860702Y311303D02*
G01X1860702Y292100D01*
G01X1943100Y393700D02*
G01X1860702Y311303D01*
G01X2038197Y298603D02*
G01X2038197Y292100D01*
G01X1943100Y393700D02*
G01X2038197Y298603D01*
G01X1937487Y208345D02*
G01X1939676Y210535D01*
G01X1937487Y135992D02*
G01X1937487Y208345D01*
G01X1872513Y280289D02*
G01X1872513Y135992D01*
G01X1860702Y292100D02*
G01X1872513Y280289D01*
G01X2002511Y256413D02*
G01X2002511Y135992D01*
G01X2038197Y292100D02*
G01X2002511Y256413D01*
G01X1546606Y-2565199D02*
G01X1546606Y-2698528D01*
G01X1246607Y-2565199D02*
G01X1246607Y-2711967D01*
G01X1346606Y-2476002D02*
G01X1397986Y-2424623D01*
G01X1346606Y-2565199D02*
G01X1346606Y-2476002D01*
G01X1397986Y-2424623D02*
G01X1446606Y-2473244D01*
G01X1446606Y-2565199D01*
G01X1396594Y-2654615D02*
G01X1347186Y-2704023D01*
G01X1396594Y-2565199D02*
G01X1396594Y-2654615D01*
G01X1347186Y-2704023D02*
G01X1296594Y-2653431D01*
G01X1296594Y-2565199D01*
G54D52*
G01X-745604Y383540D02*
G01X-754393Y392328D01*
G01X-411490Y405026D02*
G01X-411490Y524025D01*
G01X-402704Y396240D02*
G01X-411490Y405026D01*
G54D11*
G01X165608Y-965200D02*
G01X190500Y-965200D01*
G01X100902Y-900493D02*
G01X165608Y-965200D01*
G01X49619Y-1017181D02*
G01X12700Y-1054100D01*
G01X49619Y-951801D02*
G01X49619Y-1017181D01*
G01X-100419Y-623481D02*
G01X-152400Y-571500D01*
G01X-100419Y-699198D02*
G01X-100419Y-623481D01*
G01X-100419Y-900519D02*
G01X-50800Y-850900D01*
G01X-151701Y-900519D02*
G01X-100419Y-900519D01*
G01X-272783Y-800519D02*
G01X-292100Y-781202D01*
G01X-151701Y-800519D02*
G01X-272783Y-800519D01*
G54D52*
G01X3281588Y1513141D02*
G01X3334229Y1460500D01*
G01X3281588Y1593545D02*
G01X3281588Y1513141D01*
G01X3306988Y1712659D02*
G01X3306988Y1928559D01*
G01X3281588Y1687259D02*
G01X3306988Y1712659D01*
G01X3281588Y1593545D02*
G01X3281588Y1687259D01*
G01X3131029Y1829762D02*
G01X3157780Y1856514D01*
G01X3131029Y1586636D02*
G01X3131029Y1829762D01*
G01X3131029Y1435964D02*
G01X3244465Y1435964D01*
G01X3535588Y1522159D02*
G01X3535588Y1593545D01*
G01X3473929Y1460500D02*
G01X3535588Y1522159D01*
G01X3408588Y1593545D02*
G01X3408588Y1739808D01*
G01X3434080Y1765300D01*
G01X3332877Y820405D02*
G01X3408588Y896116D01*
G01X3408588Y1079551D01*
G01X3306988Y1928559D02*
G01X3386380Y2007951D01*
G01X3614980Y1856514D02*
G01X3499894Y1856514D01*
G01X3484880Y1841500D01*
G01X3386380Y2007951D02*
G01X3386380Y2073200D01*
G01X3421380Y2108200D01*
G01X2887888Y1157541D02*
G01X2887888Y1079551D01*
G01X2611680Y2073200D02*
G01X2646680Y2108200D01*
G01X2633888Y1593545D02*
G01X2633888Y1739808D01*
G01X2659380Y1765300D01*
G01X2840280Y1856514D02*
G01X2725194Y1856514D01*
G01X2710180Y1841500D01*
G01X2557780Y1231900D02*
G01X2506888Y1181008D01*
G01X2506888Y1079551D01*
G01X2699229Y1460500D02*
G01X2760888Y1522159D01*
G01X2760888Y1593545D01*
G01X2356329Y1435964D02*
G01X2469765Y1435964D01*
G01X2356329Y1586636D02*
G01X2356329Y1829762D01*
G01X2383080Y1856514D01*
G01X2506888Y1593545D02*
G01X2506888Y1687259D01*
G01X2532288Y1712659D01*
G01X2532288Y1928559D01*
G01X2506888Y1593545D02*
G01X2506888Y1513141D01*
G01X2559529Y1460500D01*
G01X2532288Y1928559D02*
G01X2611680Y2007951D01*
G01X2611680Y2073200D01*
G01X4161080Y2073200D02*
G01X4196080Y2108200D01*
G01X4183288Y1593545D02*
G01X4183288Y1739808D01*
G01X4208780Y1765300D01*
G01X4389680Y1856514D02*
G01X4274594Y1856514D01*
G01X4259580Y1841500D01*
G01X4248629Y1460500D02*
G01X4310288Y1522159D01*
G01X4310288Y1593545D01*
G01X3905729Y1586636D02*
G01X3905729Y1829762D01*
G01X3932480Y1856514D01*
G01X4056288Y1593545D02*
G01X4056288Y1687259D01*
G01X4081688Y1712659D01*
G01X4081688Y1928559D01*
G01X4056288Y1593545D02*
G01X4056288Y1513141D01*
G01X4108929Y1460500D01*
G01X4081688Y1928559D02*
G01X4161080Y2007951D01*
G01X4161080Y2073200D01*
G01X2633888Y1079551D02*
G01X2633888Y977992D01*
G01X2697480Y914400D01*
G01X2900680Y914400D01*
G01X4030980Y1270000D02*
G01X4056288Y1244692D01*
G01X4056288Y1079551D01*
G01X4183288Y1079551D02*
G01X4183288Y1003208D01*
G01X3599180Y812800D02*
G01X3510280Y812800D01*
G01X4019165Y1435964D02*
G01X4159729Y1295400D01*
G01X3905729Y1435964D02*
G01X4019165Y1435964D01*
G01X4159729Y1295400D02*
G01X4348480Y1295400D01*
G01X4437288Y1206592D01*
G01X4437288Y1079551D01*
G01X4310288Y1079551D02*
G01X4310288Y1155792D01*
G01X4246880Y1219200D01*
G01X2469765Y1435964D02*
G01X2610329Y1295400D01*
G01X2750029Y1295400D01*
G01X2887888Y1157541D01*
G01X2760888Y1079551D02*
G01X2760888Y1168492D01*
G01X2710180Y1219200D01*
G01X3244465Y1435964D02*
G01X3372329Y1308100D01*
G01X3548380Y1308100D01*
G01X3662588Y1193892D01*
G01X3662588Y1079551D01*
G01X3535588Y1079551D02*
G01X3535588Y1181192D01*
G01X3484880Y1231900D01*
G01X4183288Y1003208D02*
G01X4056380Y876300D01*
G01X3662680Y876300D01*
G01X3599180Y812800D01*
G01X2900680Y914400D02*
G01X2989580Y825500D01*
G01X3116580Y825500D01*
G01X3078480Y609600D02*
G01X3040380Y571500D01*
G01X2752192Y571500D01*
G01X2752192Y444500D02*
G01X2752192Y571500D01*
G01X2668168Y444500D02*
G01X2668168Y571500D01*
G01X2904313Y226036D02*
G01X2913380Y235102D01*
G01X3055261Y376984D01*
G01X3200600Y376984D01*
G01X3205480Y381864D01*
G01X3078480Y473484D02*
G01X3137532Y532536D01*
G01X3205480Y532536D01*
G01X3103880Y304800D02*
G01X3149181Y259499D01*
G01X3149181Y203200D01*
G01X3159862Y192519D01*
G01X3159862Y76200D01*
G01X3073298Y76200D02*
G01X2932278Y76200D01*
G01X2913380Y95098D01*
G01X3548380Y469900D02*
G01X3460344Y381864D01*
G01X3205480Y381864D01*
G01X3548380Y469900D02*
G01X3853180Y469900D01*
G01X4049179Y273901D01*
G01X4049179Y203200D01*
G01X2758470Y310032D02*
G01X2758470Y438221D01*
G01X2752192Y444500D01*
G01X2668168Y444500D02*
G01X2672080Y440588D01*
G01X2672080Y317500D01*
G01X2818282Y95098D02*
G01X2799080Y114300D01*
G01X2913380Y95098D02*
G01X2818282Y95098D01*
G01X2758470Y226036D02*
G01X2904313Y226036D01*
G01X2697480Y139700D02*
G01X2697480Y165045D01*
G01X2758470Y226036D01*
G54D54*
G01X2887888Y1593545D02*
G01X2932735Y1593545D01*
G01X2975409Y1550871D01*
G54D52*
G01X3281588Y1181008D02*
G01X3281588Y1079551D01*
G01X3332480Y1231900D02*
G01X3281588Y1181008D01*
G54D54*
G01X3662588Y1593545D02*
G01X3707435Y1593545D01*
G01X3751580Y1549400D01*
G01X4524809Y1550871D02*
G01X4482135Y1593545D01*
G01X4437288Y1593545D01*
G54D52*
G01X-2719921Y273901D02*
G01X-2719921Y203200D01*
G01X-4236812Y1928559D02*
G01X-4157420Y2007951D01*
G01X-4412771Y1435964D02*
G01X-4299335Y1435964D01*
G01X-4211320Y1231900D02*
G01X-4262212Y1181008D01*
G01X-4262212Y1079551D01*
G01X-4412771Y1586636D02*
G01X-4412771Y1829762D01*
G01X-4262212Y1593545D02*
G01X-4262212Y1687259D01*
G01X-4236812Y1712659D01*
G01X-4236812Y1928559D01*
G01X-4262212Y1593545D02*
G01X-4262212Y1513141D01*
G01X-4209571Y1460500D01*
G01X-4299335Y1435964D02*
G01X-4158771Y1295400D01*
G01X-4019071Y1295400D01*
G01X-3690620Y609600D02*
G01X-3728720Y571500D01*
G01X-4016908Y571500D01*
G01X-4016908Y444500D02*
G01X-4016908Y571500D01*
G01X-4100932Y444500D02*
G01X-4100932Y571500D01*
G01X-3855720Y235102D02*
G01X-3713839Y376984D01*
G01X-3568500Y376984D01*
G01X-3563620Y381864D01*
G01X-3690620Y473484D02*
G01X-3631568Y532536D01*
G01X-3563620Y532536D01*
G01X-3665220Y304800D02*
G01X-3619919Y259499D01*
G01X-3220720Y469900D02*
G01X-3308756Y381864D01*
G01X-3563620Y381864D01*
G01X-4010630Y438221D02*
G01X-4016908Y444500D01*
G01X-4100932Y444500D02*
G01X-4097020Y440588D01*
G01X-3619919Y259499D02*
G01X-3619919Y203200D01*
G01X-3609238Y192519D01*
G01X-3609238Y76200D01*
G01X-3695802Y76200D02*
G01X-3836822Y76200D01*
G01X-3855720Y95098D01*
G01X-3220720Y469900D02*
G01X-2915920Y469900D01*
G01X-2719921Y273901D01*
G01X-4010630Y310032D02*
G01X-4010630Y438221D01*
G01X-4097020Y440588D02*
G01X-4097020Y317500D01*
G01X-3950818Y95098D02*
G01X-3970020Y114300D01*
G01X-3855720Y95098D02*
G01X-3950818Y95098D01*
G01X-3864787Y226036D02*
G01X-3855720Y235102D01*
G01X-4010630Y226036D02*
G01X-3864787Y226036D01*
G01X-4071620Y139700D02*
G01X-4071620Y165045D01*
G01X-4010630Y226036D01*
G54D54*
G01X-2244291Y1550871D02*
G01X-2286965Y1593545D01*
G01X-2331812Y1593545D01*
G54D52*
G01X-3436223Y820405D02*
G01X-3360512Y896116D01*
G01X-4135212Y1079551D02*
G01X-4135212Y977992D01*
G01X-4071620Y914400D02*
G01X-3868420Y914400D01*
G01X-3169920Y812800D02*
G01X-3258820Y812800D01*
G01X-3360512Y896116D02*
G01X-3360512Y1079551D01*
G01X-4019071Y1295400D02*
G01X-3881212Y1157541D01*
G01X-4008212Y1079551D02*
G01X-4008212Y1168492D01*
G01X-4058920Y1219200D01*
G01X-2585812Y1003208D02*
G01X-2712720Y876300D01*
G01X-3106420Y876300D01*
G01X-3169920Y812800D01*
G01X-3868420Y914400D02*
G01X-3779520Y825500D01*
G01X-3652520Y825500D01*
G01X-4135212Y1593545D02*
G01X-4135212Y1739808D01*
G01X-4109720Y1765300D01*
G01X-3928820Y1856514D02*
G01X-4043906Y1856514D01*
G01X-4058920Y1841500D01*
G01X-4069871Y1460500D02*
G01X-4008212Y1522159D01*
G01X-4008212Y1593545D01*
G54D54*
G01X-3881212Y1593545D02*
G01X-3836365Y1593545D01*
G01X-3793691Y1550871D01*
G54D52*
G01X-2331812Y1206592D02*
G01X-2331812Y1079551D01*
G01X-2458812Y1079551D02*
G01X-2458812Y1155792D01*
G01X-2738120Y1270000D02*
G01X-2712812Y1244692D01*
G01X-2712812Y1079551D01*
G01X-2585812Y1079551D02*
G01X-2585812Y1003208D01*
G01X-2749935Y1435964D02*
G01X-2609371Y1295400D01*
G01X-2863371Y1435964D02*
G01X-2749935Y1435964D01*
G54D54*
G01X-3106512Y1593545D02*
G01X-3061665Y1593545D01*
G01X-3017520Y1549400D01*
G54D52*
G01X-3487512Y1513141D02*
G01X-3434871Y1460500D01*
G01X-3487512Y1593545D02*
G01X-3487512Y1513141D01*
G01X-3487512Y1593545D02*
G01X-3487512Y1687259D01*
G01X-3233512Y1522159D02*
G01X-3233512Y1593545D01*
G01X-3295171Y1460500D02*
G01X-3233512Y1522159D01*
G01X-3524635Y1435964D02*
G01X-3396771Y1308100D01*
G01X-2420620Y1295400D02*
G01X-2331812Y1206592D01*
G01X-2520471Y1460500D02*
G01X-2458812Y1522159D01*
G01X-2458812Y1593545D01*
G01X-2712812Y1593545D02*
G01X-2712812Y1687259D01*
G01X-2687412Y1712659D01*
G01X-2712812Y1593545D02*
G01X-2712812Y1513141D01*
G01X-2660171Y1460500D01*
G01X-2609371Y1295400D02*
G01X-2420620Y1295400D01*
G01X-2458812Y1155792D02*
G01X-2522220Y1219200D01*
G01X-3396771Y1308100D02*
G01X-3220720Y1308100D01*
G01X-3106512Y1193892D01*
G01X-3106512Y1079551D01*
G01X-3233512Y1181192D02*
G01X-3284220Y1231900D01*
G01X-4135212Y977992D02*
G01X-4071620Y914400D01*
G01X-3881212Y1157541D02*
G01X-3881212Y1079551D01*
G01X-3638071Y1435964D02*
G01X-3524635Y1435964D01*
G01X-3436620Y1231900D02*
G01X-3487512Y1181008D01*
G01X-3487512Y1079551D01*
G01X-3233512Y1079551D02*
G01X-3233512Y1181192D01*
G01X-4157420Y2073200D02*
G01X-4122420Y2108200D01*
G01X-2608020Y2073200D02*
G01X-2573020Y2108200D01*
G01X-2687412Y1928559D02*
G01X-2608020Y2007951D01*
G01X-2608020Y2073200D01*
G01X-4157420Y2007951D02*
G01X-4157420Y2073200D01*
G01X-3382720Y2007951D02*
G01X-3382720Y2073200D01*
G01X-3462112Y1928559D02*
G01X-3382720Y2007951D01*
G01X-3382720Y2073200D02*
G01X-3347720Y2108200D01*
G01X-3462112Y1712659D02*
G01X-3462112Y1928559D01*
G01X-3487512Y1687259D02*
G01X-3462112Y1712659D01*
G01X-3638071Y1829762D02*
G01X-3611320Y1856514D01*
G01X-3638071Y1586636D02*
G01X-3638071Y1829762D01*
G01X-3269206Y1856514D02*
G01X-3284220Y1841500D01*
G01X-3154120Y1856514D02*
G01X-3269206Y1856514D01*
G01X-3360512Y1739808D02*
G01X-3335020Y1765300D01*
G01X-3360512Y1593545D02*
G01X-3360512Y1739808D01*
G01X-2585812Y1593545D02*
G01X-2585812Y1739808D01*
G01X-2560320Y1765300D01*
G01X-2379420Y1856514D02*
G01X-2494506Y1856514D01*
G01X-2509520Y1841500D01*
G01X-2863371Y1586636D02*
G01X-2863371Y1829762D01*
G01X-2836620Y1856514D01*
G01X-2687412Y1712659D02*
G01X-2687412Y1928559D01*
G01X-4412771Y1829762D02*
G01X-4386020Y1856514D01*
G01X-4049271Y-273393D02*
G01X-4049271Y-202692D01*
G01X-2532380Y-1928052D02*
G01X-2611772Y-2007444D01*
G01X-2356421Y-1435456D02*
G01X-2469857Y-1435456D01*
G01X-2557872Y-1231392D02*
G01X-2506980Y-1180500D01*
G01X-2506980Y-1079043D01*
G01X-2356421Y-1586129D02*
G01X-2356421Y-1829255D01*
G01X-2506980Y-1593037D02*
G01X-2506980Y-1686752D01*
G01X-2532380Y-1712152D01*
G01X-2532380Y-1928052D01*
G01X-2506980Y-1593037D02*
G01X-2506980Y-1512633D01*
G01X-2559621Y-1459992D01*
G01X-2469857Y-1435456D02*
G01X-2610421Y-1294892D01*
G01X-2750121Y-1294892D01*
G01X-3078572Y-609092D02*
G01X-3040472Y-570992D01*
G01X-2752284Y-570992D01*
G01X-2752284Y-443992D02*
G01X-2752284Y-570992D01*
G01X-2668260Y-443992D02*
G01X-2668260Y-570992D01*
G01X-2913472Y-234595D02*
G01X-3055353Y-376476D01*
G01X-3200692Y-376476D01*
G01X-3205572Y-381356D01*
G01X-3078572Y-472976D02*
G01X-3137624Y-532029D01*
G01X-3205572Y-532029D01*
G01X-3103972Y-304292D02*
G01X-3149273Y-258991D01*
G01X-3548472Y-469392D02*
G01X-3460436Y-381356D01*
G01X-3205572Y-381356D01*
G01X-2758562Y-437713D02*
G01X-2752284Y-443992D01*
G01X-2668260Y-443992D02*
G01X-2672172Y-440081D01*
G01X-3149273Y-258991D02*
G01X-3149273Y-202692D01*
G01X-3159954Y-192012D01*
G01X-3159954Y-75692D01*
G01X-3073390Y-75692D02*
G01X-2932370Y-75692D01*
G01X-2913472Y-94590D01*
G01X-3548472Y-469392D02*
G01X-3853272Y-469392D01*
G01X-4049271Y-273393D01*
G01X-2758562Y-309525D02*
G01X-2758562Y-437713D01*
G01X-2672172Y-440081D02*
G01X-2672172Y-316992D01*
G01X-2818374Y-94590D02*
G01X-2799172Y-113792D01*
G01X-2913472Y-94590D02*
G01X-2818374Y-94590D01*
G01X-2904405Y-225528D02*
G01X-2913472Y-234595D01*
G01X-2758562Y-225528D02*
G01X-2904405Y-225528D01*
G01X-2697572Y-139192D02*
G01X-2697572Y-164538D01*
G01X-2758562Y-225528D01*
G54D54*
G01X-4524901Y-1550363D02*
G01X-4482227Y-1593037D01*
G01X-4437380Y-1593037D01*
G54D52*
G01X-3332969Y-819898D02*
G01X-3408680Y-895609D01*
G01X-2633980Y-1079043D02*
G01X-2633980Y-977484D01*
G01X-2697572Y-913892D02*
G01X-2900772Y-913892D01*
G01X-3599272Y-812292D02*
G01X-3510372Y-812292D01*
G01X-3408680Y-895609D02*
G01X-3408680Y-1079043D01*
G01X-2750121Y-1294892D02*
G01X-2887980Y-1157033D01*
G01X-2760980Y-1079043D02*
G01X-2760980Y-1167984D01*
G01X-2710272Y-1218692D01*
G01X-4183380Y-1002700D02*
G01X-4056472Y-875792D01*
G01X-3662772Y-875792D01*
G01X-3599272Y-812292D01*
G01X-2900772Y-913892D02*
G01X-2989672Y-824992D01*
G01X-3116672Y-824992D01*
G01X-2840372Y-1856006D02*
G01X-2725286Y-1856006D01*
G01X-2710272Y-1840992D01*
G01X-2699321Y-1459992D02*
G01X-2760980Y-1521652D01*
G01X-2760980Y-1593037D01*
G54D54*
G01X-2887980Y-1593037D02*
G01X-2932827Y-1593037D01*
G01X-2975501Y-1550363D01*
G54D52*
G01X-4437380Y-1206084D02*
G01X-4437380Y-1079043D01*
G01X-4310380Y-1079043D02*
G01X-4310380Y-1155284D01*
G01X-4031072Y-1269492D02*
G01X-4056380Y-1244184D01*
G01X-4056380Y-1079043D01*
G01X-4183380Y-1079043D02*
G01X-4183380Y-1002700D01*
G01X-4019257Y-1435456D02*
G01X-4159821Y-1294892D01*
G01X-3905821Y-1435456D02*
G01X-4019257Y-1435456D01*
G54D54*
G01X-3662680Y-1593037D02*
G01X-3707527Y-1593037D01*
G01X-3751672Y-1548892D01*
G54D52*
G01X-3281680Y-1512633D02*
G01X-3334321Y-1459992D01*
G01X-3281680Y-1593037D02*
G01X-3281680Y-1512633D01*
G01X-3281680Y-1593037D02*
G01X-3281680Y-1686752D01*
G01X-3535680Y-1521652D02*
G01X-3535680Y-1593037D01*
G01X-3474021Y-1459992D02*
G01X-3535680Y-1521652D01*
G01X-3244557Y-1435456D02*
G01X-3372421Y-1307592D01*
G01X-4348572Y-1294892D02*
G01X-4437380Y-1206084D01*
G01X-4248721Y-1459992D02*
G01X-4310380Y-1521652D01*
G01X-4310380Y-1593037D01*
G01X-4056380Y-1593037D02*
G01X-4056380Y-1686752D01*
G01X-4081780Y-1712152D01*
G01X-4056380Y-1593037D02*
G01X-4056380Y-1512633D01*
G01X-4109021Y-1459992D01*
G01X-4159821Y-1294892D02*
G01X-4348572Y-1294892D01*
G01X-4310380Y-1155284D02*
G01X-4246972Y-1218692D01*
G01X-3372421Y-1307592D02*
G01X-3548472Y-1307592D01*
G01X-3662680Y-1193384D01*
G01X-3662680Y-1079043D01*
G01X-3535680Y-1180684D02*
G01X-3484972Y-1231392D01*
G01X-2633980Y-977484D02*
G01X-2697572Y-913892D01*
G01X-2887980Y-1157033D02*
G01X-2887980Y-1079043D01*
G01X-3131121Y-1435456D02*
G01X-3244557Y-1435456D01*
G01X-3332572Y-1231392D02*
G01X-3281680Y-1180500D01*
G01X-3281680Y-1079043D01*
G01X-3535680Y-1079043D02*
G01X-3535680Y-1180684D01*
G01X-2611772Y-2072692D02*
G01X-2646772Y-2107692D01*
G01X-4161172Y-2072692D02*
G01X-4196172Y-2107692D01*
G01X-4081780Y-1928052D02*
G01X-4161172Y-2007444D01*
G01X-4161172Y-2072692D01*
G01X-2611772Y-2007444D02*
G01X-2611772Y-2072692D01*
G01X-3386472Y-2007444D02*
G01X-3386472Y-2072692D01*
G01X-3307080Y-1928052D02*
G01X-3386472Y-2007444D01*
G01X-3386472Y-2072692D02*
G01X-3421472Y-2107692D01*
G01X-3307080Y-1712152D02*
G01X-3307080Y-1928052D01*
G01X-3281680Y-1686752D02*
G01X-3307080Y-1712152D01*
G01X-3131121Y-1829255D02*
G01X-3157872Y-1856006D01*
G01X-3131121Y-1586129D02*
G01X-3131121Y-1829255D01*
G01X-3499986Y-1856006D02*
G01X-3484972Y-1840992D01*
G01X-3615072Y-1856006D02*
G01X-3499986Y-1856006D01*
G01X-4389772Y-1856006D02*
G01X-4274686Y-1856006D01*
G01X-4259672Y-1840992D01*
G01X-3905821Y-1586129D02*
G01X-3905821Y-1829255D01*
G01X-3932572Y-1856006D01*
G01X-4081780Y-1712152D02*
G01X-4081780Y-1928052D01*
G01X-2356421Y-1829255D02*
G01X-2383172Y-1856006D01*
G01X2719921Y-273901D02*
G01X2719921Y-203200D01*
G01X4236812Y-1928559D02*
G01X4157420Y-2007951D01*
G01X4412771Y-1435964D02*
G01X4299335Y-1435964D01*
G01X4211320Y-1231900D02*
G01X4262212Y-1181008D01*
G01X4262212Y-1079551D01*
G01X4412771Y-1586636D02*
G01X4412771Y-1829762D01*
G01X4262212Y-1593545D02*
G01X4262212Y-1687259D01*
G01X4236812Y-1712659D01*
G01X4236812Y-1928559D01*
G01X4262212Y-1593545D02*
G01X4262212Y-1513141D01*
G01X4209571Y-1460500D01*
G01X4299335Y-1435964D02*
G01X4158771Y-1295400D01*
G01X4019071Y-1295400D01*
G01X3690620Y-609600D02*
G01X3728720Y-571500D01*
G01X4016908Y-571500D01*
G01X4016908Y-444500D02*
G01X4016908Y-571500D01*
G01X4100932Y-444500D02*
G01X4100932Y-571500D01*
G01X3855720Y-235102D02*
G01X3713839Y-376984D01*
G01X3568500Y-376984D01*
G01X3563620Y-381864D01*
G01X3690620Y-473484D02*
G01X3631568Y-532536D01*
G01X3563620Y-532536D01*
G01X3665220Y-304800D02*
G01X3619919Y-259499D01*
G01X3220720Y-469900D02*
G01X3308756Y-381864D01*
G01X3563620Y-381864D01*
G01X4010630Y-438221D02*
G01X4016908Y-444500D01*
G01X4100932Y-444500D02*
G01X4097020Y-440588D01*
G01X3619919Y-259499D02*
G01X3619919Y-203200D01*
G01X3609238Y-192519D01*
G01X3609238Y-76200D01*
G01X3695802Y-76200D02*
G01X3836822Y-76200D01*
G01X3855720Y-95098D01*
G01X3220720Y-469900D02*
G01X2915920Y-469900D01*
G01X2719921Y-273901D01*
G01X4010630Y-310032D02*
G01X4010630Y-438221D01*
G01X4097020Y-440588D02*
G01X4097020Y-317500D01*
G01X3950818Y-95098D02*
G01X3970020Y-114300D01*
G01X3855720Y-95098D02*
G01X3950818Y-95098D01*
G01X3864787Y-226036D02*
G01X3855720Y-235102D01*
G01X4010630Y-226036D02*
G01X3864787Y-226036D01*
G01X4071620Y-139700D02*
G01X4071620Y-165045D01*
G01X4010630Y-226036D01*
G54D54*
G01X2244291Y-1550871D02*
G01X2286965Y-1593545D01*
G01X2331812Y-1593545D01*
G54D52*
G01X4135212Y-1079551D02*
G01X4135212Y-977992D01*
G01X4071620Y-914400D02*
G01X3868420Y-914400D01*
G01X3169920Y-812800D02*
G01X3258820Y-812800D01*
G01X4019071Y-1295400D02*
G01X3881212Y-1157541D01*
G01X4008212Y-1079551D02*
G01X4008212Y-1168492D01*
G01X4058920Y-1219200D01*
G01X2585812Y-1003208D02*
G01X2712720Y-876300D01*
G01X3106420Y-876300D01*
G01X3169920Y-812800D01*
G01X3928820Y-1856514D02*
G01X4043906Y-1856514D01*
G01X4058920Y-1841500D01*
G01X4069871Y-1460500D02*
G01X4008212Y-1522159D01*
G01X4008212Y-1593545D01*
G54D54*
G01X3881212Y-1593545D02*
G01X3836365Y-1593545D01*
G01X3793691Y-1550871D01*
G54D52*
G01X2331812Y-1206592D02*
G01X2331812Y-1079551D01*
G01X2458812Y-1079551D02*
G01X2458812Y-1155792D01*
G01X2738120Y-1270000D02*
G01X2712812Y-1244692D01*
G01X2712812Y-1079551D01*
G01X2585812Y-1079551D02*
G01X2585812Y-1003208D01*
G01X2749935Y-1435964D02*
G01X2609371Y-1295400D01*
G01X2863371Y-1435964D02*
G01X2749935Y-1435964D01*
G54D54*
G01X3106512Y-1593545D02*
G01X3061665Y-1593545D01*
G01X3017520Y-1549400D01*
G54D52*
G01X3487512Y-1513141D02*
G01X3434871Y-1460500D01*
G01X3487512Y-1593545D02*
G01X3487512Y-1513141D01*
G01X3487512Y-1593545D02*
G01X3487512Y-1687259D01*
G01X3233512Y-1522159D02*
G01X3233512Y-1593545D01*
G01X3295171Y-1460500D02*
G01X3233512Y-1522159D01*
G01X3524635Y-1435964D02*
G01X3396771Y-1308100D01*
G01X2420620Y-1295400D02*
G01X2331812Y-1206592D01*
G01X2520471Y-1460500D02*
G01X2458812Y-1522159D01*
G01X2458812Y-1593545D01*
G01X2712812Y-1593545D02*
G01X2712812Y-1687259D01*
G01X2687412Y-1712659D01*
G01X2712812Y-1593545D02*
G01X2712812Y-1513141D01*
G01X2660171Y-1460500D01*
G01X2609371Y-1295400D02*
G01X2420620Y-1295400D01*
G01X2458812Y-1155792D02*
G01X2522220Y-1219200D01*
G01X3396771Y-1308100D02*
G01X3220720Y-1308100D01*
G01X3106512Y-1193892D01*
G01X3106512Y-1079551D01*
G01X3233512Y-1181192D02*
G01X3284220Y-1231900D01*
G01X4135212Y-977992D02*
G01X4071620Y-914400D01*
G01X3881212Y-1157541D02*
G01X3881212Y-1079551D01*
G01X3638071Y-1435964D02*
G01X3524635Y-1435964D01*
G01X3436620Y-1231900D02*
G01X3487512Y-1181008D01*
G01X3487512Y-1079551D01*
G01X3233512Y-1079551D02*
G01X3233512Y-1181192D01*
G01X4157420Y-2073200D02*
G01X4122420Y-2108200D01*
G01X2608020Y-2073200D02*
G01X2573020Y-2108200D01*
G01X2687412Y-1928559D02*
G01X2608020Y-2007951D01*
G01X2608020Y-2073200D01*
G01X4157420Y-2007951D02*
G01X4157420Y-2073200D01*
G01X3382720Y-2007951D02*
G01X3382720Y-2073200D01*
G01X3462112Y-1928559D02*
G01X3382720Y-2007951D01*
G01X3382720Y-2073200D02*
G01X3347720Y-2108200D01*
G01X3462112Y-1712659D02*
G01X3462112Y-1928559D01*
G01X3487512Y-1687259D02*
G01X3462112Y-1712659D01*
G01X3638071Y-1829762D02*
G01X3611320Y-1856514D01*
G01X3638071Y-1586636D02*
G01X3638071Y-1829762D01*
G01X3269206Y-1856514D02*
G01X3284220Y-1841500D01*
G01X3154120Y-1856514D02*
G01X3269206Y-1856514D01*
G01X2379420Y-1856514D02*
G01X2494506Y-1856514D01*
G01X2509520Y-1841500D01*
G01X2863371Y-1586636D02*
G01X2863371Y-1829762D01*
G01X2836620Y-1856514D01*
G01X2687412Y-1712659D02*
G01X2687412Y-1928559D01*
G01X4412771Y-1829762D02*
G01X4386020Y-1856514D01*
G54D11*
G01X1935203Y-1705509D02*
G01X1998500Y-1642212D01*
G01X2075790Y-1642212D01*
G01X2075790Y-1692199D02*
G01X2006600Y-1761388D01*
G01X2006600Y-1765300D01*
G01X2075790Y-1592199D02*
G01X1913001Y-1592199D01*
G01X1892300Y-1612900D01*
G01X1879600Y-1435100D02*
G01X1936699Y-1492199D01*
G01X2075790Y-1492199D01*
G01X1938000Y-1165785D02*
G01X1964415Y-1192200D01*
G01X2075790Y-1192200D01*
G01X2006600Y-406400D02*
G01X2006600Y-266700D01*
G01X2075790Y-642188D02*
G01X1975688Y-642188D01*
G01X1917700Y-584200D01*
G01X1917700Y-533400D01*
G01X1943100Y-508000D01*
G01X1943100Y-469900D01*
G01X2006600Y-406400D01*
G01X2203298Y-635000D02*
G01X2160499Y-592201D01*
G01X2075790Y-592201D01*
G01X2075790Y-542188D02*
G01X2193076Y-542188D01*
G01X2209066Y-558179D01*
G01X2075790Y-492201D02*
G01X2076684Y-491306D01*
G01X2076684Y-425684D01*
G54D51*
G01X-593202Y-148895D02*
G01X-593202Y-130698D01*
G01X-673100Y-50800D01*
G54D11*
G01X-440995Y-783895D02*
G01X-593202Y-783895D01*
G01X-593202Y-402895D02*
G01X182214Y-402895D01*
G01X634449Y-358723D02*
G01X523823Y-358723D01*
G01X495300Y-330200D01*
G01X355600Y-330200D01*
G01X155905Y-529895D01*
G01X-61069Y-529895D01*
G01X-113464Y-477500D01*
G01X-303850Y-477500D01*
G01X-483245Y-656895D01*
G01X-593202Y-656895D01*
G01X-288459Y-513100D02*
G01X-393700Y-618341D01*
G01X-393700Y-736600D01*
G01X-440995Y-783895D01*
G01X-98718Y-441900D02*
G01X-340300Y-441900D01*
G01X-428295Y-529895D01*
G01X-593202Y-529895D01*
G54D52*
G01X-596900Y-1143000D02*
G01X-593202Y-1139302D01*
G01X-593202Y-1037895D01*
G54D11*
G01X-482600Y1202027D02*
G01X-678787Y1202027D01*
G54D51*
G01X-402704Y311036D02*
G01X-469900Y243840D01*
G54D52*
G01X-520700Y889253D02*
G01X-499212Y867764D01*
G01X-520700Y967740D02*
G01X-520700Y889253D01*
G54D11*
G01X-481977Y1202027D02*
G01X-482600Y1202027D01*
G01X-210800Y880050D02*
G01X-210800Y937240D01*
G01X-228600Y955040D01*
G54D51*
G01X-469900Y243840D02*
G01X-685800Y243840D01*
G01X-745604Y303644D02*
G01X-745604Y383540D01*
G54D11*
G01X-259080Y145118D02*
G01X-259080Y452120D01*
G01X-303808Y100390D02*
G01X-259080Y145118D01*
G01X-303808Y52010D02*
G01X-303808Y100390D01*
G01X-269598Y17800D02*
G01X-303808Y52010D01*
G01X-269598Y-34608D02*
G01X-269598Y17800D01*
G01X-287000Y-52010D02*
G01X-269598Y-34608D01*
G01X-287000Y-100390D02*
G01X-287000Y-52010D01*
G01X-252790Y-134600D02*
G01X-287000Y-100390D01*
G01X-252790Y-298511D02*
G01X-252790Y-134600D01*
G54D51*
G01X-685800Y243840D02*
G01X-745604Y303644D01*
G54D52*
G01X-754393Y392328D02*
G01X-754393Y514033D01*
G54D11*
G01X-259080Y452120D02*
G01X-119400Y591800D01*
G01X-144800Y845840D02*
G01X-176590Y845840D01*
G54D51*
G01X-2313940Y-38100D02*
G01X-2397760Y-121920D01*
G01X-2550160Y-121920D01*
G01X-2621280Y-50800D01*
G01X-1845201Y43104D02*
G01X-1872056Y43104D01*
G01X-1953260Y-38100D01*
G01X-2313940Y-38100D01*
G54D11*
G01X2151805Y-1292200D02*
G01X2075790Y-1292200D01*
G01X2219289Y-1224716D02*
G01X2151805Y-1292200D01*
G01X2219289Y-772160D02*
G01X2219289Y-1224716D01*
G01X2313940Y-677509D02*
G01X2219289Y-772160D01*
G01X-368300Y-327660D02*
G01X-281939Y-327660D01*
G01X-252790Y-298511D01*
G54D52*
G01X-3374895Y266697D02*
G01X-3184398Y76200D01*
G01X-2458720Y76200D01*
G01X3374895Y-266697D02*
G01X3184398Y-76200D01*
G01X2458720Y-76200D01*
G54D11*
G01X3394205Y266697D02*
G01X3394205Y143005D01*
G01X3253740Y2540D01*
G01X2313940Y-22860D02*
G01X2313940Y-677509D01*
G01X2402840Y66040D02*
G01X2313940Y-22860D01*
G01X3253740Y2540D02*
G01X2578100Y2540D01*
G01X2514600Y66040D01*
G01X2402840Y66040D01*
G54D51*
G01X-772160Y277089D02*
G01X-745604Y303644D01*
G01X-772160Y-63955D02*
G01X-772160Y277089D01*
G01X-814050Y-105846D02*
G01X-772160Y-63955D01*
G01X-814050Y-1233190D02*
G01X-814050Y-105846D01*
G01X-622300Y-1536700D02*
G01X-617220Y-1531620D01*
G01X-622300Y-1536700D02*
G01X-622300Y-1424940D01*
G01X-814050Y-1233190D01*
G54D50*
G01X-1844705Y-1236904D02*
G01X-2411049Y-670560D01*
G01X-2550160Y-670560D01*
G01X-876141Y-1536859D02*
G01X-876141Y-1969065D01*
G54D11*
G01X1920799Y-1847190D02*
G01X1993849Y-1920240D01*
G01X2080260Y-1920240D01*
G01X1059180Y-1163320D02*
G01X1135400Y-1087100D01*
G01X1135400Y-659190D01*
G01X391236Y208255D02*
G01X236245Y208255D01*
G01X-2697572Y-33112D02*
G01X-2649220Y15240D01*
G01X-2697572Y-139192D02*
G01X-2697572Y-33112D01*
G01X-2649220Y15240D02*
G01X-2575560Y15240D01*
G01X-2512060Y-48260D01*
G01X-2415540Y-48260D01*
G01X-3272048Y-667492D02*
G01X-3388360Y-551180D01*
G01X-3041181Y-667492D02*
G01X-3272048Y-667492D01*
G01X-2999581Y-625893D02*
G01X-3041181Y-667492D01*
G01X-2631704Y-625893D02*
G01X-2999581Y-625893D01*
G01X-2554451Y-548640D02*
G01X-2631704Y-625893D01*
G01X-1795780Y-548640D02*
G01X-2554451Y-548640D01*
G01X-916619Y-1427801D02*
G01X-1795780Y-548640D01*
G01X-783744Y-1427801D02*
G01X-916619Y-1427801D01*
G01X-767401Y-1444144D02*
G01X-783744Y-1427801D01*
G01X-767401Y-1577019D02*
G01X-767401Y-1444144D01*
G01X-662920Y-1681500D02*
G01X-767401Y-1577019D01*
G01X-200640Y-1681500D02*
G01X-662920Y-1681500D01*
G01X330871Y-2559499D02*
G01X9644Y-2559499D01*
G01X576470Y-2313900D02*
G01X330871Y-2559499D01*
G01X1465109Y-2313900D02*
G01X576470Y-2313900D01*
G01X1597410Y-2446201D02*
G01X1465109Y-2313900D01*
G01X1678759Y-2446201D02*
G01X1597410Y-2446201D01*
G01X1696720Y-2428240D02*
G01X1678759Y-2446201D01*
G01X1696720Y-2413836D02*
G01X1696720Y-2428240D01*
G01X1863699Y-2246857D02*
G01X1696720Y-2413836D01*
G01X1863699Y-1854302D02*
G01X1863699Y-2246857D01*
G01X1870812Y-1847190D02*
G01X1863699Y-1854302D01*
G01X-38100Y-1844040D02*
G01X-200640Y-1681500D01*
G01X9644Y-2559499D02*
G01X-38100Y-2511755D01*
G01X-38100Y-1844040D01*
G54D52*
G01X3362563Y-825485D02*
G01X3360512Y-827536D01*
G01X3360512Y-1079551D01*
G01X3868420Y-914400D02*
G01X3766820Y-812800D01*
G01X3480200Y-812800D01*
G01X-4071620Y-180343D02*
G01X-4071620Y139700D01*
G01X-4049271Y-202692D02*
G01X-4071620Y-180343D01*
G01X2367280Y139700D02*
G01X2352040Y124460D01*
G01X2697480Y139700D02*
G01X2367280Y139700D01*
G01X2585812Y-1593545D02*
G01X2585812Y-1666148D01*
G01X2527300Y-1724660D01*
G01X3360512Y-1593545D02*
G01X3360512Y-1653428D01*
G01X3281680Y-1732260D01*
G01X4071620Y180759D02*
G01X4049179Y203200D01*
G01X4071620Y-139700D02*
G01X4071620Y180759D01*
G01X4135212Y-1593545D02*
G01X4135212Y-1647588D01*
G01X4064000Y-1718800D01*
G01X-4183380Y-1665640D02*
G01X-4241892Y-1724152D01*
G01X-4183380Y-1593037D02*
G01X-4183380Y-1665640D01*
G01X-3408680Y-1652920D02*
G01X-3487512Y-1731752D01*
G01X-3408680Y-1593037D02*
G01X-3408680Y-1652920D01*
G01X-2633980Y-1647081D02*
G01X-2705192Y-1718292D01*
G01X-2633980Y-1593037D02*
G01X-2633980Y-1647081D01*
G54D11*
G01X2082902Y-1235100D02*
G01X2075790Y-1242212D01*
G01X2158559Y-1235100D02*
G01X2082902Y-1235100D01*
G01X2183690Y-1209970D02*
G01X2158559Y-1235100D01*
G01X2183690Y-744930D02*
G01X2183690Y-1209970D01*
G01X-2458720Y76200D02*
G01X-2293620Y241300D01*
G01X1612900Y741680D02*
G01X1874520Y480060D01*
G01X2174240Y480060D01*
G01X2267467Y386833D01*
G01X2267467Y-661153D01*
G01X2183690Y-744930D01*
G01X-2293620Y241300D02*
G01X-2293620Y403860D01*
G01X-1236980Y1460500D01*
G01X177800Y1460500D01*
G01X896620Y741680D01*
G01X1612900Y741680D01*
G54D51*
G01X1040623Y63500D02*
G01X1060602Y43521D01*
G01X1060602Y-111760D01*
G54D11*
G01X820801Y-337210D02*
G01X827888Y-330123D01*
G01X827888Y-254441D01*
G01X920598Y-161731D01*
G01X920598Y-111760D01*
G01X1170788Y-337210D02*
G01X1170788Y-201267D01*
G01X1257585Y-114469D01*
G01X1257585Y-82224D01*
G01X1320800Y-337210D02*
G01X1320800Y-254000D01*
G01X1484300Y-90500D01*
G01X1484300Y25400D01*
G01X1270813Y-337210D02*
G01X1270813Y-235407D01*
G01X1404514Y-101706D01*
G01X1404514Y-87696D01*
G01X1220800Y-337210D02*
G01X1220800Y-219380D01*
G01X1333500Y-106680D01*
G01X1333500Y25400D01*
G01X1145540Y57986D02*
G01X1145540Y-167640D01*
G01X1120800Y-192380D01*
G01X1120800Y-337210D01*
G01X-119400Y820440D02*
G01X-144800Y845840D01*
G01X-119400Y591800D02*
G01X-119400Y820440D01*
G01X-1196940Y1361440D02*
G01X-838200Y1361440D01*
G01X190500Y254000D02*
G01X177800Y266700D01*
G01X177800Y929640D01*
G01X60960Y1046480D01*
G01X-326430Y1046480D01*
G01X-481977Y1202027D01*
G01X-406400Y1209040D02*
G01X-294640Y1097280D01*
G01X106246Y1097280D01*
G01X1145540Y57986D01*
G01X-2415540Y-48260D02*
G01X-2202180Y165100D01*
G01X-2202180Y356200D01*
G01X-1196940Y1361440D01*
G04 Track End*

M02*

