G04 Layer: BottomSolderMaskLayer*
G04 EasyEDA Pro v2.2.47.7, 2026-04-29 20:25:51*
G04 Gerber Generator version 0.3*
G04 Scale: 100 percent, Rotated: No, Reflected: No*
G04 Dimensions in millimeters*
G04 Leading zeros omitted, absolute positions, 4 integers and 5 decimals*
G04 Generated by one-click*
G04 Object Configs: Pad,Via,Track,Text,Image,Dimension,BoardOutline,BoardCutout,CopperFilled,SolidRegion,FPCStiffener,Line,PlaneZone,ComponentProperty,ComponentSilkscreen,TearDrop*
G04 Layer Configs: 1,15,16,2,3,4,5,6,7,8,9,10,11,13,14,56*
G04 Copper Areas: 0*
%FSLAX45Y45*%
%MOMM*%
%AMRoundRect*1,1,$1,$2,$3*1,1,$1,$4,$5*1,1,$1,0-$2,0-$3*1,1,$1,0-$4,0-$5*20,1,$1,$2,$3,$4,$5,0*20,1,$1,$4,$5,0-$2,0-$3,0*20,1,$1,0-$2,0-$3,0-$4,0-$5,0*20,1,$1,0-$4,0-$5,$2,$3,0*4,1,4,$2,$3,$4,$5,0-$2,0-$3,0-$4,0-$5,$2,$3,0*%
%ADD10RoundRect,0.09131X-0.40514X0.45514X0.40514X0.45514*%
%ADD11RoundRect,0.09131X-0.45514X-0.40514X-0.45514X0.40514*%
%ADD12RoundRect,0.08692X-0.27734X-0.25734X-0.27734X0.25734*%
%ADD13C,1.72159*%
%ADD14RoundRect,0.09594X-0.81282X-0.81282X-0.81282X0.81282*%
%ADD15RoundRect,0.09594X-0.81282X0.81282X0.81282X0.81282*%
%ADD16RoundRect,0.09841X-3.0008X-3.25081X-3.0008X3.25081*%
%ADD17RoundRect,0.09288X-0.60357X-1.25357X-0.60357X1.25357*%
%ADD18RoundRect,0.0903X-0.43711X-0.40835X-0.43711X0.40835*%
%ADD19RoundRect,0.09138X-0.43711X-0.40835X-0.43711X0.40835*%
%ADD20RoundRect,0.09138X-0.40835X0.43711X0.40835X0.43711*%
%ADD21O,1.78559X0.54961*%
%ADD22O,0.54961X1.78559*%
%ADD23RoundRect,0.0879X-0.60685X-0.28186X-0.60685X0.28186*%
%ADD24RoundRect,0.09495X-0.70833X0.67833X0.70833X0.67833*%
%ADD25RoundRect,0.09471X-0.76844X0.65145X0.76844X0.65145*%
%ADD26RoundRect,0.09288X-1.23936X0.49437X1.23936X0.49437*%
%ADD27RoundRect,0.09774X-1.23693X1.80193X1.23693X1.80193*%
%ADD28RoundRect,0.09302X-0.50429X1.35429X0.50429X1.35429*%
%ADD29RoundRect,0.08771X-0.27695X-0.28977X-0.27695X0.28977*%
%ADD30RoundRect,0.08002X-0.16X0.63501X0.16X0.63501*%
%ADD31RoundRect,0.09548X-1.00227X1.25227X1.00227X1.25227*%
%ADD32RoundRect,0.08875X-0.30643X0.54643X0.30643X0.54643*%
%ADD33C,1.9*%
%ADD34O,0.8016X1.8746*%
%ADD35O,1.30002X2.30002*%
%ADD36C,3.90002*%
%ADD37O,1.1016X1.9016*%
%ADD38O,1.1016X2.1016*%
%ADD39RoundRect,0.08692X-0.25734X0.27734X0.25734X0.27734*%
%ADD40RoundRect,0.09131X-0.45514X0.40514X0.45514X0.40514*%
%ADD41O,1.80002X3.00002*%
G75*


G04 Pad Start*
G54D10*
G01X399898Y-2832100D03*
G01X539902Y-2832100D03*
G54D11*
G01X-2355371Y1416202D03*
G01X-2355371Y1276198D03*
G01X-3904771Y1416202D03*
G01X-3904771Y1276198D03*
G01X-3130071Y1416202D03*
G01X-3130071Y1276198D03*
G54D10*
G01X-4076069Y1562100D03*
G01X-4216074Y1562100D03*
G01X-3301369Y1562100D03*
G01X-3441374Y1562100D03*
G54D11*
G01X-2814320Y997102D03*
G01X-2814320Y857098D03*
G54D10*
G01X-2526669Y1562100D03*
G01X-2666674Y1562100D03*
G54D11*
G01X2355371Y-1416202D03*
G01X2355371Y-1276198D03*
G01X3904771Y-1416202D03*
G01X3904771Y-1276198D03*
G01X3130071Y-1416202D03*
G01X3130071Y-1276198D03*
G54D10*
G01X4076069Y-1562100D03*
G01X4216074Y-1562100D03*
G01X3301369Y-1562100D03*
G01X3441374Y-1562100D03*
G54D11*
G01X2814320Y-997102D03*
G01X2814320Y-857098D03*
G54D12*
G01X-25400Y-727812D03*
G01X-25400Y-643788D03*
G54D10*
G01X2526669Y-1562100D03*
G01X2666674Y-1562100D03*
G54D11*
G01X2864329Y1416202D03*
G01X2864329Y1276198D03*
G01X-4413821Y-1415695D03*
G01X-4413821Y-1275690D03*
G01X-2864421Y-1415695D03*
G01X-2864421Y-1275690D03*
G01X-3639121Y-1415695D03*
G01X-3639121Y-1275690D03*
G54D10*
G01X-2693123Y-1561592D03*
G01X-2553118Y-1561592D03*
G01X-3467823Y-1561592D03*
G01X-3327818Y-1561592D03*
G54D11*
G01X3954780Y997102D03*
G01X3954780Y857098D03*
G54D10*
G01X2693031Y1562100D03*
G01X2553026Y1562100D03*
G54D11*
G01X3639029Y1416202D03*
G01X3639029Y1276198D03*
G54D10*
G01X3467731Y1562100D03*
G01X3327726Y1562100D03*
G54D11*
G01X4413729Y1416202D03*
G01X4413729Y1276198D03*
G54D10*
G01X4242431Y1562100D03*
G01X4102426Y1562100D03*
G54D11*
G01X-3954872Y-996595D03*
G01X-3954872Y-856590D03*
G54D10*
G01X-4242523Y-1561592D03*
G01X-4102518Y-1561592D03*
G54D13*
G01X4310380Y76200D03*
G01X4310380Y330200D03*
G01X4310380Y584200D03*
G54D14*
G01X4310380Y838200D03*
G54D13*
G01X-114300Y-1536700D03*
G01X-368300Y-1536700D03*
G01X-622300Y-1536700D03*
G54D15*
G01X-876300Y-1536700D03*
G54D13*
G01X-2458720Y76200D03*
G01X-2458720Y330200D03*
G01X-2458720Y584200D03*
G54D14*
G01X-2458720Y838200D03*
G54D13*
G01X2458720Y-76200D03*
G01X2458720Y-330200D03*
G01X2458720Y-584200D03*
G54D14*
G01X2458720Y-838200D03*
G54D13*
G01X-4310472Y-75692D03*
G01X-4310472Y-329692D03*
G01X-4310472Y-583692D03*
G54D14*
G01X-4310472Y-837692D03*
G54D16*
G01X2610329Y2919808D03*
G54D17*
G01X2381729Y2224814D03*
G01X2838929Y2224814D03*
G54D16*
G01X3385029Y2919808D03*
G54D17*
G01X3156429Y2224814D03*
G01X3613629Y2224814D03*
G54D16*
G01X4159729Y2919808D03*
G54D17*
G01X3931129Y2224814D03*
G01X4388329Y2224814D03*
G54D16*
G01X-2609371Y2919808D03*
G54D17*
G01X-2837971Y2224814D03*
G01X-2380771Y2224814D03*
G54D16*
G01X-3384071Y2919808D03*
G54D17*
G01X-3612671Y2224814D03*
G01X-3155471Y2224814D03*
G54D16*
G01X-4158771Y2919808D03*
G54D17*
G01X-4387371Y2224814D03*
G01X-3930171Y2224814D03*
G54D16*
G01X2609371Y-2919808D03*
G54D17*
G01X2837971Y-2224814D03*
G01X2380771Y-2224814D03*
G54D16*
G01X3384071Y-2919808D03*
G54D17*
G01X3612671Y-2224814D03*
G01X3155471Y-2224814D03*
G54D16*
G01X4158771Y-2919808D03*
G54D17*
G01X4387371Y-2224814D03*
G01X3930171Y-2224814D03*
G54D16*
G01X-4159821Y-2919301D03*
G54D17*
G01X-3931221Y-2224306D03*
G01X-4388421Y-2224306D03*
G54D16*
G01X-3385121Y-2919301D03*
G54D17*
G01X-3156521Y-2224306D03*
G01X-3613721Y-2224306D03*
G54D16*
G01X-2610421Y-2919301D03*
G54D17*
G01X-2381821Y-2224306D03*
G01X-2839021Y-2224306D03*
G54D19*
G01X-2685571Y1929536D03*
G01X-2685571Y1778864D03*
G01X-2837971Y1929536D03*
G01X-2837971Y1778864D03*
G01X-2685571Y2221636D03*
G01X-2685571Y2070964D03*
G01X-3460271Y2221636D03*
G01X-3460271Y2070964D03*
G01X-4234971Y2221636D03*
G01X-4234971Y2070964D03*
G01X-3460271Y1929536D03*
G01X-3460271Y1778864D03*
G01X215900Y-1296264D03*
G01X215900Y-1446936D03*
G54D20*
G01X216764Y-1079500D03*
G01X367436Y-1079500D03*
G54D19*
G01X2838929Y2005736D03*
G01X2838929Y1855064D03*
G01X-4234971Y1929536D03*
G01X-4234971Y1778864D03*
G01X-3612671Y1929536D03*
G01X-3612671Y1778864D03*
G01X-4387371Y1929536D03*
G01X-4387371Y1778864D03*
G01X-2380771Y2005736D03*
G01X-2380771Y1855064D03*
G01X2534129Y2221636D03*
G01X2534129Y2070964D03*
G01X2381729Y1929536D03*
G01X2381729Y1778864D03*
G01X2534129Y1929536D03*
G01X2534129Y1778864D03*
G01X3308829Y2221636D03*
G01X3308829Y2070964D03*
G01X3156429Y1929536D03*
G01X3156429Y1778864D03*
G01X3308829Y1929536D03*
G01X3308829Y1778864D03*
G01X4083529Y2221636D03*
G01X4083529Y2070964D03*
G01X3931129Y1929536D03*
G01X3931129Y1778864D03*
G01X4083529Y1929536D03*
G01X4083529Y1778864D03*
G01X-3155471Y2005736D03*
G01X-3155471Y1855064D03*
G01X-3930171Y2005736D03*
G01X-3930171Y1855064D03*
G01X3613629Y2005736D03*
G01X3613629Y1855064D03*
G01X4388329Y2005736D03*
G01X4388329Y1855064D03*
G01X2685571Y-1929536D03*
G01X2685571Y-1778864D03*
G01X2837971Y-1929536D03*
G01X2837971Y-1778864D03*
G01X2685571Y-2221636D03*
G01X2685571Y-2070964D03*
G01X3460271Y-2221636D03*
G01X3460271Y-2070964D03*
G01X4234971Y-2221636D03*
G01X4234971Y-2070964D03*
G01X3460271Y-1929536D03*
G01X3460271Y-1778864D03*
G01X4234971Y-1929536D03*
G01X4234971Y-1778864D03*
G01X3612671Y-1929536D03*
G01X3612671Y-1778864D03*
G01X4387371Y-1929536D03*
G01X4387371Y-1778864D03*
G01X2380771Y-2005736D03*
G01X2380771Y-1855064D03*
G01X3155471Y-2005736D03*
G01X3155471Y-1855064D03*
G01X3930171Y-2005736D03*
G01X3930171Y-1855064D03*
G01X-4083621Y-1929029D03*
G01X-4083621Y-1778356D03*
G01X-3931221Y-1929029D03*
G01X-3931221Y-1778356D03*
G01X-4083621Y-2221129D03*
G01X-4083621Y-2070456D03*
G01X-3308921Y-2221129D03*
G01X-3308921Y-2070456D03*
G01X-2534221Y-2221129D03*
G01X-2534221Y-2070456D03*
G01X-3308921Y-1929029D03*
G01X-3308921Y-1778356D03*
G01X-2534221Y-1929029D03*
G01X-2534221Y-1778356D03*
G01X-3156521Y-1929029D03*
G01X-3156521Y-1778356D03*
G01X-2381821Y-1929029D03*
G01X-2381821Y-1778356D03*
G01X-4388421Y-2005229D03*
G01X-4388421Y-1854556D03*
G01X-3613721Y-2005229D03*
G01X-3613721Y-1854556D03*
G01X-2839021Y-2005229D03*
G01X-2839021Y-1854556D03*
G54D21*
G01X-3835425Y253390D03*
G01X-3835425Y333400D03*
G01X-3835425Y413410D03*
G01X-3835425Y493395D03*
G01X-3835425Y573405D03*
G01X-3835425Y653390D03*
G01X-3835425Y733400D03*
G01X-3835425Y813410D03*
G54D22*
G01X-3691230Y957605D03*
G01X-3611220Y957605D03*
G01X-3531210Y957605D03*
G01X-3451225Y957605D03*
G01X-3371215Y957605D03*
G01X-3291230Y957605D03*
G01X-3211220Y957605D03*
G01X-3131210Y957605D03*
G54D21*
G01X-2987015Y813410D03*
G01X-2987015Y733400D03*
G01X-2987015Y653390D03*
G01X-2987015Y573405D03*
G01X-2987015Y493395D03*
G01X-2987015Y413410D03*
G01X-2987015Y333400D03*
G01X-2987015Y253390D03*
G54D22*
G01X-3131210Y109195D03*
G01X-3211220Y109195D03*
G01X-3291230Y109195D03*
G01X-3371215Y109195D03*
G01X-3451225Y109195D03*
G01X-3531210Y109195D03*
G01X-3611220Y109195D03*
G01X-3691230Y109195D03*
G54D23*
G01X-1230436Y-2630761D03*
G01X-1230436Y-2440769D03*
G01X-1470435Y-2440769D03*
G01X-1470435Y-2535765D03*
G01X-1470435Y-2630761D03*
G01X-1230436Y-2535765D03*
G54D21*
G01X3835425Y-253390D03*
G01X3835425Y-333400D03*
G01X3835425Y-413410D03*
G01X3835425Y-493395D03*
G01X3835425Y-573405D03*
G01X3835425Y-653390D03*
G01X3835425Y-733400D03*
G01X3835425Y-813410D03*
G54D22*
G01X3691230Y-957605D03*
G01X3611220Y-957605D03*
G01X3531210Y-957605D03*
G01X3451225Y-957605D03*
G01X3371215Y-957605D03*
G01X3291230Y-957605D03*
G01X3211220Y-957605D03*
G01X3131210Y-957605D03*
G54D21*
G01X2987015Y-813410D03*
G01X2987015Y-733400D03*
G01X2987015Y-653390D03*
G01X2987015Y-573405D03*
G01X2987015Y-493395D03*
G01X2987015Y-413410D03*
G01X2987015Y-333400D03*
G01X2987015Y-253390D03*
G54D22*
G01X3131210Y-109195D03*
G01X3211220Y-109195D03*
G01X3291230Y-109195D03*
G01X3371215Y-109195D03*
G01X3451225Y-109195D03*
G01X3531210Y-109195D03*
G01X3611220Y-109195D03*
G01X3691230Y-109195D03*
G54D21*
G01X2933675Y253390D03*
G01X2933675Y333400D03*
G01X2933675Y413410D03*
G01X2933675Y493395D03*
G01X2933675Y573405D03*
G01X2933675Y653390D03*
G01X2933675Y733400D03*
G01X2933675Y813410D03*
G54D22*
G01X3077870Y957605D03*
G01X3157880Y957605D03*
G01X3237890Y957605D03*
G01X3317875Y957605D03*
G01X3397885Y957605D03*
G01X3477870Y957605D03*
G01X3557880Y957605D03*
G01X3637890Y957605D03*
G54D21*
G01X3782085Y813410D03*
G01X3782085Y733400D03*
G01X3782085Y653390D03*
G01X3782085Y573405D03*
G01X3782085Y493395D03*
G01X3782085Y413410D03*
G01X3782085Y333400D03*
G01X3782085Y253390D03*
G54D22*
G01X3637890Y109195D03*
G01X3557880Y109195D03*
G01X3477870Y109195D03*
G01X3397885Y109195D03*
G01X3317875Y109195D03*
G01X3237890Y109195D03*
G01X3157880Y109195D03*
G01X3077870Y109195D03*
G54D21*
G01X-2933767Y-252883D03*
G01X-2933767Y-332893D03*
G01X-2933767Y-412903D03*
G01X-2933767Y-492887D03*
G01X-2933767Y-572897D03*
G01X-2933767Y-652882D03*
G01X-2933767Y-732892D03*
G01X-2933767Y-812902D03*
G54D22*
G01X-3077962Y-957098D03*
G01X-3157972Y-957098D03*
G01X-3237982Y-957098D03*
G01X-3317967Y-957098D03*
G01X-3397977Y-957098D03*
G01X-3477962Y-957098D03*
G01X-3557972Y-957098D03*
G01X-3637982Y-957098D03*
G54D21*
G01X-3782177Y-812902D03*
G01X-3782177Y-732892D03*
G01X-3782177Y-652882D03*
G01X-3782177Y-572897D03*
G01X-3782177Y-492887D03*
G01X-3782177Y-412903D03*
G01X-3782177Y-332893D03*
G01X-3782177Y-252883D03*
G54D22*
G01X-3637982Y-108687D03*
G01X-3557972Y-108687D03*
G01X-3477962Y-108687D03*
G01X-3397977Y-108687D03*
G01X-3317967Y-108687D03*
G01X-3237982Y-108687D03*
G01X-3157972Y-108687D03*
G01X-3077962Y-108687D03*
G54D12*
G01X2146300Y-427888D03*
G01X2146300Y-511912D03*
G01X2082800Y-1621688D03*
G01X2082800Y-1705712D03*
G01X-1058335Y-2615876D03*
G01X-1058335Y-2531853D03*
G54D24*
G01X-1296604Y-2209857D03*
G01X-1096605Y-2209857D03*
G54D10*
G01X-1490308Y-2994445D03*
G01X-1630313Y-2994445D03*
G01X-1490769Y-2792307D03*
G01X-1630774Y-2792307D03*
G54D25*
G01X176601Y-1875047D03*
G01X482620Y-1875047D03*
G54D26*
G01X122911Y-2630297D03*
G01X122911Y-2400300D03*
G01X122911Y-2170303D03*
G54D27*
G01X689889Y-2400300D03*
G54D28*
G01X-1090165Y-2906612D03*
G01X-1320162Y-2906612D03*
G54D29*
G01X2057400Y-1048918D03*
G01X2057400Y-1135482D03*
G54D10*
G01X1035202Y-939800D03*
G01X895198Y-939800D03*
G01X-180980Y1288589D03*
G01X-320985Y1288589D03*
G54D12*
G01X-482600Y1268628D03*
G01X-482600Y1352652D03*
G54D30*
G01X168618Y1096493D03*
G01X118605Y1096493D03*
G01X68618Y1096493D03*
G01X18606Y1096493D03*
G01X-31382Y1096493D03*
G01X-81394Y1096493D03*
G01X-131381Y1096493D03*
G01X-181394Y1096493D03*
G01X-231381Y1096493D03*
G01X-281394Y1096493D03*
G01X-331381Y1096493D03*
G01X-381394Y1096493D03*
G01X-431381Y1096493D03*
G01X-481393Y1096493D03*
G01X-531406Y1096493D03*
G01X-581393Y1096493D03*
G01X-631406Y1096493D03*
G01X-681393Y1096493D03*
G01X-731406Y1096493D03*
G01X-781393Y1096493D03*
G01X-831405Y1096493D03*
G01X-881393Y1096493D03*
G01X-931405Y1096493D03*
G01X-981392Y1096493D03*
G54D31*
G01X337604Y838987D03*
G01X-1150404Y838987D03*
G54D32*
G01X1362710Y431800D03*
G01X1202690Y431800D03*
G54D33*
G01X754380Y1196340D03*
G54D29*
G01X-622300Y1267358D03*
G01X-622300Y1353922D03*
G54D34*
G01X1811609Y-747847D03*
G01X1701602Y-747847D03*
G01X1591594Y-747847D03*
G01X1481612Y-747847D03*
G01X1371605Y-747847D03*
G01X1261598Y-747847D03*
G01X1151616Y-747847D03*
G01X1041608Y-747847D03*
G01X931601Y-747847D03*
G01X931601Y214457D03*
G01X1041608Y214457D03*
G01X1151616Y214457D03*
G01X1261598Y214457D03*
G01X1371605Y214457D03*
G01X1481612Y214457D03*
G01X1591594Y214457D03*
G01X1701602Y214457D03*
G01X1811609Y214457D03*
G54D29*
G01X-736600Y1267358D03*
G01X-736600Y1353922D03*
G54D35*
G01X-561130Y-2569064D03*
G01X-1911140Y-2569064D03*
G54D36*
G01X-876141Y-1969065D03*
G01X-1596130Y-1969065D03*
G54D20*
G01X1727322Y-2831023D03*
G01X1576649Y-2831023D03*
G01X1219322Y-2831023D03*
G01X1068649Y-2831023D03*
G54D37*
G01X939597Y-3048206D03*
G01X1803603Y-3048206D03*
G54D38*
G01X1803603Y-2630198D03*
G01X939597Y-2630198D03*
G54D10*
G01X1337355Y-1596464D03*
G01X1477360Y-1596464D03*
G54D11*
G01X1167450Y-1492166D03*
G01X1167450Y-1352161D03*
G54D39*
G01X-664312Y-1041400D03*
G01X-580288Y-1041400D03*
G54D40*
G01X1338747Y-1403244D03*
G01X1338747Y-1293262D03*
G01X1478752Y-1293262D03*
G01X1478752Y-1403244D03*
G54D11*
G01X2057400Y-768502D03*
G01X2057400Y-628498D03*
G54D41*
G01X-251396Y-2959100D03*
G01X228613Y-2959100D03*
G01X708597Y-2959100D03*
G04 Pad End*

M02*

