G04 Layer: BottomLayer*
G04 EasyEDA Pro v2.2.47.7, 2026-04-30 23:08:15*
G04 Gerber Generator version 0.3*
G04 Scale: 100 percent, Rotated: No, Reflected: No*
G04 Dimensions in millimeters*
G04 Leading zeros omitted, absolute positions, 4 integers and 5 decimals*
G04 Generated by one-click*
G04 Object Configs: Pad,Via,Track,Text,Image,Dimension,BoardOutline,BoardCutout,CopperFilled,SolidRegion,FPCStiffener,Line,PlaneZone,ComponentProperty,ComponentSilkscreen,TearDrop*
G04 Layer Configs: 1,15,16,2,3,4,5,6,7,8,9,10,11,13,14,56*
G04 Copper Areas: 21*
%FSLAX45Y45*%
%MOMM*%
%ADD10C,0.2032*%
%ADD11C,0.635*%
%ADD12R,0.8X0.9*%
%ADD13R,0.9X0.8*%
%ADD14R,0.54X0.5*%
%ADD15C,1.61999*%
%ADD16R,1.61999X1.61999*%
%ADD17R,6.0037X6.50001*%
%ADD18R,5.99999X6.50001*%
%ADD19R,1.2X2.49999*%
%ADD20R,0.86401X0.80648*%
%ADD21R,0.80648X0.86401*%
%ADD22O,1.68399X0.44801*%
%ADD23O,0.44801X1.68399*%
%ADD24R,1.2X0.55001*%
%ADD25R,1.41X1.35001*%
%ADD26R,1.52999X1.29601*%
%ADD27R,2.47X0.98001*%
%ADD28R,2.47X3.59999*%
%ADD29R,1.0X2.69999*%
%ADD30R,0.54X0.56566*%
%ADD31R,0.3X1.25001*%
%ADD32R,2.0X2.49999*%
%ADD33R,0.6X1.08001*%
%ADD34C,1.8*%
%ADD35O,0.7X1.773*%
%ADD36O,1.2X2.2*%
%ADD37C,3.79999*%
%ADD38O,1.0X1.8*%
%ADD39O,1.0X2.0*%
%ADD40R,0.5X0.54*%
%ADD41O,1.7X2.89999*%
%ADD42C,0.61*%
%ADD43C,1.27*%
%ADD44C,0.254*%
%ADD45C,0.762*%
%ADD46C,1.016*%
%ADD47C,0.508*%
%ADD48C,1.524*%
G75*


G04 Copper Start*
G36*
G01X-1000576Y-2457939D02*
G01X-1055611Y-2457939D01*
G01X-1116961Y-2432174D01*
G01X-1183640Y-2365494D01*
G01X-1183640Y-1793062D01*
G01X-1064438Y-1673860D01*
G01X-423308Y-1673860D01*
G01X-73660Y-2023508D01*
G01X-73660Y-2285779D01*
G01X-556849Y-2667404D01*
G01X-907944Y-2519955D01*
G01X-948311Y-2479588D01*
G01X-959511Y-2470396D01*
G01X-972290Y-2463565D01*
G01X-986156Y-2459359D01*
G01X-1000576Y-2457939D01*
G37*
G36*
G01X3517815Y2099814D02*
G01X3519796Y2088068D01*
G01X3525520Y2077621D01*
G01X3525520Y2061672D01*
G01X3387843Y2061672D01*
G01X3387843Y2111287D01*
G01X3386090Y2122355D01*
G01X3381003Y2132338D01*
G01X3373080Y2140262D01*
G01X3363096Y2145349D01*
G01X3352029Y2147101D01*
G01X3265628Y2147101D01*
G01X3254246Y2145245D01*
G01X3244044Y2139866D01*
G01X3236080Y2131525D01*
G01X3223475Y2128270D01*
G01X3211843Y2122423D01*
G01X3201711Y2114248D01*
G01X3194565Y2107103D01*
G01X3189409Y2102499D01*
G01X3180228Y2093318D01*
G01X3166444Y2085607D01*
G01X3154874Y2074855D01*
G01X3146175Y2061672D01*
G01X3066541Y2061672D01*
G01X3066541Y2377440D01*
G01X3525520Y2377440D01*
G01X3525520Y2372006D01*
G01X3519796Y2361560D01*
G01X3517815Y2349813D01*
G01X3517815Y2099814D01*
G37*
G36*
G01X2250641Y2457158D02*
G01X2250641Y3543652D01*
G01X2252829Y3545840D01*
G01X4599686Y3545840D01*
G01X4599686Y2457158D01*
G01X2250641Y2457158D01*
G37*
G36*
G01X2743115Y2099814D02*
G01X2745096Y2088068D01*
G01X2750820Y2077621D01*
G01X2750820Y2061672D01*
G01X2613143Y2061672D01*
G01X2613143Y2111287D01*
G01X2611390Y2122355D01*
G01X2606303Y2132338D01*
G01X2598380Y2140262D01*
G01X2588396Y2145349D01*
G01X2577329Y2147101D01*
G01X2490928Y2147101D01*
G01X2479546Y2145245D01*
G01X2469344Y2139866D01*
G01X2461380Y2131525D01*
G01X2448775Y2128270D01*
G01X2437143Y2122423D01*
G01X2427011Y2114248D01*
G01X2419865Y2107103D01*
G01X2414709Y2102499D01*
G01X2405528Y2093318D01*
G01X2391744Y2085607D01*
G01X2380174Y2074855D01*
G01X2371475Y2061672D01*
G01X2291841Y2061672D01*
G01X2291841Y2377440D01*
G01X2750820Y2377440D01*
G01X2750820Y2372006D01*
G01X2745096Y2361560D01*
G01X2743115Y2349813D01*
G01X2743115Y2099814D01*
G37*
G36*
G01X4292515Y2099814D02*
G01X4294496Y2088068D01*
G01X4300220Y2077621D01*
G01X4300220Y2061672D01*
G01X4162543Y2061672D01*
G01X4162543Y2111287D01*
G01X4160790Y2122355D01*
G01X4155703Y2132338D01*
G01X4147780Y2140262D01*
G01X4137796Y2145349D01*
G01X4126729Y2147101D01*
G01X4040328Y2147101D01*
G01X4028946Y2145245D01*
G01X4018744Y2139866D01*
G01X4010780Y2131525D01*
G01X3998175Y2128270D01*
G01X3986543Y2122423D01*
G01X3976411Y2114248D01*
G01X3969265Y2107103D01*
G01X3964109Y2102499D01*
G01X3954928Y2093318D01*
G01X3941144Y2085607D01*
G01X3929574Y2074855D01*
G01X3920875Y2061672D01*
G01X3841241Y2061672D01*
G01X3841241Y2377440D01*
G01X4300220Y2377440D01*
G01X4300220Y2372006D01*
G01X4294496Y2361560D01*
G01X4292515Y2349813D01*
G01X4292515Y2099814D01*
G37*
G36*
G01X-3251285Y2099814D02*
G01X-3249304Y2088068D01*
G01X-3243580Y2077621D01*
G01X-3243580Y2061672D01*
G01X-3381257Y2061672D01*
G01X-3381257Y2111287D01*
G01X-3383010Y2122355D01*
G01X-3388097Y2132338D01*
G01X-3396020Y2140262D01*
G01X-3406004Y2145349D01*
G01X-3417071Y2147101D01*
G01X-3503472Y2147101D01*
G01X-3514854Y2145245D01*
G01X-3525056Y2139866D01*
G01X-3533020Y2131525D01*
G01X-3545625Y2128270D01*
G01X-3557257Y2122423D01*
G01X-3567389Y2114248D01*
G01X-3574535Y2107103D01*
G01X-3579691Y2102499D01*
G01X-3588872Y2093318D01*
G01X-3602656Y2085607D01*
G01X-3614226Y2074855D01*
G01X-3622925Y2061672D01*
G01X-3702559Y2061672D01*
G01X-3702559Y2377440D01*
G01X-3243580Y2377440D01*
G01X-3243580Y2372006D01*
G01X-3249304Y2361560D01*
G01X-3251285Y2349813D01*
G01X-3251285Y2099814D01*
G37*
G36*
G01X-4518459Y3545840D02*
G01X-2265529Y3545840D01*
G01X-2163580Y3443891D01*
G01X-2163580Y2457158D01*
G01X-4518459Y2457158D01*
G01X-4518459Y3545840D01*
G37*
G36*
G01X-4025985Y2099814D02*
G01X-4024004Y2088068D01*
G01X-4018280Y2077621D01*
G01X-4018280Y2061672D01*
G01X-4155957Y2061672D01*
G01X-4155957Y2111287D01*
G01X-4157710Y2122355D01*
G01X-4162797Y2132338D01*
G01X-4170720Y2140262D01*
G01X-4180704Y2145349D01*
G01X-4191771Y2147101D01*
G01X-4278172Y2147101D01*
G01X-4289554Y2145245D01*
G01X-4299756Y2139866D01*
G01X-4307720Y2131525D01*
G01X-4320325Y2128270D01*
G01X-4331957Y2122423D01*
G01X-4342089Y2114248D01*
G01X-4349235Y2107103D01*
G01X-4354391Y2102499D01*
G01X-4363572Y2093318D01*
G01X-4377356Y2085607D01*
G01X-4388926Y2074855D01*
G01X-4397625Y2061672D01*
G01X-4477259Y2061672D01*
G01X-4477259Y2377440D01*
G01X-4018280Y2377440D01*
G01X-4018280Y2372006D01*
G01X-4024004Y2361560D01*
G01X-4025985Y2349813D01*
G01X-4025985Y2099814D01*
G37*
G36*
G01X-2476585Y2099814D02*
G01X-2474604Y2088068D01*
G01X-2468880Y2077621D01*
G01X-2468880Y2061672D01*
G01X-2606557Y2061672D01*
G01X-2606557Y2111287D01*
G01X-2608310Y2122355D01*
G01X-2613397Y2132338D01*
G01X-2621320Y2140262D01*
G01X-2631304Y2145349D01*
G01X-2642371Y2147101D01*
G01X-2728772Y2147101D01*
G01X-2740154Y2145245D01*
G01X-2750356Y2139866D01*
G01X-2758320Y2131525D01*
G01X-2770925Y2128270D01*
G01X-2782557Y2122423D01*
G01X-2792689Y2114248D01*
G01X-2799835Y2107103D01*
G01X-2804991Y2102499D01*
G01X-2814172Y2093318D01*
G01X-2827956Y2085607D01*
G01X-2839526Y2074855D01*
G01X-2848225Y2061672D01*
G01X-2927859Y2061672D01*
G01X-2927859Y2377440D01*
G01X-2468880Y2377440D01*
G01X-2468880Y2372006D01*
G01X-2474604Y2361560D01*
G01X-2476585Y2349813D01*
G01X-2476585Y2099814D01*
G37*
G36*
G01X-3517907Y-2099306D02*
G01X-3519888Y-2087560D01*
G01X-3525612Y-2077113D01*
G01X-3525612Y-2061164D01*
G01X-3387935Y-2061164D01*
G01X-3387935Y-2110780D01*
G01X-3386182Y-2121847D01*
G01X-3381095Y-2131831D01*
G01X-3373172Y-2139754D01*
G01X-3363188Y-2144841D01*
G01X-3352121Y-2146594D01*
G01X-3265720Y-2146594D01*
G01X-3254338Y-2144737D01*
G01X-3244136Y-2139359D01*
G01X-3236172Y-2131017D01*
G01X-3223567Y-2127762D01*
G01X-3211935Y-2121915D01*
G01X-3201803Y-2113741D01*
G01X-3194657Y-2106595D01*
G01X-3189501Y-2101991D01*
G01X-3180320Y-2092810D01*
G01X-3166536Y-2085100D01*
G01X-3154966Y-2074347D01*
G01X-3146267Y-2061164D01*
G01X-3066633Y-2061164D01*
G01X-3066633Y-2376932D01*
G01X-3525612Y-2376932D01*
G01X-3525612Y-2371499D01*
G01X-3519888Y-2361052D01*
G01X-3517907Y-2349306D01*
G01X-3517907Y-2099306D01*
G37*
G36*
G01X-2250733Y-3545332D02*
G01X-4599686Y-3545332D01*
G01X-4599686Y-2456650D01*
G01X-2250733Y-2456650D01*
G01X-2250733Y-3545332D01*
G37*
G36*
G01X-2743207Y-2099306D02*
G01X-2745188Y-2087560D01*
G01X-2750912Y-2077113D01*
G01X-2750912Y-2061164D01*
G01X-2613235Y-2061164D01*
G01X-2613235Y-2110780D01*
G01X-2611482Y-2121847D01*
G01X-2606395Y-2131831D01*
G01X-2598472Y-2139754D01*
G01X-2588488Y-2144841D01*
G01X-2577421Y-2146594D01*
G01X-2491020Y-2146594D01*
G01X-2479638Y-2144737D01*
G01X-2469436Y-2139359D01*
G01X-2461472Y-2131017D01*
G01X-2448867Y-2127762D01*
G01X-2437235Y-2121915D01*
G01X-2427103Y-2113741D01*
G01X-2419957Y-2106595D01*
G01X-2414801Y-2101991D01*
G01X-2405620Y-2092810D01*
G01X-2391836Y-2085100D01*
G01X-2380266Y-2074347D01*
G01X-2371567Y-2061164D01*
G01X-2291933Y-2061164D01*
G01X-2291933Y-2376932D01*
G01X-2750912Y-2376932D01*
G01X-2750912Y-2371499D01*
G01X-2745188Y-2361052D01*
G01X-2743207Y-2349306D01*
G01X-2743207Y-2099306D01*
G37*
G36*
G01X-4292607Y-2099306D02*
G01X-4294588Y-2087560D01*
G01X-4300312Y-2077113D01*
G01X-4300312Y-2061164D01*
G01X-4162635Y-2061164D01*
G01X-4162635Y-2110780D01*
G01X-4160882Y-2121847D01*
G01X-4155795Y-2131831D01*
G01X-4147872Y-2139754D01*
G01X-4137888Y-2144841D01*
G01X-4126821Y-2146594D01*
G01X-4040420Y-2146594D01*
G01X-4029038Y-2144737D01*
G01X-4018836Y-2139359D01*
G01X-4010872Y-2131017D01*
G01X-3998267Y-2127762D01*
G01X-3986635Y-2121915D01*
G01X-3976503Y-2113741D01*
G01X-3969357Y-2106595D01*
G01X-3964201Y-2101991D01*
G01X-3955020Y-2092810D01*
G01X-3941236Y-2085100D01*
G01X-3929666Y-2074347D01*
G01X-3920967Y-2061164D01*
G01X-3841333Y-2061164D01*
G01X-3841333Y-2376932D01*
G01X-4300312Y-2376932D01*
G01X-4300312Y-2371499D01*
G01X-4294588Y-2361052D01*
G01X-4292607Y-2349306D01*
G01X-4292607Y-2099306D01*
G37*
G36*
G01X3251285Y-2099814D02*
G01X3249304Y-2088068D01*
G01X3243580Y-2077621D01*
G01X3243580Y-2061672D01*
G01X3381257Y-2061672D01*
G01X3381257Y-2111287D01*
G01X3383010Y-2122355D01*
G01X3388097Y-2132338D01*
G01X3396020Y-2140262D01*
G01X3406004Y-2145349D01*
G01X3417071Y-2147101D01*
G01X3503472Y-2147101D01*
G01X3514854Y-2145245D01*
G01X3525056Y-2139866D01*
G01X3533020Y-2131525D01*
G01X3545625Y-2128270D01*
G01X3557257Y-2122423D01*
G01X3567389Y-2114248D01*
G01X3574535Y-2107103D01*
G01X3579691Y-2102499D01*
G01X3588872Y-2093318D01*
G01X3602656Y-2085607D01*
G01X3614226Y-2074855D01*
G01X3622925Y-2061672D01*
G01X3702559Y-2061672D01*
G01X3702559Y-2377440D01*
G01X3243580Y-2377440D01*
G01X3243580Y-2372006D01*
G01X3249304Y-2361560D01*
G01X3251285Y-2349813D01*
G01X3251285Y-2099814D01*
G37*
G36*
G01X4025985Y-2099814D02*
G01X4024004Y-2088068D01*
G01X4018280Y-2077621D01*
G01X4018280Y-2061672D01*
G01X4155957Y-2061672D01*
G01X4155957Y-2111287D01*
G01X4157710Y-2122355D01*
G01X4162797Y-2132338D01*
G01X4170720Y-2140262D01*
G01X4180704Y-2145349D01*
G01X4191771Y-2147101D01*
G01X4278172Y-2147101D01*
G01X4289554Y-2145245D01*
G01X4299756Y-2139866D01*
G01X4307720Y-2131525D01*
G01X4320325Y-2128270D01*
G01X4331957Y-2122423D01*
G01X4342089Y-2114248D01*
G01X4349235Y-2107103D01*
G01X4354391Y-2102499D01*
G01X4363572Y-2093318D01*
G01X4377356Y-2085607D01*
G01X4388926Y-2074855D01*
G01X4397625Y-2061672D01*
G01X4477259Y-2061672D01*
G01X4477259Y-2377440D01*
G01X4018280Y-2377440D01*
G01X4018280Y-2372006D01*
G01X4024004Y-2361560D01*
G01X4025985Y-2349813D01*
G01X4025985Y-2099814D01*
G37*
G36*
G01X2476585Y-2099814D02*
G01X2474604Y-2088068D01*
G01X2468880Y-2077621D01*
G01X2468880Y-2061672D01*
G01X2606557Y-2061672D01*
G01X2606557Y-2111287D01*
G01X2608310Y-2122355D01*
G01X2613397Y-2132338D01*
G01X2621320Y-2140262D01*
G01X2631304Y-2145349D01*
G01X2642371Y-2147101D01*
G01X2728772Y-2147101D01*
G01X2740154Y-2145245D01*
G01X2750356Y-2139866D01*
G01X2758320Y-2131525D01*
G01X2770925Y-2128270D01*
G01X2782557Y-2122423D01*
G01X2792689Y-2114248D01*
G01X2799835Y-2107103D01*
G01X2804991Y-2102499D01*
G01X2814172Y-2093318D01*
G01X2827956Y-2085607D01*
G01X2839526Y-2074855D01*
G01X2848225Y-2061672D01*
G01X2927859Y-2061672D01*
G01X2927859Y-2377440D01*
G01X2468880Y-2377440D01*
G01X2468880Y-2372006D01*
G01X2474604Y-2361560D01*
G01X2476585Y-2349813D01*
G01X2476585Y-2099814D01*
G37*
G36*
G01X-4523233Y2387600D02*
G01X-4523233Y2192020D01*
G01X-4599686Y2192020D01*
G01X-4599686Y3583686D01*
G01X-2303375Y3583686D01*
G01X-1221664Y2501976D01*
G01X-1214247Y2496284D01*
G01X-1205609Y2492706D01*
G01X-1196340Y2491486D01*
G01X1183640Y2491486D01*
G01X1192909Y2492706D01*
G01X1201547Y2496284D01*
G01X1208964Y2501976D01*
G01X2298295Y3591306D01*
G01X4599686Y3591306D01*
G01X4599686Y2192020D01*
G01X4484143Y2192020D01*
G01X4484143Y2349813D01*
G01X4482390Y2360881D01*
G01X4477303Y2370864D01*
G01X4469380Y2378788D01*
G01X4459396Y2383875D01*
G01X4448329Y2385627D01*
G01X4346194Y2385627D01*
G01X4346194Y2387600D01*
G01X4344441Y2398667D01*
G01X4339354Y2408651D01*
G01X4331431Y2416574D01*
G01X4321447Y2421661D01*
G01X4310380Y2423414D01*
G01X3831081Y2423414D01*
G01X3820014Y2421661D01*
G01X3810030Y2416574D01*
G01X3802107Y2408651D01*
G01X3797020Y2398667D01*
G01X3795267Y2387600D01*
G01X3795267Y2192020D01*
G01X3709443Y2192020D01*
G01X3709443Y2349813D01*
G01X3707690Y2360881D01*
G01X3702603Y2370864D01*
G01X3694680Y2378788D01*
G01X3684696Y2383875D01*
G01X3673629Y2385627D01*
G01X3571494Y2385627D01*
G01X3571494Y2387600D01*
G01X3569741Y2398667D01*
G01X3564654Y2408651D01*
G01X3556731Y2416574D01*
G01X3546747Y2421661D01*
G01X3535680Y2423414D01*
G01X3056381Y2423414D01*
G01X3045314Y2421661D01*
G01X3035330Y2416574D01*
G01X3027407Y2408651D01*
G01X3022320Y2398667D01*
G01X3020567Y2387600D01*
G01X3020567Y2192020D01*
G01X2934743Y2192020D01*
G01X2934743Y2349813D01*
G01X2932990Y2360881D01*
G01X2927903Y2370864D01*
G01X2919980Y2378788D01*
G01X2909996Y2383875D01*
G01X2898929Y2385627D01*
G01X2796794Y2385627D01*
G01X2796794Y2387600D01*
G01X2795041Y2398667D01*
G01X2789954Y2408651D01*
G01X2782031Y2416574D01*
G01X2772047Y2421661D01*
G01X2760980Y2423414D01*
G01X2281681Y2423414D01*
G01X2270614Y2421661D01*
G01X2260630Y2416574D01*
G01X2252707Y2408651D01*
G01X2247620Y2398667D01*
G01X2245867Y2387600D01*
G01X2245867Y2192020D01*
G01X-2284957Y2192020D01*
G01X-2284957Y2349813D01*
G01X-2286710Y2360881D01*
G01X-2291797Y2370864D01*
G01X-2299720Y2378788D01*
G01X-2309704Y2383875D01*
G01X-2320771Y2385627D01*
G01X-2422906Y2385627D01*
G01X-2422906Y2387600D01*
G01X-2424659Y2398667D01*
G01X-2429746Y2408651D01*
G01X-2437669Y2416574D01*
G01X-2447653Y2421661D01*
G01X-2458720Y2423414D01*
G01X-2938019Y2423414D01*
G01X-2949086Y2421661D01*
G01X-2959070Y2416574D01*
G01X-2966993Y2408651D01*
G01X-2972080Y2398667D01*
G01X-2973833Y2387600D01*
G01X-2973833Y2192020D01*
G01X-3059657Y2192020D01*
G01X-3059657Y2349813D01*
G01X-3061410Y2360881D01*
G01X-3066497Y2370864D01*
G01X-3074420Y2378788D01*
G01X-3084404Y2383875D01*
G01X-3095471Y2385627D01*
G01X-3197606Y2385627D01*
G01X-3197606Y2387600D01*
G01X-3199359Y2398667D01*
G01X-3204446Y2408651D01*
G01X-3212369Y2416574D01*
G01X-3222353Y2421661D01*
G01X-3233420Y2423414D01*
G01X-3712719Y2423414D01*
G01X-3723786Y2421661D01*
G01X-3733770Y2416574D01*
G01X-3741693Y2408651D01*
G01X-3746780Y2398667D01*
G01X-3748533Y2387600D01*
G01X-3748533Y2192020D01*
G01X-3834357Y2192020D01*
G01X-3834357Y2349813D01*
G01X-3836110Y2360881D01*
G01X-3841197Y2370864D01*
G01X-3849120Y2378788D01*
G01X-3859104Y2383875D01*
G01X-3870171Y2385627D01*
G01X-3972306Y2385627D01*
G01X-3972306Y2387600D01*
G01X-3974059Y2398667D01*
G01X-3979146Y2408651D01*
G01X-3987069Y2416574D01*
G01X-3997053Y2421661D01*
G01X-4008120Y2423414D01*
G01X-4487419Y2423414D01*
G01X-4498486Y2421661D01*
G01X-4508470Y2416574D01*
G01X-4516393Y2408651D01*
G01X-4521480Y2398667D01*
G01X-4523233Y2387600D01*
G37*
G36*
G01X-2320771Y2385627D02*
G01X-2376320Y2385627D01*
G01X-2376320Y3583686D01*
G01X-2303375Y3583686D01*
G01X-1221664Y2501976D01*
G01X-1214247Y2496284D01*
G01X-1205609Y2492706D01*
G01X-1196340Y2491486D01*
G01X1183640Y2491486D01*
G01X1192909Y2492706D01*
G01X1201547Y2496284D01*
G01X1208964Y2501976D01*
G01X2298295Y3591306D01*
G01X2495700Y3591306D01*
G01X2495700Y2423414D01*
G01X2281681Y2423414D01*
G01X2270614Y2421661D01*
G01X2260630Y2416574D01*
G01X2252707Y2408651D01*
G01X2247620Y2398667D01*
G01X2245867Y2387600D01*
G01X2245867Y2051512D01*
G01X2247620Y2040445D01*
G01X2252707Y2030461D01*
G01X2260630Y2022538D01*
G01X2270614Y2017451D01*
G01X2281681Y2015698D01*
G01X2366501Y2015698D01*
G01X2369915Y2005674D01*
G01X2338528Y2005674D01*
G01X2327461Y2003921D01*
G01X2317478Y1998834D01*
G01X2309554Y1990911D01*
G01X2304467Y1980927D01*
G01X2302714Y1969860D01*
G01X2302714Y1889213D01*
G01X2304029Y1879599D01*
G01X2307876Y1870691D01*
G01X2313973Y1863142D01*
G01X2321872Y1857507D01*
G01X2330995Y1854200D01*
G01X2321872Y1850893D01*
G01X2313973Y1845258D01*
G01X2307876Y1837709D01*
G01X2304029Y1828801D01*
G01X2302714Y1819187D01*
G01X2302714Y1738540D01*
G01X2303927Y1729300D01*
G01X2307482Y1720686D01*
G01X2313139Y1713281D01*
G01X2320515Y1707586D01*
G01X2320515Y1520679D01*
G01X-2376320Y1520679D01*
G01X-2376320Y1704340D01*
G01X-2253254Y1704340D01*
G01X-2251327Y1688470D01*
G01X-2245658Y1673522D01*
G01X-2236577Y1660366D01*
G01X-2224611Y1649765D01*
G01X-2210455Y1642335D01*
G01X-2194933Y1638509D01*
G01X-2178947Y1638509D01*
G01X-2163425Y1642335D01*
G01X-2149269Y1649765D01*
G01X-2137303Y1660366D01*
G01X-2128222Y1673522D01*
G01X-2122553Y1688470D01*
G01X-2120626Y1704340D01*
G01X-2122553Y1720210D01*
G01X-2128222Y1735158D01*
G01X-2137303Y1748314D01*
G01X-2149269Y1758915D01*
G01X-2163425Y1766345D01*
G01X-2178947Y1770171D01*
G01X-2194933Y1770171D01*
G01X-2210455Y1766345D01*
G01X-2224611Y1758915D01*
G01X-2236577Y1748314D01*
G01X-2245658Y1735158D01*
G01X-2251327Y1720210D01*
G01X-2253254Y1704340D01*
G01X-2253254Y1704340D01*
G01X-2376320Y1704340D01*
G01X-2376320Y1772945D01*
G01X-2370339Y1778926D01*
G01X-2337571Y1778926D01*
G01X-2328495Y1780095D01*
G01X-2320012Y1783526D01*
G01X-2312675Y1788995D01*
G01X-2306963Y1796144D01*
G01X-2293648Y1788718D01*
G01X-2278988Y1784530D01*
G01X-2263760Y1783800D01*
G01X-2248767Y1786567D01*
G01X-2234802Y1792685D01*
G01X-2222604Y1801831D01*
G01X-2207759Y1795535D01*
G01X-2191832Y1793008D01*
G01X-2175767Y1794399D01*
G01X-2160513Y1799627D01*
G01X-2146971Y1808383D01*
G01X-2135943Y1820148D01*
G01X-2128081Y1834227D01*
G01X-2123849Y1849787D01*
G01X-2123498Y1865908D01*
G01X-2127049Y1881638D01*
G01X-2134291Y1896046D01*
G01X-2144797Y1908280D01*
G01X-2157944Y1917616D01*
G01X-2172957Y1923503D01*
G01X-2157742Y1927822D01*
G01X-2143982Y1935622D01*
G01X-2132461Y1946459D01*
G01X-2123834Y1959716D01*
G01X-2118592Y1974638D01*
G01X-2117032Y1990377D01*
G01X-2119244Y2006039D01*
G01X-2125102Y2020730D01*
G01X-2134272Y2033617D01*
G01X-2146233Y2043966D01*
G01X-2160305Y2051188D01*
G01X-2175686Y2054872D01*
G01X-2191503Y2054809D01*
G01X-2206854Y2051002D01*
G01X-2220868Y2043668D01*
G01X-2232746Y2033225D01*
G01X-2241813Y2020265D01*
G01X-2247554Y2005527D01*
G01X-2261910Y2006656D01*
G01X-2276172Y2004659D01*
G01X-2289666Y1999630D01*
G01X-2301757Y1991807D01*
G01X-2301757Y2046060D01*
G01X-2303366Y2056675D01*
G01X-2308049Y2066336D01*
G01X-2298670Y2071633D01*
G01X-2291290Y2079479D01*
G01X-2286577Y2089165D01*
G01X-2284957Y2099814D01*
G01X-2284957Y2349813D01*
G01X-2286710Y2360881D01*
G01X-2291797Y2370864D01*
G01X-2299720Y2378788D01*
G01X-2309704Y2383875D01*
G01X-2320771Y2385627D01*
G37*
G36*
G01X-855199Y2491486D02*
G01X-855199Y1425538D01*
G01X-868695Y1420327D01*
G01X-880739Y1412312D01*
G01X-890759Y1401877D01*
G01X-898277Y1389517D01*
G01X-902936Y1375821D01*
G01X-904514Y1361440D01*
G01X-902936Y1347059D01*
G01X-898277Y1333363D01*
G01X-890759Y1321003D01*
G01X-880739Y1310568D01*
G01X-868695Y1302553D01*
G01X-855199Y1297342D01*
G01X-855199Y1193711D01*
G01X-856399Y1193385D01*
G01X-866393Y1194807D01*
G01X-884414Y1194807D01*
G01X-887229Y1202800D01*
G01X-891392Y1210182D01*
G01X-893199Y1224458D01*
G01X-898044Y1238008D01*
G01X-905697Y1250194D01*
G01X-915799Y1260442D01*
G01X-927874Y1268270D01*
G01X-941353Y1273309D01*
G01X-955602Y1275321D01*
G01X-969949Y1274212D01*
G01X-983719Y1270035D01*
G01X-996264Y1262985D01*
G01X-1006993Y1253395D01*
G01X-1015401Y1241716D01*
G01X-1021091Y1228499D01*
G01X-1023796Y1214365D01*
G01X-1023388Y1199981D01*
G01X-1019888Y1186023D01*
G01X-1026541Y1178324D01*
G01X-1030761Y1169065D01*
G01X-1032206Y1158993D01*
G01X-1032206Y1033992D01*
G01X-1030454Y1022925D01*
G01X-1025367Y1012941D01*
G01X-1017443Y1005018D01*
G01X-1007460Y999931D01*
G01X-996392Y998178D01*
G01X-977316Y998178D01*
G01X-982680Y989216D01*
G01X-986001Y979313D01*
G01X-987126Y968928D01*
G01X-987126Y958489D01*
G01X-996514Y945604D01*
G01X-1002555Y930851D01*
G01X-1004901Y915083D01*
G01X-1003416Y899210D01*
G01X-998186Y884151D01*
G01X-989513Y870775D01*
G01X-977899Y859855D01*
G01X-964013Y852022D01*
G01X-948660Y847730D01*
G01X-932726Y847226D01*
G01X-917133Y850539D01*
G01X-902780Y857479D01*
G01X-890498Y867642D01*
G01X-880997Y880444D01*
G01X-874826Y895143D01*
G01X-872341Y910890D01*
G01X-864025Y906661D01*
G01X-855199Y903642D01*
G01X-855199Y-1419887D01*
G01X-957299Y-1419887D01*
G01X-968366Y-1421640D01*
G01X-978350Y-1426727D01*
G01X-986273Y-1434650D01*
G01X-991360Y-1444634D01*
G01X-993113Y-1455701D01*
G01X-993113Y-1617699D01*
G01X-991634Y-1627886D01*
G01X-1068647Y-1627886D01*
G01X-1077916Y-1629106D01*
G01X-1086554Y-1632684D01*
G01X-1093971Y-1638376D01*
G01X-1219124Y-1763529D01*
G01X-1224816Y-1770946D01*
G01X-1228394Y-1779584D01*
G01X-1229614Y-1788853D01*
G01X-1229614Y-2369703D01*
G01X-1228765Y-2377454D01*
G01X-1290436Y-2377454D01*
G01X-1301503Y-2379207D01*
G01X-1311487Y-2384294D01*
G01X-1319410Y-2392217D01*
G01X-1324497Y-2402201D01*
G01X-1326250Y-2413268D01*
G01X-1326250Y-2468269D01*
G01X-1324690Y-2478723D01*
G01X-1320147Y-2488267D01*
G01X-1324690Y-2497810D01*
G01X-1326250Y-2508264D01*
G01X-1326250Y-2563265D01*
G01X-1324690Y-2573719D01*
G01X-1320147Y-2583263D01*
G01X-1324690Y-2592806D01*
G01X-1326250Y-2603260D01*
G01X-1326250Y-2658261D01*
G01X-1324497Y-2669328D01*
G01X-1319410Y-2679312D01*
G01X-1311487Y-2687235D01*
G01X-1301503Y-2692322D01*
G01X-1290436Y-2694075D01*
G01X-1170436Y-2694075D01*
G01X-1164303Y-2693546D01*
G01X-1158351Y-2691975D01*
G01X-1073220Y-2691975D01*
G01X-1058624Y-2690209D01*
G01X-1044871Y-2685014D01*
G01X-1032752Y-2676690D01*
G01X-1031335Y-2676690D01*
G01X-1025214Y-2676163D01*
G01X-1025214Y-2737130D01*
G01X-1026565Y-2738481D01*
G01X-1033234Y-2736476D01*
G01X-1040166Y-2735798D01*
G01X-1140165Y-2735798D01*
G01X-1151232Y-2737551D01*
G01X-1161216Y-2742638D01*
G01X-1169139Y-2750561D01*
G01X-1174226Y-2760545D01*
G01X-1175979Y-2771612D01*
G01X-1175979Y-3041612D01*
G01X-1174226Y-3052679D01*
G01X-1169139Y-3062663D01*
G01X-1161216Y-3070586D01*
G01X-1151232Y-3075673D01*
G01X-1140165Y-3077426D01*
G01X-1040166Y-3077426D01*
G01X-1029098Y-3075673D01*
G01X-1019115Y-3070586D01*
G01X-1011191Y-3062663D01*
G01X-1006104Y-3052679D01*
G01X-1004352Y-3041612D01*
G01X-1004352Y-2925328D01*
G01X-899035Y-2820012D01*
G01X-889843Y-2808811D01*
G01X-883012Y-2796032D01*
G01X-878806Y-2782166D01*
G01X-877386Y-2767747D01*
G01X-877386Y-2582652D01*
G01X-855199Y-2591970D01*
G01X-855199Y-3177690D01*
G01X-2497601Y-3177690D01*
G01X-2497601Y-2747307D01*
G01X-1706588Y-2747307D01*
G01X-1706588Y-2837307D01*
G01X-1704688Y-2848817D01*
G01X-1704688Y-2939396D01*
G01X-1706127Y-2949445D01*
G01X-1706127Y-3039445D01*
G01X-1704374Y-3050512D01*
G01X-1699287Y-3060496D01*
G01X-1691364Y-3068419D01*
G01X-1681380Y-3073506D01*
G01X-1670313Y-3075259D01*
G01X-1590313Y-3075259D01*
G01X-1578673Y-3073315D01*
G01X-1568296Y-3067692D01*
G01X-1560311Y-3059003D01*
G01X-1552325Y-3067692D01*
G01X-1541949Y-3073315D01*
G01X-1530308Y-3075259D01*
G01X-1450308Y-3075259D01*
G01X-1439241Y-3073506D01*
G01X-1429257Y-3068419D01*
G01X-1421334Y-3060496D01*
G01X-1416247Y-3050512D01*
G01X-1414494Y-3039445D01*
G01X-1414494Y-2993217D01*
G01X-1413202Y-2993226D01*
G01X-1405976Y-2993226D01*
G01X-1405976Y-3041612D01*
G01X-1404223Y-3052679D01*
G01X-1399136Y-3062663D01*
G01X-1391213Y-3070586D01*
G01X-1381229Y-3075673D01*
G01X-1370162Y-3077426D01*
G01X-1270163Y-3077426D01*
G01X-1259095Y-3075673D01*
G01X-1249112Y-3070586D01*
G01X-1241188Y-3062663D01*
G01X-1236101Y-3052679D01*
G01X-1234349Y-3041612D01*
G01X-1234349Y-2918358D01*
G01X-1233548Y-2906612D01*
G01X-1234349Y-2894867D01*
G01X-1234349Y-2771612D01*
G01X-1236101Y-2760545D01*
G01X-1241188Y-2750561D01*
G01X-1249112Y-2742638D01*
G01X-1259095Y-2737551D01*
G01X-1270163Y-2735798D01*
G01X-1370162Y-2735798D01*
G01X-1381229Y-2737551D01*
G01X-1391213Y-2742638D01*
G01X-1399136Y-2750561D01*
G01X-1404223Y-2760545D01*
G01X-1405976Y-2771612D01*
G01X-1405976Y-2819998D01*
G01X-1413202Y-2819998D01*
G01X-1414955Y-2820016D01*
G01X-1414955Y-2747307D01*
G01X-1416855Y-2735797D01*
G01X-1416855Y-2694075D01*
G01X-1410435Y-2694075D01*
G01X-1399368Y-2692322D01*
G01X-1389384Y-2687235D01*
G01X-1381461Y-2679312D01*
G01X-1376374Y-2669328D01*
G01X-1374621Y-2658261D01*
G01X-1374621Y-2603260D01*
G01X-1376374Y-2592193D01*
G01X-1381461Y-2582209D01*
G01X-1389384Y-2574286D01*
G01X-1399368Y-2569199D01*
G01X-1410435Y-2567446D01*
G01X-1432297Y-2567446D01*
G01X-1446813Y-2560723D01*
G01X-1462436Y-2557281D01*
G01X-1478434Y-2557281D01*
G01X-1494057Y-2560723D01*
G01X-1508574Y-2567446D01*
G01X-1530435Y-2567446D01*
G01X-1541502Y-2569199D01*
G01X-1551486Y-2574286D01*
G01X-1559409Y-2582209D01*
G01X-1564496Y-2592193D01*
G01X-1566249Y-2603260D01*
G01X-1566249Y-2658261D01*
G01X-1564683Y-2668735D01*
G01X-1564683Y-2722773D01*
G01X-1572235Y-2716665D01*
G01X-1581151Y-2712810D01*
G01X-1590774Y-2711493D01*
G01X-1590774Y-2711493D01*
G01X-1670774Y-2711493D01*
G01X-1681841Y-2713246D01*
G01X-1691825Y-2718333D01*
G01X-1699748Y-2726256D01*
G01X-1704835Y-2736240D01*
G01X-1706588Y-2747307D01*
G01X-2497601Y-2747307D01*
G01X-2497601Y-2519064D01*
G01X-2006954Y-2519064D01*
G01X-2006954Y-2619064D01*
G01X-2005113Y-2637756D01*
G01X-1999661Y-2655730D01*
G01X-1990807Y-2672295D01*
G01X-1978891Y-2686814D01*
G01X-1964372Y-2698730D01*
G01X-1947807Y-2707584D01*
G01X-1929833Y-2713037D01*
G01X-1911140Y-2714878D01*
G01X-1892448Y-2713037D01*
G01X-1874474Y-2707584D01*
G01X-1857909Y-2698730D01*
G01X-1843390Y-2686814D01*
G01X-1831474Y-2672295D01*
G01X-1822620Y-2655730D01*
G01X-1817168Y-2637756D01*
G01X-1815327Y-2619064D01*
G01X-1815327Y-2619064D01*
G01X-1815327Y-2519064D01*
G01X-1817168Y-2500372D01*
G01X-1822620Y-2482398D01*
G01X-1831474Y-2465833D01*
G01X-1843390Y-2451313D01*
G01X-1857909Y-2439398D01*
G01X-1874474Y-2430544D01*
G01X-1892448Y-2425091D01*
G01X-1911140Y-2423250D01*
G01X-1929833Y-2425091D01*
G01X-1947807Y-2430544D01*
G01X-1964372Y-2439398D01*
G01X-1978891Y-2451313D01*
G01X-1990807Y-2465833D01*
G01X-1999661Y-2482398D01*
G01X-2005113Y-2500372D01*
G01X-2006954Y-2519064D01*
G01X-2497601Y-2519064D01*
G01X-2497601Y-2422906D01*
G01X-2281773Y-2422906D01*
G01X-2270706Y-2421153D01*
G01X-2260722Y-2416066D01*
G01X-2252799Y-2408143D01*
G01X-2247712Y-2398159D01*
G01X-2245959Y-2387092D01*
G01X-2245959Y-2051004D01*
G01X-2247712Y-2039937D01*
G01X-2252799Y-2029953D01*
G01X-2260722Y-2022030D01*
G01X-2270706Y-2016943D01*
G01X-2281773Y-2015190D01*
G01X-2366593Y-2015190D01*
G01X-2370007Y-2005166D01*
G01X-2338620Y-2005166D01*
G01X-2327553Y-2003414D01*
G01X-2317569Y-1998327D01*
G01X-2309646Y-1990403D01*
G01X-2304559Y-1980420D01*
G01X-2302806Y-1969352D01*
G01X-2302806Y-1888705D01*
G01X-2304121Y-1879091D01*
G01X-2307968Y-1870183D01*
G01X-2314065Y-1862634D01*
G01X-2321964Y-1857000D01*
G01X-2331087Y-1853692D01*
G01X-2321964Y-1850385D01*
G01X-2314065Y-1844750D01*
G01X-2307968Y-1837202D01*
G01X-2304121Y-1828293D01*
G01X-2302806Y-1818680D01*
G01X-2302806Y-1738032D01*
G01X-2304019Y-1728793D01*
G01X-2307574Y-1720179D01*
G01X-2313231Y-1712773D01*
G01X-2320607Y-1707078D01*
G01X-2320607Y-1229643D01*
G01X-2321783Y-1217701D01*
G01X-2325266Y-1206218D01*
G01X-2330923Y-1195635D01*
G01X-2338536Y-1186359D01*
G01X-2497601Y-1027293D01*
G01X-2497601Y-710997D01*
G01X-2490083Y-698637D01*
G01X-2485424Y-684941D01*
G01X-2483846Y-670560D01*
G01X-2485424Y-656179D01*
G01X-2490083Y-642483D01*
G01X-2497601Y-630123D01*
G01X-2497601Y-33953D01*
G01X-2477985Y-39014D01*
G01X-2457789Y-40610D01*
G01X-2437621Y-38692D01*
G01X-2418088Y-33319D01*
G01X-2399777Y-24652D01*
G01X-2383238Y-12951D01*
G01X-2368970Y1431D01*
G01X-2357402Y18062D01*
G01X-2348881Y36442D01*
G01X-2343663Y56017D01*
G01X-2341907Y76200D01*
G01X-2343663Y96383D01*
G01X-2348881Y115958D01*
G01X-2357402Y134338D01*
G01X-2368970Y150969D01*
G01X-2383238Y165351D01*
G01X-2399777Y177052D01*
G01X-2418088Y185719D01*
G01X-2437621Y191092D01*
G01X-2457789Y193010D01*
G01X-2477985Y191414D01*
G01X-2497601Y186353D01*
G01X-2497601Y220047D01*
G01X-2476591Y214762D01*
G01X-2454965Y213447D01*
G01X-2433469Y216149D01*
G01X-2412841Y222773D01*
G01X-2393792Y233093D01*
G01X-2376976Y246754D01*
G01X-2362972Y263285D01*
G01X-2352261Y282118D01*
G01X-2345213Y302605D01*
G01X-2342069Y324041D01*
G01X-2342938Y345689D01*
G01X-2347790Y366804D01*
G01X-2356457Y386660D01*
G01X-2368643Y404574D01*
G01X-2383927Y419929D01*
G01X-2401783Y432198D01*
G01X-2421599Y440958D01*
G01X-2442691Y445908D01*
G01X-2464335Y446878D01*
G01X-2485785Y443835D01*
G01X-2497601Y455651D01*
G01X-2497601Y474047D01*
G01X-2476589Y468762D01*
G01X-2454963Y467447D01*
G01X-2433465Y470149D01*
G01X-2412836Y476775D01*
G01X-2393786Y487097D01*
G01X-2376970Y500760D01*
G01X-2362966Y517293D01*
G01X-2352257Y536127D01*
G01X-2345210Y556616D01*
G01X-2342068Y578054D01*
G01X-2342940Y599703D01*
G01X-2347795Y620819D01*
G01X-2356466Y640675D01*
G01X-2368654Y658588D01*
G01X-2383942Y673942D01*
G01X-2401802Y686208D01*
G01X-2421620Y694965D01*
G01X-2442714Y699912D01*
G01X-2464359Y700877D01*
G01X-2485811Y697829D01*
G01X-2497601Y706574D01*
G01X-2497601Y721387D01*
G01X-2377721Y721387D01*
G01X-2366654Y723140D01*
G01X-2356670Y728227D01*
G01X-2348747Y736150D01*
G01X-2343660Y746134D01*
G01X-2341907Y757201D01*
G01X-2341907Y919199D01*
G01X-2343660Y930266D01*
G01X-2348747Y940250D01*
G01X-2356670Y948173D01*
G01X-2366654Y953260D01*
G01X-2377721Y955013D01*
G01X-2497601Y955013D01*
G01X-2497601Y1086573D01*
G01X-1318395Y1086573D01*
G01X-1317448Y1068491D01*
G01X-1312761Y1051000D01*
G01X-1304541Y1034867D01*
G01X-1293145Y1020795D01*
G01X-1267699Y995348D01*
G01X-1275353Y989681D01*
G01X-1281243Y982198D01*
G01X-1284952Y973426D01*
G01X-1286218Y963987D01*
G01X-1286218Y963987D01*
G01X-1286218Y713988D01*
G01X-1284465Y702921D01*
G01X-1279378Y692937D01*
G01X-1271455Y685014D01*
G01X-1261471Y679927D01*
G01X-1250404Y678174D01*
G01X-1050404Y678174D01*
G01X-1039337Y679927D01*
G01X-1029353Y685014D01*
G01X-1021430Y692937D01*
G01X-1016343Y702921D01*
G01X-1014590Y713988D01*
G01X-1014590Y963987D01*
G01X-1016343Y975054D01*
G01X-1021430Y985038D01*
G01X-1029353Y992961D01*
G01X-1039337Y998048D01*
G01X-1050404Y999801D01*
G01X-1063790Y999801D01*
G01X-1063790Y1000544D01*
G01X-1065454Y1017442D01*
G01X-1070383Y1033690D01*
G01X-1078387Y1048664D01*
G01X-1089159Y1061789D01*
G01X-1170655Y1143285D01*
G01X-1184727Y1154681D01*
G01X-1200860Y1162901D01*
G01X-1218351Y1167588D01*
G01X-1236433Y1168535D01*
G01X-1254317Y1165703D01*
G01X-1271222Y1159214D01*
G01X-1286408Y1149352D01*
G01X-1299212Y1136548D01*
G01X-1309074Y1121362D01*
G01X-1315563Y1104457D01*
G01X-1318395Y1086573D01*
G01X-2497601Y1086573D01*
G01X-2497601Y1157625D01*
G01X-2496717Y1157986D01*
G01X-2412369Y1157986D01*
G01X-2400427Y1159162D01*
G01X-2388943Y1162646D01*
G01X-2378360Y1168302D01*
G01X-2369084Y1175915D01*
G01X-2344615Y1200384D01*
G01X-2310371Y1200384D01*
G01X-2299304Y1202137D01*
G01X-2289320Y1207224D01*
G01X-2281397Y1215147D01*
G01X-2276310Y1225131D01*
G01X-2274557Y1236198D01*
G01X-2274557Y1316198D01*
G01X-2276310Y1327265D01*
G01X-2281397Y1337248D01*
G01X-2289320Y1345172D01*
G01X-2299304Y1350259D01*
G01X-2310371Y1352012D01*
G01X-2400371Y1352012D01*
G01X-2411438Y1350259D01*
G01X-2421422Y1345172D01*
G01X-2429345Y1337248D01*
G01X-2434432Y1327265D01*
G01X-2436185Y1316198D01*
G01X-2436185Y1281953D01*
G01X-2437724Y1280414D01*
G01X-2496717Y1280414D01*
G01X-2497601Y1280775D01*
G01X-2497601Y1398254D01*
G01X-2483986Y1405125D01*
G01X-2472300Y1414925D01*
G01X-2463162Y1427135D01*
G01X-2457055Y1441110D01*
G01X-2454303Y1456111D01*
G01X-2455050Y1471344D01*
G01X-2459257Y1486003D01*
G01X-2459257Y1494051D01*
G01X-2454675Y1501005D01*
G01X-2451823Y1508829D01*
G01X-2450855Y1517100D01*
G01X-2450855Y1607100D01*
G01X-2452608Y1618167D01*
G01X-2457695Y1628151D01*
G01X-2465618Y1636074D01*
G01X-2475602Y1641161D01*
G01X-2486669Y1642914D01*
G01X-2497601Y1642914D01*
G01X-2497601Y1704086D01*
G01X-2470535Y1704086D01*
G01X-2467956Y1704340D01*
G01X-2253254Y1704340D01*
G01X-2251327Y1688470D01*
G01X-2245658Y1673522D01*
G01X-2236577Y1660366D01*
G01X-2224611Y1649765D01*
G01X-2210455Y1642335D01*
G01X-2194933Y1638509D01*
G01X-2178947Y1638509D01*
G01X-2163425Y1642335D01*
G01X-2149269Y1649765D01*
G01X-2137303Y1660366D01*
G01X-2128222Y1673522D01*
G01X-2122553Y1688470D01*
G01X-2120626Y1704340D01*
G01X-2122553Y1720210D01*
G01X-2128222Y1735158D01*
G01X-2137303Y1748314D01*
G01X-2149269Y1758915D01*
G01X-2163425Y1766345D01*
G01X-2178947Y1770171D01*
G01X-2194933Y1770171D01*
G01X-2210455Y1766345D01*
G01X-2224611Y1758915D01*
G01X-2236577Y1748314D01*
G01X-2245658Y1735158D01*
G01X-2251327Y1720210D01*
G01X-2253254Y1704340D01*
G01X-2253254Y1704340D01*
G01X-2467956Y1704340D01*
G01X-2458593Y1705262D01*
G01X-2447109Y1708746D01*
G01X-2436526Y1714402D01*
G01X-2427250Y1722015D01*
G01X-2370339Y1778926D01*
G01X-2337571Y1778926D01*
G01X-2328495Y1780095D01*
G01X-2320012Y1783526D01*
G01X-2312675Y1788995D01*
G01X-2306963Y1796144D01*
G01X-2293648Y1788718D01*
G01X-2278988Y1784530D01*
G01X-2263760Y1783800D01*
G01X-2248767Y1786567D01*
G01X-2234802Y1792685D01*
G01X-2222604Y1801831D01*
G01X-2207759Y1795535D01*
G01X-2191832Y1793008D01*
G01X-2175767Y1794399D01*
G01X-2160513Y1799627D01*
G01X-2146971Y1808383D01*
G01X-2135943Y1820148D01*
G01X-2128081Y1834227D01*
G01X-2123849Y1849787D01*
G01X-2123498Y1865908D01*
G01X-2127049Y1881638D01*
G01X-2134291Y1896046D01*
G01X-2144797Y1908280D01*
G01X-2157944Y1917616D01*
G01X-2172957Y1923503D01*
G01X-2157742Y1927822D01*
G01X-2143982Y1935622D01*
G01X-2132461Y1946459D01*
G01X-2123834Y1959716D01*
G01X-2118592Y1974638D01*
G01X-2117032Y1990377D01*
G01X-2119244Y2006039D01*
G01X-2125102Y2020730D01*
G01X-2134272Y2033617D01*
G01X-2146233Y2043966D01*
G01X-2160305Y2051188D01*
G01X-2175686Y2054872D01*
G01X-2191503Y2054809D01*
G01X-2206854Y2051002D01*
G01X-2220868Y2043668D01*
G01X-2232746Y2033225D01*
G01X-2241813Y2020265D01*
G01X-2247554Y2005527D01*
G01X-2261910Y2006656D01*
G01X-2276172Y2004659D01*
G01X-2289666Y1999630D01*
G01X-2301757Y1991807D01*
G01X-2301757Y2046060D01*
G01X-2303366Y2056675D01*
G01X-2308049Y2066336D01*
G01X-2298670Y2071633D01*
G01X-2291290Y2079479D01*
G01X-2286577Y2089165D01*
G01X-2284957Y2099814D01*
G01X-2284957Y2349813D01*
G01X-2286710Y2360881D01*
G01X-2291797Y2370864D01*
G01X-2299720Y2378788D01*
G01X-2309704Y2383875D01*
G01X-2320771Y2385627D01*
G01X-2422906Y2385627D01*
G01X-2422906Y2387600D01*
G01X-2424659Y2398667D01*
G01X-2429746Y2408651D01*
G01X-2437669Y2416574D01*
G01X-2447653Y2421661D01*
G01X-2458720Y2423414D01*
G01X-2497601Y2423414D01*
G01X-2497601Y2931310D01*
G01X-1650999Y2931310D01*
G01X-1221664Y2501976D01*
G01X-1214247Y2496284D01*
G01X-1205609Y2492706D01*
G01X-1196340Y2491486D01*
G01X-855199Y2491486D01*
G37*
G36*
G01X4518459Y-3545840D02*
G01X2196949Y-3545840D01*
G01X2163580Y-3512471D01*
G01X2163580Y-2457158D01*
G01X4518459Y-2457158D01*
G01X4518459Y-3545840D01*
G37*
G36*
G01X-3795359Y-2051004D02*
G01X-3797159Y-2039793D01*
G01X-3802378Y-2029708D01*
G01X-3810493Y-2021764D01*
G01X-3820686Y-2016760D01*
G01X-3692735Y-2016760D01*
G01X-3692735Y-2045552D01*
G01X-3691126Y-2056167D01*
G01X-3686443Y-2065828D01*
G01X-3695822Y-2071125D01*
G01X-3703202Y-2078971D01*
G01X-3707915Y-2088657D01*
G01X-3709535Y-2099306D01*
G01X-3709535Y-2349306D01*
G01X-3707782Y-2360373D01*
G01X-3702695Y-2370357D01*
G01X-3694772Y-2378280D01*
G01X-3684788Y-2383367D01*
G01X-3673721Y-2385120D01*
G01X-3571586Y-2385120D01*
G01X-3571586Y-2387092D01*
G01X-3569833Y-2398159D01*
G01X-3564746Y-2408143D01*
G01X-3556823Y-2416066D01*
G01X-3546839Y-2421153D01*
G01X-3535772Y-2422906D01*
G01X-3056473Y-2422906D01*
G01X-3045406Y-2421153D01*
G01X-3035422Y-2416066D01*
G01X-3027499Y-2408143D01*
G01X-3022412Y-2398159D01*
G01X-3020659Y-2387092D01*
G01X-3020659Y-2051004D01*
G01X-3022459Y-2039793D01*
G01X-3027678Y-2029708D01*
G01X-3035793Y-2021764D01*
G01X-3045986Y-2016760D01*
G01X-2918035Y-2016760D01*
G01X-2918035Y-2045552D01*
G01X-2916426Y-2056167D01*
G01X-2911743Y-2065828D01*
G01X-2921122Y-2071125D01*
G01X-2928502Y-2078971D01*
G01X-2933215Y-2088657D01*
G01X-2934835Y-2099306D01*
G01X-2934835Y-2349306D01*
G01X-2933082Y-2360373D01*
G01X-2927995Y-2370357D01*
G01X-2920072Y-2378280D01*
G01X-2910088Y-2383367D01*
G01X-2899021Y-2385120D01*
G01X-2796886Y-2385120D01*
G01X-2796886Y-2387092D01*
G01X-2795133Y-2398159D01*
G01X-2790046Y-2408143D01*
G01X-2782123Y-2416066D01*
G01X-2772139Y-2421153D01*
G01X-2761072Y-2422906D01*
G01X-2281773Y-2422906D01*
G01X-2270706Y-2421153D01*
G01X-2260722Y-2416066D01*
G01X-2252799Y-2408143D01*
G01X-2247712Y-2398159D01*
G01X-2245959Y-2387092D01*
G01X-2245959Y-2051004D01*
G01X-2247759Y-2039793D01*
G01X-2252978Y-2029708D01*
G01X-2261093Y-2021764D01*
G01X-2271286Y-2016760D01*
G01X-1229614Y-2016760D01*
G01X-1229614Y-2369703D01*
G01X-1228765Y-2377454D01*
G01X-1290436Y-2377454D01*
G01X-1301503Y-2379207D01*
G01X-1311487Y-2384294D01*
G01X-1319410Y-2392217D01*
G01X-1324497Y-2402201D01*
G01X-1326250Y-2413268D01*
G01X-1326250Y-2468269D01*
G01X-1324690Y-2478723D01*
G01X-1320147Y-2488267D01*
G01X-1324690Y-2497810D01*
G01X-1326250Y-2508264D01*
G01X-1326250Y-2563265D01*
G01X-1324690Y-2573719D01*
G01X-1320147Y-2583263D01*
G01X-1324690Y-2592806D01*
G01X-1326250Y-2603260D01*
G01X-1326250Y-2658261D01*
G01X-1324497Y-2669328D01*
G01X-1319410Y-2679312D01*
G01X-1311487Y-2687235D01*
G01X-1301503Y-2692322D01*
G01X-1290436Y-2694075D01*
G01X-1170436Y-2694075D01*
G01X-1164303Y-2693546D01*
G01X-1158351Y-2691975D01*
G01X-1073220Y-2691975D01*
G01X-1058624Y-2690209D01*
G01X-1044871Y-2685014D01*
G01X-1032752Y-2676690D01*
G01X-1031335Y-2676690D01*
G01X-1025214Y-2676163D01*
G01X-1025214Y-2737130D01*
G01X-1026565Y-2738481D01*
G01X-1033234Y-2736476D01*
G01X-1040166Y-2735798D01*
G01X-1140165Y-2735798D01*
G01X-1151232Y-2737551D01*
G01X-1161216Y-2742638D01*
G01X-1169139Y-2750561D01*
G01X-1174226Y-2760545D01*
G01X-1175979Y-2771612D01*
G01X-1175979Y-3041612D01*
G01X-1174226Y-3052679D01*
G01X-1169139Y-3062663D01*
G01X-1161216Y-3070586D01*
G01X-1151232Y-3075673D01*
G01X-1140165Y-3077426D01*
G01X-1040166Y-3077426D01*
G01X-1029098Y-3075673D01*
G01X-1019115Y-3070586D01*
G01X-1011191Y-3062663D01*
G01X-1006104Y-3052679D01*
G01X-1004352Y-3041612D01*
G01X-1004352Y-2925328D01*
G01X-978123Y-2899100D01*
G01X-372210Y-2899100D01*
G01X-372210Y-3019100D01*
G01X-370375Y-3040079D01*
G01X-364924Y-3060421D01*
G01X-356024Y-3079507D01*
G01X-343945Y-3096758D01*
G01X-329054Y-3111649D01*
G01X-311803Y-3123728D01*
G01X-292717Y-3132628D01*
G01X-272376Y-3138078D01*
G01X-251396Y-3139914D01*
G01X-230417Y-3138078D01*
G01X-210076Y-3132628D01*
G01X-190990Y-3123728D01*
G01X-173739Y-3111649D01*
G01X-158848Y-3096758D01*
G01X-146769Y-3079507D01*
G01X-137869Y-3060421D01*
G01X-132418Y-3040079D01*
G01X-130583Y-3019100D01*
G01X-130583Y-2899100D01*
G01X-132418Y-2878121D01*
G01X-137869Y-2857779D01*
G01X-146769Y-2838693D01*
G01X-158848Y-2821442D01*
G01X-173739Y-2806551D01*
G01X-190990Y-2794472D01*
G01X-210076Y-2785572D01*
G01X-230417Y-2780122D01*
G01X-251396Y-2778286D01*
G01X-272376Y-2780122D01*
G01X-292717Y-2785572D01*
G01X-311803Y-2794472D01*
G01X-329054Y-2806551D01*
G01X-343945Y-2821442D01*
G01X-356024Y-2838693D01*
G01X-364924Y-2857779D01*
G01X-370375Y-2878121D01*
G01X-372210Y-2899100D01*
G01X-372210Y-2899100D01*
G01X-978123Y-2899100D01*
G01X-899035Y-2820012D01*
G01X-889843Y-2808811D01*
G01X-883012Y-2796032D01*
G01X-878806Y-2782166D01*
G01X-877386Y-2767747D01*
G01X-877386Y-2582652D01*
G01X-628529Y-2687165D01*
G01X-613349Y-2699398D01*
G01X-596007Y-2708305D01*
G01X-577221Y-2713517D01*
G01X-557768Y-2714819D01*
G01X-545866Y-2713654D01*
G01X-528249Y-2709059D01*
G01X-511819Y-2701214D01*
G01X-497169Y-2690403D01*
G01X-484829Y-2677016D01*
G01X-475245Y-2661536D01*
G01X-373650Y-2581297D01*
G01X-36403Y-2581297D01*
G01X-36403Y-2679297D01*
G01X-34650Y-2690365D01*
G01X-29563Y-2700348D01*
G01X-21640Y-2708272D01*
G01X-11656Y-2713359D01*
G01X-589Y-2715111D01*
G01X85234Y-2715111D01*
G01X141999Y-2771876D01*
G01X141999Y-2814874D01*
G01X141999Y-2814874D01*
G01X130084Y-2829185D01*
G01X120511Y-2845157D01*
G01X113505Y-2862410D01*
G01X109234Y-2880534D01*
G01X107799Y-2899100D01*
G01X107799Y-3019100D01*
G01X109634Y-3040079D01*
G01X115085Y-3060421D01*
G01X123985Y-3079507D01*
G01X136064Y-3096758D01*
G01X150955Y-3111649D01*
G01X168206Y-3123728D01*
G01X187292Y-3132628D01*
G01X207634Y-3138078D01*
G01X228613Y-3139914D01*
G01X249592Y-3138078D01*
G01X269933Y-3132628D01*
G01X289020Y-3123728D01*
G01X306270Y-3111649D01*
G01X321161Y-3096758D01*
G01X333241Y-3079507D01*
G01X342141Y-3060421D01*
G01X347591Y-3040079D01*
G01X349427Y-3019100D01*
G01X349427Y-3005062D01*
G01X441616Y-2912873D01*
G01X452615Y-2910580D01*
G01X462363Y-2904991D01*
G01X469900Y-2896657D01*
G01X477886Y-2905347D01*
G01X488262Y-2910969D01*
G01X499902Y-2912914D01*
G01X579902Y-2912914D01*
G01X587783Y-2912036D01*
G01X587783Y-3019100D01*
G01X589618Y-3040079D01*
G01X595069Y-3060421D01*
G01X603969Y-3079507D01*
G01X616048Y-3096758D01*
G01X630939Y-3111649D01*
G01X648190Y-3123728D01*
G01X667276Y-3132628D01*
G01X687617Y-3138078D01*
G01X708597Y-3139914D01*
G01X729576Y-3138078D01*
G01X749917Y-3132628D01*
G01X769003Y-3123728D01*
G01X786254Y-3111649D01*
G01X801145Y-3096758D01*
G01X813224Y-3079507D01*
G01X822124Y-3060421D01*
G01X827575Y-3040079D01*
G01X829410Y-3019100D01*
G01X829410Y-3008206D01*
G01X853783Y-3008206D01*
G01X853783Y-3088206D01*
G01X855658Y-3106047D01*
G01X861202Y-3123109D01*
G01X870172Y-3138646D01*
G01X882176Y-3151978D01*
G01X896690Y-3162523D01*
G01X913079Y-3169820D01*
G01X930627Y-3173549D01*
G01X948567Y-3173549D01*
G01X966115Y-3169820D01*
G01X982504Y-3162523D01*
G01X997018Y-3151978D01*
G01X1009022Y-3138646D01*
G01X1017992Y-3123109D01*
G01X1023535Y-3106047D01*
G01X1025411Y-3088206D01*
G01X1025411Y-3008206D01*
G01X1717789Y-3008206D01*
G01X1717789Y-3088206D01*
G01X1719665Y-3106047D01*
G01X1725208Y-3123109D01*
G01X1734178Y-3138646D01*
G01X1746182Y-3151978D01*
G01X1760696Y-3162523D01*
G01X1777085Y-3169820D01*
G01X1794633Y-3173549D01*
G01X1812573Y-3173549D01*
G01X1830121Y-3169820D01*
G01X1846510Y-3162523D01*
G01X1861024Y-3151978D01*
G01X1873028Y-3138646D01*
G01X1881998Y-3123109D01*
G01X1887542Y-3106047D01*
G01X1889417Y-3088206D01*
G01X1889417Y-3008206D01*
G01X1887542Y-2990364D01*
G01X1881998Y-2973302D01*
G01X1873028Y-2957766D01*
G01X1861024Y-2944434D01*
G01X1846510Y-2933889D01*
G01X1830121Y-2926592D01*
G01X1812573Y-2922862D01*
G01X1794633Y-2922862D01*
G01X1777085Y-2926592D01*
G01X1760696Y-2933889D01*
G01X1746182Y-2944434D01*
G01X1734178Y-2957766D01*
G01X1725208Y-2973302D01*
G01X1719665Y-2990364D01*
G01X1717789Y-3008206D01*
G01X1717789Y-3008206D01*
G01X1025411Y-3008206D01*
G01X1023535Y-2990364D01*
G01X1017992Y-2973302D01*
G01X1009022Y-2957766D01*
G01X997018Y-2944434D01*
G01X982504Y-2933889D01*
G01X966115Y-2926592D01*
G01X948567Y-2922862D01*
G01X930627Y-2922862D01*
G01X913079Y-2926592D01*
G01X896690Y-2933889D01*
G01X882176Y-2944434D01*
G01X870172Y-2957766D01*
G01X861202Y-2973302D01*
G01X855658Y-2990364D01*
G01X853783Y-3008206D01*
G01X853783Y-3008206D01*
G01X829410Y-3008206D01*
G01X829410Y-2899100D01*
G01X827568Y-2878085D01*
G01X822099Y-2857710D01*
G01X813169Y-2838597D01*
G01X801050Y-2821329D01*
G01X786113Y-2806433D01*
G01X768811Y-2794362D01*
G01X749674Y-2785484D01*
G01X729285Y-2780071D01*
G01X708264Y-2778287D01*
G01X687254Y-2780186D01*
G01X666894Y-2785712D01*
G01X647806Y-2794695D01*
G01X630572Y-2806861D01*
G01X615716Y-2821839D01*
G01X615716Y-2787100D01*
G01X614766Y-2778906D01*
G01X611967Y-2771147D01*
G01X607466Y-2764234D01*
G01X607466Y-2698902D01*
G01X606168Y-2685721D01*
G01X602323Y-2673047D01*
G01X596080Y-2661366D01*
G01X587677Y-2651127D01*
G01X568475Y-2631925D01*
G01X555708Y-2621913D01*
G01X540923Y-2615234D01*
G01X524972Y-2612271D01*
G01X508774Y-2613197D01*
G01X493264Y-2617957D01*
G01X479336Y-2626278D01*
G01X467793Y-2637679D01*
G01X459301Y-2651503D01*
G01X454349Y-2666953D01*
G01X453224Y-2683138D01*
G01X455989Y-2699125D01*
G01X462485Y-2713992D01*
G01X472338Y-2726881D01*
G01X472338Y-2764234D01*
G01X469900Y-2767543D01*
G01X461914Y-2758853D01*
G01X451538Y-2753231D01*
G01X439898Y-2751286D01*
G01X431060Y-2751286D01*
G01X415746Y-2746948D01*
G01X399898Y-2745486D01*
G01X384049Y-2746948D01*
G01X368735Y-2751286D01*
G01X359898Y-2751286D01*
G01X349158Y-2752934D01*
G01X339407Y-2757727D01*
G01X331542Y-2765224D01*
G01X326286Y-2774734D01*
G01X324125Y-2785382D01*
G01X315227Y-2794280D01*
G01X315227Y-2735999D01*
G01X313562Y-2719102D01*
G01X308634Y-2702853D01*
G01X300630Y-2687879D01*
G01X289858Y-2674754D01*
G01X282224Y-2667120D01*
G01X282224Y-2581297D01*
G01X280472Y-2570229D01*
G01X275385Y-2560246D01*
G01X267461Y-2552322D01*
G01X257478Y-2547235D01*
G01X246410Y-2545483D01*
G01X140475Y-2545483D01*
G01X122911Y-2543683D01*
G01X105346Y-2545483D01*
G01X-589Y-2545483D01*
G01X-11656Y-2547235D01*
G01X-21640Y-2552322D01*
G01X-29563Y-2560246D01*
G01X-34650Y-2570229D01*
G01X-36403Y-2581297D01*
G01X-373650Y-2581297D01*
G01X-41302Y-2318807D01*
G01X-33973Y-2310969D01*
G01X-29294Y-2301311D01*
G01X-27686Y-2290701D01*
G01X-27686Y-2242722D01*
G01X-19978Y-2249415D01*
G01X-10694Y-2253662D01*
G01X-589Y-2255117D01*
G01X246410Y-2255117D01*
G01X257478Y-2253365D01*
G01X267461Y-2248278D01*
G01X275385Y-2240354D01*
G01X280472Y-2230371D01*
G01X282224Y-2219303D01*
G01X282224Y-2121303D01*
G01X281295Y-2113198D01*
G01X286770Y-2093618D01*
G01X288615Y-2073370D01*
G01X288615Y-2016760D01*
G01X465922Y-2016760D01*
G01X484886Y-2035724D01*
G01X484886Y-2288286D01*
G01X122911Y-2288286D01*
G01X103082Y-2290055D01*
G01X83880Y-2295306D01*
G01X65911Y-2303873D01*
G01X49742Y-2315486D01*
G01X-589Y-2315486D01*
G01X-11656Y-2317238D01*
G01X-21640Y-2322325D01*
G01X-29563Y-2330249D01*
G01X-34650Y-2340232D01*
G01X-36403Y-2351300D01*
G01X-36403Y-2449300D01*
G01X-34650Y-2460368D01*
G01X-29563Y-2470351D01*
G01X-21640Y-2478275D01*
G01X-11656Y-2483362D01*
G01X-589Y-2485114D01*
G01X49742Y-2485114D01*
G01X65911Y-2496727D01*
G01X83880Y-2505294D01*
G01X103082Y-2510545D01*
G01X122911Y-2512314D01*
G01X530576Y-2512314D01*
G01X530576Y-2580300D01*
G01X532328Y-2591367D01*
G01X537415Y-2601351D01*
G01X545339Y-2609274D01*
G01X555322Y-2614361D01*
G01X566390Y-2616114D01*
G01X813389Y-2616114D01*
G01X824456Y-2614361D01*
G01X834440Y-2609274D01*
G01X842363Y-2601351D01*
G01X847450Y-2591367D01*
G01X849203Y-2580300D01*
G01X849203Y-2220300D01*
G01X847450Y-2209233D01*
G01X842363Y-2199249D01*
G01X834440Y-2191326D01*
G01X824456Y-2186239D01*
G01X813389Y-2184486D01*
G01X708914Y-2184486D01*
G01X708914Y-2016760D01*
G01X798069Y-2016760D01*
G01X801568Y-2030042D01*
G01X807728Y-2042319D01*
G01X816285Y-2053063D01*
G01X826871Y-2061814D01*
G01X839034Y-2068196D01*
G01X852250Y-2071936D01*
G01X865954Y-2072872D01*
G01X879556Y-2070966D01*
G01X892474Y-2066298D01*
G01X904153Y-2059069D01*
G01X914092Y-2049589D01*
G01X921866Y-2038265D01*
G01X970205Y-2086605D01*
G01X980253Y-2094315D01*
G01X991953Y-2099161D01*
G01X1004510Y-2100814D01*
G01X1005568Y-2100814D01*
G01X1331713Y-2426959D01*
G01X1334181Y-2442693D01*
G01X1340329Y-2457384D01*
G01X1349803Y-2470186D01*
G01X1362056Y-2480360D01*
G01X1376381Y-2487319D01*
G01X1391952Y-2490662D01*
G01X1407872Y-2490196D01*
G01X1407872Y-2574728D01*
G01X1344849Y-2637750D01*
G01X1329994Y-2639976D01*
G01X1316020Y-2645489D01*
G01X1303646Y-2654004D01*
G01X1293506Y-2665087D01*
G01X1282445Y-2656174D01*
G01X1269740Y-2649821D01*
G01X1255973Y-2646319D01*
G01X1241777Y-2645830D01*
G01X1227802Y-2648376D01*
G01X1214690Y-2653840D01*
G01X1203042Y-2661970D01*
G01X1193393Y-2672395D01*
G01X1186186Y-2684636D01*
G01X1181751Y-2698131D01*
G01X1180292Y-2712260D01*
G01X1181875Y-2726377D01*
G01X1186429Y-2739832D01*
G01X1193744Y-2752009D01*
G01X1178998Y-2752009D01*
G01X1169384Y-2753323D01*
G01X1160476Y-2757170D01*
G01X1152928Y-2763267D01*
G01X1147293Y-2771167D01*
G01X1143986Y-2780289D01*
G01X1139900Y-2769762D01*
G01X1132740Y-2761031D01*
G01X1123217Y-2754963D01*
G01X1112278Y-2752162D01*
G01X1109024Y-2748908D01*
G01X1123308Y-2741152D01*
G01X1135447Y-2730345D01*
G01X1144802Y-2717054D01*
G01X1150880Y-2701981D01*
G01X1153362Y-2685919D01*
G01X1152116Y-2669714D01*
G01X1147209Y-2654219D01*
G01X1138898Y-2640252D01*
G01X1127622Y-2628548D01*
G01X1113974Y-2619722D01*
G01X1098673Y-2614241D01*
G01X1082526Y-2612393D01*
G01X1066382Y-2614274D01*
G01X1051093Y-2619787D01*
G01X1037463Y-2628641D01*
G01X1026211Y-2640369D01*
G01X1026211Y-2630198D01*
G01X1025411Y-2618452D01*
G01X1025411Y-2580198D01*
G01X1023535Y-2562356D01*
G01X1017992Y-2545294D01*
G01X1009022Y-2529758D01*
G01X997018Y-2516426D01*
G01X982504Y-2505881D01*
G01X966115Y-2498584D01*
G01X948567Y-2494854D01*
G01X930627Y-2494854D01*
G01X913079Y-2498584D01*
G01X896690Y-2505881D01*
G01X882176Y-2516426D01*
G01X870172Y-2529758D01*
G01X861202Y-2545294D01*
G01X855658Y-2562356D01*
G01X853783Y-2580198D01*
G01X853783Y-2618452D01*
G01X852983Y-2630198D01*
G01X852983Y-2701971D01*
G01X854647Y-2718868D01*
G01X859576Y-2735116D01*
G01X867580Y-2750091D01*
G01X878351Y-2763216D01*
G01X992664Y-2877529D01*
G01X995175Y-2887776D01*
G01X1000563Y-2896848D01*
G01X1008360Y-2903956D01*
G01X1017890Y-2908483D01*
G01X1028325Y-2910037D01*
G01X1033171Y-2910037D01*
G01X1050507Y-2915716D01*
G01X1068649Y-2917637D01*
G01X1086791Y-2915716D01*
G01X1104128Y-2910037D01*
G01X1108973Y-2910037D01*
G01X1118587Y-2908723D01*
G01X1127495Y-2904876D01*
G01X1135043Y-2898779D01*
G01X1140678Y-2890879D01*
G01X1143986Y-2881757D01*
G01X1147293Y-2890879D01*
G01X1152928Y-2898779D01*
G01X1160476Y-2904876D01*
G01X1169384Y-2908723D01*
G01X1178998Y-2910037D01*
G01X1259646Y-2910037D01*
G01X1270713Y-2908284D01*
G01X1280697Y-2903197D01*
G01X1288620Y-2895274D01*
G01X1293707Y-2885290D01*
G01X1295460Y-2874223D01*
G01X1295460Y-2787823D01*
G01X1295119Y-2782897D01*
G01X1295119Y-2757178D01*
G01X1300285Y-2750905D01*
G01X1312327Y-2760436D01*
G01X1326239Y-2766942D01*
G01X1341275Y-2770073D01*
G01X1356627Y-2769662D01*
G01X1371473Y-2765729D01*
G01X1385017Y-2758487D01*
G01X1396531Y-2748324D01*
G01X1405398Y-2735785D01*
G01X1411144Y-2721542D01*
G01X1413458Y-2706359D01*
G01X1420860Y-2698958D01*
G01X1480292Y-2698958D01*
G01X1481980Y-2713401D01*
G01X1486775Y-2727130D01*
G01X1494448Y-2739483D01*
G01X1504628Y-2749867D01*
G01X1516827Y-2757782D01*
G01X1508107Y-2765769D01*
G01X1502464Y-2776160D01*
G01X1500511Y-2787823D01*
G01X1500511Y-2787823D01*
G01X1500511Y-2874223D01*
G01X1502264Y-2885290D01*
G01X1507351Y-2895274D01*
G01X1515274Y-2903197D01*
G01X1525258Y-2908284D01*
G01X1536325Y-2910037D01*
G01X1616973Y-2910037D01*
G01X1626587Y-2908723D01*
G01X1635495Y-2904876D01*
G01X1643043Y-2898779D01*
G01X1648678Y-2890879D01*
G01X1651986Y-2881757D01*
G01X1655293Y-2890879D01*
G01X1660928Y-2898779D01*
G01X1668476Y-2904876D01*
G01X1677384Y-2908723D01*
G01X1686998Y-2910037D01*
G01X1691843Y-2910037D01*
G01X1709180Y-2915716D01*
G01X1727322Y-2917637D01*
G01X1745464Y-2915716D01*
G01X1762800Y-2910037D01*
G01X1767646Y-2910037D01*
G01X1778081Y-2908483D01*
G01X1787611Y-2903956D01*
G01X1795408Y-2896848D01*
G01X1800796Y-2887776D01*
G01X1803307Y-2877529D01*
G01X1864849Y-2815987D01*
G01X1875620Y-2802862D01*
G01X1883624Y-2787888D01*
G01X1888553Y-2771639D01*
G01X1890217Y-2754742D01*
G01X1890217Y-2630198D01*
G01X1889417Y-2618452D01*
G01X1889417Y-2580198D01*
G01X1887542Y-2562356D01*
G01X1881998Y-2545294D01*
G01X1873028Y-2529758D01*
G01X1861024Y-2516426D01*
G01X1846510Y-2505881D01*
G01X1830121Y-2498584D01*
G01X1812573Y-2494854D01*
G01X1794633Y-2494854D01*
G01X1777085Y-2498584D01*
G01X1760696Y-2505881D01*
G01X1746182Y-2516426D01*
G01X1734178Y-2529758D01*
G01X1725208Y-2545294D01*
G01X1719665Y-2562356D01*
G01X1717789Y-2580198D01*
G01X1717789Y-2618452D01*
G01X1716989Y-2630198D01*
G01X1716989Y-2640369D01*
G01X1705734Y-2628638D01*
G01X1692099Y-2619783D01*
G01X1676805Y-2614271D01*
G01X1660657Y-2612393D01*
G01X1644506Y-2614246D01*
G01X1629203Y-2619734D01*
G01X1615554Y-2628567D01*
G01X1604280Y-2640280D01*
G01X1595975Y-2654256D01*
G01X1585138Y-2644559D01*
G01X1572448Y-2637458D01*
G01X1558515Y-2633293D01*
G01X1544009Y-2632266D01*
G01X1529629Y-2634425D01*
G01X1516064Y-2639666D01*
G01X1503968Y-2647739D01*
G01X1493923Y-2658253D01*
G01X1486411Y-2670704D01*
G01X1481793Y-2684493D01*
G01X1480292Y-2698958D01*
G01X1420860Y-2698958D01*
G01X1490690Y-2629127D01*
G01X1498400Y-2619080D01*
G01X1503247Y-2607379D01*
G01X1504900Y-2594823D01*
G01X1504900Y-2400433D01*
G01X1503247Y-2387876D01*
G01X1498400Y-2376176D01*
G01X1490690Y-2366128D01*
G01X1456480Y-2331918D01*
G01X1446433Y-2324208D01*
G01X1434732Y-2319362D01*
G01X1422176Y-2317709D01*
G01X1410026Y-2317709D01*
G01X1366506Y-2274189D01*
G01X1493756Y-2274189D01*
G01X1495683Y-2290059D01*
G01X1501352Y-2305007D01*
G01X1510433Y-2318163D01*
G01X1522399Y-2328764D01*
G01X1536554Y-2336194D01*
G01X1552077Y-2340020D01*
G01X1568063Y-2340020D01*
G01X1583585Y-2336194D01*
G01X1597740Y-2328764D01*
G01X1609707Y-2318163D01*
G01X1618788Y-2305007D01*
G01X1624457Y-2290059D01*
G01X1626384Y-2274189D01*
G01X1624457Y-2258319D01*
G01X1618788Y-2243371D01*
G01X1609707Y-2230215D01*
G01X1597740Y-2219614D01*
G01X1583585Y-2212184D01*
G01X1568063Y-2208358D01*
G01X1552077Y-2208358D01*
G01X1536554Y-2212184D01*
G01X1522399Y-2219614D01*
G01X1510433Y-2230215D01*
G01X1501352Y-2243371D01*
G01X1495683Y-2258319D01*
G01X1493756Y-2274189D01*
G01X1493756Y-2274189D01*
G01X1366506Y-2274189D01*
G01X1234484Y-2142166D01*
G01X1248583Y-2134602D01*
G01X1260459Y-2123882D01*
G01X1269423Y-2110628D01*
G01X1274951Y-2095614D01*
G01X1276722Y-2079713D01*
G01X1274634Y-2063850D01*
G01X1289408Y-2070225D01*
G01X1305282Y-2072854D01*
G01X1321323Y-2071582D01*
G01X1336585Y-2066485D01*
G01X1350170Y-2057861D01*
G01X1361278Y-2046219D01*
G01X1369255Y-2032244D01*
G01X1373631Y-2016760D01*
G01X1613124Y-2016760D01*
G01X1597902Y-2019917D01*
G01X1583833Y-2026530D01*
G01X1571691Y-2036238D01*
G01X1562142Y-2048505D01*
G01X1555711Y-2062659D01*
G01X1552753Y-2077921D01*
G01X1553429Y-2093452D01*
G01X1557702Y-2108399D01*
G01X1565337Y-2121941D01*
G01X1575916Y-2133333D01*
G01X1588856Y-2141949D01*
G01X1603446Y-2147315D01*
G01X1618885Y-2149137D01*
G01X1634324Y-2147315D01*
G01X1648914Y-2141949D01*
G01X1661854Y-2133333D01*
G01X1672433Y-2121941D01*
G01X1680069Y-2108399D01*
G01X1684342Y-2093452D01*
G01X1685018Y-2077921D01*
G01X1682059Y-2062659D01*
G01X1675629Y-2048505D01*
G01X1666080Y-2036238D01*
G01X1653937Y-2026530D01*
G01X1639868Y-2019917D01*
G01X1624646Y-2016760D01*
G01X2301757Y-2016760D01*
G01X2301757Y-2046060D01*
G01X2303366Y-2056675D01*
G01X2308049Y-2066336D01*
G01X2298670Y-2071633D01*
G01X2291290Y-2079479D01*
G01X2286577Y-2089165D01*
G01X2284957Y-2099814D01*
G01X2284957Y-2349813D01*
G01X2286710Y-2360881D01*
G01X2291797Y-2370864D01*
G01X2299720Y-2378788D01*
G01X2309704Y-2383875D01*
G01X2320771Y-2385627D01*
G01X2422906Y-2385627D01*
G01X2422906Y-2387600D01*
G01X2424659Y-2398667D01*
G01X2429746Y-2408651D01*
G01X2437669Y-2416574D01*
G01X2447653Y-2421661D01*
G01X2458720Y-2423414D01*
G01X2938019Y-2423414D01*
G01X2949086Y-2421661D01*
G01X2959070Y-2416574D01*
G01X2966993Y-2408651D01*
G01X2972080Y-2398667D01*
G01X2973833Y-2387600D01*
G01X2973833Y-2051512D01*
G01X2971881Y-2039850D01*
G01X2966239Y-2029460D01*
G01X2957520Y-2021473D01*
G01X2946676Y-2016760D01*
G01X3076457Y-2016760D01*
G01X3076457Y-2046060D01*
G01X3078066Y-2056675D01*
G01X3082749Y-2066336D01*
G01X3073370Y-2071633D01*
G01X3065990Y-2079479D01*
G01X3061277Y-2089165D01*
G01X3059657Y-2099814D01*
G01X3059657Y-2349813D01*
G01X3061410Y-2360881D01*
G01X3066497Y-2370864D01*
G01X3074420Y-2378788D01*
G01X3084404Y-2383875D01*
G01X3095471Y-2385627D01*
G01X3197606Y-2385627D01*
G01X3197606Y-2387600D01*
G01X3199359Y-2398667D01*
G01X3204446Y-2408651D01*
G01X3212369Y-2416574D01*
G01X3222353Y-2421661D01*
G01X3233420Y-2423414D01*
G01X3712719Y-2423414D01*
G01X3723786Y-2421661D01*
G01X3733770Y-2416574D01*
G01X3741693Y-2408651D01*
G01X3746780Y-2398667D01*
G01X3748533Y-2387600D01*
G01X3748533Y-2051512D01*
G01X3746581Y-2039850D01*
G01X3740939Y-2029460D01*
G01X3732220Y-2021473D01*
G01X3721376Y-2016760D01*
G01X3851157Y-2016760D01*
G01X3851157Y-2046060D01*
G01X3852766Y-2056675D01*
G01X3857449Y-2066336D01*
G01X3848070Y-2071633D01*
G01X3840690Y-2079479D01*
G01X3835977Y-2089165D01*
G01X3834357Y-2099814D01*
G01X3834357Y-2349813D01*
G01X3836110Y-2360881D01*
G01X3841197Y-2370864D01*
G01X3849120Y-2378788D01*
G01X3859104Y-2383875D01*
G01X3870171Y-2385627D01*
G01X3972306Y-2385627D01*
G01X3972306Y-2387600D01*
G01X3974059Y-2398667D01*
G01X3979146Y-2408651D01*
G01X3987069Y-2416574D01*
G01X3997053Y-2421661D01*
G01X4008120Y-2423414D01*
G01X4487419Y-2423414D01*
G01X4498486Y-2421661D01*
G01X4508470Y-2416574D01*
G01X4516393Y-2408651D01*
G01X4521480Y-2398667D01*
G01X4523233Y-2387600D01*
G01X4523233Y-2051512D01*
G01X4521281Y-2039850D01*
G01X4515639Y-2029460D01*
G01X4506920Y-2021473D01*
G01X4496076Y-2016760D01*
G01X4599686Y-2016760D01*
G01X4599686Y-3591306D01*
G01X2242415Y-3591306D01*
G01X1854124Y-3203016D01*
G01X1846707Y-3197324D01*
G01X1838069Y-3193746D01*
G01X1828800Y-3192526D01*
G01X914400Y-3192526D01*
G01X905131Y-3193746D01*
G01X896493Y-3197324D01*
G01X889076Y-3203016D01*
G01X500785Y-3591306D01*
G01X-4599686Y-3591306D01*
G01X-4599686Y-2747307D01*
G01X-1706588Y-2747307D01*
G01X-1706588Y-2837307D01*
G01X-1704688Y-2848817D01*
G01X-1704688Y-2939396D01*
G01X-1706127Y-2949445D01*
G01X-1706127Y-3039445D01*
G01X-1704374Y-3050512D01*
G01X-1699287Y-3060496D01*
G01X-1691364Y-3068419D01*
G01X-1681380Y-3073506D01*
G01X-1670313Y-3075259D01*
G01X-1590313Y-3075259D01*
G01X-1578673Y-3073315D01*
G01X-1568296Y-3067692D01*
G01X-1560311Y-3059003D01*
G01X-1552325Y-3067692D01*
G01X-1541949Y-3073315D01*
G01X-1530308Y-3075259D01*
G01X-1450308Y-3075259D01*
G01X-1439241Y-3073506D01*
G01X-1429257Y-3068419D01*
G01X-1421334Y-3060496D01*
G01X-1416247Y-3050512D01*
G01X-1414494Y-3039445D01*
G01X-1414494Y-2993217D01*
G01X-1413202Y-2993226D01*
G01X-1405976Y-2993226D01*
G01X-1405976Y-3041612D01*
G01X-1404223Y-3052679D01*
G01X-1399136Y-3062663D01*
G01X-1391213Y-3070586D01*
G01X-1381229Y-3075673D01*
G01X-1370162Y-3077426D01*
G01X-1270163Y-3077426D01*
G01X-1259095Y-3075673D01*
G01X-1249112Y-3070586D01*
G01X-1241188Y-3062663D01*
G01X-1236101Y-3052679D01*
G01X-1234349Y-3041612D01*
G01X-1234349Y-2918358D01*
G01X-1233548Y-2906612D01*
G01X-1234349Y-2894867D01*
G01X-1234349Y-2771612D01*
G01X-1236101Y-2760545D01*
G01X-1241188Y-2750561D01*
G01X-1249112Y-2742638D01*
G01X-1259095Y-2737551D01*
G01X-1270163Y-2735798D01*
G01X-1370162Y-2735798D01*
G01X-1381229Y-2737551D01*
G01X-1391213Y-2742638D01*
G01X-1399136Y-2750561D01*
G01X-1404223Y-2760545D01*
G01X-1405976Y-2771612D01*
G01X-1405976Y-2819998D01*
G01X-1413202Y-2819998D01*
G01X-1414955Y-2820016D01*
G01X-1414955Y-2747307D01*
G01X-1416855Y-2735797D01*
G01X-1416855Y-2694075D01*
G01X-1410435Y-2694075D01*
G01X-1399368Y-2692322D01*
G01X-1389384Y-2687235D01*
G01X-1381461Y-2679312D01*
G01X-1376374Y-2669328D01*
G01X-1374621Y-2658261D01*
G01X-1374621Y-2603260D01*
G01X-1376374Y-2592193D01*
G01X-1381461Y-2582209D01*
G01X-1389384Y-2574286D01*
G01X-1399368Y-2569199D01*
G01X-1410435Y-2567446D01*
G01X-1432297Y-2567446D01*
G01X-1446813Y-2560723D01*
G01X-1462436Y-2557281D01*
G01X-1478434Y-2557281D01*
G01X-1494057Y-2560723D01*
G01X-1508574Y-2567446D01*
G01X-1530435Y-2567446D01*
G01X-1541502Y-2569199D01*
G01X-1551486Y-2574286D01*
G01X-1559409Y-2582209D01*
G01X-1564496Y-2592193D01*
G01X-1566249Y-2603260D01*
G01X-1566249Y-2658261D01*
G01X-1564683Y-2668735D01*
G01X-1564683Y-2722773D01*
G01X-1572235Y-2716665D01*
G01X-1581151Y-2712810D01*
G01X-1590774Y-2711493D01*
G01X-1590774Y-2711493D01*
G01X-1670774Y-2711493D01*
G01X-1681841Y-2713246D01*
G01X-1691825Y-2718333D01*
G01X-1699748Y-2726256D01*
G01X-1704835Y-2736240D01*
G01X-1706588Y-2747307D01*
G01X-4599686Y-2747307D01*
G01X-4599686Y-2519064D01*
G01X-2006954Y-2519064D01*
G01X-2006954Y-2619064D01*
G01X-2005113Y-2637756D01*
G01X-1999661Y-2655730D01*
G01X-1990807Y-2672295D01*
G01X-1978891Y-2686814D01*
G01X-1964372Y-2698730D01*
G01X-1947807Y-2707584D01*
G01X-1929833Y-2713037D01*
G01X-1911140Y-2714878D01*
G01X-1892448Y-2713037D01*
G01X-1874474Y-2707584D01*
G01X-1857909Y-2698730D01*
G01X-1843390Y-2686814D01*
G01X-1831474Y-2672295D01*
G01X-1822620Y-2655730D01*
G01X-1817168Y-2637756D01*
G01X-1815327Y-2619064D01*
G01X-1815327Y-2619064D01*
G01X-1815327Y-2519064D01*
G01X-1817168Y-2500372D01*
G01X-1822620Y-2482398D01*
G01X-1831474Y-2465833D01*
G01X-1843390Y-2451313D01*
G01X-1857909Y-2439398D01*
G01X-1874474Y-2430544D01*
G01X-1892448Y-2425091D01*
G01X-1911140Y-2423250D01*
G01X-1929833Y-2425091D01*
G01X-1947807Y-2430544D01*
G01X-1964372Y-2439398D01*
G01X-1978891Y-2451313D01*
G01X-1990807Y-2465833D01*
G01X-1999661Y-2482398D01*
G01X-2005113Y-2500372D01*
G01X-2006954Y-2519064D01*
G01X-4599686Y-2519064D01*
G01X-4599686Y-2016760D01*
G01X-4467435Y-2016760D01*
G01X-4467435Y-2045552D01*
G01X-4465826Y-2056167D01*
G01X-4461143Y-2065828D01*
G01X-4470522Y-2071125D01*
G01X-4477902Y-2078971D01*
G01X-4482615Y-2088657D01*
G01X-4484235Y-2099306D01*
G01X-4484235Y-2349306D01*
G01X-4482482Y-2360373D01*
G01X-4477395Y-2370357D01*
G01X-4469472Y-2378280D01*
G01X-4459488Y-2383367D01*
G01X-4448421Y-2385120D01*
G01X-4346286Y-2385120D01*
G01X-4346286Y-2387092D01*
G01X-4344533Y-2398159D01*
G01X-4339446Y-2408143D01*
G01X-4331523Y-2416066D01*
G01X-4321539Y-2421153D01*
G01X-4310472Y-2422906D01*
G01X-3831173Y-2422906D01*
G01X-3820106Y-2421153D01*
G01X-3810122Y-2416066D01*
G01X-3802199Y-2408143D01*
G01X-3797112Y-2398159D01*
G01X-3795359Y-2387092D01*
G01X-3795359Y-2051004D01*
G37*
G54D10*
G01X-1000576Y-2457939D02*
G01X-1055611Y-2457939D01*
G01X-1116961Y-2432174D01*
G01X-1183640Y-2365494D01*
G01X-1183640Y-1793062D01*
G01X-1064438Y-1673860D01*
G01X-423308Y-1673860D01*
G01X-73660Y-2023508D01*
G01X-73660Y-2285779D01*
G01X-556849Y-2667404D01*
G01X-907944Y-2519955D01*
G01X-948311Y-2479588D01*
G03X-1000576Y-2457939I-52265J-52265D01*
G01X3517815Y2099814D02*
G03X3525520Y2077621I35814J0D01*
G01X3525520Y2061672D01*
G01X3387843Y2061672D01*
G01X3387843Y2111287D01*
G03X3352029Y2147101I-35814J0D01*
G01X3265628Y2147101D01*
G03X3236080Y2131525I0J-35814D01*
G03X3201711Y2114248I8915J-60561D01*
G01X3194565Y2107103D01*
G03X3189409Y2102499I38129J-47889D01*
G01X3180228Y2093318D01*
G03X3146175Y2061672I25252J-61318D01*
G01X3066541Y2061672D01*
G01X3066541Y2377440D01*
G01X3525520Y2377440D01*
G01X3525520Y2372006D01*
G03X3517815Y2349813I28109J-22193D01*
G01X3517815Y2099814D01*
G01X2250641Y2457158D02*
G01X2250641Y3543652D01*
G01X2252829Y3545840D01*
G01X4599686Y3545840D01*
G01X4599686Y2457158D01*
G01X2250641Y2457158D01*
G01X2743115Y2099814D02*
G03X2750820Y2077621I35814J0D01*
G01X2750820Y2061672D01*
G01X2613143Y2061672D01*
G01X2613143Y2111287D01*
G03X2577329Y2147101I-35814J0D01*
G01X2490928Y2147101D01*
G03X2461380Y2131525I0J-35814D01*
G03X2427011Y2114248I8915J-60561D01*
G01X2419865Y2107103D01*
G03X2414709Y2102499I38129J-47889D01*
G01X2405528Y2093318D01*
G03X2371475Y2061672I25252J-61318D01*
G01X2291841Y2061672D01*
G01X2291841Y2377440D01*
G01X2750820Y2377440D01*
G01X2750820Y2372006D01*
G03X2743115Y2349813I28109J-22193D01*
G01X2743115Y2099814D01*
G01X4292515Y2099814D02*
G03X4300220Y2077621I35814J0D01*
G01X4300220Y2061672D01*
G01X4162543Y2061672D01*
G01X4162543Y2111287D01*
G03X4126729Y2147101I-35814J0D01*
G01X4040328Y2147101D01*
G03X4010780Y2131525I0J-35814D01*
G03X3976411Y2114248I8915J-60561D01*
G01X3969265Y2107103D01*
G03X3964109Y2102499I38129J-47889D01*
G01X3954928Y2093318D01*
G03X3920875Y2061672I25252J-61318D01*
G01X3841241Y2061672D01*
G01X3841241Y2377440D01*
G01X4300220Y2377440D01*
G01X4300220Y2372006D01*
G03X4292515Y2349813I28109J-22193D01*
G01X4292515Y2099814D01*
G01X-3251285Y2099814D02*
G03X-3243580Y2077621I35814J0D01*
G01X-3243580Y2061672D01*
G01X-3381257Y2061672D01*
G01X-3381257Y2111287D01*
G03X-3417071Y2147101I-35814J0D01*
G01X-3503472Y2147101D01*
G03X-3533020Y2131525I0J-35814D01*
G03X-3567389Y2114248I8915J-60561D01*
G01X-3574535Y2107103D01*
G03X-3579691Y2102499I38129J-47889D01*
G01X-3588872Y2093318D01*
G03X-3622925Y2061672I25252J-61318D01*
G01X-3702559Y2061672D01*
G01X-3702559Y2377440D01*
G01X-3243580Y2377440D01*
G01X-3243580Y2372006D01*
G03X-3251285Y2349813I28109J-22193D01*
G01X-3251285Y2099814D01*
G01X-4518459Y3545840D02*
G01X-2265529Y3545840D01*
G01X-2163580Y3443891D01*
G01X-2163580Y2457158D01*
G01X-4518459Y2457158D01*
G01X-4518459Y3545840D01*
G01X-4025985Y2099814D02*
G03X-4018280Y2077621I35814J0D01*
G01X-4018280Y2061672D01*
G01X-4155957Y2061672D01*
G01X-4155957Y2111287D01*
G03X-4191771Y2147101I-35814J0D01*
G01X-4278172Y2147101D01*
G03X-4307720Y2131525I0J-35814D01*
G03X-4342089Y2114248I8915J-60561D01*
G01X-4349235Y2107103D01*
G03X-4354391Y2102499I38129J-47889D01*
G01X-4363572Y2093318D01*
G03X-4397625Y2061672I25252J-61318D01*
G01X-4477259Y2061672D01*
G01X-4477259Y2377440D01*
G01X-4018280Y2377440D01*
G01X-4018280Y2372006D01*
G03X-4025985Y2349813I28109J-22193D01*
G01X-4025985Y2099814D01*
G01X-2476585Y2099814D02*
G03X-2468880Y2077621I35814J0D01*
G01X-2468880Y2061672D01*
G01X-2606557Y2061672D01*
G01X-2606557Y2111287D01*
G03X-2642371Y2147101I-35814J0D01*
G01X-2728772Y2147101D01*
G03X-2758320Y2131525I0J-35814D01*
G03X-2792689Y2114248I8915J-60561D01*
G01X-2799835Y2107103D01*
G03X-2804991Y2102499I38129J-47889D01*
G01X-2814172Y2093318D01*
G03X-2848225Y2061672I25252J-61318D01*
G01X-2927859Y2061672D01*
G01X-2927859Y2377440D01*
G01X-2468880Y2377440D01*
G01X-2468880Y2372006D01*
G03X-2476585Y2349813I28109J-22193D01*
G01X-2476585Y2099814D01*
G01X-3517907Y-2099306D02*
G03X-3525612Y-2077113I-35814J0D01*
G01X-3525612Y-2061164D01*
G01X-3387935Y-2061164D01*
G01X-3387935Y-2110780D01*
G03X-3352121Y-2146594I35814J0D01*
G01X-3265720Y-2146594D01*
G03X-3236172Y-2131017I0J35814D01*
G03X-3201803Y-2113741I-8915J60561D01*
G01X-3194657Y-2106595D01*
G03X-3189501Y-2101991I-38129J47889D01*
G01X-3180320Y-2092810D01*
G03X-3146267Y-2061164I-25252J61318D01*
G01X-3066633Y-2061164D01*
G01X-3066633Y-2376932D01*
G01X-3525612Y-2376932D01*
G01X-3525612Y-2371499D01*
G03X-3517907Y-2349306I-28109J22193D01*
G01X-3517907Y-2099306D01*
G01X-2250733Y-3545332D02*
G01X-4599686Y-3545332D01*
G01X-4599686Y-2456650D01*
G01X-2250733Y-2456650D01*
G01X-2250733Y-3545332D01*
G01X-2743207Y-2099306D02*
G03X-2750912Y-2077113I-35814J0D01*
G01X-2750912Y-2061164D01*
G01X-2613235Y-2061164D01*
G01X-2613235Y-2110780D01*
G03X-2577421Y-2146594I35814J0D01*
G01X-2491020Y-2146594D01*
G03X-2461472Y-2131017I0J35814D01*
G03X-2427103Y-2113741I-8915J60561D01*
G01X-2419957Y-2106595D01*
G03X-2414801Y-2101991I-38129J47889D01*
G01X-2405620Y-2092810D01*
G03X-2371567Y-2061164I-25252J61318D01*
G01X-2291933Y-2061164D01*
G01X-2291933Y-2376932D01*
G01X-2750912Y-2376932D01*
G01X-2750912Y-2371499D01*
G03X-2743207Y-2349306I-28109J22193D01*
G01X-2743207Y-2099306D01*
G01X-4292607Y-2099306D02*
G03X-4300312Y-2077113I-35814J0D01*
G01X-4300312Y-2061164D01*
G01X-4162635Y-2061164D01*
G01X-4162635Y-2110780D01*
G03X-4126821Y-2146594I35814J0D01*
G01X-4040420Y-2146594D01*
G03X-4010872Y-2131017I0J35814D01*
G03X-3976503Y-2113741I-8915J60561D01*
G01X-3969357Y-2106595D01*
G03X-3964201Y-2101991I-38129J47889D01*
G01X-3955020Y-2092810D01*
G03X-3920967Y-2061164I-25252J61318D01*
G01X-3841333Y-2061164D01*
G01X-3841333Y-2376932D01*
G01X-4300312Y-2376932D01*
G01X-4300312Y-2371499D01*
G03X-4292607Y-2349306I-28109J22193D01*
G01X-4292607Y-2099306D01*
G01X3251285Y-2099814D02*
G03X3243580Y-2077621I-35814J0D01*
G01X3243580Y-2061672D01*
G01X3381257Y-2061672D01*
G01X3381257Y-2111287D01*
G03X3417071Y-2147101I35814J0D01*
G01X3503472Y-2147101D01*
G03X3533020Y-2131525I0J35814D01*
G03X3567389Y-2114248I-8915J60561D01*
G01X3574535Y-2107103D01*
G03X3579691Y-2102499I-38129J47889D01*
G01X3588872Y-2093318D01*
G03X3622925Y-2061672I-25252J61318D01*
G01X3702559Y-2061672D01*
G01X3702559Y-2377440D01*
G01X3243580Y-2377440D01*
G01X3243580Y-2372006D01*
G03X3251285Y-2349813I-28109J22193D01*
G01X3251285Y-2099814D01*
G01X4025985Y-2099814D02*
G03X4018280Y-2077621I-35814J0D01*
G01X4018280Y-2061672D01*
G01X4155957Y-2061672D01*
G01X4155957Y-2111287D01*
G03X4191771Y-2147101I35814J0D01*
G01X4278172Y-2147101D01*
G03X4307720Y-2131525I0J35814D01*
G03X4342089Y-2114248I-8915J60561D01*
G01X4349235Y-2107103D01*
G03X4354391Y-2102499I-38129J47889D01*
G01X4363572Y-2093318D01*
G03X4397625Y-2061672I-25252J61318D01*
G01X4477259Y-2061672D01*
G01X4477259Y-2377440D01*
G01X4018280Y-2377440D01*
G01X4018280Y-2372006D01*
G03X4025985Y-2349813I-28109J22193D01*
G01X4025985Y-2099814D01*
G01X2476585Y-2099814D02*
G03X2468880Y-2077621I-35814J0D01*
G01X2468880Y-2061672D01*
G01X2606557Y-2061672D01*
G01X2606557Y-2111287D01*
G03X2642371Y-2147101I35814J0D01*
G01X2728772Y-2147101D01*
G03X2758320Y-2131525I0J35814D01*
G03X2792689Y-2114248I-8915J60561D01*
G01X2799835Y-2107103D01*
G03X2804991Y-2102499I-38129J47889D01*
G01X2814172Y-2093318D01*
G03X2848225Y-2061672I-25252J61318D01*
G01X2927859Y-2061672D01*
G01X2927859Y-2377440D01*
G01X2468880Y-2377440D01*
G01X2468880Y-2372006D01*
G03X2476585Y-2349813I-28109J22193D01*
G01X2476585Y-2099814D01*
G01X-4523233Y2387600D02*
G01X-4523233Y2192020D01*
G01X-4599686Y2192020D01*
G01X-4599686Y3583686D01*
G01X-2303375Y3583686D01*
G01X-1221664Y2501976D01*
G03X-1196340Y2491486I25324J25324D01*
G01X1183640Y2491486D01*
G03X1208964Y2501976I0J35814D01*
G01X2298295Y3591306D01*
G01X4599686Y3591306D01*
G01X4599686Y2192020D01*
G01X4484143Y2192020D01*
G01X4484143Y2349813D01*
G03X4448329Y2385627I-35814J0D01*
G01X4346194Y2385627D01*
G01X4346194Y2387600D01*
G03X4310380Y2423414I-35814J0D01*
G01X3831081Y2423414D01*
G03X3795267Y2387600I0J-35814D01*
G01X3795267Y2192020D01*
G01X3709443Y2192020D01*
G01X3709443Y2349813D01*
G03X3673629Y2385627I-35814J0D01*
G01X3571494Y2385627D01*
G01X3571494Y2387600D01*
G03X3535680Y2423414I-35814J0D01*
G01X3056381Y2423414D01*
G03X3020567Y2387600I0J-35814D01*
G01X3020567Y2192020D01*
G01X2934743Y2192020D01*
G01X2934743Y2349813D01*
G03X2898929Y2385627I-35814J0D01*
G01X2796794Y2385627D01*
G01X2796794Y2387600D01*
G03X2760980Y2423414I-35814J0D01*
G01X2281681Y2423414D01*
G03X2245867Y2387600I0J-35814D01*
G01X2245867Y2192020D01*
G01X-2284957Y2192020D01*
G01X-2284957Y2349813D01*
G03X-2320771Y2385627I-35814J0D01*
G01X-2422906Y2385627D01*
G01X-2422906Y2387600D01*
G03X-2458720Y2423414I-35814J0D01*
G01X-2938019Y2423414D01*
G03X-2973833Y2387600I0J-35814D01*
G01X-2973833Y2192020D01*
G01X-3059657Y2192020D01*
G01X-3059657Y2349813D01*
G03X-3095471Y2385627I-35814J0D01*
G01X-3197606Y2385627D01*
G01X-3197606Y2387600D01*
G03X-3233420Y2423414I-35814J0D01*
G01X-3712719Y2423414D01*
G03X-3748533Y2387600I0J-35814D01*
G01X-3748533Y2192020D01*
G01X-3834357Y2192020D01*
G01X-3834357Y2349813D01*
G03X-3870171Y2385627I-35814J0D01*
G01X-3972306Y2385627D01*
G01X-3972306Y2387600D01*
G03X-4008120Y2423414I-35814J0D01*
G01X-4487419Y2423414D01*
G03X-4523233Y2387600I0J-35814D01*
G01X-2320771Y2385627D02*
G01X-2376320Y2385627D01*
G01X-2376320Y3583686D01*
G01X-2303375Y3583686D01*
G01X-1221664Y2501976D01*
G03X-1196340Y2491486I25324J25324D01*
G01X1183640Y2491486D01*
G03X1208964Y2501976I0J35814D01*
G01X2298295Y3591306D01*
G01X2495700Y3591306D01*
G01X2495700Y2423414D01*
G01X2281681Y2423414D01*
G03X2245867Y2387600I0J-35814D01*
G01X2245867Y2051512D01*
G03X2281681Y2015698I35814J0D01*
G01X2366501Y2015698D01*
G03X2369915Y2005674I64279J16302D01*
G01X2338528Y2005674D01*
G03X2302714Y1969860I0J-35814D01*
G01X2302714Y1889213D01*
G03X2330995Y1854200I35814J0D01*
G03X2302714Y1819187I7534J-35013D01*
G01X2302714Y1738540D01*
G03X2320515Y1707586I35814J0D01*
G01X2320515Y1520679D01*
G01X-2376320Y1520679D01*
G01X-2376320Y1772945D01*
G01X-2370339Y1778926D01*
G01X-2337571Y1778926D01*
G03X-2306963Y1796144I0J35814D01*
G03X-2222604Y1801831I38743J53820D01*
G03X-2128081Y1834227I33124J57449D01*
G03X-2172957Y1923503I-61399J25053D01*
G03X-2134272Y2033617I-10375J65497D01*
G03X-2247554Y2005527I-49060J-44617D01*
G03X-2301757Y1991807I-12346J-65155D01*
G01X-2301757Y2046060D01*
G03X-2308049Y2066336I-35814J0D01*
G03X-2284957Y2099814I-12722J33478D01*
G01X-2284957Y2349813D01*
G03X-2320771Y2385627I-35814J0D01*
G01X-2253254Y1704340D02*
G03X-2120626Y1704340I66314J0D01*
G03X-2253254Y1704340I-66314J0D01*
G01X-855199Y2491486D02*
G01X-855199Y1425538D01*
G03X-904514Y1361440I16999J-64098D01*
G03X-855199Y1297342I66314J0D01*
G01X-855199Y1193711D01*
G01X-856399Y1193385D01*
G03X-866393Y1194807I-9994J-34391D01*
G01X-884414Y1194807D01*
G03X-891392Y1210182I-46992J-12058D01*
G03X-969949Y1274212I-66304J-1142D01*
G03X-1019888Y1186023I12253J-65172D01*
G03X-1032206Y1158993I23495J-27030D01*
G01X-1032206Y1033992D01*
G03X-996392Y998178I35814J0D01*
G01X-977316Y998178D01*
G03X-987126Y968928I38705J-29250D01*
G01X-987126Y958489D01*
G03X-964013Y852022I48514J-45210D01*
G03X-872341Y910890I25402J61256D01*
G03X-855199Y903642I34141J56850D01*
G01X-855199Y-1419887D01*
G01X-957299Y-1419887D01*
G03X-993113Y-1455701I0J-35814D01*
G01X-993113Y-1617699D01*
G03X-991634Y-1627886I35814J0D01*
G01X-1068647Y-1627886D01*
G03X-1093971Y-1638376I0J-35814D01*
G01X-1219124Y-1763529D01*
G03X-1229614Y-1788853I25324J-25324D01*
G01X-1229614Y-2369703D01*
G03X-1228765Y-2377454I35814J0D01*
G01X-1290436Y-2377454D01*
G03X-1326250Y-2413268I0J-35814D01*
G01X-1326250Y-2468269D01*
G03X-1320147Y-2488267I35814J0D01*
G03X-1326250Y-2508264I29711J-19997D01*
G01X-1326250Y-2563265D01*
G03X-1320147Y-2583263I35814J0D01*
G03X-1326250Y-2603260I29711J-19997D01*
G01X-1326250Y-2658261D01*
G03X-1290436Y-2694075I35814J0D01*
G01X-1170436Y-2694075D01*
G03X-1158351Y-2691975I0J35814D01*
G01X-1073220Y-2691975D01*
G03X-1032752Y-2676690I0J61214D01*
G01X-1031335Y-2676690D01*
G03X-1025214Y-2676163I0J35814D01*
G01X-1025214Y-2737130D01*
G01X-1026565Y-2738481D01*
G03X-1040166Y-2735798I-13601J-33131D01*
G01X-1140165Y-2735798D01*
G03X-1175979Y-2771612I0J-35814D01*
G01X-1175979Y-3041612D01*
G03X-1140165Y-3077426I35814J0D01*
G01X-1040166Y-3077426D01*
G03X-1004352Y-3041612I0J35814D01*
G01X-1004352Y-2925328D01*
G01X-899035Y-2820012D01*
G03X-877386Y-2767747I-52265J52265D01*
G01X-877386Y-2582652D01*
G01X-855199Y-2591970D01*
G01X-855199Y-3177690D01*
G01X-2497601Y-3177690D01*
G01X-2497601Y-2422906D01*
G01X-2281773Y-2422906D01*
G03X-2245959Y-2387092I0J35814D01*
G01X-2245959Y-2051004D01*
G03X-2281773Y-2015190I-35814J0D01*
G01X-2366593Y-2015190D01*
G03X-2370007Y-2005166I-64279J-16302D01*
G01X-2338620Y-2005166D01*
G03X-2302806Y-1969352I0J35814D01*
G01X-2302806Y-1888705D01*
G03X-2331087Y-1853692I-35814J0D01*
G03X-2302806Y-1818680I-7534J35013D01*
G01X-2302806Y-1738032D01*
G03X-2320607Y-1707078I-35814J0D01*
G01X-2320607Y-1229643D01*
G03X-2338536Y-1186359I-61214J0D01*
G01X-2497601Y-1027293D01*
G01X-2497601Y-710997D01*
G03X-2483846Y-670560I-52559J40437D01*
G03X-2497601Y-630123I-66314J0D01*
G01X-2497601Y-33953D01*
G03X-2341907Y76200I38881J110153D01*
G03X-2497601Y186353I-116813J0D01*
G01X-2497601Y220047D01*
G03X-2342069Y324041I38881J110153D01*
G03X-2485785Y443835I-116651J6159D01*
G01X-2497601Y455651D01*
G01X-2497601Y474047D01*
G03X-2342068Y578054I38881J110153D01*
G03X-2485811Y697829I-116652J6146D01*
G03X-2497601Y706574I-42099J-44439D01*
G01X-2497601Y721387D01*
G01X-2377721Y721387D01*
G03X-2341907Y757201I0J35814D01*
G01X-2341907Y919199D01*
G03X-2377721Y955013I-35814J0D01*
G01X-2497601Y955013D01*
G01X-2497601Y1157625D01*
G01X-2496717Y1157986D01*
G01X-2412369Y1157986D01*
G03X-2369084Y1175915I0J61214D01*
G01X-2344615Y1200384D01*
G01X-2310371Y1200384D01*
G03X-2274557Y1236198I0J35814D01*
G01X-2274557Y1316198D01*
G03X-2310371Y1352012I-35814J0D01*
G01X-2400371Y1352012D01*
G03X-2436185Y1316198I0J-35814D01*
G01X-2436185Y1281953D01*
G01X-2437724Y1280414D01*
G01X-2496717Y1280414D01*
G01X-2497601Y1280775D01*
G01X-2497601Y1398254D01*
G03X-2459257Y1486003I-22870J62246D01*
G01X-2459257Y1494051D01*
G03X-2450855Y1517100I-27412J23049D01*
G01X-2450855Y1607100D01*
G03X-2486669Y1642914I-35814J0D01*
G01X-2497601Y1642914D01*
G01X-2497601Y1704086D01*
G01X-2470535Y1704086D01*
G03X-2427250Y1722015I0J61214D01*
G01X-2370339Y1778926D01*
G01X-2337571Y1778926D01*
G03X-2306963Y1796144I0J35814D01*
G03X-2222604Y1801831I38743J53820D01*
G03X-2128081Y1834227I33124J57449D01*
G03X-2172957Y1923503I-61399J25053D01*
G03X-2134272Y2033617I-10375J65497D01*
G03X-2247554Y2005527I-49060J-44617D01*
G03X-2301757Y1991807I-12346J-65155D01*
G01X-2301757Y2046060D01*
G03X-2308049Y2066336I-35814J0D01*
G03X-2284957Y2099814I-12722J33478D01*
G01X-2284957Y2349813D01*
G03X-2320771Y2385627I-35814J0D01*
G01X-2422906Y2385627D01*
G01X-2422906Y2387600D01*
G03X-2458720Y2423414I-35814J0D01*
G01X-2497601Y2423414D01*
G01X-2497601Y2931310D01*
G01X-1650999Y2931310D01*
G01X-1221664Y2501976D01*
G03X-1196340Y2491486I25324J25324D01*
G01X-855199Y2491486D01*
G01X-2253254Y1704340D02*
G03X-2120626Y1704340I66314J0D01*
G03X-2253254Y1704340I-66314J0D01*
G01X-1815327Y-2619064D02*
G01X-1815327Y-2519064D01*
G03X-2006954Y-2519064I-95814J0D01*
G01X-2006954Y-2619064D01*
G03X-1815327Y-2619064I95814J0D01*
G01X-1590774Y-2711493D02*
G01X-1670774Y-2711493D01*
G03X-1706588Y-2747307I0J-35814D01*
G01X-1706588Y-2837307D01*
G03X-1704688Y-2848817I35814J0D01*
G01X-1704688Y-2939396D01*
G03X-1706127Y-2949445I34375J-10050D01*
G01X-1706127Y-3039445D01*
G03X-1670313Y-3075259I35814J0D01*
G01X-1590313Y-3075259D01*
G03X-1560311Y-3059003I0J35814D01*
G03X-1530308Y-3075259I30002J19557D01*
G01X-1450308Y-3075259D01*
G03X-1414494Y-3039445I0J35814D01*
G01X-1414494Y-2993217D01*
G01X-1413202Y-2993226D01*
G01X-1405976Y-2993226D01*
G01X-1405976Y-3041612D01*
G03X-1370162Y-3077426I35814J0D01*
G01X-1270163Y-3077426D01*
G03X-1234349Y-3041612I0J35814D01*
G01X-1234349Y-2918358D01*
G03X-1234349Y-2894867I-85814J11746D01*
G01X-1234349Y-2771612D01*
G03X-1270163Y-2735798I-35814J0D01*
G01X-1370162Y-2735798D01*
G03X-1405976Y-2771612I0J-35814D01*
G01X-1405976Y-2819998D01*
G01X-1413202Y-2819998D01*
G01X-1414955Y-2820016D01*
G01X-1414955Y-2747307D01*
G03X-1416855Y-2735797I-35814J0D01*
G01X-1416855Y-2694075D01*
G01X-1410435Y-2694075D01*
G03X-1374621Y-2658261I0J35814D01*
G01X-1374621Y-2603260D01*
G03X-1410435Y-2567446I-35814J0D01*
G01X-1432297Y-2567446D01*
G03X-1508574Y-2567446I-38138J-63315D01*
G01X-1530435Y-2567446D01*
G03X-1566249Y-2603260I0J-35814D01*
G01X-1566249Y-2658261D01*
G03X-1564683Y-2668735I35814J0D01*
G01X-1564683Y-2722773D01*
G03X-1590774Y-2711493I-26091J-24534D01*
G01X-1286218Y963987D02*
G01X-1286218Y713988D01*
G03X-1250404Y678174I35814J0D01*
G01X-1050404Y678174D01*
G03X-1014590Y713988I0J35814D01*
G01X-1014590Y963987D01*
G03X-1050404Y999801I-35814J0D01*
G01X-1063790Y999801D01*
G01X-1063790Y1000544D01*
G03X-1089159Y1061789I-86614J0D01*
G01X-1170655Y1143285D01*
G03X-1293145Y1020795I-61245J-61245D01*
G01X-1267699Y995348D01*
G03X-1286218Y963987I17295J-31361D01*
G01X4518459Y-3545840D02*
G01X2196949Y-3545840D01*
G01X2163580Y-3512471D01*
G01X2163580Y-2457158D01*
G01X4518459Y-2457158D01*
G01X4518459Y-3545840D01*
G01X-3795359Y-2051004D02*
G03X-3820686Y-2016760I-35814J0D01*
G01X-3692735Y-2016760D01*
G01X-3692735Y-2045552D01*
G03X-3686443Y-2065828I35814J0D01*
G03X-3709535Y-2099306I12722J-33478D01*
G01X-3709535Y-2349306D01*
G03X-3673721Y-2385120I35814J0D01*
G01X-3571586Y-2385120D01*
G01X-3571586Y-2387092D01*
G03X-3535772Y-2422906I35814J0D01*
G01X-3056473Y-2422906D01*
G03X-3020659Y-2387092I0J35814D01*
G01X-3020659Y-2051004D01*
G03X-3045986Y-2016760I-35814J0D01*
G01X-2918035Y-2016760D01*
G01X-2918035Y-2045552D01*
G03X-2911743Y-2065828I35814J0D01*
G03X-2934835Y-2099306I12722J-33478D01*
G01X-2934835Y-2349306D01*
G03X-2899021Y-2385120I35814J0D01*
G01X-2796886Y-2385120D01*
G01X-2796886Y-2387092D01*
G03X-2761072Y-2422906I35814J0D01*
G01X-2281773Y-2422906D01*
G03X-2245959Y-2387092I0J35814D01*
G01X-2245959Y-2051004D01*
G03X-2271286Y-2016760I-35814J0D01*
G01X-1229614Y-2016760D01*
G01X-1229614Y-2369703D01*
G03X-1228765Y-2377454I35814J0D01*
G01X-1290436Y-2377454D01*
G03X-1326250Y-2413268I0J-35814D01*
G01X-1326250Y-2468269D01*
G03X-1320147Y-2488267I35814J0D01*
G03X-1326250Y-2508264I29711J-19997D01*
G01X-1326250Y-2563265D01*
G03X-1320147Y-2583263I35814J0D01*
G03X-1326250Y-2603260I29711J-19997D01*
G01X-1326250Y-2658261D01*
G03X-1290436Y-2694075I35814J0D01*
G01X-1170436Y-2694075D01*
G03X-1158351Y-2691975I0J35814D01*
G01X-1073220Y-2691975D01*
G03X-1032752Y-2676690I0J61214D01*
G01X-1031335Y-2676690D01*
G03X-1025214Y-2676163I0J35814D01*
G01X-1025214Y-2737130D01*
G01X-1026565Y-2738481D01*
G03X-1040166Y-2735798I-13601J-33131D01*
G01X-1140165Y-2735798D01*
G03X-1175979Y-2771612I0J-35814D01*
G01X-1175979Y-3041612D01*
G03X-1140165Y-3077426I35814J0D01*
G01X-1040166Y-3077426D01*
G03X-1004352Y-3041612I0J35814D01*
G01X-1004352Y-2925328D01*
G01X-899035Y-2820012D01*
G03X-877386Y-2767747I-52265J52265D01*
G01X-877386Y-2582652D01*
G01X-628529Y-2687165D01*
G03X-557768Y-2714819I67399J68101D01*
G03X-545866Y-2713654I2512J35726D01*
G03X-475245Y-2661536I-15264J94590D01*
G01X-41302Y-2318807D01*
G03X-27686Y-2290701I-22198J28105D01*
G01X-27686Y-2242722D01*
G03X-589Y-2255117I27097J23418D01*
G01X246410Y-2255117D01*
G03X282224Y-2219303I0J35814D01*
G01X282224Y-2121303D01*
G03X281295Y-2113198I-35814J0D01*
G03X288615Y-2073370I-104694J39828D01*
G01X288615Y-2016760D01*
G01X465922Y-2016760D01*
G01X484886Y-2035724D01*
G01X484886Y-2288286D01*
G01X122911Y-2288286D01*
G03X49742Y-2315486I0J-112014D01*
G01X-589Y-2315486D01*
G03X-36403Y-2351300I0J-35814D01*
G01X-36403Y-2449300D01*
G03X-589Y-2485114I35814J0D01*
G01X49742Y-2485114D01*
G03X122911Y-2512314I73169J84814D01*
G01X530576Y-2512314D01*
G01X530576Y-2580300D01*
G03X566390Y-2616114I35814J0D01*
G01X813389Y-2616114D01*
G03X849203Y-2580300I0J35814D01*
G01X849203Y-2220300D01*
G03X813389Y-2184486I-35814J0D01*
G01X708914Y-2184486D01*
G01X708914Y-2016760D01*
G01X798069Y-2016760D01*
G03X852250Y-2071936I65531J10160D01*
G03X921866Y-2038265I11350J65336D01*
G01X970205Y-2086605D01*
G03X1004510Y-2100814I34305J34305D01*
G01X1005568Y-2100814D01*
G01X1331713Y-2426959D01*
G03X1407872Y-2490196I66273J2336D01*
G01X1407872Y-2574728D01*
G01X1344849Y-2637750D01*
G03X1293506Y-2665087I2336J-66273D01*
G03X1203042Y-2661970I-46900J-46882D01*
G03X1193744Y-2752009I43563J-49998D01*
G01X1178998Y-2752009D01*
G03X1143986Y-2780289I0J-35814D01*
G03X1112278Y-2752162I-35013J-7534D01*
G01X1109024Y-2748908D01*
G03X1138898Y-2640252I-26426J65700D01*
G03X1026211Y-2640369I-56299J-42956D01*
G01X1026211Y-2630198D01*
G03X1025411Y-2618452I-86614J0D01*
G01X1025411Y-2580198D01*
G03X853783Y-2580198I-85814J0D01*
G01X853783Y-2618452D01*
G03X852983Y-2630198I85814J-11746D01*
G01X852983Y-2701971D01*
G03X878351Y-2763216I86614J0D01*
G01X992664Y-2877529D01*
G03X1028325Y-2910037I35661J3305D01*
G01X1033171Y-2910037D01*
G03X1104128Y-2910037I35478J79014D01*
G01X1108973Y-2910037D01*
G03X1143986Y-2881757I0J35814D01*
G03X1178998Y-2910037I35013J7534D01*
G01X1259646Y-2910037D01*
G03X1295460Y-2874223I0J35814D01*
G01X1295460Y-2787823D01*
G03X1295119Y-2782897I-35814J0D01*
G01X1295119Y-2757178D01*
G03X1300285Y-2750905I-48514J45210D01*
G03X1413458Y-2706359I46900J46882D01*
G01X1490690Y-2629127D01*
G03X1504900Y-2594823I-34305J34305D01*
G01X1504900Y-2400433D01*
G03X1490690Y-2366128I-48514J0D01*
G01X1456480Y-2331918D01*
G03X1422176Y-2317709I-34305J-34305D01*
G01X1410026Y-2317709D01*
G01X1234484Y-2142166D01*
G03X1274634Y-2063850I-24072J61791D01*
G03X1373631Y-2016760I33466J57250D01*
G01X1613124Y-2016760D01*
G03X1618885Y-2149137I5761J-66063D01*
G03X1624646Y-2016760I0J66314D01*
G01X2301757Y-2016760D01*
G01X2301757Y-2046060D01*
G03X2308049Y-2066336I35814J0D01*
G03X2284957Y-2099814I12722J-33478D01*
G01X2284957Y-2349813D01*
G03X2320771Y-2385627I35814J0D01*
G01X2422906Y-2385627D01*
G01X2422906Y-2387600D01*
G03X2458720Y-2423414I35814J0D01*
G01X2938019Y-2423414D01*
G03X2973833Y-2387600I0J35814D01*
G01X2973833Y-2051512D01*
G03X2946676Y-2016760I-35814J0D01*
G01X3076457Y-2016760D01*
G01X3076457Y-2046060D01*
G03X3082749Y-2066336I35814J0D01*
G03X3059657Y-2099814I12722J-33478D01*
G01X3059657Y-2349813D01*
G03X3095471Y-2385627I35814J0D01*
G01X3197606Y-2385627D01*
G01X3197606Y-2387600D01*
G03X3233420Y-2423414I35814J0D01*
G01X3712719Y-2423414D01*
G03X3748533Y-2387600I0J35814D01*
G01X3748533Y-2051512D01*
G03X3721376Y-2016760I-35814J0D01*
G01X3851157Y-2016760D01*
G01X3851157Y-2046060D01*
G03X3857449Y-2066336I35814J0D01*
G03X3834357Y-2099814I12722J-33478D01*
G01X3834357Y-2349813D01*
G03X3870171Y-2385627I35814J0D01*
G01X3972306Y-2385627D01*
G01X3972306Y-2387600D01*
G03X4008120Y-2423414I35814J0D01*
G01X4487419Y-2423414D01*
G03X4523233Y-2387600I0J35814D01*
G01X4523233Y-2051512D01*
G03X4496076Y-2016760I-35814J0D01*
G01X4599686Y-2016760D01*
G01X4599686Y-3591306D01*
G01X2242415Y-3591306D01*
G01X1854124Y-3203016D01*
G03X1828800Y-3192526I-25324J-25324D01*
G01X914400Y-3192526D01*
G03X889076Y-3203016I0J-35814D01*
G01X500785Y-3591306D01*
G01X-4599686Y-3591306D01*
G01X-4599686Y-2016760D01*
G01X-4467435Y-2016760D01*
G01X-4467435Y-2045552D01*
G03X-4461143Y-2065828I35814J0D01*
G03X-4484235Y-2099306I12722J-33478D01*
G01X-4484235Y-2349306D01*
G03X-4448421Y-2385120I35814J0D01*
G01X-4346286Y-2385120D01*
G01X-4346286Y-2387092D01*
G03X-4310472Y-2422906I35814J0D01*
G01X-3831173Y-2422906D01*
G03X-3795359Y-2387092I0J35814D01*
G01X-3795359Y-2051004D01*
G01X-1815327Y-2619064D02*
G01X-1815327Y-2519064D01*
G03X-2006954Y-2519064I-95814J0D01*
G01X-2006954Y-2619064D01*
G03X-1815327Y-2619064I95814J0D01*
G01X-1590774Y-2711493D02*
G01X-1670774Y-2711493D01*
G03X-1706588Y-2747307I0J-35814D01*
G01X-1706588Y-2837307D01*
G03X-1704688Y-2848817I35814J0D01*
G01X-1704688Y-2939396D01*
G03X-1706127Y-2949445I34375J-10050D01*
G01X-1706127Y-3039445D01*
G03X-1670313Y-3075259I35814J0D01*
G01X-1590313Y-3075259D01*
G03X-1560311Y-3059003I0J35814D01*
G03X-1530308Y-3075259I30002J19557D01*
G01X-1450308Y-3075259D01*
G03X-1414494Y-3039445I0J35814D01*
G01X-1414494Y-2993217D01*
G01X-1413202Y-2993226D01*
G01X-1405976Y-2993226D01*
G01X-1405976Y-3041612D01*
G03X-1370162Y-3077426I35814J0D01*
G01X-1270163Y-3077426D01*
G03X-1234349Y-3041612I0J35814D01*
G01X-1234349Y-2918358D01*
G03X-1234349Y-2894867I-85814J11746D01*
G01X-1234349Y-2771612D01*
G03X-1270163Y-2735798I-35814J0D01*
G01X-1370162Y-2735798D01*
G03X-1405976Y-2771612I0J-35814D01*
G01X-1405976Y-2819998D01*
G01X-1413202Y-2819998D01*
G01X-1414955Y-2820016D01*
G01X-1414955Y-2747307D01*
G03X-1416855Y-2735797I-35814J0D01*
G01X-1416855Y-2694075D01*
G01X-1410435Y-2694075D01*
G03X-1374621Y-2658261I0J35814D01*
G01X-1374621Y-2603260D01*
G03X-1410435Y-2567446I-35814J0D01*
G01X-1432297Y-2567446D01*
G03X-1508574Y-2567446I-38138J-63315D01*
G01X-1530435Y-2567446D01*
G03X-1566249Y-2603260I0J-35814D01*
G01X-1566249Y-2658261D01*
G03X-1564683Y-2668735I35814J0D01*
G01X-1564683Y-2722773D01*
G03X-1590774Y-2711493I-26091J-24534D01*
G01X-372210Y-2899100D02*
G01X-372210Y-3019100D01*
G03X-130583Y-3019100I120814J0D01*
G01X-130583Y-2899100D01*
G03X-372210Y-2899100I-120814J0D01*
G01X141999Y-2814874D02*
G03X107799Y-2899100I86614J-84226D01*
G01X107799Y-3019100D01*
G03X349427Y-3019100I120814J0D01*
G01X349427Y-3005062D01*
G01X441616Y-2912873D01*
G03X469900Y-2896657I-1718J35773D01*
G03X499902Y-2912914I30002J19557D01*
G01X579902Y-2912914D01*
G03X587783Y-2912036I0J35814D01*
G01X587783Y-3019100D01*
G03X829410Y-3019100I120814J0D01*
G01X829410Y-2899100D01*
G03X615716Y-2821839I-120814J0D01*
G01X615716Y-2787100D01*
G03X607466Y-2764234I-35814J0D01*
G01X607466Y-2698902D01*
G03X587677Y-2651127I-67564J0D01*
G01X568475Y-2631925D01*
G03X472338Y-2726881I-47775J-47775D01*
G01X472338Y-2764234D01*
G03X469900Y-2767543I27564J-22866D01*
G03X439898Y-2751286I-30002J-19557D01*
G01X431060Y-2751286D01*
G03X368735Y-2751286I-31162J-80814D01*
G01X359898Y-2751286D01*
G03X324125Y-2785382I0J-35814D01*
G01X315227Y-2794280D01*
G01X315227Y-2735999D01*
G03X289858Y-2674754I-86614J0D01*
G01X282224Y-2667120D01*
G01X282224Y-2581297D01*
G03X246410Y-2545483I-35814J0D01*
G01X140475Y-2545483D01*
G03X105346Y-2545483I-17564J-84814D01*
G01X-589Y-2545483D01*
G03X-36403Y-2581297I0J-35814D01*
G01X-36403Y-2679297D01*
G03X-589Y-2715111I35814J0D01*
G01X85234Y-2715111D01*
G01X141999Y-2771876D01*
G01X141999Y-2814874D01*
G01X853783Y-3008206D02*
G01X853783Y-3088206D01*
G03X1025411Y-3088206I85814J0D01*
G01X1025411Y-3008206D01*
G03X853783Y-3008206I-85814J0D01*
G01X1500511Y-2787823D02*
G01X1500511Y-2874223D01*
G03X1536325Y-2910037I35814J0D01*
G01X1616973Y-2910037D01*
G03X1651986Y-2881757I0J35814D01*
G03X1686998Y-2910037I35013J7534D01*
G01X1691843Y-2910037D01*
G03X1762800Y-2910037I35478J79014D01*
G01X1767646Y-2910037D01*
G03X1803307Y-2877529I0J35814D01*
G01X1864849Y-2815987D01*
G03X1890217Y-2754742I-61245J61245D01*
G01X1890217Y-2630198D01*
G03X1889417Y-2618452I-86614J0D01*
G01X1889417Y-2580198D01*
G03X1717789Y-2580198I-85814J0D01*
G01X1717789Y-2618452D01*
G03X1716989Y-2630198I85814J-11746D01*
G01X1716989Y-2640369D01*
G03X1595975Y-2654256I-56388J-42839D01*
G03X1493923Y-2658253I-49370J-44274D01*
G03X1516827Y-2757782I52682J-40276D01*
G03X1500511Y-2787823I19498J-30041D01*
G01X1493756Y-2274189D02*
G03X1626384Y-2274189I66314J0D01*
G03X1493756Y-2274189I-66314J0D01*
G01X1717789Y-3008206D02*
G01X1717789Y-3088206D01*
G03X1889417Y-3088206I85814J0D01*
G01X1889417Y-3008206D01*
G03X1717789Y-3008206I-85814J0D01*
G04 Copper End*

G04 PolygonModel Start*
G54D11*
G01X-1426841Y-2535765D02*
G01X-1426841Y-2458264D01*
G01X-1505128Y-2458264D01*
G01X-1505128Y-2535765D01*

G04 Pad Start*
G54D12*
G01X399898Y-2832100D03*
G01X539902Y-2832100D03*
G54D13*
G01X-2355371Y1416202D03*
G01X-2355371Y1276198D03*
G01X-3904771Y1416202D03*
G01X-3904771Y1276198D03*
G01X-3130071Y1416202D03*
G01X-3130071Y1276198D03*
G54D12*
G01X-4076069Y1562100D03*
G01X-4216074Y1562100D03*
G01X-3301369Y1562100D03*
G01X-3441374Y1562100D03*
G54D13*
G01X-2814320Y997102D03*
G01X-2814320Y857098D03*
G54D12*
G01X-2526669Y1562100D03*
G01X-2666674Y1562100D03*
G54D13*
G01X2355371Y-1416202D03*
G01X2355371Y-1276198D03*
G01X3904771Y-1416202D03*
G01X3904771Y-1276198D03*
G01X3130071Y-1416202D03*
G01X3130071Y-1276198D03*
G54D12*
G01X4076069Y-1562100D03*
G01X4216074Y-1562100D03*
G01X3301369Y-1562100D03*
G01X3441374Y-1562100D03*
G54D13*
G01X2814320Y-997102D03*
G01X2814320Y-857098D03*
G54D14*
G01X-25400Y-727812D03*
G01X-25400Y-643788D03*
G54D12*
G01X2526669Y-1562100D03*
G01X2666674Y-1562100D03*
G54D13*
G01X2864329Y1416202D03*
G01X2864329Y1276198D03*
G01X-4413821Y-1415695D03*
G01X-4413821Y-1275690D03*
G01X-2864421Y-1415695D03*
G01X-2864421Y-1275690D03*
G01X-3639121Y-1415695D03*
G01X-3639121Y-1275690D03*
G54D12*
G01X-2693123Y-1561592D03*
G01X-2553118Y-1561592D03*
G01X-3467823Y-1561592D03*
G01X-3327818Y-1561592D03*
G54D13*
G01X3954780Y997102D03*
G01X3954780Y857098D03*
G54D12*
G01X2693031Y1562100D03*
G01X2553026Y1562100D03*
G54D13*
G01X3639029Y1416202D03*
G01X3639029Y1276198D03*
G54D12*
G01X3467731Y1562100D03*
G01X3327726Y1562100D03*
G54D13*
G01X4413729Y1416202D03*
G01X4413729Y1276198D03*
G54D12*
G01X4242431Y1562100D03*
G01X4102426Y1562100D03*
G54D13*
G01X-3954872Y-996595D03*
G01X-3954872Y-856590D03*
G54D12*
G01X-4242523Y-1561592D03*
G01X-4102518Y-1561592D03*
G54D15*
G01X4310380Y76200D03*
G01X4310380Y330200D03*
G01X4310380Y584200D03*
G54D16*
G01X4310380Y838200D03*
G54D15*
G01X-114300Y-1536700D03*
G01X-368300Y-1536700D03*
G01X-622300Y-1536700D03*
G54D16*
G01X-876300Y-1536700D03*
G54D15*
G01X-2458720Y76200D03*
G01X-2458720Y330200D03*
G01X-2458720Y584200D03*
G54D16*
G01X-2458720Y838200D03*
G54D15*
G01X2458720Y-76200D03*
G01X2458720Y-330200D03*
G01X2458720Y-584200D03*
G54D16*
G01X2458720Y-838200D03*
G54D15*
G01X-4310472Y-75692D03*
G01X-4310472Y-329692D03*
G01X-4310472Y-583692D03*
G54D16*
G01X-4310472Y-837692D03*
G54D18*
G01X2610329Y2919808D03*
G54D19*
G01X2381729Y2224814D03*
G01X2838929Y2224814D03*
G54D18*
G01X3385029Y2919808D03*
G54D19*
G01X3156429Y2224814D03*
G01X3613629Y2224814D03*
G54D18*
G01X4159729Y2919808D03*
G54D19*
G01X3931129Y2224814D03*
G01X4388329Y2224814D03*
G54D18*
G01X-2609371Y2919808D03*
G54D19*
G01X-2837971Y2224814D03*
G01X-2380771Y2224814D03*
G54D18*
G01X-3384071Y2919808D03*
G54D19*
G01X-3612671Y2224814D03*
G01X-3155471Y2224814D03*
G54D18*
G01X-4158771Y2919808D03*
G54D19*
G01X-4387371Y2224814D03*
G01X-3930171Y2224814D03*
G54D18*
G01X2609371Y-2919808D03*
G54D19*
G01X2837971Y-2224814D03*
G01X2380771Y-2224814D03*
G54D18*
G01X3384071Y-2919808D03*
G54D19*
G01X3612671Y-2224814D03*
G01X3155471Y-2224814D03*
G54D18*
G01X4158771Y-2919808D03*
G54D19*
G01X4387371Y-2224814D03*
G01X3930171Y-2224814D03*
G54D18*
G01X-4159821Y-2919301D03*
G54D19*
G01X-3931221Y-2224306D03*
G01X-4388421Y-2224306D03*
G54D18*
G01X-3385121Y-2919301D03*
G54D19*
G01X-3156521Y-2224306D03*
G01X-3613721Y-2224306D03*
G54D18*
G01X-2610421Y-2919301D03*
G54D19*
G01X-2381821Y-2224306D03*
G01X-2839021Y-2224306D03*
G54D20*
G01X-2685571Y1929536D03*
G01X-2685571Y1778864D03*
G01X-2837971Y1929536D03*
G01X-2837971Y1778864D03*
G01X-2685571Y2221636D03*
G01X-2685571Y2070964D03*
G01X-3460271Y2221636D03*
G01X-3460271Y2070964D03*
G01X-4234971Y2221636D03*
G01X-4234971Y2070964D03*
G01X-3460271Y1929536D03*
G01X-3460271Y1778864D03*
G01X215900Y-1296264D03*
G01X215900Y-1446936D03*
G54D21*
G01X216764Y-1079500D03*
G01X367436Y-1079500D03*
G54D20*
G01X2838929Y2005736D03*
G01X2838929Y1855064D03*
G01X-4234971Y1929536D03*
G01X-4234971Y1778864D03*
G01X-3612671Y1929536D03*
G01X-3612671Y1778864D03*
G01X-4387371Y1929536D03*
G01X-4387371Y1778864D03*
G01X-2380771Y2005736D03*
G01X-2380771Y1855064D03*
G01X2534129Y2221636D03*
G01X2534129Y2070964D03*
G01X2381729Y1929536D03*
G01X2381729Y1778864D03*
G01X2534129Y1929536D03*
G01X2534129Y1778864D03*
G01X3308829Y2221636D03*
G01X3308829Y2070964D03*
G01X3156429Y1929536D03*
G01X3156429Y1778864D03*
G01X3308829Y1929536D03*
G01X3308829Y1778864D03*
G01X4083529Y2221636D03*
G01X4083529Y2070964D03*
G01X3931129Y1929536D03*
G01X3931129Y1778864D03*
G01X4083529Y1929536D03*
G01X4083529Y1778864D03*
G01X-3155471Y2005736D03*
G01X-3155471Y1855064D03*
G01X-3930171Y2005736D03*
G01X-3930171Y1855064D03*
G01X3613629Y2005736D03*
G01X3613629Y1855064D03*
G01X4388329Y2005736D03*
G01X4388329Y1855064D03*
G01X2685571Y-1929536D03*
G01X2685571Y-1778864D03*
G01X2837971Y-1929536D03*
G01X2837971Y-1778864D03*
G01X2685571Y-2221636D03*
G01X2685571Y-2070964D03*
G01X3460271Y-2221636D03*
G01X3460271Y-2070964D03*
G01X4234971Y-2221636D03*
G01X4234971Y-2070964D03*
G01X3460271Y-1929536D03*
G01X3460271Y-1778864D03*
G01X4234971Y-1929536D03*
G01X4234971Y-1778864D03*
G01X3612671Y-1929536D03*
G01X3612671Y-1778864D03*
G01X4387371Y-1929536D03*
G01X4387371Y-1778864D03*
G01X2380771Y-2005736D03*
G01X2380771Y-1855064D03*
G01X3155471Y-2005736D03*
G01X3155471Y-1855064D03*
G01X3930171Y-2005736D03*
G01X3930171Y-1855064D03*
G01X-4083621Y-1929029D03*
G01X-4083621Y-1778356D03*
G01X-3931221Y-1929029D03*
G01X-3931221Y-1778356D03*
G01X-4083621Y-2221129D03*
G01X-4083621Y-2070456D03*
G01X-3308921Y-2221129D03*
G01X-3308921Y-2070456D03*
G01X-2534221Y-2221129D03*
G01X-2534221Y-2070456D03*
G01X-3308921Y-1929029D03*
G01X-3308921Y-1778356D03*
G01X-2534221Y-1929029D03*
G01X-2534221Y-1778356D03*
G01X-3156521Y-1929029D03*
G01X-3156521Y-1778356D03*
G01X-2381821Y-1929029D03*
G01X-2381821Y-1778356D03*
G01X-4388421Y-2005229D03*
G01X-4388421Y-1854556D03*
G01X-3613721Y-2005229D03*
G01X-3613721Y-1854556D03*
G01X-2839021Y-2005229D03*
G01X-2839021Y-1854556D03*
G54D22*
G01X-3835425Y253390D03*
G01X-3835425Y333400D03*
G01X-3835425Y413410D03*
G01X-3835425Y493395D03*
G01X-3835425Y573405D03*
G01X-3835425Y653390D03*
G01X-3835425Y733400D03*
G01X-3835425Y813410D03*
G54D23*
G01X-3691230Y957605D03*
G01X-3611220Y957605D03*
G01X-3531210Y957605D03*
G01X-3451225Y957605D03*
G01X-3371215Y957605D03*
G01X-3291230Y957605D03*
G01X-3211220Y957605D03*
G01X-3131210Y957605D03*
G54D22*
G01X-2987015Y813410D03*
G01X-2987015Y733400D03*
G01X-2987015Y653390D03*
G01X-2987015Y573405D03*
G01X-2987015Y493395D03*
G01X-2987015Y413410D03*
G01X-2987015Y333400D03*
G01X-2987015Y253390D03*
G54D23*
G01X-3131210Y109195D03*
G01X-3211220Y109195D03*
G01X-3291230Y109195D03*
G01X-3371215Y109195D03*
G01X-3451225Y109195D03*
G01X-3531210Y109195D03*
G01X-3611220Y109195D03*
G01X-3691230Y109195D03*
G54D24*
G01X-1230436Y-2630761D03*
G01X-1230436Y-2440769D03*
G01X-1470435Y-2440769D03*
G01X-1470435Y-2535765D03*
G01X-1470435Y-2630761D03*
G01X-1230436Y-2535765D03*
G54D22*
G01X3835425Y-253390D03*
G01X3835425Y-333400D03*
G01X3835425Y-413410D03*
G01X3835425Y-493395D03*
G01X3835425Y-573405D03*
G01X3835425Y-653390D03*
G01X3835425Y-733400D03*
G01X3835425Y-813410D03*
G54D23*
G01X3691230Y-957605D03*
G01X3611220Y-957605D03*
G01X3531210Y-957605D03*
G01X3451225Y-957605D03*
G01X3371215Y-957605D03*
G01X3291230Y-957605D03*
G01X3211220Y-957605D03*
G01X3131210Y-957605D03*
G54D22*
G01X2987015Y-813410D03*
G01X2987015Y-733400D03*
G01X2987015Y-653390D03*
G01X2987015Y-573405D03*
G01X2987015Y-493395D03*
G01X2987015Y-413410D03*
G01X2987015Y-333400D03*
G01X2987015Y-253390D03*
G54D23*
G01X3131210Y-109195D03*
G01X3211220Y-109195D03*
G01X3291230Y-109195D03*
G01X3371215Y-109195D03*
G01X3451225Y-109195D03*
G01X3531210Y-109195D03*
G01X3611220Y-109195D03*
G01X3691230Y-109195D03*
G54D22*
G01X2933675Y253390D03*
G01X2933675Y333400D03*
G01X2933675Y413410D03*
G01X2933675Y493395D03*
G01X2933675Y573405D03*
G01X2933675Y653390D03*
G01X2933675Y733400D03*
G01X2933675Y813410D03*
G54D23*
G01X3077870Y957605D03*
G01X3157880Y957605D03*
G01X3237890Y957605D03*
G01X3317875Y957605D03*
G01X3397885Y957605D03*
G01X3477870Y957605D03*
G01X3557880Y957605D03*
G01X3637890Y957605D03*
G54D22*
G01X3782085Y813410D03*
G01X3782085Y733400D03*
G01X3782085Y653390D03*
G01X3782085Y573405D03*
G01X3782085Y493395D03*
G01X3782085Y413410D03*
G01X3782085Y333400D03*
G01X3782085Y253390D03*
G54D23*
G01X3637890Y109195D03*
G01X3557880Y109195D03*
G01X3477870Y109195D03*
G01X3397885Y109195D03*
G01X3317875Y109195D03*
G01X3237890Y109195D03*
G01X3157880Y109195D03*
G01X3077870Y109195D03*
G54D22*
G01X-2933767Y-252883D03*
G01X-2933767Y-332893D03*
G01X-2933767Y-412903D03*
G01X-2933767Y-492887D03*
G01X-2933767Y-572897D03*
G01X-2933767Y-652882D03*
G01X-2933767Y-732892D03*
G01X-2933767Y-812902D03*
G54D23*
G01X-3077962Y-957098D03*
G01X-3157972Y-957098D03*
G01X-3237982Y-957098D03*
G01X-3317967Y-957098D03*
G01X-3397977Y-957098D03*
G01X-3477962Y-957098D03*
G01X-3557972Y-957098D03*
G01X-3637982Y-957098D03*
G54D22*
G01X-3782177Y-812902D03*
G01X-3782177Y-732892D03*
G01X-3782177Y-652882D03*
G01X-3782177Y-572897D03*
G01X-3782177Y-492887D03*
G01X-3782177Y-412903D03*
G01X-3782177Y-332893D03*
G01X-3782177Y-252883D03*
G54D23*
G01X-3637982Y-108687D03*
G01X-3557972Y-108687D03*
G01X-3477962Y-108687D03*
G01X-3397977Y-108687D03*
G01X-3317967Y-108687D03*
G01X-3237982Y-108687D03*
G01X-3157972Y-108687D03*
G01X-3077962Y-108687D03*
G54D14*
G01X2146300Y-427888D03*
G01X2146300Y-511912D03*
G01X2082800Y-1621688D03*
G01X2082800Y-1705712D03*
G01X-1058335Y-2615876D03*
G01X-1058335Y-2531853D03*
G54D25*
G01X-1296604Y-2209857D03*
G01X-1096605Y-2209857D03*
G54D12*
G01X-1490308Y-2994445D03*
G01X-1630313Y-2994445D03*
G01X-1490769Y-2792307D03*
G01X-1630774Y-2792307D03*
G54D26*
G01X176601Y-1875047D03*
G01X482620Y-1875047D03*
G54D27*
G01X122911Y-2630297D03*
G01X122911Y-2400300D03*
G01X122911Y-2170303D03*
G54D28*
G01X689889Y-2400300D03*
G54D29*
G01X-1090165Y-2906612D03*
G01X-1320162Y-2906612D03*
G54D30*
G01X2057400Y-1048918D03*
G01X2057400Y-1135482D03*
G54D12*
G01X1035202Y-939800D03*
G01X895198Y-939800D03*
G01X-180980Y1288589D03*
G01X-320985Y1288589D03*
G54D14*
G01X-482600Y1268628D03*
G01X-482600Y1352652D03*
G54D31*
G01X168618Y1096493D03*
G01X118605Y1096493D03*
G01X68618Y1096493D03*
G01X18606Y1096493D03*
G01X-31382Y1096493D03*
G01X-81394Y1096493D03*
G01X-131381Y1096493D03*
G01X-181394Y1096493D03*
G01X-231381Y1096493D03*
G01X-281394Y1096493D03*
G01X-331381Y1096493D03*
G01X-381394Y1096493D03*
G01X-431381Y1096493D03*
G01X-481393Y1096493D03*
G01X-531406Y1096493D03*
G01X-581393Y1096493D03*
G01X-631406Y1096493D03*
G01X-681393Y1096493D03*
G01X-731406Y1096493D03*
G01X-781393Y1096493D03*
G01X-831405Y1096493D03*
G01X-881393Y1096493D03*
G01X-931405Y1096493D03*
G01X-981392Y1096493D03*
G54D32*
G01X337604Y838987D03*
G01X-1150404Y838987D03*
G54D33*
G01X1362710Y431800D03*
G01X1202690Y431800D03*
G54D34*
G01X754380Y1196340D03*
G54D30*
G01X-622300Y1267358D03*
G01X-622300Y1353922D03*
G54D35*
G01X1811609Y-747847D03*
G01X1701602Y-747847D03*
G01X1591594Y-747847D03*
G01X1481612Y-747847D03*
G01X1371605Y-747847D03*
G01X1261598Y-747847D03*
G01X1151616Y-747847D03*
G01X1041608Y-747847D03*
G01X931601Y-747847D03*
G01X931601Y214457D03*
G01X1041608Y214457D03*
G01X1151616Y214457D03*
G01X1261598Y214457D03*
G01X1371605Y214457D03*
G01X1481612Y214457D03*
G01X1591594Y214457D03*
G01X1701602Y214457D03*
G01X1811609Y214457D03*
G54D30*
G01X-736600Y1267358D03*
G01X-736600Y1353922D03*
G54D36*
G01X-561130Y-2569064D03*
G01X-1911140Y-2569064D03*
G54D37*
G01X-876141Y-1969065D03*
G01X-1596130Y-1969065D03*
G54D21*
G01X1727322Y-2831023D03*
G01X1576649Y-2831023D03*
G01X1219322Y-2831023D03*
G01X1068649Y-2831023D03*
G54D38*
G01X939597Y-3048206D03*
G01X1803603Y-3048206D03*
G54D39*
G01X1803603Y-2630198D03*
G01X939597Y-2630198D03*
G54D12*
G01X1337355Y-1596464D03*
G01X1477360Y-1596464D03*
G54D13*
G01X1167450Y-1492166D03*
G01X1167450Y-1352161D03*
G54D40*
G01X-664312Y-1041400D03*
G01X-580288Y-1041400D03*
G54D13*
G01X1338747Y-1403244D03*
G01X1338747Y-1293262D03*
G01X1478752Y-1293262D03*
G01X1478752Y-1403244D03*
G01X2057400Y-768502D03*
G01X2057400Y-628498D03*
G54D41*
G01X-251396Y-2959100D03*
G01X228613Y-2959100D03*
G01X708597Y-2959100D03*
G04 Pad End*

G04 Via Start*
G54D42*
G01X-127000Y-2006600D03*
G01X-228600Y-1917700D03*
G01X-317500Y-1828800D03*
G01X-419100Y-1739900D03*
G01X-656323Y-1789863D03*
G01X-1051560Y-1772920D03*
G01X-558800Y-1917700D03*
G01X-584200Y-2057400D03*
G01X-685800Y-2171700D03*
G01X-444500Y-2057400D03*
G01X-2003034Y-2189652D03*
G01X-1917700Y-1638300D03*
G01X-1689100Y-1727200D03*
G01X-1536700Y-1727200D03*
G01X-1308100Y-1828800D03*
G01X-1397000Y-1790700D03*
G01X-1333500Y-2032000D03*
G01X-1308100Y-1943100D03*
G01X-1752600Y-2298700D03*
G01X-1638300Y-2324100D03*
G01X-1689100Y-2235200D03*
G01X-1879600Y-2120900D03*
G01X-1866900Y-1905000D03*
G01X-1905000Y-1993900D03*
G01X-1842322Y-1772571D03*
G01X-1841500Y-2247900D03*
G01X-2044700Y-1955800D03*
G01X-1955800Y-1803400D03*
G01X-1470434Y-2165672D03*
G01X-1470434Y-2238346D03*
G01X-1470434Y-2305711D03*
G01X-1470434Y-2382463D03*
G01X-673100Y-50800D03*
G01X520700Y-2679700D03*
G01X-1515028Y-2889418D03*
G01X-1413202Y-2906612D03*
G01X-838200Y1361440D03*
G01X330200Y-495300D03*
G01X215900Y-2044700D03*
G01X101600Y-1397000D03*
G01X-708660Y-1165860D03*
G01X-2621280Y-50800D03*
G01X190500Y254000D03*
G01X2006600Y-266700D03*
G01X1866900Y-482600D03*
G01X469900Y431800D03*
G01X304800Y496509D03*
G01X711200Y-927100D03*
G01X787400Y-1003300D03*
G01X685800Y0D03*
G01X1778000Y-609600D03*
G01X749300Y-647700D03*
G01X825500Y-546100D03*
G01X584200Y-165100D03*
G01X584200Y-419100D03*
G01X634449Y-358723D03*
G01X576600Y-295393D03*
G01X-368300Y-327660D03*
G01X25400Y-1206500D03*
G01X-101600Y-1244600D03*
G01X35018Y668562D03*
G01X-203200Y713740D03*
G01X48260Y589280D03*
G01X1892300Y-1612900D03*
G01X431800Y-1549400D03*
G01X698500Y-1562100D03*
G01X552298Y-1756512D03*
G01X436677Y-1642212D03*
G01X863600Y-2006600D03*
G01X774700Y-1612900D03*
G01X800100Y-1701800D03*
G01X1028700Y-1993900D03*
G01X-482600Y1202027D03*
G01X-393700Y967740D03*
G01X-406400Y1209040D03*
G01X1879600Y-1435100D03*
G01X-38100Y1221740D03*
G01X101600Y904240D03*
G01X25400Y828040D03*
G01X-63500Y904240D03*
G01X-938612Y913279D03*
G01X-304800Y916940D03*
G01X-228600Y955040D03*
G01X-152400Y904240D03*
G01X1689100Y-139700D03*
G01X1879086Y-101600D03*
G01X459800Y-431800D03*
G01X368300Y-660400D03*
G01X1117600Y-546100D03*
G01X1041400Y-482600D03*
G01X1171765Y-1717200D03*
G01X1210412Y-2080376D03*
G01X1059180Y-1163320D03*
G01X923905Y-1158895D03*
G01X1484300Y25400D03*
G01X1404514Y-87696D03*
G01X1333500Y25400D03*
G01X1257585Y-82224D03*
G01X1040623Y63500D03*
G01X357407Y1033047D03*
G01X-1175378Y1025518D03*
G01X-1231900Y1082040D03*
G01X419100Y1094740D03*
G01X-410447Y1352652D03*
G01X-957696Y1209040D03*
G01X-749300Y967740D03*
G01X-635000Y878840D03*
G01X-609600Y955040D03*
G01X-553705Y1353922D03*
G01X-520700Y967740D03*
G01X-838200Y967740D03*
G01X-659397Y651211D03*
G01X-316494Y645693D03*
G01X1478752Y-1193800D03*
G01X1265189Y-1476801D03*
G01X1308100Y-2006600D03*
G01X1206500Y-1625600D03*
G01X407480Y-2400300D03*
G01X849651Y-819349D03*
G01X-1630313Y-2895387D03*
G01X596900Y-2082800D03*
G01X-1090736Y-2384157D03*
G01X46012Y-1781948D03*
G01X1193800Y-1041400D03*
G01X304800Y-893596D03*
G01X-164837Y-990604D03*
G01X-230906Y-929711D03*
G01X-200543Y-701665D03*
G01X2133600Y76200D03*
G01X1722675Y401203D03*
G01X165100Y-330200D03*
G01X292092Y76200D03*
G01X388404Y-170389D03*
G01X-157776Y-172807D03*
G01X1943100Y393700D03*
G01X1939676Y210535D03*
G01X1618885Y-2082823D03*
G01X1560070Y-2274189D03*
G01X1935203Y-1705509D03*
G01X2076684Y-425684D03*
G01X791154Y-96226D03*
G01X1246605Y-2711968D03*
G01X1397986Y-2424623D03*
G01X1347186Y-2704023D03*
G01X1546605Y-2698529D03*
G01X762000Y-1346200D03*
G01X749300Y-1460500D03*
G01X12700Y-1054100D03*
G01X190500Y-965200D03*
G01X-50800Y-850900D03*
G01X-152400Y-571500D03*
G01X402443Y-571500D03*
G01X444500Y-711200D03*
G01X-245408Y76200D03*
G01X-88100Y202145D03*
G01X62700Y210995D03*
G01X-127000Y279400D03*
G01X-228600Y-76200D03*
G01X3334229Y1460500D03*
G01X3473929Y1460500D03*
G01X3434080Y1765300D03*
G01X3205480Y2032000D03*
G01X3332480Y1231900D03*
G01X3332877Y820405D03*
G01X3495229Y2184400D03*
G01X3421380Y2108200D03*
G01X3497580Y2095500D03*
G01X3408680Y2186517D03*
G01X2720529Y2184400D03*
G01X2975409Y1463289D03*
G01X2722880Y2095500D03*
G01X2633980Y2186517D03*
G01X2646680Y2108200D03*
G01X2430780Y2032000D03*
G01X2659380Y1765300D03*
G01X2557780Y1231900D03*
G01X2699229Y1460500D03*
G01X2559529Y1460500D03*
G01X4269929Y2184400D03*
G01X4524809Y1463289D03*
G01X4272280Y2095500D03*
G01X4183380Y2186517D03*
G01X4196080Y2108200D03*
G01X3980180Y2032000D03*
G01X4208780Y1765300D03*
G01X4030980Y1270000D03*
G01X4248629Y1460500D03*
G01X4108929Y1460500D03*
G01X3116580Y825500D03*
G01X3510280Y812800D03*
G01X4246880Y1219200D03*
G01X2710180Y1219200D03*
G01X3484880Y1231900D03*
G01X2735580Y698500D03*
G01X2786380Y774700D03*
G01X3141980Y736600D03*
G01X3764280Y1028700D03*
G01X3078480Y609600D03*
G01X3078480Y473484D03*
G01X3103880Y304800D03*
G01X3548380Y469900D03*
G01X2672080Y317500D03*
G01X2799080Y114300D03*
G01X2697480Y139700D03*
G01X2975409Y1550871D03*
G01X3751580Y1549400D03*
G01X3751580Y1460500D03*
G01X4524809Y1550871D03*
G01X4551680Y2971800D03*
G01X3776980Y2971800D03*
G01X4551680Y2790572D03*
G01X3776980Y2790572D03*
G01X3002280Y2789890D03*
G01X3002280Y2971800D03*
G01X-3766820Y2971800D03*
G01X-4033520Y698500D03*
G01X-3766820Y2789890D03*
G01X-4048571Y2184400D03*
G01X-4046220Y2095500D03*
G01X-4135120Y2186517D03*
G01X-4122420Y2108200D03*
G01X-4338320Y2032000D03*
G01X-4109720Y1765300D03*
G01X-4211320Y1231900D03*
G01X-4069871Y1460500D03*
G01X-4209571Y1460500D03*
G01X-4058920Y1219200D03*
G01X-3982720Y774700D03*
G01X-3690620Y609600D03*
G01X-3793691Y1550871D03*
G01X-3793691Y1463289D03*
G01X-3434871Y1460500D03*
G01X-3295171Y1460500D03*
G01X-3335020Y1765300D03*
G01X-3347720Y2108200D03*
G01X-3360420Y2186517D03*
G01X-3436223Y820405D03*
G01X-3436620Y1231900D03*
G01X-3563620Y2032000D03*
G01X-3627120Y736600D03*
G01X-3652520Y825500D03*
G01X-2244291Y1463289D03*
G01X-3220720Y469900D03*
G01X-3004820Y1028700D03*
G01X-3017520Y1549400D03*
G01X-3017520Y1460500D03*
G01X-3690620Y473484D03*
G01X-2499171Y2184400D03*
G01X-2496820Y2095500D03*
G01X-2585720Y2186517D03*
G01X-2573020Y2108200D03*
G01X-2788920Y2032000D03*
G01X-2560320Y1765300D03*
G01X-2520471Y1460500D03*
G01X-2660171Y1460500D03*
G01X-2738120Y1270000D03*
G01X-2522220Y1219200D03*
G01X-2244291Y1550871D03*
G01X-3258820Y812800D03*
G01X-3271520Y2095500D03*
G01X-3284220Y1841500D03*
G01X-3273871Y2184400D03*
G01X-3284220Y1231900D03*
G01X-3665220Y304800D03*
G01X-4097020Y317500D03*
G01X-3970020Y114300D03*
G01X-4071620Y139700D03*
G01X-2217420Y2971800D03*
G01X-2992120Y2971800D03*
G01X-2217420Y2790572D03*
G01X-2992120Y2790572D03*
G01X-3002372Y-2971292D03*
G01X-2735672Y-697992D03*
G01X-3002372Y-2789382D03*
G01X-2720621Y-2183892D03*
G01X-2722972Y-2094992D03*
G01X-2634072Y-2186009D03*
G01X-2646772Y-2107692D03*
G01X-2710272Y-1840992D03*
G01X-2430872Y-2031492D03*
G01X-2557872Y-1231392D03*
G01X-2699321Y-1459992D03*
G01X-2559621Y-1459992D03*
G01X-2710272Y-1218692D03*
G01X-2786472Y-774192D03*
G01X-3078572Y-609092D03*
G01X-2975501Y-1550363D03*
G01X-2975501Y-1462781D03*
G01X-3334321Y-1459992D03*
G01X-3474021Y-1459992D03*
G01X-3421472Y-2107692D03*
G01X-3408772Y-2186009D03*
G01X-3332969Y-819898D03*
G01X-3332572Y-1231392D03*
G01X-3205572Y-2031492D03*
G01X-3142072Y-736092D03*
G01X-3116672Y-824992D03*
G01X-4524901Y-1462781D03*
G01X-3548472Y-469392D03*
G01X-3764372Y-1028192D03*
G01X-3751672Y-1548892D03*
G01X-3751672Y-1459992D03*
G01X-3078572Y-472976D03*
G01X-4270021Y-2183892D03*
G01X-4259672Y-1840992D03*
G01X-4272372Y-2094992D03*
G01X-4183472Y-2186009D03*
G01X-4196172Y-2107692D03*
G01X-3980272Y-2031492D03*
G01X-4248721Y-1459992D03*
G01X-4109021Y-1459992D03*
G01X-4031072Y-1269492D03*
G01X-4246972Y-1218692D03*
G01X-4524901Y-1550363D03*
G01X-3510372Y-812292D03*
G01X-3497672Y-2094992D03*
G01X-3484972Y-1840992D03*
G01X-3495321Y-2183892D03*
G01X-3484972Y-1231392D03*
G01X-3103972Y-304292D03*
G01X-2672172Y-316992D03*
G01X-2799172Y-113792D03*
G01X-2697572Y-139192D03*
G01X-4551772Y-2971292D03*
G01X-3777072Y-2971292D03*
G01X-4551772Y-2790065D03*
G01X-3777072Y-2790065D03*
G01X3766820Y-2971800D03*
G01X4340860Y-772160D03*
G01X3766820Y-2789890D03*
G01X4048571Y-2184400D03*
G01X4046220Y-2095500D03*
G01X4135120Y-2186517D03*
G01X4122420Y-2108200D03*
G01X4058920Y-1841500D03*
G01X4338320Y-2032000D03*
G01X4064000Y-1718800D03*
G01X4211320Y-1231900D03*
G01X4069871Y-1460500D03*
G01X4209571Y-1460500D03*
G01X4058920Y-1219200D03*
G01X3690620Y-609600D03*
G01X3793691Y-1550871D03*
G01X3793691Y-1463289D03*
G01X3434871Y-1460500D03*
G01X3295171Y-1460500D03*
G01X3281680Y-1732260D03*
G01X3347720Y-2108200D03*
G01X3360420Y-2186517D03*
G01X3362563Y-825485D03*
G01X3436620Y-1231900D03*
G01X3563620Y-2032000D03*
G01X3218180Y-716280D03*
G01X3480200Y-812800D03*
G01X2244291Y-1463289D03*
G01X3220720Y-469900D03*
G01X3004820Y-1028700D03*
G01X3017520Y-1549400D03*
G01X3017520Y-1460500D03*
G01X3690620Y-473484D03*
G01X2499171Y-2184400D03*
G01X2509520Y-1841500D03*
G01X2496820Y-2095500D03*
G01X2585720Y-2186517D03*
G01X2573020Y-2108200D03*
G01X2788920Y-2032000D03*
G01X2527300Y-1724660D03*
G01X2520471Y-1460500D03*
G01X2660171Y-1460500D03*
G01X2738120Y-1270000D03*
G01X2522220Y-1219200D03*
G01X2244291Y-1550871D03*
G01X3258820Y-812800D03*
G01X3271520Y-2095500D03*
G01X3284220Y-1841500D03*
G01X3273871Y-2184400D03*
G01X3284220Y-1231900D03*
G01X3665220Y-304800D03*
G01X4097020Y-317500D03*
G01X3970020Y-114300D03*
G01X4071620Y-139700D03*
G01X2217420Y-2971800D03*
G01X2992120Y-2971800D03*
G01X2217420Y-2790572D03*
G01X2992120Y-2790572D03*
G01X2006600Y-1765300D03*
G01X1938000Y-1165785D03*
G01X2203298Y-635000D03*
G01X2209066Y-558179D03*
G01X-596900Y-1143000D03*
G01X-3374895Y266697D03*
G01X-3394296Y-266190D03*
G01X3374895Y-266697D03*
G01X3394205Y266697D03*
G01X-2550160Y-670560D03*
G01X2352040Y124460D03*
G01X2080260Y-1920240D03*
G01X1940438Y-1038758D03*
G01X-3388360Y-551180D03*
G01X467360Y-3370580D03*
G01X274320Y-3467100D03*
G01X111760Y-3314700D03*
G01X-50800Y-3467100D03*
G01X-237211Y-3294101D03*
G01X-426720Y-3469640D03*
G01X-673100Y-3243580D03*
G01X-800100Y-3495040D03*
G01X-1016000Y-3274060D03*
G01X-1112520Y-3484880D03*
G01X-1333500Y-3263900D03*
G01X2992120Y-3117512D03*
G01X2992120Y-3237201D03*
G01X2992120Y-3380359D03*
G01X2992120Y-3514130D03*
G01X2217420Y-3082309D03*
G01X2217420Y-3255976D03*
G01X2217420Y-3408522D03*
G01X1920240Y-2357120D03*
G01X2042160Y-2186940D03*
G01X2004060Y-2461260D03*
G01X2087880Y-2329180D03*
G01X1996440Y-2631440D03*
G01X2001520Y-2832100D03*
G01X2011680Y-2989580D03*
G01X1371600Y-2913673D03*
G01X1236980Y-3053080D03*
G01X1569720Y-3111500D03*
G01X-3002372Y-3169033D03*
G01X-3002372Y-3376729D03*
G01X-2056425Y-3136900D03*
G01X-2084782Y-3430533D03*
G01X-1874520Y-3357880D03*
G01X-2131060Y-2712720D03*
G01X-1690230Y-3455935D03*
G01X-2141220Y-2966720D03*
G01X-1882140Y-3134360D03*
G01X3563620Y-665480D03*
G01X3766820Y-3178542D03*
G01X3766820Y-3351035D03*
G01X3766820Y-3516489D03*
G01X3776980Y3133097D03*
G01X3776980Y3316152D03*
G01X3776980Y3488645D03*
G01X3002280Y3140138D03*
G01X3002280Y3323192D03*
G01X3002280Y3499206D03*
G01X4551680Y3182381D03*
G01X4551680Y3340794D03*
G01X4551680Y3509767D03*
G01X-3269206Y1928054D03*
G01X-3352800Y1887220D03*
G01X-2961640Y1704340D03*
G01X-2964180Y1859280D03*
G01X-2958032Y1989000D03*
G01X-3034600Y1940372D03*
G01X-3042920Y1849964D03*
G01X-4127500Y1887220D03*
G01X-4058920Y1841500D03*
G01X-4043906Y1928054D03*
G01X-3817620Y1849964D03*
G01X-3809300Y1940372D03*
G01X-3738880Y1859280D03*
G01X-3732732Y1989000D03*
G01X-3736340Y1704340D03*
G01X-2578100Y1887220D03*
G01X-2509520Y1841500D03*
G01X-2494506Y1928054D03*
G01X-2268220Y1849964D03*
G01X-2259900Y1940372D03*
G01X-2189480Y1859280D03*
G01X-2183332Y1989000D03*
G01X-2186940Y1704340D03*
G01X3032760Y1704340D03*
G01X3030220Y1859280D03*
G01X3036368Y1989000D03*
G01X2959800Y1940372D03*
G01X2951480Y1849964D03*
G01X2710180Y1841500D03*
G01X2725194Y1928054D03*
G01X2641600Y1887220D03*
G01X3804920Y1859280D03*
G01X3726180Y1849964D03*
G01X3734500Y1940372D03*
G01X3807460Y1704340D03*
G01X3811068Y1989000D03*
G01X3484880Y1841500D03*
G01X3499894Y1928054D03*
G01X3416300Y1887220D03*
G01X4544060Y1762760D03*
G01X4523740Y1847424D03*
G01X4516820Y1935292D03*
G01X4565448Y1999160D03*
G01X4274594Y1928054D03*
G01X4259580Y1841500D03*
G01X4191000Y1887220D03*
G01X2489200Y-1912667D03*
G01X2584701Y-1887267D03*
G01X2575560Y-1795780D03*
G01X3360420Y-1793240D03*
G01X3266440Y-1920240D03*
G01X3350260Y-1902460D03*
G01X3314700Y-1981200D03*
G01X4132580Y-1790700D03*
G01X4140200Y-1879600D03*
G01X4038600Y-1912620D03*
G01X4112260Y-1943100D03*
G01X4048760Y-1983740D03*
G01X2560320Y-1953260D03*
G01X2491740Y-1986280D03*
G01X-4193632Y-1795272D03*
G01X-4279992Y-1912159D03*
G01X-4184491Y-1886759D03*
G01X-4208872Y-1952752D03*
G01X-4277452Y-1985772D03*
G01X-3408772Y-1792732D03*
G01X-3418932Y-1901952D03*
G01X-3502752Y-1919732D03*
G01X-3454492Y-1980692D03*
G01X-2636612Y-1790192D03*
G01X-2628992Y-1879092D03*
G01X-2656932Y-1942592D03*
G01X-2720432Y-1983232D03*
G01X-2730592Y-1912112D03*
G01X-2705192Y-1718292D03*
G01X-3487512Y-1731752D03*
G01X-4241892Y-1724152D03*
G01X-1122680Y-1866900D03*
G01X-855980Y-2260600D03*
G01X-698500Y-2326640D03*
G01X-533400Y-2181860D03*
G01X-960120Y-2331720D03*
G01X-1120140Y-2044700D03*
G01X-1374140Y-1645920D03*
G01X-1628140Y-1539240D03*
G01X-2098040Y-1656080D03*
G01X-1884680Y-1483360D03*
G01X-2131060Y-2186940D03*
G01X-345440Y-2260600D03*
G01X-500380Y-2367280D03*
G01X-355600Y-2423160D03*
G01X-233680Y-2334260D03*
G01X1722140Y2783820D03*
G01X1892320Y2783820D03*
G01X2062500Y2783820D03*
G01X1722140Y2613640D03*
G01X1892320Y2613640D03*
G01X2062500Y2613640D03*
G01X1722140Y2443460D03*
G01X1892320Y2443460D03*
G01X2062500Y2443460D03*
G01X1722140Y2273280D03*
G01X1892320Y2273280D03*
G01X2062500Y2273280D03*
G01X1722140Y2103100D03*
G01X1892320Y2103100D03*
G01X2062500Y2103100D03*
G01X1722140Y1932920D03*
G01X1892320Y1932920D03*
G01X2062500Y1932920D03*
G01X1722140Y1762740D03*
G01X1892320Y1762740D03*
G01X2062500Y1762740D03*
G01X1722140Y1592560D03*
G01X1892320Y1592560D03*
G01X2062500Y1592560D03*
G01X1892320Y2954000D03*
G01X2062500Y2954000D03*
G01X2062500Y3124180D03*
G04 Via End*

G04 Track Start*
G54D43*
G01X-1470434Y-2382463D02*
G01X-1470434Y-2305711D01*
G01X-1470434Y-2238346D01*
G01X-1470434Y-2165672D02*
G01X-1470434Y-2094760D01*
G01X-1470434Y-2238346D02*
G01X-1470434Y-2165672D01*
G01X-1470434Y-2440768D02*
G01X-1470434Y-2382463D01*
G54D44*
G01X-744118Y1361440D02*
G01X-838200Y1361440D01*
G54D11*
G01X539902Y-2698902D02*
G01X520700Y-2679700D01*
G01X539902Y-2832100D02*
G01X539902Y-2698902D01*
G54D45*
G01X-1490308Y-2994445D02*
G01X-1490308Y-2818168D01*
G54D43*
G01X83502Y-1781948D02*
G01X46012Y-1781948D01*
G01X176601Y-1875047D02*
G01X83502Y-1781948D01*
G54D46*
G01X228613Y-2735999D02*
G01X122911Y-2630297D01*
G01X228613Y-2959100D02*
G01X228613Y-2735999D01*
G01X272898Y-2959100D02*
G01X228613Y-2959100D01*
G01X399898Y-2832100D02*
G01X272898Y-2959100D01*
G01X-1320162Y-2906612D02*
G01X-1413202Y-2906612D01*
G54D11*
G01X1130300Y431800D02*
G01X1202690Y431800D01*
G01X1041608Y343108D02*
G01X1130300Y431800D01*
G01X1041608Y214457D02*
G01X1041608Y343108D01*
G54D44*
G01X-49140Y202145D02*
G01X-88100Y202145D01*
G01X88900Y64105D02*
G01X-49140Y202145D01*
G01X306010Y-553700D02*
G01X-159200Y-88490D01*
G01X-159200Y247200D01*
G01X368300Y-660400D02*
G01X233706Y-660400D01*
G01X371472Y-799596D02*
G01X272210Y-799596D01*
G01X856000Y-1284124D02*
G01X371472Y-799596D01*
G01X856000Y-1486736D02*
G01X856000Y-1284124D01*
G01X833100Y-1509636D02*
G01X856000Y-1486736D01*
G01X833100Y-1637090D02*
G01X833100Y-1509636D01*
G01X800100Y-1670090D02*
G01X833100Y-1637090D01*
G01X800100Y-1701800D02*
G01X800100Y-1670090D01*
G01X-159200Y247200D02*
G01X-127000Y279400D01*
G01X384644Y-553700D02*
G01X306010Y-553700D01*
G01X402443Y-571500D02*
G01X384644Y-553700D01*
G01X200700Y40146D02*
G01X352834Y-111988D01*
G01X412594Y-111988D01*
G01X518200Y-217594D01*
G01X518200Y-823000D01*
G01X795000Y-1099800D01*
G01X1467343Y-1099800D01*
G01X1551652Y-1184110D01*
G01X88900Y0D02*
G01X88900Y64105D01*
G01X444500Y-711200D02*
G01X444500Y-660400D01*
G01X482600Y-622300D01*
G01X482600Y-558800D01*
G01X292100Y-368300D01*
G01X292100Y-203200D01*
G01X88900Y0D01*
G01X-81394Y1178446D02*
G01X-38100Y1221740D01*
G01X-81394Y1096493D02*
G01X-81394Y1178446D01*
G01X381000Y420309D02*
G01X304800Y496509D01*
G01X381000Y419554D02*
G01X381000Y420309D01*
G01X469900Y431800D02*
G01X1117600Y-215900D01*
G01X-736600Y1353922D02*
G01X-744118Y1361440D01*
G54D45*
G01X-1490769Y-2651095D02*
G01X-1490769Y-2792307D01*
G01X-1470435Y-2630761D02*
G01X-1490769Y-2651095D01*
G54D47*
G01X-1090736Y-2215726D02*
G01X-1096605Y-2209857D01*
G01X-1090736Y-2384157D02*
G01X-1090736Y-2215726D01*
G01X-1147347Y-2440769D02*
G01X-1090736Y-2384157D01*
G01X-1230436Y-2440769D02*
G01X-1147347Y-2440769D01*
G54D43*
G01X-876141Y-1989394D02*
G01X-876141Y-1969065D01*
G01X-1096605Y-2209857D02*
G01X-876141Y-1989394D01*
G01X-1470434Y-2094760D02*
G01X-1355337Y-2209857D01*
G01X-1296604Y-2209857D01*
G54D44*
G01X1456386Y-2400433D02*
G01X1456386Y-2594823D01*
G01X1347186Y-2704023D01*
G01X1004510Y-2052300D02*
G01X1025663Y-2052300D01*
G01X1397986Y-2424623D01*
G54D11*
G01X304800Y-952500D02*
G01X304800Y-893596D01*
G01X367436Y-1015136D02*
G01X304800Y-952500D01*
G01X367436Y-1079500D02*
G01X367436Y-1015136D01*
G01X151536Y-1446936D02*
G01X101600Y-1397000D01*
G01X215900Y-1446936D02*
G01X151536Y-1446936D01*
G54D44*
G01X1118054Y-317500D02*
G01X381000Y419554D01*
G01X1701800Y-317500D02*
G01X1118054Y-317500D01*
G01X1866900Y-482600D02*
G01X1701800Y-317500D01*
G01X889000Y-431800D02*
G01X622300Y-165100D01*
G01X889000Y-584200D02*
G01X889000Y-431800D01*
G01X850900Y-622300D02*
G01X889000Y-584200D01*
G01X774700Y-622300D02*
G01X850900Y-622300D01*
G01X749300Y-647700D02*
G01X774700Y-622300D01*
G01X622300Y-165100D02*
G01X584200Y-165100D01*
G01X825500Y-467184D02*
G01X658639Y-300323D01*
G01X825500Y-546100D02*
G01X825500Y-467184D01*
G01X746800Y-471074D02*
G01X634449Y-358723D01*
G01X746800Y-567610D02*
G01X746800Y-471074D01*
G01X690900Y-623510D02*
G01X746800Y-567610D01*
G01X622300Y-419100D02*
G01X584200Y-419100D01*
G01X711200Y-508000D02*
G01X622300Y-419100D01*
G01X711200Y-552864D02*
G01X711200Y-508000D01*
G01X655300Y-608764D02*
G01X711200Y-552864D01*
G01X655300Y-686636D02*
G01X655300Y-608764D01*
G01X711200Y-742536D02*
G01X655300Y-686636D01*
G01X711200Y-927100D02*
G01X711200Y-742536D01*
G01X690900Y-671890D02*
G01X690900Y-623510D01*
G01X787400Y-768390D02*
G01X690900Y-671890D01*
G01X787400Y-1003300D02*
G01X787400Y-768390D01*
G01X581531Y-300323D02*
G01X576600Y-295393D01*
G01X658639Y-300323D02*
G01X581531Y-300323D01*
G54D11*
G01X849651Y-894253D02*
G01X849651Y-819349D01*
G01X895198Y-939800D02*
G01X849651Y-894253D01*
G54D44*
G01X1811609Y-643209D02*
G01X1778000Y-609600D01*
G01X1811609Y-747847D02*
G01X1811609Y-643209D01*
G01X1422176Y-2366223D02*
G01X1456386Y-2400433D01*
G01X1389931Y-2366223D02*
G01X1422176Y-2366223D01*
G01X1087100Y-2063392D02*
G01X1389931Y-2366223D01*
G01X1087100Y-1969710D02*
G01X1087100Y-2063392D01*
G01X923905Y-1971695D02*
G01X1004510Y-2052300D01*
G01X923905Y-1646977D02*
G01X923905Y-1971695D01*
G01X927200Y-1643682D02*
G01X923905Y-1646977D01*
G01X927200Y-1254632D02*
G01X927200Y-1643682D01*
G01X923905Y-1251337D02*
G01X927200Y-1254632D01*
G01X923905Y-1158895D02*
G01X923905Y-1251337D01*
G01X459800Y-324375D02*
G01X327700Y-192275D01*
G01X459800Y-431800D02*
G01X459800Y-324375D01*
G01X-194203Y-1049004D02*
G01X-289306Y-953901D01*
G01X-132096Y-1049004D02*
G01X-194203Y-1049004D01*
G01X-289306Y-953901D02*
G01X-289306Y-891794D01*
G01X25400Y-1206500D02*
G01X-132096Y-1049004D01*
G01X-368300Y713740D02*
G01X-203200Y713740D01*
G01X-609600Y955040D02*
G01X-368300Y713740D01*
G01X356726Y-835196D02*
G01X257464Y-835196D01*
G01X820400Y-1298869D02*
G01X356726Y-835196D01*
G01X820400Y-1471990D02*
G01X820400Y-1298869D01*
G01X774700Y-1612900D02*
G01X774700Y-1517690D01*
G01X820400Y-1471990D01*
G01X419100Y-1460500D02*
G01X12700Y-1054100D01*
G01X749300Y-1460500D02*
G01X419100Y-1460500D01*
G01X1536700Y-546100D02*
G01X1117600Y-546100D01*
G01X1591594Y-600994D02*
G01X1536700Y-546100D01*
G01X1591594Y-747847D02*
G01X1591594Y-600994D01*
G01X1600200Y-482600D02*
G01X1041400Y-482600D01*
G01X1701602Y-584002D02*
G01X1600200Y-482600D01*
G01X1701602Y-747847D02*
G01X1701602Y-584002D01*
G01X-938612Y968928D02*
G01X-938612Y913279D01*
G01X-482600Y1202027D02*
G01X-482600Y1097699D01*
G01X-482600Y1268628D02*
G01X-482600Y1202027D01*
G01X-431381Y1005421D02*
G01X-393700Y967740D01*
G01X-431381Y1096493D02*
G01X-431381Y1005421D01*
G01X-381394Y1184034D02*
G01X-406400Y1209040D01*
G01X-381394Y1096493D02*
G01X-381394Y1184034D01*
G01X-131381Y925259D02*
G01X-152400Y904240D01*
G01X-131381Y1096493D02*
G01X-131381Y925259D01*
G01X-31382Y936358D02*
G01X-63500Y904240D01*
G01X-31382Y1096493D02*
G01X-31382Y936358D01*
G01X18606Y834835D02*
G01X25400Y828040D01*
G01X18606Y1096493D02*
G01X18606Y834835D01*
G01X68618Y937222D02*
G01X101600Y904240D01*
G01X68618Y1096493D02*
G01X68618Y937222D01*
G01X-881393Y1026147D02*
G01X-938612Y968928D01*
G01X-881393Y1096493D02*
G01X-881393Y1026147D01*
G01X-331381Y943521D02*
G01X-304800Y916940D01*
G01X-331381Y1096493D02*
G01X-331381Y943521D01*
G01X-231381Y957821D02*
G01X-228600Y955040D01*
G01X-231381Y1096493D02*
G01X-231381Y957821D01*
G01X1840986Y-139700D02*
G01X1689100Y-139700D01*
G01X1879086Y-101600D02*
G01X1840986Y-139700D01*
G01X327700Y-192275D02*
G01X327700Y-137200D01*
G01X1117600Y-1625600D02*
G01X1206500Y-1625600D01*
G01X1054100Y-1562100D02*
G01X1117600Y-1625600D01*
G01X-281394Y1248998D02*
G01X-281394Y1096493D01*
G01X-320985Y1288589D02*
G01X-281394Y1248998D01*
G54D46*
G01X337604Y1013244D02*
G01X419100Y1094740D01*
G01X337604Y838987D02*
G01X337604Y1013244D01*
G01X-1175378Y1025518D02*
G01X-1231900Y1082040D01*
G01X-1150404Y1000544D02*
G01X-1175378Y1025518D01*
G01X-1150404Y838987D02*
G01X-1150404Y1000544D01*
G54D44*
G01X-346385Y1288589D02*
G01X-410447Y1352652D01*
G01X-320985Y1288589D02*
G01X-346385Y1288589D01*
G01X-410447Y1352652D02*
G01X-482600Y1352652D01*
G01X-181394Y1288175D02*
G01X-180980Y1288589D01*
G01X-181394Y1096493D02*
G01X-181394Y1288175D01*
G01X-931405Y1182749D02*
G01X-957696Y1209040D01*
G01X-931405Y1096493D02*
G01X-931405Y1182749D01*
G01X-781393Y999833D02*
G01X-749300Y967740D01*
G01X-781393Y1096493D02*
G01X-781393Y999833D01*
G01X-681393Y925233D02*
G01X-635000Y878840D01*
G01X-681393Y1096493D02*
G01X-681393Y925233D01*
G01X-581393Y983247D02*
G01X-609600Y955040D01*
G01X-581393Y1096493D02*
G01X-581393Y983247D01*
G01X-553705Y1353922D02*
G01X-483870Y1353922D01*
G01X-482600Y1352652D01*
G01X-731406Y1262164D02*
G01X-731406Y1096493D01*
G01X-736600Y1267358D02*
G01X-731406Y1262164D01*
G01X-631406Y1258253D02*
G01X-631406Y1096493D01*
G01X-622300Y1267358D02*
G01X-631406Y1258253D01*
G01X-482600Y1097699D02*
G01X-481393Y1096493D01*
G01X-531406Y978446D02*
G01X-520700Y967740D01*
G01X-531406Y1096493D02*
G01X-531406Y978446D01*
G01X-831405Y974535D02*
G01X-838200Y967740D01*
G01X-831405Y1096493D02*
G01X-831405Y974535D01*
G01X1478752Y-1293262D02*
G01X1478752Y-1193800D01*
G01X1054100Y-1422400D02*
G01X1054100Y-1562100D01*
G01X1124339Y-1352161D02*
G01X1054100Y-1422400D01*
G01X1167450Y-1352161D02*
G01X1124339Y-1352161D01*
G01X1226350Y-1293262D02*
G01X1338747Y-1293262D01*
G01X1167450Y-1352161D02*
G01X1226350Y-1293262D01*
G01X1337355Y-1404636D02*
G01X1249825Y-1492166D01*
G01X1167450Y-1492166D01*
G01X1337355Y-1596464D02*
G01X1337355Y-1404636D01*
G01X1477360Y-1404636D02*
G01X1478752Y-1403244D01*
G01X1477360Y-1596464D02*
G01X1477360Y-1404636D01*
G01X1477360Y-1837340D02*
G01X1477360Y-1596464D01*
G01X1308100Y-2006600D02*
G01X1477360Y-1837340D01*
G54D11*
G01X1149614Y-1041400D02*
G01X1041608Y-933394D01*
G01X1193800Y-1041400D02*
G01X1149614Y-1041400D01*
G01X1193800Y-905998D02*
G01X1261598Y-838200D01*
G01X1193800Y-1041400D02*
G01X1193800Y-905998D01*
G54D44*
G01X457200Y-1346200D02*
G01X190500Y-1079500D01*
G01X762000Y-1346200D02*
G01X457200Y-1346200D01*
G54D48*
G01X596900Y-2307311D02*
G01X596900Y-2082800D01*
G01X596900Y-1989327D01*
G01X407480Y-2400300D02*
G01X689889Y-2400300D01*
G01X122911Y-2400300D02*
G01X407480Y-2400300D01*
G54D46*
G01X1803603Y-2754742D02*
G01X1803603Y-2630198D01*
G01X1727322Y-2831023D02*
G01X1803603Y-2754742D01*
G01X939597Y-2701971D02*
G01X939597Y-2630198D01*
G01X1068649Y-2831023D02*
G01X939597Y-2701971D01*
G54D48*
G01X596900Y-1989327D02*
G01X482620Y-1875047D01*
G54D11*
G01X-1470435Y-2535765D02*
G01X-1470435Y-2440769D01*
G54D48*
G01X689889Y-2400300D02*
G01X596900Y-2307311D01*
G01X176601Y-1875047D02*
G01X176601Y-2073370D01*
G01X122321Y-2127650D01*
G54D45*
G01X-1630774Y-2817707D02*
G01X-1630774Y-2993984D01*
G54D11*
G01X1041608Y-933394D02*
G01X1041608Y-747847D01*
G01X1261598Y-838200D02*
G01X1261598Y-747847D01*
G01X1151616Y214457D02*
G01X1151616Y122916D01*
G01X1092200Y63500D01*
G01X977900Y63500D02*
G01X931601Y109799D01*
G01X931601Y214457D01*
G54D44*
G01X1246605Y-2803740D02*
G01X1219322Y-2831023D01*
G01X1246605Y-2711968D02*
G01X1246605Y-2803740D01*
G01X1576649Y-2728574D02*
G01X1576649Y-2831023D01*
G01X1546605Y-2698529D02*
G01X1576649Y-2728574D01*
G54D45*
G01X-1000576Y-2531853D02*
G01X-1058335Y-2531853D01*
G01X-951300Y-2581129D02*
G01X-1000576Y-2531853D01*
G01X-951300Y-2767747D02*
G01X-951300Y-2581129D01*
G01X-1090165Y-2906612D02*
G01X-951300Y-2767747D01*
G54D47*
G01X-1062247Y-2535765D02*
G01X-1058335Y-2531853D01*
G01X-1073220Y-2630761D02*
G01X-1230436Y-2630761D01*
G01X-1058335Y-2615876D02*
G01X-1073220Y-2630761D01*
G01X-1230436Y-2535765D02*
G01X-1062247Y-2535765D01*
G54D45*
G01X-1490308Y-2818168D02*
G01X-1490769Y-2817707D01*
G54D11*
G01X1371605Y422905D02*
G01X1362710Y431800D01*
G01X1371605Y214457D02*
G01X1371605Y422905D01*
G54D44*
G01X190500Y-1079500D02*
G01X190500Y-965200D01*
G01X-25400Y-825500D02*
G01X-50800Y-850900D01*
G01X-25400Y-727812D02*
G01X-25400Y-825500D01*
G01X-97688Y-571500D02*
G01X-152400Y-571500D01*
G01X-25400Y-643788D02*
G01X-97688Y-571500D01*
G54D47*
G01X3334229Y1460500D02*
G01X3327726Y1467002D01*
G01X3308829Y2221636D02*
G01X3305652Y2224814D01*
G01X3156429Y1929536D02*
G01X3308829Y1929536D01*
G01X3305652Y2224814D02*
G01X3156429Y2224814D01*
G01X3613629Y2224814D02*
G01X3613629Y2005736D01*
G01X3434080Y1765300D02*
G01X3523865Y1765300D01*
G01X3613629Y1855064D01*
G01X3244996Y2070964D02*
G01X3233246Y2059214D01*
G01X3232694Y2059214D01*
G01X3205480Y2032000D01*
G01X3397885Y1166495D02*
G01X3332480Y1231900D01*
G01X3317875Y957605D02*
G01X3317875Y835407D01*
G01X3332877Y820405D01*
G01X3308829Y2070964D02*
G01X3244996Y2070964D01*
G01X3308829Y2070964D02*
G01X3308829Y1929536D01*
G01X3327726Y1467002D02*
G01X3327726Y1562100D01*
G01X3473929Y1460500D02*
G01X3473929Y1555902D01*
G01X3467731Y1562100D01*
G01X3308829Y1778864D02*
G01X3371465Y1841500D01*
G01X3484880Y1841500D01*
G01X2838929Y2224814D02*
G01X2838929Y2005736D01*
G01X2530952Y2224814D02*
G01X2381729Y2224814D01*
G01X2534129Y2221636D02*
G01X2530952Y2224814D01*
G01X2458546Y2059214D02*
G01X2457994Y2059214D01*
G01X2470296Y2070964D02*
G01X2458546Y2059214D01*
G01X2659380Y1765300D02*
G01X2749165Y1765300D01*
G01X2838929Y1855064D01*
G01X2534129Y2070964D02*
G01X2470296Y2070964D01*
G01X2534129Y2070964D02*
G01X2534129Y1929536D01*
G01X2381729Y1929536D02*
G01X2534129Y1929536D01*
G01X2559529Y1460500D02*
G01X2553026Y1467002D01*
G01X2553026Y1562100D01*
G01X2699229Y1460500D02*
G01X2699229Y1555902D01*
G01X2693031Y1562100D01*
G01X2534129Y1778864D02*
G01X2596765Y1841500D01*
G01X2710180Y1841500D01*
G01X2457994Y2059214D02*
G01X2430780Y2032000D01*
G01X4388329Y2224814D02*
G01X4388329Y2005736D01*
G01X4080352Y2224814D02*
G01X3931129Y2224814D01*
G01X4083529Y2221636D02*
G01X4080352Y2224814D01*
G01X4007946Y2059214D02*
G01X4007394Y2059214D01*
G01X4019696Y2070964D02*
G01X4007946Y2059214D01*
G01X4208780Y1765300D02*
G01X4298565Y1765300D01*
G01X4388329Y1855064D01*
G01X4083529Y2070964D02*
G01X4019696Y2070964D01*
G01X4083529Y2070964D02*
G01X4083529Y1929536D01*
G01X3931129Y1929536D02*
G01X4083529Y1929536D01*
G01X4108929Y1460500D02*
G01X4102426Y1467002D01*
G01X4102426Y1562100D01*
G01X4248629Y1460500D02*
G01X4248629Y1555902D01*
G01X4242431Y1562100D01*
G01X4083529Y1778864D02*
G01X4146165Y1841500D01*
G01X4259580Y1841500D01*
G01X4007394Y2059214D02*
G01X3980180Y2032000D01*
G01X3123381Y1143000D02*
G01X2646680Y1143000D01*
G01X2557780Y1231900D01*
G01X3237890Y957605D02*
G01X3237890Y1028491D01*
G01X3123381Y1143000D01*
G01X4030980Y1270000D02*
G01X3865880Y1104900D01*
G01X3611880Y1104900D01*
G01X3557880Y1050900D01*
G01X3557880Y957605D01*
G01X3477870Y957605D02*
G01X3477870Y845210D01*
G01X3510280Y812800D01*
G01X4413729Y1276198D02*
G01X4356731Y1219200D01*
G01X4246880Y1219200D01*
G01X3397885Y957605D02*
G01X3397885Y1166495D01*
G01X2710180Y1219200D02*
G01X2807331Y1219200D01*
G01X2864329Y1276198D01*
G01X3484880Y1231900D02*
G01X3594731Y1231900D01*
G01X3639029Y1276198D01*
G01X3156429Y1778864D02*
G01X2903670Y1778864D01*
G01X2819006Y1694200D01*
G01X2466393Y1694200D01*
G01X2381729Y1778864D01*
G01X3241093Y1694200D02*
G01X3156429Y1778864D01*
G01X3593706Y1694200D02*
G01X3241093Y1694200D01*
G01X3678370Y1778864D02*
G01X3593706Y1694200D01*
G01X3931129Y1778864D02*
G01X3678370Y1778864D01*
G01X2381729Y1778864D02*
G01X2381729Y1230151D01*
G01X2557780Y1054100D01*
G01X3027070Y1054100D01*
G01X3077870Y1003300D01*
G01X3077870Y957605D01*
G01X3141980Y736600D02*
G01X3136880Y741700D01*
G01X3087129Y741700D01*
G01X3015420Y813410D01*
G01X2933675Y813410D01*
G01X2786380Y774700D02*
G01X2827680Y733400D01*
G01X2933675Y733400D01*
G01X2735580Y698500D02*
G01X2780690Y653390D01*
G01X2933675Y653390D01*
G01X3637890Y957605D02*
G01X3693185Y957605D01*
G01X3116580Y825500D02*
G01X3157880Y866800D01*
G01X3157880Y957605D01*
G01X4310380Y584200D02*
G01X4241190Y653390D01*
G01X3782085Y653390D01*
G01X3782085Y573405D02*
G01X4067175Y573405D01*
G01X4310380Y330200D01*
G01X3078480Y609600D02*
G01X3042285Y573405D01*
G01X2933675Y573405D01*
G01X2933675Y493395D02*
G01X3058569Y493395D01*
G01X3078480Y473484D01*
G01X3103880Y304800D02*
G01X3157880Y250800D01*
G01X3157880Y109195D01*
G01X3954780Y857098D02*
G01X3911092Y813410D01*
G01X3782085Y813410D01*
G01X3693185Y957605D02*
G01X3764280Y1028700D01*
G01X3954780Y997102D02*
G01X3795878Y997102D01*
G01X3764280Y1028700D01*
G01X3711200Y813410D02*
G01X3657286Y759495D01*
G01X3782085Y813410D02*
G01X3711200Y813410D01*
G01X3657286Y759495D02*
G01X3657286Y578806D01*
G01X3548380Y469900D01*
G01X2697480Y139700D02*
G01X2811170Y253390D01*
G01X2933675Y253390D01*
G54D45*
G01X2975409Y1463289D02*
G01X2928323Y1416202D01*
G01X2864329Y1416202D01*
G01X3751580Y1460500D02*
G01X3707282Y1416202D01*
G01X3639029Y1416202D01*
G01X4413729Y1416202D02*
G01X4477723Y1416202D01*
G01X4524809Y1463289D01*
G54D47*
G01X-2701925Y573405D02*
G01X-2458720Y330200D01*
G01X-2458720Y584200D02*
G01X-2527910Y653390D01*
G01X-2380771Y2224814D02*
G01X-2380771Y2005736D01*
G01X-2622935Y1841500D02*
G01X-2509520Y1841500D01*
G01X-2355371Y1276198D02*
G01X-2412369Y1219200D01*
G01X-2522220Y1219200D01*
G01X-2560320Y1765300D02*
G01X-2470535Y1765300D01*
G01X-2380771Y1855064D01*
G01X-2660171Y1460500D02*
G01X-2666674Y1467002D01*
G01X-2666674Y1562100D01*
G01X-2520471Y1460500D02*
G01X-2520471Y1555902D01*
G01X-2526669Y1562100D01*
G01X-2738120Y1270000D02*
G01X-2903220Y1104900D01*
G01X-3131210Y957605D02*
G01X-3075915Y957605D01*
G01X-2527910Y653390D02*
G01X-2987015Y653390D01*
G01X-2987015Y573405D02*
G01X-2701925Y573405D01*
G01X-2814320Y857098D02*
G01X-2858008Y813410D01*
G01X-2987015Y813410D01*
G01X-3075915Y957605D02*
G01X-3004820Y1028700D01*
G01X-2814320Y997102D02*
G01X-2973222Y997102D01*
G01X-3004820Y1028700D01*
G01X-3057900Y813410D02*
G01X-3111814Y759495D01*
G01X-2987015Y813410D02*
G01X-3057900Y813410D01*
G01X-3463448Y2224814D02*
G01X-3612671Y2224814D01*
G01X-2688748Y2224814D02*
G01X-2837971Y2224814D01*
G01X-2685571Y2221636D02*
G01X-2688748Y2224814D01*
G01X-2761154Y2059214D02*
G01X-2761706Y2059214D01*
G01X-2749404Y2070964D02*
G01X-2761154Y2059214D01*
G01X-2685571Y2070964D02*
G01X-2749404Y2070964D01*
G01X-2685571Y2070964D02*
G01X-2685571Y1929536D01*
G01X-2837971Y1929536D02*
G01X-2685571Y1929536D01*
G01X-2685571Y1778864D02*
G01X-2622935Y1841500D01*
G01X-2761706Y2059214D02*
G01X-2788920Y2032000D01*
G01X-3536406Y2059214D02*
G01X-3563620Y2032000D01*
G01X-3397635Y1841500D02*
G01X-3284220Y1841500D01*
G01X-3460271Y1778864D02*
G01X-3397635Y1841500D01*
G01X-3612671Y1929536D02*
G01X-3460271Y1929536D01*
G01X-3460271Y2070964D02*
G01X-3460271Y1929536D01*
G01X-3460271Y2070964D02*
G01X-3524104Y2070964D01*
G01X-3245235Y1765300D02*
G01X-3155471Y1855064D01*
G01X-3335020Y1765300D02*
G01X-3245235Y1765300D01*
G01X-3524104Y2070964D02*
G01X-3535854Y2059214D01*
G01X-3536406Y2059214D01*
G01X-3460271Y2221636D02*
G01X-3463448Y2224814D01*
G01X-3155471Y2224814D02*
G01X-3155471Y2005736D01*
G01X-3174369Y1231900D02*
G01X-3130071Y1276198D01*
G01X-3175394Y1694200D02*
G01X-3528007Y1694200D01*
G01X-3090730Y1778864D02*
G01X-3175394Y1694200D01*
G01X-2837971Y1778864D02*
G01X-3090730Y1778864D01*
G54D45*
G01X-3017520Y1460500D02*
G01X-3061818Y1416202D01*
G01X-3130071Y1416202D01*
G54D47*
G01X-2903220Y1104900D02*
G01X-3157220Y1104900D01*
G01X-3211220Y1050900D02*
G01X-3211220Y957605D01*
G01X-3291230Y957605D02*
G01X-3291230Y845210D01*
G01X-3258820Y812800D01*
G01X-3157220Y1104900D02*
G01X-3211220Y1050900D01*
G01X-3371215Y957605D02*
G01X-3371215Y1166495D01*
G01X-3295171Y1555902D02*
G01X-3301369Y1562100D01*
G01X-3295171Y1460500D02*
G01X-3295171Y1555902D01*
G01X-3441374Y1467002D02*
G01X-3441374Y1562100D01*
G01X-3434871Y1460500D02*
G01X-3441374Y1467002D01*
G01X-3371215Y1166495D02*
G01X-3436620Y1231900D01*
G01X-3284220Y1231900D02*
G01X-3174369Y1231900D01*
G01X-3111814Y759495D02*
G01X-3111814Y578806D01*
G01X-3220720Y469900D01*
G54D45*
G01X-2355371Y1416202D02*
G01X-2291377Y1416202D01*
G01X-2244291Y1463289D01*
G54D47*
G01X-4238148Y2224814D02*
G01X-4387371Y2224814D01*
G01X-3930171Y2224814D02*
G01X-3930171Y2005736D01*
G01X-4234971Y2221636D02*
G01X-4238148Y2224814D01*
G01X-3612671Y1778864D02*
G01X-3865430Y1778864D01*
G01X-3528007Y1694200D02*
G01X-3612671Y1778864D01*
G01X-4310554Y2059214D02*
G01X-4311106Y2059214D01*
G01X-4298804Y2070964D02*
G01X-4310554Y2059214D01*
G01X-4109720Y1765300D02*
G01X-4019935Y1765300D01*
G01X-3930171Y1855064D01*
G01X-4234971Y2070964D02*
G01X-4298804Y2070964D01*
G01X-4234971Y2070964D02*
G01X-4234971Y1929536D01*
G01X-4387371Y1929536D02*
G01X-4234971Y1929536D01*
G01X-4209571Y1460500D02*
G01X-4216074Y1467002D01*
G01X-4216074Y1562100D01*
G01X-4069871Y1460500D02*
G01X-4069871Y1555902D01*
G01X-4076069Y1562100D01*
G01X-4234971Y1778864D02*
G01X-4172335Y1841500D01*
G01X-4058920Y1841500D01*
G01X-4311106Y2059214D02*
G01X-4338320Y2032000D01*
G01X-4058920Y1219200D02*
G01X-3961769Y1219200D01*
G01X-3904771Y1276198D01*
G01X-3865430Y1778864D02*
G01X-3950094Y1694200D01*
G01X-4302707Y1694200D01*
G01X-4387371Y1778864D01*
G01X-4387371Y1230151D01*
G01X-4211320Y1054100D01*
G54D45*
G01X-3793691Y1463289D02*
G01X-3840777Y1416202D01*
G01X-3904771Y1416202D01*
G54D47*
G01X-3611220Y250800D02*
G01X-3611220Y109195D01*
G01X-3835425Y493395D02*
G01X-3710531Y493395D01*
G01X-3690620Y473484D01*
G01X-3665220Y304800D02*
G01X-3611220Y250800D01*
G01X-4071620Y139700D02*
G01X-3957930Y253390D01*
G01X-3835425Y253390D01*
G01X-3451225Y957605D02*
G01X-3451225Y835407D01*
G01X-3436223Y820405D01*
G01X-3531210Y957605D02*
G01X-3531210Y1028491D01*
G01X-3627120Y736600D02*
G01X-3632220Y741700D01*
G01X-3681971Y741700D01*
G01X-3753680Y813410D01*
G01X-3835425Y813410D01*
G01X-3941420Y733400D02*
G01X-3835425Y733400D01*
G01X-3988410Y653390D02*
G01X-3835425Y653390D01*
G01X-3652520Y825500D02*
G01X-3611220Y866800D01*
G01X-3611220Y957605D01*
G01X-3690620Y609600D02*
G01X-3726815Y573405D01*
G01X-3835425Y573405D01*
G01X-3645719Y1143000D02*
G01X-4122420Y1143000D01*
G01X-4211320Y1231900D01*
G01X-3531210Y1028491D02*
G01X-3645719Y1143000D01*
G01X-4211320Y1054100D02*
G01X-3742030Y1054100D01*
G01X-3691230Y1003300D01*
G01X-3691230Y957605D01*
G01X-3982720Y774700D02*
G01X-3941420Y733400D01*
G01X-4033520Y698500D02*
G01X-3988410Y653390D01*
G01X-4067267Y-572897D02*
G01X-4310472Y-329692D01*
G01X-4310472Y-583692D02*
G01X-4241282Y-652882D01*
G01X-4388421Y-2224306D02*
G01X-4388421Y-2005229D01*
G01X-4146257Y-1840992D02*
G01X-4259672Y-1840992D01*
G01X-4413821Y-1275690D02*
G01X-4356823Y-1218692D01*
G01X-4246972Y-1218692D01*
G01X-4109021Y-1459992D02*
G01X-4102518Y-1466495D01*
G01X-4102518Y-1561592D01*
G01X-4248721Y-1459992D02*
G01X-4248721Y-1555395D01*
G01X-4242523Y-1561592D01*
G01X-4031072Y-1269492D02*
G01X-3865972Y-1104392D01*
G01X-3637982Y-957098D02*
G01X-3693277Y-957098D01*
G01X-4241282Y-652882D02*
G01X-3782177Y-652882D01*
G01X-3782177Y-572897D02*
G01X-4067267Y-572897D01*
G01X-3954872Y-856590D02*
G01X-3911184Y-812902D01*
G01X-3782177Y-812902D01*
G01X-3693277Y-957098D02*
G01X-3764372Y-1028192D01*
G01X-3954872Y-996595D02*
G01X-3795970Y-996595D01*
G01X-3764372Y-1028192D01*
G01X-3711292Y-812902D02*
G01X-3657377Y-758988D01*
G01X-3782177Y-812902D02*
G01X-3711292Y-812902D01*
G01X-3305743Y-2224306D02*
G01X-3156521Y-2224306D01*
G01X-4080443Y-2224306D02*
G01X-3931221Y-2224306D01*
G01X-4083621Y-2221129D02*
G01X-4080443Y-2224306D01*
G01X-4008038Y-2058706D02*
G01X-4007486Y-2058706D01*
G01X-4019787Y-2070456D02*
G01X-4008038Y-2058706D01*
G01X-4083621Y-2070456D02*
G01X-4019787Y-2070456D01*
G01X-4083621Y-2070456D02*
G01X-4083621Y-1929029D01*
G01X-3931221Y-1929029D02*
G01X-4083621Y-1929029D01*
G01X-4083621Y-1778356D02*
G01X-4146257Y-1840992D01*
G01X-4007486Y-2058706D02*
G01X-3980272Y-2031492D01*
G01X-3232786Y-2058706D02*
G01X-3205572Y-2031492D01*
G01X-3371557Y-1840992D02*
G01X-3484972Y-1840992D01*
G01X-3308921Y-1778356D02*
G01X-3371557Y-1840992D01*
G01X-3156521Y-1929029D02*
G01X-3308921Y-1929029D01*
G01X-3308921Y-2070456D02*
G01X-3308921Y-1929029D01*
G01X-3308921Y-2070456D02*
G01X-3245087Y-2070456D01*
G01X-3233338Y-2058706D01*
G01X-3232786Y-2058706D01*
G01X-3308921Y-2221129D02*
G01X-3305743Y-2224306D01*
G01X-3613721Y-2224306D02*
G01X-3613721Y-2005229D01*
G01X-3594823Y-1231392D02*
G01X-3639121Y-1275690D01*
G54D45*
G01X-3751672Y-1459992D02*
G01X-3707374Y-1415695D01*
G01X-3639121Y-1415695D01*
G54D47*
G01X-3865972Y-1104392D02*
G01X-3611972Y-1104392D01*
G01X-3557972Y-1050392D02*
G01X-3557972Y-957098D01*
G01X-3477962Y-957098D02*
G01X-3477962Y-844703D01*
G01X-3510372Y-812292D01*
G01X-3611972Y-1104392D02*
G01X-3557972Y-1050392D01*
G01X-3397977Y-957098D02*
G01X-3397977Y-1165987D01*
G01X-3474021Y-1555395D02*
G01X-3467823Y-1561592D01*
G01X-3474021Y-1459992D02*
G01X-3474021Y-1555395D01*
G01X-3327818Y-1466495D02*
G01X-3327818Y-1561592D01*
G01X-3334321Y-1459992D02*
G01X-3327818Y-1466495D01*
G01X-3397977Y-1165987D02*
G01X-3332572Y-1231392D01*
G01X-3484972Y-1231392D02*
G01X-3594823Y-1231392D01*
G01X-3657377Y-758988D02*
G01X-3657377Y-578298D01*
G01X-3548472Y-469392D01*
G54D45*
G01X-4413821Y-1415695D02*
G01X-4477815Y-1415695D01*
G01X-4524901Y-1462781D01*
G54D47*
G01X-2531043Y-2224306D02*
G01X-2381821Y-2224306D01*
G01X-2839021Y-2224306D02*
G01X-2839021Y-2005229D01*
G01X-2534221Y-2221129D02*
G01X-2531043Y-2224306D01*
G01X-2458638Y-2058706D02*
G01X-2458086Y-2058706D01*
G01X-2470387Y-2070456D02*
G01X-2458638Y-2058706D01*
G01X-2534221Y-2070456D02*
G01X-2470387Y-2070456D01*
G01X-2534221Y-2070456D02*
G01X-2534221Y-1929029D01*
G01X-2381821Y-1929029D02*
G01X-2534221Y-1929029D01*
G01X-2559621Y-1459992D02*
G01X-2553118Y-1466495D01*
G01X-2553118Y-1561592D01*
G01X-2699321Y-1459992D02*
G01X-2699321Y-1555395D01*
G01X-2693123Y-1561592D01*
G01X-2534221Y-1778356D02*
G01X-2596857Y-1840992D01*
G01X-2710272Y-1840992D01*
G01X-2458086Y-2058706D02*
G01X-2430872Y-2031492D01*
G01X-2710272Y-1218692D02*
G01X-2807423Y-1218692D01*
G01X-2864421Y-1275690D01*
G01X-2381821Y-1778356D02*
G01X-2381821Y-1229643D01*
G01X-2557872Y-1053592D01*
G54D45*
G01X-2975501Y-1462781D02*
G01X-2928415Y-1415695D01*
G01X-2864421Y-1415695D01*
G54D47*
G01X-3157972Y-250292D02*
G01X-3157972Y-108687D01*
G01X-2933767Y-492887D02*
G01X-3058661Y-492887D01*
G01X-3078572Y-472976D01*
G01X-3103972Y-304292D02*
G01X-3157972Y-250292D01*
G01X-2697572Y-139192D02*
G01X-2811262Y-252883D01*
G01X-2933767Y-252883D01*
G01X-3317967Y-957098D02*
G01X-3317967Y-834899D01*
G01X-3332969Y-819898D01*
G01X-3237982Y-957098D02*
G01X-3237982Y-1027983D01*
G01X-3142072Y-736092D02*
G01X-3136972Y-741192D01*
G01X-3087221Y-741192D01*
G01X-3015512Y-812902D01*
G01X-2933767Y-812902D01*
G01X-2827772Y-732892D02*
G01X-2933767Y-732892D01*
G01X-2780782Y-652882D02*
G01X-2933767Y-652882D01*
G01X-3116672Y-824992D02*
G01X-3157972Y-866293D01*
G01X-3157972Y-957098D01*
G01X-3078572Y-609092D02*
G01X-3042377Y-572897D01*
G01X-2933767Y-572897D01*
G01X-3123473Y-1142492D02*
G01X-2646772Y-1142492D01*
G01X-2557872Y-1231392D01*
G01X-3237982Y-1027983D02*
G01X-3123473Y-1142492D01*
G01X-2557872Y-1053592D02*
G01X-3027162Y-1053592D01*
G01X-3077962Y-1002792D01*
G01X-3077962Y-957098D01*
G01X-2786472Y-774192D02*
G01X-2827772Y-732892D01*
G01X-2735672Y-697992D02*
G01X-2780782Y-652882D01*
G01X2701925Y-573405D02*
G01X2458720Y-330200D01*
G01X2458720Y-584200D02*
G01X2527910Y-653390D01*
G01X2380771Y-2224814D02*
G01X2380771Y-2005736D01*
G01X2622935Y-1841500D02*
G01X2509520Y-1841500D01*
G01X2355371Y-1276198D02*
G01X2412369Y-1219200D01*
G01X2522220Y-1219200D01*
G01X2660171Y-1460500D02*
G01X2666674Y-1467002D01*
G01X2666674Y-1562100D01*
G01X2520471Y-1460500D02*
G01X2520471Y-1555902D01*
G01X2526669Y-1562100D01*
G01X2738120Y-1270000D02*
G01X2903220Y-1104900D01*
G01X3131210Y-957605D02*
G01X3075915Y-957605D01*
G01X2527910Y-653390D02*
G01X2987015Y-653390D01*
G01X2987015Y-573405D02*
G01X2701925Y-573405D01*
G01X2814320Y-857098D02*
G01X2858008Y-813410D01*
G01X2987015Y-813410D01*
G01X3075915Y-957605D02*
G01X3004820Y-1028700D01*
G01X2814320Y-997102D02*
G01X2973222Y-997102D01*
G01X3004820Y-1028700D01*
G01X3057900Y-813410D02*
G01X3111814Y-759495D01*
G01X2987015Y-813410D02*
G01X3057900Y-813410D01*
G01X3463448Y-2224814D02*
G01X3612671Y-2224814D01*
G01X2688748Y-2224814D02*
G01X2837971Y-2224814D01*
G01X2685571Y-2221636D02*
G01X2688748Y-2224814D01*
G01X2761154Y-2059214D02*
G01X2761706Y-2059214D01*
G01X2749404Y-2070964D02*
G01X2761154Y-2059214D01*
G01X2685571Y-2070964D02*
G01X2749404Y-2070964D01*
G01X2685571Y-2070964D02*
G01X2685571Y-1929536D01*
G01X2837971Y-1929536D02*
G01X2685571Y-1929536D01*
G01X2685571Y-1778864D02*
G01X2622935Y-1841500D01*
G01X2761706Y-2059214D02*
G01X2788920Y-2032000D01*
G01X3536406Y-2059214D02*
G01X3563620Y-2032000D01*
G01X3397635Y-1841500D02*
G01X3284220Y-1841500D01*
G01X3460271Y-1778864D02*
G01X3397635Y-1841500D01*
G01X3612671Y-1929536D02*
G01X3460271Y-1929536D01*
G01X3460271Y-2070964D02*
G01X3460271Y-1929536D01*
G01X3460271Y-2070964D02*
G01X3524104Y-2070964D01*
G01X3535854Y-2059214D01*
G01X3536406Y-2059214D01*
G01X3460271Y-2221636D02*
G01X3463448Y-2224814D01*
G01X3155471Y-2224814D02*
G01X3155471Y-2005736D01*
G01X3174369Y-1231900D02*
G01X3130071Y-1276198D01*
G01X2837971Y-1778864D02*
G01X3090730Y-1778864D01*
G54D45*
G01X3017520Y-1460500D02*
G01X3061818Y-1416202D01*
G01X3130071Y-1416202D01*
G54D47*
G01X2903220Y-1104900D02*
G01X3157220Y-1104900D01*
G01X3211220Y-1050900D02*
G01X3211220Y-957605D01*
G01X3291230Y-957605D02*
G01X3291230Y-845210D01*
G01X3258820Y-812800D01*
G01X3157220Y-1104900D02*
G01X3211220Y-1050900D01*
G01X3371215Y-957605D02*
G01X3371215Y-1166495D01*
G01X3295171Y-1555902D02*
G01X3301369Y-1562100D01*
G01X3295171Y-1460500D02*
G01X3295171Y-1555902D01*
G01X3441374Y-1467002D02*
G01X3441374Y-1562100D01*
G01X3434871Y-1460500D02*
G01X3441374Y-1467002D01*
G01X3371215Y-1166495D02*
G01X3436620Y-1231900D01*
G01X3284220Y-1231900D02*
G01X3174369Y-1231900D01*
G01X3111814Y-759495D02*
G01X3111814Y-578806D01*
G01X3220720Y-469900D01*
G54D45*
G01X2355371Y-1416202D02*
G01X2291377Y-1416202D01*
G01X2244291Y-1463289D01*
G54D47*
G01X4238148Y-2224814D02*
G01X4387371Y-2224814D01*
G01X3930171Y-2224814D02*
G01X3930171Y-2005736D01*
G01X4234971Y-2221636D02*
G01X4238148Y-2224814D01*
G01X3612671Y-1778864D02*
G01X3865430Y-1778864D01*
G01X4310554Y-2059214D02*
G01X4311106Y-2059214D01*
G01X4298804Y-2070964D02*
G01X4310554Y-2059214D01*
G01X4234971Y-2070964D02*
G01X4298804Y-2070964D01*
G01X4234971Y-2070964D02*
G01X4234971Y-1929536D01*
G01X4387371Y-1929536D02*
G01X4234971Y-1929536D01*
G01X4209571Y-1460500D02*
G01X4216074Y-1467002D01*
G01X4216074Y-1562100D01*
G01X4069871Y-1460500D02*
G01X4069871Y-1555902D01*
G01X4076069Y-1562100D01*
G01X4234971Y-1778864D02*
G01X4172335Y-1841500D01*
G01X4058920Y-1841500D01*
G01X4311106Y-2059214D02*
G01X4338320Y-2032000D01*
G01X4058920Y-1219200D02*
G01X3961769Y-1219200D01*
G01X3904771Y-1276198D01*
G01X4387371Y-1778864D02*
G01X4387371Y-1230151D01*
G01X4211320Y-1054100D01*
G54D45*
G01X3793691Y-1463289D02*
G01X3840777Y-1416202D01*
G01X3904771Y-1416202D01*
G54D47*
G01X3611220Y-250800D02*
G01X3611220Y-109195D01*
G01X3835425Y-493395D02*
G01X3710531Y-493395D01*
G01X3690620Y-473484D01*
G01X3665220Y-304800D02*
G01X3611220Y-250800D01*
G01X4071620Y-139700D02*
G01X3957930Y-253390D01*
G01X3835425Y-253390D01*
G01X3531210Y-957605D02*
G01X3531210Y-1028491D01*
G01X3690620Y-609600D02*
G01X3726815Y-573405D01*
G01X3835425Y-573405D01*
G01X3645719Y-1143000D02*
G01X4122420Y-1143000D01*
G01X4211320Y-1231900D01*
G01X3531210Y-1028491D02*
G01X3645719Y-1143000D01*
G01X4211320Y-1054100D02*
G01X3742030Y-1054100D01*
G01X3691230Y-1003300D01*
G01X3691230Y-957605D01*
G54D44*
G01X2006600Y-1765300D02*
G01X2023212Y-1765300D01*
G01X2082800Y-1705712D01*
G01X2082800Y-1621688D02*
G01X2019024Y-1621688D01*
G01X1935203Y-1705509D01*
G01X1551652Y-1184110D02*
G01X1551652Y-1272252D01*
G01X1892300Y-1612900D01*
G01X1681500Y-424200D02*
G01X1017210Y-424200D01*
G01X1879600Y-622300D02*
G01X1681500Y-424200D01*
G01X1879600Y-1435100D02*
G01X1879600Y-622300D01*
G01X1938000Y-1165785D02*
G01X2027097Y-1165785D01*
G01X2057400Y-1135482D01*
G01X1117600Y-215900D02*
G01X1955800Y-215900D01*
G01X2006600Y-266700D01*
G01X2209066Y-558179D02*
G01X2162800Y-511912D01*
G01X2146300Y-511912D01*
G01X2146300Y-427888D02*
G01X2078888Y-427888D01*
G01X2076684Y-425684D01*
G01X2202248Y-564998D02*
G01X2209066Y-558179D01*
G01X2057400Y-628498D02*
G01X2120900Y-564998D01*
G01X2202248Y-564998D01*
G01X2203298Y-635000D02*
G01X2203298Y-666902D01*
G01X2101698Y-768502D01*
G01X2057400Y-768502D01*
G54D47*
G01X-596900Y-1143000D02*
G01X-580288Y-1126388D01*
G01X-580288Y-1041400D01*
G54D44*
G01X-622300Y1353922D02*
G01X-553705Y1353922D01*
G01X327700Y-137200D02*
G01X139700Y50800D01*
G01X139700Y133995D01*
G01X62700Y210995D01*
G01X200700Y139299D02*
G01X200700Y40146D01*
G01X129540Y210459D02*
G01X200700Y139299D01*
G01X233706Y-660400D02*
G01X-299720Y-126974D01*
G01X-299720Y21888D01*
G01X-245408Y76200D01*
G01X272210Y-799596D02*
G01X-373380Y-154006D01*
G01X257464Y-835196D02*
G01X-411480Y-166252D01*
G01X886460Y-1983740D02*
G01X886460Y-1700116D01*
G01X863600Y-2006600D02*
G01X886460Y-1983740D01*
G01X886460Y-1700116D02*
G01X888305Y-1698271D01*
G01X888305Y-1632231D01*
G01X891600Y-1628936D01*
G01X891600Y-1269378D01*
G01X386218Y-763996D01*
G01X286956Y-763996D01*
G01X-335320Y-141720D02*
G01X-335320Y36634D01*
G01X-312460Y59494D01*
G01X286956Y-763996D02*
G01X-335320Y-141720D01*
G01X48260Y589280D02*
G01X129540Y508000D01*
G01X129540Y210459D01*
G01X-312460Y59494D02*
G01X-312460Y134580D01*
G01X-220980Y226060D01*
G01X-220980Y412563D01*
G01X35018Y668562D01*
G01X-264160Y236220D02*
G01X-264160Y464820D01*
G01X-373380Y127000D02*
G01X-264160Y236220D01*
G01X-373380Y-154006D02*
G01X-373380Y127000D01*
G01X-101600Y-1244600D02*
G01X-469900Y-876300D01*
G01X1017210Y-424200D02*
G01X365760Y227250D01*
G01X365760Y325120D01*
G01X200660Y490220D01*
G01X133811Y1288589D02*
G01X-180980Y1288589D01*
G01X231140Y1191260D02*
G01X133811Y1288589D01*
G01X200660Y490220D02*
G01X200660Y985520D01*
G01X231140Y1016000D01*
G01X231140Y1191260D01*
G01X-411480Y-166252D02*
G01X-411480Y396240D01*
G01X-132080Y675640D01*
G01X-264160Y464820D02*
G01X-68580Y660400D01*
G01X-68580Y767080D01*
G01X-289306Y-891794D02*
G01X-368300Y-812800D01*
G01X-368300Y-327660D01*
G54D47*
G01X-3077962Y-108687D02*
G01X-2804277Y-108687D01*
G01X-2799172Y-113792D01*
G01X-3531210Y109195D02*
G01X-3531210Y210210D01*
G01X-3474723Y266697D01*
G01X-3374895Y266697D01*
G01X-3237982Y-108687D02*
G01X-3237982Y-210302D01*
G01X-3293870Y-266190D01*
G01X-3394296Y-266190D01*
G01X3531210Y-109195D02*
G01X3531210Y-207670D01*
G01X3472183Y-266697D01*
G01X3374895Y-266697D01*
G01X3237890Y109195D02*
G01X3237890Y215290D01*
G01X3289297Y266697D01*
G01X3394205Y266697D01*
G54D44*
G01X431800Y-1549400D02*
G01X116840Y-1549400D01*
G01X-43180Y-1389380D01*
G01X-220980Y-1389380D01*
G01X-368300Y-1536700D01*
G01X134620Y-1635760D02*
G01X-15240Y-1635760D01*
G01X-114300Y-1536700D01*
G01X228600Y-1729740D02*
G01X134620Y-1635760D01*
G01X698500Y-1562100D02*
G01X635000Y-1562100D01*
G01X467360Y-1729740D01*
G01X228600Y-1729740D01*
G54D47*
G01X-708660Y-1165860D02*
G01X-668000Y-1125200D01*
G01X-668000Y-1113549D01*
G01X-664312Y-1109861D01*
G01X-664312Y-1041400D01*
G54D44*
G01X2057400Y-1048918D02*
G01X2047240Y-1038758D01*
G01X1940438Y-1038758D01*
G01X2458720Y-76200D02*
G01X2296160Y-238760D01*
G01X2296160Y-876019D01*
G01X2183291Y-988888D01*
G01X2183291Y-1817209D01*
G01X2080260Y-1920240D01*
G01X1059180Y-1941790D02*
G01X1087100Y-1969710D01*
G01X1018500Y-1576846D02*
G01X1059180Y-1617526D01*
G01X1059180Y-1941790D01*
G01X1059180Y-1163320D02*
G01X1018500Y-1204000D01*
G01X1018500Y-1576846D01*
G01X-3388360Y-551180D02*
G01X-3388360Y-272126D01*
G01X-3394296Y-266190D01*
G01X-3439699Y-220787D01*
G01X-3658817Y-220787D01*
G01X-3803911Y-75692D01*
G01X-4310472Y-75692D01*
G01X3394205Y266697D02*
G01X3635843Y266697D01*
G01X3826341Y76200D01*
G01X4310380Y76200D01*
G54D47*
G01X4340860Y-772160D02*
G01X4222090Y-653390D01*
G01X3835425Y-653390D01*
G01X3218180Y-716280D02*
G01X3243600Y-741700D01*
G01X3580371Y-741700D01*
G01X3652080Y-813410D01*
G01X3835425Y-813410D01*
G01X3611220Y-957605D02*
G01X3611220Y-886720D01*
G01X3537300Y-812800D01*
G01X3480200Y-812800D01*
G01X3451225Y-957605D02*
G01X3451225Y-886720D01*
G01X3397311Y-832806D01*
G01X3369883Y-832806D01*
G01X3362563Y-825485D01*
G01X3835425Y-733400D02*
G01X3687420Y-733400D01*
G01X3619500Y-665480D01*
G01X3563620Y-665480D01*
G01X-3964915Y109195D02*
G01X-3970020Y114300D01*
G01X-3691230Y109195D02*
G01X-3964915Y109195D01*
G01X2804185Y109195D02*
G01X2799080Y114300D01*
G01X3077870Y109195D02*
G01X2804185Y109195D01*
G01X2527300Y-1724660D02*
G01X2511175Y-1724660D01*
G01X2380771Y-1855064D01*
G01X3090730Y-1778864D02*
G01X3208434Y-1661160D01*
G01X3494968Y-1661160D01*
G01X3612671Y-1778864D01*
G01X3281680Y-1732260D02*
G01X3278275Y-1732260D01*
G01X3155471Y-1855064D01*
G01X3865430Y-1778864D02*
G01X3996593Y-1647700D01*
G01X4256208Y-1647700D01*
G01X4387371Y-1778864D01*
G01X3964915Y-109195D02*
G01X3691230Y-109195D01*
G01X3970020Y-114300D02*
G01X3964915Y-109195D01*
G01X4064000Y-1718800D02*
G01X4064000Y-1721235D01*
G01X3930171Y-1855064D01*
G01X-2705192Y-1720727D02*
G01X-2839021Y-1854556D01*
G01X-2705192Y-1718292D02*
G01X-2705192Y-1720727D01*
G01X-3490917Y-1731752D02*
G01X-3613721Y-1854556D01*
G01X-3487512Y-1731752D02*
G01X-3490917Y-1731752D01*
G01X-3931221Y-1778356D02*
G01X-3678462Y-1778356D01*
G01X-3560758Y-1660652D01*
G01X-3274224Y-1660652D01*
G01X-3156521Y-1778356D01*
G01X-2903762Y-1778356D01*
G01X-2772598Y-1647192D01*
G01X-2512984Y-1647192D01*
G01X-2381821Y-1778356D01*
G01X-4241892Y-1724152D02*
G01X-4258017Y-1724152D01*
G01X-4388421Y-1854556D01*
G54D11*
G01X754380Y1196340D02*
G01X754380Y944880D01*
G01X1202690Y496570D01*
G01X1202690Y431800D01*
G01X1040623Y63500D02*
G01X977900Y63500D01*
G01X1092200Y63500D02*
G01X1040623Y63500D01*
G54D44*
G01X-469900Y713740D02*
G01X-635000Y878840D01*
G01X-469900Y-876300D02*
G01X-469900Y713740D01*
G01X-152400Y850900D02*
G01X-152400Y904240D01*
G01X-68580Y767080D02*
G01X-152400Y850900D01*
G01X-132080Y744220D02*
G01X-304800Y916940D01*
G01X-132080Y675640D02*
G01X-132080Y744220D01*
G04 Track End*

M02*

