G04 Layer: TopSolderMaskLayer*
G04 EasyEDA Pro v2.2.47.7, 2026-05-04 14:17:44*
G04 Gerber Generator version 0.3*
G04 Scale: 100 percent, Rotated: No, Reflected: No*
G04 Dimensions in millimeters*
G04 Leading zeros omitted, absolute positions, 4 integers and 5 decimals*
G04 Generated by one-click*
G04 Object Configs: Pad,Via,Track,Text,Image,Dimension,BoardOutline,BoardCutout,CopperFilled,SolidRegion,FPCStiffener,Line,PlaneZone,ComponentProperty,ComponentSilkscreen,TearDrop*
G04 Layer Configs: 1,15,16,2,3,4,5,6,7,8,9,10,11,13,14,56*
G04 Copper Areas: 0*
%FSLAX45Y45*%
%MOMM*%
%AMRoundRect*1,1,$1,$2,$3*1,1,$1,$4,$5*1,1,$1,0-$2,0-$3*1,1,$1,0-$4,0-$5*20,1,$1,$2,$3,$4,$5,0*20,1,$1,$4,$5,0-$2,0-$3,0*20,1,$1,0-$2,0-$3,0-$4,0-$5,0*20,1,$1,0-$4,0-$5,$2,$3,0*4,1,4,$2,$3,$4,$5,0-$2,0-$3,0-$4,0-$5,$2,$3,0*%
%ADD10RoundRect,0.09131X-0.45514X-0.40514X-0.45514X0.40514*%
%ADD11C,1.72159*%
%ADD12RoundRect,0.09594X-0.81282X-0.81282X-0.81282X0.81282*%
%ADD13RoundRect,0.09594X-0.81282X0.81282X0.81282X0.81282*%
%ADD14RoundRect,0.08771X-0.27695X-0.27695X-0.27695X0.27695*%
%ADD15RoundRect,0.08771X-0.27695X0.27695X0.27695X0.27695*%
%ADD16RoundRect,0.09841X-3.0008X-3.25081X-3.0008X3.25081*%
%ADD17RoundRect,0.09288X-0.60357X-1.25357X-0.60357X1.25357*%
%ADD18RoundRect,0.09138X-0.40835X0.43711X0.40835X0.43711*%
%ADD19RoundRect,0.0823X-0.34818X0.15069X0.34818X0.15069*%
%ADD20RoundRect,0.08024X-0.34818X0.15069X0.34818X0.15069*%
%ADD21RoundRect,0.08024X-0.15069X0.34818X0.15069X0.34818*%
%ADD22RoundRect,0.08449X-0.20856X-0.30856X-0.20856X0.30856*%
%ADD23RoundRect,0.08692X-0.25734X0.27734X0.25734X0.27734*%
%ADD24RoundRect,0.09288X-1.23936X0.49437X1.23936X0.49437*%
%ADD25RoundRect,0.09774X-1.23693X1.80193X1.23693X1.80193*%
%ADD26RoundRect,0.09131X-0.40514X0.45514X0.40514X0.45514*%
%ADD27C,1.9*%
%ADD28RoundRect,0.08756X-0.27302X-0.54202X-0.27302X0.54202*%
%ADD29O,1.30002X2.30002*%
%ADD30C,3.90002*%
%ADD31RoundRect,0.09632X-1.47686X-1.25185X-1.47686X1.25185*%
%ADD32RoundRect,0.09169X-1.47917X-0.50417X-1.47917X0.50417*%
%ADD33O,1.7016X0.4016*%
%ADD34O,0.4016X1.7016*%
%ADD35O,1.80002X3.00002*%
%ADD36RoundRect,0.09368X-0.55396X0.75396X0.55396X0.75396*%
%ADD37RoundRect,0.09368X-0.75396X-0.55396X-0.75396X0.55396*%
%ADD38RoundRect,0.09424X-1.75367X0.60368X1.75367X0.60368*%
%ADD39RoundRect,0.08024X-0.15069X-0.26068X-0.15069X0.26068*%
%ADD40RoundRect,0.08024X-0.26068X-0.15069X-0.26068X0.15069*%
%ADD41RoundRect,0.08692X-0.27734X-0.25734X-0.27734X0.25734*%
%ADD42RoundRect,0.09138X-0.43711X-0.40835X-0.43711X0.40835*%
%ADD43RoundRect,0.08771X-0.28977X0.27695X0.28977X0.27695*%
%ADD44RoundRect,0.08771X-0.27695X-0.28977X-0.27695X0.28977*%
%ADD45RoundRect,0.08X-0.16X0.66X0.16X0.66*%
%ADD46O,1.1016X1.9016*%
%ADD47O,1.1016X2.1016*%
%ADD48O,0.68961X2.1466*%
G75*


G04 Pad Start*
G36*
G01X3713959Y3568700D02*
G01X3713959Y2908300D01*
G02X3708879Y2903220I-5080J0D01*
G01X3061179Y2903220D01*
G02X3056099Y2908300I0J5080D01*
G01X3056099Y3568700D01*
G02X3061179Y3573780I5080J0D01*
G01X3708879Y3573780D01*
G02X3713959Y3568700I0J-5080D01*
G37*
G36*
G01X2939259Y3568700D02*
G01X2939259Y2908300D01*
G02X2934179Y2903220I-5080J0D01*
G01X2286479Y2903220D01*
G02X2281399Y2908300I0J5080D01*
G01X2281399Y3568700D01*
G02X2286479Y3573780I5080J0D01*
G01X2934179Y3573780D01*
G02X2939259Y3568700I0J-5080D01*
G37*
G36*
G01X4488659Y3568700D02*
G01X4488659Y2908300D01*
G02X4483579Y2903220I-5080J0D01*
G01X3835879Y2903220D01*
G02X3830799Y2908300I0J5080D01*
G01X3830799Y3568700D01*
G02X3835879Y3573780I5080J0D01*
G01X4483579Y3573780D01*
G02X4488659Y3568700I0J-5080D01*
G37*
G36*
G01X-2275361Y3568700D02*
G01X-2275361Y2908300D01*
G02X-2280441Y2903220I-5080J0D01*
G01X-2928141Y2903220D01*
G02X-2933221Y2908300I0J5080D01*
G01X-2933221Y3568700D01*
G02X-2928141Y3573780I5080J0D01*
G01X-2280441Y3573780D01*
G02X-2275361Y3568700I0J-5080D01*
G37*
G36*
G01X-3824761Y3568700D02*
G01X-3824761Y2908300D01*
G02X-3829841Y2903220I-5080J0D01*
G01X-4477541Y2903220D01*
G02X-4482621Y2908300I0J5080D01*
G01X-4482621Y3568700D01*
G02X-4477541Y3573780I5080J0D01*
G01X-3829841Y3573780D01*
G02X-3824761Y3568700I0J-5080D01*
G37*
G36*
G01X-3050061Y3568700D02*
G01X-3050061Y2908300D01*
G02X-3055141Y2903220I-5080J0D01*
G01X-3702841Y2903220D01*
G02X-3707921Y2908300I0J5080D01*
G01X-3707921Y3568700D01*
G02X-3702841Y3573780I5080J0D01*
G01X-3055141Y3573780D01*
G02X-3050061Y3568700I0J-5080D01*
G37*
G36*
G01X-4488751Y-3568192D02*
G01X-4488751Y-2907792D01*
G02X-4483671Y-2902712I5080J0D01*
G01X-3835971Y-2902712D01*
G02X-3830891Y-2907792I0J-5080D01*
G01X-3830891Y-3568192D01*
G02X-3835971Y-3573272I-5080J0D01*
G01X-4483671Y-3573272D01*
G02X-4488751Y-3568192I0J5080D01*
G37*
G36*
G01X-2939351Y-3568192D02*
G01X-2939351Y-2907792D01*
G02X-2934271Y-2902712I5080J0D01*
G01X-2286571Y-2902712D01*
G02X-2281491Y-2907792I0J-5080D01*
G01X-2281491Y-3568192D01*
G02X-2286571Y-3573272I-5080J0D01*
G01X-2934271Y-3573272D01*
G02X-2939351Y-3568192I0J5080D01*
G37*
G36*
G01X-3714051Y-3568192D02*
G01X-3714051Y-2907792D01*
G02X-3708971Y-2902712I5080J0D01*
G01X-3061271Y-2902712D01*
G02X-3056191Y-2907792I0J-5080D01*
G01X-3056191Y-3568192D01*
G02X-3061271Y-3573272I-5080J0D01*
G01X-3708971Y-3573272D01*
G02X-3714051Y-3568192I0J5080D01*
G37*
G36*
G01X2280441Y-3568700D02*
G01X2280441Y-2908300D01*
G02X2285521Y-2903220I5080J0D01*
G01X2933221Y-2903220D01*
G02X2938301Y-2908300I0J-5080D01*
G01X2938301Y-3568700D01*
G02X2933221Y-3573780I-5080J0D01*
G01X2285521Y-3573780D01*
G02X2280441Y-3568700I0J5080D01*
G37*
G36*
G01X3829841Y-3568700D02*
G01X3829841Y-2908300D01*
G02X3834921Y-2903220I5080J0D01*
G01X4482621Y-2903220D01*
G02X4487701Y-2908300I0J-5080D01*
G01X4487701Y-3568700D01*
G02X4482621Y-3573780I-5080J0D01*
G01X3834921Y-3573780D01*
G02X3829841Y-3568700I0J5080D01*
G37*
G36*
G01X3055141Y-3568700D02*
G01X3055141Y-2908300D01*
G02X3060221Y-2903220I5080J0D01*
G01X3707921Y-2903220D01*
G02X3713001Y-2908300I0J-5080D01*
G01X3713001Y-3568700D01*
G02X3707921Y-3573780I-5080J0D01*
G01X3060221Y-3573780D01*
G02X3055141Y-3568700I0J5080D01*
G37*
G54D10*
G01X497840Y-2676042D03*
G01X497840Y-2536038D03*
G01X393692Y-70002D03*
G01X393692Y70002D03*
G54D11*
G01X4310380Y76200D03*
G01X4310380Y330200D03*
G01X4310380Y584200D03*
G54D12*
G01X4310380Y838200D03*
G54D11*
G01X-114300Y-1536700D03*
G01X-368300Y-1536700D03*
G01X-622300Y-1536700D03*
G54D13*
G01X-876300Y-1536700D03*
G54D11*
G01X-2453640Y76200D03*
G01X-2453640Y330200D03*
G01X-2453640Y584200D03*
G54D12*
G01X-2453640Y838200D03*
G54D11*
G01X2458720Y-76200D03*
G01X2458720Y-330200D03*
G01X2458720Y-584200D03*
G54D12*
G01X2458720Y-838200D03*
G54D11*
G01X-4310472Y-75692D03*
G01X-4310472Y-329692D03*
G01X-4310472Y-583692D03*
G54D12*
G01X-4310472Y-837692D03*
G54D14*
G01X-4005550Y226036D03*
G01X-4005550Y310034D03*
G01X4010630Y-226036D03*
G01X4010630Y-310034D03*
G01X2758470Y226036D03*
G01X2758470Y310034D03*
G54D15*
G01X1743799Y-2273300D03*
G01X1659801Y-2273300D03*
G54D14*
G01X-2758562Y-225528D03*
G01X-2758562Y-309526D03*
G54D16*
G01X2611680Y2551508D03*
G54D17*
G01X2840280Y1856514D03*
G01X2383080Y1856514D03*
G54D16*
G01X3386380Y2551508D03*
G54D17*
G01X3614980Y1856514D03*
G01X3157780Y1856514D03*
G54D16*
G01X4161080Y2551508D03*
G54D17*
G01X4389680Y1856514D03*
G01X3932480Y1856514D03*
G54D16*
G01X-3377640Y2551508D03*
G54D17*
G01X-3149040Y1856514D03*
G01X-3606240Y1856514D03*
G54D16*
G01X-4152340Y2551508D03*
G54D17*
G01X-3923740Y1856514D03*
G01X-4380940Y1856514D03*
G54D16*
G01X-2602940Y2551508D03*
G54D17*
G01X-2374340Y1856514D03*
G01X-2831540Y1856514D03*
G54D16*
G01X3382720Y-2551508D03*
G54D17*
G01X3154120Y-1856514D03*
G01X3611320Y-1856514D03*
G54D16*
G01X4157420Y-2551508D03*
G54D17*
G01X3928820Y-1856514D03*
G01X4386020Y-1856514D03*
G54D16*
G01X2608020Y-2551508D03*
G54D17*
G01X2379420Y-1856514D03*
G01X2836620Y-1856514D03*
G54D16*
G01X-3386472Y-2551001D03*
G54D17*
G01X-3615072Y-1856006D03*
G01X-3157872Y-1856006D03*
G54D16*
G01X-2611772Y-2551001D03*
G54D17*
G01X-2840372Y-1856006D03*
G01X-2383172Y-1856006D03*
G54D16*
G01X-4161172Y-2551001D03*
G54D17*
G01X-4389772Y-1856006D03*
G01X-3932572Y-1856006D03*
G54D18*
G01X3328264Y607060D03*
G01X3478936Y607060D03*
G54D20*
G01X-126200Y75006D03*
G01X-126200Y24994D03*
G01X-126200Y-24994D03*
G01X-126200Y-75006D03*
G54D21*
G01X-50000Y-101244D03*
G01X-13Y-101244D03*
G01X50000Y-101244D03*
G54D20*
G01X126200Y-75006D03*
G01X126200Y-24994D03*
G01X126200Y24994D03*
G01X126200Y75006D03*
G54D21*
G01X50000Y101244D03*
G01X-13Y101244D03*
G01X-50000Y101244D03*
G54D22*
G01X1807489Y135992D03*
G01X1872513Y135992D03*
G01X1937487Y135992D03*
G01X2002511Y135992D03*
G01X1807489Y-8992D03*
G01X1872513Y-8992D03*
G01X1937487Y-8992D03*
G01X2002511Y-8992D03*
G54D23*
G01X1743812Y-2146300D03*
G01X1659788Y-2146300D03*
G54D10*
G01X604520Y-1985162D03*
G01X604520Y-1845158D03*
G54D24*
G01X273329Y-2729357D03*
G01X273329Y-2499360D03*
G01X273329Y-2269363D03*
G54D25*
G01X-293649Y-2499360D03*
G54D23*
G01X2752192Y584200D03*
G01X2668168Y584200D03*
G01X-4011828Y571500D03*
G01X-4095852Y571500D03*
G01X4016908Y-571500D03*
G01X4100932Y-571500D03*
G01X-2752284Y-570992D03*
G01X-2668260Y-570992D03*
G54D26*
G01X920598Y-111760D03*
G01X1060602Y-111760D03*
G54D27*
G01X1318260Y1178560D03*
G54D18*
G01X1383436Y-2171700D03*
G01X1232764Y-2171700D03*
G54D28*
G01X-52948Y1082973D03*
G01X-147944Y1309972D03*
G01X42048Y1309972D03*
G54D29*
G01X-561130Y-2569064D03*
G01X-1911140Y-2569064D03*
G54D30*
G01X-876141Y-1969065D03*
G01X-1596130Y-1969065D03*
G54D18*
G01X1877182Y-2721803D03*
G01X1726509Y-2721803D03*
G01X1370736Y-2722880D03*
G01X1220064Y-2722880D03*
G54D31*
G01X-1845201Y43104D03*
G01X-1844705Y-1236904D03*
G54D32*
G01X-593202Y-148895D03*
G01X-593202Y-275895D03*
G01X-593202Y-402895D03*
G01X-593202Y-529895D03*
G01X-593202Y-656895D03*
G01X-593202Y-783895D03*
G01X-593202Y-910895D03*
G01X-593202Y-1037895D03*
G54D33*
G01X565810Y-1692199D03*
G01X565810Y-1642212D03*
G01X565810Y-1592199D03*
G01X565810Y-1542212D03*
G01X565810Y-1492199D03*
G01X565810Y-1442212D03*
G01X565810Y-1392199D03*
G01X565810Y-1342212D03*
G01X565810Y-1292200D03*
G01X565810Y-1242212D03*
G01X565810Y-1192200D03*
G01X565810Y-1142187D03*
G01X565810Y-1092200D03*
G01X565810Y-1042187D03*
G01X565810Y-992200D03*
G01X565810Y-942188D03*
G01X565810Y-892200D03*
G01X565810Y-842188D03*
G01X565810Y-792201D03*
G01X565810Y-742188D03*
G01X565810Y-692201D03*
G01X565810Y-642188D03*
G01X565810Y-592201D03*
G01X565810Y-542188D03*
G01X565810Y-492201D03*
G54D34*
G01X720801Y-337210D03*
G01X770788Y-337210D03*
G01X820801Y-337210D03*
G01X870788Y-337210D03*
G01X920801Y-337210D03*
G01X970788Y-337210D03*
G01X1020801Y-337210D03*
G01X1070788Y-337210D03*
G01X1120800Y-337210D03*
G01X1170788Y-337210D03*
G01X1220800Y-337210D03*
G01X1270813Y-337210D03*
G01X1320800Y-337210D03*
G01X1370813Y-337210D03*
G01X1420800Y-337210D03*
G01X1470812Y-337210D03*
G01X1520800Y-337210D03*
G01X1570812Y-337210D03*
G01X1620799Y-337210D03*
G01X1670812Y-337210D03*
G01X1720799Y-337210D03*
G01X1770812Y-337210D03*
G01X1820799Y-337210D03*
G01X1870812Y-337210D03*
G01X1920799Y-337210D03*
G54D33*
G01X2075790Y-492201D03*
G01X2075790Y-542188D03*
G01X2075790Y-592201D03*
G01X2075790Y-642188D03*
G01X2075790Y-692201D03*
G01X2075790Y-742188D03*
G01X2075790Y-792201D03*
G01X2075790Y-842188D03*
G01X2075790Y-892200D03*
G01X2075790Y-942188D03*
G01X2075790Y-992200D03*
G01X2075790Y-1042187D03*
G01X2075790Y-1092200D03*
G01X2075790Y-1142187D03*
G01X2075790Y-1192200D03*
G01X2075790Y-1242212D03*
G01X2075790Y-1292200D03*
G01X2075790Y-1342212D03*
G01X2075790Y-1392199D03*
G01X2075790Y-1442212D03*
G01X2075790Y-1492199D03*
G01X2075790Y-1542212D03*
G01X2075790Y-1592199D03*
G01X2075790Y-1642212D03*
G01X2075790Y-1692199D03*
G54D34*
G01X1920799Y-1847190D03*
G01X1870812Y-1847190D03*
G01X1820799Y-1847190D03*
G01X1770812Y-1847190D03*
G01X1720799Y-1847190D03*
G01X1670812Y-1847190D03*
G01X1620799Y-1847190D03*
G01X1570812Y-1847190D03*
G01X1520800Y-1847190D03*
G01X1470812Y-1847190D03*
G01X1420800Y-1847190D03*
G01X1370813Y-1847190D03*
G01X1320800Y-1847190D03*
G01X1270813Y-1847190D03*
G01X1220800Y-1847190D03*
G01X1170788Y-1847190D03*
G01X1120800Y-1847190D03*
G01X1070788Y-1847190D03*
G01X1020801Y-1847190D03*
G01X970788Y-1847190D03*
G01X920801Y-1847190D03*
G01X870788Y-1847190D03*
G01X820801Y-1847190D03*
G01X770788Y-1847190D03*
G01X720801Y-1847190D03*
G54D35*
G01X-251386Y-2959100D03*
G01X228623Y-2959100D03*
G01X708607Y-2959100D03*
G54D36*
G01X223520Y-2103539D03*
G01X223520Y-1203541D03*
G54D37*
G01X4031399Y345440D03*
G01X3131401Y345440D03*
G54D38*
G01X-2004347Y1871993D03*
G01X-1470363Y1871993D03*
G54D26*
G01X-79601Y-246797D03*
G01X60404Y-246797D03*
G54D39*
G01X-406Y-913003D03*
G01X-50394Y-913003D03*
G54D40*
G01X-112903Y-900506D03*
G01X-112903Y-850494D03*
G01X-112903Y-800506D03*
G01X-112903Y-750494D03*
G54D39*
G01X-50394Y-737997D03*
G01X-406Y-737997D03*
G54D40*
G01X62103Y-750494D03*
G01X62103Y-800506D03*
G01X62103Y-850494D03*
G01X62103Y-900506D03*
G54D41*
G01X-3855720Y207112D03*
G01X-3855720Y123088D03*
G01X1816100Y321412D03*
G01X1816100Y237388D03*
G54D23*
G01X1929028Y226060D03*
G01X2013052Y226060D03*
G54D41*
G01X3855720Y-207112D03*
G01X3855720Y-123088D03*
G54D23*
G01X-171552Y-650240D03*
G01X-87528Y-650240D03*
G54D41*
G01X157480Y-735228D03*
G01X157480Y-819252D03*
G01X-2913472Y-206604D03*
G01X-2913472Y-122581D03*
G01X2913380Y207112D03*
G01X2913380Y123088D03*
G54D23*
G01X-4100932Y444500D03*
G01X-4016908Y444500D03*
G01X4100932Y-444500D03*
G01X4016908Y-444500D03*
G01X-2668260Y-443992D03*
G01X-2752284Y-443992D03*
G01X702004Y-171591D03*
G01X786027Y-171591D03*
G01X1210412Y-2006600D03*
G01X1126388Y-2006600D03*
G54D41*
G01X421640Y-1786992D03*
G01X421640Y-1702968D03*
G54D23*
G01X2668168Y457200D03*
G01X2752192Y457200D03*
G01X1743812Y-2019300D03*
G01X1659788Y-2019300D03*
G54D41*
G01X241300Y3912D03*
G01X241300Y-80112D03*
G01X-60960Y1439012D03*
G01X-60960Y1354988D03*
G54D23*
G01X227029Y1341080D03*
G01X143005Y1341080D03*
G01X-54712Y960120D03*
G01X29312Y960120D03*
G54D18*
G01X-3725316Y63500D03*
G01X-3574644Y63500D03*
G01X3720236Y-63500D03*
G01X3569564Y-63500D03*
G01X-3046416Y-68072D03*
G01X-3197088Y-68072D03*
G54D42*
G01X-233680Y-1166724D03*
G01X-233680Y-1317396D03*
G54D18*
G01X3046324Y66040D03*
G01X3196996Y66040D03*
G54D43*
G01X-3273958Y914400D03*
G01X-3360522Y914400D03*
G54D44*
G01X-2898140Y965302D03*
G01X-2898140Y878738D03*
G01X-3881120Y911962D03*
G01X-3881120Y825398D03*
G54D45*
G01X1209319Y-2872539D03*
G01X1239317Y-2872539D03*
G01X1289329Y-2872539D03*
G01X1319327Y-2872539D03*
G01X1369314Y-2872539D03*
G01X1419327Y-2872539D03*
G01X1469314Y-2872539D03*
G01X1519326Y-2872539D03*
G01X1569314Y-2872539D03*
G01X1619326Y-2872539D03*
G01X1719326Y-2872539D03*
G01X1849323Y-2872539D03*
G01X1879321Y-2872539D03*
G01X1669288Y-2872539D03*
G01X1769311Y-2872537D03*
G01X1799308Y-2872537D03*
G54D46*
G01X1112317Y-3355546D03*
G01X1976323Y-3355546D03*
G54D47*
G01X1976323Y-2937538D03*
G01X1112317Y-2937538D03*
G54D44*
G01X2936240Y911962D03*
G01X2936240Y825398D03*
G54D43*
G01X3497682Y909320D03*
G01X3411118Y909320D03*
G54D44*
G01X3858260Y983082D03*
G01X3858260Y896518D03*
G54D43*
G01X3274750Y-909320D03*
G01X3361313Y-909320D03*
G54D44*
G01X2900680Y-962762D03*
G01X2900680Y-876198D03*
G01X3863340Y-891642D03*
G01X3863340Y-805078D03*
G54D43*
G01X-3497774Y-908812D03*
G01X-3411210Y-908812D03*
G54D44*
G01X-3858352Y-982574D03*
G01X-3858352Y-896011D03*
G01X-2936332Y-911454D03*
G01X-2936332Y-824891D03*
G01X393700Y297282D03*
G01X393700Y210718D03*
G01X266700Y297282D03*
G01X266700Y210718D03*
G54D48*
G01X-2707732Y1079551D03*
G01X-2580732Y1079551D03*
G01X-2453732Y1079551D03*
G01X-2326732Y1079551D03*
G01X-2707732Y1593545D03*
G01X-2580732Y1593545D03*
G01X-2453732Y1593545D03*
G01X-2326732Y1593545D03*
G01X-4257132Y1079551D03*
G01X-4130132Y1079551D03*
G01X-4003132Y1079551D03*
G01X-3876132Y1079551D03*
G01X-4257132Y1593545D03*
G01X-4130132Y1593545D03*
G01X-4003132Y1593545D03*
G01X-3876132Y1593545D03*
G01X-3482432Y1079551D03*
G01X-3355432Y1079551D03*
G01X-3228432Y1079551D03*
G01X-3101432Y1079551D03*
G01X-3482432Y1593545D03*
G01X-3355432Y1593545D03*
G01X-3228432Y1593545D03*
G01X-3101432Y1593545D03*
G01X2712812Y-1079551D03*
G01X2585812Y-1079551D03*
G01X2458812Y-1079551D03*
G01X2331812Y-1079551D03*
G01X2712812Y-1593545D03*
G01X2585812Y-1593545D03*
G01X2458812Y-1593545D03*
G01X2331812Y-1593545D03*
G01X4262212Y-1079551D03*
G01X4135212Y-1079551D03*
G01X4008212Y-1079551D03*
G01X3881212Y-1079551D03*
G01X4262212Y-1593545D03*
G01X4135212Y-1593545D03*
G01X4008212Y-1593545D03*
G01X3881212Y-1593545D03*
G01X3487512Y-1079551D03*
G01X3360512Y-1079551D03*
G01X3233512Y-1079551D03*
G01X3106512Y-1079551D03*
G01X3487512Y-1593545D03*
G01X3360512Y-1593545D03*
G01X3233512Y-1593545D03*
G01X3106512Y-1593545D03*
G01X-4056380Y-1079043D03*
G01X-4183380Y-1079043D03*
G01X-4310380Y-1079043D03*
G01X-4437380Y-1079043D03*
G01X-4056380Y-1593037D03*
G01X-4183380Y-1593037D03*
G01X-4310380Y-1593037D03*
G01X-4437380Y-1593037D03*
G01X-2506980Y-1079043D03*
G01X-2633980Y-1079043D03*
G01X-2760980Y-1079043D03*
G01X-2887980Y-1079043D03*
G01X-2506980Y-1593037D03*
G01X-2633980Y-1593037D03*
G01X-2760980Y-1593037D03*
G01X-2887980Y-1593037D03*
G01X2506888Y1079551D03*
G01X2633888Y1079551D03*
G01X2760888Y1079551D03*
G01X2887888Y1079551D03*
G01X2506888Y1593545D03*
G01X2633888Y1593545D03*
G01X2760888Y1593545D03*
G01X2887888Y1593545D03*
G01X3281588Y1079551D03*
G01X3408588Y1079551D03*
G01X3535588Y1079551D03*
G01X3662588Y1079551D03*
G01X3281588Y1593545D03*
G01X3408588Y1593545D03*
G01X3535588Y1593545D03*
G01X3662588Y1593545D03*
G01X4056288Y1079551D03*
G01X4183288Y1079551D03*
G01X4310288Y1079551D03*
G01X4437288Y1079551D03*
G01X4056288Y1593545D03*
G01X4183288Y1593545D03*
G01X4310288Y1593545D03*
G01X4437288Y1593545D03*
G01X-3281680Y-1079043D03*
G01X-3408680Y-1079043D03*
G01X-3535680Y-1079043D03*
G01X-3662680Y-1079043D03*
G01X-3281680Y-1593037D03*
G01X-3408680Y-1593037D03*
G01X-3535680Y-1593037D03*
G01X-3662680Y-1593037D03*
G54D37*
G01X2732621Y-340360D03*
G01X3632619Y-340360D03*
G54D18*
G01X3440836Y-607060D03*
G01X3290164Y-607060D03*
G54D37*
G01X-2732621Y345440D03*
G01X-3632619Y345440D03*
G54D18*
G01X-3435756Y607060D03*
G01X-3285084Y607060D03*
G54D37*
G01X-4031491Y-344932D03*
G01X-3131493Y-344932D03*
G54D18*
G01X-3328356Y-606552D03*
G01X-3479028Y-606552D03*
G04 Pad End*

M02*

