;TYPE=PLATED
;Layer: PTH_Through_Via
;EasyEDA Pro Client v2.2.47.7, 2026-05-04 14:17:45
;Gerber Generator version 0.3
M48
METRIC,LZ,0000.00000
;Hole size 1 = 0.30500 METRIC
T01C0.30500
%
G05
G90
T01
X-1.27Y-20.066
X-2.286Y-19.177
X-3.175Y-18.288
X-4.191Y-17.399
X-6.56323Y-17.89863
X-10.5156Y-17.7292
X-5.588Y-19.177
X-5.842Y-20.574
X-6.858Y-21.717
X-4.445Y-20.574
X-20.03034Y-21.89652
X-19.177Y-16.383
X-16.891Y-17.272
X-15.367Y-17.272
X-13.081Y-18.288
X-13.97Y-17.907
X-13.335Y-20.32
X-13.081Y-19.431
X-17.526Y-22.987
X-16.383Y-23.241
X-16.891Y-22.352
X-18.796Y-21.209
X-18.669Y-19.05
X-19.05Y-19.939
X-18.42322Y-17.72571
X-18.415Y-22.479
X-20.447Y-19.558
X-19.558Y-18.034
X-14.67894Y-21.65672
X-6.731Y-0.508
X-13.11828Y-28.56398
X-12.10002Y-28.76132
X3.302Y-4.953
X0.7874Y-13.7414
X-7.0866Y-11.6586
X-26.2128Y-0.508
X1.905Y2.54
X20.066Y-2.667
X18.669Y-4.826
X4.191Y4.1148
X3.3397Y4.44398
X7.112Y-9.271
X7.874Y-10.033
X6.858Y0.0
X17.78Y-6.096
X7.493Y-6.477
X8.255Y-5.461
X5.842Y-1.651
X5.842Y-4.191
X6.34449Y-3.58723
X5.766Y-2.95393
X-0.7112Y-11.5316
X-0.8636Y-12.9552
X18.923Y-16.129
X4.191Y-15.2654
X6.985Y-15.621
X5.52298Y-17.56512
X4.11277Y-16.11732
X8.636Y-20.066
X7.747Y-16.129
X8.001Y-17.018
X10.287Y-19.939
X-0.5334Y12.07607
X-1.5748Y14.39355
X-1.3716Y12.04941
X18.796Y-14.351
X-5.3086Y11.82815
X-6.2992Y15.07934
X-5.62958Y14.49383
X-5.07798Y15.11664
X-2.413Y14.39355
X-3.2766Y14.6306
X16.891Y-1.397
X18.79086Y-1.016
X4.598Y-4.318
X3.683Y-6.604
X11.176Y-5.461
X10.414Y-4.826
X11.71765Y-17.172
X12.10412Y-20.80376
X10.5918Y-11.6332
X9.23905Y-11.58895
X14.7922Y-0.7874
X14.01974Y0.21524
X13.23625Y-0.45581
X12.67745Y0.65096
X10.45703Y0.3048
X7.51198Y14.24756
X8.3566Y14.29195
X-8.1534Y13.09814
X-1.28033Y10.62063
X4.21756Y12.00595
X0.9398Y15.07934
X0.87053Y14.24115
X0.10853Y14.3305
X2.9464Y14.21574
X14.78752Y-11.938
X12.65189Y-14.76801
X13.081Y-20.066
X12.065Y-16.256
X8.49651Y-8.19349
X-14.27113Y-28.62367
X0.46012Y-17.81948
X11.938Y-10.414
X3.048Y-9.67256
X20.6502Y0.4572
X1.651Y-3.302
X2.92092Y0.762
X3.88404Y-1.70389
X-1.57776Y-1.72807
X16.18885Y-20.82823
X15.6007Y-22.74189
X19.35203Y-17.05509
X20.76684Y-4.25684
X7.91154Y-0.96226
X7.62Y-13.462
X7.493Y-14.605
X0.127Y-10.541
X1.4478Y-9.7282
X-2.3114Y-5.7912
X4.02443Y-5.715
X4.445Y-7.112
X-2.45408Y0.762
X-0.881Y2.02145
X0.627Y2.10995
X-1.27Y2.794
X-2.286Y-0.762
X33.34229Y14.605
X34.73929Y14.605
X34.3408Y17.653
X32.0548Y20.32
X33.3248Y12.319
X33.32877Y8.20405
X34.95229Y21.844
X34.2138Y21.082
X34.9758Y20.955
X34.0868Y21.86517
X27.20529Y21.844
X29.75409Y14.63289
X27.2288Y20.955
X26.3398Y21.86517
X26.4668Y21.082
X24.3078Y20.32
X26.5938Y17.653
X25.5778Y12.319
X26.99229Y14.605
X25.59529Y14.605
X42.69929Y21.844
X45.24809Y14.63289
X42.7228Y20.955
X41.8338Y21.86517
X41.9608Y21.082
X39.8018Y20.32
X42.0878Y17.653
X40.132Y12.3698
X42.48629Y14.605
X41.08929Y14.605
X31.1658Y8.255
X35.1028Y8.128
X42.4688Y12.192
X27.1018Y12.192
X34.8488Y12.319
X24.0538Y10.795
X27.8638Y7.747
X31.4198Y7.366
X37.6428Y10.287
X30.7848Y6.096
X32.004Y5.97944
X31.242Y2.413
X35.5854Y6.7056
X26.7208Y3.175
X27.9908Y1.143
X26.9748Y1.397
X29.75409Y15.50871
X37.5158Y15.494
X37.5158Y14.605
X45.24809Y15.50871
X45.5168Y29.718
X37.7698Y29.718
X45.5168Y27.90572
X37.7698Y27.90572
X30.0228Y27.8989
X30.0228Y29.718
X-37.6174Y29.718
X-40.2844Y6.985
X-37.6174Y27.8989
X-40.43491Y21.844
X-40.4114Y20.955
X-41.3004Y21.86517
X-41.1734Y21.082
X-43.3324Y20.32
X-41.0464Y17.653
X-42.0624Y12.319
X-40.64791Y14.605
X-42.04491Y14.605
X-40.5384Y12.192
X-39.7764Y7.747
X-36.8554Y6.096
X-37.88611Y15.50871
X-37.88611Y14.63289
X-34.29791Y14.605
X-32.90091Y14.605
X-33.2994Y17.653
X-33.4264Y21.082
X-33.5534Y21.86517
X-34.31143Y8.20405
X-34.3154Y12.319
X-35.5854Y20.32
X-36.2204Y7.366
X-36.4744Y8.255
X-22.31591Y14.63289
X-29.9974Y10.287
X-30.1244Y15.494
X-30.1244Y14.605
X-24.94091Y21.844
X-24.9174Y20.955
X-25.8064Y21.86517
X-25.6794Y21.082
X-27.8384Y20.32
X-25.5524Y17.653
X-25.15391Y14.605
X-26.55091Y14.605
X-27.5336Y12.3444
X-25.1714Y12.192
X-22.39211Y15.50871
X-32.5374Y8.128
X-32.6644Y20.955
X-32.7914Y18.415
X-32.68791Y21.844
X-32.7914Y12.319
X-40.9194Y3.175
X-39.6494Y1.143
X-40.6654Y1.397
X-22.1234Y29.718
X-29.8704Y29.718
X-22.1234Y27.90572
X-29.8704Y27.90572
X-30.02372Y-29.71292
X-23.97852Y-10.68832
X-30.02372Y-27.89382
X-27.20621Y-21.83892
X-27.22972Y-20.94992
X-26.34072Y-21.86009
X-26.46772Y-21.07692
X-27.10272Y-18.40992
X-24.30872Y-20.31492
X-26.99321Y-14.59992
X-25.59621Y-14.59992
X-27.86472Y-7.74192
X-30.78572Y-6.09092
X-29.75501Y-15.50363
X-29.83121Y-14.62781
X-33.34321Y-14.59992
X-34.74021Y-14.59992
X-34.21472Y-21.07692
X-34.08772Y-21.86009
X-33.32969Y-8.19898
X-32.05572Y-20.31492
X-31.42072Y-7.36092
X-31.16672Y-8.24992
X-45.35061Y-14.62781
X-37.64372Y-10.28192
X-37.51672Y-15.48892
X-37.56752Y-14.59992
X-42.70021Y-21.83892
X-42.59672Y-18.40992
X-42.72372Y-20.94992
X-41.83472Y-21.86009
X-41.96172Y-21.07692
X-39.80272Y-20.31492
X-42.48721Y-14.59992
X-41.09021Y-14.59992
X-45.24901Y-15.50363
X-35.10372Y-8.12292
X-34.97672Y-20.94992
X-34.84972Y-18.40992
X-34.95321Y-21.83892
X-26.69632Y-2.94132
X-27.99172Y-1.13792
X-26.97572Y-1.39192
X-45.51772Y-29.71292
X-37.77072Y-29.71292
X-45.51772Y-27.90065
X-37.77072Y-27.90065
X37.6682Y-29.718
X43.4086Y-7.7216
X37.6682Y-27.8989
X40.48571Y-21.844
X40.4622Y-20.955
X41.3512Y-21.86517
X41.2242Y-21.082
X40.5892Y-18.415
X43.3832Y-20.32
X40.64Y-17.188
X42.1132Y-12.319
X40.69871Y-14.605
X42.09571Y-14.605
X40.5892Y-12.192
X36.9062Y-6.096
X37.93691Y-15.50871
X37.93691Y-14.63289
X34.34871Y-14.605
X32.95171Y-14.605
X32.8168Y-17.3226
X33.4772Y-21.082
X33.6042Y-21.86517
X33.62563Y-8.25485
X34.3662Y-12.319
X35.6362Y-20.32
X32.9692Y-7.1882
X34.802Y-8.128
X22.44291Y-14.63289
X30.0482Y-10.287
X30.1752Y-15.494
X30.1752Y-14.605
X24.99171Y-21.844
X25.0952Y-18.415
X24.9682Y-20.955
X25.8572Y-21.86517
X25.7302Y-21.082
X27.8892Y-20.32
X25.273Y-17.2466
X25.20471Y-14.605
X26.60171Y-14.605
X26.6192Y-12.2174
X25.2222Y-12.192
X22.44291Y-15.50871
X32.5882Y-8.128
X32.7152Y-20.955
X32.8422Y-18.415
X32.73871Y-21.844
X32.8422Y-12.319
X40.9702Y-3.175
X39.7002Y-1.143
X40.7162Y-1.397
X22.1742Y-29.718
X29.9212Y-29.718
X22.1742Y-27.90572
X29.9212Y-27.90572
X20.066Y-17.653
X19.38Y-11.65785
X22.03298Y-6.35
X22.09066Y-5.58179
X-5.969Y-11.43
X-33.74895Y2.66697
X-33.94296Y-2.6619
X33.74895Y-2.66697
X33.94205Y2.66697
X-25.5016Y-6.7056
X23.5204Y1.2446
X20.9804Y-18.3134
X19.40438Y-10.38758
X-33.5534Y-3.4544
X4.6736Y-33.7058
X2.7432Y-34.671
X1.1176Y-33.147
X-0.508Y-34.671
X-2.37211Y-32.94101
X-4.2672Y-34.6964
X-6.731Y-32.4358
X-8.001Y-34.9504
X-10.16Y-32.7406
X-11.1252Y-34.8488
X-13.335Y-32.639
X29.9212Y-31.17512
X29.9212Y-32.37201
X29.9212Y-33.80359
X29.9212Y-35.1413
X22.1742Y-30.82309
X22.1742Y-32.55976
X22.1742Y-34.08522
X19.2024Y-23.5712
X20.4216Y-21.8694
X20.0406Y-24.6126
X20.8788Y-23.2918
X19.9644Y-26.3144
X20.7264Y-27.4828
X-30.02372Y-31.69033
X-30.02372Y-33.76729
X-20.56425Y-31.369
X-20.84782Y-34.30533
X-18.7452Y-33.5788
X-21.3106Y-27.1272
X-16.9023Y-34.55935
X-21.4122Y-29.6672
X-18.8214Y-31.3436
X36.2712Y-6.7056
X37.6682Y-31.78542
X37.6682Y-33.51035
X37.6682Y-35.16489
X37.7698Y31.33097
X37.7698Y33.16152
X37.7698Y34.88645
X30.0228Y31.40138
X30.0228Y33.23192
X30.0228Y34.99206
X45.5168Y31.82381
X45.5168Y33.40794
X45.5168Y35.09767
X-32.69206Y19.28054
X-33.528Y18.8722
X-29.6164Y17.0434
X-29.6418Y18.5928
X-29.58032Y19.89
X-30.346Y19.40372
X-30.4292Y18.49964
X-41.275Y18.8722
X-40.5892Y18.415
X-40.43906Y19.28054
X-38.1762Y18.49964
X-38.093Y19.40372
X-37.3888Y18.5928
X-37.32732Y19.89
X-37.3634Y17.0434
X-25.781Y18.8722
X-25.0952Y18.415
X-24.94506Y19.28054
X-22.6822Y18.49964
X-22.599Y19.40372
X-21.8694Y17.0434
X30.3276Y17.0434
X30.3022Y18.5928
X30.36368Y19.89
X29.598Y19.40372
X29.5148Y18.49964
X27.1018Y18.415
X27.25194Y19.28054
X26.416Y18.8722
X38.0492Y18.5928
X37.2618Y18.49964
X37.345Y19.40372
X38.0746Y17.0434
X38.11068Y19.89
X34.8488Y18.415
X34.99894Y19.28054
X34.163Y18.8722
X45.4406Y17.6276
X45.2374Y18.47424
X45.1682Y19.35292
X45.65448Y19.9916
X42.74594Y19.28054
X42.5958Y18.415
X41.91Y18.8722
X24.892Y-19.12667
X25.84701Y-18.87267
X25.7556Y-17.9578
X33.6042Y-17.9324
X32.6644Y-19.2024
X33.5026Y-19.0246
X33.147Y-19.812
X41.3258Y-17.907
X41.402Y-18.796
X40.386Y-19.1262
X41.1226Y-19.431
X40.4876Y-19.8374
X25.6032Y-19.5326
X24.9174Y-19.8628
X-41.93632Y-17.95272
X-42.79992Y-19.12159
X-41.84491Y-18.86759
X-42.08872Y-19.52752
X-42.77452Y-19.85772
X-34.08772Y-17.92732
X-34.18932Y-19.01952
X-35.02752Y-19.19732
X-34.54492Y-19.80692
X-26.36612Y-17.90192
X-26.28992Y-18.79092
X-26.56932Y-19.42592
X-27.20432Y-19.83232
X-27.30592Y-19.12112
X-27.05192Y-17.18292
X-34.87512Y-17.31752
X-42.41892Y-17.24152
X-11.2268Y-18.669
X-8.5598Y-22.606
X-6.985Y-23.2664
X-5.334Y-21.8186
X-9.6012Y-23.3172
X-11.2014Y-20.447
X-13.7414Y-16.4592
X-16.2814Y-15.3924
X-20.9804Y-16.5608
X-18.8468Y-14.8336
X-21.3106Y-21.8694
X-3.4544Y-22.606
X-5.0038Y-23.6728
X17.2214Y27.8382
X18.9232Y27.8382
X20.625Y27.8382
X17.2214Y26.1364
X18.9232Y26.1364
X20.625Y26.1364
X17.2214Y24.4346
X18.9232Y24.4346
X20.625Y24.4346
X17.2214Y22.7328
X18.9232Y22.7328
X20.625Y22.7328
X17.2214Y21.031
X18.9232Y21.031
X20.625Y21.031
X20.625Y19.3292
X18.9232Y29.54
X20.625Y29.54
X20.625Y31.2418
X18.49168Y10.13045
X18.49168Y11.39989
X18.49168Y12.66989
X17.22168Y10.13045
X15.95168Y10.13045
X15.95168Y11.40045
X15.95168Y12.67045
X15.95168Y13.94045
X-21.8186Y19.939
X-12.16363Y18.71993
X-12.16363Y17.44993
X-13.43363Y17.44993
X-14.70363Y17.44993
X-15.97363Y17.44993
X-12.16363Y19.98993
X-13.43363Y19.98993
X-14.70363Y19.98993
X-15.97363Y19.98993
X-14.70363Y21.25993
X-15.97363Y21.25993
X-13.43363Y21.25993
X-12.16363Y21.25993
X10.29239Y-21.55901
X9.3847Y-21.0564
X15.69042Y-27.432
X15.20312Y-29.9341
X13.4874Y-29.94845
X17.38892Y-29.91792
X-24.7904Y-6.096
X-25.41727Y-2.94132
X-24.7142Y-3.5814
X-26.035Y-3.5814
X15.367Y-20.4216
X16.9672Y-16.5354
X-1.5746Y-17.5262
X7.20806Y-19.98096
X-3.64642Y-11.97356
X-0.27998Y-8.255
X19.177Y3.2512
X20.955Y1.905
X16.9164Y0.4318
X-2.3622Y7.8994
X1.01211Y9.74971
X-3.54546Y12.05901
X2.1082Y7.3912
X-4.9022Y9.2964
X-5.7912Y10.5918
X-4.9784Y10.1854
X8.58734Y4.21426
X4.191Y11.0796
X2.667Y9.89673
X6.5532Y11.8872
X6.46468Y10.04468
X-1.07198Y4.5212
X-15.97363Y22.52993
X-15.97363Y23.79993
X-14.70363Y23.79993
X-13.43363Y23.79993
X-13.43363Y22.52993
X-14.70363Y22.52993
X-12.16363Y22.52993
X-12.16363Y23.79993
X-15.97363Y25.06993
X-15.97363Y26.33993
X-14.70363Y26.33993
X-13.43363Y25.06993
X-14.70363Y25.06993
X-21.0691Y28.1811
X-17.6655Y28.1811
X-19.3673Y28.1811
X-21.0691Y26.4793
X-19.3673Y26.4793
X-17.6655Y26.4793
X-17.6655Y24.7775
X-19.3673Y24.7775
X-21.0691Y24.7775
X-21.0691Y23.0757
X-19.3673Y23.0757
X-17.6655Y23.0757
X-19.3673Y29.8829
X-21.0691Y29.8829
X-21.0691Y31.5847
X-14.60533Y-15.3924
X-10.79533Y-11.5824
X-14.60533Y-11.5824
X-14.60533Y-7.7724
X-10.79533Y-7.7724
X-2.0066Y-9.0678
X-42.46972Y-12.18692
X-40.13292Y-12.36472
X-33.32572Y-12.31392
X-34.84972Y-12.31392
X-27.10272Y-12.18692
X-25.57872Y-12.31392
X-0.0762Y-6.5786
X35.687Y-5.97944
X32.1056Y-6.7056
X36.4998Y-2.3368
X27.3304Y-7.6454
X-35.6362Y5.97944
X-32.0548Y6.7056
X-36.3982Y2.413
X-32.00492Y-5.97436
X-35.58632Y-6.70052
X-31.24292Y-2.40792
M30