G04 Layer: TopLayer*
G04 EasyEDA Pro v2.2.47.7, 2026-05-09 22:54:15*
G04 Gerber Generator version 0.3*
G04 Scale: 100 percent, Rotated: No, Reflected: No*
G04 Dimensions in millimeters*
G04 Leading zeros omitted, absolute positions, 4 integers and 5 decimals*
G04 Generated by one-click*
G04 Object Configs: Pad,Via,Track,Text,Image,Dimension,BoardOutline,BoardCutout,CopperFilled,SolidRegion,FPCStiffener,Line,PlaneZone,ComponentProperty,ComponentSilkscreen,TearDrop*
G04 Layer Configs: 1,15,16,2,3,4,5,6,7,8,9,10,11,13,14,56*
G04 Copper Areas: 39*
%FSLAX45Y45*%
%MOMM*%
%AMPolygonMacro1*4,1,4,-3.2385,-3.302,-3.2385,3.302,3.2385,3.302,3.2385,-3.302,-3.2385,-3.302,0*%
%AMPolygonMacro2*4,1,4,3.2385,3.302,3.2385,-3.302,-3.2385,-3.302,-3.2385,3.302,3.2385,3.302,0*%
%ADD10C,0.2032*%
%ADD11C,0.254*%
%ADD12PolygonMacro1*%
%ADD13PolygonMacro2*%
%ADD14C,1.524*%
%ADD15R,0.9X0.8*%
%ADD16C,1.61999*%
%ADD17R,1.6220X1.61999*%
%ADD18R,1.61999X1.61999*%
%ADD19R,0.54X0.54*%
%ADD20R,5.99999X6.50001*%
%ADD21R,1.2X2.49999*%
%ADD22R,0.80648X0.86401*%
%ADD23R,0.67501X0.28001*%
%ADD24R,0.28001X0.67501*%
%ADD25R,0.4X0.6*%
%ADD26R,1.2X0.55001*%
%ADD27R,0.5X0.54*%
%ADD28R,1.41X1.35001*%
%ADD29R,0.8X0.9*%
%ADD30R,2.47X0.98001*%
%ADD31R,2.47X3.59999*%
%ADD32R,1.0X2.69999*%
%ADD33C,1.8*%
%ADD34R,0.532X1.07*%
%ADD35O,1.2X2.2*%
%ADD36C,3.79999*%
%ADD37R,2.95001X2.49999*%
%ADD38R,2.95001X1.0*%
%ADD39O,1.6X0.3*%
%ADD40O,0.3X1.6*%
%ADD41O,1.7X2.89999*%
%ADD42R,1.1X1.5*%
%ADD43R,1.5X1.1*%
%ADD44R,1.2X3.49999*%
%ADD45R,0.28001X0.5*%
%ADD46R,0.5X0.28001*%
%ADD47R,0.54X0.5*%
%ADD48R,0.56566X0.54*%
%ADD49R,0.54X0.56566*%
%ADD50R,0.3X1.3*%
%ADD51O,1.0X1.8*%
%ADD52O,1.0X2.0*%
%ADD53O,0.58801X2.045*%
%ADD54R,2.0X1.05001*%
%ADD55R,0.89992X1.0*%
%ADD56C,0.61*%
%ADD57C,0.889*%
%ADD58C,0.635*%
%ADD59C,0.508*%
%ADD60C,0.762*%
%ADD61C,1.016*%
%ADD62C,0.381*%
%ADD63C,1.778*%
%ADD64C,1.27*%
G75*


G04 Copper Start*
G36*
G01X-4221245Y-1995678D02*
G01X-4457011Y-1995678D01*
G01X-4457011Y-1728077D01*
G01X-4442824Y-1730874D01*
G01X-4428370Y-1730476D01*
G01X-4414359Y-1726903D01*
G01X-4401479Y-1720330D01*
G01X-4390364Y-1711081D01*
G01X-4381561Y-1699609D01*
G01X-4366199Y-1699609D01*
G01X-4357798Y-1710658D01*
G01X-4347249Y-1719679D01*
G01X-4335030Y-1726263D01*
G01X-4321694Y-1730112D01*
G01X-4307846Y-1731052D01*
G01X-4304739Y-1745314D01*
G01X-4298587Y-1758551D01*
G01X-4289688Y-1770121D01*
G01X-4278473Y-1779464D01*
G01X-4265486Y-1786127D01*
G01X-4251356Y-1789788D01*
G01X-4236767Y-1790268D01*
G01X-4222427Y-1787545D01*
G01X-4209030Y-1781751D01*
G01X-4197225Y-1773166D01*
G01X-4187584Y-1762207D01*
G01X-4180574Y-1749404D01*
G01X-4156453Y-1725283D01*
G01X-4142994Y-1717091D01*
G01X-4142994Y-1902696D01*
G01X-4204457Y-1964159D01*
G01X-4212103Y-1973485D01*
G01X-4217772Y-1984129D01*
G01X-4221245Y-1995678D01*
G37*
G36*
G01X4097347Y-1996186D02*
G01X3861581Y-1996186D01*
G01X3861581Y-1728584D01*
G01X3875768Y-1731382D01*
G01X3890222Y-1730984D01*
G01X3904233Y-1727411D01*
G01X3917113Y-1720838D01*
G01X3928228Y-1711588D01*
G01X3937031Y-1700117D01*
G01X3952393Y-1700117D01*
G01X3961127Y-1711516D01*
G01X3972143Y-1720727D01*
G01X3984909Y-1727304D01*
G01X3998804Y-1730927D01*
G01X4002865Y-1744491D01*
G01X4009712Y-1756884D01*
G01X4019035Y-1767541D01*
G01X4030407Y-1775976D01*
G01X4043310Y-1781804D01*
G01X4057157Y-1784760D01*
G01X4071316Y-1784709D01*
G01X4085141Y-1781654D01*
G01X4098003Y-1775733D01*
G01X4109314Y-1767217D01*
G01X4118560Y-1756494D01*
G01X4125318Y-1744052D01*
G01X4137813Y-1731557D01*
G01X4151296Y-1729595D01*
G01X4164077Y-1724873D01*
G01X4175598Y-1717599D01*
G01X4175598Y-1903204D01*
G01X4114135Y-1964666D01*
G01X4106489Y-1973993D01*
G01X4100820Y-1984637D01*
G01X4097347Y-1996186D01*
G37*
G36*
G01X3322749Y-1995678D02*
G01X3086881Y-1995678D01*
G01X3086881Y-1728584D01*
G01X3101068Y-1731382D01*
G01X3115522Y-1730984D01*
G01X3129533Y-1727411D01*
G01X3142413Y-1720838D01*
G01X3153528Y-1711588D01*
G01X3162331Y-1700117D01*
G01X3177693Y-1700117D01*
G01X3187719Y-1712827D01*
G01X3200566Y-1722675D01*
G01X3215443Y-1729056D01*
G01X3216497Y-1744454D01*
G01X3221081Y-1759192D01*
G01X3228948Y-1772471D01*
G01X3239672Y-1783571D01*
G01X3252671Y-1791893D01*
G01X3267241Y-1796983D01*
G01X3282594Y-1798568D01*
G01X3297897Y-1796561D01*
G01X3312322Y-1791070D01*
G01X3325087Y-1782394D01*
G01X3335500Y-1771002D01*
G01X3342998Y-1757512D01*
G01X3369527Y-1730983D01*
G01X3380720Y-1728399D01*
G01X3391287Y-1723891D01*
G01X3400898Y-1717599D01*
G01X3400898Y-1903204D01*
G01X3339435Y-1964666D01*
G01X3331885Y-1973849D01*
G01X3326252Y-1984318D01*
G01X3322749Y-1995678D01*
G37*
G36*
G01X2548049Y-1995678D02*
G01X2312181Y-1995678D01*
G01X2312181Y-1728584D01*
G01X2326368Y-1731382D01*
G01X2340822Y-1730984D01*
G01X2354833Y-1727411D01*
G01X2367713Y-1720838D01*
G01X2378828Y-1711588D01*
G01X2387631Y-1700117D01*
G01X2402993Y-1700117D01*
G01X2411394Y-1711166D01*
G01X2421943Y-1720187D01*
G01X2434162Y-1726771D01*
G01X2447498Y-1730620D01*
G01X2461346Y-1731560D01*
G01X2464453Y-1745822D01*
G01X2470605Y-1759059D01*
G01X2479504Y-1770629D01*
G01X2490719Y-1779972D01*
G01X2503706Y-1786635D01*
G01X2517836Y-1790295D01*
G01X2532425Y-1790776D01*
G01X2546765Y-1788053D01*
G01X2560162Y-1782259D01*
G01X2571967Y-1773674D01*
G01X2581608Y-1762715D01*
G01X2588618Y-1749912D01*
G01X2612739Y-1725790D01*
G01X2626198Y-1717599D01*
G01X2626198Y-1903204D01*
G01X2564735Y-1964666D01*
G01X2557185Y-1973849D01*
G01X2551552Y-1984318D01*
G01X2548049Y-1995678D01*
G37*
G36*
G01X4462780Y1996186D02*
G01X4473198Y1997735D01*
G01X4482715Y2002247D01*
G01X4490508Y2009333D01*
G01X4495903Y2018379D01*
G01X4498433Y2028603D01*
G01X4599686Y2028603D01*
G01X4599686Y1687435D01*
G01X4499015Y1687435D01*
G01X4491946Y1701968D01*
G01X4481519Y1714317D01*
G01X4468377Y1723722D01*
G01X4453325Y1729607D01*
G01X4437288Y1731609D01*
G01X4421251Y1729607D01*
G01X4406199Y1723722D01*
G01X4393057Y1714317D01*
G01X4382630Y1701968D01*
G01X4375561Y1687435D01*
G01X4372015Y1687435D01*
G01X4364946Y1701968D01*
G01X4354519Y1714317D01*
G01X4341377Y1723722D01*
G01X4326325Y1729607D01*
G01X4310288Y1731609D01*
G01X4294251Y1729607D01*
G01X4279199Y1723722D01*
G01X4266057Y1714317D01*
G01X4255630Y1701968D01*
G01X4248561Y1687435D01*
G01X4245015Y1687435D01*
G01X4244502Y1688884D01*
G01X4244502Y1709430D01*
G01X4256509Y1719262D01*
G01X4265902Y1731615D01*
G01X4272166Y1745813D01*
G01X4274960Y1761078D01*
G01X4274129Y1776574D01*
G01X4269719Y1791453D01*
G01X4261972Y1804900D01*
G01X4251312Y1816178D01*
G01X4238323Y1824670D01*
G01X4223716Y1829910D01*
G01X4208291Y1831612D01*
G01X4192893Y1829683D01*
G01X4178364Y1824227D01*
G01X4165502Y1815545D01*
G01X4155010Y1804111D01*
G01X4147462Y1790552D01*
G01X4142902Y1785992D01*
G01X4142902Y1903204D01*
G01X4204365Y1964666D01*
G01X4212011Y1973993D01*
G01X4217680Y1984637D01*
G01X4221153Y1996186D01*
G01X4462780Y1996186D01*
G37*
G36*
G01X2913380Y1996186D02*
G01X2923798Y1997735D01*
G01X2933315Y2002247D01*
G01X2941108Y2009333D01*
G01X2946503Y2018379D01*
G01X2949033Y2028603D01*
G01X3055527Y2028603D01*
G01X3057793Y2019042D01*
G01X3062571Y2010456D01*
G01X3069503Y2003491D01*
G01X3063903Y1993131D01*
G01X3061966Y1981513D01*
G01X3061966Y1731514D01*
G01X3062868Y1723526D01*
G01X3065529Y1715941D01*
G01X3069815Y1709140D01*
G01X3069815Y1687435D01*
G01X2949615Y1687435D01*
G01X2942546Y1701968D01*
G01X2932119Y1714317D01*
G01X2918977Y1723722D01*
G01X2903925Y1729607D01*
G01X2887888Y1731609D01*
G01X2871851Y1729607D01*
G01X2856799Y1723722D01*
G01X2843657Y1714317D01*
G01X2833230Y1701968D01*
G01X2826161Y1687435D01*
G01X2822615Y1687435D01*
G01X2815546Y1701968D01*
G01X2805119Y1714317D01*
G01X2791977Y1723722D01*
G01X2776925Y1729607D01*
G01X2760888Y1731609D01*
G01X2744851Y1729607D01*
G01X2729799Y1723722D01*
G01X2716657Y1714317D01*
G01X2706230Y1701968D01*
G01X2699161Y1687435D01*
G01X2695615Y1687435D01*
G01X2695102Y1688884D01*
G01X2695102Y1709430D01*
G01X2707109Y1719262D01*
G01X2716502Y1731615D01*
G01X2722766Y1745813D01*
G01X2725560Y1761078D01*
G01X2724729Y1776574D01*
G01X2720319Y1791453D01*
G01X2712572Y1804900D01*
G01X2701912Y1816178D01*
G01X2688923Y1824670D01*
G01X2674316Y1829910D01*
G01X2658891Y1831612D01*
G01X2643493Y1829683D01*
G01X2628964Y1824227D01*
G01X2616102Y1815545D01*
G01X2605610Y1804111D01*
G01X2598062Y1790552D01*
G01X2593502Y1785992D01*
G01X2593502Y1903204D01*
G01X2654965Y1964666D01*
G01X2662611Y1973993D01*
G01X2668280Y1984637D01*
G01X2671753Y1996186D01*
G01X2913380Y1996186D01*
G37*
G36*
G01X3688080Y1996186D02*
G01X3698498Y1997735D01*
G01X3708015Y2002247D01*
G01X3715808Y2009333D01*
G01X3721203Y2018379D01*
G01X3723733Y2028603D01*
G01X3830227Y2028603D01*
G01X3832493Y2019042D01*
G01X3837271Y2010456D01*
G01X3844203Y2003491D01*
G01X3838603Y1993131D01*
G01X3836666Y1981513D01*
G01X3836666Y1731514D01*
G01X3837568Y1723526D01*
G01X3840229Y1715941D01*
G01X3844515Y1709140D01*
G01X3844515Y1687435D01*
G01X3724315Y1687435D01*
G01X3717246Y1701968D01*
G01X3706819Y1714317D01*
G01X3693677Y1723722D01*
G01X3678625Y1729607D01*
G01X3662588Y1731609D01*
G01X3646551Y1729607D01*
G01X3631499Y1723722D01*
G01X3618357Y1714317D01*
G01X3607930Y1701968D01*
G01X3600861Y1687435D01*
G01X3597315Y1687435D01*
G01X3590246Y1701968D01*
G01X3579819Y1714317D01*
G01X3566677Y1723722D01*
G01X3551625Y1729607D01*
G01X3535588Y1731609D01*
G01X3519551Y1729607D01*
G01X3504499Y1723722D01*
G01X3491357Y1714317D01*
G01X3480930Y1701968D01*
G01X3473861Y1687435D01*
G01X3470315Y1687435D01*
G01X3469802Y1688884D01*
G01X3469802Y1709430D01*
G01X3481809Y1719262D01*
G01X3491202Y1731615D01*
G01X3497466Y1745813D01*
G01X3500260Y1761078D01*
G01X3499429Y1776574D01*
G01X3495019Y1791453D01*
G01X3487272Y1804900D01*
G01X3476612Y1816178D01*
G01X3463623Y1824670D01*
G01X3449016Y1829910D01*
G01X3433591Y1831612D01*
G01X3418193Y1829683D01*
G01X3403664Y1824227D01*
G01X3390802Y1815545D01*
G01X3380310Y1804111D01*
G01X3372762Y1790552D01*
G01X3368202Y1785992D01*
G01X3368202Y1903204D01*
G01X3429665Y1964666D01*
G01X3437311Y1973993D01*
G01X3442980Y1984637D01*
G01X3446453Y1996186D01*
G01X3688080Y1996186D01*
G37*
G36*
G01X2528229Y-2041652D02*
G01X2723312Y-2041652D01*
G01X2727424Y-2056814D01*
G01X2734986Y-2070584D01*
G01X2745576Y-2082188D01*
G01X2758597Y-2090975D01*
G01X2773321Y-2096453D01*
G01X2788920Y-2098314D01*
G01X2804519Y-2096453D01*
G01X2819243Y-2090975D01*
G01X2832264Y-2082188D01*
G01X2842854Y-2070584D01*
G01X2850416Y-2056814D01*
G01X2854528Y-2041652D01*
G01X2892968Y-2041652D01*
G01X2892968Y-3558032D01*
G01X2316388Y-3558032D01*
G01X2316388Y-2041652D01*
G01X2455251Y-2041652D01*
G01X2469026Y-2048583D01*
G01X2484030Y-2052144D01*
G01X2499450Y-2052144D01*
G01X2514454Y-2048583D01*
G01X2528229Y-2041652D01*
G37*
G36*
G01X3091088Y-2041652D02*
G01X3287441Y-2041652D01*
G01X3300759Y-2046032D01*
G01X3314700Y-2047514D01*
G01X3328641Y-2046032D01*
G01X3341959Y-2041652D01*
G01X3498012Y-2041652D01*
G01X3502124Y-2056814D01*
G01X3509686Y-2070584D01*
G01X3520276Y-2082188D01*
G01X3533297Y-2090975D01*
G01X3548021Y-2096453D01*
G01X3563620Y-2098314D01*
G01X3579219Y-2096453D01*
G01X3593943Y-2090975D01*
G01X3606964Y-2082188D01*
G01X3617554Y-2070584D01*
G01X3625116Y-2056814D01*
G01X3629228Y-2041652D01*
G01X3667668Y-2041652D01*
G01X3667668Y-3558032D01*
G01X3091088Y-3558032D01*
G01X3091088Y-2041652D01*
G37*
G36*
G01X-2903312Y-3558032D02*
G01X-2903312Y-2086751D01*
G01X-2552772Y-2086751D01*
G01X-2541704Y-2084998D01*
G01X-2531721Y-2079911D01*
G01X-2523797Y-2071988D01*
G01X-2518710Y-2062004D01*
G01X-2516958Y-2050937D01*
G01X-2516958Y-2041652D01*
G01X-2496403Y-2041652D01*
G01X-2492207Y-2056703D01*
G01X-2484606Y-2070354D01*
G01X-2474022Y-2081848D01*
G01X-2461042Y-2090546D01*
G01X-2446388Y-2095966D01*
G01X-2430872Y-2097806D01*
G01X-2415356Y-2095966D01*
G01X-2400702Y-2090546D01*
G01X-2387722Y-2081848D01*
G01X-2377138Y-2070354D01*
G01X-2369537Y-2056703D01*
G01X-2365341Y-2041652D01*
G01X-2326732Y-2041652D01*
G01X-2326732Y-3558032D01*
G01X-2903312Y-3558032D01*
G37*
G36*
G01X-3678012Y-3558032D02*
G01X-3678012Y-2086751D01*
G01X-3327472Y-2086751D01*
G01X-3316404Y-2084998D01*
G01X-3306421Y-2079911D01*
G01X-3298497Y-2071988D01*
G01X-3293410Y-2062004D01*
G01X-3291658Y-2050937D01*
G01X-3291658Y-2041652D01*
G01X-3271103Y-2041652D01*
G01X-3266907Y-2056703D01*
G01X-3259306Y-2070354D01*
G01X-3248722Y-2081848D01*
G01X-3235742Y-2090546D01*
G01X-3221088Y-2095966D01*
G01X-3205572Y-2097806D01*
G01X-3190056Y-2095966D01*
G01X-3175402Y-2090546D01*
G01X-3162422Y-2081848D01*
G01X-3151838Y-2070354D01*
G01X-3144237Y-2056703D01*
G01X-3140041Y-2041652D01*
G01X-3101432Y-2041652D01*
G01X-3101432Y-3558032D01*
G01X-3678012Y-3558032D01*
G37*
G36*
G01X-2907611Y-2040777D02*
G01X-2907611Y-1728077D01*
G01X-2893424Y-1730874D01*
G01X-2878970Y-1730476D01*
G01X-2864959Y-1726903D01*
G01X-2852079Y-1720330D01*
G01X-2840964Y-1711081D01*
G01X-2832161Y-1699609D01*
G01X-2816799Y-1699609D01*
G01X-2808065Y-1711008D01*
G01X-2797049Y-1720219D01*
G01X-2784283Y-1726796D01*
G01X-2770388Y-1730419D01*
G01X-2766327Y-1743983D01*
G01X-2759480Y-1756376D01*
G01X-2750157Y-1767033D01*
G01X-2738785Y-1775468D01*
G01X-2725882Y-1781296D01*
G01X-2712035Y-1784253D01*
G01X-2697876Y-1784202D01*
G01X-2684051Y-1781146D01*
G01X-2671189Y-1775225D01*
G01X-2659878Y-1766709D01*
G01X-2650632Y-1755986D01*
G01X-2643874Y-1743544D01*
G01X-2631379Y-1731050D01*
G01X-2617896Y-1729087D01*
G01X-2605115Y-1724366D01*
G01X-2593594Y-1717091D01*
G01X-2593594Y-1902696D01*
G01X-2655057Y-1964159D01*
G01X-2662670Y-1973435D01*
G01X-2668326Y-1984018D01*
G01X-2671810Y-1995501D01*
G01X-2672986Y-2007444D01*
G01X-2672986Y-2040777D01*
G01X-2684784Y-2040777D01*
G01X-2699104Y-2033123D01*
G01X-2714854Y-2029177D01*
G01X-2731090Y-2029177D01*
G01X-2746840Y-2033123D01*
G01X-2761159Y-2040777D01*
G01X-2907611Y-2040777D01*
G37*
G36*
G01X-3682311Y-2040777D02*
G01X-3682311Y-1728077D01*
G01X-3668124Y-1730874D01*
G01X-3653670Y-1730476D01*
G01X-3639659Y-1726903D01*
G01X-3626779Y-1720330D01*
G01X-3615664Y-1711081D01*
G01X-3606861Y-1699609D01*
G01X-3591499Y-1699609D01*
G01X-3581473Y-1712319D01*
G01X-3568626Y-1722168D01*
G01X-3553749Y-1728548D01*
G01X-3552695Y-1743947D01*
G01X-3548111Y-1758684D01*
G01X-3540244Y-1771963D01*
G01X-3529520Y-1783064D01*
G01X-3516521Y-1791385D01*
G01X-3501951Y-1796476D01*
G01X-3486598Y-1798060D01*
G01X-3471295Y-1796053D01*
G01X-3456870Y-1790563D01*
G01X-3444105Y-1781886D01*
G01X-3433692Y-1770495D01*
G01X-3426194Y-1757004D01*
G01X-3399665Y-1730475D01*
G01X-3388472Y-1727891D01*
G01X-3377905Y-1723384D01*
G01X-3368294Y-1717091D01*
G01X-3368294Y-1902696D01*
G01X-3429757Y-1964159D01*
G01X-3437370Y-1973435D01*
G01X-3443026Y-1984018D01*
G01X-3446510Y-1995501D01*
G01X-3447686Y-2007444D01*
G01X-3447686Y-2040777D01*
G01X-3459484Y-2040777D01*
G01X-3473804Y-2033123D01*
G01X-3489554Y-2029177D01*
G01X-3505790Y-2029177D01*
G01X-3521540Y-2033123D01*
G01X-3535859Y-2040777D01*
G01X-3682311Y-2040777D01*
G37*
G36*
G01X-4241745Y-2041652D02*
G01X-4045803Y-2041652D01*
G01X-4041607Y-2056703D01*
G01X-4034006Y-2070354D01*
G01X-4023422Y-2081848D01*
G01X-4010442Y-2090546D01*
G01X-3995788Y-2095966D01*
G01X-3980272Y-2097806D01*
G01X-3964756Y-2095966D01*
G01X-3950102Y-2090546D01*
G01X-3937122Y-2081848D01*
G01X-3926538Y-2070354D01*
G01X-3918937Y-2056703D01*
G01X-3914741Y-2041652D01*
G01X-3876132Y-2041652D01*
G01X-3876132Y-3558032D01*
G01X-4452712Y-3558032D01*
G01X-4452712Y-2041652D01*
G01X-4313159Y-2041652D01*
G01X-4299639Y-2048264D01*
G01X-4284977Y-2051658D01*
G01X-4269927Y-2051658D01*
G01X-4255265Y-2048264D01*
G01X-4241745Y-2041652D01*
G37*
G36*
G01X-2903312Y-3558032D02*
G01X-2903312Y-2086751D01*
G01X-2552772Y-2086751D01*
G01X-2541704Y-2084998D01*
G01X-2531721Y-2079911D01*
G01X-2523797Y-2071988D01*
G01X-2518710Y-2062004D01*
G01X-2516958Y-2050937D01*
G01X-2516958Y-2041652D01*
G01X-2496403Y-2041652D01*
G01X-2492207Y-2056703D01*
G01X-2484606Y-2070354D01*
G01X-2474022Y-2081848D01*
G01X-2461042Y-2090546D01*
G01X-2446388Y-2095966D01*
G01X-2430872Y-2097806D01*
G01X-2415356Y-2095966D01*
G01X-2400702Y-2090546D01*
G01X-2387722Y-2081848D01*
G01X-2377138Y-2070354D01*
G01X-2369537Y-2056703D01*
G01X-2365341Y-2041652D01*
G01X-2326732Y-2041652D01*
G01X-2326732Y-3558032D01*
G01X-2903312Y-3558032D01*
G37*
G36*
G01X-3678012Y-3558032D02*
G01X-3678012Y-2086751D01*
G01X-3327472Y-2086751D01*
G01X-3316404Y-2084998D01*
G01X-3306421Y-2079911D01*
G01X-3298497Y-2071988D01*
G01X-3293410Y-2062004D01*
G01X-3291658Y-2050937D01*
G01X-3291658Y-2041652D01*
G01X-3271103Y-2041652D01*
G01X-3266907Y-2056703D01*
G01X-3259306Y-2070354D01*
G01X-3248722Y-2081848D01*
G01X-3235742Y-2090546D01*
G01X-3221088Y-2095966D01*
G01X-3205572Y-2097806D01*
G01X-3190056Y-2095966D01*
G01X-3175402Y-2090546D01*
G01X-3162422Y-2081848D01*
G01X-3151838Y-2070354D01*
G01X-3144237Y-2056703D01*
G01X-3140041Y-2041652D01*
G01X-3101432Y-2041652D01*
G01X-3101432Y-3558032D01*
G01X-3678012Y-3558032D01*
G37*
G36*
G01X4452620Y2042160D02*
G01X4045711Y2042160D01*
G01X4041515Y2057211D01*
G01X4033914Y2070862D01*
G01X4023330Y2082355D01*
G01X4010350Y2091053D01*
G01X3995696Y2096473D01*
G01X3980180Y2098314D01*
G01X3964664Y2096473D01*
G01X3950010Y2091053D01*
G01X3937030Y2082355D01*
G01X3926446Y2070862D01*
G01X3918845Y2057211D01*
G01X3914649Y2042160D01*
G01X3876040Y2042160D01*
G01X3876040Y3558540D01*
G01X4452620Y3558540D01*
G01X4452620Y2042160D01*
G37*
G36*
G01X2903220Y2042160D02*
G01X2496311Y2042160D01*
G01X2492115Y2057211D01*
G01X2484514Y2070862D01*
G01X2473930Y2082355D01*
G01X2460950Y2091053D01*
G01X2446296Y2096473D01*
G01X2430780Y2098314D01*
G01X2415264Y2096473D01*
G01X2400610Y2091053D01*
G01X2387630Y2082355D01*
G01X2377046Y2070862D01*
G01X2369445Y2057211D01*
G01X2365249Y2042160D01*
G01X2326640Y2042160D01*
G01X2326640Y3558540D01*
G01X2903220Y3558540D01*
G01X2903220Y2042160D01*
G37*
G36*
G01X3677920Y2042160D02*
G01X3271011Y2042160D01*
G01X3266815Y2057211D01*
G01X3259214Y2070862D01*
G01X3248630Y2082355D01*
G01X3235650Y2091053D01*
G01X3220996Y2096473D01*
G01X3205480Y2098314D01*
G01X3189964Y2096473D01*
G01X3175310Y2091053D01*
G01X3162330Y2082355D01*
G01X3151746Y2070862D01*
G01X3144145Y2057211D01*
G01X3139949Y2042160D01*
G01X3101340Y2042160D01*
G01X3101340Y3558540D01*
G01X3677920Y3558540D01*
G01X3677920Y2042160D01*
G37*
G36*
G01X2527447Y-2042160D02*
G01X2723389Y-2042160D01*
G01X2727585Y-2057211D01*
G01X2735186Y-2070862D01*
G01X2745770Y-2082355D01*
G01X2758750Y-2091053D01*
G01X2773404Y-2096473D01*
G01X2788920Y-2098314D01*
G01X2804436Y-2096473D01*
G01X2819090Y-2091053D01*
G01X2832070Y-2082355D01*
G01X2842654Y-2070862D01*
G01X2850255Y-2057211D01*
G01X2854451Y-2042160D01*
G01X2893060Y-2042160D01*
G01X2893060Y-3558540D01*
G01X2316480Y-3558540D01*
G01X2316480Y-2042160D01*
G01X2456033Y-2042160D01*
G01X2469553Y-2048772D01*
G01X2484215Y-2052166D01*
G01X2499265Y-2052166D01*
G01X2513927Y-2048772D01*
G01X2527447Y-2042160D01*
G37*
G36*
G01X3865880Y-2042160D02*
G01X4017381Y-2042160D01*
G01X4032582Y-2048050D01*
G01X4048760Y-2050054D01*
G01X4064938Y-2048050D01*
G01X4080139Y-2042160D01*
G01X4272789Y-2042160D01*
G01X4276985Y-2057211D01*
G01X4284586Y-2070862D01*
G01X4295170Y-2082355D01*
G01X4308150Y-2091053D01*
G01X4322804Y-2096473D01*
G01X4338320Y-2098314D01*
G01X4353836Y-2096473D01*
G01X4368490Y-2091053D01*
G01X4381470Y-2082355D01*
G01X4392054Y-2070862D01*
G01X4399655Y-2057211D01*
G01X4403851Y-2042160D01*
G01X4442460Y-2042160D01*
G01X4442460Y-3558540D01*
G01X3865880Y-3558540D01*
G01X3865880Y-2042160D01*
G37*
G36*
G01X3091180Y-2042160D02*
G01X3288596Y-2042160D01*
G01X3301376Y-2046162D01*
G01X3314700Y-2047514D01*
G01X3328024Y-2046162D01*
G01X3340804Y-2042160D01*
G01X3498089Y-2042160D01*
G01X3502285Y-2057211D01*
G01X3509886Y-2070862D01*
G01X3520470Y-2082355D01*
G01X3533450Y-2091053D01*
G01X3548104Y-2096473D01*
G01X3563620Y-2098314D01*
G01X3579136Y-2096473D01*
G01X3593790Y-2091053D01*
G01X3606770Y-2082355D01*
G01X3617354Y-2070862D01*
G01X3624955Y-2057211D01*
G01X3629151Y-2042160D01*
G01X3667760Y-2042160D01*
G01X3667760Y-3558540D01*
G01X3091180Y-3558540D01*
G01X3091180Y-2042160D01*
G37*
G36*
G01X-2311400Y2042160D02*
G01X-2718309Y2042160D01*
G01X-2722505Y2057211D01*
G01X-2730106Y2070862D01*
G01X-2740690Y2082355D01*
G01X-2753670Y2091053D01*
G01X-2768324Y2096473D01*
G01X-2783840Y2098314D01*
G01X-2799356Y2096473D01*
G01X-2814010Y2091053D01*
G01X-2826990Y2082355D01*
G01X-2837574Y2070862D01*
G01X-2845175Y2057211D01*
G01X-2849371Y2042160D01*
G01X-2887980Y2042160D01*
G01X-2887980Y3558540D01*
G01X-2311400Y3558540D01*
G01X-2311400Y2042160D01*
G37*
G36*
G01X-3075940Y1996186D02*
G01X-3065522Y1997735D01*
G01X-3056005Y2002247D01*
G01X-3048212Y2009333D01*
G01X-3042817Y2018379D01*
G01X-3040287Y2028603D01*
G01X-2933793Y2028603D01*
G01X-2931527Y2019042D01*
G01X-2926749Y2010456D01*
G01X-2919817Y2003491D01*
G01X-2925417Y1993131D01*
G01X-2927354Y1981513D01*
G01X-2927354Y1731514D01*
G01X-2926290Y1722849D01*
G01X-2923161Y1714700D01*
G01X-2918154Y1707549D01*
G01X-2918154Y1687435D01*
G01X-3039705Y1687435D01*
G01X-3046774Y1701968D01*
G01X-3057201Y1714317D01*
G01X-3070343Y1723722D01*
G01X-3085395Y1729607D01*
G01X-3101432Y1731609D01*
G01X-3117469Y1729607D01*
G01X-3132521Y1723722D01*
G01X-3145663Y1714317D01*
G01X-3156090Y1701968D01*
G01X-3163159Y1687435D01*
G01X-3166705Y1687435D01*
G01X-3173774Y1701968D01*
G01X-3184201Y1714317D01*
G01X-3197343Y1723722D01*
G01X-3212395Y1729607D01*
G01X-3228432Y1731609D01*
G01X-3244469Y1729607D01*
G01X-3259521Y1723722D01*
G01X-3272663Y1714317D01*
G01X-3283090Y1701968D01*
G01X-3290159Y1687435D01*
G01X-3293705Y1687435D01*
G01X-3294218Y1688884D01*
G01X-3294218Y1709430D01*
G01X-3282211Y1719262D01*
G01X-3272818Y1731615D01*
G01X-3266554Y1745813D01*
G01X-3263760Y1761078D01*
G01X-3264591Y1776574D01*
G01X-3269001Y1791453D01*
G01X-3276748Y1804900D01*
G01X-3287408Y1816178D01*
G01X-3300397Y1824670D01*
G01X-3315004Y1829910D01*
G01X-3330429Y1831612D01*
G01X-3345827Y1829683D01*
G01X-3360356Y1824227D01*
G01X-3373218Y1815545D01*
G01X-3383710Y1804111D01*
G01X-3391258Y1790552D01*
G01X-3395818Y1785992D01*
G01X-3395818Y1903204D01*
G01X-3334355Y1964666D01*
G01X-3326709Y1973993D01*
G01X-3321040Y1984637D01*
G01X-3317567Y1996186D01*
G01X-3075940Y1996186D01*
G37*
G36*
G01X-3086100Y2042160D02*
G01X-3493009Y2042160D01*
G01X-3497205Y2057211D01*
G01X-3504806Y2070862D01*
G01X-3515390Y2082355D01*
G01X-3528370Y2091053D01*
G01X-3543024Y2096473D01*
G01X-3558540Y2098314D01*
G01X-3574056Y2096473D01*
G01X-3588710Y2091053D01*
G01X-3601690Y2082355D01*
G01X-3612274Y2070862D01*
G01X-3619875Y2057211D01*
G01X-3624071Y2042160D01*
G01X-3662680Y2042160D01*
G01X-3662680Y3558540D01*
G01X-3086100Y3558540D01*
G01X-3086100Y2042160D01*
G37*
G36*
G01X-3850640Y1996186D02*
G01X-3840222Y1997735D01*
G01X-3830705Y2002247D01*
G01X-3822912Y2009333D01*
G01X-3817517Y2018379D01*
G01X-3814987Y2028603D01*
G01X-3708493Y2028603D01*
G01X-3706227Y2019042D01*
G01X-3701449Y2010456D01*
G01X-3694517Y2003491D01*
G01X-3700117Y1993131D01*
G01X-3702054Y1981513D01*
G01X-3702054Y1731514D01*
G01X-3700990Y1722849D01*
G01X-3697861Y1714700D01*
G01X-3692854Y1707549D01*
G01X-3692854Y1687435D01*
G01X-3814405Y1687435D01*
G01X-3821474Y1701968D01*
G01X-3831901Y1714317D01*
G01X-3845043Y1723722D01*
G01X-3860095Y1729607D01*
G01X-3876132Y1731609D01*
G01X-3892169Y1729607D01*
G01X-3907221Y1723722D01*
G01X-3920363Y1714317D01*
G01X-3930790Y1701968D01*
G01X-3937859Y1687435D01*
G01X-3941405Y1687435D01*
G01X-3948474Y1701968D01*
G01X-3958901Y1714317D01*
G01X-3972043Y1723722D01*
G01X-3987095Y1729607D01*
G01X-4003132Y1731609D01*
G01X-4019169Y1729607D01*
G01X-4034221Y1723722D01*
G01X-4047363Y1714317D01*
G01X-4057790Y1701968D01*
G01X-4064859Y1687435D01*
G01X-4068405Y1687435D01*
G01X-4068918Y1688884D01*
G01X-4068918Y1709430D01*
G01X-4056911Y1719262D01*
G01X-4047518Y1731615D01*
G01X-4041254Y1745813D01*
G01X-4038460Y1761078D01*
G01X-4039291Y1776574D01*
G01X-4043701Y1791453D01*
G01X-4051448Y1804900D01*
G01X-4062108Y1816178D01*
G01X-4075097Y1824670D01*
G01X-4089704Y1829910D01*
G01X-4105129Y1831612D01*
G01X-4120527Y1829683D01*
G01X-4135056Y1824227D01*
G01X-4147918Y1815545D01*
G01X-4158410Y1804111D01*
G01X-4165958Y1790552D01*
G01X-4170518Y1785992D01*
G01X-4170518Y1903204D01*
G01X-4109055Y1964666D01*
G01X-4101409Y1973993D01*
G01X-4095740Y1984637D01*
G01X-4092267Y1996186D01*
G01X-3850640Y1996186D01*
G37*
G36*
G01X-3860800Y2042160D02*
G01X-4267709Y2042160D01*
G01X-4271905Y2057211D01*
G01X-4279506Y2070862D01*
G01X-4290090Y2082355D01*
G01X-4303070Y2091053D01*
G01X-4317724Y2096473D01*
G01X-4333240Y2098314D01*
G01X-4348756Y2096473D01*
G01X-4363410Y2091053D01*
G01X-4376390Y2082355D01*
G01X-4386974Y2070862D01*
G01X-4394575Y2057211D01*
G01X-4398771Y2042160D01*
G01X-4437380Y2042160D01*
G01X-4437380Y3558540D01*
G01X-3860800Y3558540D01*
G01X-3860800Y2042160D01*
G37*
G36*
G01X-1440094Y-1862905D02*
G01X-1438158Y-1874520D01*
G01X-1432559Y-1884880D01*
G01X-1432559Y-2186811D01*
G01X-1431785Y-2190699D01*
G01X-1429583Y-2193995D01*
G01X-1229614Y-2393964D01*
G01X-1229614Y-2588143D01*
G01X-1228394Y-2597412D01*
G01X-1224816Y-2606050D01*
G01X-1219124Y-2613467D01*
G01X-1024320Y-2808272D01*
G01X-1031677Y-2815628D01*
G01X-2230572Y-2815628D01*
G01X-2230572Y-1804765D01*
G01X-1953594Y-1804765D01*
G01X-1953594Y-1904765D01*
G01X-1951753Y-1923457D01*
G01X-1946301Y-1941431D01*
G01X-1937446Y-1957996D01*
G01X-1925531Y-1972516D01*
G01X-1911011Y-1984431D01*
G01X-1894447Y-1993286D01*
G01X-1876472Y-1998738D01*
G01X-1857780Y-2000579D01*
G01X-1839088Y-1998738D01*
G01X-1821114Y-1993286D01*
G01X-1804549Y-1984431D01*
G01X-1790029Y-1972516D01*
G01X-1778114Y-1957996D01*
G01X-1769260Y-1941431D01*
G01X-1763807Y-1923457D01*
G01X-1761966Y-1904765D01*
G01X-1761966Y-1904765D01*
G01X-1761966Y-1804765D01*
G01X-1763807Y-1786073D01*
G01X-1769260Y-1768099D01*
G01X-1778114Y-1751534D01*
G01X-1790029Y-1737015D01*
G01X-1804549Y-1725099D01*
G01X-1821114Y-1716245D01*
G01X-1839088Y-1710792D01*
G01X-1857780Y-1708951D01*
G01X-1876472Y-1710792D01*
G01X-1894447Y-1716245D01*
G01X-1911011Y-1725099D01*
G01X-1925531Y-1737015D01*
G01X-1937446Y-1751534D01*
G01X-1946301Y-1768099D01*
G01X-1951753Y-1786073D01*
G01X-1953594Y-1804765D01*
G01X-2230572Y-1804765D01*
G01X-2230572Y-1561128D01*
G01X-2044662Y-1430025D01*
G01X-1432559Y-1430025D01*
G01X-1432559Y-1785928D01*
G01X-1438158Y-1796288D01*
G01X-1440094Y-1807903D01*
G01X-1440094Y-1862905D01*
G37*
G36*
G01X-1183640Y-2583934D02*
G01X-1183640Y-1988031D01*
G01X-1174369Y-1992264D01*
G01X-1164280Y-1993715D01*
G01X-1044280Y-1993715D01*
G01X-1038147Y-1993186D01*
G01X-1032195Y-1991614D01*
G01X-1015726Y-1991614D01*
G01X-1007440Y-1992586D01*
G01X-987427Y-1992586D01*
G01X-980440Y-1992986D01*
G01X-962535Y-1992986D01*
G01X-957109Y-2001913D01*
G01X-949337Y-2008894D01*
G01X-939881Y-2013335D01*
G01X-929546Y-2014859D01*
G01X-829546Y-2014859D01*
G01X-819847Y-2013520D01*
G01X-810873Y-2009605D01*
G01X-803295Y-2003406D01*
G01X-797678Y-1995387D01*
G01X-791312Y-1999597D01*
G01X-791312Y-2051690D01*
G01X-793212Y-2063200D01*
G01X-793212Y-2153200D01*
G01X-791459Y-2164267D01*
G01X-786372Y-2174251D01*
G01X-778448Y-2182174D01*
G01X-768465Y-2187261D01*
G01X-757398Y-2189014D01*
G01X-677398Y-2189014D01*
G01X-666331Y-2187261D01*
G01X-656347Y-2182174D01*
G01X-648424Y-2174251D01*
G01X-643337Y-2164267D01*
G01X-641584Y-2153200D01*
G01X-641584Y-2063200D01*
G01X-643484Y-2051690D01*
G01X-643484Y-2014859D01*
G01X-599549Y-2014859D01*
G01X-588482Y-2013106D01*
G01X-578498Y-2008019D01*
G01X-570575Y-2000096D01*
G01X-565488Y-1990112D01*
G01X-563735Y-1979045D01*
G01X-563735Y-1709045D01*
G01X-565129Y-1699152D01*
G01X-569201Y-1690029D01*
G01X-575635Y-1682385D01*
G01X-575635Y-1673860D01*
G01X-413658Y-1673860D01*
G01X-362319Y-1725199D01*
G01X-373091Y-1742299D01*
G01X-380755Y-1760999D01*
G01X-385081Y-1780741D01*
G01X-385940Y-1800933D01*
G01X-383305Y-1820971D01*
G01X-377256Y-1840255D01*
G01X-367973Y-1858207D01*
G01X-355735Y-1874291D01*
G01X-340908Y-1888024D01*
G01X-323936Y-1898997D01*
G01X-305326Y-1906880D01*
G01X-285637Y-1911437D01*
G01X-265456Y-1912532D01*
G01X-245389Y-1910132D01*
G01X-226036Y-1904310D01*
G01X-207976Y-1895239D01*
G01X-191749Y-1883190D01*
G01X-177843Y-1868526D01*
G01X-73660Y-1972708D01*
G01X-73660Y-2434192D01*
G01X-423308Y-2783840D01*
G01X-983734Y-2783840D01*
G01X-1183640Y-2583934D01*
G37*
G36*
G01X2249707Y-3568700D02*
G01X2250632Y-3576785D01*
G01X2253357Y-3584452D01*
G01X2257743Y-3591306D01*
G01X-2259214Y-3591306D01*
G01X-2254603Y-3584338D01*
G01X-2251731Y-3576491D01*
G01X-2250757Y-3568192D01*
G01X-2250757Y-3315546D01*
G01X1026503Y-3315546D01*
G01X1026503Y-3395546D01*
G01X1028378Y-3413387D01*
G01X1033922Y-3430449D01*
G01X1042892Y-3445986D01*
G01X1054896Y-3459318D01*
G01X1069410Y-3469863D01*
G01X1085799Y-3477160D01*
G01X1103347Y-3480889D01*
G01X1121287Y-3480889D01*
G01X1138835Y-3477160D01*
G01X1155224Y-3469863D01*
G01X1169738Y-3459318D01*
G01X1181742Y-3445986D01*
G01X1190712Y-3430449D01*
G01X1196255Y-3413387D01*
G01X1198131Y-3395546D01*
G01X1198131Y-3315546D01*
G01X1890509Y-3315546D01*
G01X1890509Y-3395546D01*
G01X1892385Y-3413387D01*
G01X1897928Y-3430449D01*
G01X1906898Y-3445986D01*
G01X1918902Y-3459318D01*
G01X1933416Y-3469863D01*
G01X1949805Y-3477160D01*
G01X1967353Y-3480889D01*
G01X1985293Y-3480889D01*
G01X2002841Y-3477160D01*
G01X2019230Y-3469863D01*
G01X2033744Y-3459318D01*
G01X2045748Y-3445986D01*
G01X2054718Y-3430449D01*
G01X2060262Y-3413387D01*
G01X2062137Y-3395546D01*
G01X2062137Y-3315546D01*
G01X2060262Y-3297704D01*
G01X2054718Y-3280642D01*
G01X2045748Y-3265106D01*
G01X2033744Y-3251774D01*
G01X2019230Y-3241229D01*
G01X2002841Y-3233932D01*
G01X1985293Y-3230202D01*
G01X1967353Y-3230202D01*
G01X1949805Y-3233932D01*
G01X1933416Y-3241229D01*
G01X1918902Y-3251774D01*
G01X1906898Y-3265106D01*
G01X1897928Y-3280642D01*
G01X1892385Y-3297704D01*
G01X1890509Y-3315546D01*
G01X1890509Y-3315546D01*
G01X1198131Y-3315546D01*
G01X1196255Y-3297704D01*
G01X1190712Y-3280642D01*
G01X1181742Y-3265106D01*
G01X1169738Y-3251774D01*
G01X1155224Y-3241229D01*
G01X1138835Y-3233932D01*
G01X1121287Y-3230202D01*
G01X1103347Y-3230202D01*
G01X1085799Y-3233932D01*
G01X1069410Y-3241229D01*
G01X1054896Y-3251774D01*
G01X1042892Y-3265106D01*
G01X1033922Y-3280642D01*
G01X1028378Y-3297704D01*
G01X1026503Y-3315546D01*
G01X1026503Y-3315546D01*
G01X-2250757Y-3315546D01*
G01X-2250757Y-2907792D01*
G01X-2252148Y-2899100D01*
G01X-372200Y-2899100D01*
G01X-372200Y-3019100D01*
G01X-370365Y-3040079D01*
G01X-364914Y-3060421D01*
G01X-356014Y-3079507D01*
G01X-343935Y-3096758D01*
G01X-329044Y-3111649D01*
G01X-311793Y-3123728D01*
G01X-292707Y-3132628D01*
G01X-272365Y-3138078D01*
G01X-251386Y-3139914D01*
G01X-230407Y-3138078D01*
G01X-210066Y-3132628D01*
G01X-190979Y-3123728D01*
G01X-173729Y-3111649D01*
G01X-158838Y-3096758D01*
G01X-146758Y-3079507D01*
G01X-137858Y-3060421D01*
G01X-132408Y-3040079D01*
G01X-130573Y-3019100D01*
G01X-130573Y-2899100D01*
G01X-132408Y-2878121D01*
G01X-137858Y-2857779D01*
G01X-146758Y-2838693D01*
G01X-158838Y-2821442D01*
G01X-173729Y-2806551D01*
G01X-190979Y-2794472D01*
G01X-210066Y-2785572D01*
G01X-230407Y-2780122D01*
G01X-251386Y-2778286D01*
G01X-272365Y-2780122D01*
G01X-292707Y-2785572D01*
G01X-311793Y-2794472D01*
G01X-329044Y-2806551D01*
G01X-343935Y-2821442D01*
G01X-356014Y-2838693D01*
G01X-364914Y-2857779D01*
G01X-370365Y-2878121D01*
G01X-372200Y-2899100D01*
G01X-372200Y-2899100D01*
G01X-2252148Y-2899100D01*
G01X-2252547Y-2896612D01*
G01X-2257738Y-2886549D01*
G01X-2265811Y-2878609D01*
G01X-2275959Y-2873587D01*
G01X-2275959Y-2738120D01*
G01X-1094472Y-2738120D01*
G01X-1013267Y-2819324D01*
G01X-1005850Y-2825016D01*
G01X-997212Y-2828594D01*
G01X-987943Y-2829814D01*
G01X-419100Y-2829814D01*
G01X-409831Y-2828594D01*
G01X-401193Y-2825016D01*
G01X-393776Y-2819324D01*
G01X-312571Y-2738120D01*
G01X114016Y-2738120D01*
G01X114016Y-2778357D01*
G01X115836Y-2789631D01*
G01X121113Y-2799758D01*
G01X129309Y-2807709D01*
G01X129309Y-2830305D01*
G01X120066Y-2846077D01*
G01X113309Y-2863062D01*
G01X109192Y-2880872D01*
G01X107809Y-2899100D01*
G01X107809Y-3019100D01*
G01X109644Y-3040079D01*
G01X115095Y-3060421D01*
G01X123995Y-3079507D01*
G01X136074Y-3096758D01*
G01X150965Y-3111649D01*
G01X168216Y-3123728D01*
G01X187302Y-3132628D01*
G01X207644Y-3138078D01*
G01X228623Y-3139914D01*
G01X249602Y-3138078D01*
G01X269944Y-3132628D01*
G01X289030Y-3123728D01*
G01X306280Y-3111649D01*
G01X321172Y-3096758D01*
G01X333251Y-3079507D01*
G01X342151Y-3060421D01*
G01X347601Y-3040079D01*
G01X349437Y-3019100D01*
G01X349437Y-2899100D01*
G01X587793Y-2899100D01*
G01X587793Y-3019100D01*
G01X589628Y-3040079D01*
G01X595079Y-3060421D01*
G01X603979Y-3079507D01*
G01X616058Y-3096758D01*
G01X630949Y-3111649D01*
G01X648200Y-3123728D01*
G01X667286Y-3132628D01*
G01X687628Y-3138078D01*
G01X708607Y-3139914D01*
G01X729586Y-3138078D01*
G01X749927Y-3132628D01*
G01X769014Y-3123728D01*
G01X786264Y-3111649D01*
G01X801155Y-3096758D01*
G01X813235Y-3079507D01*
G01X822135Y-3060421D01*
G01X827585Y-3040079D01*
G01X829420Y-3019100D01*
G01X829420Y-2899100D01*
G01X827585Y-2878121D01*
G01X822135Y-2857779D01*
G01X813235Y-2838693D01*
G01X801155Y-2821442D01*
G01X786264Y-2806551D01*
G01X769014Y-2794472D01*
G01X749927Y-2785572D01*
G01X729586Y-2780122D01*
G01X708607Y-2778286D01*
G01X687628Y-2780122D01*
G01X667286Y-2785572D01*
G01X648200Y-2794472D01*
G01X630949Y-2806551D01*
G01X616058Y-2821442D01*
G01X603979Y-2838693D01*
G01X595079Y-2857779D01*
G01X589628Y-2878121D01*
G01X587793Y-2899100D01*
G01X587793Y-2899100D01*
G01X349437Y-2899100D01*
G01X348054Y-2880872D01*
G01X343937Y-2863062D01*
G01X337179Y-2846077D01*
G01X327937Y-2830305D01*
G01X327937Y-2815971D01*
G01X444525Y-2815971D01*
G01X461423Y-2814307D01*
G01X477671Y-2809378D01*
G01X492646Y-2801374D01*
G01X505771Y-2790602D01*
G01X544558Y-2751815D01*
G01X554587Y-2749875D01*
G01X563660Y-2745183D01*
G01X571040Y-2738120D01*
G01X859866Y-2738120D01*
G01X859866Y-2762731D01*
G01X861619Y-2773798D01*
G01X866706Y-2783782D01*
G01X874629Y-2791705D01*
G01X884613Y-2796792D01*
G01X895680Y-2798545D01*
G01X997425Y-2798545D01*
G01X1040085Y-2841206D01*
G01X1032632Y-2855690D01*
G01X1028049Y-2871322D01*
G01X1026503Y-2887538D01*
G01X1026503Y-2987538D01*
G01X1028404Y-3005502D01*
G01X1034024Y-3022670D01*
G01X1043114Y-3038282D01*
G01X1055270Y-3051644D01*
G01X1069954Y-3062166D01*
G01X1086515Y-3069381D01*
G01X1104220Y-3072969D01*
G01X1122283Y-3072771D01*
G01X1139905Y-3068796D01*
G01X1156305Y-3061220D01*
G01X1170755Y-3050379D01*
G01X1182615Y-3036753D01*
G01X1191360Y-3020947D01*
G01X1200120Y-3034909D01*
G01X1211870Y-3046468D01*
G01X1225974Y-3054997D01*
G01X1241668Y-3060035D01*
G01X1258101Y-3061308D01*
G01X1274384Y-3058748D01*
G01X1289634Y-3052494D01*
G01X1303024Y-3042883D01*
G01X1314711Y-3051763D01*
G01X1328065Y-3057854D01*
G01X1342432Y-3060859D01*
G01X1357108Y-3060629D01*
G01X1371374Y-3057177D01*
G01X1384531Y-3050671D01*
G01X1395935Y-3041431D01*
G01X1405027Y-3029908D01*
G01X1411361Y-3016667D01*
G01X1414627Y-3002357D01*
G01X1414666Y-2987680D01*
G01X1411475Y-2973353D01*
G01X1432307Y-2973353D01*
G01X1435009Y-2976288D01*
G01X1454025Y-2995304D01*
G01X1456077Y-3009883D01*
G01X1461295Y-3023650D01*
G01X1469421Y-3035926D01*
G01X1480057Y-3046107D01*
G01X1492676Y-3053691D01*
G01X1506657Y-3058303D01*
G01X1521312Y-3059716D01*
G01X1535917Y-3057862D01*
G01X1549753Y-3052830D01*
G01X1562138Y-3044870D01*
G01X1572462Y-3034373D01*
G01X1580215Y-3021857D01*
G01X1585015Y-3007939D01*
G01X1586626Y-2993305D01*
G01X1604025Y-2975907D01*
G01X1606401Y-2973353D01*
G01X1634326Y-2973353D01*
G01X1644307Y-2971934D01*
G01X1654288Y-2973353D01*
G01X1675193Y-2973353D01*
G01X1672722Y-2987424D01*
G01X1673322Y-3001698D01*
G01X1676965Y-3015512D01*
G01X1683483Y-3028225D01*
G01X1692572Y-3039248D01*
G01X1703811Y-3048067D01*
G01X1716678Y-3054275D01*
G01X1730576Y-3057583D01*
G01X1744860Y-3057837D01*
G01X1758868Y-3055026D01*
G01X1771948Y-3049281D01*
G01X1783493Y-3040867D01*
G01X1796788Y-3051212D01*
G01X1812151Y-3058124D01*
G01X1828711Y-3061213D01*
G01X1845533Y-3060302D01*
G01X1861663Y-3055444D01*
G01X1876189Y-3046914D01*
G01X1888290Y-3035193D01*
G01X1897280Y-3020947D01*
G01X1906025Y-3036753D01*
G01X1917885Y-3050379D01*
G01X1932335Y-3061220D01*
G01X1948735Y-3068796D01*
G01X1966357Y-3072771D01*
G01X1984420Y-3072969D01*
G01X2002125Y-3069381D01*
G01X2018686Y-3062166D01*
G01X2033370Y-3051644D01*
G01X2045526Y-3038282D01*
G01X2054616Y-3022670D01*
G01X2060236Y-3005502D01*
G01X2062137Y-2987538D01*
G01X2062137Y-2887538D01*
G01X2060365Y-2870187D01*
G01X2055121Y-2853553D01*
G01X2046621Y-2838322D01*
G01X2035218Y-2825125D01*
G01X2021383Y-2814506D01*
G01X2005685Y-2806904D01*
G01X1988775Y-2802632D01*
G01X1971351Y-2801868D01*
G01X1954131Y-2804643D01*
G01X1940535Y-2797779D01*
G01X1940535Y-2792432D01*
G01X1947432Y-2784678D01*
G01X1951816Y-2775272D01*
G01X1953320Y-2765003D01*
G01X1953320Y-2738120D01*
G01X2270414Y-2738120D01*
G01X2270414Y-2875828D01*
G01X2261925Y-2881358D01*
G01X2255324Y-2889044D01*
G01X2251140Y-2898271D01*
G01X2249707Y-2908300D01*
G01X2249707Y-3568700D01*
G37*
G36*
G01X-2301240Y1996186D02*
G01X-2290822Y1997735D01*
G01X-2281305Y2002247D01*
G01X-2273512Y2009333D01*
G01X-2268117Y2018379D01*
G01X-2265587Y2028603D01*
G01X-2059920Y2028603D01*
G01X-2059920Y1712835D01*
G01X-2280947Y1712835D01*
G01X-2292317Y1721789D01*
G01X-2305381Y1728015D01*
G01X-2319496Y1731207D01*
G01X-2333968Y1731207D01*
G01X-2348083Y1728015D01*
G01X-2361147Y1721789D01*
G01X-2372517Y1712835D01*
G01X-2407947Y1712835D01*
G01X-2419317Y1721789D01*
G01X-2432381Y1728015D01*
G01X-2446496Y1731207D01*
G01X-2460968Y1731207D01*
G01X-2475083Y1728015D01*
G01X-2488147Y1721789D01*
G01X-2499517Y1712835D01*
G01X-2514682Y1712835D01*
G01X-2503832Y1723410D01*
G01X-2495665Y1736173D01*
G01X-2490609Y1750455D01*
G01X-2488926Y1765513D01*
G01X-2490705Y1780559D01*
G01X-2495853Y1794809D01*
G01X-2504102Y1807519D01*
G01X-2515019Y1818024D01*
G01X-2528037Y1825778D01*
G01X-2542474Y1830374D01*
G01X-2557578Y1831573D01*
G01X-2572559Y1829312D01*
G01X-2586637Y1823710D01*
G01X-2599076Y1815059D01*
G01X-2609226Y1803811D01*
G01X-2616558Y1790552D01*
G01X-2621118Y1785992D01*
G01X-2621118Y1903204D01*
G01X-2559655Y1964666D01*
G01X-2552009Y1973993D01*
G01X-2546340Y1984637D01*
G01X-2542867Y1996186D01*
G01X-2301240Y1996186D01*
G37*
G36*
G01X-1719580Y1741568D02*
G01X-1788030Y1673119D01*
G01X-1786339Y1683993D01*
G01X-1786339Y2033993D01*
G01X-1788092Y2045060D01*
G01X-1793179Y2055044D01*
G01X-1801102Y2062967D01*
G01X-1811086Y2068054D01*
G01X-1822153Y2069807D01*
G01X-1942153Y2069807D01*
G01X-1953220Y2068054D01*
G01X-1963204Y2062967D01*
G01X-1971127Y2055044D01*
G01X-1976214Y2045060D01*
G01X-1977967Y2033993D01*
G01X-1977967Y1683993D01*
G01X-1976214Y1672926D01*
G01X-1971127Y1662942D01*
G01X-1963204Y1655019D01*
G01X-1953220Y1649932D01*
G01X-1942153Y1648179D01*
G01X-1822153Y1648179D01*
G01X-1811278Y1649870D01*
G01X-1853720Y1607429D01*
G01X-2126573Y1607429D01*
G01X-2126573Y2095917D01*
G01X-1808795Y2095917D01*
G01X-1719580Y2006701D01*
G01X-1719580Y1741568D01*
G37*
G36*
G01X-2213230Y3257954D02*
G01X-1977643Y3257954D01*
G01X-1221664Y2501976D01*
G01X-1214247Y2496284D01*
G01X-1205609Y2492706D01*
G01X-1196340Y2491486D01*
G01X-1149730Y2491486D01*
G01X-1149730Y2147166D01*
G01X-2213230Y2147166D01*
G01X-2213230Y3257954D01*
G37*
G36*
G01X-1653160Y2370271D02*
G01X-1653160Y2933471D01*
G01X-1221664Y2501976D01*
G01X-1214247Y2496284D01*
G01X-1205609Y2492706D01*
G01X-1196340Y2491486D01*
G01X1183640Y2491486D01*
G01X1192909Y2492706D01*
G01X1201547Y2496284D01*
G01X1208964Y2501976D01*
G01X1999233Y3292244D01*
G01X2173860Y3292244D01*
G01X2173860Y2447668D01*
G01X1643488Y1917296D01*
G01X-817750Y1917296D01*
G01X-821638Y1916523D01*
G01X-824934Y1914320D01*
G01X-1149215Y1590040D01*
G01X-1583292Y1590040D01*
G01X-1645920Y1652668D01*
G01X-1645920Y2047240D01*
G01X-1646693Y2051128D01*
G01X-1648896Y2054424D01*
G01X-1753132Y2158661D01*
G01X-1756428Y2160863D01*
G01X-1760316Y2161636D01*
G01X-1857586Y2161636D01*
G01X-1656135Y2363087D01*
G01X-1653933Y2366383D01*
G01X-1653160Y2370271D01*
G37*
G36*
G01X-1093971Y-1638376D02*
G01X-1111675Y-1656080D01*
G01X-1305560Y-1656080D01*
G01X-1309448Y-1656853D01*
G01X-1312744Y-1659056D01*
G01X-1443961Y-1790272D01*
G01X-1446163Y-1793568D01*
G01X-1446936Y-1797456D01*
G01X-1446936Y-2082206D01*
G01X-1504300Y-2139570D01*
G01X-2222500Y-2139570D01*
G01X-2222500Y-1804765D01*
G01X-1953594Y-1804765D01*
G01X-1953594Y-1904765D01*
G01X-1951753Y-1923457D01*
G01X-1946301Y-1941431D01*
G01X-1937446Y-1957996D01*
G01X-1925531Y-1972516D01*
G01X-1911011Y-1984431D01*
G01X-1894447Y-1993286D01*
G01X-1876472Y-1998738D01*
G01X-1857780Y-2000579D01*
G01X-1839088Y-1998738D01*
G01X-1821114Y-1993286D01*
G01X-1804549Y-1984431D01*
G01X-1790029Y-1972516D01*
G01X-1778114Y-1957996D01*
G01X-1769260Y-1941431D01*
G01X-1763807Y-1923457D01*
G01X-1761966Y-1904765D01*
G01X-1761966Y-1904765D01*
G01X-1761966Y-1804765D01*
G01X-1763807Y-1786073D01*
G01X-1769260Y-1768099D01*
G01X-1778114Y-1751534D01*
G01X-1790029Y-1737015D01*
G01X-1804549Y-1725099D01*
G01X-1821114Y-1716245D01*
G01X-1839088Y-1710792D01*
G01X-1857780Y-1708951D01*
G01X-1876472Y-1710792D01*
G01X-1894447Y-1716245D01*
G01X-1911011Y-1725099D01*
G01X-1925531Y-1737015D01*
G01X-1937446Y-1751534D01*
G01X-1946301Y-1768099D01*
G01X-1951753Y-1786073D01*
G01X-1953594Y-1804765D01*
G01X-2222500Y-1804765D01*
G01X-2222500Y-1684020D01*
G01X-1930400Y-1684020D01*
G01X-1926512Y-1683247D01*
G01X-1923216Y-1681044D01*
G01X-1613336Y-1371164D01*
G01X-1611133Y-1367868D01*
G01X-1610360Y-1363980D01*
G01X-1610360Y208280D01*
G01X-1611133Y212168D01*
G01X-1613336Y215464D01*
G01X-1767840Y369968D01*
G01X-1767840Y1560432D01*
G01X-1347072Y1981200D01*
G01X607060Y1981200D01*
G01X607060Y1896508D01*
G01X455786Y1745234D01*
G01X198831Y1745234D01*
G01X186945Y1744520D01*
G01X175229Y1742389D01*
G01X152451Y1742389D01*
G01X148563Y1741615D01*
G01X145267Y1739413D01*
G01X18754Y1612900D01*
G01X-617220Y1612900D01*
G01X-621108Y1612127D01*
G01X-624404Y1609924D01*
G01X-894510Y1339818D01*
G01X-896713Y1336522D01*
G01X-897486Y1332634D01*
G01X-897486Y-1445029D01*
G01X-1083626Y-1631169D01*
G01X-1089118Y-1634314D01*
G01X-1093971Y-1638376D01*
G37*
G54D10*
G01X-4221245Y-1995678D02*
G01X-4457011Y-1995678D01*
G01X-4457011Y-1728077D01*
G03X-4381561Y-1699609I19631J62190D01*
G01X-4366199Y-1699609D01*
G03X-4307846Y-1731052I55819J33722D01*
G03X-4251356Y-1789788I65954J6900D01*
G03X-4180574Y-1749404I9464J65635D01*
G01X-4156453Y-1725283D01*
G03X-4142994Y-1717091I-26927J59396D01*
G01X-4142994Y-1902696D01*
G01X-4204457Y-1964159D01*
G03X-4221245Y-1995678I43285J-43285D01*
G01X4097347Y-1996186D02*
G01X3861581Y-1996186D01*
G01X3861581Y-1728584D01*
G03X3937031Y-1700117I19631J62190D01*
G01X3952393Y-1700117D01*
G03X3998804Y-1730927I55819J33722D01*
G03X4057157Y-1784760I65196J12127D01*
G03X4125318Y-1744052I6843J65960D01*
G01X4137813Y-1731557D01*
G03X4175598Y-1717599I-2601J65163D01*
G01X4175598Y-1903204D01*
G01X4114135Y-1964666D01*
G03X4097347Y-1996186I43285J-43285D01*
G01X3322749Y-1995678D02*
G01X3086881Y-1995678D01*
G01X3086881Y-1728584D01*
G03X3162331Y-1700117I19631J62190D01*
G01X3177693Y-1700117D01*
G03X3215443Y-1729056I55819J33722D01*
G03X3267241Y-1796983I66237J-3204D01*
G03X3342998Y-1757512I14439J64723D01*
G01X3369527Y-1730983D01*
G03X3400898Y-1717599I-9015J64588D01*
G01X3400898Y-1903204D01*
G01X3339435Y-1964666D01*
G03X3322749Y-1995678I43285J-43285D01*
G01X2548049Y-1995678D02*
G01X2312181Y-1995678D01*
G01X2312181Y-1728584D01*
G03X2387631Y-1700117I19631J62190D01*
G01X2402993Y-1700117D01*
G03X2461346Y-1731560I55819J33722D01*
G03X2517836Y-1790295I65954J6900D01*
G03X2588618Y-1749912I9464J65635D01*
G01X2612739Y-1725790D01*
G03X2626198Y-1717599I-26927J59396D01*
G01X2626198Y-1903204D01*
G01X2564735Y-1964666D01*
G03X2548049Y-1995678I43285J-43285D01*
G01X4462780Y1996186D02*
G03X4498433Y2028603I0J35814D01*
G01X4599686Y2028603D01*
G01X4599686Y1687435D01*
G01X4499015Y1687435D01*
G03X4375561Y1687435I-61727J-21040D01*
G01X4372015Y1687435D01*
G03X4248561Y1687435I-61727J-21040D01*
G01X4245015Y1687435D01*
G01X4244502Y1688884D01*
G01X4244502Y1709430D01*
G03X4251312Y1816178I-35722J55870D01*
G03X4147462Y1790552I-42532J-50878D01*
G01X4142902Y1785992D01*
G01X4142902Y1903204D01*
G01X4204365Y1964666D01*
G03X4221153Y1996186I-43285J43285D01*
G01X4462780Y1996186D01*
G01X2913380Y1996186D02*
G03X2949033Y2028603I0J35814D01*
G01X3055527Y2028603D01*
G03X3069503Y2003491I35653J3397D01*
G03X3061966Y1981513I28277J-21978D01*
G01X3061966Y1731514D01*
G03X3069815Y1709140I35814J0D01*
G01X3069815Y1687435D01*
G01X2949615Y1687435D01*
G03X2826161Y1687435I-61727J-21040D01*
G01X2822615Y1687435D01*
G03X2699161Y1687435I-61727J-21040D01*
G01X2695615Y1687435D01*
G01X2695102Y1688884D01*
G01X2695102Y1709430D01*
G03X2701912Y1816178I-35722J55870D01*
G03X2598062Y1790552I-42532J-50878D01*
G01X2593502Y1785992D01*
G01X2593502Y1903204D01*
G01X2654965Y1964666D01*
G03X2671753Y1996186I-43285J43285D01*
G01X2913380Y1996186D01*
G01X3688080Y1996186D02*
G03X3723733Y2028603I0J35814D01*
G01X3830227Y2028603D01*
G03X3844203Y2003491I35653J3397D01*
G03X3836666Y1981513I28277J-21978D01*
G01X3836666Y1731514D01*
G03X3844515Y1709140I35814J0D01*
G01X3844515Y1687435D01*
G01X3724315Y1687435D01*
G03X3600861Y1687435I-61727J-21040D01*
G01X3597315Y1687435D01*
G03X3473861Y1687435I-61727J-21040D01*
G01X3470315Y1687435D01*
G01X3469802Y1688884D01*
G01X3469802Y1709430D01*
G03X3476612Y1816178I-35722J55870D01*
G03X3372762Y1790552I-42532J-50878D01*
G01X3368202Y1785992D01*
G01X3368202Y1903204D01*
G01X3429665Y1964666D01*
G03X3446453Y1996186I-43285J43285D01*
G01X3688080Y1996186D01*
G01X2528229Y-2041652D02*
G01X2723312Y-2041652D01*
G03X2854528Y-2041652I65608J9652D01*
G01X2892968Y-2041652D01*
G01X2892968Y-3558032D01*
G01X2316388Y-3558032D01*
G01X2316388Y-2041652D01*
G01X2455251Y-2041652D01*
G03X2528229Y-2041652I36489J55372D01*
G01X3091088Y-2041652D02*
G01X3287441Y-2041652D01*
G03X3341959Y-2041652I27259J60452D01*
G01X3498012Y-2041652D01*
G03X3629228Y-2041652I65608J9652D01*
G01X3667668Y-2041652D01*
G01X3667668Y-3558032D01*
G01X3091088Y-3558032D01*
G01X3091088Y-2041652D01*
G01X-2903312Y-3558032D02*
G01X-2903312Y-2086751D01*
G01X-2552772Y-2086751D01*
G03X-2516958Y-2050937I0J35814D01*
G01X-2516958Y-2041652D01*
G01X-2496403Y-2041652D01*
G03X-2365341Y-2041652I65531J10160D01*
G01X-2326732Y-2041652D01*
G01X-2326732Y-3558032D01*
G01X-2903312Y-3558032D01*
G01X-3678012Y-3558032D02*
G01X-3678012Y-2086751D01*
G01X-3327472Y-2086751D01*
G03X-3291658Y-2050937I0J35814D01*
G01X-3291658Y-2041652D01*
G01X-3271103Y-2041652D01*
G03X-3140041Y-2041652I65531J10160D01*
G01X-3101432Y-2041652D01*
G01X-3101432Y-3558032D01*
G01X-3678012Y-3558032D01*
G01X-2907611Y-2040777D02*
G01X-2907611Y-1728077D01*
G03X-2832161Y-1699609I19631J62190D01*
G01X-2816799Y-1699609D01*
G03X-2770388Y-1730419I55819J33722D01*
G03X-2712035Y-1784253I65196J12127D01*
G03X-2643874Y-1743544I6843J65960D01*
G01X-2631379Y-1731050D01*
G03X-2593594Y-1717091I-2601J65163D01*
G01X-2593594Y-1902696D01*
G01X-2655057Y-1964159D01*
G03X-2672986Y-2007444I43285J-43285D01*
G01X-2672986Y-2040777D01*
G01X-2684784Y-2040777D01*
G03X-2761159Y-2040777I-38188J-54215D01*
G01X-2907611Y-2040777D01*
G01X-3682311Y-2040777D02*
G01X-3682311Y-1728077D01*
G03X-3606861Y-1699609I19631J62190D01*
G01X-3591499Y-1699609D01*
G03X-3553749Y-1728548I55819J33722D01*
G03X-3501951Y-1796476I66237J-3204D01*
G03X-3426194Y-1757004I14439J64723D01*
G01X-3399665Y-1730475D01*
G03X-3368294Y-1717091I-9015J64588D01*
G01X-3368294Y-1902696D01*
G01X-3429757Y-1964159D01*
G03X-3447686Y-2007444I43285J-43285D01*
G01X-3447686Y-2040777D01*
G01X-3459484Y-2040777D01*
G03X-3535859Y-2040777I-38188J-54215D01*
G01X-3682311Y-2040777D01*
G01X-4241745Y-2041652D02*
G01X-4045803Y-2041652D01*
G03X-3914741Y-2041652I65531J10160D01*
G01X-3876132Y-2041652D01*
G01X-3876132Y-3558032D01*
G01X-4452712Y-3558032D01*
G01X-4452712Y-2041652D01*
G01X-4313159Y-2041652D01*
G03X-4241745Y-2041652I35707J55880D01*
G01X-2903312Y-3558032D02*
G01X-2903312Y-2086751D01*
G01X-2552772Y-2086751D01*
G03X-2516958Y-2050937I0J35814D01*
G01X-2516958Y-2041652D01*
G01X-2496403Y-2041652D01*
G03X-2365341Y-2041652I65531J10160D01*
G01X-2326732Y-2041652D01*
G01X-2326732Y-3558032D01*
G01X-2903312Y-3558032D01*
G01X-3678012Y-3558032D02*
G01X-3678012Y-2086751D01*
G01X-3327472Y-2086751D01*
G03X-3291658Y-2050937I0J35814D01*
G01X-3291658Y-2041652D01*
G01X-3271103Y-2041652D01*
G03X-3140041Y-2041652I65531J10160D01*
G01X-3101432Y-2041652D01*
G01X-3101432Y-3558032D01*
G01X-3678012Y-3558032D01*
G01X4452620Y2042160D02*
G01X4045711Y2042160D01*
G03X3914649Y2042160I-65531J-10160D01*
G01X3876040Y2042160D01*
G01X3876040Y3558540D01*
G01X4452620Y3558540D01*
G01X4452620Y2042160D01*
G01X2903220Y2042160D02*
G01X2496311Y2042160D01*
G03X2365249Y2042160I-65531J-10160D01*
G01X2326640Y2042160D01*
G01X2326640Y3558540D01*
G01X2903220Y3558540D01*
G01X2903220Y2042160D01*
G01X3677920Y2042160D02*
G01X3271011Y2042160D01*
G03X3139949Y2042160I-65531J-10160D01*
G01X3101340Y2042160D01*
G01X3101340Y3558540D01*
G01X3677920Y3558540D01*
G01X3677920Y2042160D01*
G01X2527447Y-2042160D02*
G01X2723389Y-2042160D01*
G03X2854451Y-2042160I65531J10160D01*
G01X2893060Y-2042160D01*
G01X2893060Y-3558540D01*
G01X2316480Y-3558540D01*
G01X2316480Y-2042160D01*
G01X2456033Y-2042160D01*
G03X2527447Y-2042160I35707J55880D01*
G01X3865880Y-2042160D02*
G01X4017381Y-2042160D01*
G03X4080139Y-2042160I31379J58420D01*
G01X4272789Y-2042160D01*
G03X4403851Y-2042160I65531J10160D01*
G01X4442460Y-2042160D01*
G01X4442460Y-3558540D01*
G01X3865880Y-3558540D01*
G01X3865880Y-2042160D01*
G01X3091180Y-2042160D02*
G01X3288596Y-2042160D01*
G03X3340804Y-2042160I26104J60960D01*
G01X3498089Y-2042160D01*
G03X3629151Y-2042160I65531J10160D01*
G01X3667760Y-2042160D01*
G01X3667760Y-3558540D01*
G01X3091180Y-3558540D01*
G01X3091180Y-2042160D01*
G01X-2311400Y2042160D02*
G01X-2718309Y2042160D01*
G03X-2849371Y2042160I-65531J-10160D01*
G01X-2887980Y2042160D01*
G01X-2887980Y3558540D01*
G01X-2311400Y3558540D01*
G01X-2311400Y2042160D01*
G01X-3075940Y1996186D02*
G03X-3040287Y2028603I0J35814D01*
G01X-2933793Y2028603D01*
G03X-2919817Y2003491I35653J3397D01*
G03X-2927354Y1981513I28277J-21978D01*
G01X-2927354Y1731514D01*
G03X-2918154Y1707549I35814J0D01*
G01X-2918154Y1687435D01*
G01X-3039705Y1687435D01*
G03X-3163159Y1687435I-61727J-21040D01*
G01X-3166705Y1687435D01*
G03X-3290159Y1687435I-61727J-21040D01*
G01X-3293705Y1687435D01*
G01X-3294218Y1688884D01*
G01X-3294218Y1709430D01*
G03X-3287408Y1816178I-35722J55870D01*
G03X-3391258Y1790552I-42532J-50878D01*
G01X-3395818Y1785992D01*
G01X-3395818Y1903204D01*
G01X-3334355Y1964666D01*
G03X-3317567Y1996186I-43285J43285D01*
G01X-3075940Y1996186D01*
G01X-3086100Y2042160D02*
G01X-3493009Y2042160D01*
G03X-3624071Y2042160I-65531J-10160D01*
G01X-3662680Y2042160D01*
G01X-3662680Y3558540D01*
G01X-3086100Y3558540D01*
G01X-3086100Y2042160D01*
G01X-3850640Y1996186D02*
G03X-3814987Y2028603I0J35814D01*
G01X-3708493Y2028603D01*
G03X-3694517Y2003491I35653J3397D01*
G03X-3702054Y1981513I28277J-21978D01*
G01X-3702054Y1731514D01*
G03X-3692854Y1707549I35814J0D01*
G01X-3692854Y1687435D01*
G01X-3814405Y1687435D01*
G03X-3937859Y1687435I-61727J-21040D01*
G01X-3941405Y1687435D01*
G03X-4064859Y1687435I-61727J-21040D01*
G01X-4068405Y1687435D01*
G01X-4068918Y1688884D01*
G01X-4068918Y1709430D01*
G03X-4062108Y1816178I-35722J55870D01*
G03X-4165958Y1790552I-42532J-50878D01*
G01X-4170518Y1785992D01*
G01X-4170518Y1903204D01*
G01X-4109055Y1964666D01*
G03X-4092267Y1996186I-43285J43285D01*
G01X-3850640Y1996186D01*
G01X-3860800Y2042160D02*
G01X-4267709Y2042160D01*
G03X-4398771Y2042160I-65531J-10160D01*
G01X-4437380Y2042160D01*
G01X-4437380Y3558540D01*
G01X-3860800Y3558540D01*
G01X-3860800Y2042160D01*
G01X-1440094Y-1862905D02*
G03X-1432559Y-1884880I35814J0D01*
G01X-1432559Y-2186811D01*
G03X-1429583Y-2193995I10160J0D01*
G01X-1229614Y-2393964D01*
G01X-1229614Y-2588143D01*
G03X-1219124Y-2613467I35814J0D01*
G01X-1024320Y-2808272D01*
G01X-1031677Y-2815628D01*
G01X-2230572Y-2815628D01*
G01X-2230572Y-1561128D01*
G01X-2044662Y-1430025D01*
G01X-1432559Y-1430025D01*
G01X-1432559Y-1785928D01*
G03X-1440094Y-1807903I28279J-21976D01*
G01X-1440094Y-1862905D01*
G01X-1761966Y-1904765D02*
G01X-1761966Y-1804765D01*
G03X-1953594Y-1804765I-95814J0D01*
G01X-1953594Y-1904765D01*
G03X-1761966Y-1904765I95814J0D01*
G01X-1183640Y-2583934D02*
G01X-1183640Y-1988031D01*
G03X-1164280Y-1993715I19360J30130D01*
G01X-1044280Y-1993715D01*
G03X-1032195Y-1991614I0J35814D01*
G01X-1015726Y-1991614D01*
G03X-1007440Y-1992586I8285J34842D01*
G01X-987427Y-1992586D01*
G03X-980440Y-1992986I6987J60814D01*
G01X-962535Y-1992986D01*
G03X-929546Y-2014859I32989J13941D01*
G01X-829546Y-2014859D01*
G03X-797678Y-1995387I0J35814D01*
G03X-791312Y-1999597I50918J70067D01*
G01X-791312Y-2051690D01*
G03X-793212Y-2063200I33914J-11510D01*
G01X-793212Y-2153200D01*
G03X-757398Y-2189014I35814J0D01*
G01X-677398Y-2189014D01*
G03X-641584Y-2153200I0J35814D01*
G01X-641584Y-2063200D01*
G03X-643484Y-2051690I-35814J0D01*
G01X-643484Y-2014859D01*
G01X-599549Y-2014859D01*
G03X-563735Y-1979045I0J35814D01*
G01X-563735Y-1709045D01*
G03X-575635Y-1682385I-35814J0D01*
G01X-575635Y-1673860D01*
G01X-413658Y-1673860D01*
G01X-362319Y-1725199D01*
G03X-340908Y-1888024I93079J-70581D01*
G03X-177843Y-1868526I71668J92244D01*
G01X-73660Y-1972708D01*
G01X-73660Y-2434192D01*
G01X-423308Y-2783840D01*
G01X-983734Y-2783840D01*
G01X-1183640Y-2583934D01*
G01X2249707Y-3568700D02*
G03X2257743Y-3591306I35814J0D01*
G01X-2259214Y-3591306D01*
G03X-2250757Y-3568192I-27357J23114D01*
G01X-2250757Y-2907792D01*
G03X-2275959Y-2873587I-35814J0D01*
G01X-2275959Y-2738120D01*
G01X-1094472Y-2738120D01*
G01X-1013267Y-2819324D01*
G03X-987943Y-2829814I25324J25324D01*
G01X-419100Y-2829814D01*
G03X-393776Y-2819324I0J35814D01*
G01X-312571Y-2738120D01*
G01X114016Y-2738120D01*
G01X114016Y-2778357D01*
G03X129309Y-2807709I35814J0D01*
G01X129309Y-2830305D01*
G03X107809Y-2899100I99314J-68795D01*
G01X107809Y-3019100D01*
G03X349437Y-3019100I120814J0D01*
G01X349437Y-2899100D01*
G03X327937Y-2830305I-120814J0D01*
G01X327937Y-2815971D01*
G01X444525Y-2815971D01*
G03X505771Y-2790602I0J86614D01*
G01X544558Y-2751815D01*
G03X571040Y-2738120I-1718J35773D01*
G01X859866Y-2738120D01*
G01X859866Y-2762731D01*
G03X895680Y-2798545I35814J0D01*
G01X997425Y-2798545D01*
G01X1040085Y-2841206D01*
G03X1026503Y-2887538I72231J-46332D01*
G01X1026503Y-2987538D01*
G03X1191360Y-3020947I85814J0D01*
G03X1241668Y-3060035I63959J30399D01*
G03X1303024Y-3042883I13651J69487D01*
G03X1384531Y-3050671I45716J48038D01*
G03X1411475Y-2973353I-35791J55826D01*
G01X1432307Y-2973353D01*
G03X1435009Y-2976288I37007J31370D01*
G01X1454025Y-2995304D01*
G03X1521312Y-3059716I66287J1894D01*
G03X1586626Y-2993305I-1000J66307D01*
G01X1604025Y-2975907D01*
G03X1606401Y-2973353I-34305J34304D01*
G01X1634326Y-2973353D01*
G03X1644307Y-2971934I0J35814D01*
G03X1654288Y-2973353I9981J34395D01*
G01X1675193Y-2973353D01*
G03X1703811Y-3048067I63699J-18439D01*
G03X1783493Y-3040867I35081J56275D01*
G03X1897280Y-3020947I49828J50319D01*
G03X2062137Y-2987538I79043J33409D01*
G01X2062137Y-2887538D01*
G03X1954131Y-2804643I-85814J0D01*
G03X1940535Y-2797779I-42807J-67896D01*
G01X1940535Y-2792432D01*
G03X1953320Y-2765003I-23029J27428D01*
G01X1953320Y-2738120D01*
G01X2270414Y-2738120D01*
G01X2270414Y-2875828D01*
G03X2249707Y-2908300I15107J-32472D01*
G01X2249707Y-3568700D01*
G01X-372200Y-2899100D02*
G01X-372200Y-3019100D01*
G03X-130573Y-3019100I120814J0D01*
G01X-130573Y-2899100D01*
G03X-372200Y-2899100I-120814J0D01*
G01X587793Y-2899100D02*
G01X587793Y-3019100D01*
G03X829420Y-3019100I120814J0D01*
G01X829420Y-2899100D01*
G03X587793Y-2899100I-120814J0D01*
G01X1026503Y-3315546D02*
G01X1026503Y-3395546D01*
G03X1198131Y-3395546I85814J0D01*
G01X1198131Y-3315546D01*
G03X1026503Y-3315546I-85814J0D01*
G01X1890509Y-3315546D02*
G01X1890509Y-3395546D01*
G03X2062137Y-3395546I85814J0D01*
G01X2062137Y-3315546D01*
G03X1890509Y-3315546I-85814J0D01*
G01X-2301240Y1996186D02*
G03X-2265587Y2028603I0J35814D01*
G01X-2059920Y2028603D01*
G01X-2059920Y1712835D01*
G01X-2280947Y1712835D01*
G03X-2372517Y1712835I-45785J-46440D01*
G01X-2407947Y1712835D01*
G03X-2499517Y1712835I-45785J-46440D01*
G01X-2514682Y1712835D01*
G03X-2515019Y1818024I-40558J52465D01*
G03X-2616558Y1790552I-40221J-52724D01*
G01X-2621118Y1785992D01*
G01X-2621118Y1903204D01*
G01X-2559655Y1964666D01*
G03X-2542867Y1996186I-43285J43285D01*
G01X-2301240Y1996186D01*
G01X-1719580Y1741568D02*
G01X-1788030Y1673119D01*
G03X-1786339Y1683993I-34123J10875D01*
G01X-1786339Y2033993D01*
G03X-1822153Y2069807I-35814J0D01*
G01X-1942153Y2069807D01*
G03X-1977967Y2033993I0J-35814D01*
G01X-1977967Y1683993D01*
G03X-1942153Y1648179I35814J0D01*
G01X-1822153Y1648179D01*
G03X-1811278Y1649870I0J35814D01*
G01X-1853720Y1607429D01*
G01X-2126573Y1607429D01*
G01X-2126573Y2095917D01*
G01X-1808795Y2095917D01*
G01X-1719580Y2006701D01*
G01X-1719580Y1741568D01*
G01X-2213230Y3257954D02*
G01X-1977643Y3257954D01*
G01X-1221664Y2501976D01*
G03X-1196340Y2491486I25324J25324D01*
G01X-1149730Y2491486D01*
G01X-1149730Y2147166D01*
G01X-2213230Y2147166D01*
G01X-2213230Y3257954D01*
G01X-1653160Y2370271D02*
G01X-1653160Y2933471D01*
G01X-1221664Y2501976D01*
G03X-1196340Y2491486I25324J25324D01*
G01X1183640Y2491486D01*
G03X1208964Y2501976I0J35814D01*
G01X1999233Y3292244D01*
G01X2173860Y3292244D01*
G01X2173860Y2447668D01*
G01X1643488Y1917296D01*
G01X-817750Y1917296D01*
G03X-824934Y1914320I0J-10160D01*
G01X-1149215Y1590040D01*
G01X-1583292Y1590040D01*
G01X-1645920Y1652668D01*
G01X-1645920Y2047240D01*
G03X-1648896Y2054424I-10160J0D01*
G01X-1753132Y2158661D01*
G03X-1760316Y2161636I-7184J-7184D01*
G01X-1857586Y2161636D01*
G01X-1656135Y2363087D01*
G03X-1653160Y2370271I-7184J7184D01*
G01X-1093971Y-1638376D02*
G01X-1111675Y-1656080D01*
G01X-1305560Y-1656080D01*
G03X-1312744Y-1659056I0J-10160D01*
G01X-1443961Y-1790272D01*
G03X-1446936Y-1797456I7184J-7184D01*
G01X-1446936Y-2082206D01*
G01X-1504300Y-2139570D01*
G01X-2222500Y-2139570D01*
G01X-2222500Y-1684020D01*
G01X-1930400Y-1684020D01*
G03X-1923216Y-1681044I0J10160D01*
G01X-1613336Y-1371164D01*
G03X-1610360Y-1363980I-7184J7184D01*
G01X-1610360Y208280D01*
G03X-1613336Y215464I-10160J0D01*
G01X-1767840Y369968D01*
G01X-1767840Y1560432D01*
G01X-1347072Y1981200D01*
G01X607060Y1981200D01*
G01X607060Y1896508D01*
G01X455786Y1745234D01*
G01X198831Y1745234D01*
G03X175229Y1742389I0J-99314D01*
G01X152451Y1742389D01*
G03X145267Y1739413I0J-10160D01*
G01X18754Y1612900D01*
G01X-617220Y1612900D01*
G03X-624404Y1609924I0J-10160D01*
G01X-894510Y1339818D01*
G03X-897486Y1332634I7184J-7184D01*
G01X-897486Y-1445029D01*
G01X-1083626Y-1631169D01*
G03X-1093971Y-1638376I14979J-32531D01*
G01X-1761966Y-1904765D02*
G01X-1761966Y-1804765D01*
G03X-1953594Y-1804765I-95814J0D01*
G01X-1953594Y-1904765D01*
G03X-1761966Y-1904765I95814J0D01*
G54D11*
G01X-1882153Y2033739D02*
G01X-1882153Y2059647D01*
G01X-1882153Y1684247D02*
G01X-1882153Y1658339D01*
G01X-1822407Y1858993D02*
G01X-1796499Y1858993D01*
G01X-1941899Y1858993D02*
G01X-1967807Y1858993D01*
G04 Copper End*

G04 PolygonModel Start*
G01X786027Y-171591D02*
G01X786027Y-101353D01*
G01X791154Y-96226D01*
G01X-126200Y75006D02*
G01X-244214Y75006D01*
G01X-245408Y76200D01*
G01X-126200Y-75006D02*
G01X-227406Y-75006D01*
G01X-228600Y-76200D01*
G01X60404Y-246797D02*
G01X60404Y-111648D01*
G01X50000Y-101244D01*
G01X-13Y-101244D02*
G01X-13Y-186380D01*
G01X143807Y-330200D01*
G01X165100Y-330200D01*

G04 Pad Start*
G54D12*
G01X3385029Y3238500D03*
G01X2610329Y3238500D03*
G01X4159729Y3238500D03*
G01X-2604291Y3238500D03*
G01X-4153691Y3238500D03*
G01X-3378991Y3238500D03*
G54D13*
G01X-4159821Y-3237992D03*
G01X-2610421Y-3237992D03*
G01X-3385121Y-3237992D03*
G01X2609371Y-3238500D03*
G01X4158771Y-3238500D03*
G01X3384071Y-3238500D03*
G54D14*
G01X1501140Y53340D03*
G01X1582420Y276860D03*
G01X1315720Y213360D03*
G54D15*
G01X497840Y-2676042D03*
G01X497840Y-2536038D03*
G01X393692Y-70002D03*
G01X393692Y70002D03*
G54D16*
G01X4310380Y76200D03*
G01X4310380Y330200D03*
G01X4310380Y584200D03*
G54D18*
G01X4310380Y838200D03*
G54D16*
G01X-269240Y-1287780D03*
G01X-269240Y-1541780D03*
G01X-269240Y-1795780D03*
G54D18*
G01X-269240Y-2049780D03*
G54D16*
G01X-2453640Y76200D03*
G01X-2453640Y330200D03*
G01X-2453640Y584200D03*
G54D18*
G01X-2453640Y838200D03*
G54D16*
G01X2458720Y-76200D03*
G01X2458720Y-330200D03*
G01X2458720Y-584200D03*
G54D18*
G01X2458720Y-838200D03*
G54D16*
G01X-4310472Y-75692D03*
G01X-4310472Y-329692D03*
G01X-4310472Y-583692D03*
G54D18*
G01X-4310472Y-837692D03*
G54D19*
G01X-4005550Y226036D03*
G01X-4005550Y310034D03*
G01X4010630Y-226036D03*
G01X4010630Y-310034D03*
G01X2758470Y226036D03*
G01X2758470Y310034D03*
G01X1809839Y-2260600D03*
G01X1725841Y-2260600D03*
G01X-2758562Y-225528D03*
G01X-2758562Y-309526D03*
G54D20*
G01X2611680Y2551508D03*
G54D21*
G01X2840280Y1856514D03*
G01X2383080Y1856514D03*
G54D20*
G01X3386380Y2551508D03*
G54D21*
G01X3614980Y1856514D03*
G01X3157780Y1856514D03*
G54D20*
G01X4161080Y2551508D03*
G54D21*
G01X4389680Y1856514D03*
G01X3932480Y1856514D03*
G54D20*
G01X-3377640Y2551508D03*
G54D21*
G01X-3149040Y1856514D03*
G01X-3606240Y1856514D03*
G54D20*
G01X-4152340Y2551508D03*
G54D21*
G01X-3923740Y1856514D03*
G01X-4380940Y1856514D03*
G54D20*
G01X-2602940Y2551508D03*
G54D21*
G01X-2374340Y1856514D03*
G01X-2831540Y1856514D03*
G54D20*
G01X3382720Y-2551508D03*
G54D21*
G01X3154120Y-1856514D03*
G01X3611320Y-1856514D03*
G54D20*
G01X4157420Y-2551508D03*
G54D21*
G01X3928820Y-1856514D03*
G01X4386020Y-1856514D03*
G54D20*
G01X2608020Y-2551508D03*
G54D21*
G01X2379420Y-1856514D03*
G01X2836620Y-1856514D03*
G54D20*
G01X-3386472Y-2551001D03*
G54D21*
G01X-3615072Y-1856006D03*
G01X-3157872Y-1856006D03*
G54D20*
G01X-2611772Y-2551001D03*
G54D21*
G01X-2840372Y-1856006D03*
G01X-2383172Y-1856006D03*
G54D20*
G01X-4161172Y-2551001D03*
G54D21*
G01X-4389772Y-1856006D03*
G01X-3932572Y-1856006D03*
G54D22*
G01X3478936Y607060D03*
G01X3328264Y607060D03*
G54D23*
G01X-126200Y75006D03*
G01X-126200Y24994D03*
G01X-126200Y-24994D03*
G01X-126200Y-75006D03*
G54D24*
G01X-50000Y-101244D03*
G01X-13Y-101244D03*
G01X50000Y-101244D03*
G54D23*
G01X126200Y-75006D03*
G01X126200Y-24994D03*
G01X126200Y24994D03*
G01X126200Y75006D03*
G54D24*
G01X50000Y101244D03*
G01X-13Y101244D03*
G01X-50000Y101244D03*
G54D25*
G01X1807489Y135992D03*
G01X1872513Y135992D03*
G01X1937487Y135992D03*
G01X2002511Y135992D03*
G01X1807489Y-8992D03*
G01X1872513Y-8992D03*
G01X1937487Y-8992D03*
G01X2002511Y-8992D03*
G54D26*
G01X-1104280Y-1835404D03*
G01X-1104280Y-2025396D03*
G01X-1344280Y-2025396D03*
G01X-1344280Y-1930400D03*
G01X-1344280Y-1835404D03*
G01X-1104280Y-1930400D03*
G54D27*
G01X1807312Y-2143760D03*
G01X1723288Y-2143760D03*
G54D15*
G01X604520Y-1985162D03*
G01X604520Y-1845158D03*
G54D28*
G01X-1293800Y-2197100D03*
G01X-1093800Y-2197100D03*
G54D29*
G01X-717398Y-2108200D03*
G01X-857402Y-2108200D03*
G01X-677062Y-1602740D03*
G01X-537058Y-1602740D03*
G54D30*
G01X273329Y-2729357D03*
G01X273329Y-2499360D03*
G01X273329Y-2269363D03*
G54D31*
G01X-293649Y-2499360D03*
G54D32*
G01X-879546Y-1844045D03*
G01X-649549Y-1844045D03*
G54D27*
G01X2752192Y584200D03*
G01X2668168Y584200D03*
G01X-4011828Y571500D03*
G01X-4095852Y571500D03*
G01X4016908Y-571500D03*
G01X4100932Y-571500D03*
G01X-2752284Y-570992D03*
G01X-2668260Y-570992D03*
G54D15*
G01X927100Y-141122D03*
G01X927100Y-1118D03*
G54D33*
G01X1318260Y1178560D03*
G54D22*
G01X1383436Y-2171700D03*
G01X1232764Y-2171700D03*
G54D34*
G01X-52948Y1082973D03*
G01X-147944Y1309972D03*
G01X42048Y1309972D03*
G54D35*
G01X-507770Y-1854765D03*
G01X-1857780Y-1854765D03*
G54D36*
G01X-822781Y-2454764D03*
G01X-1542769Y-2454764D03*
G54D22*
G01X1877182Y-2721803D03*
G01X1726509Y-2721803D03*
G01X1370736Y-2722880D03*
G01X1220064Y-2722880D03*
G54D37*
G01X-1845201Y43104D03*
G01X-1844705Y-1236904D03*
G54D38*
G01X-593202Y-148895D03*
G01X-593202Y-275895D03*
G01X-593202Y-402895D03*
G01X-593202Y-529895D03*
G01X-593202Y-656895D03*
G01X-593202Y-783895D03*
G01X-593202Y-910895D03*
G01X-593202Y-1037895D03*
G54D39*
G01X565810Y-1692199D03*
G01X565810Y-1642212D03*
G01X565810Y-1592199D03*
G01X565810Y-1542212D03*
G01X565810Y-1492199D03*
G01X565810Y-1442212D03*
G01X565810Y-1392199D03*
G01X565810Y-1342212D03*
G01X565810Y-1292200D03*
G01X565810Y-1242212D03*
G01X565810Y-1192200D03*
G01X565810Y-1142187D03*
G01X565810Y-1092200D03*
G01X565810Y-1042187D03*
G01X565810Y-992200D03*
G01X565810Y-942188D03*
G01X565810Y-892200D03*
G01X565810Y-842188D03*
G01X565810Y-792201D03*
G01X565810Y-742188D03*
G01X565810Y-692201D03*
G01X565810Y-642188D03*
G01X565810Y-592201D03*
G01X565810Y-542188D03*
G01X565810Y-492201D03*
G54D40*
G01X720801Y-337210D03*
G01X770788Y-337210D03*
G01X820801Y-337210D03*
G01X870788Y-337210D03*
G01X920801Y-337210D03*
G01X970788Y-337210D03*
G01X1020801Y-337210D03*
G01X1070788Y-337210D03*
G01X1120800Y-337210D03*
G01X1170788Y-337210D03*
G01X1220800Y-337210D03*
G01X1270813Y-337210D03*
G01X1320800Y-337210D03*
G01X1370813Y-337210D03*
G01X1420800Y-337210D03*
G01X1470812Y-337210D03*
G01X1520800Y-337210D03*
G01X1570812Y-337210D03*
G01X1620799Y-337210D03*
G01X1670812Y-337210D03*
G01X1720799Y-337210D03*
G01X1770812Y-337210D03*
G01X1820799Y-337210D03*
G01X1870812Y-337210D03*
G01X1920799Y-337210D03*
G54D39*
G01X2075790Y-492201D03*
G01X2075790Y-542188D03*
G01X2075790Y-592201D03*
G01X2075790Y-642188D03*
G01X2075790Y-692201D03*
G01X2075790Y-742188D03*
G01X2075790Y-792201D03*
G01X2075790Y-842188D03*
G01X2075790Y-892200D03*
G01X2075790Y-942188D03*
G01X2075790Y-992200D03*
G01X2075790Y-1042187D03*
G01X2075790Y-1092200D03*
G01X2075790Y-1142187D03*
G01X2075790Y-1192200D03*
G01X2075790Y-1242212D03*
G01X2075790Y-1292200D03*
G01X2075790Y-1342212D03*
G01X2075790Y-1392199D03*
G01X2075790Y-1442212D03*
G01X2075790Y-1492199D03*
G01X2075790Y-1542212D03*
G01X2075790Y-1592199D03*
G01X2075790Y-1642212D03*
G01X2075790Y-1692199D03*
G54D40*
G01X1920799Y-1847190D03*
G01X1870812Y-1847190D03*
G01X1820799Y-1847190D03*
G01X1770812Y-1847190D03*
G01X1720799Y-1847190D03*
G01X1670812Y-1847190D03*
G01X1620799Y-1847190D03*
G01X1570812Y-1847190D03*
G01X1520800Y-1847190D03*
G01X1470812Y-1847190D03*
G01X1420800Y-1847190D03*
G01X1370813Y-1847190D03*
G01X1320800Y-1847190D03*
G01X1270813Y-1847190D03*
G01X1220800Y-1847190D03*
G01X1170788Y-1847190D03*
G01X1120800Y-1847190D03*
G01X1070788Y-1847190D03*
G01X1020801Y-1847190D03*
G01X970788Y-1847190D03*
G01X920801Y-1847190D03*
G01X870788Y-1847190D03*
G01X820801Y-1847190D03*
G01X770788Y-1847190D03*
G01X720801Y-1847190D03*
G54D41*
G01X-251386Y-2959100D03*
G01X228623Y-2959100D03*
G01X708607Y-2959100D03*
G54D42*
G01X223520Y-2103539D03*
G01X223520Y-1203541D03*
G54D43*
G01X4031399Y345440D03*
G01X3131401Y345440D03*
G54D44*
G01X-1882153Y1858993D03*
G01X-1882153Y2392977D03*
G54D29*
G01X-79601Y-246797D03*
G01X60404Y-246797D03*
G54D45*
G01X-406Y-913003D03*
G01X-50394Y-913003D03*
G54D46*
G01X-112903Y-900506D03*
G01X-112903Y-850494D03*
G01X-112903Y-800506D03*
G01X-112903Y-750494D03*
G54D45*
G01X-50394Y-737997D03*
G01X-406Y-737997D03*
G54D46*
G01X62103Y-750494D03*
G01X62103Y-800506D03*
G01X62103Y-850494D03*
G01X62103Y-900506D03*
G54D47*
G01X-3855720Y207112D03*
G01X-3855720Y123088D03*
G01X1816100Y321412D03*
G01X1816100Y237388D03*
G54D27*
G01X1929028Y226060D03*
G01X2013052Y226060D03*
G54D47*
G01X3855720Y-207112D03*
G01X3855720Y-123088D03*
G54D27*
G01X-171552Y-650240D03*
G01X-87528Y-650240D03*
G54D47*
G01X157480Y-735228D03*
G01X157480Y-819252D03*
G01X-2913472Y-206604D03*
G01X-2913472Y-122581D03*
G01X2913380Y207112D03*
G01X2913380Y123088D03*
G54D27*
G01X-4100932Y444500D03*
G01X-4016908Y444500D03*
G01X4100932Y-444500D03*
G01X4016908Y-444500D03*
G01X-2668260Y-443992D03*
G01X-2752284Y-443992D03*
G01X702004Y-171591D03*
G01X786027Y-171591D03*
G01X1210412Y-2006600D03*
G01X1126388Y-2006600D03*
G54D47*
G01X421640Y-1786992D03*
G01X421640Y-1702968D03*
G54D27*
G01X2668168Y457200D03*
G01X2752192Y457200D03*
G01X1817472Y-2029460D03*
G01X1733448Y-2029460D03*
G54D47*
G01X-980440Y-1847748D03*
G01X-980440Y-1931772D03*
G01X241300Y3912D03*
G01X241300Y-80112D03*
G01X-60960Y1439012D03*
G01X-60960Y1354988D03*
G54D27*
G01X227029Y1341080D03*
G01X143005Y1341080D03*
G01X-54712Y960120D03*
G01X29312Y960120D03*
G54D22*
G01X-3725316Y63500D03*
G01X-3574644Y63500D03*
G01X3720236Y-63500D03*
G01X3569564Y-63500D03*
G01X-3046416Y-68072D03*
G01X-3197088Y-68072D03*
G01X3046324Y66040D03*
G01X3196996Y66040D03*
G54D48*
G01X-3273958Y914400D03*
G01X-3360522Y914400D03*
G54D49*
G01X-2898140Y965302D03*
G01X-2898140Y878738D03*
G01X-3881120Y911962D03*
G01X-3881120Y825398D03*
G54D50*
G01X1209319Y-2872539D03*
G01X1239317Y-2872539D03*
G01X1289329Y-2872539D03*
G01X1319327Y-2872539D03*
G01X1369314Y-2872539D03*
G01X1419327Y-2872539D03*
G01X1469314Y-2872539D03*
G01X1519326Y-2872539D03*
G01X1569314Y-2872539D03*
G01X1619326Y-2872539D03*
G01X1719326Y-2872539D03*
G01X1849323Y-2872539D03*
G01X1879321Y-2872539D03*
G01X1669288Y-2872539D03*
G01X1769311Y-2872537D03*
G01X1799308Y-2872537D03*
G54D51*
G01X1112317Y-3355546D03*
G01X1976323Y-3355546D03*
G54D52*
G01X1976323Y-2937538D03*
G01X1112317Y-2937538D03*
G54D49*
G01X2936240Y911962D03*
G01X2936240Y825398D03*
G54D48*
G01X3497682Y909320D03*
G01X3411118Y909320D03*
G54D49*
G01X3858260Y983082D03*
G01X3858260Y896518D03*
G54D48*
G01X3274750Y-909320D03*
G01X3361313Y-909320D03*
G54D49*
G01X2900680Y-962762D03*
G01X2900680Y-876198D03*
G01X3863340Y-891642D03*
G01X3863340Y-805078D03*
G54D48*
G01X-3497774Y-908812D03*
G01X-3411210Y-908812D03*
G54D49*
G01X-3858352Y-982574D03*
G01X-3858352Y-896011D03*
G01X-2936332Y-911454D03*
G01X-2936332Y-824891D03*
G01X393700Y297282D03*
G01X393700Y210718D03*
G01X266700Y297282D03*
G01X266700Y210718D03*
G54D53*
G01X-2707732Y1079551D03*
G01X-2580732Y1079551D03*
G01X-2453732Y1079551D03*
G01X-2326732Y1079551D03*
G01X-2707732Y1593545D03*
G01X-2580732Y1593545D03*
G01X-2453732Y1593545D03*
G01X-2326732Y1593545D03*
G01X-4257132Y1079551D03*
G01X-4130132Y1079551D03*
G01X-4003132Y1079551D03*
G01X-3876132Y1079551D03*
G01X-4257132Y1593545D03*
G01X-4130132Y1593545D03*
G01X-4003132Y1593545D03*
G01X-3876132Y1593545D03*
G01X-3482432Y1079551D03*
G01X-3355432Y1079551D03*
G01X-3228432Y1079551D03*
G01X-3101432Y1079551D03*
G01X-3482432Y1593545D03*
G01X-3355432Y1593545D03*
G01X-3228432Y1593545D03*
G01X-3101432Y1593545D03*
G01X2712812Y-1079551D03*
G01X2585812Y-1079551D03*
G01X2458812Y-1079551D03*
G01X2331812Y-1079551D03*
G01X2712812Y-1593545D03*
G01X2585812Y-1593545D03*
G01X2458812Y-1593545D03*
G01X2331812Y-1593545D03*
G01X4262212Y-1079551D03*
G01X4135212Y-1079551D03*
G01X4008212Y-1079551D03*
G01X3881212Y-1079551D03*
G01X4262212Y-1593545D03*
G01X4135212Y-1593545D03*
G01X4008212Y-1593545D03*
G01X3881212Y-1593545D03*
G01X3487512Y-1079551D03*
G01X3360512Y-1079551D03*
G01X3233512Y-1079551D03*
G01X3106512Y-1079551D03*
G01X3487512Y-1593545D03*
G01X3360512Y-1593545D03*
G01X3233512Y-1593545D03*
G01X3106512Y-1593545D03*
G01X-4056380Y-1079043D03*
G01X-4183380Y-1079043D03*
G01X-4310380Y-1079043D03*
G01X-4437380Y-1079043D03*
G01X-4056380Y-1593037D03*
G01X-4183380Y-1593037D03*
G01X-4310380Y-1593037D03*
G01X-4437380Y-1593037D03*
G01X-2506980Y-1079043D03*
G01X-2633980Y-1079043D03*
G01X-2760980Y-1079043D03*
G01X-2887980Y-1079043D03*
G01X-2506980Y-1593037D03*
G01X-2633980Y-1593037D03*
G01X-2760980Y-1593037D03*
G01X-2887980Y-1593037D03*
G01X2506888Y1079551D03*
G01X2633888Y1079551D03*
G01X2760888Y1079551D03*
G01X2887888Y1079551D03*
G01X2506888Y1593545D03*
G01X2633888Y1593545D03*
G01X2760888Y1593545D03*
G01X2887888Y1593545D03*
G01X3281588Y1079551D03*
G01X3408588Y1079551D03*
G01X3535588Y1079551D03*
G01X3662588Y1079551D03*
G01X3281588Y1593545D03*
G01X3408588Y1593545D03*
G01X3535588Y1593545D03*
G01X3662588Y1593545D03*
G01X4056288Y1079551D03*
G01X4183288Y1079551D03*
G01X4310288Y1079551D03*
G01X4437288Y1079551D03*
G01X4056288Y1593545D03*
G01X4183288Y1593545D03*
G01X4310288Y1593545D03*
G01X4437288Y1593545D03*
G01X-3281680Y-1079043D03*
G01X-3408680Y-1079043D03*
G01X-3535680Y-1079043D03*
G01X-3662680Y-1079043D03*
G01X-3281680Y-1593037D03*
G01X-3408680Y-1593037D03*
G01X-3535680Y-1593037D03*
G01X-3662680Y-1593037D03*
G54D43*
G01X2732621Y-340360D03*
G01X3632619Y-340360D03*
G54D22*
G01X3252064Y-607060D03*
G01X3402736Y-607060D03*
G54D43*
G01X-2732621Y345440D03*
G01X-3632619Y345440D03*
G54D22*
G01X-3285084Y607060D03*
G01X-3435756Y607060D03*
G54D43*
G01X-4031491Y-344932D03*
G01X-3131493Y-344932D03*
G54D22*
G01X-3479028Y-606552D03*
G01X-3328356Y-606552D03*
G54D27*
G01X3359048Y739140D03*
G01X3443072Y739140D03*
G54D47*
G01X-3858260Y456032D03*
G01X-3858260Y372008D03*
G01X3571240Y-593192D03*
G01X3571240Y-509168D03*
G54D27*
G01X-3356508Y-731520D03*
G01X-3440532Y-731520D03*
G54D54*
G01X-2108200Y795071D03*
G01X-2108200Y358089D03*
G01X995680Y-2710231D03*
G01X995680Y-2273249D03*
G54D49*
G01X703580Y-2458618D03*
G01X703580Y-2545182D03*
G54D55*
G01X483641Y-2271860D03*
G01X653644Y-2271860D03*
G54D27*
G01X1377848Y-2298700D03*
G01X1461872Y-2298700D03*
G54D22*
G01X1463904Y-2014220D03*
G01X1614576Y-2014220D03*
G04 Pad End*

G04 Via Start*
G54D56*
G01X-2003034Y-2189652D03*
G01X-1612900Y-1854200D03*
G01X-1879600Y-2120900D03*
G01X-2108200Y-1993900D03*
G01X-673100Y-50800D03*
G01X78740Y-1374140D03*
G01X-708660Y-1165860D03*
G01X190500Y254000D03*
G01X2009140Y-294640D03*
G01X1866900Y-482600D03*
G01X419100Y411480D03*
G01X333970Y444398D03*
G01X711200Y-927100D03*
G01X787400Y-1003300D03*
G01X685800Y0D03*
G01X1778000Y-609600D03*
G01X749300Y-647700D03*
G01X825500Y-546100D03*
G01X584200Y-165100D03*
G01X584200Y-419100D03*
G01X634449Y-358723D03*
G01X576600Y-295393D03*
G01X-71120Y-1153160D03*
G01X-86360Y-1254880D03*
G01X1892300Y-1612900D03*
G01X698500Y-1562100D03*
G01X552298Y-1756512D03*
G01X411277Y-1611732D03*
G01X863600Y-2006600D03*
G01X774700Y-1612900D03*
G01X800100Y-1701800D03*
G01X1028700Y-1993900D03*
G01X-53340Y1207607D03*
G01X-157480Y1439355D03*
G01X-137160Y1204941D03*
G01X1879600Y-1435100D03*
G01X-530860Y1182815D03*
G01X-629920Y1507935D03*
G01X-562958Y1449383D03*
G01X-507798Y1511664D03*
G01X-241300Y1439355D03*
G01X-327660Y1463060D03*
G01X1694180Y-83820D03*
G01X1879086Y-101600D03*
G01X459800Y-431800D03*
G01X298523Y-539677D03*
G01X1117600Y-546100D03*
G01X1041400Y-482600D03*
G01X1171765Y-1717200D03*
G01X1210412Y-2080376D03*
G01X1059180Y-1163320D03*
G01X923905Y-1158895D03*
G01X1377918Y-156395D03*
G01X1258558Y-33040D03*
G01X1254588Y-113235D03*
G01X1187875Y26996D03*
G01X751198Y1424756D03*
G01X835660Y1429195D03*
G01X-815340Y1309815D03*
G01X-128033Y1062063D03*
G01X421756Y1200595D03*
G01X93980Y1507935D03*
G01X87053Y1424115D03*
G01X10853Y1433050D03*
G01X294640Y1421575D03*
G01X1478752Y-1193800D03*
G01X1265189Y-1476801D03*
G01X1308100Y-2006600D03*
G01X1206500Y-1625600D03*
G01X849651Y-819349D03*
G01X46012Y-1781948D03*
G01X1193800Y-1041400D03*
G01X2065020Y45720D03*
G01X165100Y-330200D03*
G01X292092Y76200D03*
G01X388404Y-170389D03*
G01X-157776Y-172807D03*
G01X1641350Y-2281809D03*
G01X1935203Y-1705509D03*
G01X2076684Y-425684D03*
G01X791154Y-96226D03*
G01X762000Y-1346200D03*
G01X749300Y-1460500D03*
G01X12700Y-1054100D03*
G01X144780Y-972820D03*
G01X-231140Y-579120D03*
G01X436553Y-571204D03*
G01X342900Y-673100D03*
G01X-245408Y76200D03*
G01X-88100Y202145D03*
G01X62700Y210995D03*
G01X-127000Y279400D03*
G01X-228600Y-76200D03*
G01X3334229Y1460500D03*
G01X3473929Y1460500D03*
G01X3434080Y1765300D03*
G01X3205480Y2032000D03*
G01X3332480Y1231900D03*
G01X3360817Y828025D03*
G01X3495229Y2184400D03*
G01X3421380Y2108200D03*
G01X3497580Y2095500D03*
G01X3408680Y2186517D03*
G01X2720529Y2184400D03*
G01X2975409Y1463289D03*
G01X2722880Y2095500D03*
G01X2633980Y2186517D03*
G01X2646680Y2108200D03*
G01X2430780Y2032000D03*
G01X2659380Y1765300D03*
G01X2557780Y1231900D03*
G01X2699229Y1460500D03*
G01X2559529Y1460500D03*
G01X4269929Y2184400D03*
G01X4524809Y1463289D03*
G01X4272280Y2095500D03*
G01X4183380Y2186517D03*
G01X4196080Y2108200D03*
G01X3980180Y2032000D03*
G01X4208780Y1765300D03*
G01X4013200Y1236980D03*
G01X4248629Y1460500D03*
G01X4108929Y1460500D03*
G01X3116580Y825500D03*
G01X3510280Y812800D03*
G01X4246880Y1219200D03*
G01X2710180Y1219200D03*
G01X3484880Y1231900D03*
G01X2405380Y1079500D03*
G01X2786380Y774700D03*
G01X3141980Y736600D03*
G01X3764280Y1028700D03*
G01X3078480Y609600D03*
G01X3200400Y597944D03*
G01X3124200Y241300D03*
G01X3558540Y670560D03*
G01X2672080Y317500D03*
G01X2799080Y114300D03*
G01X2697480Y139700D03*
G01X2975409Y1550871D03*
G01X3751580Y1549400D03*
G01X3751580Y1460500D03*
G01X4524809Y1550871D03*
G01X4551680Y2971800D03*
G01X3776980Y2971800D03*
G01X4551680Y2790572D03*
G01X3776980Y2790572D03*
G01X3002280Y2789890D03*
G01X3002280Y2971800D03*
G01X-3761740Y2971800D03*
G01X-4028440Y698500D03*
G01X-3761740Y2789890D03*
G01X-4043491Y2184400D03*
G01X-4041140Y2095500D03*
G01X-4130040Y2186517D03*
G01X-4117340Y2108200D03*
G01X-4333240Y2032000D03*
G01X-4104640Y1765300D03*
G01X-4206240Y1231900D03*
G01X-4064791Y1460500D03*
G01X-4204491Y1460500D03*
G01X-4053840Y1219200D03*
G01X-3977640Y774700D03*
G01X-3667760Y647700D03*
G01X-3788611Y1550871D03*
G01X-3788611Y1463289D03*
G01X-3429791Y1460500D03*
G01X-3290091Y1460500D03*
G01X-3329940Y1765300D03*
G01X-3342640Y2108200D03*
G01X-3355340Y2186517D03*
G01X-3431143Y820405D03*
G01X-3431540Y1231900D03*
G01X-3558540Y2032000D03*
G01X-3622040Y736600D03*
G01X-3647440Y825500D03*
G01X-2231591Y1463289D03*
G01X-2999740Y1028700D03*
G01X-3012440Y1549400D03*
G01X-3012440Y1460500D03*
G01X-2494091Y2184400D03*
G01X-2491740Y2095500D03*
G01X-2580640Y2186517D03*
G01X-2567940Y2108200D03*
G01X-2783840Y2032000D03*
G01X-2555240Y1765300D03*
G01X-2515391Y1460500D03*
G01X-2655091Y1460500D03*
G01X-2753360Y1234440D03*
G01X-2517140Y1219200D03*
G01X-2239211Y1550871D03*
G01X-3253740Y812800D03*
G01X-3266440Y2095500D03*
G01X-3279140Y1841500D03*
G01X-3268791Y2184400D03*
G01X-3279140Y1231900D03*
G01X-4091940Y317500D03*
G01X-3830320Y30480D03*
G01X-4089400Y195580D03*
G01X-2212340Y2971800D03*
G01X-2987040Y2971800D03*
G01X-2212340Y2790572D03*
G01X-2987040Y2790572D03*
G01X-3002372Y-2971292D03*
G01X-2397852Y-1068832D03*
G01X-3002372Y-2789382D03*
G01X-2720621Y-2183892D03*
G01X-2722972Y-2094992D03*
G01X-2634072Y-2186009D03*
G01X-2646772Y-2107692D03*
G01X-2710272Y-1840992D03*
G01X-2430872Y-2031492D03*
G01X-2699321Y-1459992D03*
G01X-2559621Y-1459992D03*
G01X-2786472Y-774192D03*
G01X-3078572Y-609092D03*
G01X-2975501Y-1550363D03*
G01X-2983121Y-1462781D03*
G01X-3334321Y-1459992D03*
G01X-3474021Y-1459992D03*
G01X-3421472Y-2107692D03*
G01X-3408772Y-2186009D03*
G01X-3332969Y-819898D03*
G01X-3205572Y-2031492D03*
G01X-3142072Y-736092D03*
G01X-3116672Y-824992D03*
G01X-4535061Y-1462781D03*
G01X-3764372Y-1028192D03*
G01X-3751672Y-1548892D03*
G01X-3756752Y-1459992D03*
G01X-4270021Y-2183892D03*
G01X-4259672Y-1840992D03*
G01X-4272372Y-2094992D03*
G01X-4183472Y-2186009D03*
G01X-4196172Y-2107692D03*
G01X-3980272Y-2031492D03*
G01X-4248721Y-1459992D03*
G01X-4109021Y-1459992D03*
G01X-4524901Y-1550363D03*
G01X-3510372Y-812292D03*
G01X-3497672Y-2094992D03*
G01X-3484972Y-1840992D03*
G01X-3495321Y-2183892D03*
G01X-2669632Y-294132D03*
G01X-2799172Y-113792D03*
G01X-2697572Y-139192D03*
G01X-4551772Y-2971292D03*
G01X-3777072Y-2971292D03*
G01X-4551772Y-2790065D03*
G01X-3777072Y-2790065D03*
G01X3766820Y-2971800D03*
G01X4340860Y-772160D03*
G01X3766820Y-2789890D03*
G01X4048571Y-2184400D03*
G01X4046220Y-2095500D03*
G01X4135120Y-2186517D03*
G01X4122420Y-2108200D03*
G01X4058920Y-1841500D03*
G01X4338320Y-2032000D03*
G01X4064000Y-1718800D03*
G01X4211320Y-1231900D03*
G01X4069871Y-1460500D03*
G01X4209571Y-1460500D03*
G01X4058920Y-1219200D03*
G01X3690620Y-609600D03*
G01X3793691Y-1550871D03*
G01X3793691Y-1463289D03*
G01X3434871Y-1460500D03*
G01X3295171Y-1460500D03*
G01X3281680Y-1732260D03*
G01X3347720Y-2108200D03*
G01X3360420Y-2186517D03*
G01X3362563Y-825485D03*
G01X3436620Y-1231900D03*
G01X3563620Y-2032000D03*
G01X3296920Y-718820D03*
G01X3480200Y-812800D03*
G01X2244291Y-1463289D03*
G01X3004820Y-1028700D03*
G01X3017520Y-1549400D03*
G01X3017520Y-1460500D03*
G01X2499171Y-2184400D03*
G01X2509520Y-1841500D03*
G01X2496820Y-2095500D03*
G01X2585720Y-2186517D03*
G01X2573020Y-2108200D03*
G01X2788920Y-2032000D03*
G01X2527300Y-1724660D03*
G01X2520471Y-1460500D03*
G01X2660171Y-1460500D03*
G01X2661920Y-1221740D03*
G01X2522220Y-1219200D03*
G01X2244291Y-1550871D03*
G01X3258820Y-812800D03*
G01X3271520Y-2095500D03*
G01X3284220Y-1841500D03*
G01X3273871Y-2184400D03*
G01X3284220Y-1231900D03*
G01X4109720Y-368300D03*
G01X3906520Y-63500D03*
G01X4274820Y-165100D03*
G01X2217420Y-2971800D03*
G01X2992120Y-2971800D03*
G01X2217420Y-2790572D03*
G01X2992120Y-2790572D03*
G01X2006600Y-1765300D03*
G01X1938000Y-1165785D03*
G01X2203298Y-635000D03*
G01X2209066Y-558179D03*
G01X-596900Y-1143000D03*
G01X-3374895Y266697D03*
G01X-3394296Y-266190D03*
G01X3374895Y-266697D03*
G01X3394205Y266697D03*
G01X-2550160Y-670560D03*
G01X2352040Y124460D03*
G01X2098040Y-1831340D03*
G01X1940438Y-1038758D03*
G01X-3266440Y-403860D03*
G01X467360Y-3370580D03*
G01X274320Y-3467100D03*
G01X111760Y-3314700D03*
G01X-50800Y-3467100D03*
G01X-237211Y-3294101D03*
G01X-426720Y-3469640D03*
G01X-673100Y-3243580D03*
G01X-800100Y-3495040D03*
G01X-1016000Y-3274060D03*
G01X-1112520Y-3484880D03*
G01X-1333500Y-3263900D03*
G01X2992120Y-3117512D03*
G01X2992120Y-3237201D03*
G01X2992120Y-3380359D03*
G01X2992120Y-3514130D03*
G01X2217420Y-3082309D03*
G01X2217420Y-3255976D03*
G01X2217420Y-3408522D03*
G01X1920240Y-2357120D03*
G01X2042160Y-2186940D03*
G01X2004060Y-2461260D03*
G01X2087880Y-2329180D03*
G01X1996440Y-2631440D03*
G01X2072640Y-2748280D03*
G01X-3002372Y-3169033D03*
G01X-3002372Y-3376729D03*
G01X-2056425Y-3136900D03*
G01X-2084782Y-3430533D03*
G01X-1874520Y-3357880D03*
G01X-2131060Y-2712720D03*
G01X-1690230Y-3455935D03*
G01X-2141220Y-2966720D03*
G01X-1882140Y-3134360D03*
G01X3627120Y-670560D03*
G01X3766820Y-3178542D03*
G01X3766820Y-3351035D03*
G01X3766820Y-3516489D03*
G01X3776980Y3133097D03*
G01X3776980Y3316152D03*
G01X3776980Y3488645D03*
G01X3002280Y3140138D03*
G01X3002280Y3323192D03*
G01X3002280Y3499206D03*
G01X4551680Y3182381D03*
G01X4551680Y3340794D03*
G01X4551680Y3509767D03*
G01X-3269206Y1928054D03*
G01X-3352800Y1887220D03*
G01X-2961640Y1704340D03*
G01X-2964180Y1859280D03*
G01X-2958032Y1989000D03*
G01X-3034600Y1940372D03*
G01X-3042920Y1849964D03*
G01X-4127500Y1887220D03*
G01X-4058920Y1841500D03*
G01X-4043906Y1928054D03*
G01X-3817620Y1849964D03*
G01X-3809300Y1940372D03*
G01X-3738880Y1859280D03*
G01X-3732732Y1989000D03*
G01X-3736340Y1704340D03*
G01X-2578100Y1887220D03*
G01X-2509520Y1841500D03*
G01X-2494506Y1928054D03*
G01X-2245360Y1837264D03*
G01X-2174240Y1732280D03*
G01X3032760Y1704340D03*
G01X3030220Y1859280D03*
G01X3036368Y1989000D03*
G01X2959800Y1940372D03*
G01X2951480Y1849964D03*
G01X2710180Y1841500D03*
G01X2725194Y1928054D03*
G01X2641600Y1887220D03*
G01X3804920Y1859280D03*
G01X3726180Y1849964D03*
G01X3734500Y1940372D03*
G01X3807460Y1704340D03*
G01X3811068Y1989000D03*
G01X3484880Y1841500D03*
G01X3499894Y1928054D03*
G01X3416300Y1887220D03*
G01X4544060Y1762760D03*
G01X4523740Y1847424D03*
G01X4516820Y1935292D03*
G01X4565448Y1999160D03*
G01X4274594Y1928054D03*
G01X4259580Y1841500D03*
G01X4191000Y1887220D03*
G01X2489200Y-1912667D03*
G01X2584701Y-1887267D03*
G01X2575560Y-1795780D03*
G01X3360420Y-1793240D03*
G01X3266440Y-1920240D03*
G01X3350260Y-1902460D03*
G01X3314700Y-1981200D03*
G01X4132580Y-1790700D03*
G01X4140200Y-1879600D03*
G01X4038600Y-1912620D03*
G01X4112260Y-1943100D03*
G01X4048760Y-1983740D03*
G01X2560320Y-1953260D03*
G01X2491740Y-1986280D03*
G01X-4193632Y-1795272D03*
G01X-4279992Y-1912159D03*
G01X-4184491Y-1886759D03*
G01X-4208872Y-1952752D03*
G01X-4277452Y-1985772D03*
G01X-3408772Y-1792732D03*
G01X-3418932Y-1901952D03*
G01X-3502752Y-1919732D03*
G01X-3454492Y-1980692D03*
G01X-2636612Y-1790192D03*
G01X-2628992Y-1879092D03*
G01X-2656932Y-1942592D03*
G01X-2720432Y-1983232D03*
G01X-2730592Y-1912112D03*
G01X-2705192Y-1718292D03*
G01X-3487512Y-1731752D03*
G01X-4241892Y-1724152D03*
G01X-1640840Y-1526540D03*
G01X-2098040Y-1656080D03*
G01X-2131060Y-2186940D03*
G01X1722140Y2783820D03*
G01X1892320Y2783820D03*
G01X2062500Y2783820D03*
G01X1722140Y2613640D03*
G01X1892320Y2613640D03*
G01X2062500Y2613640D03*
G01X1722140Y2443460D03*
G01X1892320Y2443460D03*
G01X2062500Y2443460D03*
G01X1722140Y2273280D03*
G01X1892320Y2273280D03*
G01X2062500Y2273280D03*
G01X1722140Y2103100D03*
G01X1892320Y2103100D03*
G01X2062500Y2103100D03*
G01X2062500Y1932920D03*
G01X1892320Y2954000D03*
G01X2062500Y2954000D03*
G01X2062500Y3124180D03*
G01X1849168Y1013045D03*
G01X1849168Y1139989D03*
G01X1849168Y1266989D03*
G01X1722168Y1013045D03*
G01X1595168Y1013045D03*
G01X1595168Y1140045D03*
G01X1595168Y1267045D03*
G01X1595168Y1394045D03*
G01X-2181860Y1993900D03*
G01X-1470363Y1744993D03*
G01X-1597363Y1744993D03*
G01X-1470363Y1998993D03*
G01X-1597363Y1998993D03*
G01X-1470363Y2125993D03*
G01X-1597363Y2125993D03*
G01X1029239Y-2155901D03*
G01X938470Y-2105640D03*
G01X1569042Y-2743200D03*
G01X1520312Y-2993410D03*
G01X1348740Y-2994845D03*
G01X1738892Y-2991792D03*
G01X-2479040Y-609600D03*
G01X-2541727Y-294132D03*
G01X-2471420Y-358140D03*
G01X-2603500Y-358140D03*
G01X-96500Y-1652428D03*
G01X720806Y-1998096D03*
G01X-27998Y-825500D03*
G01X1917700Y325120D03*
G01X2095500Y190500D03*
G01X1691640Y43180D03*
G01X-236220Y789940D03*
G01X101211Y974971D03*
G01X-354546Y1205901D03*
G01X210820Y739120D03*
G01X-490220Y929640D03*
G01X-579120Y1059180D03*
G01X-497840Y1018540D03*
G01X858734Y421426D03*
G01X419100Y1107960D03*
G01X266700Y989673D03*
G01X655320Y1188720D03*
G01X646468Y1004468D03*
G01X-107198Y452120D03*
G01X-1597363Y2252993D03*
G01X-1597363Y2379993D03*
G01X-1470363Y2379993D03*
G01X-1343363Y2379993D03*
G01X-1470363Y2252993D03*
G01X-1216363Y2379993D03*
G01X-1597363Y2506993D03*
G01X-1597363Y2633993D03*
G01X-1470363Y2633993D03*
G01X-1343363Y2506993D03*
G01X-1470363Y2506993D03*
G01X-2106910Y2818110D03*
G01X-1766550Y2818110D03*
G01X-1936730Y2818110D03*
G01X-2106910Y2647930D03*
G01X-1936730Y2647930D03*
G01X-1766550Y2647930D03*
G01X-1766550Y2477750D03*
G01X-1936730Y2477750D03*
G01X-2106910Y2477750D03*
G01X-2106910Y2307570D03*
G01X-1936730Y2307570D03*
G01X-1766550Y2307570D03*
G01X-1936730Y2988290D03*
G01X-2106910Y2988290D03*
G01X-2106910Y3158470D03*
G01X-1079533Y-1158240D03*
G01X-1460533Y-1158240D03*
G01X-1460533Y-777240D03*
G01X-1079533Y-777240D03*
G01X-200660Y-906780D03*
G01X-4246972Y-1218692D03*
G01X-4013292Y-1236472D03*
G01X-3332572Y-1231392D03*
G01X-3484972Y-1231392D03*
G01X-2710272Y-1218692D03*
G01X-2557872Y-1231392D03*
G01X-7620Y-657860D03*
G01X3517900Y-661444D03*
G01X3159760Y-657860D03*
G01X3649980Y-233680D03*
G01X2733040Y-764540D03*
G01X-3563620Y597944D03*
G01X-3205480Y670560D03*
G01X-3639820Y241300D03*
G01X-3200492Y-597436D03*
G01X-3558632Y-670052D03*
G01X-3124292Y-240792D03*
G01X368999Y-1349019D03*
G01X-746760Y-1818640D03*
G01X-746760Y-1925320D03*
G01X-665480Y-2715260D03*
G01X-1093800Y-2386615D03*
G01X-947420Y-2209800D03*
G01X-957580Y-2712720D03*
G01X-1107440Y-2557780D03*
G01X-992200Y-2105660D03*
G01X-1366520Y-2720340D03*
G01X-1716438Y-2720340D03*
G01X-1911154Y-2465728D03*
G01X-1678465Y-2129365D03*
G01X-1836420Y-2270760D03*
G01X-1531620Y-2862580D03*
G01X-1925320Y-2667000D03*
G01X-1221740Y-2839720D03*
G01X-1435100Y-1638300D03*
G01X444500Y-750601D03*
G01X-2725420Y-12700D03*
G01X1583519Y-1692318D03*
G01X1643380Y-2159000D03*
G01X1689100Y-1620520D03*
G01X-609600Y2273300D03*
G01X17780Y2374900D03*
G01X660400Y2268220D03*
G01X15240Y2115820D03*
G01X-1148080Y1076960D03*
G01X-1254760Y1414780D03*
G01X198831Y1645920D03*
G01X-2143760Y1889760D03*
G01X-2037080Y1981200D03*
G01X-2033939Y1770002D03*
G01X-1752600Y1978660D03*
G01X-1744980Y1780540D03*
G01X-1744980Y1879600D03*
G01X-2029460Y1651000D03*
G01X1859280Y1651000D03*
G01X1569720Y1643380D03*
G01X1539240Y1798320D03*
G01X1873921Y1792060D03*
G01X-1470363Y1871993D03*
G01X-1597363Y1871993D03*
G01X419100Y-985520D03*
G01X424180Y-1064260D03*
G01X-294640Y-789940D03*
G01X-373380Y-316733D03*
G01X1015765Y67227D03*
G04 Via End*

G04 Track Start*
G54D11*
G01X565810Y-1742999D02*
G01X565810Y-1692199D01*
G01X552298Y-1756512D02*
G01X565810Y-1742999D01*
G01X-88100Y139344D02*
G01X-88100Y202145D01*
G01X-50000Y101244D02*
G01X-88100Y139344D01*
G01X-83786Y-246797D02*
G01X-157776Y-172807D01*
G01X-79601Y-246797D02*
G01X-83786Y-246797D01*
G01X-13Y211613D02*
G01X-67799Y279400D01*
G01X-13Y101244D02*
G01X-13Y211613D01*
G01X-67799Y279400D02*
G01X-126999Y279401D01*
G01X50000Y198295D02*
G01X62700Y210995D01*
G01X50000Y101244D02*
G01X50000Y198295D01*
G01X236245Y208255D02*
G01X190500Y254000D01*
G01X393700Y210718D02*
G01X391236Y208255D01*
G01X1866900Y-596900D02*
G01X1866900Y-482600D01*
G01X1962201Y-692201D02*
G01X1866900Y-596900D01*
G01X2075790Y-692201D02*
G01X1962201Y-692201D01*
G01X729000Y-944900D02*
G01X711200Y-927100D01*
G01X729000Y-1027490D02*
G01X729000Y-944900D01*
G01X758705Y-1057195D02*
G01X729000Y-1027490D01*
G01X758705Y-1227323D02*
G01X758705Y-1057195D01*
G01X864982Y-1333600D02*
G01X758705Y-1227323D01*
G01X1141992Y-1333600D02*
G01X864982Y-1333600D01*
G01X1533404Y-942188D02*
G01X1141992Y-1333600D01*
G01X2075790Y-942188D02*
G01X1533404Y-942188D01*
G01X817105Y-1033005D02*
G01X787400Y-1003300D01*
G01X817105Y-1082413D02*
G01X817105Y-1033005D01*
G01X794305Y-1105213D02*
G01X817105Y-1082413D01*
G01X794305Y-1212577D02*
G01X794305Y-1105213D01*
G01X879728Y-1298000D02*
G01X794305Y-1212577D01*
G01X1127246Y-1298000D02*
G01X879728Y-1298000D01*
G01X1533045Y-892200D02*
G01X1127246Y-1298000D01*
G01X2075790Y-892200D02*
G01X1533045Y-892200D01*
G01X702004Y-41286D02*
G01X685800Y-25082D01*
G01X702004Y-171591D02*
G01X702004Y-41286D01*
G01X685800Y-25082D02*
G01X685800Y0D01*
G01X2075790Y-842188D02*
G01X1532712Y-842188D01*
G01X1112500Y-1262400D01*
G01X894473Y-1262400D01*
G01X829905Y-1197831D01*
G01X829905Y-1119959D01*
G01X852705Y-1097159D01*
G01X852705Y-967841D01*
G01X736600Y-851736D01*
G01X736600Y-773864D01*
G01X789900Y-720563D01*
G01X789900Y-688300D01*
G01X749300Y-647700D01*
G01X772200Y-836990D02*
G01X772200Y-788610D01*
G01X888305Y-953095D02*
G01X772200Y-836990D01*
G01X888305Y-1111905D02*
G01X888305Y-953095D01*
G01X909219Y-1226800D02*
G01X865505Y-1183085D01*
G01X1090990Y-1226800D02*
G01X909219Y-1226800D01*
G01X1525590Y-792201D02*
G01X1090990Y-1226800D01*
G01X825500Y-735309D02*
G01X825500Y-546100D01*
G01X772200Y-788610D02*
G01X825500Y-735309D01*
G01X865505Y-1134705D02*
G01X888305Y-1111905D01*
G01X865505Y-1183085D02*
G01X865505Y-1134705D01*
G01X2075790Y-792201D02*
G01X1525590Y-792201D01*
G01X920801Y-831901D02*
G01X920801Y-337210D01*
G01X923905Y-835005D02*
G01X920801Y-831901D01*
G01X923905Y-1158895D02*
G01X923905Y-835005D01*
G01X970788Y-494578D02*
G01X970788Y-337210D01*
G01X1135400Y-659190D02*
G01X970788Y-494578D01*
G01X-128210Y-513100D02*
G01X-288459Y-513100D01*
G01X-75815Y-565495D02*
G01X-128210Y-513100D01*
G01X170651Y-565495D02*
G01X-75815Y-565495D01*
G01X370346Y-365800D02*
G01X170651Y-565495D01*
G01X480554Y-365800D02*
G01X370346Y-365800D01*
G01X509077Y-394323D02*
G01X480554Y-365800D01*
G01X572123Y-394323D02*
G01X509077Y-394323D01*
G01X584200Y-406400D02*
G01X572123Y-394323D01*
G01X584200Y-419100D02*
G01X584200Y-406400D01*
G01X521137Y-295392D02*
G01X576600Y-295392D01*
G01X-98718Y-441900D02*
G01X-48424Y-492194D01*
G01X143261Y-492194D01*
G01X-50000Y-217195D02*
G01X-79601Y-246797D01*
G01X-50000Y-101244D02*
G01X-50000Y-217195D01*
G01X805200Y-1643400D02*
G01X774700Y-1612900D01*
G01X824290Y-1643400D02*
G01X805200Y-1643400D01*
G01X858500Y-1677610D02*
G01X824290Y-1643400D01*
G01X858500Y-1696700D02*
G01X858500Y-1677610D01*
G01X870788Y-1708988D02*
G01X858500Y-1696700D01*
G01X870788Y-1847190D02*
G01X870788Y-1708988D01*
G01X820801Y-1722501D02*
G01X800100Y-1701800D01*
G01X820801Y-1847190D02*
G01X820801Y-1722501D01*
G01X565810Y-1542212D02*
G01X678612Y-1542212D01*
G01X698500Y-1562100D01*
G01X920801Y-1949399D02*
G01X863600Y-2006600D01*
G01X920801Y-1847190D02*
G01X920801Y-1949399D01*
G01X970788Y-1935988D02*
G01X1028700Y-1993900D01*
G01X970788Y-1847190D02*
G01X970788Y-1935988D01*
G01X1820799Y-207899D02*
G01X1820799Y-337210D01*
G01X1759589Y-146689D02*
G01X1820799Y-207899D01*
G01X1759589Y45089D02*
G01X1759589Y-146689D01*
G01X1870812Y-194412D02*
G01X1870812Y-337210D01*
G01X1807489Y-131089D02*
G01X1870812Y-194412D01*
G01X1807489Y-8992D02*
G01X1807489Y-131089D01*
G01X1879086Y-15565D02*
G01X1879086Y-101600D01*
G01X1872513Y-8992D02*
G01X1879086Y-15565D01*
G01X1954611Y-178989D02*
G01X1920799Y-212801D01*
G01X1954611Y-26116D02*
G01X1954611Y-178989D01*
G01X1937487Y-8992D02*
G01X1954611Y-26116D01*
G01X1920799Y-212801D02*
G01X1920799Y-337210D01*
G01X1807489Y92989D02*
G01X1759589Y45089D01*
G01X1807489Y135992D02*
G01X1807489Y92989D01*
G01X1117600Y-459680D02*
G01X1117600Y-546100D01*
G01X1020801Y-337210D02*
G01X1020801Y-462001D01*
G01X1041400Y-482600D01*
G01X1270813Y-1689913D02*
G01X1206500Y-1625600D01*
G01X1270813Y-1847190D02*
G01X1270813Y-1689913D01*
G01X1171765Y-1846212D02*
G01X1170788Y-1847190D01*
G01X1171765Y-1717200D02*
G01X1171765Y-1846212D01*
G01X1370813Y-1847190D02*
G01X1370813Y-2159076D01*
G01X1383436Y-2171700D01*
G01X1231900Y-2171700D02*
G01X1232764Y-2171700D01*
G01X1210412Y-2150212D02*
G01X1231900Y-2171700D01*
G01X1210412Y-2080376D02*
G01X1210412Y-2150212D01*
G01X1210412Y-2006600D02*
G01X1210412Y-2080376D01*
G01X1320800Y-1993900D02*
G01X1308100Y-2006600D01*
G01X1320800Y-1847190D02*
G01X1320800Y-1993900D01*
G01X1220800Y-1996211D02*
G01X1220800Y-1847190D01*
G01X1210412Y-2006600D02*
G01X1220800Y-1996211D01*
G01X1126388Y-1986466D02*
G01X1126388Y-2006600D01*
G01X1170788Y-1942067D02*
G01X1126388Y-1986466D01*
G01X1170788Y-1847190D02*
G01X1170788Y-1942067D01*
G01X770788Y-186829D02*
G01X770788Y-337210D01*
G01X786027Y-171591D02*
G01X770788Y-186829D01*
G01X720801Y-190388D02*
G01X720801Y-337210D01*
G01X702004Y-171591D02*
G01X720801Y-190388D01*
G01X565810Y-1442212D02*
G01X665988Y-1442212D01*
G01X565810Y-1492199D02*
G01X717601Y-1492199D01*
G01X665988Y-1442212D02*
G01X762000Y-1346200D01*
G01X717601Y-1492199D02*
G01X749300Y-1460500D01*
G54D57*
G01X1911325Y-2872539D02*
G01X1976323Y-2937538D01*
G01X1879321Y-2872539D02*
G01X1911325Y-2872539D01*
G01X1177315Y-2872539D02*
G01X1209319Y-2872539D01*
G01X1112317Y-2937538D02*
G01X1177315Y-2872539D01*
G54D11*
G01X393692Y70002D02*
G01X388689Y75006D01*
G01X327602Y3912D02*
G01X393692Y70002D01*
G01X241300Y3912D02*
G01X327602Y3912D01*
G01X388689Y75006D02*
G01X126200Y75006D01*
G01X212395Y-24994D02*
G01X241300Y3912D01*
G01X126200Y-24994D02*
G01X212395Y-24994D01*
G01X236195Y-75006D02*
G01X241300Y-80112D01*
G01X126200Y-75006D02*
G01X236195Y-75006D01*
G54D58*
G01X383583Y-80112D02*
G01X241300Y-80112D01*
G01X393692Y-70002D02*
G01X383583Y-80112D01*
G01X393692Y-165100D02*
G01X393692Y-70002D01*
G01X388404Y-170389D02*
G01X393692Y-165100D01*
G54D59*
G01X3281588Y1513141D02*
G01X3334229Y1460500D01*
G01X3281588Y1593545D02*
G01X3281588Y1513141D01*
G01X3306988Y1712659D02*
G01X3306988Y1928559D01*
G01X3281588Y1687259D02*
G01X3306988Y1712659D01*
G01X3281588Y1593545D02*
G01X3281588Y1687259D01*
G01X3535588Y1522159D02*
G01X3535588Y1593545D01*
G01X3473929Y1460500D02*
G01X3535588Y1522159D01*
G01X3408588Y1593545D02*
G01X3408588Y1739808D01*
G01X3434080Y1765300D01*
G01X3306988Y1928559D02*
G01X3386380Y2007951D01*
G01X3614980Y1856514D02*
G01X3499894Y1856514D01*
G01X3484880Y1841500D01*
G01X3386380Y2007951D02*
G01X3386380Y2073200D01*
G01X3421380Y2108200D01*
G01X2611680Y2073200D02*
G01X2646680Y2108200D01*
G01X2633888Y1593545D02*
G01X2633888Y1739808D01*
G01X2659380Y1765300D01*
G01X2840280Y1856514D02*
G01X2725194Y1856514D01*
G01X2710180Y1841500D01*
G01X2557780Y1231900D02*
G01X2506888Y1181008D01*
G01X2699229Y1460500D02*
G01X2760888Y1522159D01*
G01X2760888Y1593545D01*
G01X2506888Y1593545D02*
G01X2506888Y1687259D01*
G01X2532288Y1712659D01*
G01X2532288Y1928559D01*
G01X2506888Y1593545D02*
G01X2506888Y1513141D01*
G01X2559529Y1460500D01*
G01X2532288Y1928559D02*
G01X2611680Y2007951D01*
G01X2611680Y2073200D01*
G01X4161080Y2073200D02*
G01X4196080Y2108200D01*
G01X4183288Y1593545D02*
G01X4183288Y1739808D01*
G01X4208780Y1765300D01*
G01X4389680Y1856514D02*
G01X4274594Y1856514D01*
G01X4259580Y1841500D01*
G01X4248629Y1460500D02*
G01X4310288Y1522159D01*
G01X4310288Y1593545D01*
G01X4056288Y1593545D02*
G01X4056288Y1687259D01*
G01X4081688Y1712659D01*
G01X4081688Y1928559D01*
G01X4056288Y1593545D02*
G01X4056288Y1513141D01*
G01X4108929Y1460500D01*
G01X4081688Y1928559D02*
G01X4161080Y2007951D01*
G01X4161080Y2073200D01*
G01X2633888Y1079551D02*
G01X2633888Y977992D01*
G01X4183288Y1079551D02*
G01X4183288Y1003208D01*
G01X3599180Y812800D02*
G01X3510280Y812800D01*
G01X4310288Y1155792D02*
G01X4246880Y1219200D01*
G01X2760888Y1168492D02*
G01X2710180Y1219200D01*
G01X3535588Y1181192D02*
G01X3484880Y1231900D01*
G01X4183288Y1003208D02*
G01X4056380Y876300D01*
G01X3662680Y876300D02*
G01X3599180Y812800D01*
G01X2668168Y571500D02*
G01X2668168Y444500D01*
G01X2758470Y310032D02*
G01X2758470Y438221D01*
G01X2752192Y444500D01*
G01X2672080Y440588D02*
G01X2672080Y317500D01*
G01X2818282Y95098D02*
G01X2799080Y114300D01*
G01X2913380Y95098D02*
G01X2818282Y95098D01*
G01X2697480Y139700D02*
G01X2697480Y165045D01*
G01X2758470Y226036D01*
G54D60*
G01X2887888Y1593545D02*
G01X2932735Y1593545D01*
G01X2975409Y1550871D01*
G54D59*
G01X3332480Y1231900D02*
G01X3281588Y1181008D01*
G54D60*
G01X3662588Y1593545D02*
G01X3707435Y1593545D01*
G01X3751580Y1549400D01*
G01X4524809Y1550871D02*
G01X4482135Y1593545D01*
G01X4437288Y1593545D01*
G54D59*
G01X-4231732Y1928559D02*
G01X-4152340Y2007951D01*
G01X-4206240Y1231900D02*
G01X-4257132Y1181008D01*
G01X-4257132Y1079551D01*
G01X-4257132Y1593545D02*
G01X-4257132Y1687259D01*
G01X-4231732Y1712659D01*
G01X-4231732Y1928559D01*
G01X-4257132Y1593545D02*
G01X-4257132Y1513141D01*
G01X-4204491Y1460500D01*
G01X-4011828Y444500D02*
G01X-4011828Y571500D01*
G01X-4095852Y444500D02*
G01X-4095852Y571500D01*
G01X-4005550Y438221D02*
G01X-4011828Y444500D01*
G01X-4005550Y310032D02*
G01X-4005550Y438221D01*
G01X-4091940Y440588D02*
G01X-4091940Y317500D01*
G54D60*
G01X-2239211Y1550871D02*
G01X-2281885Y1593545D01*
G01X-2326732Y1593545D01*
G54D59*
G01X-3431143Y820405D02*
G01X-3355432Y896116D01*
G01X-3164840Y812800D02*
G01X-3253740Y812800D01*
G01X-3355432Y896116D02*
G01X-3355432Y1079551D01*
G01X-4003132Y1079551D02*
G01X-4003132Y1168492D01*
G01X-4053840Y1219200D01*
G01X-2580732Y1003208D02*
G01X-2707640Y876300D01*
G01X-3101340Y876300D01*
G01X-3164840Y812800D01*
G01X-4130132Y1593545D02*
G01X-4130132Y1739808D01*
G01X-4104640Y1765300D01*
G01X-3923740Y1856514D02*
G01X-4038826Y1856514D01*
G01X-4053840Y1841500D01*
G01X-4064791Y1460500D02*
G01X-4003132Y1522159D01*
G01X-4003132Y1593545D01*
G54D60*
G01X-3876132Y1593545D02*
G01X-3831285Y1593545D01*
G01X-3788611Y1550871D01*
G54D59*
G01X-2453732Y1079551D02*
G01X-2453732Y1155792D01*
G01X-2580732Y1079551D02*
G01X-2580732Y1003208D01*
G54D60*
G01X-3101432Y1593545D02*
G01X-3056585Y1593545D01*
G01X-3012440Y1549400D01*
G54D59*
G01X-3482432Y1513141D02*
G01X-3429791Y1460500D01*
G01X-3482432Y1593545D02*
G01X-3482432Y1513141D01*
G01X-3482432Y1593545D02*
G01X-3482432Y1687259D01*
G01X-3228432Y1522159D02*
G01X-3228432Y1593545D01*
G01X-3290091Y1460500D02*
G01X-3228432Y1522159D01*
G01X-2515391Y1460500D02*
G01X-2453732Y1522159D01*
G01X-2453732Y1593545D01*
G01X-2707732Y1593545D02*
G01X-2707732Y1687259D01*
G01X-2682332Y1712659D01*
G01X-2707732Y1593545D02*
G01X-2707732Y1513141D01*
G01X-2655091Y1460500D01*
G01X-2453732Y1155792D02*
G01X-2517140Y1219200D01*
G01X-3228432Y1181192D02*
G01X-3279140Y1231900D01*
G01X-3431540Y1231900D02*
G01X-3482432Y1181008D01*
G01X-3482432Y1079551D01*
G01X-3228432Y1079551D02*
G01X-3228432Y1181192D01*
G01X-4152340Y2073200D02*
G01X-4117340Y2108200D01*
G01X-2602940Y2073200D02*
G01X-2567940Y2108200D01*
G01X-2682332Y1928559D02*
G01X-2602940Y2007951D01*
G01X-2602940Y2073200D01*
G01X-4152340Y2007951D02*
G01X-4152340Y2073200D01*
G01X-3377640Y2007951D02*
G01X-3377640Y2073200D01*
G01X-3457032Y1928559D02*
G01X-3377640Y2007951D01*
G01X-3377640Y2073200D02*
G01X-3342640Y2108200D01*
G01X-3457032Y1712659D02*
G01X-3457032Y1928559D01*
G01X-3482432Y1687259D02*
G01X-3457032Y1712659D01*
G01X-3264126Y1856514D02*
G01X-3279140Y1841500D01*
G01X-3149040Y1856514D02*
G01X-3264126Y1856514D01*
G01X-3355432Y1739808D02*
G01X-3329940Y1765300D01*
G01X-3355432Y1593545D02*
G01X-3355432Y1739808D01*
G01X-2580732Y1593545D02*
G01X-2580732Y1739808D01*
G01X-2555240Y1765300D01*
G01X-2374340Y1856514D02*
G01X-2489426Y1856514D01*
G01X-2504440Y1841500D01*
G01X-2682332Y1712659D02*
G01X-2682332Y1928559D01*
G01X-2532380Y-1928052D02*
G01X-2611772Y-2007444D01*
G01X-2506980Y-1593037D02*
G01X-2506980Y-1686752D01*
G01X-2532380Y-1712152D01*
G01X-2532380Y-1928052D01*
G01X-2506980Y-1593037D02*
G01X-2506980Y-1512633D01*
G01X-2559621Y-1459992D01*
G01X-3078572Y-609092D02*
G01X-3040472Y-570992D01*
G01X-2752284Y-570992D01*
G01X-2752284Y-443992D02*
G01X-2752284Y-570992D01*
G01X-2668260Y-443992D02*
G01X-2668260Y-570992D01*
G01X-2758562Y-437713D02*
G01X-2752284Y-443992D01*
G01X-2758562Y-309525D02*
G01X-2758562Y-437713D01*
G01X-2818374Y-94590D02*
G01X-2799172Y-113792D01*
G01X-2913472Y-94590D02*
G01X-2818374Y-94590D01*
G01X-2697572Y-139192D02*
G01X-2697572Y-164538D01*
G01X-2758562Y-225528D01*
G54D60*
G01X-4524901Y-1550363D02*
G01X-4482227Y-1593037D01*
G01X-4437380Y-1593037D01*
G54D59*
G01X-2840372Y-1856006D02*
G01X-2725286Y-1856006D01*
G01X-2710272Y-1840992D01*
G01X-2699321Y-1459992D02*
G01X-2760980Y-1521652D01*
G01X-2760980Y-1593037D01*
G54D60*
G01X-2887980Y-1593037D02*
G01X-2932827Y-1593037D01*
G01X-2975501Y-1550363D01*
G01X-3662680Y-1593037D02*
G01X-3707527Y-1593037D01*
G01X-3751672Y-1548892D01*
G54D59*
G01X-3281680Y-1512633D02*
G01X-3334321Y-1459992D01*
G01X-3281680Y-1593037D02*
G01X-3281680Y-1512633D01*
G01X-3281680Y-1593037D02*
G01X-3281680Y-1686752D01*
G01X-3535680Y-1521652D02*
G01X-3535680Y-1593037D01*
G01X-3474021Y-1459992D02*
G01X-3535680Y-1521652D01*
G01X-4248721Y-1459992D02*
G01X-4310380Y-1521652D01*
G01X-4310380Y-1593037D01*
G01X-4056380Y-1593037D02*
G01X-4056380Y-1686752D01*
G01X-4081780Y-1712152D01*
G01X-4056380Y-1593037D02*
G01X-4056380Y-1512633D01*
G01X-4109021Y-1459992D01*
G01X-2611772Y-2072692D02*
G01X-2646772Y-2107692D01*
G01X-4161172Y-2072692D02*
G01X-4196172Y-2107692D01*
G01X-4081780Y-1928052D02*
G01X-4161172Y-2007444D01*
G01X-4161172Y-2072692D01*
G01X-2611772Y-2007444D02*
G01X-2611772Y-2072692D01*
G01X-3386472Y-2007444D02*
G01X-3386472Y-2072692D01*
G01X-3307080Y-1928052D02*
G01X-3386472Y-2007444D01*
G01X-3386472Y-2072692D02*
G01X-3421472Y-2107692D01*
G01X-3307080Y-1712152D02*
G01X-3307080Y-1928052D01*
G01X-3281680Y-1686752D02*
G01X-3307080Y-1712152D01*
G01X-3499986Y-1856006D02*
G01X-3484972Y-1840992D01*
G01X-3615072Y-1856006D02*
G01X-3499986Y-1856006D01*
G01X-4389772Y-1856006D02*
G01X-4274686Y-1856006D01*
G01X-4259672Y-1840992D01*
G01X-4081780Y-1712152D02*
G01X-4081780Y-1928052D01*
G01X4236812Y-1928559D02*
G01X4157420Y-2007951D01*
G01X4211320Y-1231900D02*
G01X4262212Y-1181008D01*
G01X4262212Y-1079551D01*
G01X4262212Y-1593545D02*
G01X4262212Y-1687259D01*
G01X4236812Y-1712659D01*
G01X4236812Y-1928559D01*
G01X4262212Y-1593545D02*
G01X4262212Y-1513141D01*
G01X4209571Y-1460500D01*
G01X3690620Y-609600D02*
G01X3728720Y-571500D01*
G01X4016908Y-571500D01*
G01X4016908Y-444500D02*
G01X4016908Y-571500D01*
G01X4100932Y-444500D02*
G01X4100932Y-571500D01*
G01X4010630Y-438221D02*
G01X4016908Y-444500D01*
G01X4010630Y-310032D02*
G01X4010630Y-438221D01*
G54D60*
G01X2244291Y-1550871D02*
G01X2286965Y-1593545D01*
G01X2331812Y-1593545D01*
G54D59*
G01X3169920Y-812800D02*
G01X3258820Y-812800D01*
G01X4008212Y-1079551D02*
G01X4008212Y-1168492D01*
G01X4058920Y-1219200D01*
G01X2585812Y-1003208D02*
G01X2712720Y-876300D01*
G01X3106420Y-876300D02*
G01X3169920Y-812800D01*
G01X3928820Y-1856514D02*
G01X4043906Y-1856514D01*
G01X4058920Y-1841500D01*
G01X4069871Y-1460500D02*
G01X4008212Y-1522159D01*
G01X4008212Y-1593545D01*
G54D60*
G01X3881212Y-1593545D02*
G01X3836365Y-1593545D01*
G01X3793691Y-1550871D01*
G54D59*
G01X2458812Y-1079551D02*
G01X2458812Y-1155792D01*
G01X2585812Y-1079551D02*
G01X2585812Y-1003208D01*
G54D60*
G01X3106512Y-1593545D02*
G01X3061665Y-1593545D01*
G01X3017520Y-1549400D01*
G54D59*
G01X3487512Y-1513141D02*
G01X3434871Y-1460500D01*
G01X3487512Y-1593545D02*
G01X3487512Y-1513141D01*
G01X3487512Y-1593545D02*
G01X3487512Y-1687259D01*
G01X3233512Y-1522159D02*
G01X3233512Y-1593545D01*
G01X3295171Y-1460500D02*
G01X3233512Y-1522159D01*
G01X2520471Y-1460500D02*
G01X2458812Y-1522159D01*
G01X2458812Y-1593545D01*
G01X2712812Y-1593545D02*
G01X2712812Y-1687259D01*
G01X2687412Y-1712659D01*
G01X2712812Y-1593545D02*
G01X2712812Y-1513141D01*
G01X2660171Y-1460500D01*
G01X2458812Y-1155792D02*
G01X2522220Y-1219200D01*
G01X3233512Y-1181192D02*
G01X3284220Y-1231900D01*
G01X3436620Y-1231900D02*
G01X3487512Y-1181008D01*
G01X3487512Y-1079551D01*
G01X3233512Y-1079551D02*
G01X3233512Y-1181192D01*
G01X4157420Y-2073200D02*
G01X4122420Y-2108200D01*
G01X2608020Y-2073200D02*
G01X2573020Y-2108200D01*
G01X2687412Y-1928559D02*
G01X2608020Y-2007951D01*
G01X2608020Y-2073200D01*
G01X4157420Y-2007951D02*
G01X4157420Y-2073200D01*
G01X3382720Y-2007951D02*
G01X3382720Y-2073200D01*
G01X3462112Y-1928559D02*
G01X3382720Y-2007951D01*
G01X3382720Y-2073200D02*
G01X3347720Y-2108200D01*
G01X3462112Y-1712659D02*
G01X3462112Y-1928559D01*
G01X3487512Y-1687259D02*
G01X3462112Y-1712659D01*
G01X3269206Y-1856514D02*
G01X3284220Y-1841500D01*
G01X3154120Y-1856514D02*
G01X3269206Y-1856514D01*
G01X2379420Y-1856514D02*
G01X2494506Y-1856514D01*
G01X2509520Y-1841500D01*
G01X2687412Y-1712659D02*
G01X2687412Y-1928559D01*
G54D11*
G01X1935203Y-1705509D02*
G01X1998500Y-1642212D01*
G01X2075790Y-1642212D01*
G01X2075790Y-1692199D02*
G01X2006600Y-1761388D01*
G01X2006600Y-1765300D01*
G01X2075790Y-1592199D02*
G01X1913001Y-1592199D01*
G01X1892300Y-1612900D01*
G01X1879600Y-1435100D02*
G01X1936699Y-1492199D01*
G01X2075790Y-1492199D01*
G01X1938000Y-1165785D02*
G01X1964415Y-1192200D01*
G01X2075790Y-1192200D01*
G01X2075790Y-642188D02*
G01X1975688Y-642188D01*
G01X1917700Y-584200D01*
G01X1917700Y-533400D01*
G01X1943100Y-508000D01*
G01X1943100Y-469900D01*
G01X2203298Y-635000D02*
G01X2160499Y-592201D01*
G01X2075790Y-592201D01*
G01X2075790Y-542188D02*
G01X2193076Y-542188D01*
G01X2209066Y-558179D01*
G01X2075790Y-492201D02*
G01X2076684Y-491306D01*
G01X2076684Y-425684D01*
G54D58*
G01X-593202Y-148895D02*
G01X-593202Y-130698D01*
G01X-673100Y-50800D01*
G54D11*
G01X-440995Y-783895D02*
G01X-593202Y-783895D01*
G01X-593202Y-402895D02*
G01X182214Y-402895D01*
G01X634449Y-358723D02*
G01X523823Y-358723D01*
G01X495300Y-330200D01*
G01X355600Y-330200D01*
G01X155905Y-529895D01*
G01X-61069Y-529895D01*
G01X-113464Y-477500D01*
G01X-303850Y-477500D01*
G01X-483245Y-656895D01*
G01X-593202Y-656895D01*
G01X-288459Y-513100D02*
G01X-393700Y-618341D01*
G01X-393700Y-736600D01*
G01X-440995Y-783895D01*
G01X-340300Y-441900D02*
G01X-98718Y-441900D01*
G01X-428295Y-529895D02*
G01X-340300Y-441900D01*
G01X-593202Y-529895D02*
G01X-428295Y-529895D01*
G54D59*
G01X-596900Y-1143000D02*
G01X-593202Y-1139302D01*
G01X-593202Y-1037895D01*
G54D58*
G01X-1845201Y43104D02*
G01X-1872056Y43104D01*
G01X-1953260Y-38100D01*
G54D59*
G01X-3374895Y266697D02*
G01X-3184398Y76200D01*
G01X-2458720Y76200D01*
G01X3374895Y-266697D02*
G01X3184398Y-76200D01*
G01X2458720Y-76200D01*
G54D58*
G01X-814050Y-105846D02*
G01X-772160Y-63955D01*
G01X-814050Y-1233190D02*
G01X-814050Y-105846D01*
G54D61*
G01X-1844705Y-1236904D02*
G01X-2411049Y-670560D01*
G01X-2550160Y-670560D01*
G54D11*
G01X1059180Y-1163320D02*
G01X1135400Y-1087100D01*
G01X1135400Y-659190D01*
G54D59*
G01X3362563Y-825485D02*
G01X3360512Y-827536D01*
G01X3360512Y-1079551D01*
G01X2585812Y-1593545D02*
G01X2585812Y-1666148D01*
G01X2527300Y-1724660D01*
G01X3360512Y-1593545D02*
G01X3360512Y-1653428D01*
G01X3281680Y-1732260D01*
G01X4135212Y-1593545D02*
G01X4135212Y-1647588D01*
G01X4064000Y-1718800D01*
G01X-4183380Y-1665640D02*
G01X-4241892Y-1724152D01*
G01X-4183380Y-1593037D02*
G01X-4183380Y-1665640D01*
G01X-3408680Y-1652920D02*
G01X-3487512Y-1731752D01*
G01X-3408680Y-1593037D02*
G01X-3408680Y-1652920D01*
G01X-2633980Y-1647081D02*
G01X-2705192Y-1718292D01*
G01X-2633980Y-1593037D02*
G01X-2633980Y-1647081D01*
G54D11*
G01X1220800Y-337210D02*
G01X1220800Y-219380D01*
G54D59*
G01X-2668260Y-443992D02*
G01X-2669632Y-442621D01*
G01X-2669632Y-294132D01*
G54D11*
G01X1289329Y-2872539D02*
G01X1319327Y-2872539D01*
G01X1719326Y-2872539D02*
G01X1719326Y-2728986D01*
G01X1726509Y-2721803D01*
G01X1469314Y-2872539D02*
G01X1469314Y-2941983D01*
G54D59*
G01X1209319Y-2872539D02*
G01X1220064Y-2861795D01*
G01X1220064Y-2722880D01*
G01X1879321Y-2872539D02*
G01X1879321Y-2723942D01*
G01X1877182Y-2721803D01*
G54D11*
G01X1419327Y-2872539D02*
G01X1419327Y-2771470D01*
G01X1370736Y-2722880D01*
G54D62*
G01X1781830Y-2944103D02*
G01X1781830Y-2937530D01*
G01X1319327Y-2872539D02*
G01X1319327Y-2950989D01*
G54D11*
G01X1920799Y-1847190D02*
G01X1936648Y-1831340D01*
G01X2098040Y-1831340D01*
G01X1519326Y-2792916D02*
G01X1569042Y-2743200D01*
G01X1519326Y-2872539D02*
G01X1519326Y-2792916D01*
G01X1569042Y-2743200D02*
G01X1619326Y-2793484D01*
G01X1619326Y-2872539D01*
G01X1569720Y-2941602D02*
G01X1569720Y-2872946D01*
G01X1569314Y-2872539D01*
G01X1520312Y-2991010D02*
G01X1569720Y-2941602D01*
G01X1469314Y-2941983D02*
G01X1520312Y-2992982D01*
G01X1520312Y-2991010D01*
G54D62*
G01X1738892Y-2991792D02*
G01X1738892Y-2987041D01*
G01X1781830Y-2944103D01*
G01X1319327Y-2950989D02*
G01X1348740Y-2980402D01*
G01X1348740Y-2994845D01*
G54D11*
G01X411277Y-1611732D02*
G01X453946Y-1611732D01*
G01X463372Y-1342212D02*
G01X565810Y-1342212D01*
G01X471780Y-1292200D02*
G01X565810Y-1292200D01*
G01X137160Y-1036320D02*
G01X337820Y-1036320D01*
G54D63*
G01X-293649Y-2499360D02*
G01X273329Y-2499360D01*
G54D64*
G01X273329Y-2729357D02*
G01X228623Y-2774064D01*
G01X228623Y-2959100D01*
G54D61*
G01X273329Y-2729357D02*
G01X444525Y-2729357D01*
G01X497840Y-2676042D01*
G01X497840Y-2536038D02*
G01X461162Y-2499360D01*
G01X273329Y-2499360D01*
G54D14*
G01X273329Y-2269363D02*
G01X223520Y-2219554D01*
G01X223520Y-1959456D02*
G01X46012Y-1781948D01*
G54D11*
G01X421640Y-1786992D02*
G01X521818Y-1786992D01*
G01X552298Y-1756512D01*
G01X604520Y-1845158D02*
G01X604520Y-1808734D01*
G01X552298Y-1756512D01*
G54D62*
G01X411277Y-1611732D02*
G01X411277Y-1692605D01*
G01X421640Y-1702968D01*
G54D11*
G01X453946Y-1611732D02*
G01X485594Y-1643380D01*
G01X564642Y-1643380D01*
G01X565810Y-1642212D01*
G54D62*
G01X720806Y-1998096D02*
G01X617454Y-1998096D01*
G01X604520Y-1985162D01*
G54D14*
G01X223520Y-2103539D02*
G01X223520Y-1959456D01*
G01X223520Y-2219554D02*
G01X223520Y-2103539D01*
G54D11*
G01X12700Y-1054100D02*
G01X-50394Y-991006D01*
G01X-50394Y-913003D01*
G01X62103Y-800506D02*
G01X37109Y-825500D01*
G01X62103Y-850494D02*
G01X37109Y-825500D01*
G01X-27998Y-825500D01*
G01X-406Y-913003D02*
G01X-406Y-853092D01*
G01X-27998Y-825500D01*
G01X1937487Y94513D02*
G01X2002511Y29489D01*
G01X2002511Y-8992D01*
G01X2065020Y45720D02*
G01X2010308Y-8992D01*
G01X2002511Y-8992D01*
G01X2013052Y226060D02*
G01X2013052Y146533D01*
G01X2002511Y135992D01*
G01X1816100Y237388D02*
G01X1872513Y180975D01*
G01X1872513Y135992D01*
G01X1833677Y321412D02*
G01X1816100Y321412D01*
G01X1879041Y276048D02*
G01X1917700Y314707D01*
G01X1917700Y325120D01*
G01X1879041Y276048D02*
G01X1833677Y321412D01*
G01X2095500Y190500D02*
G01X2059940Y226060D01*
G01X2013052Y226060D01*
G01X1691640Y43180D02*
G01X1691640Y167640D01*
G01X1761388Y237388D01*
G01X1816100Y237388D01*
G54D59*
G01X-3855720Y123088D02*
G01X-3796132Y63500D01*
G01X-3725316Y63500D01*
G01X3808832Y-67067D02*
G01X3855720Y-113955D01*
G01X3855720Y-123088D01*
G01X3720236Y-63500D02*
G01X3723803Y-67067D01*
G01X3808832Y-67067D01*
G01X-3046416Y-68072D02*
G01X-2967980Y-68072D01*
G01X-2913472Y-122581D01*
G54D11*
G01X2313940Y-677509D02*
G01X2219289Y-772160D01*
G01X2313940Y-22860D02*
G01X2313940Y-677509D01*
G01X2402840Y66040D02*
G01X2313940Y-22860D01*
G01X2514600Y66040D02*
G01X2402840Y66040D01*
G01X3394205Y266697D02*
G01X3394205Y92205D01*
G01X3286760Y-15240D01*
G01X2595880Y-15240D01*
G01X2514600Y66040D01*
G54D59*
G01X3046324Y66040D02*
G01X2970428Y66040D01*
G01X2913380Y123088D01*
G54D11*
G01X393700Y297282D02*
G01X393700Y386080D01*
G01X419100Y411480D01*
G01X333970Y444398D02*
G01X266700Y377129D01*
G01X266700Y297282D01*
G54D58*
G01X-772160Y-63955D02*
G01X-772160Y170180D01*
G54D11*
G01X-579120Y1059180D02*
G01X-543199Y1059180D01*
G01X-467380Y1134999D01*
G01X-467380Y1463020D01*
G01X-33020Y-1270000D02*
G01X147320Y-1089660D01*
G01X-71120Y-1153160D02*
G01X20320Y-1153160D01*
G01X137160Y-1036320D01*
G01X-490220Y929640D02*
G01X-284480Y1135380D01*
G01X-284480Y1396175D01*
G01X-241300Y1439355D01*
G01X-497840Y1018540D02*
G01X-412946Y1103434D01*
G01X-412946Y1377774D01*
G01X-327660Y1463060D01*
G01X-467380Y1463020D02*
G01X-422465Y1507935D01*
G01X-365376Y1507935D01*
G01X-351850Y1521460D01*
G01X-303470Y1521460D01*
G01X-289944Y1507935D01*
G01X93980Y1507935D01*
G54D59*
G01X42048Y1309972D02*
G01X111898Y1309972D01*
G01X143005Y1341080D01*
G01X227029Y1341080D02*
G01X294640Y1408691D01*
G01X294640Y1421575D01*
G54D11*
G01X391236Y208255D02*
G01X236245Y208255D01*
G54D58*
G01X-238760Y703580D02*
G01X-116840Y703580D01*
G01X-772160Y170180D02*
G01X-238760Y703580D01*
G01X-116840Y703580D02*
G01X-83820Y736600D01*
G01X-83820Y972820D01*
G01X-48042Y1008598D01*
G01X-48042Y1082973D01*
G01X140633Y1082973D02*
G01X363220Y1305560D01*
G01X-52948Y1082973D02*
G01X-48042Y1082973D01*
G01X140633Y1082973D01*
G01X363220Y1305560D02*
G01X538480Y1305560D01*
G01X655320Y1188720D01*
G54D59*
G01X29312Y960120D02*
G01X86360Y960120D01*
G01X101211Y974971D01*
G54D11*
G01X-236220Y789940D02*
G01X-236220Y1360615D01*
G01X-157480Y1439355D01*
G01X-60960Y1354988D02*
G01X-2968Y1354988D01*
G01X42048Y1309972D01*
G01X-147945Y1309972D02*
G01X-147945Y1366299D01*
G01X-74064Y1440180D01*
G01X-62128Y1440180D01*
G01X-60960Y1439012D01*
G01X4891Y1439012D01*
G01X10853Y1433050D01*
G01X62103Y-850494D02*
G01X126238Y-850494D01*
G01X157480Y-819252D01*
G01X62103Y-750494D02*
G01X142215Y-750494D01*
G01X157480Y-735228D01*
G01X-200660Y-906780D02*
G01X-119177Y-906780D01*
G01X-112903Y-900506D01*
G01X-200660Y-906780D02*
G01X-144374Y-850494D01*
G01X-112903Y-850494D01*
G54D59*
G01X3497682Y909320D02*
G01X3535588Y947226D01*
G01X3535588Y1079551D01*
G01X2367280Y139700D02*
G01X2352040Y124460D01*
G01X2697480Y139700D02*
G01X2367280Y139700D01*
G01X2668168Y444500D02*
G01X2672080Y440588D01*
G01X3812642Y1028700D02*
G01X3764280Y1028700D01*
G01X3858260Y983082D02*
G01X3812642Y1028700D01*
G01X2633888Y977992D02*
G01X2735580Y876300D01*
G01X2796540Y876300D01*
G01X2847340Y825500D01*
G01X2936240Y911962D02*
G01X2862478Y911962D01*
G01X2760888Y1013552D01*
G01X2760888Y1079551D01*
G54D61*
G01X2383080Y1856514D02*
G01X2383080Y1442160D01*
G01X2479040Y1346200D01*
G01X2768600Y1346200D01*
G01X2887888Y1226912D01*
G01X2887888Y1079551D01*
G01X3543300Y1346200D02*
G01X3662588Y1226912D01*
G01X3253740Y1346200D02*
G01X3543300Y1346200D01*
G01X3662588Y1226912D02*
G01X3662588Y1079551D01*
G01X3157780Y1442160D02*
G01X3253740Y1346200D01*
G01X3157780Y1856514D02*
G01X3157780Y1442160D01*
G01X4318000Y1346200D02*
G01X4437288Y1226912D01*
G01X4028440Y1346200D02*
G01X4318000Y1346200D01*
G01X4437288Y1226912D02*
G01X4437288Y1079551D01*
G01X3932480Y1442160D02*
G01X4028440Y1346200D01*
G01X3932480Y1856514D02*
G01X3932480Y1442160D01*
G54D59*
G01X4013200Y1236980D02*
G01X4056288Y1193892D01*
G01X-4008212Y1079551D02*
G01X-4008212Y1011012D01*
G01X-3909162Y911962D01*
G01X-3881120Y911962D01*
G01X-3273958Y914400D02*
G01X-3233512Y954846D01*
G01X-3233512Y1079551D01*
G01X-4100932Y444500D02*
G01X-4097020Y440588D01*
G01X-4130132Y977992D02*
G01X-4028440Y876300D01*
G01X-3971069Y876300D02*
G01X-3920269Y825500D01*
G01X-4028440Y876300D02*
G01X-3971069Y876300D01*
G54D61*
G01X-3932572Y-1856006D02*
G01X-3932572Y-1441652D01*
G54D59*
G01X-3812734Y-1028192D02*
G01X-3764372Y-1028192D01*
G01X-3858352Y-982574D02*
G01X-3812734Y-1028192D01*
G01X-4183380Y-1002700D02*
G01X-4056472Y-875792D01*
G01X-4183380Y-1079043D02*
G01X-4183380Y-1002700D01*
G01X-3662772Y-875792D02*
G01X-3599272Y-812292D01*
G01X-3510372Y-812292D01*
G01X-3497774Y-908812D02*
G01X-3535680Y-946719D01*
G01X-3408680Y-895609D02*
G01X-3408680Y-1079043D01*
G01X-3332969Y-819898D02*
G01X-3408680Y-895609D01*
G01X-3535680Y-1180684D02*
G01X-3484972Y-1231392D01*
G01X-3281680Y-1180500D02*
G01X-3281680Y-1079043D01*
G01X-3332572Y-1231392D02*
G01X-3281680Y-1180500D01*
G01X-4056380Y-1193384D02*
G01X-4056380Y-1079043D01*
G01X-4013292Y-1236472D02*
G01X-4056380Y-1193384D01*
G01X-4310380Y-1155284D02*
G01X-4246972Y-1218692D01*
G01X-4310380Y-1079043D02*
G01X-4310380Y-1155284D01*
G01X-2506980Y-1180500D02*
G01X-2506980Y-1079043D01*
G01X-2557872Y-1231392D02*
G01X-2506980Y-1180500D01*
G01X-2710272Y-1218692D02*
G01X-2760980Y-1167984D01*
G01X-2760980Y-1013044D02*
G01X-2862570Y-911454D01*
G01X-2936332Y-911454D01*
G01X-2796632Y-875792D02*
G01X-2847432Y-824992D01*
G01X-2735672Y-875792D02*
G01X-2796632Y-875792D01*
G01X-2633980Y-977484D02*
G01X-2735672Y-875792D01*
G01X-2633980Y-1079043D02*
G01X-2633980Y-977484D01*
G54D61*
G01X-2383172Y-1441652D02*
G01X-2479132Y-1345692D01*
G01X-2768692Y-1345692D02*
G01X-2887980Y-1226404D01*
G01X-2383172Y-1856006D02*
G01X-2383172Y-1441652D01*
G01X-2887980Y-1226404D02*
G01X-2887980Y-1079043D01*
G01X-3157872Y-1856006D02*
G01X-3157872Y-1441652D01*
G01X-3253832Y-1345692D01*
G01X-3543392Y-1345692D01*
G01X-3662680Y-1226404D01*
G01X-3662680Y-1079043D01*
G01X-3932572Y-1441652D02*
G01X-4028532Y-1345692D01*
G01X-4318092Y-1345692D01*
G01X-4437380Y-1226404D01*
G01X-4437380Y-1079043D01*
G01X-2479132Y-1345692D02*
G01X-2768692Y-1345692D01*
G54D59*
G01X-4056472Y-875792D02*
G01X-3662772Y-875792D01*
G01X-3535680Y-946719D02*
G01X-3535680Y-1180684D01*
G01X-2760980Y-1167984D02*
G01X-2760980Y-1013044D01*
G54D61*
G01X-4284980Y1346200D02*
G01X-3995420Y1346200D01*
G01X-3876132Y1226912D01*
G01X-4380940Y1442160D02*
G01X-4284980Y1346200D01*
G01X-3876132Y1226912D02*
G01X-3876132Y1079551D01*
G01X-4380940Y1856514D02*
G01X-4380940Y1442160D01*
G01X-3510280Y1346200D02*
G01X-3220720Y1346200D01*
G01X-3101432Y1226912D01*
G01X-3606240Y1442160D02*
G01X-3510280Y1346200D01*
G01X-3101432Y1226912D02*
G01X-3101432Y1079551D01*
G01X-3606240Y1856514D02*
G01X-3606240Y1442160D01*
G01X-2735580Y1346200D02*
G01X-2446020Y1346200D01*
G01X-2326732Y1226912D01*
G01X-2831540Y1442160D02*
G01X-2735580Y1346200D01*
G01X-2326732Y1226912D02*
G01X-2326732Y1079551D01*
G01X-2831540Y1856514D02*
G01X-2831540Y1442160D01*
G54D59*
G01X-2753360Y1234440D02*
G01X-2707732Y1188812D01*
G01X-2707732Y1079551D01*
G01X4135212Y-1079551D02*
G01X4135212Y-977992D01*
G01X3970020Y-812800D01*
G01X3480200Y-812800D01*
G01X4008212Y-1079551D02*
G01X4008212Y-977992D01*
G01X3921862Y-891642D01*
G01X3863340Y-891642D01*
G01X3233512Y-1079551D02*
G01X3233512Y-950558D01*
G01X3274750Y-909320D01*
G01X3004820Y-1028700D02*
G01X2938882Y-962762D01*
G01X2900680Y-962762D01*
G54D61*
G01X4290060Y-1346200D02*
G01X4000500Y-1346200D01*
G01X3881212Y-1226912D01*
G01X4386020Y-1442160D02*
G01X4290060Y-1346200D01*
G01X3881212Y-1226912D02*
G01X3881212Y-1079551D01*
G01X4386020Y-1856514D02*
G01X4386020Y-1442160D01*
G01X3611320Y-1442160D02*
G01X3515360Y-1346200D01*
G01X3225800Y-1346200D01*
G01X3611320Y-1856514D02*
G01X3611320Y-1442160D01*
G01X3225800Y-1346200D02*
G01X3106512Y-1226912D01*
G01X3106512Y-1079551D01*
G01X2740660Y-1346200D02*
G01X2451100Y-1346200D01*
G01X2836620Y-1442160D02*
G01X2740660Y-1346200D01*
G01X2451100Y-1346200D02*
G01X2331812Y-1226912D01*
G01X2836620Y-1856514D02*
G01X2836620Y-1442160D01*
G01X2331812Y-1226912D02*
G01X2331812Y-1079551D01*
G54D59*
G01X-4130132Y1079551D02*
G01X-4130132Y977992D01*
G01X-2961538Y1028700D02*
G01X-3004820Y1028700D01*
G01X-2898140Y965302D02*
G01X-2961538Y1028700D01*
G01X-4100932Y444500D02*
G01X-4095852Y444500D01*
G01X-171552Y-650240D02*
G01X-171552Y-638708D01*
G01X-231140Y-579120D01*
G01X-87528Y-650240D02*
G01X-15240Y-650240D01*
G01X-7620Y-657860D01*
G54D11*
G01X-7620Y-657860D02*
G01X-7620Y-695223D01*
G01X-50394Y-737997D01*
G01X-7620Y-730783D02*
G01X-406Y-737997D01*
G01X-7620Y-695223D02*
G01X-7620Y-730783D01*
G54D59*
G01X4056380Y876300D02*
G01X3662680Y876300D01*
G01X-2936332Y-824992D02*
G01X-3116672Y-824992D01*
G01X-2847432Y-824992D02*
G01X-2936332Y-824992D01*
G01X2900680Y-876300D02*
G01X3106420Y-876300D01*
G01X2712720Y-876300D02*
G01X2900680Y-876300D01*
G01X-3881120Y825500D02*
G01X-3647440Y825500D01*
G01X-3920269Y825500D02*
G01X-3881222Y825500D01*
G54D11*
G01X1937487Y135992D02*
G01X1937487Y94513D01*
G01X1937487Y217602D02*
G01X1937487Y135992D01*
G01X1929028Y226060D02*
G01X1937487Y217602D01*
G01X1929028Y226060D02*
G01X1879041Y276048D01*
G54D59*
G01X-2898140Y965302D02*
G01X-2961538Y1028700D01*
G01X-2999740Y1028700D01*
G01X2752192Y444500D02*
G01X2752192Y571500D01*
G01X3040380Y571500D01*
G01X3078480Y609600D01*
G01X3558540Y670560D02*
G01X3495040Y607060D01*
G01X3478936Y607060D01*
G01X2758470Y226036D02*
G01X2894456Y226036D01*
G01X3478936Y561340D02*
G01X3478936Y607060D01*
G01X2913380Y342900D02*
G01X3050540Y480060D01*
G01X3397656Y480060D01*
G01X3478936Y561340D01*
G01X3751999Y670560D02*
G01X3558540Y670560D01*
G01X4084739Y337820D02*
G01X3751999Y670560D01*
G01X3200400Y597944D02*
G01X3319148Y597944D01*
G01X3328264Y607060D01*
G01X3718560Y-480060D02*
G01X3371444Y-480060D01*
G01X3855720Y-342900D02*
G01X3718560Y-480060D01*
G01X3371444Y-480060D02*
G01X3290164Y-561340D01*
G01X3855720Y-207112D02*
G01X3855720Y-342900D01*
G01X3290164Y-561340D02*
G01X3290164Y-607060D01*
G01X3855720Y-207112D02*
G01X3874644Y-226036D01*
G01X4010630Y-226036D01*
G01X2733040Y-764540D02*
G01X2755920Y-741660D01*
G01X3274080Y-741660D01*
G01X3296920Y-718820D01*
G01X2661920Y-1221740D02*
G01X2712812Y-1170848D01*
G01X2712812Y-1079551D01*
G01X3572104Y-66040D02*
G01X3572104Y-155804D01*
G01X3649980Y-233680D01*
G01X2732621Y-386080D02*
G01X2732621Y-340360D01*
G01X3649980Y-233680D02*
G01X3649980Y-322999D01*
G01X3632619Y-340360D01*
G01X2894456Y226036D02*
G01X2913380Y207112D01*
G01X2913380Y342900D01*
G01X3196996Y66040D02*
G01X3196996Y168504D01*
G01X3124200Y241300D01*
G01X3124200Y338239D01*
G01X3131401Y345440D01*
G01X-3205480Y670560D02*
G01X-3012021Y670560D01*
G01X-2679281Y337820D01*
G01X-3205480Y670560D02*
G01X-3268980Y607060D01*
G01X-3285084Y607060D01*
G01X-3713480Y480060D02*
G01X-3366364Y480060D01*
G01X-3850640Y342900D02*
G01X-3713480Y480060D01*
G01X-3366364Y480060D02*
G01X-3285084Y561340D01*
G01X-3285084Y607060D01*
G01X-3563620Y597944D02*
G01X-3444872Y597944D01*
G01X-3435756Y607060D01*
G01X-3850640Y207112D02*
G01X-3850640Y342900D01*
G01X-3567024Y66040D02*
G01X-3567024Y168504D01*
G01X-3639820Y241300D01*
G01X-3639820Y338239D01*
G01X-3632619Y345440D01*
G01X-3752091Y-670052D02*
G01X-4084831Y-337312D01*
G01X-3558632Y-670052D02*
G01X-3495132Y-606552D01*
G01X-3479028Y-606552D01*
G01X-3050632Y-479552D02*
G01X-3397748Y-479552D01*
G01X-2913472Y-342392D02*
G01X-3050632Y-479552D01*
G01X-3397748Y-479552D02*
G01X-3479028Y-560832D01*
G01X-3479028Y-606552D01*
G01X-3319239Y-597436D02*
G01X-3328356Y-606552D01*
G01X-2913472Y-206604D02*
G01X-2913472Y-342392D01*
G01X-3197088Y-65532D02*
G01X-3197088Y-167996D01*
G01X-3124292Y-240792D01*
G01X-3124292Y-337731D01*
G01X-3131493Y-344932D01*
G01X-2913472Y-206604D02*
G01X-2894548Y-225528D01*
G01X-2758562Y-225528D01*
G01X-4005550Y226036D02*
G01X-3874644Y226036D01*
G01X-3855720Y207112D01*
G54D11*
G01X368999Y-1349019D02*
G01X223520Y-1203541D01*
G01X565810Y-1392199D02*
G01X558723Y-1385112D01*
G01X419834Y-1349019D02*
G01X368999Y-1349019D01*
G01X558723Y-1385112D02*
G01X455926Y-1385112D01*
G01X419834Y-1349019D01*
G01X-71240Y-1270000D02*
G01X-33020Y-1270000D01*
G01X-86360Y-1254880D02*
G01X-71240Y-1270000D01*
G01X-269240Y-1287780D02*
G01X-101600Y-1455420D01*
G01X403361Y-1455420D01*
G01X490153Y-1542212D01*
G01X565810Y-1542212D01*
G01X484759Y-1592199D02*
G01X565810Y-1592199D01*
G01X-269240Y-1541780D02*
G01X434340Y-1541780D01*
G01X484759Y-1592199D01*
G01X-96500Y-1652428D02*
G01X120808Y-1652428D01*
G54D64*
G01X-1293800Y-2197100D02*
G01X-1316340Y-2174560D01*
G01X-1293800Y-2197100D02*
G01X-1293800Y-2205794D01*
G01X-1542769Y-2454764D01*
G54D58*
G01X-769149Y-1278091D02*
G01X-814050Y-1233190D01*
G01X-510069Y-1278091D02*
G01X-769149Y-1278091D01*
G01X-397189Y-1594778D02*
G01X-397189Y-1390971D01*
G01X-269240Y-1722728D02*
G01X-397189Y-1594778D01*
G01X-397189Y-1390971D02*
G01X-510069Y-1278091D01*
G01X-269240Y-1795780D02*
G01X-269240Y-1722728D01*
G54D64*
G01X-1316340Y-2174560D02*
G01X-1316340Y-2025396D01*
G01X-1316340Y-1968500D01*
G54D59*
G01X-980440Y-1931772D02*
G01X-981812Y-1930400D01*
G01X-1104280Y-1930400D01*
G01X-1104280Y-1835404D02*
G01X-992784Y-1835404D01*
G01X-980440Y-1847748D01*
G01X-912840Y-1889565D02*
G01X-912840Y-1877339D01*
G01X-879546Y-1844045D01*
G01X-980440Y-1931772D02*
G01X-955046Y-1931772D01*
G01X-912840Y-1889565D01*
G54D60*
G01X-677062Y-1602740D02*
G01X-649549Y-1630253D01*
G01X-649549Y-1844045D01*
G54D58*
G01X-1344280Y-1835404D02*
G01X-1248776Y-1739900D01*
G01X-1069340Y-1739900D01*
G01X-932180Y-1602740D01*
G01X-677062Y-1602740D01*
G01X-537058Y-1602740D02*
G01X-507770Y-1632027D01*
G01X-507770Y-1854765D01*
G01X-1093800Y-2197100D02*
G01X-1093800Y-2035876D01*
G01X-1104280Y-2025396D01*
G54D60*
G01X-746760Y-1925320D02*
G01X-717398Y-1954682D01*
G01X-717398Y-2108200D01*
G01X-649549Y-1844045D02*
G01X-674954Y-1818640D01*
G01X-746760Y-1818640D01*
G54D61*
G01X-746760Y-1818640D02*
G01X-746760Y-1925320D01*
G54D58*
G01X-1093800Y-2197100D02*
G01X-1083640Y-2197100D01*
G01X-992200Y-2105660D01*
G01X-859942Y-2105660D01*
G01X-857402Y-2108200D01*
G54D11*
G01X2219289Y-772160D02*
G01X2219289Y-1247811D01*
G01X2174900Y-1292200D01*
G01X2075790Y-1292200D01*
G01X2183690Y-744930D02*
G01X2183690Y-1209970D01*
G01X2267467Y-661153D02*
G01X2183690Y-744930D01*
G01X2267467Y-413267D02*
G01X2267467Y-661153D01*
G01X2183690Y-329490D02*
G01X2267467Y-413267D01*
G01X2183690Y247090D02*
G01X2183690Y-329490D01*
G01X2001520Y429260D02*
G01X2183690Y247090D01*
G01X933490Y429260D02*
G01X2001520Y429260D01*
G01X859952Y502799D02*
G01X933490Y429260D01*
G01X309779Y502799D02*
G01X859952Y502799D01*
G01X259101Y452120D02*
G01X309779Y502799D01*
G01X-107198Y452120D02*
G01X259101Y452120D01*
G01X2183690Y-1209970D02*
G01X2151447Y-1242212D01*
G01X2075790Y-1242212D01*
G01X565810Y-742188D02*
G01X452913Y-742188D01*
G01X444500Y-750601D01*
G01X565810Y-642188D02*
G01X412710Y-642188D01*
G01X310198Y-539677D01*
G01X298523Y-539677D01*
G01X565810Y-692201D02*
G01X362001Y-692201D01*
G01X342900Y-673100D01*
G01X565810Y-592201D02*
G01X457550Y-592201D01*
G01X436553Y-571204D01*
G01X565810Y-542188D02*
G01X558698Y-549301D01*
G01X497240Y-549301D01*
G01X444500Y-496561D01*
G01X444500Y-447100D01*
G01X459800Y-431800D01*
G54D59*
G01X4274820Y-165100D02*
G01X4084739Y24981D01*
G01X4084739Y337820D01*
G01X4274820Y-165100D02*
G01X4071565Y-165100D01*
G01X4010630Y-226036D01*
G01X4100932Y-444500D02*
G01X4109720Y-435712D01*
G01X4109720Y-368300D01*
G01X3855720Y-95098D02*
G01X3874922Y-95098D01*
G01X3906520Y-63500D01*
G01X3159760Y-657860D02*
G01X3004401Y-657860D01*
G01X2732621Y-386080D01*
G01X3210560Y-607060D02*
G01X3159760Y-657860D01*
G01X3290164Y-607060D02*
G01X3210560Y-607060D01*
G01X3517900Y-661444D02*
G01X3463516Y-607060D01*
G01X3440836Y-607060D01*
G01X3517900Y-661444D02*
G01X3517900Y-646532D01*
G01X3571240Y-593192D01*
G01X3360817Y828025D02*
G01X3408588Y875796D01*
G01X3408588Y1079551D01*
G01X3359048Y739140D02*
G01X3328264Y708355D01*
G01X3328264Y607060D01*
G01X3443072Y739140D02*
G01X3511652Y670560D01*
G01X3558540Y670560D01*
G01X-3667760Y647700D02*
G01X-3935628Y647700D01*
G01X-4011828Y571500D01*
G01X-3768192Y568960D02*
G01X-3592604Y568960D01*
G01X-3563620Y597944D01*
G01X-3858260Y456032D02*
G01X-3858260Y478892D01*
G01X-3768192Y568960D01*
G01X-3850640Y95098D02*
G01X-3850640Y50800D01*
G01X-3830320Y30480D01*
G01X-4089400Y195580D02*
G01X-4036005Y195580D01*
G01X-4005550Y226036D01*
G01X-4089400Y-287023D02*
G01X-4089400Y195580D01*
G01X-3356508Y-731520D02*
G01X-3222425Y-597436D01*
G01X-3319239Y-597436D01*
G01X-3440532Y-731520D02*
G01X-3463392Y-708660D01*
G01X-3522980Y-708660D01*
G01X-3560110Y-671530D01*
G01X-3558632Y-670052D02*
G01X-3752091Y-670052D01*
G01X-4031491Y-344932D02*
G01X-4089400Y-287023D01*
G01X-2453640Y838200D02*
G01X-2151329Y838200D01*
G01X-2108200Y795071D01*
G54D58*
G01X-1953260Y-38100D02*
G01X-2171700Y-38100D01*
G01X-2427732Y-294132D01*
G01X-2541727Y-294132D01*
G54D59*
G01X-2519680Y-73660D02*
G01X-2580640Y-12700D01*
G01X-2725420Y-12700D01*
G01X-2108200Y358089D02*
G01X-2308860Y157429D01*
G01X-2308860Y10160D01*
G01X-2392680Y-73660D01*
G01X-2519680Y-73660D01*
G01X1377848Y-2298700D02*
G01X1377848Y-2177288D01*
G01X1383436Y-2171700D01*
G01X995680Y-2273249D02*
G01X1021131Y-2298700D01*
G01X1377848Y-2298700D01*
G01X995680Y-2710231D02*
G01X1112317Y-2826868D01*
G01X1112317Y-2937538D01*
G54D11*
G01X782320Y-2202180D02*
G01X782320Y-2280920D01*
G01X881380Y-2379980D01*
G01X120808Y-1652428D02*
G01X579120Y-2110740D01*
G01X690880Y-2110740D01*
G01X782320Y-2202180D01*
G54D59*
G01X483641Y-2271860D02*
G01X275826Y-2271860D01*
G01X653644Y-2271860D02*
G01X703580Y-2321796D01*
G01X703580Y-2458618D01*
G01X703580Y-2545182D02*
G01X506984Y-2545182D01*
G54D11*
G01X1864739Y-2299157D02*
G01X1864739Y-2295781D01*
G01X881380Y-2379980D02*
G01X1783916Y-2379980D01*
G01X1864739Y-2299157D01*
G01X1870812Y-1922872D02*
G01X1870812Y-1847190D01*
G01X1614576Y-2014220D02*
G01X1620799Y-2007997D01*
G01X1620799Y-1847190D01*
G01X1538569Y-1955090D02*
G01X1523034Y-1955090D01*
G01X1463904Y-2014220D01*
G01X1570812Y-1847190D02*
G01X1570812Y-1922847D01*
G01X1538569Y-1955090D01*
G01X1583519Y-1692318D02*
G01X1570812Y-1705025D01*
G01X1570812Y-1847190D01*
G01X1720799Y-1847190D02*
G01X1670812Y-1847190D01*
G01X1864739Y-2295781D02*
G01X1950720Y-2209800D01*
G01X1950720Y-2002781D01*
G01X1870812Y-1922872D01*
G01X1798320Y-1963420D02*
G01X1817472Y-1982572D01*
G01X1817472Y-2029460D01*
G01X1720799Y-1847190D02*
G01X1720799Y-1936699D01*
G01X1747520Y-1963420D01*
G01X1798320Y-1963420D01*
G01X1817472Y-2029460D02*
G01X1807312Y-2039620D01*
G01X1807312Y-2143760D01*
G01X1809839Y-2146287D01*
G01X1809839Y-2260600D01*
G01X1723288Y-2143760D02*
G01X1723288Y-2039620D01*
G01X1733448Y-2029460D01*
G54D59*
G01X1641350Y-2281809D02*
G01X1624459Y-2298700D01*
G01X1461872Y-2298700D01*
G54D11*
G01X1641350Y-2281809D02*
G01X1662559Y-2260600D01*
G01X1725841Y-2260600D01*
G01X1643380Y-2159000D02*
G01X1708048Y-2159000D01*
G01X1723288Y-2143760D01*
G01X1614576Y-2014220D02*
G01X1614576Y-2130196D01*
G01X1643380Y-2159000D01*
G54D64*
G01X751198Y1424756D02*
G01X530035Y1645920D01*
G01X198831Y1645920D01*
G54D59*
G01X198831Y1422300D02*
G01X198831Y1645920D01*
G01X143005Y1341080D02*
G01X143005Y1366474D01*
G01X198831Y1422300D01*
G54D11*
G01X182214Y-402895D02*
G01X343808Y-241300D01*
G01X508000Y-241300D01*
G01X584200Y-165100D01*
G01X143261Y-492194D02*
G01X358554Y-276900D01*
G01X502645Y-276900D01*
G01X521137Y-295392D01*
G01X332740Y-1211580D02*
G01X463372Y-1342212D01*
G01X398780Y-1219200D02*
G01X471780Y-1292200D01*
G01X337820Y-1036320D02*
G01X365780Y-1064280D01*
G01X147320Y-1089660D02*
G01X294640Y-1089660D01*
G01X332740Y-1127760D01*
G01X332740Y-1211580D01*
G01X365780Y-1064280D02*
G01X365780Y-1099840D01*
G01X398780Y-1132840D01*
G01X398780Y-1219200D01*
G01X-593202Y-910895D02*
G01X-415595Y-910895D01*
G01X-294640Y-789940D01*
G01X-593202Y-275895D02*
G01X-414219Y-275895D01*
G01X-373380Y-316733D01*
G01X134417Y-972820D02*
G01X144780Y-972820D01*
G01X62103Y-900506D02*
G01X134417Y-972820D01*
G01X419100Y-985520D02*
G01X425780Y-992200D01*
G01X565810Y-992200D01*
G01X424180Y-1064260D02*
G01X452120Y-1092200D01*
G01X565810Y-1092200D01*
G54D59*
G01X2847340Y825500D02*
G01X2936240Y825500D01*
G01X3116580Y825500D01*
G01X3535588Y1079551D02*
G01X3535588Y1181192D01*
G01X2760888Y1079551D02*
G01X2760888Y1168492D01*
G01X4310288Y1079551D02*
G01X4310288Y1155792D01*
G01X4056288Y1193892D02*
G01X4056288Y1079551D01*
G01X2506888Y1181008D02*
G01X2506888Y1079551D01*
G01X3281588Y1181008D02*
G01X3281588Y1079551D01*
G54D11*
G01X1943100Y-469900D02*
G01X2009140Y-403860D01*
G01X2009140Y-294640D01*
G01X820801Y-337210D02*
G01X820801Y-247421D01*
G01X927100Y-141122D01*
G01X1070788Y-337210D02*
G01X1070788Y-412868D01*
G01X1117600Y-459680D01*
G01X1320800Y-337210D02*
G01X1320800Y-254000D01*
G01X1258558Y-34615D02*
G01X1258558Y-33040D01*
G01X1254588Y-185592D02*
G01X1254588Y-113235D01*
G01X1220800Y-219380D02*
G01X1254588Y-185592D01*
G01X1170788Y-337210D02*
G01X1170788Y-201267D01*
G01X1187875Y-184179D01*
G01X1187875Y26996D01*
G01X1312988Y-89045D02*
G01X1258558Y-34615D01*
G01X1270813Y-337210D02*
G01X1270813Y-235407D01*
G01X1312988Y-193232D01*
G01X1312988Y-89045D01*
G01X1320800Y-254000D02*
G01X1377918Y-196882D01*
G01X1377918Y-156395D01*
G01X858734Y421426D02*
G01X1120800Y159360D01*
G01X1120800Y-337210D01*
G54D58*
G01X927100Y-1118D02*
G01X947420Y-1118D01*
G01X1015765Y67227D01*
G54D11*
G01X1520800Y-337210D02*
G01X1520800Y-187300D01*
G01X1315720Y17780D01*
G01X1315720Y213360D01*
G01X1670812Y-243332D02*
G01X1670812Y-337210D01*
G01X1770812Y-337210D02*
G01X1770812Y-208258D01*
G01X1723989Y-161435D01*
G01X1723989Y-113629D01*
G01X1694180Y-83820D01*
G01X1501140Y53340D02*
G01X1541780Y12700D01*
G01X1541780Y-114300D01*
G01X1670812Y-243332D01*
G01X1582420Y170180D02*
G01X1582420Y276860D01*
G01X1633240Y119360D02*
G01X1582420Y170180D01*
G01X1633240Y-121032D02*
G01X1633240Y119360D01*
G01X1720799Y-208591D02*
G01X1633240Y-121032D01*
G01X1720799Y-337210D02*
G01X1720799Y-208591D01*
G04 Track End*

M02*

