<?xml version="1.0" standalone="no"?>
 <!DOCTYPE svg PUBLIC "-//W3C//DTD SVG 1.1//EN" 
 "http://www.w3.org/Graphics/SVG/1.1/DTD/svg11.dtd"> 
<svg
  xmlns:svg="http://www.w3.org/2000/svg"
  xmlns="http://www.w3.org/2000/svg"
  xmlns:xlink="http://www.w3.org/1999/xlink"
  xmlns:inkscape="http://www.inkscape.org/namespaces/inkscape"
  version="1.1"
  width="297.0022mm" height="210.0072mm" viewBox="0.0000 0.0000 297.0022 210.0072">
<title>SVG Image created as logo-B_Cu.svg date 2026-05-07T10:26:25 </title>
  <desc>Image generated by PCBNEW </desc>
<g style="fill:#000000; fill-opacity:1.0000;stroke:#000000; stroke-opacity:1.0000;
stroke-linecap:round; stroke-linejoin:round;"
 transform="translate(0 0) scale(1 1)">
</g>
<g style="fill:#000000; fill-opacity:1.0000; stroke:none;">
<circle cx="168.5000" cy="70.0000" r="0.3000" /> 
<circle cx="168.5000" cy="68.0000" r="0.3000" /> 
<circle cx="170.0000" cy="75.0000" r="0.3000" /> 
<circle cx="157.5000" cy="76.5000" r="0.3000" /> 
<circle cx="157.5000" cy="70.0000" r="0.3000" /> 
<circle cx="157.5000" cy="68.0000" r="0.3000" /> 
<circle cx="165.0000" cy="72.0000" r="0.3000" /> 
<circle cx="163.0000" cy="72.0000" r="0.3000" /> 
<circle cx="162.5000" cy="70.0000" r="0.3000" /> 
<circle cx="175.0000" cy="71.0000" r="0.3000" /> 
<circle cx="174.5000" cy="73.5000" r="0.3000" /> 
<circle cx="172.5000" cy="75.5000" r="0.3000" /> 
<circle cx="177.0000" cy="69.0000" r="0.3000" /> 
<circle cx="168.5000" cy="76.5000" r="0.3000" /> 
<circle cx="166.0000" cy="76.5000" r="0.3000" /> 
<circle cx="161.5000" cy="76.5000" r="0.3000" /> 
<circle cx="161.5000" cy="68.0000" r="0.3000" /> 
<circle cx="159.0000" cy="75.0000" r="0.3000" /> 
</g> 
</svg>
